<?xml version="1.0" encoding="utf-8"?>
<svg xmlns="http://www.w3.org/2000/svg" height="146.033747" preserveAspectRatio="xMidYMid meet" version="1.0" viewBox="0 0 187.109869 146.033747" width="187.109869">
	<title>This is a drawing of a carp tail.</title>
	<g fill="#000000" stroke="none" transform="translate(-19.487374,167.153087) rotate(-360.00) scale(0.095238,-0.095238)">
		<path d="M416 1751 c-67 -8 -111 -31 -111 -55 0 -21 14 -20 55 2 46 24 224 22 303 -4 64 -20 218 -99 268 -136 19 -14 38 -25 44 -25 5 0 26 -15 45 -33 56 -53 109 -72 188 -66 73 5 110 19 120 44 11 28 -12 40 -48 26 -46 -17 -35 5 20 43 182 123 392 188 500 155 18 -6 52 -15 75 -21 61 -16 124 -65 168 -132 28 -42 37 -64 32 -83 -4 -14 -60 -79 -125 -145 -82 -82 -129 -139 -153 -184 -19 -36 -39 -66 -45 -66 -7 0 -8 8 -4 18 25 61 26 79 5 84 -11 3 -21 14 -22 25 -1 11 -2 26 -3 33 0 7 13 15 30 18 50 9 44 30 -10 38 -26 4 -51 4 -55 0 -4 -4 -6 -49 -5 -100 3 -87 1 -97 -36 -175 -21 -45 -49 -95 -62 -109 -13 -14 -39 -71 -58 -126 -32 -94 -34 -110 -39 -296 -5 -208 -1 -229 41 -229 17 0 19 5 12 29 -4 16 -7 69 -7 118 1 70 7 104 28 158 15 37 36 96 45 131 22 75 78 204 89 204 14 0 21 -47 14 -95 -3 -26 -19 -80 -35 -121 -17 -41 -35 -104 -42 -141 -7 -37 -17 -74 -24 -81 -8 -10 -7 -17 2 -27 19 -18 40 15 54 86 15 72 22 94 57 175 26 61 27 68 20 206 l-7 143 28 6 c15 4 38 23 51 42 42 62 95 122 204 233 86 87 106 113 101 131 -5 21 -4 22 16 9 31 -19 37 -7 19 36 -29 70 -142 173 -207 189 -14 4 -60 18 -103 33 -145 51 -256 31 -492 -87 -20 -9 -63 -40 -96 -67 -89 -73 -129 -76 -238 -18 -46 24 -88 48 -94 53 -6 5 -54 31 -105 57 -156 81 -289 113 -408 97z m1224 -891 c-23 -48 -51 -121 -64 -162 -27 -89 -43 -117 -43 -78 0 62 50 197 113 304 42 73 39 35 -6 -64z"/>
		<path d="M205 1539 l0 -130 68 -74 c38 -40 106 -117 152 -169 46 -53 112 -125 146 -161 87 -93 111 -135 128 -226 23 -117 30 -310 15 -390 -7 -38 -15 -82 -18 -98 -4 -20 -1 -29 10 -29 10 0 22 31 38 103 12 56 23 115 23 131 -1 44 18 35 31 -16 6 -24 23 -78 37 -118 14 -41 26 -82 26 -90 0 -9 7 -25 15 -36 12 -16 18 -18 28 -8 9 9 10 17 2 26 -6 8 -14 32 -18 55 -4 23 -14 55 -23 71 -8 16 -15 39 -15 53 0 13 -7 37 -15 54 -9 16 -16 52 -16 79 0 26 -6 67 -12 90 -6 23 -12 56 -13 73 -1 18 -10 35 -22 42 -31 16 -37 28 -37 69 -1 51 -43 130 -71 135 -13 1 -46 33 -78 73 -31 39 -71 87 -91 107 -63 66 -130 171 -184 288 -48 106 -51 117 -39 147 26 63 26 69 2 69 -13 0 -22 -7 -22 -16 0 -23 -18 -19 -24 6 -14 53 -24 9 -23 -110z m75 -117 c34 -62 28 -78 -12 -31 -36 42 -49 85 -24 77 7 -3 24 -23 36 -46z m501 -807 c3 -9 1 -19 -4 -22 -6 -3 -10 3 -10 15 0 26 5 28 14 7z"/>
		<path d="M1225 1052 c-10 -11 -30 -61 -44 -111 -38 -131 -55 -162 -72 -134 -9 14 -38 162 -38 193 0 18 -6 29 -15 29 -32 0 -31 -14 23 -223 15 -56 19 -93 13 -117 -9 -43 -4 -122 9 -136 14 -13 30 22 31 67 1 21 16 79 33 129 18 50 44 135 58 188 14 54 28 106 32 116 9 24 -8 23 -30 -1z"/>
		<path d="M893 1022 c0 -3 20 -40 44 -81 25 -41 59 -102 76 -135 28 -54 48 -75 48 -52 0 12 -77 160 -116 220 -30 48 -52 69 -52 48z"/>
		<path d="M1366 969 c-9 -19 -50 -152 -75 -248 -10 -37 -10 -53 -1 -62 6 -7 14 -9 18 -6 3 3 19 55 36 115 17 60 38 127 46 150 15 41 13 69 -5 69 -5 0 -13 -8 -19 -18z"/>
	</g>
</svg>
