<?xml version="1.0" encoding="utf-8"?>
<svg xmlns="http://www.w3.org/2000/svg" height="130.218930" preserveAspectRatio="xMidYMid meet" version="1.0" viewBox="0 0 92.768869 130.218930" width="92.768869">
	<title>This is a drawing of a twiddle e-shape.</title>
	<metadata>
Created by Potrace Professional 1.1m
</metadata>
	<g fill="#000000" stroke="none" transform="translate(-32.888317,142.813571) rotate(-360.00) scale(0.095238,-0.095238)">
		<path d="M706 1482 c-82 -31 -122 -59 -186 -131 -74 -83 -113 -175 -141 -338 -27 -152 -40 -370 -30 -477 15 -161 120 -341 224 -385 72 -30 211 -23 335 17 104 33 143 55 128 70 -5 5 -104 8 -221 8 -156 1 -218 4 -229 14 -9 7 -24 11 -32 7 -9 -3 -19 -1 -23 5 -4 6 -3 12 3 12 5 0 8 9 5 20 -3 12 -10 19 -15 15 -6 -3 -9 -2 -8 3 2 5 -4 42 -12 82 -17 78 -21 421 -7 552 8 76 38 180 54 185 6 2 20 -13 31 -34 26 -48 82 -97 141 -123 38 -17 54 -18 84 -10 21 6 67 11 101 12 54 1 79 10 168 55 152 78 198 114 225 178 15 33 21 64 17 79 -11 46 -80 109 -168 153 l-84 43 -152 4 c-132 4 -160 1 -208 -16z m419 -91 c51 -27 74 -50 59 -60 -10 -6 -5 -15 16 -33 30 -24 30 -24 12 -61 -10 -22 -35 -47 -57 -60 -46 -26 -60 -28 -42 -7 20 25 3 39 -29 23 -71 -35 -296 -72 -358 -58 -35 8 -117 77 -117 98 2 36 137 137 200 149 17 4 34 11 37 16 10 17 244 11 279 -7z"/>
	</g>
</svg>
