<?xml version="1.0" encoding="utf-8"?>
<svg xmlns="http://www.w3.org/2000/svg" height="177.480588" preserveAspectRatio="xMidYMid meet" version="1.0" viewBox="0 0 186.432458 177.480588" width="186.432458">
	<title>A drawing of a river.</title>
	<g fill="#000000" stroke="none" transform="translate(-41.067542,195.872899) rotate(-360.00) scale(0.095238,-0.095238)">
		<path d="M619 2038 c-103 -22 -174 -61 -184 -101 -11 -43 2 -42 57 4 60 50 84 60 175 75 60 10 75 8 113 -8 47 -21 97 -72 146 -149 37 -58 38 -108 5 -207 -33 -96 -46 -119 -122 -219 -35 -46 -83 -122 -107 -168 -35 -70 -41 -91 -37 -127 5 -36 -1 -57 -35 -126 -49 -97 -52 -126 -14 -185 33 -53 53 -70 84 -71 30 0 38 -13 71 -112 32 -97 83 -172 131 -192 31 -13 161 -12 174 1 9 9 10 115 1 156 -4 20 -14 60 -22 89 -23 78 -20 124 10 152 14 13 34 41 43 61 15 31 16 43 5 76 -28 85 32 160 137 173 51 6 60 5 78 -15 11 -13 53 -39 93 -60 62 -30 78 -34 101 -25 15 6 52 16 83 21 68 13 81 5 90 -50 11 -60 -7 -92 -66 -122 -55 -28 -85 -61 -85 -93 0 -10 11 -42 26 -70 14 -29 26 -64 26 -78 0 -37 59 -207 75 -218 25 -17 103 -3 131 24 24 23 36 25 133 25 159 0 197 27 220 152 11 57 10 69 -8 103 -43 83 -107 168 -270 357 -55 64 -60 75 -60 121 -1 55 0 55 131 103 41 15 42 17 40 64 -1 33 -12 68 -33 105 -17 30 -34 69 -38 87 -4 17 -15 39 -24 49 -23 25 -13 107 17 138 12 13 22 33 22 43 0 14 6 17 23 13 32 -8 137 18 173 44 20 15 59 25 118 33 50 6 100 18 116 29 l27 18 -26 4 c-15 2 -50 -1 -79 -7 -29 -6 -76 -14 -105 -18 -29 -4 -72 -17 -95 -30 -23 -13 -79 -37 -124 -53 l-83 -30 -31 -66 c-29 -63 -30 -68 -14 -98 9 -17 21 -34 27 -38 12 -8 62 -112 82 -172 26 -79 16 -93 -84 -123 -56 -17 -72 -39 -72 -100 0 -38 16 -64 105 -172 152 -185 191 -247 211 -338 12 -51 11 -61 -9 -103 -30 -61 -77 -83 -170 -80 -38 1 -82 3 -97 4 -18 0 -42 -12 -67 -33 -49 -43 -70 -39 -82 15 -13 57 -54 180 -79 236 -26 58 -16 82 48 116 60 33 88 77 88 140 0 39 -6 55 -27 76 -26 26 -31 27 -103 20 -152 -14 -155 -14 -226 34 -72 48 -117 61 -181 52 -69 -9 -115 -40 -144 -96 -25 -47 -26 -55 -16 -115 l11 -64 -40 -45 c-35 -38 -41 -51 -41 -92 0 -27 11 -74 25 -108 49 -116 49 -184 0 -194 -65 -12 -142 36 -157 98 -4 14 -15 49 -25 78 -11 29 -22 73 -27 98 -8 50 -24 62 -56 45 -25 -14 -52 7 -80 61 -15 30 -15 36 9 93 14 33 31 86 38 118 32 141 41 159 204 401 68 100 102 193 103 284 2 65 -1 74 -39 129 -44 64 -133 149 -171 164 -34 13 -67 10 -171 -11z"/>
		<path d="M633 1936 c-8 -3 -13 -12 -13 -20 0 -10 16 -15 49 -18 l50 -3 -2 -150 c-2 -109 -7 -158 -19 -180 -8 -17 -15 -36 -15 -43 0 -7 -7 -27 -16 -45 -8 -18 -22 -52 -32 -75 -9 -23 -33 -66 -53 -95 -46 -67 -54 -114 -32 -179 9 -28 17 -54 17 -58 0 -5 -28 -42 -63 -84 -84 -101 -83 -137 8 -229 30 -30 55 -67 63 -93 11 -38 10 -49 -9 -92 -18 -40 -21 -61 -15 -104 4 -29 8 -89 10 -132 2 -43 4 -87 5 -98 1 -26 68 -52 109 -43 18 4 51 19 72 33 32 21 47 25 74 19 19 -4 64 -10 99 -13 63 -5 66 -4 89 28 13 17 29 32 36 32 22 0 98 62 113 92 8 16 23 63 33 104 31 126 41 149 88 183 37 27 42 35 33 52 -5 11 -15 22 -21 26 -6 4 -24 34 -41 67 -26 52 -29 64 -18 86 16 33 64 38 121 13 52 -23 57 -35 60 -150 1 -50 7 -104 12 -122 7 -20 7 -39 1 -50 -19 -35 -50 -139 -50 -172 -1 -42 39 -90 93 -111 52 -21 334 -14 419 10 31 9 74 14 95 11 52 -7 123 11 182 47 44 27 51 37 70 101 42 141 46 167 45 284 0 105 -3 123 -24 158 -27 43 -188 195 -227 214 -18 8 -24 19 -21 38 2 20 18 35 66 61 71 40 120 88 120 118 0 12 -14 52 -31 90 -17 38 -31 75 -31 82 0 8 -27 41 -59 74 -36 37 -57 66 -53 75 10 27 71 56 195 95 113 35 160 59 146 73 -21 20 -310 -80 -363 -126 -47 -41 -43 -54 26 -105 28 -21 50 -48 62 -79 10 -26 26 -61 36 -79 25 -44 33 -91 17 -110 -7 -9 -39 -32 -70 -51 -85 -51 -105 -73 -105 -112 0 -28 7 -39 43 -64 49 -33 70 -51 159 -135 33 -32 60 -66 61 -76 0 -10 4 -54 9 -97 9 -90 -1 -175 -32 -273 -32 -99 -31 -97 -104 -133 -58 -28 -72 -31 -110 -23 -36 8 -55 5 -101 -13 -40 -15 -96 -24 -193 -31 -230 -15 -278 1 -278 89 0 28 11 72 26 108 20 44 26 70 21 97 -3 20 -8 80 -10 132 -2 52 -6 104 -10 115 -8 24 -100 78 -153 90 -59 14 -111 -5 -131 -47 -32 -68 -14 -130 52 -180 43 -33 45 -44 12 -57 -13 -5 -29 -15 -35 -23 -10 -12 -40 -125 -61 -225 -9 -39 -88 -119 -132 -132 -23 -7 -41 -19 -41 -26 0 -18 -67 -19 -131 -2 -44 12 -49 11 -89 -17 -27 -19 -58 -30 -82 -31 l-40 -1 -6 63 c-4 34 -14 85 -23 112 -18 54 -13 89 25 173 l20 44 -28 61 c-15 34 -46 81 -68 106 -32 35 -40 52 -40 84 0 34 8 50 57 103 55 58 58 65 53 104 -20 155 -20 147 13 196 34 50 108 203 108 225 0 8 8 29 19 49 16 27 22 66 27 184 l8 150 -34 31 c-32 30 -75 40 -112 25z"/>
	</g>
</svg>
