<?xml version="1.0" encoding="utf-8"?>
<svg xmlns="http://www.w3.org/2000/svg" height="143.349397pt" preserveAspectRatio="xMidYMid meet" version="1.0" viewBox="0 0 159.103373 143.349397" width="159.103373pt">
	<metadata>
Created by Potrace Professional 1.1m
</metadata>
	<g fill="#000000" stroke="none" transform="translate(-14.686919,156.708358) rotate(-360.00) scale(0.095238,-0.095238)">
		<path d="M1801 1612 c13 -70 27 -91 22 -33 -2 27 -10 56 -17 63 -9 9 -10 2 -5 -30z"/>
		<path d="M263 1597 c0 -26 5 -28 14 -7 3 9 1 19 -4 22 -6 3 -10 -3 -10 -15z"/>
		<path d="M347 1590 c0 -9 4 -13 10 -10 6 4 8 11 5 17 -9 14 -15 12 -15 -7z"/>
		<path d="M1803 1223 c-4 -98 -15 -218 -23 -267 -54 -310 -69 -367 -143 -522 -17 -36 -30 -68 -30 -72 0 -3 -15 -27 -32 -52 -33 -48 -40 -73 -19 -66 7 2 27 32 45 66 19 35 46 81 62 104 15 22 28 48 28 57 0 10 8 32 19 49 27 44 42 92 60 195 40 222 67 592 49 655 -7 23 -11 -18 -16 -147z"/>
		<path d="M259 1347 c-6 -10 -23 -131 -20 -142 1 -4 -3 -20 -9 -37 -6 -16 -18 -85 -26 -155 -7 -69 -21 -171 -31 -225 -9 -55 -14 -109 -11 -120 2 -10 1 -30 -4 -43 -6 -16 -4 -33 6 -53 10 -20 12 -33 4 -40 -27 -28 0 -280 36 -336 27 -40 73 -63 113 -54 33 7 103 63 103 82 0 6 -13 -1 -29 -15 -38 -34 -71 -52 -96 -51 -29 0 -83 66 -90 112 -4 22 -11 51 -17 64 -5 13 -9 43 -9 65 0 32 4 42 17 42 16 0 16 1 0 19 -22 24 -22 43 -2 51 22 8 20 32 -5 48 -25 16 -27 27 -4 25 10 -1 20 5 22 12 3 7 -2 13 -11 13 -14 0 -14 4 1 34 19 38 41 152 51 263 6 61 4 71 -10 71 -20 0 -23 32 -8 61 6 11 13 47 16 81 3 34 15 88 27 120 25 70 27 116 6 116 -8 0 -17 -4 -20 -8z m-26 -416 c3 -13 3 -29 0 -36 -8 -25 -18 -13 -20 24 -2 41 13 50 20 12z m-23 -91 c0 -6 -2 -10 -5 -10 -2 0 -7 4 -11 10 -3 6 -1 11 5 11 6 0 11 -5 11 -11z m0 -94 c0 -6 -5 -11 -10 -11 -6 0 -11 5 -11 11 0 5 5 10 11 10 5 0 10 -5 10 -10z"/>
		<path d="M1442 1263 c4 -27 14 -59 22 -72 18 -26 63 -38 97 -25 39 15 28 30 -19 28 -47 -2 -72 20 -72 62 0 31 -10 57 -24 57 -6 0 -8 -19 -4 -50z"/>
		<path d="M918 873 c-5 -5 -32 -17 -59 -27 -51 -18 -116 -85 -166 -169 -13 -23 -36 -54 -50 -70 -31 -34 -25 -61 14 -61 15 0 36 -5 48 -11 11 -6 68 -13 127 -16 111 -4 253 -26 355 -53 31 -9 70 -19 86 -22 33 -6 44 -23 53 -76 3 -21 15 -63 27 -95 18 -46 31 -64 67 -86 61 -38 82 -40 93 -10 8 19 6 23 -9 22 -60 -6 -66 -2 -108 89 -52 110 -53 128 -5 148 43 18 51 30 50 71 -2 48 -20 60 -46 29 -11 -15 -25 -37 -30 -50 -12 -28 -29 -30 -61 -8 -26 19 -31 52 -7 61 39 15 5 25 -124 38 -177 16 -356 21 -417 11 -37 -6 -24 -8 62 -9 59 0 111 -3 115 -7 22 -22 -116 -35 -209 -20 -52 9 -71 41 -44 71 11 13 28 37 39 53 28 46 101 122 131 138 15 7 48 17 74 21 l47 7 103 -94 c56 -52 112 -106 124 -122 23 -29 41 -36 41 -15 0 19 -175 184 -244 230 -70 47 -64 44 -77 32z m302 -328 c28 -7 40 -17 45 -37 3 -15 5 -29 3 -31 -3 -3 -28 2 -56 10 -29 9 -97 24 -153 34 -78 14 -100 22 -96 33 5 12 26 14 112 8 59 -4 123 -12 145 -17z"/>
		<path d="M509 578 c-29 -5 -68 -6 -88 -3 -26 4 -34 2 -28 -7 10 -17 208 -14 202 3 -5 15 -21 16 -86 7z"/>
		<path d="M572 489 c-10 -15 -16 -30 -13 -33 4 -4 14 6 24 21 10 15 16 30 13 33 -4 4 -14 -6 -24 -21z"/>
		<path d="M536 419 c0 -6 4 -8 10 -4 6 3 11 8 11 11 0 2 -5 5 -11 5 -6 0 -10 -6 -10 -12z"/>
	</g>
</svg>
