<?xml version="1.0" encoding="utf-8"?>
<svg xmlns="http://www.w3.org/2000/svg" height="111.950528" preserveAspectRatio="xMidYMid meet" version="1.0" viewBox="0 0 887.618625 111.950528" width="887.618625">
	<title>This is a drawing of a chain of alphabet symbols.</title>
	<g fill="#000000" stroke="none" transform="translate(-32.543251,133.950528) rotate(-360.00) scale(0.095238,-0.095238)">
		<path d="M1460 1392 c-7 -9 -15 -56 -17 -106 -2 -50 -13 -129 -24 -177 -11 -47 -26 -114 -33 -148 -7 -35 -19 -74 -27 -87 -8 -12 -15 -30 -15 -39 0 -9 -9 -16 -20 -16 -11 0 -33 -7 -50 -16 -31 -16 -86 -20 -127 -9 -37 10 -50 59 -49 183 1 151 13 218 39 232 28 15 9 33 -31 28 -27 -3 -29 -7 -27 -39 2 -20 -4 -58 -13 -85 -9 -27 -16 -70 -15 -95 0 -26 -3 -74 -7 -108 l-7 -60 -49 2 c-52 2 -79 -7 -69 -23 4 -6 17 -10 31 -10 14 0 39 -14 56 -31 29 -29 30 -34 22 -81 -5 -27 -13 -64 -18 -82 -12 -48 -6 -215 10 -263 18 -52 67 -80 134 -76 54 3 69 25 25 35 -16 4 -42 19 -58 34 -16 15 -29 23 -29 17 0 -5 -8 2 -18 16 -24 35 -24 219 0 237 13 9 16 24 11 71 -7 68 -3 71 57 40 61 -30 112 -36 149 -17 38 20 38 17 14 -75 -16 -59 -16 -70 -3 -90 44 -69 53 -98 53 -175 0 -61 -3 -76 -13 -66 -22 22 -29 14 -29 -29 0 -36 3 -42 21 -42 32 0 84 55 84 89 0 16 -7 55 -16 88 -11 41 -15 103 -13 196 2 136 2 136 27 133 17 -2 26 4 30 19 3 11 17 24 31 27 48 12 23 52 -30 48 -22 -2 -29 2 -29 16 0 28 40 244 47 255 10 16 37 273 31 284 -9 14 -22 12 -36 -5z m-168 -646 c-21 -14 -63 -14 -63 0 0 5 17 10 39 10 29 0 35 -3 24 -10z m62 -166 c0 -29 -2 -35 -10 -23 -13 20 -13 63 0 63 6 0 10 -18 10 -40z"/>
		<path d="M4382 1252 c-16 -39 -56 -111 -89 -161 -33 -50 -84 -140 -114 -200 -149 -297 -187 -360 -220 -371 -32 -10 -44 -48 -24 -71 22 -25 42 -23 101 6 27 14 51 21 55 16 3 -5 18 -9 33 -9 16 0 75 -16 131 -35 95 -32 101 -36 84 -52 -28 -28 -5 -34 38 -9 50 28 63 29 40 3 -11 -11 -15 -27 -11 -37 10 -26 136 -19 134 7 -2 22 7 23 33 3 22 -17 68 -22 68 -8 0 4 -32 42 -71 84 -47 51 -79 76 -94 76 -28 -1 -29 -8 -8 -36 20 -28 13 -35 -32 -30 -26 4 -43 13 -55 33 -22 34 -34 42 -51 36 -11 -4 -10 -11 4 -32 l17 -27 -36 8 c-33 8 -74 26 -164 73 -31 16 -35 16 -68 -2 -87 -46 -114 -56 -114 -39 0 9 8 19 18 23 58 22 169 191 221 335 6 17 34 62 63 100 45 59 76 115 187 338 21 42 19 49 -15 49 -28 0 -33 -7 -61 -71z"/>
		<path d="M5536 1268 c-40 -19 -86 -172 -86 -287 0 -54 0 -55 49 -87 28 -17 64 -37 80 -43 20 -7 36 -26 50 -58 11 -26 27 -51 35 -55 18 -11 30 -63 17 -71 -6 -4 -11 -34 -11 -67 0 -40 -6 -69 -18 -86 -10 -14 -18 -28 -17 -31 0 -3 -3 -15 -7 -26 -4 -12 -11 -36 -15 -55 -4 -20 -26 -50 -53 -75 -41 -38 -51 -42 -98 -42 -39 0 -62 7 -87 26 -46 33 -135 58 -185 51 -41 -6 -97 -54 -97 -84 0 -19 9 -19 36 1 28 21 96 19 130 -5 34 -24 120 -43 196 -43 122 0 194 62 281 242 47 96 54 120 58 192 l5 82 -58 55 c-35 35 -76 63 -109 74 -28 10 -65 24 -81 30 -16 6 -34 23 -40 38 -15 39 9 166 40 211 13 20 25 42 25 49 0 8 11 16 25 20 42 11 105 -31 171 -114 80 -101 101 -120 139 -128 18 -4 37 -16 43 -27 19 -36 41 -25 38 19 -1 34 -5 39 -28 40 -44 2 -48 5 -29 16 45 26 -6 90 -89 112 -21 6 -55 27 -75 47 -37 35 -158 93 -193 91 -10 0 -29 -6 -42 -12z m176 -482 c0 -28 -41 -25 -52 4 -5 13 -7 27 -4 31 8 14 56 -16 56 -35z m37 -73 c9 -27 -3 -79 -16 -66 -16 17 -17 88 -1 88 6 0 13 -10 17 -22z m-37 -104 c0 -6 -5 -10 -10 -10 -6 0 -11 4 -11 10 0 6 5 11 11 11 5 0 10 -5 10 -11z m-351 -345 c-19 -4 -79 27 -79 40 0 5 21 -1 47 -13 26 -13 40 -25 32 -27z"/>
		<path d="M641 1218 c-77 -12 -112 -30 -140 -72 -32 -49 -39 -93 -27 -185 13 -96 61 -170 139 -215 62 -35 103 -96 101 -150 -3 -77 1 -108 16 -137 14 -28 13 -34 -3 -62 -15 -24 -15 -32 -4 -39 21 -13 -55 -45 -113 -47 -60 -2 -100 22 -124 73 -15 31 -16 42 -4 73 12 33 11 40 -10 68 -27 39 -111 98 -126 89 -17 -10 20 -47 47 -47 12 -1 30 -12 40 -25 16 -22 16 -33 6 -84 -9 -39 -9 -68 -3 -87 16 -45 89 -95 152 -103 74 -10 173 3 194 25 21 24 38 162 30 241 -4 41 -2 64 6 69 8 5 8 13 -1 30 -7 13 -15 37 -18 54 -4 17 -19 38 -34 47 -174 106 -213 144 -246 237 -17 52 0 132 35 160 62 50 171 66 171 25 0 -10 18 -28 40 -41 23 -13 49 -35 58 -49 19 -29 38 -35 38 -11 0 20 35 30 75 21 29 -6 31 -5 26 13 -4 13 -1 26 9 34 27 23 18 35 -20 29 -27 -5 -35 -3 -31 8 7 18 -59 40 -95 31 -17 -4 -36 -1 -51 8 -32 21 -77 27 -133 19z"/>
		<path d="M6143 1200 c-30 -10 -84 -70 -84 -91 0 -33 42 -111 59 -111 13 0 12 6 -6 35 -23 36 -28 85 -13 110 5 7 30 16 55 19 45 6 46 5 23 -12 -16 -11 -24 -28 -24 -51 0 -18 -5 -40 -10 -49 -6 -9 -6 -20 1 -29 16 -19 30 -16 28 5 -5 63 3 100 23 105 12 3 21 14 21 25 0 11 5 20 11 20 5 0 10 -6 10 -13 0 -7 15 -27 33 -46 28 -29 59 -115 45 -129 -2 -2 -15 10 -29 27 -15 16 -30 26 -34 22 -5 -5 2 -19 14 -32 12 -13 29 -40 38 -59 13 -31 13 -42 0 -78 -8 -23 -14 -58 -14 -79 0 -20 -15 -89 -33 -152 -34 -119 -45 -228 -24 -235 7 -2 15 8 19 23 3 14 13 27 22 27 14 0 68 98 68 123 0 14 54 172 78 227 23 52 32 43 13 -13 -8 -24 -11 -46 -6 -49 12 -8 32 43 34 90 1 23 12 47 31 68 15 17 34 48 41 68 21 66 40 85 76 82 23 -2 33 -9 35 -24 5 -27 26 -71 39 -82 7 -5 5 -12 -5 -19 -12 -8 -13 -12 -3 -16 25 -10 14 -25 -39 -51 -29 -15 -52 -31 -52 -35 0 -20 73 -5 114 23 104 73 73 232 -49 253 -70 12 -103 -14 -160 -126 -36 -71 -55 -97 -76 -104 -16 -5 -31 -8 -34 -5 -3 3 -7 36 -9 73 -8 122 -44 210 -100 249 -35 22 -90 30 -127 16z m577 -223 c0 -5 -5 -13 -10 -16 -6 -4 -11 1 -11 10 0 9 5 16 11 16 5 0 10 -4 10 -10z m-329 -181 c-3 -8 -6 -6 -6 6 -1 11 2 18 5 14 4 -3 4 -12 1 -20z"/>
		<path d="M3029 1151 c-38 -17 -107 -95 -182 -208 -59 -89 -66 -95 -88 -87 -14 5 -20 16 -77 133 -36 76 -46 85 -136 119 -60 23 -84 27 -131 21 -31 -3 -68 -13 -80 -21 -28 -18 -67 -118 -67 -170 0 -40 47 -132 84 -166 19 -17 21 -18 21 -2 0 10 -17 51 -37 92 -34 68 -37 80 -31 132 9 69 29 86 115 95 42 4 77 0 123 -13 56 -17 67 -26 99 -72 35 -52 53 -108 21 -64 -33 45 -26 2 11 -68 l39 -76 3 -159 c4 -278 6 -295 31 -299 39 -6 47 20 52 172 4 157 30 309 58 351 9 14 34 60 55 100 62 124 170 191 253 157 62 -26 66 -42 37 -147 -6 -23 -14 -56 -18 -73 -5 -28 -4 -30 11 -18 27 22 52 102 54 167 l1 61 -57 29 c-62 31 -114 36 -164 14z m-260 -359 c-10 -10 -28 5 -28 25 0 16 1 16 17 -1 10 -10 15 -20 11 -24z"/>
		<path d="M3128 1088 c7 -9 11 -32 9 -52 -4 -47 16 -51 25 -5 8 39 -5 72 -29 72 -14 0 -14 -4 -5 -15z"/>
		<path d="M1720 1043 c-13 -4 -16 -13 -12 -39 4 -23 -1 -48 -15 -76 -12 -22 -34 -83 -50 -135 -40 -135 -34 -216 26 -324 47 -87 103 -132 190 -155 42 -11 53 -10 98 10 28 12 59 23 69 23 37 0 75 58 101 153 31 114 31 135 4 208 -12 32 -19 67 -16 78 4 11 0 25 -9 32 -8 7 -13 20 -9 28 3 8 -2 27 -12 41 -13 21 -26 27 -59 27 -34 0 -41 -4 -41 -21 0 -11 12 -30 27 -41 15 -12 24 -27 20 -33 -4 -6 3 -24 15 -41 17 -24 22 -47 22 -109 0 -89 -7 -114 -26 -106 -9 3 -20 -15 -32 -53 -24 -78 -73 -122 -134 -121 -27 0 -53 8 -66 18 -40 34 -99 121 -110 161 -15 55 5 298 27 332 17 26 36 32 36 11 0 -9 3 -9 13 1 9 9 10 20 1 41 -7 20 -7 35 0 47 8 12 7 22 -3 33 -14 17 -22 19 -55 10z"/>
		<path d="M5191 1014 c-10 -27 13 -69 38 -69 27 0 26 2 -5 48 -21 31 -27 35 -33 21z"/>
		<path d="M2520 1000 c0 -11 14 -46 31 -77 18 -31 32 -67 32 -80 0 -21 35 -55 55 -55 14 0 -7 156 -25 191 -18 35 -29 8 -13 -30 9 -21 14 -48 12 -60 -2 -17 -12 -4 -39 49 -40 78 -53 93 -53 62z"/>
		<path d="M9149 963 c-29 -30 -62 -62 -73 -70 -60 -48 -109 -74 -156 -86 -70 -18 -75 -22 -90 -84 -7 -29 -28 -73 -48 -99 -38 -50 -30 -75 12 -36 17 17 33 22 53 18 34 -6 55 32 29 52 -22 18 -9 98 16 98 9 0 31 8 49 17 17 9 56 27 86 41 l54 24 -40 -80 c-47 -95 -60 -155 -43 -206 14 -41 80 -105 97 -94 8 5 -1 19 -22 37 -29 27 -33 36 -31 80 2 65 51 183 126 308 34 55 62 109 62 118 0 31 -28 19 -81 -38z"/>
		<path d="M4900 911 c-28 -19 -70 -46 -94 -61 -28 -18 -43 -34 -41 -45 2 -10 -4 -28 -13 -41 -9 -13 -16 -31 -16 -41 0 -21 -91 -128 -113 -133 -7 -2 -16 4 -20 13 -6 15 -35 24 -35 11 0 -20 24 -46 52 -56 27 -9 35 -7 62 15 26 22 131 169 141 197 4 15 121 -19 137 -39 6 -8 36 -25 65 -38 50 -21 54 -25 67 -74 10 -40 26 -66 66 -105 118 -116 239 -62 239 107 0 85 -26 97 -34 16 -8 -78 -33 -131 -67 -144 -57 -22 -132 27 -166 108 -26 61 -23 66 53 79 38 6 71 14 74 16 7 7 -21 92 -31 92 -4 0 -17 -10 -28 -21 -13 -13 -35 -21 -58 -21 -34 0 -37 2 -43 39 -10 61 -16 76 -27 76 -7 0 -9 -22 -4 -63 9 -73 0 -79 -56 -38 -19 14 -58 31 -86 38 -54 13 -68 35 -31 47 12 4 21 14 21 22 0 16 52 47 81 47 11 0 25 -6 32 -13 17 -17 30 -1 17 21 -7 11 -28 19 -52 21 -33 2 -52 -4 -92 -32z"/>
		<path d="M7661 926 c-30 -18 -82 -116 -96 -182 -9 -44 -65 -156 -77 -156 -5 0 -15 7 -22 16 -21 25 -39 18 -46 -17 -4 -18 -7 -37 -7 -41 0 -4 21 -7 48 -8 38 0 52 5 73 27 14 16 26 35 26 44 1 21 36 121 49 138 6 8 18 36 28 63 10 27 28 57 41 68 12 11 18 13 13 5 -6 -11 -4 -13 8 -9 23 9 64 -37 56 -62 -3 -11 4 -35 15 -53 16 -27 28 -34 52 -34 26 0 33 5 39 28 10 39 64 124 80 124 10 0 12 -32 9 -124 l-4 -124 44 -42 c33 -31 52 -41 72 -39 26 3 29 8 32 55 3 53 -13 88 -26 55 -9 -25 -27 -21 -51 11 -16 23 -20 46 -21 130 -1 109 -11 136 -52 136 -27 0 -69 -42 -95 -94 l-19 -37 -30 34 c-16 19 -30 43 -30 54 0 22 -37 53 -63 53 -9 0 -29 -9 -46 -19z m151 -172 c0 -14 -24 -5 -29 11 -3 7 2 10 12 6 10 -4 17 -11 17 -17z m168 -73 c0 -6 17 -27 37 -46 21 -21 32 -38 26 -42 -6 -4 -19 -1 -27 7 -23 18 -60 93 -47 93 6 0 11 -5 11 -12z"/>
		<path d="M7116 917 c-15 -14 -7 -54 15 -82 l22 -28 -29 -61 c-41 -86 -67 -116 -105 -119 l-31 -2 -5 84 -6 84 -34 -2 c-19 -1 -34 3 -34 8 0 5 -9 10 -20 10 -14 0 -24 -12 -32 -37 -15 -45 -38 -64 -28 -23 11 44 -14 34 -34 -14 -19 -46 -40 -52 -85 -26 -35 20 -120 20 -137 0 -15 -18 -4 -41 17 -33 12 5 147 -39 160 -52 11 -10 -68 -145 -99 -168 -69 -53 -112 -8 -81 83 17 50 17 62 1 57 -14 -4 -40 -85 -40 -124 0 -37 40 -73 82 -73 44 0 139 94 158 157 14 45 26 51 57 27 11 -8 43 -20 71 -27 49 -11 52 -14 52 -46 0 -53 47 -136 90 -159 l37 -20 55 30 c62 34 96 76 118 149 31 104 2 125 -41 28 -14 -33 -44 -78 -65 -100 -31 -32 -43 -38 -65 -32 -23 5 -26 4 -21 -11 8 -20 3 -21 -23 -7 -22 12 -53 83 -53 121 0 23 6 27 42 33 48 8 91 45 101 88 4 14 16 45 27 67 14 28 19 54 16 81 -3 21 -1 44 5 49 6 7 6 13 -2 18 -6 4 -11 17 -11 30 0 34 -28 60 -45 42z m-179 -206 c13 -60 11 -69 -9 -52 -8 6 -34 14 -59 18 -27 5 -43 12 -41 20 4 11 80 68 92 69 3 0 11 -24 17 -55z m-59 -107 c17 -22 -10 -22 -38 -1 -20 16 -20 16 2 16 12 0 28 -7 36 -15z"/>
		<path d="M8446 909 c-29 -13 -43 -27 -98 -100 -16 -22 -22 -24 -35 -13 -9 7 -45 18 -80 24 -35 7 -64 16 -64 21 0 5 -18 10 -39 10 -38 0 -39 -1 -18 -20 11 -10 53 -32 94 -47 107 -41 107 -41 69 -79 -18 -19 -32 -38 -32 -43 0 -6 -11 -16 -23 -22 -29 -16 -52 7 -67 65 -11 47 -42 73 -32 28 2 -13 7 -36 10 -51 9 -40 47 -84 73 -83 15 0 42 23 80 67 l56 67 52 -20 c28 -11 60 -20 71 -20 24 0 37 -22 46 -81 10 -68 28 -97 71 -119 31 -16 46 -18 67 -10 39 15 27 36 -25 43 -54 7 -69 22 -84 83 -13 55 -10 61 23 43 39 -21 85 -11 89 19 5 30 -13 43 -58 43 -53 0 -66 9 -66 47 0 33 -28 140 -41 154 -3 4 -21 1 -39 -6z m25 -72 c15 -40 17 -102 4 -102 -24 0 -106 35 -106 46 0 13 70 91 82 91 4 0 13 -16 20 -35z"/>
		<path d="M8554 907 c-30 -30 28 -84 61 -57 24 20 20 46 -6 39 -13 -3 -24 0 -27 10 -6 16 -17 19 -28 8z"/>
		<path d="M9366 856 c0 -16 -16 -51 -35 -78 -70 -96 -78 -197 -21 -277 25 -37 40 -46 83 -56 90 -21 126 -18 156 14 14 16 37 54 49 87 13 32 32 66 43 77 23 22 23 22 6 49 -10 16 -10 23 0 33 35 35 4 92 -52 99 l-38 4 5 -76 c2 -41 9 -80 14 -86 15 -15 13 -33 -11 -89 -23 -53 -42 -66 -111 -78 -54 -9 -98 46 -98 123 0 48 42 158 67 172 8 5 21 23 31 42 l17 34 -34 9 c-19 6 -43 14 -53 18 -14 6 -18 2 -18 -21z m-38 -326 c3 -8 1 -15 -4 -15 -6 0 -10 7 -10 15 0 9 1 16 4 16 2 0 6 -7 10 -16z"/>
		<path d="M3372 829 c-36 -18 -80 -52 -101 -76 -47 -55 -73 -60 -99 -17 -11 18 -23 28 -26 22 -7 -11 6 -47 28 -79 11 -16 6 -25 -44 -71 -31 -28 -64 -51 -73 -51 -10 0 0 11 22 26 22 15 40 31 40 37 0 14 -13 12 -38 -5 -19 -13 -48 -21 -73 -18 -6 1 -20 19 -31 41 -27 52 -26 51 -37 34 -17 -26 -12 -56 16 -97 25 -36 31 -39 76 -39 55 0 109 26 146 71 22 26 25 26 43 10 35 -32 95 -50 187 -55 51 -2 95 -8 98 -13 4 -4 18 -42 31 -83 27 -88 48 -110 110 -117 48 -5 112 18 112 42 0 6 7 20 16 29 9 10 20 44 25 75 6 31 13 65 17 75 5 12 2 18 -8 18 -10 0 -19 -23 -29 -73 -12 -64 -17 -74 -36 -74 -12 0 -27 -9 -34 -20 -17 -26 -65 -34 -94 -15 -26 17 -48 69 -39 93 7 19 9 19 41 -1 21 -15 31 -15 57 -4 28 11 32 17 32 60 0 42 -3 46 -21 42 -12 -3 -43 0 -71 7 -44 11 -50 16 -57 49 -5 19 -6 58 -2 84 7 60 -8 91 -55 110 -48 20 -55 20 -129 -17z m133 2 c8 -5 11 -12 6 -15 -5 -3 -19 1 -30 9 -22 17 -1 22 24 6z m-43 -28 c22 -9 43 -22 47 -29 5 -7 8 -45 8 -84 l1 -70 -73 0 c-81 0 -107 7 -152 45 -30 26 -30 26 -10 52 21 28 116 102 131 102 5 0 27 -7 48 -16z m181 -246 c13 -8 13 -11 -3 -17 -12 -5 -26 -1 -36 10 -16 16 -16 17 3 17 11 0 28 -5 36 -10z"/>
		<path d="M3657 833 c-19 -8 -17 -29 6 -49 37 -34 86 -16 86 32 0 21 -6 24 -40 23 -22 0 -45 -3 -52 -6z"/>
		<path d="M845 735 c-9 -15 14 -52 32 -52 21 0 20 48 -1 56 -22 8 -23 8 -31 -4z"/>
		<path d="M7626 697 c-8 -3 -13 -13 -13 -21 0 -9 4 -13 10 -9 5 3 28 -4 51 -15 l40 -21 39 27 c35 23 43 25 70 14 44 -18 64 -7 24 14 -38 20 -73 23 -82 7 -17 -27 -45 -30 -83 -10 -21 11 -39 20 -41 20 -1 -1 -8 -4 -15 -6z"/>
		<path d="M6131 552 c-10 -20 -10 -30 1 -43 19 -22 44 0 40 35 -4 36 -27 41 -41 8z"/>
		<path d="M1244 293 c-11 -16 22 -45 42 -37 14 5 14 9 3 27 -14 24 -34 28 -45 10z"/>
	</g>
</svg>
