<?xml version="1.0" encoding="utf-8"?>
<svg xmlns="http://www.w3.org/2000/svg" height="174.418540" preserveAspectRatio="xMidYMid meet" version="1.0" viewBox="0 0 212.723795 174.418540" width="212.723795">
	<title>This is a drawing of a snake, drying pole and spear.</title>
	<g fill="#000000" stroke="none" transform="translate(-29.212406,182.645712) rotate(-360.00) scale(0.095238,-0.095238)">
		<path d="M825 1914 c-50 -5 -132 -62 -162 -111 -45 -76 -57 -137 -45 -243 12 -107 21 -130 109 -265 16 -24 29 -49 29 -54 0 -6 12 -25 26 -42 15 -17 41 -63 59 -102 31 -64 33 -78 33 -179 -1 -187 -20 -319 -56 -385 -5 -10 -9 -26 -9 -35 0 -41 -94 -188 -199 -310 -27 -32 -42 -41 -68 -41 -19 0 -39 -5 -45 -11 -17 -17 -88 20 -115 61 -12 18 -26 56 -30 84 -11 67 -8 210 5 255 13 45 14 84 1 83 -5 0 -20 -42 -33 -95 -18 -73 -21 -109 -16 -160 13 -111 38 -186 79 -228 32 -34 46 -40 102 -46 36 -5 76 -5 89 -1 38 11 162 149 214 238 57 96 114 250 136 368 9 48 21 104 27 126 9 32 6 65 -16 165 -32 155 -54 204 -158 364 -96 147 -117 190 -126 264 -7 48 -4 63 22 114 39 77 66 96 116 80 51 -15 70 -6 63 30 -4 24 -1 31 15 37 38 11 107 -7 137 -37 28 -28 35 -55 44 -178 3 -46 26 -61 66 -42 43 21 54 60 37 128 -20 77 -36 105 -82 140 -36 27 -48 30 -124 32 -46 0 -102 -1 -125 -4z m198 -20 c17 -6 23 -25 8 -25 -5 0 -18 7 -29 15 -21 16 -9 22 21 10z"/>
		<path d="M1371 1903 c-12 -12 -6 -167 10 -260 19 -119 21 -264 2 -270 -9 -3 -13 -30 -13 -85 l0 -81 -36 -11 c-56 -18 -126 -61 -126 -78 0 -26 19 -27 89 0 39 15 72 27 73 27 6 -1 -5 -127 -14 -168 -6 -26 -17 -78 -26 -116 -8 -38 -23 -123 -33 -189 -9 -66 -26 -167 -38 -224 -25 -128 -25 -129 0 -136 15 -4 19 -11 15 -27 -9 -32 36 -31 48 1 10 28 35 362 28 374 -5 9 7 71 52 259 15 63 30 148 34 188 9 83 2 78 144 105 41 7 109 23 153 35 43 12 101 24 128 27 44 6 50 4 50 -13 0 -54 -66 -379 -108 -536 -21 -79 -121 -346 -141 -377 -9 -14 -13 -35 -9 -50 14 -56 40 -20 94 133 67 187 122 357 122 376 0 11 3 22 7 26 4 4 9 14 10 23 1 8 9 44 18 81 9 36 22 96 29 134 6 38 13 78 16 90 2 12 15 27 30 34 32 14 35 40 6 49 -12 4 -21 11 -21 17 0 12 7 12 32 -1 11 -7 25 -9 31 -5 14 9 -20 65 -44 71 -21 6 -20 10 8 186 20 123 39 215 61 304 15 60 15 69 1 83 -19 19 -16 27 -58 -149 -32 -133 -63 -315 -67 -385 -1 -37 -1 -37 -64 -46 -35 -5 -144 -25 -244 -44 -99 -20 -183 -36 -187 -36 -4 0 -4 8 0 18 12 33 6 252 -11 393 -10 79 -14 163 -10 194 6 48 4 54 -14 59 -12 3 -24 3 -27 0z"/>
		<path d="M2376 1834 c-45 -49 -76 -100 -76 -126 0 -32 30 -25 61 14 37 46 40 55 17 46 -23 -9 -19 25 5 38 32 17 69 -4 100 -57 28 -47 48 -61 48 -34 0 26 -79 159 -96 162 -9 2 -36 -18 -59 -43z"/>
		<path d="M2410 1702 c-4 -35 -4 -82 0 -105 5 -30 3 -43 -8 -50 -16 -9 -123 -169 -123 -182 0 -4 6 -13 14 -20 12 -10 25 -1 64 43 39 43 48 50 43 30 -4 -15 -12 -93 -17 -174 -24 -372 -50 -531 -46 -286 1 91 -1 166 -6 166 -9 0 -21 -91 -21 -170 0 -33 -4 -95 -10 -137 -5 -42 -12 -105 -15 -140 -3 -34 -13 -96 -21 -136 -20 -87 -37 -236 -30 -255 3 -7 12 -13 20 -13 12 0 13 -9 8 -38 -7 -37 -6 -38 18 -32 13 4 28 7 32 7 13 0 28 68 29 131 2 109 32 396 59 557 8 52 17 130 20 173 3 43 8 130 12 192 4 62 11 113 17 113 5 0 22 -15 38 -32 66 -75 73 -13 9 84 l-44 68 -5 131 c-6 145 -25 183 -37 75z m-37 -967 c0 -6 -5 -10 -10 -10 -6 0 -11 4 -11 10 0 6 5 11 11 11 5 0 10 -5 10 -11z m-74 -307 c0 -7 -4 -20 -10 -29 -9 -14 -12 -14 -20 0 -7 10 -6 20 1 29 14 17 30 17 29 0z"/>
		<path d="M1063 1394 c-15 -14 -18 -50 -4 -50 4 0 19 14 31 32 22 29 22 31 4 31 -10 0 -24 -6 -31 -13z"/>
		<path d="M1080 1338 c-12 -15 -11 -17 6 -14 11 3 22 10 24 17 7 19 -13 17 -30 -3z"/>
	</g>
</svg>
