<?xml version="1.0" encoding="utf-8"?>
<svg xmlns="http://www.w3.org/2000/svg" height="149.730628" preserveAspectRatio="xMidYMid meet" version="1.0" viewBox="0 0 231.586964 149.730628" width="231.586964">
	<title>This is a drawing of a carp tail and round egg.</title>
	<g fill="#000000" stroke="none" transform="translate(-14.000000,164.933248) rotate(-360.00) scale(0.095238,-0.095238)">
		<path d="M380 1712 c-36 -10 -74 -26 -84 -36 -11 -9 -24 -17 -30 -17 -22 0 -67 -59 -61 -80 5 -14 4 -16 -3 -6 -14 20 -55 -6 -55 -33 0 -16 3 -17 14 -8 12 9 16 -1 21 -59 9 -110 59 -230 107 -262 37 -24 46 -9 13 21 -86 80 -109 284 -40 363 10 12 23 22 29 22 6 0 23 10 39 22 30 24 119 51 166 51 18 0 33 -7 41 -22 6 -13 21 -33 33 -45 52 -55 77 -156 87 -358 5 -116 12 -152 42 -243 23 -70 36 -128 36 -165 0 -31 3 -65 6 -74 13 -34 26 -15 26 39 0 38 3 50 10 39 5 -9 7 -43 3 -76 -4 -42 -2 -60 6 -60 7 0 12 12 13 28 0 16 5 39 10 50 7 16 10 5 11 -42 4 -159 5 -179 12 -190 4 -6 3 -39 -2 -73 -15 -92 -9 -332 7 -338 9 -3 14 6 14 26 0 17 4 35 10 41 13 13 34 113 33 159 -1 19 3 45 9 58 l9 23 2 -26 c1 -14 8 26 16 89 21 181 48 291 80 329 45 54 88 136 145 280 142 356 146 364 209 443 56 70 132 121 174 117 l32 -3 -1 -68 c-1 -59 -9 -86 -57 -192 -31 -68 -53 -126 -50 -130 15 -15 91 64 112 115 42 106 56 183 41 226 -21 63 -37 75 -98 75 -53 0 -58 -2 -128 -68 -82 -76 -134 -164 -190 -320 -91 -255 -182 -441 -214 -441 -11 0 -25 -15 -34 -36 -17 -42 -34 -54 -51 -40 -8 6 -38 60 -68 120 -52 104 -63 140 -108 360 -51 248 -76 313 -157 401 -26 29 -38 34 -76 34 -25 -1 -74 -9 -111 -20z m355 -617 c7 -34 18 -75 26 -92 20 -48 29 -97 18 -104 -16 -10 -75 170 -75 232 -1 46 19 23 31 -36z m198 -326 c-5 -22 -23 -21 -28 2 -2 10 4 17 14 17 11 0 16 -7 14 -19z m-41 -44 c0 -14 -1 -14 -10 0 -6 8 -10 25 -10 36 l1 21 9 -21 c5 -11 9 -28 10 -36z"/>
		<path d="M1953 1645 c-88 -70 -221 -213 -276 -298 -74 -111 -108 -200 -173 -444 -23 -89 -29 -133 -29 -226 0 -111 2 -118 37 -188 35 -69 169 -226 193 -226 6 0 -3 14 -20 31 -16 17 -25 31 -18 32 6 0 58 -22 115 -47 70 -33 102 -52 100 -63 -3 -13 14 -16 99 -16 57 0 120 5 140 11 56 17 147 63 147 75 0 6 7 7 17 4 22 -9 130 42 151 70 47 66 56 112 58 291 2 178 9 221 51 324 32 76 41 165 28 264 -20 148 -46 193 -140 242 -24 13 -65 46 -91 75 -26 29 -66 63 -89 77 -39 22 -176 58 -223 57 -11 0 -45 -20 -77 -45z m243 -18 c52 -26 101 -62 86 -62 -14 0 -109 34 -187 67 l-63 26 59 -4 c33 -2 80 -15 105 -27z m-98 -19 c44 -22 115 -53 156 -69 72 -27 99 -52 83 -78 -3 -6 13 -48 36 -94 23 -46 42 -92 42 -102 0 -11 8 -28 18 -39 16 -18 19 -41 18 -159 -2 -251 -24 -372 -91 -506 -14 -28 -34 -77 -45 -109 -23 -71 -88 -138 -169 -174 -48 -21 -76 -26 -151 -26 -91 0 -94 1 -222 62 -71 33 -142 73 -158 87 -37 36 -75 99 -90 151 -31 106 -6 291 55 404 21 37 85 163 142 280 65 131 124 235 155 273 27 33 63 78 79 100 16 22 37 40 45 40 9 0 52 -19 97 -41z m-297 -155 c-41 -62 -90 -153 -153 -280 -36 -73 -68 -131 -70 -129 -9 8 33 130 68 200 34 67 153 237 167 237 3 0 -2 -13 -12 -28z m684 -48 c57 -60 76 -281 34 -408 -12 -37 -23 -74 -25 -81 -1 -8 -6 -13 -11 -12 -6 0 -8 7 -6 13 13 37 12 218 -2 280 -16 69 -60 220 -76 256 -8 20 -8 20 25 0 19 -11 46 -32 61 -48z m-22 -790 c6 -40 2 -54 -23 -96 -40 -64 -85 -116 -93 -108 -3 3 4 32 16 63 13 31 29 73 36 93 8 20 19 50 25 66 17 42 31 35 39 -18z m-31 -199 c-33 -67 -55 -88 -101 -97 l-36 -8 26 32 c14 18 29 30 33 28 4 -2 16 9 25 25 56 90 73 111 76 93 2 -10 -8 -43 -23 -73z"/>
		<path d="M1732 244 c1 -8 76 -34 97 -34 22 1 22 2 -7 18 -27 14 -90 25 -90 16z"/>
	</g>
</svg>
