<?xml version="1.0" encoding="utf-8"?>
<svg xmlns="http://www.w3.org/2000/svg" height="150.620842" preserveAspectRatio="xMidYMid meet" version="1.0" viewBox="0 0 187.145952 150.620842" width="187.145952">
	<title>This is a drawing of a pike mouth.</title>
	<g fill="#000000" stroke="none" transform="translate(-19.354048,170.000000) rotate(-360.00) scale(0.095238,-0.095238)">
		<path d="M1855 1704 c-4 -44 -11 -85 -16 -90 -6 -5 -31 -1 -61 9 -39 15 -84 19 -200 20 -138 0 -150 -1 -173 -23 -23 -21 -132 -56 -240 -77 -100 -19 -437 -200 -524 -282 -21 -19 -63 -51 -95 -73 -114 -76 -355 -341 -342 -375 3 -8 16 -15 29 -15 33 0 48 -12 51 -37 4 -37 0 -40 -22 -21 -11 11 -24 16 -28 11 -17 -17 75 -79 149 -101 40 -12 108 -33 149 -47 41 -14 121 -33 178 -42 57 -9 131 -21 164 -26 77 -14 613 -13 736 1 103 12 112 9 133 -43 10 -25 10 -34 0 -47 -11 -13 -10 -20 5 -37 27 -29 75 -26 137 11 57 34 90 42 69 17 -6 -8 -11 -25 -9 -38 2 -19 -8 -31 -47 -53 -52 -32 -143 -71 -242 -107 -63 -23 -65 -43 -3 -33 169 29 204 39 282 84 112 64 172 109 185 141 30 68 43 187 46 419 l2 131 -40 9 c-22 6 -43 16 -46 24 -3 8 -12 15 -20 15 -11 0 -14 -19 -14 -79 0 -70 -4 -84 -29 -117 -58 -76 -267 -188 -414 -221 -158 -36 -722 -17 -980 33 -116 22 -271 70 -292 89 -16 15 -16 22 -5 54 15 42 25 51 49 45 12 -3 23 7 36 35 38 80 87 147 177 244 108 114 172 164 364 284 208 130 244 143 448 153 270 13 288 12 353 -22 61 -33 68 -44 113 -170 16 -45 35 -81 43 -81 16 0 52 119 52 178 1 23 5 59 10 80 13 55 -31 248 -53 235 -12 -8 -11 -64 2 -114 13 -47 6 -90 -15 -90 -12 0 -14 16 -9 82 6 93 -1 138 -22 138 -10 0 -16 -24 -21 -81z m25 -129 c0 -6 -3 -10 -5 -10 -3 0 -8 4 -11 10 -4 6 -2 11 4 11 6 0 12 -5 12 -11z m27 -100 c4 -9 3 -24 -1 -34 -6 -15 -11 -12 -27 19 -11 20 -20 40 -20 44 -1 14 42 -13 48 -29z m-17 -835 c-25 -16 -39 -11 -17 6 12 8 23 13 26 10 4 -4 -1 -11 -9 -16z m166 -138 c-3 -7 -21 -19 -41 -27 l-36 -13 32 26 c34 29 51 34 45 14z"/>
	</g>
</svg>
