<?xml version="1.0" encoding="utf-8"?>
<svg xmlns="http://www.w3.org/2000/svg" height="143.039036pt" preserveAspectRatio="xMidYMid meet" version="1.0" viewBox="0 0 159.990848 143.039036" width="159.990848pt">
	<title>This is a drawing of a carp mouth with feeler.</title>
	<metadata>
Created by Potrace Professional 1.1m
</metadata>
	<g fill="#000000" stroke="none" transform="translate(-14.686919,156.411846) rotate(-360.00) scale(0.095238,-0.095238)">
		<path d="M1802 1590 c3 -34 7 -71 9 -82 8 -38 -16 -463 -31 -551 -51 -302 -67 -360 -143 -526 -42 -91 -51 -107 -103 -178 -38 -53 -48 -60 -71 -56 -22 5 -35 22 -68 92 -51 109 -51 128 -4 147 43 18 51 30 50 71 -2 48 -20 60 -46 29 -11 -15 -25 -37 -30 -50 -12 -28 -29 -30 -61 -8 -26 19 -31 52 -7 61 8 4 16 10 16 15 -1 16 -272 37 -465 36 -169 -1 -208 5 -176 25 6 3 23 25 38 49 36 56 107 132 140 150 15 7 48 17 74 21 l47 7 103 -94 c56 -52 112 -106 124 -122 12 -15 26 -27 31 -27 25 -1 3 31 -81 112 -103 101 -210 176 -228 163 -6 -5 -34 -18 -61 -28 -53 -19 -118 -87 -170 -175 -15 -27 -37 -57 -49 -67 -11 -11 -20 -23 -20 -27 0 -5 -15 -33 -34 -62 -40 -65 -33 -82 9 -20 33 49 68 62 108 41 12 -7 70 -14 129 -17 111 -4 253 -26 355 -53 31 -9 70 -19 86 -22 33 -6 44 -23 53 -76 3 -21 15 -63 27 -95 18 -46 31 -63 67 -85 65 -40 81 -44 89 -22 4 10 20 33 36 52 17 19 37 51 45 70 8 20 34 65 58 102 23 36 43 73 43 82 0 9 8 31 19 48 27 44 42 92 60 195 30 169 46 331 52 517 3 103 7 191 10 196 9 14 -12 200 -24 212 -8 8 -10 -6 -6 -50z m-867 -1023 c0 -15 -32 -21 -104 -21 -77 0 -148 10 -148 20 0 4 29 8 65 10 36 2 66 4 67 5 6 6 120 -7 120 -14z m285 -22 c28 -7 40 -17 45 -37 3 -15 5 -29 3 -31 -3 -3 -28 2 -56 10 -29 9 -97 24 -153 34 -78 14 -100 22 -96 33 5 12 26 14 112 8 59 -4 123 -12 145 -17z"/>
		<path d="M342 1578 c-16 -68 -63 -209 -75 -223 -12 -14 -33 -130 -28 -150 1 -4 -3 -20 -9 -37 -6 -16 -18 -85 -26 -155 -7 -69 -21 -171 -31 -225 -9 -55 -14 -109 -11 -120 2 -10 1 -30 -4 -43 -6 -16 -4 -33 6 -53 10 -20 12 -33 4 -40 -27 -28 0 -280 36 -336 27 -41 73 -63 114 -54 53 12 150 112 176 182 12 33 32 70 45 84 20 22 20 24 4 21 -19 -4 -40 -37 -73 -114 -32 -75 -125 -157 -177 -157 -27 0 -81 68 -89 112 -3 22 -11 52 -16 67 -6 15 -8 71 -5 129 4 66 3 101 -4 101 -6 0 -11 5 -11 11 0 6 5 8 12 4 8 -5 10 -1 6 15 -3 12 -1 25 5 29 6 3 9 33 8 66 -2 32 1 72 6 89 5 19 4 38 -4 50 -9 15 -9 20 1 20 9 0 14 24 15 82 1 46 6 92 12 104 6 11 14 48 17 82 3 34 15 88 27 120 11 32 20 80 21 107 0 27 4 52 9 55 5 3 17 35 27 71 10 37 23 77 29 90 9 17 9 27 1 35 -8 8 -13 2 -18 -19z"/>
		<path d="M1442 1263 c9 -62 29 -93 65 -100 45 -9 68 3 84 42 18 42 19 55 6 55 -5 0 -15 -14 -22 -31 -7 -17 -19 -33 -27 -36 -26 -10 -67 12 -72 40 -4 15 -8 39 -11 53 -3 15 -11 27 -18 27 -8 0 -9 -16 -5 -50z"/>
		<path d="M509 578 c-29 -5 -68 -6 -88 -3 -26 4 -34 2 -28 -7 10 -17 208 -14 202 3 -5 15 -21 16 -86 7z"/>
	</g>
</svg>
