<?xml version="1.0" encoding="utf-8"?>
<svg xmlns="http://www.w3.org/2000/svg" height="135.376663" preserveAspectRatio="xMidYMid meet" version="1.0" viewBox="0 0 110.413407 135.376663" width="110.413407">
	<title>A drawing of a simpler beaver.</title>
	<g fill="#000000" stroke="none" transform="translate(-16.400994,157.000000) rotate(-360.00) scale(0.095238,-0.095238)">
		<path d="M702 1597 c-119 -79 -272 -281 -313 -414 -5 -18 -20 -59 -31 -91 -31 -84 -29 -136 8 -178 l29 -34 65 18 c60 17 67 17 91 1 49 -32 83 -122 68 -178 -17 -60 -27 -63 -143 -39 -57 11 -115 18 -130 14 -31 -7 -73 -43 -73 -63 0 -18 15 -17 31 2 20 24 117 21 174 -5 37 -17 47 -27 47 -47 0 -50 -9 -58 -69 -58 -32 0 -58 5 -58 11 -1 5 -2 16 -3 22 -2 21 -27 22 -35 2 -4 -11 -12 -22 -17 -26 -8 -5 -7 -16 1 -32 7 -13 14 -38 15 -55 5 -47 26 -44 33 4 l7 43 52 0 c52 0 52 -1 42 -28 -12 -31 -8 -41 14 -33 19 8 53 117 44 144 -5 16 0 24 18 31 81 31 117 153 73 240 -43 84 -105 117 -169 91 -71 -29 -110 15 -87 98 22 77 63 187 85 223 12 20 32 57 46 82 35 65 137 190 156 190 9 1 31 12 50 26 44 33 127 53 182 44 97 -15 190 -97 201 -178 4 -27 14 -64 24 -82 22 -43 15 -126 -14 -164 -18 -24 -28 -28 -63 -25 -60 4 -90 -23 -91 -83 -1 -46 -1 -46 41 -55 124 -27 223 -101 248 -186 28 -96 7 -238 -47 -321 -90 -139 -132 -170 -290 -211 -81 -20 -115 -24 -179 -19 -43 3 -121 9 -173 11 -52 3 -107 10 -121 15 -14 5 -48 15 -75 22 -82 21 -114 46 -114 89 0 20 -2 37 -5 37 -16 0 -56 -26 -68 -45 -12 -20 -10 -25 22 -52 19 -16 71 -46 114 -67 43 -20 87 -41 97 -47 13 -7 26 -7 40 1 16 8 38 8 81 -1 98 -21 287 -18 411 5 62 12 111 27 114 34 2 8 13 14 23 14 23 0 106 70 106 90 0 8 8 19 19 25 28 15 69 88 102 183 24 69 27 92 21 146 -15 138 -38 179 -141 247 -71 47 -110 65 -142 65 -26 0 -56 27 -44 39 4 4 23 6 43 5 46 -4 104 30 118 69 35 94 37 124 13 199 -50 151 -90 205 -191 256 -49 25 -74 31 -133 31 -69 0 -76 -3 -150 -52z"/>
		<path d="M983 1348 c-13 -14 -6 -35 13 -35 26 0 35 11 21 27 -13 16 -23 18 -34 8z"/>
	</g>
</svg>
