<?xml version="1.0" encoding="utf-8"?>
<svg xmlns="http://www.w3.org/2000/svg" height="159.276145" preserveAspectRatio="xMidYMid meet" version="1.0" viewBox="0 0 110.161653 159.276145" width="110.161653">
	<title>This is a drawing of a broken spear.</title>
	<g fill="#000000" stroke="none" transform="translate(-60.338347,175.949154) rotate(-360.00) scale(0.095238,-0.095238)">
		<path d="M702 1830 c-2 -22 -6 -48 -8 -55 -1 -3 -4 -85 -6 -181 -2 -97 -6 -184 -9 -194 -3 -11 -8 -64 -12 -119 -3 -55 -11 -147 -17 -204 -8 -75 -8 -135 1 -215 14 -125 9 -382 -10 -510 -11 -76 -11 -85 6 -97 24 -18 40 -12 44 16 2 16 13 24 39 29 30 6 36 12 37 32 0 14 -12 37 -27 50 -25 24 -26 28 -19 108 3 45 8 200 9 345 3 314 1 296 27 310 26 14 26 48 0 62 -28 15 -29 14 -36 -10 -3 -12 -10 -21 -17 -21 -20 0 -12 18 21 46 17 14 31 36 31 47 0 35 12 54 33 54 15 0 19 5 16 18 -3 10 -11 59 -18 108 -7 49 -19 99 -26 112 -8 12 -12 32 -8 45 5 19 2 22 -22 17 -22 -4 -27 0 -27 15 0 16 5 19 28 15 16 -3 25 -1 19 3 -6 5 -12 39 -13 77 -2 37 -5 78 -8 91 -7 28 -26 32 -28 6z m33 -244 c0 -6 -2 -11 -5 -11 -2 0 -7 5 -11 11 -3 5 -1 10 5 10 6 0 11 -5 11 -10z m-10 -111 c0 -8 -4 -15 -9 -15 -5 0 -9 7 -9 15 0 9 4 16 9 16 5 0 9 -7 9 -16z m10 -107 c-8 -15 -10 -7 -6 34 6 67 9 72 14 24 2 -22 -1 -48 -8 -58z m-10 -223 c0 -6 -5 -11 -11 -11 -6 0 -10 5 -10 11 0 5 4 10 10 10 6 0 11 -5 11 -10z m-14 -506 c-4 -9 -6 -6 -7 6 0 11 2 17 6 14 3 -4 4 -13 1 -20z m-18 -329 c0 -2 -5 -7 -10 -11 -6 -3 -11 -1 -11 5 0 6 5 11 11 11 5 0 10 -2 10 -5z"/>
		<path d="M1668 709 c-3 -3 -54 -12 -115 -20 -154 -22 -172 -31 -121 -64 20 -14 34 -15 71 -7 80 19 113 22 118 13 3 -5 -14 -14 -38 -22 -25 -7 -59 -19 -76 -27 -81 -35 -103 -38 -249 -40 -85 -1 -158 -5 -162 -10 -20 -20 24 -33 115 -35 53 -1 96 -6 96 -11 -1 -4 -37 -13 -82 -19 -53 -8 -91 -20 -112 -35 -17 -12 -36 -22 -42 -22 -6 -1 -19 -9 -30 -20 -39 -39 -266 -148 -309 -148 -19 0 -29 -8 -34 -23 -10 -31 18 -52 56 -41 42 12 184 78 312 145 220 115 240 120 200 51 -27 -44 -26 -59 1 -59 16 0 78 62 134 135 29 39 54 58 89 71 26 10 53 22 58 27 6 5 17 9 26 9 10 0 6 -11 -15 -32 -36 -38 -58 -96 -45 -120 16 -28 29 -19 54 39 18 40 51 80 124 147 l98 93 -26 15 c-25 14 -86 20 -96 10z m2 -63 c0 -2 -5 -7 -11 -11 -6 -3 -10 -1 -10 5 0 6 4 11 10 11 6 0 11 -2 11 -5z"/>
	</g>
</svg>
