<?xml version="1.0" encoding="utf-8"?>
<svg xmlns="http://www.w3.org/2000/svg" height="157.339973pt" preserveAspectRatio="xMidYMid meet" version="1.0" viewBox="0 0 131.113807 157.339973" width="131.113807pt">
	<metadata>
Created by Potrace Professional 1.1m
</metadata>
	<g fill="#000000" stroke="none" transform="translate(-41.472253,173.616250) rotate(-360.00) scale(0.095238,-0.095238)">
		<path d="M1223 1821 c-11 -3 -48 -10 -82 -17 -42 -8 -71 -21 -93 -42 -18 -17 -47 -38 -64 -47 -16 -8 -67 -51 -113 -94 -62 -59 -88 -78 -106 -76 -22 3 -25 -1 -25 -33 -1 -37 -25 -83 -74 -136 -29 -33 -81 -143 -104 -223 -17 -58 -45 -119 -94 -203 -48 -81 -46 -96 25 -184 36 -44 89 -131 123 -199 109 -219 232 -313 504 -384 109 -29 226 -5 311 65 30 25 71 58 92 75 20 17 53 40 74 53 48 29 114 108 161 192 42 77 60 187 53 325 -3 43 -10 180 -16 304 -8 142 -17 236 -26 254 -7 16 -17 49 -21 74 -12 71 -44 128 -98 174 -79 66 -163 103 -253 111 -44 4 -96 9 -116 12 -20 2 -46 1 -58 -1z m178 -46 c11 -9 20 -9 35 1 17 10 29 8 67 -10 26 -13 50 -23 54 -23 4 0 27 -14 51 -31 39 -29 62 -59 91 -122 6 -13 16 -111 22 -220 8 -129 20 -229 34 -287 18 -74 21 -111 17 -226 -4 -122 -8 -144 -33 -195 -15 -32 -27 -67 -27 -77 -1 -22 -123 -147 -214 -217 -33 -26 -66 -60 -73 -74 -7 -15 -38 -39 -70 -55 -48 -25 -70 -29 -145 -29 -100 0 -176 16 -194 41 -19 25 -70 45 -95 37 -13 -4 -18 -3 -14 4 4 7 -12 24 -38 40 -24 15 -60 37 -78 49 -34 23 -83 97 -164 249 -46 86 -48 93 -54 205 -6 95 -3 128 14 191 20 77 27 91 101 199 44 64 59 95 104 219 23 63 38 85 108 153 115 112 198 162 302 184 71 15 177 12 199 -6z m374 -411 c0 -5 -5 -9 -11 -9 -6 0 -10 7 -10 16 0 9 4 13 10 10 6 -4 11 -11 11 -17z m-1061 -28 c0 -4 -10 -24 -23 -44 -26 -44 -38 -27 -14 20 15 29 37 44 37 24z m1064 -52 c10 -57 8 -108 -2 -108 -10 0 -22 60 -22 113 -1 47 16 43 24 -5z m-1248 -413 c4 -41 4 -78 0 -81 -4 -4 -16 4 -28 18 -17 21 -19 35 -14 74 4 26 10 51 12 55 14 22 24 1 30 -66z"/>
	</g>
</svg>
