<?xml version="1.0" encoding="utf-8"?>
<svg xmlns="http://www.w3.org/2000/svg" height="133.065953pt" preserveAspectRatio="xMidYMid meet" version="1.0" viewBox="0 0 407.061615 133.065953" width="407.061615pt">
	<metadata>
Created by Potrace Professional 1.1m
</metadata>
	<g fill="#000000" stroke="none" transform="translate(-34.000000,160.065953) rotate(-360.00) scale(0.095238,-0.095238)">
		<path d="M3434 1670 c0 -23 74 -160 149 -273 88 -136 197 -348 197 -385 0 -24 -3 -25 -81 -25 -105 1 -238 31 -290 66 -32 22 -45 26 -61 17 -36 -19 -45 -55 -31 -122 14 -60 107 -346 122 -373 28 -49 89 -82 89 -47 0 21 -48 163 -89 265 -21 52 -41 114 -44 139 -6 44 -6 45 24 45 17 0 70 -12 120 -25 198 -55 260 -62 316 -32 31 16 32 19 27 66 -7 56 -59 182 -106 253 -17 26 -63 85 -102 131 -38 46 -90 117 -115 158 -72 118 -125 179 -125 142z"/>
		<path d="M2484 1599 c4 -16 25 -55 47 -87 23 -32 75 -117 116 -189 41 -72 98 -164 125 -205 93 -137 105 -177 55 -188 -16 -3 -83 -2 -149 3 -67 5 -131 5 -143 1 -46 -17 -47 -67 -4 -144 31 -54 31 -57 11 -62 -26 -7 -45 -56 -31 -80 6 -10 9 -18 7 -19 -2 0 -15 -3 -29 -5 -55 -10 -68 -61 -26 -98 23 -20 26 -29 21 -57 -4 -18 -10 -68 -13 -109 -5 -65 -3 -76 11 -76 22 -1 34 25 43 94 7 53 8 75 2 146 -1 20 5 27 25 32 22 6 26 13 29 55 2 27 10 55 18 61 22 18 20 31 -16 106 -17 36 -28 70 -25 75 4 6 66 7 155 3 125 -7 155 -5 189 9 l41 17 -5 53 c-4 41 -16 69 -51 118 -74 107 -100 147 -127 193 -13 24 -37 65 -53 91 -39 68 -208 291 -220 291 -5 0 -6 -13 -3 -29z"/>
		<path d="M1491 1576 c0 -5 20 -34 45 -64 159 -194 217 -277 249 -356 10 -26 31 -75 46 -109 l27 -60 -36 -15 c-20 -8 -59 -18 -86 -22 -77 -10 -198 -35 -228 -47 -36 -13 -46 -55 -23 -102 19 -40 15 -55 -16 -55 -26 0 -45 -46 -31 -74 18 -33 12 -69 -14 -92 -14 -12 -29 -36 -32 -53 -8 -35 -33 -50 -54 -33 -20 17 -33 5 -34 -31 -1 -41 6 -44 65 -36 44 6 49 9 58 43 6 20 21 48 33 61 14 15 25 44 29 79 6 48 11 57 34 62 32 8 36 30 17 102 -17 64 -8 87 34 87 50 0 283 42 322 59 35 14 49 47 26 61 -5 4 -25 45 -43 93 -56 145 -79 184 -194 326 -55 69 -172 186 -186 186 -4 0 -8 -5 -8 -10z"/>
		<path d="M641 1558 c0 -10 13 -40 30 -66 29 -45 49 -85 108 -219 13 -30 27 -55 31 -55 3 0 34 -61 67 -136 50 -115 59 -143 53 -174 -9 -47 -23 -52 -90 -37 -58 14 -166 6 -194 -14 -11 -8 -19 -35 -23 -75 -5 -45 -13 -67 -28 -80 -13 -10 -23 -31 -24 -52 -2 -35 -49 -171 -66 -193 -5 -6 -12 -28 -16 -50 -8 -46 -24 -50 -58 -13 -27 27 -74 36 -74 12 0 -7 26 -38 58 -69 68 -64 103 -69 108 -17 5 54 56 209 78 237 11 14 27 41 35 60 8 19 21 34 30 34 20 0 20 0 0 70 -13 43 -14 61 -5 71 19 23 104 29 173 12 75 -18 100 -10 131 39 30 49 28 83 -9 153 -17 33 -39 80 -48 106 -9 26 -26 64 -38 84 -13 21 -53 96 -90 168 -99 190 -139 249 -139 204z"/>
		<path d="M4179 1560 c0 -53 79 -194 260 -459 44 -66 93 -164 85 -172 -3 -3 -55 14 -115 36 -60 23 -128 45 -151 49 -23 4 -54 16 -67 27 -36 28 -71 25 -92 -8 -17 -26 -17 -34 5 -155 13 -70 30 -158 38 -195 8 -38 20 -99 27 -137 25 -142 65 -228 89 -189 11 18 -21 217 -73 446 -34 150 -34 168 -3 159 13 -4 49 -14 81 -23 32 -8 74 -23 95 -33 98 -46 246 -108 259 -108 28 0 12 98 -31 189 -26 54 -264 403 -324 476 -15 18 -40 52 -55 74 -18 26 -28 34 -28 23z"/>
	</g>
</svg>
