<?xml version="1.0" encoding="utf-8"?>
<svg xmlns="http://www.w3.org/2000/svg" height="135.834977pt" preserveAspectRatio="xMidYMid meet" version="1.0" viewBox="0 0 139.403407 135.834977" width="139.403407pt">
	<metadata>
Created by Potrace Professional 1.1m
</metadata>
	<g fill="#000000" stroke="none" transform="translate(-19.276404,153.759990) rotate(-360.00) scale(0.095238,-0.095238)">
		<path d="M877 1609 c-40 -8 -144 -45 -166 -59 -13 -8 -56 -23 -97 -32 -174 -42 -215 -64 -215 -117 0 -21 5 -25 32 -25 17 0 31 -3 31 -5 0 -3 -15 -27 -33 -53 -34 -52 -41 -53 -106 -20 -41 21 -69 18 -100 -13 -26 -26 -26 -29 -9 -41 11 -8 26 -12 34 -8 8 3 31 2 51 -2 30 -5 37 -11 37 -32 0 -18 6 -26 18 -26 21 0 96 92 124 152 10 21 29 43 41 47 28 11 30 8 15 -24 -9 -21 -9 -31 1 -43 11 -13 26 -5 104 54 50 37 98 71 107 74 25 9 136 55 208 88 37 16 77 30 88 30 44 0 135 -36 162 -65 28 -29 28 -29 5 -29 -36 0 -22 -24 26 -46 91 -43 134 -116 104 -174 -31 -61 -187 -192 -355 -297 -83 -52 -223 -192 -247 -247 -12 -28 -38 -67 -59 -86 -26 -26 -37 -46 -37 -67 0 -23 3 -29 15 -25 9 4 15 3 14 -1 -1 -4 2 -16 7 -26 5 -13 0 -30 -18 -53 -14 -18 -29 -43 -33 -55 -3 -12 -20 -30 -37 -39 -30 -18 -52 -67 -36 -82 19 -17 115 -41 162 -41 28 0 53 -5 56 -10 6 -10 95 -22 169 -23 109 -1 392 22 462 38 43 11 52 19 94 94 20 36 63 100 95 141 60 79 83 122 73 138 -8 13 -32 13 -55 0 -10 -5 -27 -12 -37 -15 -10 -3 -34 -40 -53 -83 -46 -100 -117 -204 -153 -222 -41 -21 -134 -32 -162 -19 -12 6 -98 19 -191 28 -280 30 -260 25 -253 61 4 17 16 44 27 60 11 16 30 55 43 88 12 32 42 87 67 120 69 94 174 202 196 202 27 0 261 237 316 319 24 36 51 74 61 85 32 37 37 104 11 157 -44 92 -175 188 -297 220 -51 13 -258 20 -307 9z m16 -75 c0 -9 -139 -62 -168 -63 -9 -1 -36 -4 -59 -7 -34 -5 -45 -3 -50 10 -4 12 0 17 15 17 12 0 36 8 54 17 30 15 33 15 42 -1 9 -16 12 -16 27 -2 15 13 66 28 131 37 4 1 8 -3 8 -8z m417 -33 c60 -40 76 -59 59 -76 -9 -9 -113 51 -118 68 -2 8 -11 22 -20 32 -29 33 9 22 79 -24z m-753 -40 c0 -19 -55 -45 -88 -41 l-33 3 37 23 c37 24 84 32 84 15z m870 -50 c30 -38 15 -55 -16 -18 -13 16 -24 33 -25 38 0 16 20 6 41 -20z m-792 7 c-3 -6 -11 -11 -16 -11 -6 0 -10 5 -10 11 0 5 7 10 16 10 9 0 14 -5 10 -10z m782 -126 c-1 -24 -2 -23 -15 10 -19 49 -19 62 0 37 9 -11 15 -32 15 -47z m64 31 c0 -6 -6 -10 -12 -10 -6 0 -8 4 -4 10 3 6 8 11 11 11 2 0 5 -5 5 -11z m-84 -124 c0 -10 -80 -96 -89 -96 -15 0 -3 19 37 60 45 46 52 51 52 36z m-195 -213 c-10 -11 -26 -20 -35 -20 -11 0 -7 10 15 32 32 34 51 23 20 -12z m-106 -49 c-52 -68 -160 -150 -204 -154 -8 -1 -28 -14 -44 -30 -33 -33 -58 -39 -32 -7 46 54 275 229 301 230 5 0 -4 -17 -21 -39z m70 -8 c-14 -14 -27 -24 -30 -21 -7 7 30 48 43 48 6 0 0 -12 -13 -27z m-221 -193 c0 -5 -12 -17 -26 -26 -23 -15 -26 -15 -26 -2 0 8 8 20 18 26 23 14 34 14 34 2z m-89 -63 c-7 -12 -58 -21 -58 -12 0 11 45 31 55 25 5 -3 6 -9 3 -13z m-39 -88 c-3 -7 -14 -17 -26 -22 -13 -6 -26 -28 -33 -56 -7 -26 -19 -45 -27 -45 -25 0 12 98 45 119 33 21 46 22 41 4z m-187 -301 c0 -6 -4 -11 -10 -11 -5 0 -13 5 -16 11 -4 5 1 10 10 10 9 0 16 -5 16 -10z m60 -18 c3 -8 -4 -10 -17 -7 -12 3 -22 10 -22 16 0 14 34 6 39 -9z m402 -24 c28 -7 9 -10 -84 -9 -120 0 -245 15 -237 28 6 9 275 -7 321 -19z"/>
		<path d="M1446 1117 c-4 -4 -7 -12 -7 -18 0 -7 4 -6 12 1 7 7 10 15 7 18 -3 3 -9 2 -12 -1z"/>
	</g>
</svg>
