<?xml version="1.0" encoding="utf-8"?>
<svg xmlns="http://www.w3.org/2000/svg" height="53.917391pt" preserveAspectRatio="xMidYMid meet" version="1.0" viewBox="0 0 162.420271 53.917391" width="162.420271pt">
	<title>This is a drawing of a shut mouth.</title>
	<metadata>
Created by Potrace Professional 1.1m
</metadata>
	<g fill="#000000" stroke="none" transform="translate(-32.035940,78.000000) rotate(-360.00) scale(0.095238,-0.095238)">
		<path d="M830 803 c-46 -20 -210 -191 -210 -218 0 -11 -5 -17 -10 -13 -5 3 -29 -18 -54 -47 -42 -51 -88 -84 -116 -84 -9 0 -11 15 -6 52 5 41 2 57 -13 75 -31 38 -58 13 -73 -67 -14 -78 -16 -133 -4 -134 5 0 14 -14 20 -31 21 -56 55 -32 56 39 0 23 8 27 69 39 36 8 120 85 185 170 23 31 45 57 49 57 4 0 21 13 38 29 87 80 110 91 185 91 84 -1 115 -18 147 -81 33 -64 98 -149 134 -175 48 -34 106 -39 158 -12 36 18 50 34 72 83 15 32 30 62 33 65 4 2 27 30 52 60 42 51 49 55 92 55 40 0 48 -4 57 -27 6 -15 8 -31 5 -35 -10 -16 15 -187 36 -247 37 -106 71 -138 190 -179 66 -22 83 -21 85 8 1 17 2 19 6 5 5 -19 15 -24 27 -12 9 9 -13 64 -31 79 -13 11 -18 10 -25 -4 -9 -15 -18 -13 -81 13 -39 17 -79 40 -88 52 -28 35 -51 128 -51 207 0 79 -12 132 -34 154 -30 30 -82 49 -136 49 -78 0 -122 -31 -164 -117 -35 -72 -107 -156 -133 -156 -46 0 -97 42 -131 107 -43 81 -68 110 -120 136 -55 29 -168 36 -216 14z m598 -246 c0 -6 -4 -11 -10 -11 -5 0 -13 5 -16 11 -4 5 1 10 10 10 9 0 16 -5 16 -10z m-53 -35 c0 -5 -4 -6 -10 -2 -6 3 -10 14 -10 24 0 15 1 16 10 2 6 -9 10 -20 10 -24z m-125 14 c13 -9 13 -11 -3 -11 -9 0 -20 5 -24 11 -8 13 6 13 27 0z m686 -237 c-4 -9 -9 -14 -12 -11 -2 2 -1 10 2 16 11 17 17 13 10 -5z"/>
	</g>
</svg>
