<?xml version="1.0" encoding="utf-8"?>
<svg xmlns="http://www.w3.org/2000/svg" height="144.950120" preserveAspectRatio="xMidYMid meet" version="1.0" viewBox="0 0 150.739484 144.950120" width="150.739484">
	<title>This is a drawing of a pike mouth with spear at left.</title>
	<metadata>
Created by Potrace Professional 1.1m
</metadata>
	<g fill="#000000" stroke="none" transform="translate(-28.000000,169.842489) rotate(-360.00) scale(0.095238,-0.095238)">
		<path d="M1840 1668 c2 -79 -1 -118 -9 -121 -6 -2 -15 10 -18 28 -8 41 -70 75 -102 55 -12 -8 -22 -9 -26 -2 -11 17 -36 11 -36 -9 0 -15 -10 -18 -66 -18 -36 0 -75 -4 -87 -9 -11 -5 -44 -11 -72 -12 -28 -2 -59 -11 -70 -21 -10 -10 -24 -14 -30 -11 -6 4 -17 4 -25 -1 -7 -4 -22 -8 -34 -8 -13 -1 -20 -7 -19 -19 1 -21 -13 -25 -20 -5 -4 10 -12 9 -35 -4 -17 -9 -53 -23 -81 -31 -30 -9 -49 -21 -49 -30 0 -12 -4 -13 -12 -4 -16 16 -32 9 -130 -58 -161 -110 -257 -199 -257 -238 -1 -14 -12 -37 -27 -52 -25 -25 -26 -31 -20 -103 6 -70 9 -79 42 -108 20 -19 67 -43 112 -57 103 -34 133 -49 176 -91 35 -33 163 -88 206 -88 9 0 19 -9 21 -19 6 -20 162 -128 186 -128 7 0 38 -7 69 -16 46 -14 54 -20 48 -37 -6 -20 -3 -20 69 -14 63 6 75 5 71 -7 -3 -10 -30 -18 -72 -24 -113 -14 -119 -16 -104 -34 7 -9 11 -17 9 -20 -3 -2 -42 -16 -87 -32 -81 -27 -87 -27 -263 -21 -151 6 -192 11 -262 33 -60 19 -86 24 -94 15 -18 -17 10 -37 82 -56 44 -12 130 -19 284 -23 l220 -7 142 44 c78 25 161 47 184 49 23 3 54 14 70 25 15 11 32 20 37 20 41 0 92 181 83 294 -3 38 -8 77 -12 87 -8 19 -36 25 -36 8 0 -21 -130 -202 -152 -212 -18 -8 -36 -6 -75 10 -29 11 -106 38 -172 59 -67 21 -143 47 -168 59 -26 11 -104 42 -174 68 -69 27 -150 60 -180 74 -30 14 -60 26 -67 26 -19 -1 -164 69 -172 82 -4 7 0 15 9 18 9 4 29 24 45 46 34 45 146 142 208 179 23 14 46 32 51 41 27 44 102 93 264 174 98 50 185 90 194 90 9 0 46 9 84 21 74 23 207 29 254 11 16 -6 33 -20 40 -32 17 -33 61 -28 75 7 17 42 23 243 8 261 -25 31 -31 11 -28 -102z m-62 -1041 c-9 -63 -22 -91 -39 -91 -11 0 -13 8 -7 35 7 31 42 101 50 101 2 0 0 -20 -4 -45z m-563 -3 c-3 -4 -12 -4 -20 -1 -8 3 -6 6 6 6 11 1 18 -2 14 -5z m292 -83 c44 -16 31 -21 -25 -9 -18 3 -30 10 -27 15 7 11 1 12 52 -6z"/>
		<path d="M552 1730 c-3 -25 -8 -101 -12 -169 -6 -123 -21 -204 -26 -143 -6 61 5 253 18 317 4 24 2 29 -17 29 -25 0 -24 4 -23 -115 0 -50 -3 -123 -7 -163 l-7 -74 -24 24 c-40 40 -48 16 -15 -43 24 -43 32 -73 38 -145 8 -99 -2 -251 -16 -250 -5 0 -23 21 -41 47 -18 26 -39 47 -48 47 -8 0 -15 -2 -15 -5 0 -3 24 -48 54 -101 l54 -95 -12 -86 c-21 -154 -22 -194 -8 -199 16 -7 8 -82 -9 -88 -6 -2 -22 13 -36 33 -13 20 -30 37 -36 37 -13 0 -70 -67 -70 -81 0 -14 52 -59 100 -88 23 -13 58 -40 78 -59 20 -19 41 -33 47 -31 7 2 14 49 17 113 4 75 13 127 28 165 14 34 18 54 10 52 -7 -2 -23 -36 -37 -75 -14 -39 -27 -69 -29 -67 -2 2 4 86 13 187 16 177 22 203 64 261 l18 25 -35 -8 -35 -8 7 146 c4 80 11 159 16 177 5 17 15 51 22 75 14 47 7 83 -12 71 -8 -5 -10 0 -6 13 12 43 20 305 9 312 -7 4 -13 -10 -17 -38z"/>
	</g>
</svg>
