<?xml version="1.0" encoding="utf-8"?>
<svg xmlns="http://www.w3.org/2000/svg" height="142.524098pt" preserveAspectRatio="xMidYMid meet" version="1.0" viewBox="0 0 183.939977 142.524098" width="183.939977pt">
	<metadata>
Created by Potrace Professional 1.1m
</metadata>
	<g fill="#000000" stroke="none" transform="translate(-39.000000,158.996277) rotate(-360.00) scale(0.095238,-0.095238)">
		<path d="M1279 1623 c-21 -44 -21 -48 -5 -83 10 -20 18 -46 18 -58 0 -12 4 -24 10 -28 6 -3 11 -13 11 -20 0 -26 -55 -35 -163 -26 -262 20 -279 23 -292 41 -7 10 -23 21 -36 25 -20 7 -24 3 -30 -22 -3 -16 -9 -36 -12 -45 -3 -9 -7 -23 -8 -31 -4 -30 -39 -126 -48 -132 -5 -3 -13 11 -19 31 -6 20 -24 57 -42 82 -17 24 -37 65 -44 89 -7 25 -21 51 -30 59 -25 23 -76 30 -105 15 -38 -20 -39 -38 -3 -51 43 -15 68 -55 60 -94 -13 -57 -69 -30 -84 40 -8 37 -23 52 -38 37 -17 -16 13 -91 50 -126 33 -32 37 -40 40 -105 2 -39 9 -102 15 -139 6 -38 11 -111 11 -164 0 -73 5 -104 21 -135 21 -41 21 -41 -1 -152 -12 -61 -30 -125 -41 -143 -12 -19 -16 -37 -11 -47 5 -9 11 -39 14 -66 6 -57 -6 -70 -44 -50 -30 16 -63 4 -63 -22 -1 -33 17 -58 50 -71 26 -11 36 -10 71 11 41 24 120 100 120 116 0 20 28 6 44 -23 16 -28 16 -35 3 -60 -22 -42 -20 -45 32 -45 63 0 68 17 23 81 -72 103 -73 107 -77 305 -3 160 -1 185 17 225 11 25 21 61 21 80 0 19 7 51 16 72 10 25 12 43 5 55 -18 34 1 139 39 217 l36 75 89 12 c49 7 93 10 98 7 5 -3 78 -6 162 -7 105 -1 153 -5 153 -13 0 -6 -7 -35 -16 -64 -21 -67 -20 -238 1 -337 17 -83 20 -160 5 -183 -7 -11 -11 -4 -17 29 -4 25 -12 44 -18 42 -7 -3 -10 -45 -8 -119 2 -63 4 -189 6 -281 l4 -166 -26 -9 c-19 -8 -25 -18 -25 -42 0 -46 23 -49 80 -9 33 24 51 31 54 22 2 -7 11 -13 19 -13 12 0 15 22 17 102 1 57 2 133 3 171 1 38 3 150 4 250 2 121 8 199 18 231 39 127 55 329 30 388 -19 47 -35 43 -31 -8 2 -39 1 -41 -22 -35 -22 5 -25 2 -26 -24 0 -17 -9 -63 -20 -104 -18 -67 -20 -69 -20 -31 -1 95 59 268 93 268 5 0 15 -10 23 -23 13 -18 32 -24 117 -32 86 -9 113 -8 164 6 69 20 112 22 122 6 4 -6 11 -38 15 -71 5 -33 28 -100 52 -152 l44 -92 -32 -56 c-53 -93 -65 -163 -63 -363 0 -21 9 -70 20 -111 11 -40 22 -97 23 -125 4 -50 3 -52 -29 -60 -74 -20 -74 -72 0 -72 86 0 95 49 42 253 -31 124 -16 156 68 136 53 -13 89 -5 109 25 13 19 9 233 -5 265 -11 27 -13 17 -18 -86 -3 -63 -9 -121 -14 -128 -6 -9 -31 -12 -79 -9 l-70 4 2 58 c1 44 13 82 46 153 24 53 48 96 53 96 6 0 23 -10 40 -23 39 -29 66 -22 78 20 7 24 15 33 25 29 8 -3 24 -5 35 -5 12 0 22 -10 26 -27 4 -15 17 -32 28 -38 19 -10 21 -9 14 8 -4 11 -10 36 -12 57 l-5 36 22 -47 c28 -60 27 -59 52 -37 21 19 21 19 -5 66 -15 26 -26 49 -26 51 0 2 14 1 32 -3 29 -6 32 -4 29 18 -3 21 -11 25 -44 27 -22 2 -58 13 -79 26 -58 35 -120 32 -195 -11 l-62 -35 -23 27 c-27 31 -47 135 -27 142 17 5 14 24 -6 46 -20 22 -21 21 32 41 91 33 38 64 -63 36 -39 -11 -126 -19 -235 -23 -167 -6 -174 -5 -193 16 -18 20 -19 24 -3 63 34 85 -19 169 -106 169 -30 0 -37 -5 -57 -46z m105 -8 c15 -16 16 -66 2 -93 -16 -29 -30 -26 -24 5 4 18 -1 30 -17 39 -37 24 -28 50 21 60 3 1 11 -4 18 -11z m-827 -145 c0 -6 -3 -10 -5 -10 -3 0 -8 4 -11 10 -4 6 -2 11 4 11 6 0 12 -5 12 -11z m57 -246 c41 -23 58 -51 51 -88 -5 -28 -3 -33 11 -27 22 8 22 -9 0 -118 -17 -84 -51 -164 -72 -166 -6 0 -14 52 -19 125 -4 69 -15 149 -25 177 -11 35 -15 71 -11 113 7 83 19 98 33 41 6 -25 20 -50 32 -57z m1578 -46 c18 -12 5 -44 -17 -44 -9 1 -26 12 -36 27 -19 25 -19 25 10 25 17 0 36 -4 43 -8z m-83 -79 c19 -22 -20 -52 -56 -43 l-28 7 24 25 c26 28 43 31 60 11z m-1470 -419 c-11 -83 -10 -227 2 -250 9 -17 6 -26 -17 -47 -29 -26 -61 -34 -72 -17 -3 6 1 30 9 55 9 26 21 82 27 125 12 85 41 189 52 189 4 0 4 -25 -1 -55z m683 -404 c-15 -28 -30 -32 -25 -6 2 10 10 75 17 145 l14 126 3 -121 c2 -79 -1 -129 -9 -144z"/>
		<path d="M2261 1261 c-64 -20 -77 -30 -56 -43 39 -25 126 1 126 37 0 23 -12 24 -70 6z"/>
		<path d="M1989 575 c3 -13 13 -63 22 -111 8 -48 20 -96 26 -107 6 -11 11 -36 11 -55 0 -20 6 -44 13 -55 12 -15 18 -17 37 -6 28 15 29 45 3 82 -11 16 -31 71 -43 123 -13 52 -28 108 -34 124 -13 35 -45 40 -35 5z"/>
	</g>
</svg>
