<?xml version="1.0" encoding="utf-8"?>
<svg xmlns="http://www.w3.org/2000/svg" height="137.357868pt" preserveAspectRatio="xMidYMid meet" version="1.0" viewBox="0 0 162.755642 137.357868" width="162.755642pt">
	<metadata>
Created by Potrace Professional 1.1m
</metadata>
	<g fill="#000000" stroke="none" transform="translate(-9.406976,147.539830) rotate(-360.00) scale(0.095238,-0.095238)">
		<path d="M154 1537 c-21 -71 -57 -356 -52 -408 5 -43 3 -207 -2 -292 -7 -92 28 -542 48 -627 21 -91 78 -123 165 -91 72 26 257 234 320 359 35 70 146 218 183 244 34 25 99 44 146 44 56 1 121 -84 155 -200 9 -32 27 -67 39 -79 12 -11 29 -32 37 -48 8 -15 41 -53 75 -85 203 -193 228 -202 301 -102 25 35 50 78 54 97 4 19 27 84 52 146 25 61 49 129 52 152 4 22 13 57 19 78 19 58 19 62 34 178 28 224 37 497 16 518 -4 5 -11 -64 -15 -152 -12 -296 -36 -484 -76 -606 -14 -43 -25 -83 -25 -89 0 -7 -8 -26 -17 -44 -39 -71 -67 -132 -67 -145 0 -20 -81 -131 -104 -143 -21 -11 -85 4 -85 20 0 4 -9 12 -20 17 -24 11 -143 142 -202 222 -24 33 -41 66 -41 84 0 16 -16 56 -35 88 -20 33 -39 68 -42 79 -5 15 -24 25 -67 34 -107 24 -192 -6 -262 -90 -65 -79 -117 -159 -128 -198 -11 -40 -33 -73 -113 -175 -121 -152 -237 -217 -293 -165 -23 22 -35 55 -42 115 -21 181 -27 282 -27 478 1 127 6 266 12 310 20 136 24 213 11 205 -6 -4 -11 -25 -12 -46 -1 -21 -5 -51 -10 -65 -15 -43 -1 187 15 249 8 30 12 57 9 60 -3 3 0 20 7 39 7 20 8 38 2 44 -6 5 -12 1 -15 -10z"/>
		<path d="M1371 1275 c-9 -25 -7 -94 3 -122 6 -13 21 -35 34 -49 19 -21 30 -24 65 -19 60 8 93 43 89 95 -3 39 -29 69 -29 34 0 -10 -8 -17 -17 -17 -9 0 -33 -14 -53 -31 -20 -18 -40 -32 -45 -32 -28 0 -42 61 -28 123 8 35 -7 49 -19 18z"/>
	</g>
</svg>
