<?xml version="1.0" encoding="utf-8"?>
<svg xmlns="http://www.w3.org/2000/svg" height="153.354344" preserveAspectRatio="xMidYMid meet" version="1.0" viewBox="0 0 212.080473 153.354344" width="212.080473">
	<title>This is a drawing of a broken spear, carp mouth, snake.</title>
	<metadata>
Created by Potrace Professional 1.1m
</metadata>
	<g fill="#000000" stroke="none" transform="translate(-31.046114,164.709941) rotate(-360.00) scale(0.095238,-0.095238)">
		<path d="M2294 1713 c-180 -67 -279 -142 -326 -250 -27 -61 -26 -90 8 -170 33 -79 82 -135 191 -221 137 -107 181 -151 211 -210 34 -69 39 -101 27 -192 -15 -117 -45 -175 -111 -210 -60 -33 -171 -61 -241 -61 -53 0 -60 -12 -21 -38 60 -39 247 8 339 85 62 52 100 153 100 268 0 68 -4 87 -32 139 -47 87 -60 101 -198 216 -172 142 -198 168 -223 223 -36 80 -36 87 0 158 29 54 47 74 103 112 78 53 168 97 196 97 11 -1 33 -12 49 -25 23 -19 29 -30 23 -47 -7 -24 10 -122 25 -148 9 -13 12 -13 28 0 10 8 33 20 51 26 40 13 37 28 -7 43 -19 6 -36 19 -38 29 -4 24 6 21 49 -11 35 -26 37 -27 50 -9 20 27 -15 91 -71 132 -24 17 -49 42 -55 55 -15 31 -59 34 -127 9z m-190 -143 c-3 -8 -12 -12 -21 -9 -18 7 -19 21 -1 27 19 7 28 -1 22 -18z"/>
		<path d="M478 1583 c-3 -19 -10 -63 -16 -97 -7 -35 -16 -122 -21 -194 -17 -230 -22 -287 -32 -366 -5 -42 -10 -103 -10 -134 0 -32 -7 -92 -16 -135 -9 -42 -20 -109 -26 -149 -5 -40 -15 -104 -21 -144 -7 -39 -9 -84 -5 -100 l7 -28 11 24 c6 13 20 24 30 24 21 0 25 12 36 110 4 34 11 89 15 121 58 404 90 661 100 813 3 46 11 116 17 155 l13 71 -30 32 c-38 39 -45 39 -52 -3z m45 -93 c-18 -11 -30 -2 -23 17 5 13 10 13 21 4 12 -10 13 -15 2 -21z"/>
		<path d="M1478 1417 c-22 -12 -54 -41 -72 -65 -28 -39 -112 -203 -120 -234 -1 -5 -6 -25 -10 -44 -7 -28 -14 -35 -44 -41 -20 -4 -59 -4 -86 0 -91 12 -167 -42 -123 -87 14 -13 37 -16 121 -15 l104 2 -11 -33 c-5 -19 -10 -62 -9 -97 1 -87 -26 -220 -52 -257 -25 -36 -67 -42 -83 -13 -13 26 -31 163 -31 243 0 71 -4 81 -23 69 -16 -10 -6 -260 12 -306 16 -42 51 -77 78 -77 25 0 65 33 92 74 26 41 60 200 60 283 0 78 12 118 34 111 7 -3 64 -7 126 -11 64 -4 143 -16 184 -28 39 -12 81 -22 94 -23 17 -1 24 -8 24 -24 0 -50 36 -124 82 -168 50 -48 72 -56 82 -30 4 10 -13 34 -47 66 -62 58 -72 96 -25 97 16 0 35 4 42 8 15 10 34 68 34 106 0 24 -2 24 -50 18 -34 -4 -56 -2 -68 7 -9 7 -30 58 -45 113 -42 153 -100 311 -122 334 -16 18 -82 45 -103 43 -3 0 -24 -10 -45 -21z m94 -55 c12 -13 29 -38 38 -57 30 -57 113 -302 107 -315 -3 -8 -15 -9 -39 -3 -19 5 -95 14 -170 20 -140 12 -185 20 -185 31 0 4 14 41 32 83 57 137 145 265 180 265 9 0 25 -11 37 -24z"/>
		<path d="M893 357 c0 -6 28 -39 63 -74 36 -36 63 -66 61 -68 -2 -2 -30 4 -62 12 -64 18 -324 21 -387 5 -21 -5 -45 -9 -53 -9 -16 -1 -93 -10 -155 -19 -36 -6 -45 -25 -20 -46 12 -9 34 -7 97 10 114 30 394 48 484 30 70 -14 70 -30 1 -30 -46 0 -62 -18 -34 -39 21 -15 39 -14 165 10 105 19 103 70 -5 132 -31 18 -72 46 -92 64 -37 33 -63 42 -63 22z"/>
	</g>
</svg>
