<?xml version="1.0" encoding="utf-8"?>
<svg xmlns="http://www.w3.org/2000/svg" height="168.398787" preserveAspectRatio="xMidYMid meet" version="1.0" viewBox="0 0 117.852710 168.398787" width="117.852710">
	<title>A drawing of a beaver.</title>
	<g fill="#000000" stroke="none" transform="translate(-28.000000,187.620978) rotate(-360.00) scale(0.095238,-0.095238)">
		<path d="M851 1959 c-32 -8 -89 -29 -126 -46 -106 -48 -208 -176 -271 -338 -40 -102 -48 -176 -42 -381 5 -171 9 -200 34 -275 15 -46 34 -91 42 -100 8 -9 24 -38 36 -65 23 -54 53 -76 88 -66 37 12 57 35 65 75 9 46 39 77 76 77 40 -1 111 -34 166 -80 79 -64 60 -81 -92 -79 -69 1 -122 -6 -201 -25 -58 -15 -127 -32 -152 -39 -58 -14 -154 -77 -169 -110 -6 -14 -11 -50 -11 -81 0 -63 23 -106 84 -154 43 -35 150 -65 193 -56 17 4 81 1 142 -6 105 -12 115 -12 176 9 130 44 196 90 319 220 63 68 130 147 149 177 19 29 61 94 94 144 91 135 100 198 52 368 -18 64 -35 98 -75 147 -82 103 -88 108 -268 205 -52 29 -71 59 -47 74 8 5 40 6 73 3 l59 -5 30 55 c40 73 40 137 0 205 -28 47 -67 78 -162 127 -61 32 -181 41 -262 20z m194 -53 c117 -35 215 -126 215 -201 0 -60 -14 -76 -61 -70 -46 6 -124 -27 -136 -58 -13 -34 -7 -85 13 -107 11 -12 66 -46 124 -76 91 -49 111 -64 162 -129 42 -54 68 -101 93 -171 38 -104 39 -145 7 -221 -23 -56 -95 -175 -118 -196 -12 -10 -21 -24 -21 -31 0 -6 -22 -33 -48 -58 -27 -26 -65 -72 -85 -102 -38 -57 -89 -103 -147 -132 l-33 -17 -4 32 c-4 25 0 35 19 48 33 21 32 38 -1 32 -31 -6 -40 3 -56 61 -17 58 -16 89 3 88 29 0 47 32 48 82 0 45 -5 52 -55 100 -75 70 -122 92 -203 95 -57 1 -70 -2 -92 -23 -15 -13 -32 -45 -39 -70 -20 -73 -42 -63 -93 40 -77 157 -81 177 -77 401 3 230 13 281 78 414 46 91 145 211 196 236 15 8 56 19 90 26 35 6 73 13 84 16 44 9 88 6 137 -9z m-172 -1317 c3 -3 9 -19 13 -35 6 -27 3 -31 -39 -49 -81 -35 -94 -33 -104 15 -5 23 -13 46 -19 52 -5 5 -10 16 -10 23 0 11 17 13 76 7 42 -3 79 -9 83 -13z m-187 -23 c4 -18 7 -51 7 -73 0 -32 -4 -40 -24 -45 -41 -11 -46 -8 -64 39 -10 26 -26 50 -35 53 -14 6 -16 -1 -11 -51 7 -65 16 -57 -86 -76 -71 -13 -48 -30 34 -26 l71 4 0 -32 c0 -32 -2 -32 -55 -36 -31 -1 -56 -8 -58 -16 -4 -9 14 -13 64 -13 57 0 70 -3 70 -17 0 -36 -162 6 -217 57 -54 49 -53 124 3 167 33 25 236 96 278 97 11 0 19 -11 23 -32z m230 -114 c2 -21 -5 -27 -58 -45 -64 -22 -91 -19 -91 8 0 18 125 81 138 69 4 -4 9 -18 11 -32z m-206 -59 c9 -22 -5 -34 -46 -42 -26 -6 -35 -3 -41 11 -4 13 0 24 13 33 26 19 67 18 74 -2z m245 -35 c6 -11 11 -26 11 -32 0 -14 -94 -58 -144 -69 l-34 -7 0 48 0 47 65 16 c87 20 90 20 102 -3z m-214 -65 c9 -18 14 -35 11 -38 -3 -3 -32 -2 -64 2 -46 6 -58 11 -58 26 0 12 12 22 34 29 53 17 59 16 77 -19z"/>
		<path d="M987 1838 c-14 -27 4 -77 28 -72 31 6 41 35 21 65 -21 33 -34 35 -49 7z"/>
	</g>
</svg>
