<?xml version="1.0" encoding="utf-8"?>
<svg xmlns="http://www.w3.org/2000/svg" height="149.771995pt" preserveAspectRatio="xMidYMid meet" version="1.0" viewBox="0 0 161.678955 149.771995" width="161.678955pt">
	<metadata>
Created by Potrace Professional 1.1m
</metadata>
	<g fill="#000000" stroke="none" transform="translate(-22.000000,164.928572) rotate(-360.00) scale(0.095238,-0.095238)">
		<path d="M1079 1721 c-10 -5 -21 -26 -24 -46 -4 -20 -15 -39 -24 -42 -82 -25 -429 -68 -558 -68 -85 -1 -136 -17 -143 -48 -4 -14 -12 -22 -20 -19 -16 6 -79 -45 -79 -65 0 -8 8 -19 18 -24 16 -10 16 -15 -2 -89 -17 -68 -18 -86 -7 -123 7 -24 10 -63 7 -87 -3 -24 -2 -51 4 -59 16 -25 37 2 57 75 11 36 28 82 40 103 50 87 65 133 67 194 l2 63 200 6 c232 8 359 21 454 47 33 9 43 -10 25 -48 -25 -49 -36 -144 -45 -373 -4 -109 -11 -208 -16 -218 -5 -10 -27 -28 -49 -40 -23 -11 -41 -26 -42 -33 0 -7 -3 -23 -6 -34 -3 -12 -6 -116 -8 -231 -2 -250 -8 -289 -44 -289 -13 0 -40 -13 -58 -30 -60 -54 -16 -89 106 -83 55 2 69 6 72 21 3 14 -1 17 -15 11 -16 -6 -17 -1 -10 50 9 65 9 251 0 330 -8 68 11 181 34 207 10 11 21 16 24 11 4 -4 4 -55 0 -113 -5 -57 -8 -169 -9 -248 -1 -129 1 -145 21 -170 12 -16 28 -28 36 -28 8 0 20 -9 26 -21 12 -23 53 -29 52 -8 0 7 -16 24 -36 38 l-37 25 0 320 c0 266 3 328 17 371 9 29 23 52 31 52 19 0 33 28 69 140 31 94 42 205 26 256 -6 19 1 21 111 32 150 14 285 1 347 -33 69 -39 102 -94 120 -202 9 -51 21 -99 27 -106 14 -17 29 -7 29 18 0 11 9 36 21 55 25 42 27 84 4 119 -16 24 -16 27 5 44 32 26 39 76 15 105 -17 21 -29 24 -128 25 -117 1 -132 5 -191 59 -34 32 -47 36 -121 43 -45 3 -107 7 -137 7 -53 0 -54 1 -49 27 5 27 -6 40 -100 112 -33 25 -78 30 -109 12z m108 -114 c0 -5 -15 -9 -32 -9 -38 1 -40 6 -8 18 25 9 40 6 40 -9z m-14 -250 c-5 -66 -12 -86 -25 -73 -12 13 -13 147 -1 169 11 21 11 21 21 -4 5 -15 8 -56 5 -92z m675 33 c0 -3 -9 -17 -19 -31 -22 -27 -44 -17 -44 19 0 14 8 19 32 19 17 0 31 -3 31 -7z m21 -146 c0 -71 -17 -76 -23 -8 -5 53 -3 66 13 66 6 0 10 -26 10 -58z"/>
	</g>
</svg>
