<?xml version="1.0" encoding="utf-8"?>
<svg xmlns="http://www.w3.org/2000/svg" height="132.724715" preserveAspectRatio="xMidYMid meet" version="1.0" viewBox="0 0 108.923561 132.724715" width="108.923561">
	<title>A drawing of a simplified beaver.</title>
	<g fill="#000000" stroke="none" transform="translate(-26.000000,154.927843) rotate(-360.00) scale(0.095238,-0.095238)">
		<path d="M1082 1618 c-9 -5 -54 -11 -100 -15 -126 -9 -181 -41 -271 -160 -128 -168 -232 -410 -254 -587 -3 -29 -14 -87 -23 -129 -16 -76 -13 -115 7 -102 6 3 10 18 11 33 0 70 80 330 151 492 83 186 183 330 263 377 58 34 147 59 211 59 60 0 177 -47 198 -80 31 -47 52 -151 44 -217 -14 -109 -65 -151 -250 -212 -142 -46 -155 -54 -155 -87 0 -50 20 -66 94 -77 135 -20 224 -58 285 -122 53 -56 72 -107 72 -197 0 -88 -26 -140 -79 -158 -17 -6 -69 -32 -115 -59 -126 -71 -132 -72 -266 -73 -67 0 -179 -4 -249 -10 -69 -5 -175 -12 -236 -16 -129 -7 -147 -11 -147 -33 0 -13 47 -14 375 -9 l376 7 85 36 c164 67 275 159 299 248 18 70 7 177 -25 232 -35 59 -101 119 -163 146 -59 26 -185 61 -220 61 -18 0 -24 5 -22 18 3 13 18 21 51 25 110 17 235 75 282 132 78 94 66 305 -23 400 -17 18 -49 39 -69 46 -21 7 -47 18 -58 26 -24 16 -56 18 -79 5z"/>
	</g>
</svg>
