<?xml version="1.0" encoding="utf-8"?>
<svg xmlns="http://www.w3.org/2000/svg" height="157.486039" preserveAspectRatio="xMidYMid meet" version="1.0" viewBox="0 0 192.023304 157.486039" width="192.023304">
	<title>A drawing of a simplified carp tail.</title>
	<g fill="#000000" stroke="none" transform="translate(-21.000000,173.896320) rotate(-360.00) scale(0.095238,-0.095238)">
		<path d="M515 1817 c-9 -5 -46 -12 -82 -16 -54 -6 -74 -15 -115 -47 -73 -58 -97 -96 -97 -149 0 -36 6 -52 32 -78 18 -18 38 -52 46 -74 17 -51 33 -56 42 -15 7 33 -3 55 -38 81 -9 7 -23 27 -30 45 -11 27 -10 36 7 62 26 40 95 99 107 91 6 -3 37 1 69 10 61 16 77 12 153 -32 14 -9 46 -25 71 -37 24 -12 64 -40 89 -61 25 -22 61 -48 82 -59 20 -10 84 -68 143 -129 102 -107 107 -113 124 -185 26 -104 36 -537 15 -636 -6 -26 -14 -83 -20 -126 -5 -43 -22 -118 -38 -167 -20 -64 -25 -93 -18 -105 22 -34 40 -18 48 41 9 70 45 185 53 172 3 -6 -1 -40 -9 -78 -19 -88 -18 -111 1 -119 26 -10 38 39 43 165 4 106 14 154 34 154 4 0 5 19 3 43 -3 30 2 48 15 63 19 21 20 31 14 141 -1 17 2 67 6 110 9 93 9 123 3 286 l-6 123 39 7 c70 13 106 42 152 122 50 88 66 98 166 105 92 7 145 21 145 39 0 12 -83 6 -162 -11 -23 -4 -44 -6 -46 -4 -7 6 36 71 64 98 30 27 165 82 249 101 38 8 59 18 61 30 5 26 -84 12 -227 -34 -114 -38 -120 -41 -155 -90 -46 -66 -97 -121 -110 -121 -5 0 -10 -8 -10 -17 0 -9 -17 -36 -37 -59 -20 -24 -36 -52 -36 -62 0 -20 -38 -51 -62 -51 -9 0 -12 6 -7 18 31 72 1 94 -30 23 -22 -49 -35 -56 -86 -47 -27 5 -43 16 -55 38 -11 19 -26 31 -41 31 -15 0 -54 34 -120 105 -126 136 -251 241 -324 272 -32 13 -66 29 -76 34 -22 11 -20 11 -39 -1z m52 -59 c0 -3 -7 -4 -16 -4 -8 0 -15 4 -15 10 0 5 7 7 15 4 9 -4 16 -8 16 -10z m90 -26 c51 -26 180 -126 188 -145 7 -19 -43 13 -75 47 -12 13 -61 43 -107 66 -47 24 -85 46 -85 48 0 12 40 4 79 -16z m533 -490 c-4 -28 -8 -52 -10 -55 -9 -10 -23 18 -29 60 -6 42 -5 45 19 45 26 0 26 -2 20 -50z m30 -298 c-8 -21 -12 -14 -22 49 -9 53 -9 82 -2 103 7 16 12 42 12 59 0 16 3 38 7 49 12 28 16 -229 5 -260z m-19 -111 c8 -59 -1 -140 -15 -140 -5 0 -8 39 -8 87 0 47 -1 91 -2 97 -1 6 -2 17 -1 26 3 30 19 -12 26 -70z"/>
		<path d="M2001 1807 c-8 -13 35 -32 70 -32 31 0 124 -98 124 -131 0 -68 -45 -100 -140 -100 -40 -1 -52 -14 -22 -26 9 -3 37 -6 63 -6 47 0 48 0 41 -31 -9 -42 12 -42 52 -1 40 42 60 138 39 190 -15 37 -76 103 -113 123 -33 17 -107 26 -114 14z"/>
		<path d="M1754 390 c0 -6 7 -13 17 -16 14 -6 15 -4 4 9 -15 18 -21 20 -21 7z"/>
	</g>
</svg>
