<?xml version="1.0" encoding="utf-8"?>
<svg xmlns="http://www.w3.org/2000/svg" height="142.263879" preserveAspectRatio="xMidYMid meet" version="1.0" viewBox="0 0 184.411114 142.263879" width="184.411114">
	<title>This is a drawing of a simplified carp mouth with feeler.</title>
	<g fill="#000000" stroke="none" transform="translate(-9.328496,159.416858) rotate(-360.00) scale(0.095238,-0.095238)">
		<path d="M1082 1668 c-95 -19 -133 -34 -171 -71 -22 -20 -39 -41 -39 -47 0 -6 -19 -42 -42 -79 -23 -38 -43 -81 -45 -95 -1 -14 -12 -35 -24 -48 -11 -13 -42 -89 -67 -169 -26 -80 -51 -152 -57 -159 -6 -8 -34 -13 -71 -13 -33 0 -64 -5 -67 -10 -4 -6 -18 -11 -32 -11 -38 0 -58 -11 -58 -32 1 -27 20 -30 109 -17 44 6 83 8 86 5 4 -4 -6 -38 -22 -77 -25 -64 -57 -166 -57 -186 0 -4 4 -8 9 -8 13 0 44 71 54 127 5 27 21 73 35 102 16 33 22 57 15 63 -6 6 -1 12 13 16 16 4 21 1 17 -8 -7 -20 246 -57 435 -63 83 -3 219 -9 301 -13 l148 -7 16 -43 c8 -23 18 -76 22 -116 7 -91 66 -265 95 -284 12 -7 38 -17 58 -21 33 -7 35 -6 22 9 -8 10 -21 18 -29 17 -45 0 -93 121 -104 264 -6 74 -17 118 -44 170 -7 13 118 8 132 -5 15 -15 38 4 49 41 14 49 -55 65 -188 43 -28 -5 -61 47 -89 140 -13 43 -30 94 -38 114 -19 49 -40 128 -74 275 -15 68 -35 129 -43 136 -21 17 -27 6 -14 -28 12 -31 8 -43 -10 -32 -6 4 -11 19 -11 33 0 22 -11 31 -66 57 -85 39 -98 41 -154 30z m92 -67 c77 -23 130 -74 163 -156 14 -36 29 -84 33 -107 11 -60 98 -319 122 -359 11 -20 20 -38 20 -41 0 -3 -61 -4 -136 -2 -75 2 -137 7 -137 12 0 4 -14 8 -31 8 -17 0 -34 4 -37 10 -4 6 -10 9 -14 6 -18 -10 -202 -15 -234 -6 -20 6 -80 13 -135 16 -54 3 -103 9 -109 14 -5 6 2 28 18 56 14 25 30 67 34 93 4 25 18 68 31 94 13 26 39 87 58 137 38 98 95 169 178 222 51 34 71 34 176 3z m-410 -652 c-4 -3 -13 -4 -20 -1 -9 4 -6 6 6 7 11 0 17 -2 14 -6z"/>
		<path d="M1995 946 c-6 -11 -11 -34 -11 -50 0 -48 -29 -190 -55 -264 -17 -50 -36 -82 -70 -116 -26 -26 -47 -51 -45 -55 1 -5 -5 -6 -13 -3 -20 8 -21 -21 -2 -37 30 -24 69 16 53 55 -4 13 0 17 14 18 19 0 53 29 70 60 13 22 67 185 73 218 3 17 11 61 18 97 12 66 9 97 -10 97 -6 0 -16 -9 -22 -20z"/>
		<path d="M100 428 c10 -32 26 -49 26 -27 0 26 -11 51 -23 51 -5 0 -7 -11 -3 -24z"/>
		<path d="M432 341 c-55 -105 -83 -131 -146 -131 -64 0 -91 22 -135 111 -24 49 -31 57 -34 39 -4 -33 54 -130 91 -153 18 -10 53 -21 78 -25 39 -5 50 -2 73 19 34 33 86 110 107 160 19 46 20 49 9 48 -4 0 -24 -30 -43 -68z"/>
	</g>
</svg>
