<?xml version="1.0" encoding="utf-8"?>
<svg xmlns="http://www.w3.org/2000/svg" height="151.106138pt" preserveAspectRatio="xMidYMid meet" version="1.0" viewBox="0 0 199.933772 151.106138" width="199.933772pt">
	<metadata>
Created by Potrace Professional 1.1m
</metadata>
	<g fill="#000000" stroke="none" transform="translate(-22.066228,171.861508) rotate(-360.00) scale(0.095238,-0.095238)">
		<path d="M546 1790 c-111 -12 -242 -48 -261 -72 -6 -7 -7 -19 -2 -27 8 -12 21 -11 81 9 132 43 367 52 452 17 48 -21 59 -47 46 -116 -20 -106 -70 -168 -262 -322 -107 -86 -174 -150 -218 -210 -58 -79 -126 -227 -139 -303 -19 -113 -16 -136 28 -205 50 -77 71 -115 89 -162 28 -71 227 -163 375 -173 67 -5 174 12 207 32 59 37 35 133 -61 242 -115 130 -125 145 -125 195 0 26 -6 43 -18 50 -11 6 -13 11 -6 11 8 0 28 24 46 53 33 54 78 85 142 98 48 11 89 59 96 113 7 61 26 96 85 159 61 65 91 81 163 84 64 3 101 -20 101 -62 0 -13 5 -27 11 -30 22 -14 9 -57 -27 -91 -59 -56 -72 -105 -64 -240 l7 -115 -36 -50 c-40 -58 -71 -119 -60 -119 4 1 18 -35 31 -79 21 -67 34 -90 92 -155 86 -95 119 -113 183 -100 26 5 83 14 128 20 45 6 102 17 126 26 25 8 69 15 98 15 46 0 56 4 74 29 26 37 52 150 48 218 -3 68 17 140 41 153 11 6 20 18 20 26 0 19 -38 98 -75 157 -48 77 -123 241 -135 294 -17 72 -21 243 -7 293 20 72 101 133 195 147 26 4 54 13 62 19 11 10 77 13 149 7 9 -1 36 -1 60 0 41 1 45 4 45 28 0 39 -36 48 -176 42 -157 -6 -214 -20 -286 -69 -81 -55 -112 -86 -131 -131 -18 -45 -21 -137 -5 -179 6 -16 16 -64 22 -107 16 -116 44 -196 106 -302 49 -83 70 -137 89 -223 3 -13 -5 -48 -18 -78 -20 -47 -22 -65 -16 -136 l7 -81 -44 -32 c-30 -22 -57 -33 -82 -33 -21 0 -69 -7 -106 -15 -99 -23 -113 -25 -203 -33 l-82 -7 -47 49 c-56 59 -103 157 -94 195 4 15 24 44 44 65 l38 39 -8 135 c-7 133 -7 135 20 171 14 20 42 68 62 105 33 63 35 71 22 95 -8 14 -14 34 -15 45 0 27 -36 93 -65 118 -22 21 -71 37 -150 51 -25 5 -49 -4 -110 -40 -44 -26 -94 -59 -112 -73 -42 -35 -99 -142 -107 -205 -7 -44 -11 -49 -39 -54 -82 -14 -150 -84 -184 -189 -24 -77 -26 -124 -6 -171 17 -42 181 -272 202 -284 8 -4 15 -15 15 -23 0 -11 -15 -16 -56 -18 -86 -3 -157 2 -191 14 -104 38 -150 58 -170 72 -12 9 -52 73 -88 142 -59 116 -64 131 -60 179 3 36 19 83 49 142 62 120 99 164 309 365 86 83 187 205 237 286 26 44 30 136 7 191 -21 50 -102 107 -172 122 -30 7 -61 11 -68 10 -7 0 -62 -7 -123 -14z m389 -814 c0 -6 -5 -10 -11 -10 -6 0 -10 7 -10 16 0 9 4 14 10 10 6 -3 11 -11 11 -16z m-221 -356 c-21 -14 -34 -14 -26 0 3 5 14 10 24 10 15 0 16 -2 2 -10z m50 -62 c6 -18 -15 -14 -23 5 -4 10 -1 15 6 12 7 -2 15 -10 17 -17z m139 -232 c0 -5 -5 -13 -10 -16 -6 -4 -11 1 -11 10 0 9 5 16 11 16 5 0 10 -4 10 -10z m36 1 c3 -6 -1 -13 -10 -16 -9 -3 -15 0 -15 10 0 17 16 20 25 6z"/>
	</g>
</svg>
