<?xml version="1.0" encoding="utf-8"?>
<svg xmlns="http://www.w3.org/2000/svg" height="148.479181" preserveAspectRatio="xMidYMid meet" version="1.0" viewBox="0 0 133.446634 148.479181" width="133.446634">
	<title>This is a drawing of a simplified family group.</title>
	<g fill="#000000" stroke="none" transform="translate(-25.000000,164.560870) rotate(-360.00) scale(0.095238,-0.095238)">
		<path d="M969 1712 c-38 -23 -55 -51 -55 -88 0 -23 -6 -26 -61 -33 -33 -4 -172 -7 -310 -5 -271 2 -281 1 -280 -55 0 -35 24 -49 52 -32 14 9 30 9 59 1 47 -13 158 -14 346 -4 141 8 207 -1 218 -30 5 -14 -20 -364 -30 -403 -3 -12 -10 -102 -16 -199 -5 -97 -13 -212 -16 -255 -3 -43 -7 -112 -8 -152 -2 -41 -7 -123 -12 -182 -8 -103 -8 -109 11 -105 22 4 33 36 35 103 0 26 8 69 16 95 9 25 26 113 38 193 12 81 27 155 32 165 5 10 15 55 21 100 14 111 40 238 60 308 17 55 21 241 8 300 -13 52 246 90 372 54 100 -28 153 -31 189 -13 27 14 31 20 20 32 -6 9 -27 16 -46 16 -19 0 -53 6 -75 14 -22 8 -76 17 -118 22 -43 4 -107 16 -142 27 -35 11 -72 20 -81 20 -10 0 -20 12 -23 29 -4 20 -21 39 -52 57 -64 40 -110 46 -152 20z m51 -85 c-29 -24 -43 -26 -43 -7 0 21 10 29 41 28 l27 0 -25 -21z m-471 -111 c-7 -3 -21 -3 -32 -1 -10 3 -4 5 13 5 18 1 26 -2 19 -4z"/>
	</g>
</svg>
