<?xml version="1.0" encoding="utf-8"?>
<svg xmlns="http://www.w3.org/2000/svg" height="160.572743" preserveAspectRatio="xMidYMid meet" version="1.0" viewBox="0 0 104.562824 160.572743" width="104.562824">
	<title>A drawing of a thin egg open at top.</title>
	<g fill="#000000" stroke="none" transform="translate(-22.017139,171.572743) rotate(-360.00) scale(0.095238,-0.095238)">
		<path d="M1194 1787 c-16 -11 -36 -29 -44 -40 -15 -19 -17 -19 -27 -1 -6 10 -21 18 -33 18 -19 0 -21 -4 -14 -37 11 -63 68 -178 81 -165 8 8 6 27 -7 65 -10 30 -16 57 -13 59 2 3 15 -4 28 -14 16 -13 24 -31 25 -57 0 -29 6 -41 25 -50 18 -8 24 -19 24 -48 0 -22 -6 -39 -14 -43 -12 -4 -12 -12 1 -49 42 -123 59 -377 31 -470 -8 -26 -15 -50 -15 -55 -5 -37 -22 -91 -57 -178 -22 -56 -50 -131 -62 -168 -55 -165 -134 -257 -270 -317 -102 -44 -181 -56 -240 -37 -80 26 -248 161 -281 226 -23 46 -42 208 -29 250 25 82 33 170 19 217 -14 48 -11 69 18 157 31 93 70 227 70 242 0 23 57 173 82 215 13 21 23 47 23 58 0 23 20 27 41 7 11 -10 13 -7 8 20 -5 27 -2 34 19 44 32 15 33 29 2 56 -22 20 -22 21 -2 16 11 -2 29 -8 39 -12 33 -14 35 24 2 58 -25 27 -35 30 -67 25 -51 -10 -58 -19 -60 -81 -2 -92 -14 -135 -68 -244 -45 -91 -64 -144 -116 -320 -35 -123 -48 -208 -50 -333 -1 -78 -6 -139 -13 -147 -6 -8 -14 -47 -17 -87 -5 -71 -4 -73 33 -117 21 -24 38 -54 38 -67 1 -13 32 -56 79 -107 83 -90 111 -104 237 -127 31 -6 71 -16 87 -22 16 -6 68 -12 116 -12 78 0 91 3 138 33 29 18 63 42 76 54 27 26 32 56 7 46 -9 -3 5 21 30 54 90 119 116 180 174 409 18 68 39 143 47 168 9 24 21 107 28 185 13 152 8 205 -32 350 -12 42 -22 107 -22 146 -1 59 -5 71 -21 75 -27 7 -25 18 11 52 33 32 49 74 35 95 -16 24 -69 26 -100 5z m24 -86 c0 -6 -7 -10 -16 -10 -8 0 -15 4 -15 10 0 6 7 11 15 11 9 0 16 -5 16 -11z m-934 -1178 c0 -34 -3 -40 -14 -31 -8 7 -12 26 -10 48 6 50 24 37 24 -17z m160 -252 c23 -22 46 -40 51 -40 5 0 9 -5 9 -11 0 -19 -82 31 -108 66 -57 77 -50 75 48 -15z m479 -92 c-44 -24 -158 -42 -140 -23 6 7 42 17 79 23 36 6 69 13 71 16 3 2 10 4 16 4 7 0 -5 -9 -26 -20z"/>
	</g>
</svg>
