<?xml version="1.0" encoding="utf-8"?>
<svg xmlns="http://www.w3.org/2000/svg" height="158.461420pt" preserveAspectRatio="xMidYMid meet" version="1.0" viewBox="0 0 421.841660 158.461420" width="421.841660pt">
	<metadata>
Created by Potrace Professional 1.1m
</metadata>
	<g fill="#000000" stroke="none" transform="translate(-14.012298,170.759165) rotate(-360.00) scale(0.095238,-0.095238)">
		<path d="M714 1764 c-49 -17 -116 -34 -150 -38 -48 -5 -60 -10 -60 -26 0 -12 -20 -30 -53 -48 -77 -44 -89 -75 -89 -229 0 -102 5 -145 26 -221 23 -82 34 -104 90 -173 128 -157 187 -260 215 -377 18 -75 9 -216 -17 -265 -29 -56 -104 -133 -147 -151 -49 -20 -131 -20 -179 0 -21 9 -49 16 -62 16 -19 0 -33 13 -57 55 -31 53 -32 59 -29 160 3 90 7 114 32 164 33 68 35 86 10 81 -10 -2 -33 -34 -53 -76 -67 -139 -56 -323 24 -393 87 -77 173 -111 240 -96 125 27 141 36 212 110 38 40 71 84 74 99 3 15 10 44 15 65 15 56 12 184 -5 258 -20 85 -73 178 -149 265 -109 123 -142 185 -172 332 -13 60 -12 210 1 238 22 49 162 106 317 131 l102 16 53 -26 c52 -26 69 -24 57 6 -4 12 1 14 21 10 33 -6 35 10 6 38 -19 17 -20 21 -6 33 14 11 24 63 12 63 -2 0 -17 -7 -33 -15 -26 -14 -33 -13 -69 5 -51 26 -68 25 -177 -11z m137 -10 c0 -6 -8 -8 -16 -4 -9 3 -16 8 -16 10 0 2 7 4 16 4 8 0 16 -5 16 -10z"/>
		<path d="M1182 1723 c-9 -26 3 -130 20 -178 14 -43 11 -64 -11 -64 -8 0 -23 -16 -33 -35 -15 -27 -19 -61 -19 -181 -1 -192 1 -181 -44 -200 -46 -19 -76 -44 -76 -64 -1 -22 24 -27 58 -12 17 7 35 13 40 13 15 1 12 -722 -3 -727 -16 -5 -15 -20 6 -67 10 -22 24 -40 31 -40 19 0 39 80 30 125 -4 21 -6 92 -4 159 1 66 2 208 2 314 -1 107 3 199 7 205 5 6 11 25 13 42 2 23 10 32 35 40 28 8 128 24 210 33 17 2 45 7 62 12 l30 8 -6 -79 c-4 -43 -14 -106 -23 -140 -38 -153 -52 -321 -43 -502 8 -133 10 -147 35 -176 39 -47 55 -26 55 70 0 42 4 79 9 82 5 3 12 64 17 135 7 133 14 173 43 271 31 105 37 138 42 245 l4 106 35 12 c37 12 48 36 25 55 -11 9 -23 9 -42 2 -22 -8 -28 -7 -28 5 0 11 12 16 42 16 35 0 42 3 42 20 0 16 -9 21 -45 24 l-44 3 -7 164 c-6 120 -12 174 -25 198 -19 38 -42 37 -42 -2 0 -15 -6 -34 -12 -42 -22 -28 -39 -144 -40 -276 l-1 -137 -57 -12 c-78 -17 -208 -38 -247 -39 l-31 -1 -3 130 c-2 109 0 135 16 158 48 72 57 96 45 129 -6 18 -11 48 -11 68 0 20 -5 45 -11 57 -9 16 -8 27 5 47 10 14 15 30 11 36 -11 18 -56 11 -62 -10z m425 -400 c0 -51 -5 -84 -11 -84 -7 0 -11 32 -10 84 1 46 6 84 11 84 5 0 10 -38 10 -84z m-7 -122 c21 -8 22 -35 2 -35 -8 0 -17 9 -20 21 -6 23 -5 23 18 14z m30 -91 c14 -40 7 -150 -16 -244 -14 -58 -32 -134 -39 -171 -8 -36 -18 -68 -23 -72 -12 -7 -1 135 18 236 9 43 16 117 16 164 0 48 3 90 7 94 11 11 32 7 37 -7z"/>
		<path d="M2794 1689 c-59 -31 -85 -79 -85 -154 0 -73 19 -69 45 9 28 83 65 116 135 121 67 5 118 -20 136 -66 6 -16 18 -79 26 -139 9 -71 24 -128 41 -163 16 -33 23 -62 20 -77 -5 -16 -1 -28 12 -38 17 -12 18 -24 6 -180 -27 -383 -43 -550 -58 -634 -25 -136 -22 -169 15 -205 27 -26 32 -28 38 -12 4 10 1 37 -7 60 -10 32 -11 45 -1 54 6 7 12 41 13 76 0 35 5 89 9 121 5 32 14 107 21 168 7 61 22 155 33 210 30 154 44 270 37 312 -6 40 8 80 50 136 18 24 26 53 30 105 5 49 17 94 39 142 29 61 37 70 68 76 20 4 41 14 49 23 17 21 70 12 139 -24 72 -37 72 -24 0 22 -46 28 -55 38 -37 38 40 0 87 -31 102 -68 19 -46 44 -67 53 -44 9 24 -31 83 -79 116 -71 49 -195 34 -289 -36 -88 -65 -103 -90 -96 -154 5 -41 1 -66 -16 -110 -38 -94 -43 -92 -45 12 -1 37 -5 48 -20 51 -18 3 -20 -3 -16 -76 4 -71 2 -80 -15 -80 -27 0 -38 40 -51 173 -8 86 -15 121 -30 137 -10 11 -22 31 -26 44 -10 35 -72 67 -140 73 -49 4 -68 0 -106 -19z"/>
		<path d="M2422 1617 c-21 -52 -23 -135 -3 -163 25 -36 4 -309 -36 -457 -5 -20 -14 -132 -20 -247 -9 -178 -16 -227 -43 -330 -24 -92 -39 -128 -62 -152 -16 -17 -32 -41 -34 -53 -11 -64 -97 27 -129 139 -10 31 -39 84 -69 124 -68 90 -80 114 -92 189 -14 84 -3 246 19 289 5 9 14 56 21 105 27 205 81 345 126 330 33 -10 46 5 25 28 -18 20 -15 23 25 20 28 -2 33 31 8 52 -23 19 -20 40 8 44 32 5 34 31 3 64 -31 34 -39 35 -64 8 -10 -12 -27 -21 -37 -21 -23 0 -73 -40 -73 -59 0 -8 14 -22 32 -31 17 -9 31 -19 31 -23 0 -3 -17 -41 -37 -84 -44 -91 -73 -177 -83 -250 -4 -29 -17 -85 -28 -126 -13 -47 -23 -125 -27 -220 -6 -129 -4 -161 17 -257 38 -176 130 -328 230 -382 51 -28 60 -29 96 -19 60 18 111 81 126 155 7 34 19 85 26 114 14 49 22 92 31 168 3 18 10 62 16 100 6 38 11 111 11 163 1 86 14 200 42 352 6 33 8 113 4 189 -4 73 -7 165 -8 205 -1 58 -5 73 -18 76 -12 2 -23 -11 -34 -40z m-428 -1156 c19 -23 44 -69 56 -102 11 -33 37 -87 57 -121 20 -34 34 -64 32 -66 -7 -7 -104 123 -140 190 -32 60 -57 142 -43 142 2 0 19 -19 38 -43z"/>
		<path d="M3972 1522 c-99 -48 -207 -186 -259 -332 -107 -300 -101 -289 -137 -285 -43 3 -177 -12 -195 -23 -21 -13 -24 -52 -5 -80 15 -23 23 -25 100 -25 46 0 84 -4 84 -8 0 -4 -10 -43 -23 -86 -82 -289 -106 -356 -153 -417 -33 -44 -60 -45 -82 -3 -21 41 -52 43 -42 2 11 -47 41 -81 76 -84 27 -3 40 5 86 57 31 34 62 73 69 88 23 42 76 208 90 278 10 49 41 136 58 160 1 2 69 6 151 9 81 2 160 9 175 15 37 14 124 13 190 -3 47 -11 57 -17 62 -39 3 -15 22 -74 41 -133 80 -240 130 -319 202 -319 59 0 76 15 76 69 0 53 -24 65 -44 21 -13 -30 -48 -42 -75 -24 -19 13 -53 90 -117 270 -19 55 -38 108 -42 118 -7 16 1 18 80 17 48 0 93 0 99 0 6 1 36 39 67 86 46 69 53 87 42 99 -16 21 -52 21 -52 0 0 -22 -93 -141 -111 -141 -9 0 -15 10 -15 27 l0 27 -67 -7 -66 -7 -7 56 c-4 31 -7 141 -7 245 0 183 -15 312 -43 364 -26 49 -115 52 -206 8z m169 -26 c23 -23 26 -50 33 -315 3 -133 8 -260 12 -283 l5 -42 -161 1 c-213 2 -334 13 -341 31 -3 8 14 62 37 119 24 58 53 135 65 171 50 147 156 290 236 318 55 20 94 20 114 0z m-419 -677 c4 -6 -1 -10 -10 -10 -10 0 -14 4 -11 10 4 6 9 11 11 11 2 0 7 -5 10 -11z"/>
		<path d="M4463 1502 c-17 -32 -13 -84 12 -133 26 -53 54 -66 83 -40 27 25 25 44 -13 116 -43 81 -62 95 -82 57z"/>
	</g>
</svg>
