<?xml version="1.0" encoding="utf-8"?>
<svg xmlns="http://www.w3.org/2000/svg" height="165.708595" preserveAspectRatio="xMidYMid meet" version="1.0" viewBox="0 0 145.233541 165.708595" width="145.233541">
	<title>This is a drawing of a snake.</title>
	<g fill="#000000" stroke="none" transform="translate(-9.424315,179.874148) rotate(-360.00) scale(0.095238,-0.095238)">
		<path d="M777 1882 c-38 -6 -52 -23 -19 -23 34 0 61 9 61 22 0 5 -4 8 -8 8 -4 -1 -20 -4 -34 -7z"/>
		<path d="M826 1858 c-10 -17 -23 -29 -29 -25 -5 3 -12 -2 -16 -11 -4 -10 -14 -14 -30 -10 -17 4 -31 -3 -54 -26 -33 -35 -49 -42 -39 -17 10 27 -7 18 -49 -26 -22 -23 -52 -46 -67 -52 -15 -6 -27 -14 -26 -19 5 -31 -13 -54 -52 -65 -43 -12 -53 4 -15 25 24 13 25 16 8 16 -33 1 -89 -58 -89 -94 0 -17 4 -33 10 -37 16 -10 2 -26 -22 -26 -17 0 -19 3 -10 20 15 28 -3 37 -25 13 -20 -23 -50 -98 -86 -217 -27 -89 -27 -170 2 -225 14 -29 91 -95 109 -95 6 0 17 -10 24 -22 7 -12 36 -33 63 -47 39 -20 65 -25 129 -25 44 0 101 5 127 12 39 9 50 9 57 -3 7 -11 25 -11 104 5 58 12 111 17 137 13 32 -5 42 -3 42 8 0 21 -95 30 -173 17 -69 -11 -77 -10 -52 11 12 10 54 15 133 16 111 2 121 1 201 -33 47 -20 87 -36 90 -36 3 1 -7 11 -23 25 l-29 23 37 -4 c41 -5 89 -52 67 -66 -9 -5 -4 -19 16 -44 22 -29 28 -47 25 -77 -2 -21 -8 -41 -15 -43 -14 -5 -35 42 -35 77 0 35 -54 88 -88 88 -14 0 -49 10 -76 21 -32 14 -54 18 -60 12 -20 -20 2 -41 47 -48 145 -21 134 -14 152 -100 20 -97 -11 -318 -56 -405 -36 -68 -103 -121 -154 -121 -16 0 -27 -7 -31 -19 -6 -23 -55 -33 -127 -25 -35 4 -53 1 -59 -8 -6 -9 -20 -11 -49 -6 -58 11 -140 97 -140 147 0 33 23 162 37 211 4 14 -1 32 -14 48 -19 22 -30 25 -96 26 -41 1 -77 -3 -80 -8 -4 -5 -22 -6 -42 -2 -32 6 -36 4 -36 -16 0 -24 4 -26 80 -22 37 1 58 -3 70 -15 22 -22 50 -114 42 -141 -6 -24 10 -78 46 -157 22 -46 35 -60 80 -82 47 -24 61 -27 117 -20 35 4 84 9 110 10 25 2 50 10 54 18 7 11 12 11 22 1 16 -16 30 -17 30 -1 0 22 41 48 67 43 33 -6 84 21 111 60 27 37 18 42 -17 9 -30 -28 -33 -10 -4 23 12 13 19 27 16 32 -3 4 4 6 14 3 14 -4 27 7 47 38 29 43 37 74 18 74 -6 0 -10 -5 -10 -10 0 -6 -8 -8 -16 -4 -10 4 -16 -1 -16 -12 0 -10 -7 -25 -16 -33 -8 -9 -15 -12 -15 -6 0 5 7 30 15 54 9 25 16 61 16 81 0 25 5 35 17 35 11 0 15 -6 11 -16 -5 -11 -1 -15 12 -13 14 2 17 -4 14 -34 -3 -35 -3 -36 16 -20 11 10 25 15 32 13 16 -6 18 9 4 23 -5 6 -6 52 -1 109 9 107 5 128 -57 251 -31 61 -63 87 -114 93 -19 2 -46 8 -60 14 -40 15 -176 30 -243 25 -33 -2 -81 -11 -107 -20 -78 -26 -140 -31 -159 -12 -9 9 -46 19 -87 23 -61 7 -77 13 -119 49 -38 32 -54 55 -70 104 -20 58 -21 67 -7 106 8 24 21 50 27 58 24 28 -4 29 -28 0 -14 -16 -30 -28 -35 -28 -6 0 -12 -6 -15 -14 -3 -7 -8 -10 -12 -6 -4 4 4 25 18 47 13 23 28 50 33 62 7 20 8 20 22 0 14 -18 15 -18 16 -2 0 10 6 21 15 24 8 3 28 33 44 65 45 95 141 223 167 223 8 0 15 4 15 10 0 16 195 106 241 113 30 4 56 -5 132 -45 109 -57 139 -82 195 -164 32 -47 54 -66 105 -92 36 -18 74 -32 85 -32 21 0 25 20 8 38 -8 8 -1 13 27 19 49 9 88 0 147 -33 51 -28 92 -27 68 2 -7 8 -21 16 -30 16 -28 0 -64 30 -64 53 0 25 -27 26 -42 2 -6 -10 -11 -13 -11 -6 0 6 -14 15 -31 19 -17 3 -34 15 -37 27 -4 11 -11 20 -17 20 -5 0 -9 11 -9 24 0 17 -19 41 -58 74 -53 46 -63 50 -138 60 -56 7 -88 16 -103 31 -43 40 -184 72 -184 41 0 -6 -8 -4 -17 6 -23 22 -29 21 -50 -16z m252 -53 c52 -29 87 -41 118 -41 60 0 103 -24 111 -62 4 -17 16 -39 27 -49 19 -17 20 -20 3 -38 -9 -10 -26 -19 -37 -19 -28 0 -23 -20 7 -31 15 -6 27 -13 27 -16 0 -7 -34 6 -50 18 -9 7 -13 7 -13 -1 0 -27 -24 -7 -92 76 -64 78 -82 93 -176 143 -84 45 -100 57 -84 64 33 12 78 -1 159 -44z m-737 -374 c-9 -9 -29 -40 -44 -70 -30 -58 -44 -52 -24 12 16 48 50 87 69 79 12 -4 12 -8 -1 -21z m-78 -233 c-16 -39 -32 -33 -32 14 0 42 10 53 30 33 13 -13 13 -20 2 -47z m63 -32 c0 -6 -3 -11 -5 -11 -3 0 -8 5 -11 11 -4 5 -2 10 4 10 6 0 12 -5 12 -10z m0 -76 c0 -26 -4 -30 -24 -28 -13 2 -30 16 -39 32 -14 26 -14 30 5 51 l20 22 19 -23 c10 -12 19 -37 19 -54z m60 -36 c-4 -3 -13 -4 -20 -1 -9 4 -6 6 6 7 11 0 17 -2 14 -6z m21 -54 c6 -19 -34 -16 -51 4 -12 14 -10 16 17 13 16 -2 32 -10 34 -17z m142 -31 c28 0 56 -5 62 -12 7 -6 26 -12 42 -12 16 0 30 -4 30 -9 0 -14 -161 -23 -202 -12 -19 6 -44 17 -55 24 -19 14 -19 15 0 37 18 21 19 21 46 3 17 -12 45 -19 77 -19z m745 -310 c-10 -9 -13 -7 -13 13 0 20 3 22 13 13 9 -10 9 -16 0 -26z m50 -61 c0 -32 -15 -49 -27 -30 -3 6 -15 14 -26 18 -14 5 -17 12 -10 23 9 14 12 14 21 0 8 -12 10 -9 10 14 0 26 3 29 16 18 9 -8 16 -27 16 -43z m-721 -25 c12 -12 13 -26 4 -69 -10 -52 -28 -55 -28 -5 -1 11 -8 34 -16 51 -9 16 -16 32 -16 34 0 11 42 2 56 -11z"/>
		<path d="M1205 1716 c-7 -7 93 -99 108 -99 5 0 10 5 10 11 0 5 -7 10 -16 10 -16 0 -17 1 -21 41 -1 13 -9 28 -17 33 -16 11 -55 13 -64 4z"/>
		<path d="M1221 1642 c-6 -17 33 -66 45 -54 6 6 -23 71 -33 71 -3 0 -8 -7 -12 -17z"/>
		<path d="M622 1819 c-24 -16 -33 -51 -10 -40 7 3 21 9 31 12 19 7 25 31 11 39 -5 3 -19 -2 -32 -11z"/>
		<path d="M544 1754 c-7 -12 -17 -21 -21 -21 -4 0 -22 -15 -40 -32 -20 -19 -26 -31 -17 -31 8 0 17 6 20 14 3 8 28 25 54 38 46 22 57 41 29 50 -6 2 -18 -6 -25 -18z"/>
		<path d="M1559 1602 c-20 -15 -20 -16 7 -16 37 -1 63 10 56 22 -9 14 -41 11 -63 -6z"/>
		<path d="M102 339 c10 -29 25 -45 42 -45 11 0 10 7 -7 32 -25 34 -46 42 -35 13z"/>
	</g>
</svg>
