<?xml version="1.0" encoding="utf-8"?>
<svg xmlns="http://www.w3.org/2000/svg" height="92.639128" preserveAspectRatio="xMidYMid meet" version="1.0" viewBox="0 0 267.575010 92.639128" width="267.575010">
	<title>This is a drawing of shark teeth.</title>
	<g fill="#000000" stroke="none" transform="translate(-27.266928,102.151127) rotate(-360.00) scale(0.095238,-0.095238)">
		<path d="M3008 1037 c-29 -18 -94 -68 -144 -110 -51 -42 -107 -84 -125 -93 -18 -9 -54 -32 -81 -51 -70 -50 -154 -90 -188 -90 -27 0 -37 -11 -87 -92 -31 -50 -70 -120 -87 -155 -68 -140 -182 -221 -385 -273 -78 -20 -83 -19 -94 9 -20 52 27 164 143 343 29 43 86 137 129 209 42 72 98 162 123 200 43 64 45 69 25 72 -21 3 -151 -58 -232 -109 -21 -13 -63 -33 -95 -46 -114 -46 -126 -54 -147 -89 -17 -29 -34 -41 -79 -55 -32 -10 -68 -28 -81 -41 -25 -25 -154 -183 -209 -256 -19 -26 -70 -71 -113 -100 -76 -52 -80 -53 -166 -56 -53 -3 -92 0 -99 7 -6 6 -11 32 -11 57 1 56 27 104 180 338 64 98 117 184 117 191 0 30 -26 22 -109 -33 -48 -32 -90 -58 -94 -58 -3 0 -56 -29 -118 -64 -139 -79 -157 -86 -209 -87 -38 -1 -44 -5 -66 -45 -28 -51 -173 -171 -206 -172 -12 0 -38 -9 -57 -21 -19 -11 -44 -20 -55 -20 -31 -1 -81 -29 -87 -50 -18 -62 -19 -89 -5 -85 7 3 18 19 23 36 17 59 21 61 109 73 77 10 89 15 140 58 31 25 85 76 121 112 46 47 72 66 92 65 30 0 129 41 172 72 16 11 62 37 102 58 41 21 88 48 105 59 77 52 59 15 -85 -181 -75 -100 -98 -158 -98 -241 l0 -71 41 -21 c157 -80 388 73 568 375 19 31 41 56 50 56 45 0 97 25 154 73 34 28 83 59 110 68 26 9 90 40 141 69 103 57 101 56 101 42 0 -10 -27 -55 -197 -321 -128 -201 -161 -271 -168 -356 -5 -62 -3 -68 27 -101 l32 -36 77 19 c42 11 120 40 173 66 78 37 106 57 155 111 32 37 68 88 80 114 87 192 122 241 172 241 52 1 141 57 370 234 86 67 113 72 54 10 -136 -143 -214 -275 -266 -451 -26 -84 -28 -100 -16 -128 16 -40 92 -77 147 -72 53 4 51 25 -4 33 -26 3 -65 13 -86 22 -37 16 -38 17 -31 58 9 57 75 221 120 299 56 97 205 291 264 344 83 76 60 99 -37 37z"/>
	</g>
</svg>
