<?xml version="1.0" encoding="utf-8"?>
<svg xmlns="http://www.w3.org/2000/svg" height="155.280209" preserveAspectRatio="xMidYMid meet" version="1.0" viewBox="0 0 200.142863 155.280209" width="200.142863">
	<title>This is a drawing of a snake and a round egg.</title>
	<g fill="#000000" stroke="none" transform="translate(-18.797230,173.151982) rotate(-360.00) scale(0.095238,-0.095238)">
		<path d="M903 1816 c-112 -11 -198 -56 -226 -119 -17 -39 -40 -203 -38 -266 2 -61 56 -205 95 -254 18 -23 33 -46 33 -53 0 -19 32 -78 51 -92 9 -7 25 -13 35 -13 13 0 19 -9 19 -31 0 -16 7 -36 16 -43 11 -10 14 -23 9 -45 -5 -23 -1 -36 18 -56 24 -26 25 -33 25 -181 0 -152 -1 -154 -34 -217 -67 -127 -131 -165 -310 -179 -55 -4 -65 -1 -105 27 -41 30 -92 102 -92 131 0 7 -7 20 -17 27 -20 17 -11 100 14 127 25 29 13 56 -26 60 -28 2 -34 -1 -34 -19 0 -12 -4 -21 -9 -21 -12 0 -125 -159 -129 -183 -5 -27 30 -49 44 -27 5 8 10 25 10 37 0 21 29 57 45 57 4 0 8 -15 8 -34 0 -94 164 -226 286 -230 84 -3 137 10 231 58 122 61 187 133 212 235 25 104 25 173 -1 354 -4 23 -15 52 -25 63 -10 12 -31 46 -47 76 -20 38 -44 64 -73 81 -60 35 -74 54 -101 132 -23 68 -25 94 -17 173 2 23 -1 70 -7 104 -11 72 7 199 34 231 25 29 69 49 111 49 54 0 151 -49 172 -86 10 -16 26 -33 36 -36 10 -3 28 -24 39 -46 22 -43 109 -126 133 -126 8 0 14 9 14 22 0 17 4 20 18 14 10 -5 45 -8 76 -9 50 -1 59 2 62 20 2 11 9 24 16 28 29 18 -10 21 -54 4 -76 -29 -80 -29 -102 -12 -18 14 -19 18 -5 27 8 5 33 10 54 10 42 1 62 18 39 33 -8 5 -30 9 -49 9 -44 1 -96 23 -122 51 -10 12 -33 25 -50 29 -23 5 -29 11 -25 25 4 14 -7 24 -49 46 -73 36 -125 45 -208 38z m209 -95 c14 -11 23 -22 21 -25 -8 -7 -72 25 -72 36 0 17 23 12 51 -11z m-360 -6 c-4 -10 -10 -45 -14 -79 -3 -34 -11 -65 -17 -68 -16 -10 -40 30 -33 54 4 12 8 35 10 51 2 16 12 36 23 44 26 20 39 19 31 -2z m545 -121 c-23 -16 -67 -8 -84 15 -31 45 -19 51 40 21 32 -17 51 -32 44 -36z m-47 -47 c0 -15 -3 -15 -21 2 -12 10 -21 23 -21 28 0 5 9 4 21 -2 11 -6 21 -19 21 -28z m-571 -74 c-2 -10 -5 -5 -5 13 0 17 2 25 5 18 3 -7 3 -21 0 -31z m56 -33 c0 -12 -3 -12 -16 -1 -8 7 -15 23 -15 35 0 22 0 22 16 2 8 -11 15 -27 15 -36z m-25 -109 c-2 -7 -5 -1 -5 13 0 14 3 20 5 13 3 -7 3 -19 0 -26z m289 -832 c-2 -20 -8 -37 -13 -37 -11 0 -13 56 -3 67 15 14 21 5 16 -30z"/>
		<path d="M1807 1758 c-99 -37 -131 -59 -143 -97 -6 -18 -26 -49 -43 -68 -18 -18 -54 -67 -82 -107 -27 -41 -63 -93 -80 -116 -18 -23 -44 -61 -59 -84 -15 -23 -38 -58 -51 -78 -30 -45 -62 -176 -80 -324 -10 -83 -10 -131 -1 -205 7 -53 15 -125 18 -159 11 -118 55 -217 117 -264 32 -24 52 -30 123 -35 47 -4 99 -14 116 -23 39 -21 106 -9 174 30 76 45 241 185 236 200 -2 8 0 11 6 8 16 -10 51 19 91 75 47 65 62 93 47 83 -15 -9 -15 7 0 41 7 14 19 27 28 27 9 0 12 6 9 15 -4 9 -2 16 3 16 10 0 18 33 26 116 3 25 12 67 21 93 19 53 21 99 7 180 -6 32 -13 96 -16 144 -8 108 -41 203 -94 270 -10 12 -47 66 -84 121 -104 156 -168 187 -289 141z m149 -22 c19 -9 37 -22 41 -28 12 -19 -2 -29 -24 -17 -11 6 -50 13 -86 17 -63 5 -86 -1 -178 -47 -4 -2 -8 1 -8 6 0 18 151 84 197 85 14 1 40 -6 58 -16z m-21 -63 c30 -10 59 -22 65 -27 6 -4 23 -17 38 -28 61 -47 81 -92 95 -227 8 -69 14 -175 15 -236 1 -61 4 -141 8 -178 17 -160 17 -217 1 -292 -10 -42 -21 -79 -27 -82 -5 -3 -9 -13 -9 -22 0 -24 -165 -208 -209 -233 -48 -27 -223 -75 -273 -75 -20 0 -44 7 -53 15 -9 8 -42 25 -74 38 -77 32 -108 55 -126 90 -8 17 -21 38 -28 47 -21 25 -54 164 -58 241 -5 119 13 260 45 361 36 109 75 174 262 444 62 90 74 101 147 139 89 47 105 50 181 25z m268 -284 c38 -90 45 -132 51 -292 4 -106 1 -173 -7 -204 -7 -26 -15 -65 -18 -87 -3 -22 -10 -43 -16 -46 -6 -4 -9 -3 -5 2 3 6 2 48 -4 94 -5 46 -14 181 -20 299 -6 118 -13 231 -17 249 -10 51 11 42 36 -15z m-840 -980 c23 -41 114 -104 150 -104 19 -1 69 -50 59 -59 -4 -4 -33 -4 -65 0 -74 9 -121 48 -158 128 -14 32 -26 62 -26 67 0 22 17 9 40 -32z m475 -126 c0 -16 -134 -75 -161 -71 -27 4 -37 29 -11 30 11 0 52 11 93 25 40 14 74 26 76 26 1 1 3 -4 3 -10z"/>
	</g>
</svg>
