<?xml version="1.0" encoding="utf-8"?>
<svg xmlns="http://www.w3.org/2000/svg" height="737.704056pt" preserveAspectRatio="xMidYMid meet" version="1.0" viewBox="0 0 592.958304 737.704056" width="592.958304pt">
	<metadata>
Created by Potrace Professional 1.1m
</metadata>
	<g fill="#000000" stroke="none" transform="translate(-20.885198,749.617260) rotate(-360.00) scale(0.095238,-0.095238)">
		<path d="M227 7868 c-10 -11 -8 -138 3 -145 5 -3 13 -26 17 -50 9 -52 9 -413 0 -427 -3 -6 -6 -1000 -6 -2210 0 -1466 -3 -2209 -10 -2228 -16 -42 -15 -707 1 -743 10 -22 10 -40 0 -83 -10 -40 -10 -63 -2 -84 7 -19 12 -212 13 -546 1 -285 4 -672 7 -861 l4 -343 2889 -6 c1589 -3 2975 -8 3081 -11 l191 -6 5 24 c3 13 8 69 11 124 3 55 8 155 12 223 4 77 3 140 -5 168 -7 30 -13 484 -19 1394 -4 742 -7 1394 -6 1449 0 55 1 367 0 693 0 326 0 600 1 609 5 253 12 2990 8 3009 -7 27 -8 27 -83 22 -42 -4 -84 -6 -94 -6 -43 1 -151 2 -171 2 -451 -5 -5703 11 -5711 17 -14 12 -127 24 -136 15z m146 -129 c3 -6 1 -11 -5 -11 -6 0 -11 5 -11 11 0 5 2 10 5 10 2 0 7 -5 11 -10z m2578 -77 c54 -9 111 -22 126 -28 25 -11 25 -11 -6 -6 -17 3 -146 8 -286 12 -140 4 -254 11 -254 15 0 13 139 29 231 26 49 -1 134 -10 189 -19z m-394 -39 c4 -7 73 -10 182 -10 96 1 205 -3 243 -9 38 -5 83 -8 102 -5 70 11 234 -33 234 -62 0 -15 -135 -9 -176 7 -33 14 -113 17 -452 19 -239 2 -412 7 -412 13 0 5 17 14 40 21 22 7 49 17 61 24 25 15 169 16 178 2z m-1704 -37 c41 -16 14 -26 -73 -26 -96 0 -139 7 -139 21 0 5 8 11 18 14 24 8 170 1 194 -9z m1614 -41 c38 2 117 -4 175 -12 58 -9 114 -12 123 -9 27 10 131 -6 148 -22 10 -11 37 -14 102 -10 74 3 92 1 114 -16 39 -29 13 -34 -138 -26 -71 3 -158 7 -193 9 -35 2 -70 6 -76 10 -7 5 -21 3 -31 -2 -11 -6 -38 -8 -61 -6 -23 3 -147 9 -276 14 -128 5 -236 11 -239 14 -8 8 89 54 127 60 17 4 59 3 94 -1 34 -4 93 -6 131 -3z m-1499 -14 c28 -29 6 -30 -249 -19 -87 4 -138 2 -126 -3 22 -9 201 -22 339 -24 53 0 76 -4 73 -13 -5 -14 -114 -15 -336 -2 -140 8 -188 20 -134 34 11 3 22 14 25 25 5 19 17 20 200 17 134 -2 199 -6 208 -15z m2434 -51 c20 -17 29 -32 23 -38 -17 -17 -136 3 -165 28 -14 12 -26 25 -26 28 0 3 30 6 68 7 59 2 72 -1 100 -25z m1990 -18 c8 -11 42 -16 121 -19 95 -4 169 -21 154 -36 -4 -5 -185 -13 -422 -20 -75 -2 -160 -6 -189 -10 -43 -5 -48 -4 -27 5 15 6 34 17 42 25 10 9 71 18 162 26 81 6 149 14 153 18 3 4 -38 4 -91 0 -62 -5 -98 -3 -103 4 -3 6 4 11 18 11 13 0 31 5 40 11 22 15 128 4 142 -15z m-3103 -7 c38 0 139 -5 226 -11 120 -10 160 -16 170 -29 22 -27 17 -47 -10 -40 -14 3 -67 8 -119 11 -51 4 -139 9 -193 12 -55 4 -156 6 -224 6 -67 0 -123 3 -123 8 0 10 32 38 53 46 8 3 46 4 84 1 37 -3 98 -5 136 -4z m-1431 -15 c163 -2 203 -10 203 -37 0 -5 -36 -14 -79 -21 -62 -10 -83 -10 -102 1 -17 9 -77 12 -201 11 -185 -1 -198 2 -181 46 5 15 19 16 98 10 50 -4 168 -9 262 -10z m2142 -10 c77 1 140 -3 140 -8 0 -22 -45 -50 -92 -58 -27 -5 -101 -9 -162 -9 -95 0 -115 3 -134 20 -49 45 -13 74 73 60 20 -3 99 -5 175 -5z m431 -24 c18 -5 24 -14 24 -41 0 -19 -4 -37 -8 -39 -18 -11 -109 11 -124 30 -30 40 -20 57 34 57 28 0 61 -3 74 -7z m-1215 -31 c60 -3 129 -6 152 -5 23 1 110 -3 193 -10 149 -12 153 -13 199 -48 26 -20 72 -43 103 -52 31 -9 56 -18 56 -20 0 -7 -111 7 -171 21 -36 9 -143 17 -263 21 -110 2 -225 7 -254 10 -29 3 -101 7 -161 10 -59 3 -114 9 -120 15 -7 5 -22 12 -34 14 -18 3 -15 8 20 32 36 24 49 27 105 23 35 -2 114 -7 175 -11z m3531 -10 c14 -20 15 -27 5 -30 -12 -5 -173 -9 -683 -18 -97 -2 -176 -1 -176 2 0 19 57 30 185 36 149 7 213 10 450 22 75 3 139 8 141 11 14 14 61 0 78 -23z m-4781 -4 c110 1 123 -1 141 -21 14 -15 17 -25 9 -33 -21 -21 -257 -9 -286 16 -49 39 -86 41 -137 5 -27 -18 -102 -34 -168 -35 -35 -1 -37 1 -40 36 l-3 37 182 -3 c100 -1 236 -2 302 -2z m-178 -47 c-12 -15 -74 -19 -74 -5 0 14 16 20 50 20 31 0 35 -2 24 -15z m5008 -22 c43 -38 28 -43 -118 -39 -77 3 -149 5 -160 4 -12 0 -136 -3 -276 -6 -140 -3 -258 -7 -262 -7 -42 -7 -664 3 -660 10 12 20 114 26 375 23 45 -1 102 4 128 10 25 5 176 10 334 9 249 -1 543 8 553 17 10 9 68 -5 86 -21z m-3843 -5 c45 -8 250 -19 479 -26 59 -2 111 -6 116 -9 5 -2 54 -8 109 -12 54 -4 128 -11 162 -17 35 -6 155 -13 268 -16 356 -9 326 -5 318 -35 -10 -43 -14 -45 -59 -37 -24 5 -70 9 -101 10 -32 0 -65 4 -74 8 -9 4 -80 9 -157 12 -212 8 -295 13 -339 22 -25 5 -39 4 -39 -3 0 -14 137 -37 186 -31 21 2 55 -2 75 -9 21 -8 83 -14 138 -15 189 -3 288 -14 288 -31 0 -46 -165 -69 -283 -40 -42 10 -77 12 -103 7 -30 -7 -53 -4 -94 12 -31 12 -69 21 -87 21 -17 0 -67 12 -110 27 -60 21 -89 25 -121 20 -23 -4 -58 -8 -78 -8 -73 1 -408 13 -544 20 -125 6 -139 5 -139 -10 0 -10 -9 -17 -21 -17 -12 0 -21 6 -21 13 0 31 94 89 119 74 7 -5 114 -7 238 -5 181 2 235 0 268 -13 47 -17 217 -29 257 -18 l26 8 -29 6 c-17 3 -58 4 -93 2 -44 -3 -78 2 -115 17 -55 22 -198 28 -440 20 -55 -2 -108 1 -119 7 -17 10 -16 13 9 40 18 19 33 27 45 22 10 -4 39 -11 65 -16z m1457 11 c29 0 34 -4 34 -25 0 -35 -20 -49 -82 -56 -83 -10 -92 -2 -57 49 21 31 34 41 50 37 11 -3 36 -5 55 -5z m-2359 -32 c104 0 104 0 104 -26 l0 -26 -126 0 c-123 0 -126 0 -143 27 -15 22 -16 28 -4 35 8 5 25 5 39 0 14 -6 72 -10 130 -10z m-419 -17 c-8 -40 -35 -58 -85 -54 -41 2 -49 6 -52 27 -6 44 3 49 73 48 60 0 67 -2 64 -21z m181 -5 c11 -11 17 -23 12 -28 -8 -8 -174 -19 -174 -10 0 2 5 20 12 38 l11 34 60 -7 c35 -4 67 -15 79 -27z m4855 -14 c161 -1 161 -1 175 -27 8 -14 15 -48 18 -73 l3 -48 -100 -8 c-97 -9 -125 -5 -167 24 -9 6 -34 18 -57 27 -22 9 -37 19 -33 23 4 4 78 6 166 5 115 -2 153 1 135 8 -30 13 -105 14 -808 6 -472 -6 -552 -5 -571 9 -19 13 -25 13 -45 0 -23 -15 -203 -42 -213 -32 -3 3 13 22 35 42 46 42 80 48 201 37 113 -11 958 -3 995 9 18 5 48 7 69 5 20 -3 109 -6 197 -7z m-4528 -48 c31 0 36 -3 36 -26 0 -24 -4 -27 -45 -28 -108 -4 -160 2 -173 20 -7 9 -10 21 -5 25 8 8 114 18 137 12 8 -2 30 -3 50 -3z m-260 -29 l-3 -29 -110 -7 c-122 -8 -142 -1 -126 41 9 23 15 24 126 24 l116 0 -3 -29z m-271 -3 c0 -21 -22 -52 -37 -52 -17 0 -49 42 -41 54 8 13 78 11 78 -2z m4529 -11 c86 0 160 3 165 6 21 14 18 -15 -5 -40 -23 -25 -35 -28 -103 -30 -42 -1 -119 -1 -171 0 -52 2 -198 -2 -325 -7 -127 -6 -233 -9 -235 -7 -2 2 0 19 4 36 l7 33 217 0 c119 1 226 5 238 10 11 5 28 7 37 4 8 -3 85 -5 171 -5z m331 -9 c10 0 28 -8 39 -17 19 -15 16 -16 -43 -10 l-63 6 40 -15 c66 -25 59 -29 -38 -26 -51 1 -94 6 -97 10 -2 3 7 16 19 28 22 21 80 35 111 27 8 -2 22 -3 32 -3z m-3179 -11 c88 0 115 -3 125 -16 11 -13 9 -20 -15 -42 l-28 -26 -367 3 c-202 1 -367 5 -367 9 0 3 10 19 22 34 20 25 28 28 97 28 41 0 82 4 90 9 8 5 86 7 173 5 87 -3 209 -5 270 -4z m1986 -20 l-3 -25 28 28 c27 27 55 33 90 19 17 -7 16 -9 -2 -33 -19 -25 -25 -27 -136 -27 -64 -1 -119 2 -122 7 -10 16 16 49 40 53 13 2 43 3 66 3 38 0 41 -2 39 -25z m-3394 -17 c0 -44 -83 -75 -172 -64 -48 6 -47 6 -51 39 -3 23 1 26 55 31 118 13 168 11 168 -6z m294 -22 c0 -30 -3 -36 -17 -31 -9 3 -47 1 -84 -6 -78 -13 -98 -4 -98 45 l0 30 99 0 100 0 0 -38z m-555 6 c17 -9 20 -19 16 -43 -5 -22 -1 -36 14 -51 30 -30 26 -44 -13 -40 -31 3 -35 8 -52 65 -24 78 -15 96 35 69z m4917 -16 c20 -8 22 -42 3 -51 -8 -3 -8 -5 3 -4 32 1 43 -2 37 -13 -4 -6 -11 -8 -16 -5 -5 3 -12 1 -16 -5 -4 -6 -63 -10 -147 -10 -140 0 -141 0 -141 23 0 47 14 55 117 61 54 4 108 7 121 8 12 1 30 -1 39 -4z m324 -43 c-10 -28 -14 -30 -93 -37 -92 -7 -120 4 -120 50 0 24 3 25 102 28 57 1 107 0 112 -4 5 -4 4 -20 -1 -37z m-2811 23 c70 -17 -8 -43 -96 -32 -54 7 -74 17 -64 34 6 9 122 8 160 -2z m1244 -4 c0 -24 -31 -38 -47 -22 -8 8 -6 16 9 26 28 21 38 19 38 -4z m946 -7 c-7 -46 -18 -48 -275 -52 -367 -7 -579 -7 -585 -1 -4 4 7 20 23 37 29 30 31 30 145 31 64 1 118 2 119 4 2 1 132 2 290 2 281 0 287 0 283 -21z m-1011 -12 c16 -35 3 -45 -59 -45 -42 0 -44 1 -44 29 0 39 6 44 52 44 32 0 41 -5 51 -28z m-3383 -10 c9 -24 -35 -58 -69 -54 -17 2 -28 10 -31 24 -3 17 -1 18 10 8 21 -21 43 -17 36 7 -4 14 -1 21 12 25 33 8 35 7 42 -10z m292 5 c18 -9 26 -20 24 -33 -2 -18 -13 -21 -116 -23 -62 -2 -112 1 -112 6 0 5 8 18 19 29 15 15 36 20 81 21 33 0 62 3 65 6 8 8 8 8 39 -6z m1074 2 c139 1 147 -2 108 -52 -18 -24 -21 -25 -45 -9 -17 11 -31 13 -42 7 -11 -6 -35 -6 -63 0 -68 15 -580 12 -565 -3 8 -8 72 -12 187 -14 243 -2 455 -14 478 -25 10 -6 18 -19 18 -30 0 -31 -35 -45 -92 -36 -48 8 -169 11 -386 11 -57 0 -141 1 -186 3 -85 2 -103 -9 -51 -31 22 -9 57 -9 134 -2 57 6 108 8 113 4 6 -3 94 -7 195 -8 102 0 191 -5 199 -9 9 -6 3 -18 -22 -45 -33 -34 -38 -35 -82 -29 -26 4 -56 12 -66 17 -21 11 -211 13 -447 4 l-150 -5 23 39 c13 22 38 63 56 92 18 29 42 70 53 93 l21 40 242 -6 c133 -4 299 -6 370 -6z m3440 -77 c8 -6 6 -8 -4 -5 -9 3 -17 14 -18 25 -2 14 -1 15 4 4 4 -9 12 -20 18 -24z m-448 12 c32 2 35 0 35 -30 0 -17 -4 -32 -8 -33 -5 0 -207 -2 -450 -3 -243 -1 -447 -5 -453 -9 -28 -18 -197 43 -177 63 3 3 190 6 415 5 225 0 443 4 485 8 43 4 87 5 98 2 12 -3 37 -4 55 -3z m641 -21 c3 -23 -1 -28 -30 -34 -64 -13 -103 -8 -115 15 -20 37 4 52 78 49 61 -2 64 -4 67 -30z m-271 6 c8 -8 7 -16 -2 -28 -20 -26 -289 -32 -305 -7 -25 40 -6 46 148 46 90 0 152 -4 159 -11z m-4438 -14 c5 -5 6 -21 2 -36 -7 -26 -11 -28 -67 -26 -32 1 -93 -2 -135 -7 -53 -6 -76 -5 -76 3 0 6 5 14 11 18 6 4 16 18 21 32 8 21 17 25 70 28 78 4 163 -2 174 -12z m1262 10 c4 -6 2 -11 -4 -11 -6 0 -11 5 -11 11 0 5 2 10 4 10 3 0 8 -5 11 -10z m1023 -7 c62 -12 32 -25 -49 -20 -45 2 -83 5 -84 5 -2 0 -1 5 3 11 7 12 80 14 130 4z m-2723 -30 c21 -31 15 -42 -24 -45 -25 -2 -31 3 -41 34 -11 36 -11 37 18 37 20 0 36 -8 47 -26z m2063 -5 c0 -11 4 -23 10 -27 15 -9 13 -26 -3 -26 -23 1 -63 41 -56 58 9 24 49 20 49 -5z m451 10 c0 -6 -26 -10 -58 -10 -32 0 -57 4 -57 10 0 6 25 11 57 11 32 0 58 -5 58 -11z m-165 -28 c-8 -3 -19 -3 -27 0 -7 3 -1 5 14 5 14 0 20 -2 13 -5z m663 -14 c6 -6 18 -10 28 -10 10 0 23 -7 30 -16 11 -13 4 -14 -48 -10 -33 2 -65 9 -71 15 -6 6 -19 11 -30 11 -10 0 -18 7 -18 17 0 14 7 16 49 10 27 -4 54 -11 60 -17z m2148 1 c22 -42 14 -52 -45 -53 -30 0 -64 -2 -76 -3 -16 -2 -21 4 -24 31 -4 36 -9 34 111 43 13 1 27 -6 34 -18z m-1680 0 c0 -19 -18 -21 -38 -6 -19 14 -18 15 9 15 16 0 29 -4 29 -9z m1342 -10 c2 -6 -4 -24 -13 -41 -14 -29 -20 -31 -84 -33 -106 -3 -119 3 -144 67 -2 6 10 13 27 16 50 9 210 2 214 -9z m-267 -15 c3 -13 6 -28 6 -34 0 -10 -331 -19 -645 -18 -148 1 -269 17 -285 39 -8 10 -12 22 -10 26 2 3 212 7 466 9 l462 2 6 -24z m-4165 -5 c29 -6 30 -24 4 -56 -20 -25 -25 -25 -221 -29 l-200 -3 -10 28 c-22 55 -23 55 149 56 88 0 174 5 192 11 17 5 38 7 47 4 9 -3 26 -8 39 -11z m2314 2 c-37 -16 -50 -14 -38 5 4 6 22 11 40 11 l34 0 -36 -16z m-552 -4 c-4 -6 -11 -11 -17 -11 -5 0 -9 5 -9 11 0 5 7 10 16 10 9 0 13 -5 10 -10z m-47 -21 c0 -6 -10 -11 -21 -11 -11 0 -23 -5 -27 -10 -3 -6 -15 -11 -27 -11 -11 0 -20 -5 -20 -10 0 -6 -6 -11 -14 -11 -8 0 -23 -9 -33 -21 -17 -18 -17 -21 -1 -37 15 -16 19 -15 45 3 51 35 94 48 242 73 19 3 37 10 40 15 3 5 46 9 94 9 52 0 89 4 89 11 0 5 7 10 16 10 18 0 19 -9 6 -31 -7 -11 -29 -14 -84 -13 -70 2 -74 1 -74 -20 0 -22 3 -23 68 -16 41 4 68 3 68 -3 0 -6 -9 -13 -21 -17 -12 -3 -21 -13 -21 -21 0 -18 27 -21 37 -5 8 13 121 14 156 0 17 -6 29 -6 33 0 8 13 89 14 89 1 0 -5 -15 -12 -34 -15 -19 -3 -58 -11 -87 -18 -29 -6 -71 -14 -94 -17 -23 -3 -47 -10 -52 -15 -6 -5 -20 -10 -32 -10 -12 0 -44 -11 -73 -26 -28 -14 -65 -26 -81 -26 -16 0 -32 -5 -35 -10 -4 -6 -20 -11 -37 -11 -17 0 -33 -5 -37 -10 -3 -6 -22 -11 -40 -11 -19 0 -39 -4 -44 -9 -14 -12 -165 -64 -187 -64 -10 0 -27 -5 -39 -11 -11 -6 -30 -15 -41 -21 -12 -6 -30 -10 -41 -10 -11 0 -34 -8 -50 -16 -17 -9 -38 -16 -47 -16 -10 0 -24 -7 -31 -16 -11 -14 -11 -19 2 -32 15 -15 20 -14 55 5 21 12 55 22 75 22 20 0 37 5 37 11 0 5 8 10 18 10 21 0 125 35 136 46 3 3 15 7 26 7 10 0 19 4 19 9 0 5 18 12 39 15 95 14 212 44 227 59 6 6 22 11 35 11 13 0 26 4 29 9 6 10 51 20 135 29 27 3 50 10 50 16 0 5 18 9 41 9 23 0 44 5 48 11 3 5 25 10 47 10 23 0 63 8 90 17 46 15 57 15 150 -2 112 -21 105 -33 -17 -35 -36 -1 -65 -6 -65 -11 0 -6 -14 -11 -31 -11 -17 0 -34 -4 -37 -9 -3 -5 -24 -13 -45 -16 -22 -4 -66 -12 -97 -18 -32 -5 -98 -15 -147 -21 -49 -6 -92 -14 -95 -18 -3 -4 -17 -13 -31 -21 -15 -7 -34 -16 -42 -21 -42 -24 -64 -33 -78 -33 -8 0 -21 -8 -28 -17 -12 -14 -11 -18 1 -26 11 -7 -2 -16 -48 -37 -34 -15 -82 -43 -105 -62 -23 -18 -57 -42 -77 -52 -19 -10 -52 -34 -74 -54 -22 -20 -56 -39 -76 -42 -31 -5 -33 -4 -15 8 11 8 57 42 104 77 46 34 91 67 101 73 9 6 19 15 23 20 4 5 25 18 47 28 36 18 37 19 9 13 -17 -3 -37 -10 -43 -15 -8 -6 -15 -6 -19 1 -4 6 -17 11 -29 11 -17 0 -20 -5 -15 -26 5 -21 -1 -30 -38 -57 -25 -17 -72 -46 -106 -64 -35 -19 -92 -64 -132 -105 -41 -42 -75 -69 -82 -65 -6 4 -14 29 -17 55 -2 25 -6 53 -9 61 -2 9 27 24 90 44 106 35 159 58 194 85 l24 19 -28 7 c-19 4 -31 2 -37 -7 -4 -7 -19 -14 -33 -15 -13 -1 -54 -9 -90 -16 -62 -14 -66 -14 -90 8 -26 26 -38 29 -38 13 0 -6 -19 -29 -41 -51 -23 -22 -45 -52 -49 -66 -4 -13 -13 -28 -20 -32 -6 -5 3 -13 23 -20 19 -6 39 -20 45 -31 17 -31 11 -97 -11 -134 -12 -19 -21 -41 -21 -50 0 -8 -5 -15 -10 -15 -6 0 -11 -9 -11 -20 0 -12 -4 -23 -9 -26 -5 -4 -12 -17 -15 -30 -4 -13 -16 -61 -27 -107 -15 -60 -18 -90 -10 -103 15 -30 20 -156 7 -190 -12 -29 -10 -38 24 -104 5 -10 9 -32 9 -49 0 -17 5 -34 11 -38 5 -3 10 -37 10 -74 0 -45 6 -78 19 -101 30 -54 43 -121 47 -232 4 -111 18 -145 45 -108 8 11 12 24 9 28 -3 5 -6 53 -6 107 -1 88 -4 104 -36 172 -24 50 -36 90 -36 121 1 37 3 42 12 26 6 -10 12 -35 14 -54 2 -21 17 -53 36 -76 18 -21 33 -51 33 -66 0 -14 6 -53 14 -86 8 -35 10 -65 5 -75 -5 -9 -14 -41 -20 -72 -11 -58 -34 -86 -65 -78 -21 5 -50 -29 -50 -60 0 -15 5 -19 21 -14 36 9 28 -10 -82 -192 -22 -37 -63 -118 -85 -168 -10 -23 -11 -19 -9 30 2 40 -1 58 -11 61 -10 4 -13 -2 -11 -19 3 -22 -3 -27 -43 -38 -26 -8 -64 -17 -84 -21 -32 -6 -93 -51 -83 -60 16 -16 135 9 135 28 0 4 5 8 11 8 13 0 8 -86 -11 -178 -6 -32 -15 -80 -19 -106 -4 -26 -12 -53 -17 -61 -5 -8 -8 -132 -8 -275 1 -286 -1 -299 -60 -367 -18 -20 -32 -45 -32 -54 0 -10 -6 -19 -12 -22 -14 -4 52 -71 70 -71 14 0 71 -61 81 -87 8 -20 34 -24 45 -7 3 6 12 9 19 7 18 -7 49 12 49 30 0 8 6 15 15 15 30 0 100 125 100 178 0 37 25 61 46 44 11 -10 26 -4 69 26 31 20 89 54 130 73 83 40 165 102 165 126 0 22 -15 19 -76 -20 -31 -19 -68 -40 -82 -47 -56 -28 -185 -112 -194 -127 -10 -17 -27 -14 -20 4 4 9 1 16 -5 16 -7 0 -12 14 -12 31 0 17 -5 43 -12 57 -9 19 -9 31 -1 41 17 20 -1 291 -19 291 -13 0 -13 92 0 99 6 4 9 69 8 152 -2 95 2 150 10 160 6 8 14 33 17 56 8 67 42 147 65 151 31 6 46 27 40 55 -4 20 4 35 34 64 22 22 41 50 42 66 5 46 40 75 142 119 14 6 36 14 49 18 25 7 33 37 10 37 -7 -1 -38 -13 -68 -28 -57 -28 -78 -28 -55 1 8 9 11 27 7 43 -8 28 24 93 49 102 10 3 10 8 -1 21 -8 9 -12 34 -11 56 4 37 6 40 52 52 27 7 55 16 63 21 8 5 17 10 20 10 6 0 151 60 218 90 25 11 58 20 74 20 16 0 38 6 50 13 26 17 115 45 203 63 40 8 85 25 108 42 37 27 48 29 142 29 57 1 124 6 150 12 26 6 78 14 116 16 l68 5 -42 -42 c-47 -49 -76 -61 -179 -70 -127 -11 -267 -37 -393 -73 -144 -41 -338 -105 -384 -127 -29 -13 -74 -32 -99 -42 -26 -10 -57 -28 -69 -39 -21 -21 -21 -21 16 -14 33 6 104 36 182 77 53 28 44 4 -25 -65 -72 -71 -136 -173 -136 -214 0 -14 17 -48 37 -77 l37 -51 -27 -10 c-15 -6 -33 -10 -40 -10 -17 -1 -59 -31 -59 -43 0 -15 34 -12 77 6 46 19 84 20 103 2 33 -31 49 -39 65 -33 22 9 22 26 -1 26 -11 -1 -14 3 -8 9 6 6 38 4 79 -5 91 -20 112 -19 125 5 6 12 27 23 52 27 23 4 73 28 113 54 39 26 111 67 158 90 48 23 89 45 92 50 3 5 36 12 73 16 60 6 76 4 127 -19 50 -23 76 -49 49 -49 -13 0 -77 21 -105 34 -25 13 -85 -2 -117 -28 -9 -7 -47 -24 -84 -37 -38 -13 -76 -30 -85 -38 -22 -20 -106 -56 -129 -57 -11 0 -29 -12 -41 -27 -17 -22 -27 -25 -59 -21 -21 3 -30 3 -20 0 25 -8 13 -25 -18 -25 -14 0 -29 -6 -32 -12 -5 -8 -25 -9 -56 -5 -82 12 -88 12 -93 -2 -3 -8 4 -13 17 -13 31 0 27 -17 -7 -29 -16 -5 -45 -16 -65 -23 -21 -7 -48 -16 -61 -19 -13 -3 -23 -9 -23 -14 0 -5 -17 -9 -37 -9 -20 0 -37 -5 -37 -11 0 -6 -9 -10 -19 -10 -10 0 -24 -6 -30 -12 -7 -7 -37 -18 -68 -26 -82 -21 -135 -40 -135 -49 0 -4 -9 -8 -20 -8 -12 0 -24 -5 -27 -10 -4 -6 -16 -11 -27 -11 -11 0 -20 -4 -20 -9 0 -5 -11 -13 -24 -16 -22 -6 -23 -7 -4 -18 19 -12 25 -10 114 34 10 5 25 9 34 9 9 0 16 5 16 11 0 5 9 10 21 10 12 0 21 5 21 11 0 5 16 10 35 10 19 0 39 4 44 9 6 4 43 21 84 37 40 16 81 34 91 39 11 5 31 9 45 9 15 1 27 5 27 11 0 6 11 11 26 11 14 0 34 4 45 9 27 15 149 54 196 63 23 4 57 16 76 25 18 10 48 18 65 18 18 0 33 5 33 11 0 5 20 10 46 10 26 0 60 5 76 11 23 9 194 40 225 41 10 1 31 54 25 64 -4 6 -17 11 -29 11 -20 1 -21 2 -3 7 18 4 66 -6 132 -31 28 -9 68 -42 94 -75 16 -20 25 -19 -145 -17 -30 0 -70 -7 -88 -16 -18 -9 -48 -16 -67 -16 -19 0 -37 -5 -41 -10 -3 -6 -29 -11 -57 -11 -29 0 -55 -5 -58 -10 -4 -6 -30 -11 -59 -11 -28 0 -51 -4 -51 -9 0 -5 -16 -12 -35 -15 -51 -7 -156 -38 -190 -55 -17 -9 -37 -15 -45 -15 -8 0 -26 -8 -40 -17 -30 -20 -159 -67 -183 -68 -9 0 -30 -6 -45 -14 -16 -9 -38 -13 -49 -10 -11 3 -47 -9 -81 -27 -33 -18 -79 -36 -101 -39 -22 -4 -43 -11 -46 -16 -3 -5 -16 -9 -29 -9 -13 0 -28 -4 -34 -10 -5 -5 -36 -20 -67 -32 -32 -12 -69 -29 -82 -38 -42 -27 -15 -35 42 -13 30 12 69 25 87 30 17 5 62 21 99 36 37 15 72 27 78 27 5 0 24 11 42 25 33 24 60 33 137 44 23 3 50 10 59 15 21 12 97 37 139 46 16 4 29 11 29 16 0 5 9 7 21 4 11 -3 26 -1 34 5 7 6 35 14 62 18 28 3 53 11 56 17 3 5 17 10 31 10 14 0 26 4 28 8 5 13 125 26 125 14 0 -12 -27 -22 -58 -22 -14 0 -28 -5 -32 -11 -3 -6 -20 -10 -37 -10 -17 0 -31 -4 -31 -9 0 -5 -26 -15 -59 -23 -32 -8 -61 -21 -64 -28 -3 -8 -17 -14 -30 -14 -14 0 -25 -5 -25 -10 0 -6 5 -11 11 -11 6 0 7 -5 4 -12 -5 -7 -24 -9 -47 -6 -27 4 -53 -2 -90 -20 l-52 -25 55 5 c31 3 79 8 108 12 35 4 53 2 53 -5 0 -7 4 -12 10 -12 6 0 11 6 11 14 0 14 68 49 98 49 9 0 17 5 17 11 0 5 12 10 26 10 15 0 35 4 45 9 29 15 192 56 244 62 26 2 52 9 57 14 6 5 33 10 61 10 27 0 50 4 50 10 0 6 17 11 37 11 20 0 37 4 37 9 0 15 70 24 194 26 107 1 115 0 119 -20 2 -11 11 -26 19 -33 21 -17 10 -45 -17 -45 -32 0 -116 24 -116 33 0 5 16 9 35 9 19 0 44 7 55 15 19 15 16 16 -34 11 -30 -2 -64 -9 -76 -15 -11 -6 -38 -11 -59 -11 -21 0 -48 -6 -60 -12 -12 -7 -44 -14 -70 -15 -27 -2 -88 -17 -137 -34 -50 -17 -116 -37 -147 -45 -35 -9 -69 -25 -84 -41 -15 -15 -55 -36 -90 -47 -34 -10 -72 -22 -84 -27 -58 -21 -99 -31 -129 -31 -18 0 -35 -5 -39 -11 -3 -6 -25 -10 -48 -10 -22 0 -41 -5 -41 -10 0 -6 -10 -13 -21 -17 -12 -3 -19 -11 -15 -16 8 -13 54 -13 59 1 2 5 46 15 98 21 52 5 123 15 157 21 35 6 92 13 126 17 35 3 68 10 73 15 6 5 34 10 64 10 29 -1 58 4 63 9 6 5 29 12 52 15 39 5 67 12 216 53 31 9 97 17 147 18 95 1 157 16 157 38 0 24 19 14 25 -13 5 -18 -1 -43 -17 -75 l-24 -48 -9 39 c-9 38 -10 39 -52 33 -145 -19 -199 -27 -220 -34 -13 -4 -54 -11 -91 -16 -129 -18 -148 -22 -153 -31 -4 -5 -41 -10 -84 -10 -42 0 -80 -4 -84 -10 -3 -6 -29 -10 -57 -10 -29 0 -54 -5 -58 -10 -3 -5 -26 -13 -50 -17 -25 -4 -49 -11 -55 -15 -6 -4 -32 -13 -58 -21 -26 -7 -55 -17 -65 -23 -11 -5 -30 -9 -44 -9 -15 0 -29 -5 -33 -10 -3 -6 -20 -11 -37 -11 -17 0 -31 -4 -31 -8 0 -12 -63 -42 -101 -48 -18 -3 -58 -17 -89 -31 -31 -14 -78 -32 -104 -39 -67 -20 -105 -43 -105 -65 0 -24 63 -31 72 -8 2 6 12 10 23 10 11 0 21 5 21 11 0 5 14 10 31 10 20 0 43 10 61 26 15 15 38 26 51 27 13 0 26 4 30 10 3 6 17 11 30 11 13 0 29 5 35 11 8 8 13 6 18 -10 6 -18 13 -21 33 -16 30 7 33 -7 6 -31 -20 -19 -85 -31 -85 -16 0 5 -5 9 -11 9 -6 0 -10 -9 -10 -21 0 -12 -5 -21 -11 -21 -6 0 -11 -8 -11 -18 0 -37 -72 -97 -115 -97 -11 0 -21 -5 -21 -11 0 -6 -9 -10 -20 -10 -12 0 -24 -5 -27 -11 -4 -6 -14 -10 -22 -10 -17 -1 -78 -51 -78 -65 0 -5 19 -9 41 -9 35 0 49 7 89 47 31 31 56 48 73 48 25 0 27 -4 26 -54 0 -30 4 -57 10 -61 14 -10 45 -75 45 -97 0 -11 4 -19 10 -19 6 0 11 -7 11 -14 0 -8 21 -27 47 -44 27 -17 58 -39 70 -49 27 -24 89 -42 166 -50 50 -5 58 -10 61 -30 3 -18 -2 -24 -18 -24 -29 0 -75 -22 -68 -33 14 -23 126 12 156 50 6 7 39 15 74 18 34 3 51 3 37 0 -28 -5 -42 -20 -42 -43 0 -9 8 -11 26 -6 32 8 35 -11 5 -27 -20 -11 -30 -43 -13 -42 13 0 86 27 93 34 4 4 23 7 42 8 19 0 37 4 41 10 3 6 42 10 86 9 52 0 82 4 87 12 4 7 17 10 28 7 17 -4 17 -5 -4 -12 -13 -5 -24 -12 -24 -17 0 -5 -9 -9 -20 -9 -11 0 -22 -6 -24 -13 -3 -6 -21 -11 -41 -11 -39 2 -125 -26 -125 -41 0 -5 19 -9 43 -9 25 0 40 -4 36 -10 -4 -6 -16 -11 -27 -11 -48 0 -3 -31 69 -47 30 -7 31 -8 10 -23 -21 -15 -21 -15 0 -30 11 -9 40 -15 64 -15 28 0 53 -8 69 -21 l25 -20 -37 -5 c-20 -3 -69 -8 -108 -11 -39 -3 -78 -12 -85 -19 -8 -8 -25 -22 -37 -32 -22 -18 -22 -18 -22 12 0 22 -6 33 -21 38 -15 4 -21 16 -21 38 0 44 -37 93 -69 93 -14 0 -25 5 -25 11 0 5 -30 10 -69 10 -38 0 -68 5 -68 11 0 25 -238 7 -296 -23 -11 -5 -26 -9 -35 -9 -8 0 -16 -4 -16 -8 0 -10 -60 -45 -79 -44 -8 0 -15 -5 -15 -10 0 -9 -13 -12 -115 -27 -74 -11 -107 -31 -180 -106 -37 -39 -78 -81 -91 -94 -37 -39 -68 -108 -74 -164 -2 -28 -9 -54 -14 -57 -5 -3 -9 -17 -9 -31 0 -14 -5 -28 -12 -32 -6 -4 -9 -21 -7 -38 3 -17 0 -33 -5 -37 -12 -7 -92 78 -91 99 0 7 -5 14 -11 14 -6 0 -10 9 -11 20 0 11 -8 26 -18 34 -22 16 -97 117 -97 131 0 5 -10 21 -21 35 -11 14 -21 39 -21 55 0 16 -5 29 -10 29 -6 0 -11 12 -11 26 0 27 -31 103 -45 109 -4 2 -7 12 -7 23 0 11 -5 21 -11 21 -6 0 -10 11 -10 26 0 14 -5 26 -11 26 -6 0 -10 7 -10 15 0 17 -19 53 -50 97 -13 18 -24 41 -24 50 0 9 -5 17 -10 17 -6 0 -11 11 -11 26 0 14 -5 26 -10 26 -6 0 -11 9 -11 21 0 12 -4 21 -8 21 -5 0 -15 16 -22 37 -7 20 -20 43 -28 51 -8 8 -27 41 -42 74 -15 33 -34 62 -42 65 -9 4 -15 15 -15 25 0 10 -8 24 -16 32 -9 7 -16 19 -16 27 0 8 -5 15 -10 15 -6 0 -11 7 -11 15 0 9 -4 24 -9 35 -32 61 -60 172 -82 320 -4 21 -10 39 -15 39 -5 0 -9 16 -9 36 0 20 -5 39 -10 42 -9 6 -16 35 -29 127 -3 23 -11 45 -18 50 -8 5 -6 11 7 19 23 13 25 81 3 90 -9 3 -20 20 -26 39 -17 55 -35 218 -32 295 2 64 -2 352 -7 507 -5 114 -3 160 5 160 8 0 12 24 12 65 0 59 -1 63 -15 45 -9 -12 -16 -30 -17 -42 -1 -11 -3 -15 -6 -8 -9 22 17 98 34 98 9 0 13 -5 9 -11 -3 -6 -2 -10 4 -10 6 0 14 9 17 21 4 11 11 21 16 21 6 0 26 24 46 54 29 42 35 58 27 73 -9 16 -7 20 15 20 16 0 32 10 44 28 10 16 27 38 37 49 27 28 52 85 41 89 -24 8 -9 24 16 18 24 -6 58 11 58 30 0 3 8 15 18 26 54 58 76 86 76 96 0 5 5 10 11 10 5 0 10 10 10 21 0 28 51 105 69 105 8 0 18 7 22 15 5 8 17 16 28 18 10 2 17 6 15 10 -12 24 224 262 260 262 9 0 16 4 16 10 0 6 7 11 15 11 9 0 16 3 16 7 0 5 24 22 53 40 28 17 52 35 52 39 0 4 7 8 16 8 8 0 16 4 16 9 0 5 16 18 37 29 21 11 47 24 58 30 11 6 20 14 20 18 0 5 5 9 12 9 6 0 24 8 39 19 15 11 40 22 56 26 15 4 35 14 44 23 8 8 22 16 29 16 8 0 23 7 35 16 11 8 29 15 39 15 10 0 19 5 19 11 0 5 9 10 20 10 12 0 24 5 27 11 4 5 21 10 38 10 17 0 31 -5 31 -10z m-1570 -32 c3 -6 2 -10 -4 -10 -6 0 -14 4 -17 10 -4 6 -2 11 4 11 6 0 13 -5 17 -11z m2116 -6 c-1 -13 -61 -29 -82 -21 -21 8 -11 17 31 27 41 10 52 8 51 -6z m596 5 c47 -16 42 -28 -16 -34 -28 -3 -63 -8 -79 -12 -23 -6 -29 -4 -29 9 0 12 10 17 32 17 18 0 34 7 38 16 7 19 12 19 54 4z m1924 -36 c0 -44 -2 -47 -29 -48 -16 -1 -55 -3 -86 -5 -53 -4 -56 -3 -50 19 4 13 7 34 7 47 0 26 15 32 97 33 l61 2 0 -48z m-1260 13 c20 0 89 4 154 8 80 6 119 5 119 -2 0 -6 -18 -14 -40 -18 -22 -4 -65 -20 -97 -35 -46 -21 -73 -26 -132 -26 -40 1 -78 2 -84 4 -5 1 -41 -2 -80 -6 -48 -6 -75 -4 -89 4 -17 11 -15 12 13 7 31 -5 57 8 57 27 0 5 -17 9 -37 9 -35 0 -36 1 -25 22 11 21 16 22 108 14 53 -4 112 -8 133 -8z m690 -24 c13 -20 24 -39 24 -42 0 -4 -48 -5 -105 -2 -96 5 -108 8 -141 36 -20 16 -37 33 -37 37 -1 4 52 7 117 7 l119 0 23 -36z m108 11 c26 -28 16 -35 -17 -11 -29 23 -36 20 -36 -12 l0 -29 -21 26 c-30 38 -26 53 14 53 24 0 43 -9 60 -27z m31 22 c0 -3 -5 -8 -10 -11 -6 -4 -11 -2 -11 4 0 6 5 12 11 12 5 0 10 -3 10 -5z m-3422 -24 c98 -5 111 -8 98 -21 -8 -8 -15 -19 -15 -24 0 -15 -73 -31 -136 -31 -32 0 -91 7 -131 15 -39 9 -76 13 -80 10 -5 -3 -87 -6 -183 -8 -183 -3 -189 -2 -156 44 15 22 23 24 70 19 30 -3 130 -2 222 2 93 5 175 7 183 5 8 -2 66 -7 128 -11z m2067 -9 c2 -3 1 -7 -3 -11 -9 -10 -59 5 -59 18 0 11 50 5 62 -7z m-3015 -22 c2 -12 -5 -30 -14 -39 -14 -14 -33 -16 -119 -11 -77 5 -117 3 -168 -11 -37 -9 -69 -15 -71 -13 -3 3 -8 22 -11 43 l-6 38 167 0 c91 0 173 5 182 10 22 15 36 8 40 -17z m1175 5 c-4 -8 -6 -6 -7 6 0 11 2 18 6 14 3 -3 4 -12 1 -20z m1929 -18 c9 -14 68 -43 89 -43 9 -1 33 -10 53 -20 l36 -19 -122 3 c-68 1 -127 6 -133 9 -18 11 -13 24 10 30 12 3 25 16 28 28 6 22 29 29 39 12z m1097 -33 c89 1 92 0 121 -31 l31 -31 -103 0 c-95 0 -107 2 -139 26 -20 15 -33 32 -29 37 3 6 11 7 17 4 6 -4 51 -6 102 -5z m600 1 c0 -5 -5 -22 -11 -37 -9 -24 -15 -26 -71 -26 -33 0 -76 -5 -94 -10 -44 -13 -52 1 -24 41 18 25 31 31 71 34 101 8 129 8 129 -2z m-4032 -20 c14 -5 58 -8 97 -8 39 1 71 -1 71 -5 0 -4 -18 -18 -39 -30 -34 -20 -49 -22 -123 -17 -105 7 -115 7 -340 1 l-182 -5 19 31 c23 41 46 46 159 40 50 -3 104 -2 121 1 42 9 184 3 217 -8z m2717 -3 c18 -10 26 -10 36 0 14 14 71 17 71 3 0 -4 -14 -21 -31 -38 -24 -23 -37 -28 -58 -22 -21 5 -26 11 -21 27 4 14 0 21 -15 26 -12 4 -26 4 -31 1 -8 -5 -103 -10 -136 -7 -8 0 -12 5 -9 9 9 14 168 15 194 1z m-3514 -47 c-2 -17 -6 -32 -8 -35 -11 -11 -133 -18 -232 -13 l-108 5 0 30 c0 17 1 31 3 31 7 4 232 15 286 14 l63 -2 -4 -30z m3474 -4 c0 -7 -14 -9 -39 -4 -55 10 -56 15 -5 15 24 0 44 -5 44 -11z m1006 -31 c50 -11 75 -11 105 -3 46 14 212 25 212 14 0 -4 -10 -18 -21 -31 -21 -22 -27 -22 -304 -22 l-282 0 -16 25 c-9 13 -15 26 -13 28 11 10 261 2 319 -11z m-3704 -3 c25 0 56 1 67 4 32 6 30 -16 -4 -41 -34 -25 -85 -31 -191 -21 -33 3 -83 1 -111 -4 -28 -5 -120 -11 -205 -13 l-154 -3 43 41 43 42 101 -6 c55 -4 139 -2 185 3 46 5 105 7 131 3 26 -3 69 -5 95 -5z m2711 -4 c-7 -3 -19 -3 -26 0 -7 2 -1 5 13 5 14 0 20 -3 13 -5z m-216 -32 c-8 -8 -38 10 -32 19 3 6 12 5 21 -2 8 -7 13 -15 11 -17z m-3262 6 c0 -7 12 -21 26 -32 40 -31 33 -44 -18 -36 -26 3 -80 -1 -127 -10 -45 -8 -115 -15 -155 -15 -71 0 -96 -13 -49 -25 36 -10 126 -8 183 3 113 22 324 42 508 48 253 9 409 9 417 1 3 -4 1 -6 -5 -6 -6 0 -22 -12 -37 -27 -26 -26 -27 -26 -266 -31 -133 -3 -271 -5 -309 -5 -69 0 -179 -15 -236 -32 -18 -6 -92 -12 -166 -15 l-134 -5 7 81 c4 44 9 83 12 86 2 3 64 6 137 6 73 1 145 6 160 13 34 15 52 15 52 1z m3370 -3 c6 -8 21 -12 32 -10 21 6 104 -64 91 -77 -4 -4 -32 6 -62 22 -30 16 -68 36 -84 45 -16 8 -27 20 -23 25 9 14 32 12 46 -5z m-653 -21 c47 -29 -55 -62 -118 -38 -45 17 -62 33 -46 43 16 10 146 6 164 -5z m370 -12 l26 -15 -26 -1 c-14 -1 -31 -1 -37 1 -61 14 -77 16 -102 9 -16 -4 -32 -3 -35 2 -3 5 -10 7 -16 4 -5 -4 -9 -1 -9 5 0 17 167 13 199 -5z m-471 -77 c45 -21 116 -85 94 -85 -6 0 -13 4 -17 10 -3 6 -12 10 -19 10 -24 0 29 -31 55 -32 22 0 24 -2 8 -8 -17 -7 -16 -10 9 -33 27 -25 35 -40 52 -92 12 -41 -11 -26 -29 18 -12 32 -27 47 -67 67 -51 26 -137 98 -128 107 3 2 21 0 41 -5 30 -8 33 -7 17 3 -11 7 -39 28 -62 47 -32 26 -45 31 -51 21 -7 -11 -11 -11 -22 -1 -10 11 -10 14 1 14 9 0 11 7 6 23 -7 21 -4 21 28 -9 19 -18 57 -43 84 -55z m2119 76 c0 0 -11 -14 -25 -30 l-25 -29 -140 12 c-83 7 -165 8 -200 3 -77 -11 -122 -5 -135 20 -9 16 -5 19 24 22 30 3 501 5 501 2z m-2341 -24 c0 -6 -8 -12 -18 -15 -14 -3 -12 -5 6 -6 14 -1 22 -6 20 -14 -3 -8 -26 -14 -61 -15 -32 -1 -47 1 -34 3 12 3 29 13 36 22 12 14 11 16 -7 10 -63 -19 -111 -25 -107 -14 2 7 24 15 49 20 25 4 48 10 51 13 10 10 65 6 65 -4z m1659 -1 c0 -6 -2 -10 -5 -10 -2 0 -7 4 -11 10 -3 6 -1 11 5 11 6 0 11 -5 11 -11z m-1596 -10 c0 -6 -5 -11 -10 -11 -6 0 -11 5 -11 11 0 5 5 10 11 10 5 0 10 -5 10 -10z m-381 -7 c-3 -3 -12 -4 -20 -1 -8 4 -6 6 6 7 11 0 18 -2 14 -6z m1809 -4 c0 -6 -5 -10 -10 -10 -6 0 -11 4 -11 10 0 6 5 11 11 11 5 0 10 -5 10 -11z m-304 -26 c0 -2 -5 -7 -11 -11 -6 -3 -10 -1 -10 5 0 6 4 11 10 11 6 0 11 -2 11 -5z m1060 -4 c0 -31 -36 -37 -191 -35 -151 3 -205 12 -192 34 8 13 383 13 383 1z m-1104 -53 c-18 -29 -34 -28 -26 2 3 13 6 30 6 39 0 13 3 12 17 -2 14 -14 15 -20 3 -39z m453 31 c0 -6 -5 -11 -11 -11 -6 0 -8 5 -5 11 4 5 9 10 11 10 3 0 5 -5 5 -10z m-1063 -13 c25 -25 13 -32 -41 -25 -39 5 -57 3 -62 -6 -7 -10 -14 -10 -37 0 -15 7 -26 15 -23 18 4 4 82 18 140 24 6 1 16 -4 23 -11z m121 -2 c24 -18 23 -27 -2 -27 -31 0 -53 11 -53 27 0 18 30 18 55 0z m-2355 -14 c-1 -5 -7 -17 -15 -28 -20 -25 -174 -45 -246 -31 -34 7 -70 6 -112 -2 -44 -9 -81 -10 -126 -2 -96 15 -156 11 -212 -13 -44 -20 -71 -23 -208 -24 -86 0 -156 3 -155 6 2 4 3 16 3 28 0 20 7 21 129 21 100 1 146 6 211 24 76 21 108 23 407 26 178 1 324 -1 324 -5z m1888 -47 c19 -16 39 -29 44 -29 6 0 11 -5 11 -10 0 -9 -28 -15 -252 -54 -168 -29 -210 -39 -342 -84 -63 -21 -144 -47 -178 -57 -35 -11 -82 -25 -105 -32 -67 -21 -119 -27 -126 -17 -9 15 6 21 60 24 27 1 51 8 54 15 3 7 18 15 35 18 50 9 155 40 166 49 6 5 24 11 42 14 34 7 79 18 178 44 35 9 82 19 104 21 64 7 195 41 195 51 1 11 -74 -1 -129 -21 -23 -8 -59 -14 -81 -14 -22 0 -43 -4 -46 -10 -4 -5 -33 -13 -67 -17 -33 -4 -76 -14 -95 -22 -20 -7 -43 -14 -53 -14 -19 0 -164 -42 -289 -83 -58 -20 -85 -34 -91 -50 -16 -44 2 -49 107 -25 144 33 203 47 314 78 183 51 244 64 383 82 46 6 92 15 102 20 10 5 38 10 63 10 25 0 62 4 82 10 32 9 39 8 55 -13 34 -45 26 -50 -81 -50 -54 0 -102 -4 -105 -10 -3 -5 -28 -13 -56 -16 -27 -4 -68 -11 -91 -16 -23 -6 -56 -13 -73 -15 -17 -3 -35 -10 -41 -16 -6 -6 -21 -11 -34 -11 -13 0 -53 -9 -90 -21 -63 -20 -80 -26 -138 -53 -13 -6 -47 -17 -76 -25 -29 -9 -71 -22 -94 -31 -23 -9 -58 -16 -76 -17 -19 0 -34 -5 -34 -10 0 -6 -18 -13 -40 -17 -22 -4 -44 -11 -50 -16 -7 -5 -35 -14 -64 -20 -62 -13 -127 -50 -113 -64 6 -5 33 -1 67 10 32 11 84 26 116 33 31 7 112 31 178 52 66 22 142 43 167 47 26 4 61 14 79 22 34 15 238 67 347 87 76 14 332 46 336 42 2 -2 6 -18 10 -36 9 -40 -6 -46 -109 -46 -38 0 -88 -5 -111 -12 -23 -6 -54 -13 -68 -14 -38 -4 -126 -27 -166 -43 -19 -8 -46 -15 -59 -15 -14 0 -28 -4 -32 -10 -3 -5 -33 -15 -66 -22 -33 -7 -65 -16 -71 -20 -11 -9 -13 -9 -136 -42 -114 -30 -425 -136 -454 -154 -13 -8 -28 -14 -34 -14 -6 0 -36 -12 -66 -27 -64 -31 -69 -32 -47 -8 9 10 24 44 35 76 10 31 25 64 33 73 41 47 65 97 56 115 -12 22 35 104 76 130 14 10 29 26 32 37 9 27 130 97 213 123 28 9 72 23 98 31 26 8 70 18 98 22 27 3 65 13 84 20 18 8 59 18 91 22 32 4 70 13 84 21 14 7 56 17 93 21 37 4 87 16 111 27 51 23 83 17 130 -24z m1939 35 c15 -26 -130 -31 -173 -7 -24 14 -19 15 70 16 53 0 99 -4 103 -9z m-2178 -12 c0 -6 -8 -10 -17 -10 -9 0 -13 4 -10 10 4 6 11 11 17 11 5 0 10 -5 10 -11z m-483 -25 c0 -2 -8 -7 -16 -10 -9 -4 -16 -2 -16 4 0 5 7 10 16 10 8 0 16 -2 16 -4z m1762 -20 c7 -13 46 -42 86 -64 40 -23 82 -51 94 -64 25 -27 64 -140 51 -148 -5 -3 -9 1 -9 10 0 9 -12 33 -26 54 -14 21 -23 45 -20 53 7 16 -52 47 -89 47 -24 0 -85 48 -85 67 0 7 -10 22 -21 32 -12 10 -18 23 -15 28 9 15 21 10 34 -15z m-1531 -7 c0 -6 -11 -11 -24 -11 -19 0 -21 2 -8 11 20 13 32 13 32 0z m-1460 -12 c0 -6 -8 -25 -17 -41 -15 -24 -27 -30 -76 -37 -33 -4 -81 -6 -106 -4 -26 2 -93 4 -147 4 -55 0 -103 4 -107 9 -3 4 -4 20 -1 34 4 20 11 25 38 25 189 -2 332 3 358 10 44 13 58 13 58 0z m2184 -10 c0 -6 -5 -10 -10 -10 -6 0 -11 7 -11 16 0 9 5 14 11 10 5 -3 10 -11 10 -16z m-857 5 c25 -10 21 -22 -8 -30 -14 -3 -33 -9 -42 -12 -22 -9 -22 10 0 32 18 18 26 19 50 10z m1356 -4 c8 -13 -34 -13 -63 0 -17 7 -14 9 18 9 21 1 41 -4 45 -9z m-3302 -21 c0 -6 11 -14 26 -17 40 -10 12 -36 -39 -36 -23 0 -50 -5 -61 -11 -34 -17 -36 10 -4 43 28 30 78 43 78 21z m2991 -14 c13 -34 4 -41 -48 -35 -46 5 -76 17 -43 17 9 0 19 9 22 21 8 30 57 29 69 -3z m-3107 -1 c0 -7 -10 -23 -22 -34 -19 -17 -39 -20 -142 -20 l-119 0 0 29 c0 28 1 29 39 24 22 -3 75 -1 118 4 117 13 126 13 126 -3z m3596 -17 c-3 -6 -17 -10 -29 -10 -19 0 -20 2 -7 10 20 13 45 13 36 0z m-3433 -54 c11 -17 -17 -61 -42 -67 -11 -2 -56 -7 -97 -10 -83 -6 -94 2 -58 46 29 34 181 59 197 31z m278 0 c64 -7 108 -7 155 3 36 7 69 9 73 5 5 -5 -11 -25 -34 -45 -38 -33 -46 -35 -84 -28 -49 8 -211 11 -241 4 -16 -4 -22 0 -25 19 -7 54 8 58 156 42z m-508 -22 c3 -4 -4 -21 -16 -38 -23 -32 -66 -46 -102 -32 -11 4 -48 5 -82 2 -56 -6 -61 -5 -55 12 4 10 10 29 13 41 5 23 11 23 120 22 64 0 118 -4 122 -7z m3561 -21 c7 -7 13 -18 13 -26 0 -11 -7 -11 -32 2 -17 9 -29 21 -25 27 8 14 29 13 44 -3z m-211 -24 c21 -9 36 -18 33 -21 -13 -13 -126 -26 -179 -20 -62 7 -78 25 -42 46 28 16 145 13 188 -5z m819 -18 c-3 -7 -5 -1 -5 13 0 14 2 20 5 13 3 -7 3 -19 0 -26z m-3968 -46 c-13 -39 -15 -41 -71 -47 -32 -4 -81 -10 -109 -15 l-51 -8 7 41 c4 22 10 43 12 45 2 2 42 6 89 8 47 3 95 9 108 13 13 5 24 8 26 7 1 -2 -4 -21 -11 -44z m443 28 c0 -3 -8 -17 -19 -30 -17 -23 -27 -25 -139 -27 -67 -2 -126 -6 -133 -10 -19 -12 -24 9 -10 44 l12 34 145 -3 c79 -2 144 -6 144 -8z m2396 -104 c10 -44 19 -91 19 -103 0 -13 12 -36 25 -53 32 -38 53 -118 46 -171 -5 -40 5 -58 17 -29 3 7 6 3 6 -10 1 -13 -4 -24 -9 -24 -6 0 -11 -18 -11 -40 0 -22 -3 -44 -7 -48 -8 -8 -13 -25 -21 -77 -3 -19 -13 -40 -21 -47 -14 -11 -15 -7 -9 29 4 23 14 57 23 76 13 28 14 58 8 147 -6 96 -11 116 -32 142 -14 16 -25 38 -25 48 0 10 -7 34 -17 52 -9 18 -18 58 -19 88 -2 31 -7 74 -11 97 -12 71 15 15 38 -77z m-3088 49 c0 -31 -4 -33 -66 -30 -21 1 -66 -3 -98 -10 -72 -15 -87 -6 -63 41 l17 33 105 -2 105 -2 0 -30z m600 -41 c-54 -48 -111 -81 -146 -83 -117 -7 -134 -5 -137 11 -6 31 44 71 94 75 78 6 197 4 189 -3z m-380 -15 c0 -9 -13 -31 -29 -48 -26 -27 -37 -31 -99 -33 -85 -3 -104 9 -78 49 14 21 26 27 59 27 22 0 44 5 47 11 4 5 28 10 53 10 36 0 47 -4 47 -16z m3812 -6 c0 -12 5 -31 11 -43 6 -11 9 -23 7 -25 -7 -7 -50 8 -45 17 3 4 1 20 -4 34 -11 28 -6 39 17 39 7 0 14 -10 14 -22z m-85 -16 c21 -20 10 -26 -26 -15 -17 6 -49 13 -71 16 -21 4 -39 11 -39 17 0 16 117 0 136 -18z m137 17 c0 -6 -5 -10 -11 -10 -6 0 -8 4 -5 10 4 6 9 11 11 11 3 0 5 -5 5 -11z m-4100 -12 c4 -4 3 -21 -3 -37 -11 -34 -37 -42 -164 -47 -93 -4 -95 -3 -69 65 10 25 13 26 120 26 60 0 112 -3 116 -7z m3466 -19 c40 -17 70 -32 67 -33 -3 -1 -68 -3 -145 -5 l-139 -4 -10 27 c-6 15 -8 31 -5 36 4 6 41 10 83 10 63 0 91 -6 149 -31z m-1949 -14 c0 -7 -12 -38 -26 -69 -15 -31 -27 -64 -27 -73 0 -10 -7 -30 -15 -44 -15 -25 -15 -26 -16 -3 0 42 23 131 44 167 21 36 40 46 40 22z m1531 -14 c3 -22 -2 -23 -89 -29 -123 -9 -233 -26 -329 -51 -43 -11 -93 -23 -110 -25 -50 -9 -62 -14 -52 -25 10 -10 41 -4 141 27 32 10 81 19 109 21 28 2 56 8 63 14 6 6 37 11 69 10 l58 -1 -47 -10 c-26 -5 -73 -15 -105 -21 -80 -15 -231 -50 -262 -60 -15 -5 -53 -15 -84 -22 -32 -7 -99 -26 -148 -42 -50 -17 -105 -32 -122 -35 -38 -6 -94 -23 -163 -50 -27 -11 -56 -20 -64 -20 -19 0 -33 -31 -15 -32 7 0 -1 -8 -17 -17 -22 -11 -34 -13 -42 -4 -25 25 -67 12 -101 -31 -28 -35 -31 -43 -17 -48 9 -4 28 1 42 10 15 9 35 17 45 17 19 0 94 24 127 41 30 15 162 43 205 43 25 0 54 10 78 26 25 17 53 27 79 27 22 0 62 6 90 14 27 8 74 22 105 32 31 9 73 17 94 17 44 0 154 19 190 33 14 5 77 15 139 22 71 7 113 16 111 23 -2 6 -14 12 -27 14 -39 6 -13 23 35 23 38 0 50 -5 67 -29 38 -54 34 -66 -27 -82 -30 -8 -89 -19 -131 -25 -110 -15 -218 -39 -289 -62 -33 -11 -94 -26 -134 -33 -41 -6 -108 -23 -150 -37 -42 -15 -84 -26 -94 -26 -17 0 -121 -30 -307 -90 -149 -47 -284 -103 -284 -117 0 -18 33 -17 70 2 57 30 168 69 319 111 83 24 175 50 204 58 204 59 289 78 289 67 0 -5 -15 -14 -34 -19 -19 -6 -60 -20 -91 -32 -31 -12 -90 -29 -131 -39 -41 -10 -84 -24 -95 -32 -12 -8 -30 -14 -42 -14 -44 0 -261 -84 -274 -106 -4 -5 -17 -10 -29 -10 -13 0 -42 -6 -64 -14 -38 -13 -39 -15 -21 -25 13 -7 27 -8 36 -2 8 5 23 10 33 10 21 0 109 40 172 77 27 16 67 28 115 33 47 5 89 16 117 33 24 14 57 25 74 25 33 0 124 35 185 71 26 15 59 24 94 25 30 1 42 4 26 6 -47 7 -33 20 37 34 36 7 96 19 134 27 87 19 296 39 318 30 12 -4 18 -19 18 -42 0 -44 -9 -48 -163 -72 -64 -10 -149 -27 -189 -39 -41 -11 -97 -24 -126 -29 -29 -5 -66 -14 -82 -20 -17 -7 -46 -12 -65 -12 -20 0 -38 -4 -41 -9 -3 -5 -26 -12 -51 -16 -39 -5 -129 -26 -260 -59 -41 -10 -99 -32 -131 -48 -12 -6 -43 -18 -68 -26 -26 -7 -52 -17 -58 -21 -6 -4 -27 -11 -47 -15 -21 -5 -47 -15 -58 -23 -11 -8 -27 -14 -34 -14 -27 0 -108 -45 -108 -59 0 -21 12 -18 99 22 43 20 86 37 94 37 9 0 18 4 21 9 3 5 24 12 46 16 21 3 53 13 69 22 17 9 39 16 50 16 10 0 21 4 25 9 3 5 18 12 34 15 16 4 69 16 119 28 49 12 103 24 120 27 18 3 70 17 116 31 74 22 164 44 262 63 18 3 77 11 132 16 284 30 303 27 234 -37 -32 -29 -49 -36 -82 -36 -23 0 -59 -5 -79 -11 -88 -26 -229 -52 -279 -52 -30 0 -72 -8 -92 -16 -21 -9 -38 -14 -38 -11 0 2 -20 -2 -44 -11 -24 -8 -54 -15 -67 -15 -13 0 -29 -7 -36 -16 -8 -8 -29 -15 -48 -15 -19 0 -36 -5 -38 -11 -2 -6 -32 -18 -66 -27 -34 -8 -68 -20 -74 -25 -6 -5 -27 -12 -47 -16 -21 -4 -42 -11 -48 -15 -13 -9 -109 -46 -173 -68 -26 -9 -71 -27 -100 -41 -88 -43 -95 -43 -119 -10 -14 20 -24 56 -29 103 -3 40 -12 82 -19 94 -16 24 -25 62 -37 142 -11 76 -4 113 24 117 28 4 36 30 10 30 -15 0 -24 11 -33 40 -24 79 -17 94 50 107 85 17 170 44 218 68 28 14 56 26 63 26 6 0 58 18 115 41 57 22 132 46 167 53 68 13 186 48 220 65 12 5 52 12 90 14 37 3 87 10 110 16 47 11 281 29 378 27 56 -1 63 -3 66 -23z m2013 -14 c11 -12 14 -21 7 -21 -7 0 -12 -4 -12 -9 0 -5 15 -6 34 -4 23 2 40 -2 49 -13 11 -13 11 -17 -1 -21 -30 -9 -122 -19 -193 -21 -61 -1 -73 2 -76 17 -3 16 5 18 62 17 37 -1 76 3 88 10 17 10 7 12 -61 13 -44 0 -81 4 -81 10 0 43 149 60 184 22z m-4707 -29 c15 -3 41 -1 57 5 32 10 56 7 56 -9 0 -24 -86 -51 -185 -58 -57 -4 -101 -4 -98 -1 23 25 113 79 126 74 8 -3 28 -8 44 -11z m2827 -22 c-8 -8 -26 10 -20 21 5 7 10 6 16 -3 4 -8 7 -16 4 -18z m-3127 -14 c15 -15 30 -19 45 -15 22 8 30 -8 10 -21 -6 -4 -96 -9 -199 -12 -201 -6 -199 -7 -179 44 7 18 17 21 86 19 43 -2 97 2 120 7 53 11 88 5 117 -22z m3484 -25 c23 -14 35 -26 26 -26 -9 0 -26 7 -38 15 -12 9 -24 13 -28 10 -12 -13 -157 -34 -186 -29 -50 11 -36 31 29 43 105 18 151 15 197 -13z m257 -22 c19 -20 32 -39 30 -41 -4 -4 -141 61 -152 72 -4 4 14 7 40 7 41 0 52 -5 82 -38z m1388 1 c7 -14 10 -28 7 -31 -2 -3 -47 -8 -98 -11 -52 -3 -136 -9 -187 -13 -51 -4 -95 -4 -98 0 -2 4 1 18 8 30 11 21 17 22 84 16 39 -4 92 -2 117 4 43 9 130 28 147 30 5 1 14 -10 20 -25z m-4821 -22 c0 -25 -43 -49 -93 -51 -27 -1 -56 -5 -62 -9 -7 -5 -30 -4 -52 2 -22 5 -78 8 -124 6 -313 -14 -321 -14 -318 10 3 21 11 22 109 25 58 2 145 9 194 16 114 16 346 17 346 1z m3633 13 c0 -10 -31 -15 -37 -6 -3 5 3 10 15 10 12 0 22 -2 22 -4z m-1271 -34 c-53 -23 -87 -18 -36 5 23 11 48 17 56 14 9 -3 1 -11 -20 -19z m87 21 c-7 -3 -21 -3 -31 -1 -10 3 -5 5 13 5 17 1 25 -2 18 -4z m642 -34 c-7 -33 -31 -44 -52 -23 -5 5 -31 11 -57 13 -35 2 -48 8 -51 22 -3 17 3 18 48 13 27 -4 64 -2 82 3 17 5 32 9 34 7 1 -1 0 -17 -4 -35z m-3038 -7 c0 -8 -8 -15 -16 -15 -9 0 -16 7 -16 15 0 9 7 16 16 16 8 0 16 -7 16 -16z m2209 6 c4 -5 -21 -15 -54 -22 -34 -7 -63 -14 -67 -16 -3 -2 -12 1 -20 6 -11 7 -7 11 16 16 17 3 38 10 47 16 21 12 71 12 78 0z m626 0 c0 -6 -3 -11 -5 -11 -3 0 -8 5 -11 11 -4 5 -2 10 4 10 6 0 12 -5 12 -10z m1991 -41 c41 -77 40 -82 -3 -90 -31 -6 -43 -3 -62 15 -24 23 -24 23 -36 2 -6 -12 -11 -34 -11 -49 0 -16 -6 -26 -15 -26 -10 0 -14 6 -9 16 5 14 2 16 -16 10 -27 -8 -29 2 -6 28 16 17 16 19 1 19 -10 0 -22 -9 -28 -21 -9 -15 -22 -21 -51 -21 -21 0 -54 -4 -73 -10 -25 -7 -45 -5 -77 8 -40 15 -44 15 -53 -1 -6 -11 -23 -18 -46 -18 -19 0 -38 -5 -42 -11 -3 -6 -10 -8 -15 -5 -11 7 -1 55 14 67 6 6 64 12 127 15 182 9 240 14 271 27 17 7 44 12 61 12 17 0 31 4 31 9 0 20 -36 22 -94 8 -76 -19 -222 -38 -298 -38 l-60 0 7 29 c3 16 9 31 11 34 3 3 39 6 80 6 105 2 310 20 319 29 18 18 50 -1 73 -44z m-3819 -120 c-5 -74 -10 -137 -13 -140 -11 -11 -21 91 -13 130 4 22 10 53 12 71 19 119 23 100 14 -61z m2720 129 c14 -9 14 -10 0 -10 -9 1 -25 5 -37 10 l-21 9 21 1 c12 0 28 -4 37 -10z m-1716 -16 c-11 -9 -38 -15 -60 -15 -22 0 -42 -5 -45 -10 -3 -5 -28 -12 -56 -16 -27 -4 -60 -14 -73 -23 -13 -8 -37 -14 -55 -14 -17 0 -53 -8 -80 -17 -26 -9 -56 -15 -66 -13 -28 6 72 48 146 61 37 7 108 21 157 32 49 11 101 22 116 24 14 2 28 5 31 5 3 1 -4 -6 -15 -14z m-2145 -8 c-2 -4 -3 -11 -3 -16 0 -4 -13 -16 -29 -25 -23 -13 -57 -16 -183 -14 -84 2 -158 6 -164 9 -5 4 -50 3 -98 -2 -48 -5 -92 -6 -97 -1 -5 4 -5 18 -2 30 7 19 17 22 114 25 169 6 465 2 462 -6z m3149 -68 c20 -47 13 -55 -57 -55 -47 0 -50 2 -50 28 0 37 28 67 62 67 22 0 31 -9 45 -40z m152 -17 c-7 -22 -38 -20 -38 2 0 16 5 20 21 15 12 -3 20 -10 17 -17z m329 9 c8 -10 22 -13 38 -9 33 8 99 -4 99 -19 0 -8 -26 -10 -81 -5 -80 6 -106 16 -93 38 9 15 22 14 37 -5z m-3783 -13 c2 -6 21 -4 47 5 47 16 68 7 48 -21 -11 -15 -33 -18 -125 -19 -64 -1 -120 4 -133 10 -15 8 -30 9 -49 2 -15 -6 -70 -11 -122 -11 -77 0 -95 3 -101 17 -3 9 1 21 9 26 19 13 422 4 426 -9z m5169 -43 c0 -39 -18 -54 -65 -54 -42 0 -44 4 -31 53 6 19 17 27 44 32 47 7 52 4 52 -31z m-210 -39 c0 -38 -8 -44 -29 -23 -10 9 -13 9 -13 0 0 -18 -110 -17 -123 0 -6 7 -14 24 -18 37 -7 23 -5 24 56 24 50 0 64 -4 64 -16 0 -23 18 -19 24 5 9 35 39 14 39 -27z m-5117 12 c3 -10 1 -23 -5 -29 -15 -15 -96 -29 -103 -17 -3 5 -16 6 -29 2 -28 -10 -135 -5 -147 6 -4 5 -4 18 2 28 9 17 27 20 143 23 115 4 133 2 139 -13z m4862 -2 c8 -21 -9 -50 -30 -54 -9 -2 -21 7 -27 21 l-12 24 -1 -24 c-1 -36 -21 -17 -21 19 0 29 2 31 42 31 29 0 44 -5 49 -17z m-4617 -3 c0 -26 -36 -43 -87 -43 -30 0 -64 -3 -76 -6 -16 -4 -25 1 -34 21 -12 26 -12 26 43 30 113 8 154 7 154 -2z m4500 -17 c9 -35 -1 -57 -27 -57 -17 0 -21 6 -21 34 0 20 3 39 7 42 15 16 35 6 41 -19z m-1276 -16 c25 -16 -8 -32 -39 -18 -18 9 -21 14 -12 20 18 11 31 11 51 -2z m1858 -20 c0 -42 -12 -53 -55 -53 -24 0 -72 -5 -108 -11 -46 -8 -77 -8 -106 -1 -35 10 -43 9 -63 -11 -21 -19 -39 -22 -135 -25 -61 -2 -125 -6 -142 -10 -30 -6 -31 -5 -31 30 0 34 3 38 35 44 25 5 50 0 85 -16 28 -13 65 -25 84 -28 30 -5 35 -2 50 28 16 33 19 34 86 37 43 1 73 -3 79 -10 13 -16 69 -9 85 11 7 8 25 15 40 15 15 1 37 5 49 10 34 15 47 12 47 -10z m-1908 -22 c10 -11 18 -22 18 -25 0 -2 -22 -9 -49 -16 -60 -15 -77 -4 -56 36 17 33 61 36 87 5z m-3573 -9 c0 -29 -18 -46 -49 -48 -16 -1 -43 -6 -59 -10 -28 -8 -28 -7 -28 32 l0 41 68 1 c57 1 68 -1 68 -16z m145 -14 l-3 -34 -66 -2 c-36 -1 -65 0 -65 2 0 2 5 16 11 30 12 26 28 31 102 36 21 2 24 -2 21 -32z m222 16 c0 -30 -13 -43 -42 -43 -14 1 -41 -2 -60 -5 -27 -4 -37 0 -46 16 -15 28 -2 38 59 42 29 2 61 5 71 6 11 1 18 -5 18 -16z m3424 -3 c0 -6 -10 -10 -22 -10 -12 0 -19 4 -15 10 3 6 13 11 21 11 9 0 16 -5 16 -11z m-2170 -152 l7 -53 -25 44 c-23 40 -25 48 -14 94 l12 51 7 -42 c4 -23 10 -65 13 -94z m1676 92 c-1 -14 -31 -49 -37 -43 -4 4 2 16 12 29 21 23 25 26 25 14z m2163 -2 c0 -6 -7 -17 -16 -26 -16 -16 -34 -20 -126 -32 -23 -3 -89 -12 -147 -20 -57 -9 -155 -19 -218 -23 -111 -7 -112 -7 -122 17 -13 36 0 44 80 48 93 4 416 36 422 41 9 9 127 4 127 -5z m-5113 -42 c0 -23 -5 -44 -10 -48 -13 -8 -126 -10 -134 -2 -4 4 -1 14 7 22 7 9 10 23 7 32 -4 11 6 18 38 25 85 19 92 17 92 -29z m-262 20 c6 0 3 -14 -7 -30 -12 -21 -24 -29 -38 -25 -10 3 -27 -1 -36 -9 -14 -12 -16 -9 -13 22 3 28 10 38 30 43 14 4 33 5 40 3 8 -2 19 -4 24 -4z m-111 -29 c-10 -40 -15 -44 -69 -47 -42 -2 -47 0 -50 22 -7 45 4 54 67 54 l59 0 -7 -29z m3728 5 c15 -14 -10 -27 -69 -33 -108 -12 -95 -48 18 -48 63 0 85 -11 49 -25 -18 -7 -329 -9 -329 -2 0 21 47 80 65 80 11 0 32 8 46 19 20 17 41 20 118 19 52 -1 98 -5 102 -10z m-457 -26 c0 -15 -73 -80 -81 -73 -10 10 47 81 65 81 9 0 16 -4 16 -8z m903 -13 c0 -6 -8 -10 -16 -10 -9 0 -16 4 -16 10 0 6 7 11 16 11 8 0 16 -5 16 -11z m1280 -3 c0 -28 -18 -39 -73 -40 -32 -1 -77 -8 -101 -16 -24 -8 -78 -17 -121 -19 -42 -3 -94 -10 -114 -16 -20 -6 -56 -11 -80 -11 -35 0 -47 5 -61 26 -9 14 -16 28 -16 30 0 3 35 5 78 6 44 0 90 3 103 6 21 5 146 20 270 33 25 3 49 7 51 10 11 11 64 4 64 -9z m-5092 -60 c0 -28 -3 -30 -66 -41 -83 -14 -154 -15 -154 -1 0 5 12 18 28 28 16 10 32 24 36 29 4 6 41 12 82 13 l74 2 0 -30z m-343 9 c1 -2 8 -15 16 -28 7 -14 12 -26 10 -28 -2 -2 -39 -5 -82 -7 l-79 -4 -3 40 -3 39 69 -4 c38 -2 71 -6 72 -8z m4522 -19 c0 -11 -5 -23 -10 -27 -6 -3 -11 5 -11 21 0 14 5 27 11 27 5 0 10 -10 10 -21z m-1370 -11 c-4 -6 -15 -10 -24 -10 -16 0 -16 1 -2 10 20 13 34 13 26 0z m2261 -13 c-3 -20 -14 -25 -82 -37 -102 -17 -170 -25 -242 -27 -32 -1 -72 -6 -88 -12 -26 -7 -34 -5 -52 17 l-20 25 51 8 c28 4 96 10 150 13 55 4 111 13 126 21 15 8 57 15 94 15 62 0 66 -1 63 -23z m-5080 -65 c0 -31 -24 -51 -61 -49 -71 2 -206 1 -303 -3 -105 -4 -107 -4 -112 20 -5 28 2 42 22 48 8 3 113 6 234 6 l220 2 0 -24z m2677 15 c0 -20 -49 -42 -121 -53 -40 -6 -85 -14 -99 -17 -30 -7 -192 -5 -199 3 -20 19 76 38 346 67 37 4 69 8 70 9 2 1 3 -3 3 -9z m60 -3 c-2 -7 -13 -14 -24 -17 -17 -3 -18 -1 -6 14 17 20 37 22 30 3z m371 3 c-9 -6 -34 -10 -56 -10 -46 -1 -48 -6 -11 -40 22 -20 25 -27 13 -35 -8 -5 -28 -9 -44 -9 -37 -1 -38 -28 -2 -44 41 -19 31 -31 -24 -28 -27 1 -95 -2 -149 -6 l-100 -9 59 48 c33 27 65 49 70 49 5 0 29 19 53 41 43 42 62 49 159 52 34 1 43 -2 32 -9z m92 -9 c3 -11 -2 -12 -20 -7 -41 12 -51 29 -16 25 17 -2 33 -10 36 -18z m251 -31 c-10 -2 -18 -8 -18 -13 0 -6 -9 -10 -21 -10 -12 0 -21 2 -21 4 0 3 -3 12 -6 20 -8 21 24 28 58 13 20 -8 22 -11 8 -14z m1618 6 c-3 -21 -10 -24 -52 -25 -26 0 -56 -4 -66 -8 -10 -3 -54 -9 -99 -12 -44 -3 -99 -9 -122 -12 -68 -12 -74 -11 -77 19 l-3 27 113 7 c63 4 144 11 182 15 136 15 128 15 124 -11z m-3710 -8 c4 -6 2 -10 -4 -10 -6 0 -11 4 -11 10 0 6 2 11 4 11 3 0 8 -5 11 -11z m1345 -24 c-11 -7 -29 -21 -39 -31 -23 -22 -41 -24 -40 -5 0 7 15 20 34 30 41 20 76 25 45 6z m-102 -17 c19 -12 -16 -21 -119 -29 -46 -3 -96 -13 -111 -20 -40 -20 -199 -19 -263 1 -20 7 -79 -17 -128 -50 -16 -11 -33 -19 -39 -17 -29 10 73 77 142 92 68 15 132 16 207 4 35 -6 83 -6 111 -1 27 4 73 11 102 15 29 3 54 8 57 10 7 7 26 5 41 -5z m-2621 -28 c-7 -45 -11 -46 -91 -46 -43 0 -91 5 -106 12 -19 9 -30 9 -35 1 -4 -6 -40 -14 -80 -17 -41 -4 -87 -9 -103 -11 -16 -2 -32 1 -35 7 -4 5 6 8 21 6 14 -2 28 1 30 7 1 6 -10 12 -26 14 -19 2 -29 9 -29 21 0 16 16 18 143 20 79 1 145 4 148 6 2 2 40 3 85 2 74 -1 80 -3 78 -22z m5101 -1 c0 -13 -4 -25 -8 -26 -27 -4 -77 -9 -205 -18 -79 -6 -153 -16 -164 -22 -38 -20 -64 -14 -64 15 0 38 29 48 150 54 59 3 123 8 144 13 20 5 61 8 91 8 51 0 56 -2 56 -24z m-1897 -5 c28 -7 37 -14 30 -21 -8 -8 -28 -7 -67 2 -83 19 -84 19 -77 32 7 11 32 8 114 -13z m-760 -19 c0 -6 -5 -11 -11 -11 -6 0 -8 5 -5 11 4 5 9 10 11 10 3 0 5 -5 5 -10z m168 6 c0 -2 -7 -7 -16 -11 -10 -3 -14 -1 -10 5 6 10 26 14 26 6z m1788 -33 c1 -5 -6 -12 -16 -14 -12 -2 -18 3 -18 14 0 19 31 19 34 0z m715 -21 c4 -15 5 -31 2 -36 -6 -10 -136 -25 -194 -23 -20 0 -66 -6 -102 -14 -46 -11 -75 -12 -100 -5 -22 6 -38 6 -45 -1 -15 -15 -69 -12 -69 4 0 21 23 39 50 39 14 0 34 5 46 11 12 6 86 16 165 22 79 5 155 14 170 19 49 17 70 12 77 -16z m-5390 -26 c0 -26 -30 -34 -106 -29 -49 2 -58 6 -60 25 -3 21 1 22 81 23 77 1 85 0 85 -19z m71 -19 c2 -19 1 -33 -2 -33 -20 0 -38 16 -38 36 0 50 35 47 40 -3z m191 34 c0 -3 -5 -15 -11 -26 -14 -27 -109 -30 -119 -4 -12 32 -6 36 62 36 37 0 68 -3 68 -6z m2266 -19 c7 -4 22 -2 35 5 21 11 91 8 171 -8 43 -8 13 -24 -47 -24 -26 0 -52 -5 -58 -10 -14 -14 -177 -38 -244 -36 -44 1 -55 -2 -51 -13 4 -10 -6 -16 -33 -21 -61 -10 -72 -15 -56 -24 14 -9 115 3 159 19 14 5 59 12 100 16 40 3 104 13 142 21 226 49 456 63 687 41 81 -8 95 -12 98 -30 3 -11 16 -29 30 -40 33 -26 19 -42 -26 -29 -19 5 -96 13 -173 17 -76 3 -157 11 -179 17 -28 7 -45 7 -52 -1 -7 -6 -37 -11 -69 -11 -75 0 -265 -53 -261 -72 3 -18 -143 -112 -218 -141 -80 -31 -160 -44 -190 -30 -14 6 -25 15 -25 20 0 9 139 56 257 86 51 13 63 20 66 39 4 30 -14 31 -104 3 -37 -12 -89 -28 -114 -37 -26 -8 -59 -16 -73 -18 -21 -2 -33 -14 -50 -48 -3 -7 -56 32 -56 41 0 5 7 10 16 10 15 0 37 39 37 67 0 8 -12 17 -27 21 -40 10 -32 32 36 100 64 64 66 65 180 76 41 5 79 2 92 -6z m1964 -20 c4 -22 -25 -14 -34 10 -5 11 -1 14 12 12 10 -2 20 -12 22 -22z m-4078 -7 c4 -6 2 -11 -4 -11 -6 0 -11 5 -11 11 0 5 2 10 4 10 3 0 8 -5 11 -10z m3219 -32 c28 0 50 -16 38 -28 -8 -8 -132 31 -127 40 3 5 17 4 32 -2 14 -5 40 -10 57 -10z m1774 -4 c0 -24 -3 -25 -73 -25 -40 0 -89 -6 -109 -12 -43 -15 -154 -19 -172 -8 -8 5 -13 14 -13 22 0 16 64 27 172 28 41 0 96 4 122 9 72 13 73 13 73 -14z m-5421 -12 c23 -32 16 -36 -54 -36 -68 0 -100 15 -100 47 0 23 136 13 154 -11z m260 -5 c0 -25 -3 -26 -65 -29 -60 -3 -66 -2 -66 18 0 13 9 23 24 26 13 3 33 7 44 10 45 10 63 2 63 -25z m-183 12 c0 -12 -28 -23 -36 -15 -13 13 -6 24 15 24 11 0 21 -4 21 -9z m1795 -1 c0 -6 -5 -11 -11 -11 -6 0 -8 5 -5 11 4 5 9 10 11 10 3 0 5 -5 5 -10z m2024 -7 c43 -12 24 -25 -34 -25 -54 0 -68 7 -51 25 9 8 53 8 85 0z m1105 -17 c0 -15 -37 -50 -52 -50 -28 0 -21 48 8 56 33 9 44 7 44 -6z m-1011 -4 c-3 -3 -12 -4 -20 -1 -8 4 -6 6 6 7 11 0 18 -2 14 -6z m927 -19 c0 -14 -5 -29 -12 -33 -7 -5 0 -16 19 -32 25 -21 27 -26 14 -35 -24 -17 -68 -9 -72 14 -2 11 3 24 11 28 11 7 10 12 -6 24 -16 12 -18 18 -7 37 17 32 53 30 53 -3z m-2761 5 c0 -6 -6 -11 -12 -11 -6 0 -8 5 -4 11 3 5 8 10 11 10 2 0 5 -5 5 -10z m3284 -23 c5 -46 -53 -52 -67 -7 -8 25 11 41 43 37 14 -1 22 -11 24 -30z m-111 -15 c-3 -16 -15 -31 -31 -37 -38 -14 -45 -12 -45 14 l0 23 -16 -22 c-11 -16 -35 -26 -82 -34 -36 -6 -74 -11 -84 -11 -23 0 -23 34 1 55 16 14 44 19 189 32 25 2 48 7 51 10 13 13 22 -3 17 -30z m-4990 17 c0 -6 -5 -11 -11 -11 -6 0 -8 5 -5 11 4 5 9 10 11 10 3 0 5 -5 5 -10z m-331 -11 c37 -6 98 -6 147 -1 89 9 120 -1 107 -34 -5 -13 -37 -16 -195 -16 -176 -1 -191 1 -200 19 -15 27 -14 30 7 35 32 9 69 8 134 -3z m1735 4 c-3 -3 -12 -4 -20 -1 -8 4 -6 6 6 7 11 0 18 -2 14 -6z m1053 -56 c-28 -23 -42 -27 -42 -13 0 10 40 32 58 33 6 0 -2 -9 -16 -20z m2649 -38 c-3 -9 -18 -18 -33 -21 -15 -4 -36 -9 -46 -11 -11 -3 -18 0 -18 8 0 22 34 59 57 64 25 5 49 -19 40 -40z m-2056 21 c249 -26 262 -28 266 -50 3 -17 -5 -18 -100 -17 -151 4 -242 15 -264 35 -10 9 -34 20 -52 23 -18 4 -33 11 -33 16 0 12 -2 12 183 -7z m-3129 -42 l0 -31 -178 0 c-98 -1 -185 4 -192 9 -7 5 -13 18 -13 28 0 17 8 18 68 14 37 -3 75 -1 85 4 9 6 65 9 123 8 l107 -1 0 -31z m4980 24 c25 -29 19 -43 -18 -45 -65 -5 -225 -23 -265 -31 -41 -8 -82 8 -82 31 0 22 27 28 166 38 71 4 132 11 136 14 11 11 52 7 63 -7z m-3546 -19 c0 -6 -9 -26 -19 -44 -16 -31 -18 -32 -21 -11 -2 13 1 33 8 45 12 23 32 29 32 10z m465 -85 c32 -25 59 -50 59 -55 0 -6 -5 -5 -12 2 -7 7 -20 13 -30 13 -30 0 -114 103 -97 120 4 4 11 -2 15 -13 4 -12 34 -41 65 -67z m1622 56 c3 -9 -2 -13 -14 -10 -11 2 -21 10 -24 17 -3 9 2 13 14 11 11 -2 21 -10 24 -18z m-596 -17 c10 -29 26 -35 34 -13 4 8 15 3 35 -17 60 -59 115 -104 143 -118 25 -14 50 -44 50 -62 0 -4 -41 22 -91 57 -50 35 -99 64 -108 64 -14 0 -116 97 -116 111 0 2 10 4 21 4 13 0 25 -10 32 -26z m2219 -15 c-14 -24 -27 -31 -59 -35 -23 -2 -43 -1 -45 3 -2 4 -34 0 -70 -8 -37 -8 -120 -19 -185 -24 -65 -5 -128 -12 -139 -16 -17 -5 -20 -1 -20 19 0 22 7 28 46 38 26 6 67 12 91 12 25 0 83 4 130 10 114 15 227 29 250 30 18 1 18 0 1 -29z m-5429 -7 c50 -7 59 -20 43 -61 -7 -19 -52 -23 -62 -6 -4 5 -18 10 -31 10 -18 0 -27 8 -31 27 -8 31 1 50 19 43 8 -3 36 -9 62 -13z m2912 5 c-32 -7 -56 -6 -68 0 -13 8 0 11 51 10 l68 -1 -51 -9z m-2621 -38 l0 -34 -63 0 c-54 0 -67 4 -95 30 -40 36 -34 39 76 39 l82 -1 0 -34z m3252 18 c25 -6 58 -12 74 -15 74 -10 118 -20 124 -29 3 -5 3 -21 0 -35 -6 -24 -11 -26 -51 -20 -76 11 -170 36 -183 50 -16 16 -28 60 -17 59 4 0 28 -5 53 -10z m863 -42 c9 -5 13 -12 9 -16 -10 -10 -52 5 -45 17 8 12 17 12 36 -1z m-4304 -16 c0 -8 -8 -15 -16 -15 -9 0 -16 7 -16 15 0 9 7 16 16 16 8 0 16 -7 16 -16z m5281 9 c0 -4 -8 -16 -17 -26 -14 -16 -33 -19 -94 -19 -42 0 -107 -7 -143 -16 -36 -8 -104 -16 -150 -18 -80 -3 -84 -2 -88 20 -1 13 -1 24 0 25 2 0 56 3 119 6 64 3 142 12 174 19 61 15 199 21 199 9z m-5084 -53 c-2 -16 -9 -29 -16 -28 -8 0 -39 2 -71 2 -49 2 -58 5 -58 21 0 30 9 34 81 34 67 0 67 -1 64 -29z m4223 8 c0 -6 -7 -11 -15 -11 -8 0 -18 5 -22 11 -3 5 3 10 15 10 12 0 22 -5 22 -10z m-4479 -24 c-6 -17 0 -28 23 -47 23 -18 26 -24 12 -24 -10 0 -18 -4 -18 -9 0 -15 73 -20 147 -10 116 16 110 17 110 -16 l0 -30 -126 -5 c-164 -6 -185 -5 -202 9 -21 18 -16 29 21 45 28 12 31 16 15 22 -15 6 -18 14 -12 40 9 40 13 49 27 49 6 0 7 -10 3 -24z m5259 -26 c-10 -16 -19 -31 -21 -34 -2 -2 -42 -6 -90 -8 -47 -2 -103 -9 -123 -16 -44 -15 -207 -15 -222 -1 -7 7 0 18 19 31 24 16 46 19 116 17 48 -1 99 3 116 10 16 7 64 16 108 19 43 4 87 8 97 9 18 1 18 0 0 -27z m-4996 -23 c-6 -5 -52 -12 -103 -15 -81 -5 -91 -4 -80 9 9 11 37 16 103 16 52 0 85 -4 80 -10z m3147 -15 c32 -26 78 -109 66 -120 -4 -4 -15 3 -24 17 -10 14 -35 45 -57 69 -22 25 -39 48 -39 52 0 14 27 5 54 -18z m223 -9 c15 -6 27 -18 27 -26 0 -20 50 -49 98 -55 23 -4 44 -13 47 -21 4 -12 -9 -14 -71 -9 -81 6 -101 19 -143 95 -14 25 -14 29 0 29 9 0 28 -6 42 -13z m1566 -37 c-3 -9 -6 -20 -6 -25 0 -5 -18 -9 -39 -9 -22 0 -81 -8 -132 -18 -90 -17 -95 -17 -130 2 -32 17 -41 18 -70 6 -18 -8 -57 -18 -86 -22 -29 -5 -65 -12 -81 -16 -19 -5 -29 -3 -29 4 0 7 9 12 21 12 12 0 21 7 21 15 0 25 80 42 205 43 63 1 148 6 189 11 112 15 143 14 137 -3z m-3708 -32 c-8 -16 -15 -34 -15 -41 0 -15 -20 -29 -28 -21 -6 6 14 47 36 73 23 25 25 23 7 -11z m1674 -9 c-11 -11 -23 -14 -32 -8 -12 7 1 15 44 24 2 1 -3 -7 -12 -16z m-2865 -26 c7 -11 10 -26 8 -32 -4 -12 -310 -13 -339 -2 -9 3 -15 12 -15 20 0 11 18 15 76 16 143 2 229 7 236 14 11 11 23 6 34 -16z m4545 0 c-17 -10 -24 -5 -15 11 4 6 12 8 18 5 7 -5 6 -10 -3 -16z m327 -13 c0 -5 -5 -18 -11 -29 -10 -18 -23 -20 -129 -20 -78 0 -123 -4 -131 -13 -15 -15 -16 -8 -2 28 8 23 17 27 55 28 25 0 53 4 63 8 26 10 155 9 155 -2z m-462 -26 c0 -5 -12 -22 -26 -37 -26 -29 -52 -36 -63 -17 -4 5 1 10 10 10 9 0 16 5 16 11 0 5 -7 10 -16 10 -22 0 -20 18 3 24 32 9 76 8 76 -1z m68 -15 c-9 -30 -15 -35 -44 -44 -17 -5 -24 -3 -24 7 0 24 32 61 54 61 17 0 20 -5 14 -24z m-1114 -4 c23 -9 21 -31 -6 -67 -32 -44 -43 -39 -34 13 10 63 12 65 40 54z m-3568 -15 c3 -6 19 -9 34 -6 78 14 128 17 128 8 0 -16 -64 -33 -127 -34 -106 -2 -165 11 -151 33 9 14 107 13 116 -1z m3393 -28 c7 -15 11 -30 8 -33 -3 -3 -5 1 -5 8 0 8 -7 11 -16 8 -11 -5 -15 1 -15 20 0 33 12 32 28 -3z m873 19 c8 -5 12 -14 8 -20 -8 -13 -59 5 -59 21 0 11 33 11 51 -1z m-3988 -11 c-15 -5 -41 -9 -58 -10 -24 0 -28 2 -16 10 9 5 35 9 58 9 36 -1 38 -2 16 -9z m1022 -27 c-6 -24 -8 -26 -17 -11 -6 12 -5 23 3 33 18 21 23 13 14 -22z m3766 10 c0 -20 -8 -23 -65 -29 -36 -4 -93 -7 -127 -7 -34 0 -88 -7 -119 -16 -31 -10 -68 -15 -81 -14 -19 3 -12 10 39 40 75 43 104 49 245 49 103 0 108 -1 108 -23z m-4659 -25 c15 -8 28 -18 28 -22 0 -12 -42 -20 -100 -21 -29 0 -72 -4 -96 -9 -50 -10 -161 -3 -161 10 0 5 16 20 35 33 32 22 49 24 151 24 79 0 124 -4 143 -15z m-339 -8 c0 -29 -47 -57 -89 -53 -34 2 -45 9 -60 35 l-19 32 84 0 c58 -1 84 -5 84 -14z m4452 8 c0 -6 -11 -11 -24 -10 -23 0 -23 1 -3 10 12 4 22 9 24 9 1 1 3 -4 3 -9z m81 -10 c13 -11 24 -22 24 -25 0 -2 -19 -5 -42 -6 -39 -1 -42 1 -42 25 0 32 26 34 60 6z m460 -28 c-3 -9 -6 -20 -6 -25 0 -14 -105 -32 -187 -32 -44 -1 -100 -8 -123 -16 -23 -9 -79 -19 -123 -22 -72 -6 -84 -5 -96 12 -10 13 -23 17 -47 14 -22 -4 -33 -1 -33 8 0 8 32 15 102 20 57 4 136 14 176 22 41 8 112 15 158 16 46 0 96 4 110 9 47 15 76 12 69 -6z m-550 -17 c-17 -9 -27 -9 -36 0 -9 10 -4 12 24 12 34 -1 35 -2 12 -12z m-1222 -13 c11 -11 -35 -81 -58 -86 -13 -4 -46 -3 -74 0 -70 10 -90 9 -191 -4 -50 -6 -112 -14 -140 -17 -27 -3 -49 -10 -49 -14 0 -5 -16 -11 -35 -15 -18 -3 -60 -10 -93 -15 -32 -6 -69 -16 -80 -22 -12 -6 -33 -12 -46 -12 -14 0 -37 -9 -51 -20 -14 -12 -34 -21 -44 -21 -10 0 -20 -5 -24 -10 -3 -5 -23 -12 -45 -14 -22 -3 -64 -13 -94 -22 l-55 -16 0 41 c0 31 -5 42 -17 42 -20 0 -15 21 7 32 53 26 97 40 157 51 37 7 72 17 78 22 5 6 34 10 65 10 30 0 57 4 61 9 6 11 34 17 179 39 58 9 133 21 168 27 153 24 363 33 381 15z m-2822 -23 c6 -15 8 -31 4 -34 -8 -9 -148 -23 -256 -26 -50 -2 -112 -9 -140 -17 -28 -8 -53 -11 -57 -7 -4 4 1 21 11 37 9 17 18 39 18 49 0 15 5 17 39 9 51 -11 116 -10 213 3 139 19 156 17 168 -14z m-462 -29 c0 -19 -7 -41 -15 -48 -18 -14 -22 -8 -32 44 -7 37 -5 40 20 40 23 0 27 -5 27 -36z m3319 12 c-11 -11 -12 -9 -6 6 4 10 10 16 13 13 3 -4 0 -12 -7 -19z m183 -67 c-5 -19 -13 -25 -38 -25 -42 0 -39 36 6 90 15 18 40 -32 32 -65z m-2225 -112 c0 -99 2 -248 3 -330 3 -136 1 -153 -19 -187 -13 -21 -22 -45 -22 -53 0 -8 -4 -15 -9 -15 -5 0 -18 -7 -29 -15 -19 -15 -18 -16 18 -16 35 0 40 3 60 46 12 25 27 49 33 53 17 11 13 -2 -15 -45 -14 -23 -27 -52 -29 -66 -3 -23 -9 -26 -64 -28 -34 -2 -60 1 -60 7 0 5 11 23 25 40 13 16 27 49 31 74 24 153 24 155 13 373 -5 83 -2 129 9 168 8 30 21 82 27 115 7 33 15 61 20 61 4 0 7 -82 8 -182z m3763 178 c0 -2 -8 -19 -17 -37 -15 -31 -20 -33 -72 -33 -36 0 -60 5 -69 15 -18 22 -4 37 35 38 18 1 43 5 54 10 21 9 69 14 69 7z m-202 -48 c-23 -31 -44 -43 -71 -43 -26 1 -26 1 12 37 25 22 45 34 56 30 13 -5 14 -10 3 -24z m-339 10 c-4 -6 -19 -11 -33 -11 -15 0 -23 5 -20 11 4 5 19 10 33 10 15 0 23 -5 20 -10z m257 4 c0 -3 -13 -17 -29 -31 -21 -19 -41 -25 -78 -26 -27 0 -62 -5 -78 -11 -22 -8 -32 -7 -47 6 -10 10 -24 14 -30 10 -7 -4 -20 -3 -30 1 -13 5 -5 11 30 20 25 7 54 9 63 5 14 -7 155 16 166 27 7 7 33 6 33 -1z m-4271 -35 c10 -39 -6 -46 -119 -48 -60 -2 -169 -6 -242 -10 -98 -6 -134 -5 -140 4 -16 25 15 33 179 43 197 13 247 18 254 25 3 3 19 6 35 6 19 0 30 -7 33 -20z m4523 -35 c0 -42 -14 -50 -87 -53 -75 -2 -82 3 -55 42 12 17 30 24 66 27 27 2 56 5 63 6 7 1 13 -9 13 -22z m-1827 -23 c67 -17 68 -16 -63 -21 -55 -2 -126 -9 -157 -16 -32 -6 -95 -16 -140 -22 -46 -6 -109 -19 -142 -30 -33 -10 -94 -25 -136 -33 -70 -12 -97 -24 -84 -37 3 -3 57 7 119 23 63 15 153 34 199 41 46 8 138 24 205 36 125 22 236 28 245 13 3 -5 1 -25 -5 -45 l-11 -36 -128 2 c-147 2 -230 -13 -466 -81 -19 -6 -51 -14 -71 -19 -20 -6 -59 -21 -87 -36 -27 -14 -70 -29 -94 -33 -25 -4 -48 -12 -51 -17 -3 -6 -15 -10 -26 -10 -11 0 -45 -12 -75 -26 -64 -31 -78 -32 -90 -10 -9 16 -6 39 14 122 9 37 39 56 104 66 29 4 72 16 95 26 23 11 63 25 89 32 26 6 65 18 87 27 22 8 63 15 91 15 29 0 74 10 102 22 113 49 370 74 476 47z m1504 -5 c5 -4 2 -16 -5 -26 -11 -14 -31 -19 -84 -21 -39 -1 -77 -8 -83 -15 -18 -17 9 -25 49 -14 35 9 114 -4 148 -26 19 -13 24 -13 35 1 8 9 22 16 32 16 11 0 21 6 23 13 4 10 176 33 185 24 1 -1 -7 -20 -20 -41 -15 -26 -28 -37 -40 -34 -51 14 -121 17 -160 6 -25 -7 -78 -12 -119 -12 -41 0 -101 -7 -133 -16 -33 -9 -66 -13 -74 -10 -7 3 -3 6 10 6 28 1 32 29 5 35 -14 4 -11 8 13 19 28 11 29 14 11 18 -37 8 -43 24 -9 24 38 0 49 9 34 27 -9 11 -5 15 18 20 17 4 44 11 62 16 32 9 88 3 102 -10z m71 5 c0 -9 -10 -21 -21 -27 -17 -9 -23 -8 -28 6 -4 10 0 21 8 26 22 14 41 12 41 -5z m-4365 -16 c64 0 71 -2 71 -22 0 -53 -17 -62 -106 -62 -78 0 -86 2 -111 28 -14 15 -24 33 -22 39 5 14 49 27 76 21 11 -2 53 -4 92 -4z m3163 -48 c71 -8 78 -20 24 -46 -39 -19 -55 -21 -113 -14 -60 7 -69 11 -72 31 -2 12 4 34 13 48 l17 26 39 -19 c22 -11 63 -22 92 -26z m-3358 14 c8 -7 13 -21 11 -33 -3 -21 1 -21 -184 -32 -82 -5 -86 -2 -66 50 9 24 17 27 76 31 84 5 145 -1 163 -16z m221 -88 c10 -29 -8 -44 -70 -56 -35 -7 -69 -10 -75 -6 -10 6 -14 60 -5 70 10 9 147 2 150 -8z m-197 -19 c0 -37 -17 -45 -121 -53 -176 -14 -168 -15 -168 20 0 32 0 32 68 35 46 2 69 -1 75 -10 7 -11 14 -8 30 10 17 17 34 23 69 23 42 0 47 -2 47 -25z m3227 -10 c50 -38 102 -62 148 -69 23 -3 43 -12 45 -18 6 -18 -51 -25 -75 -9 -26 17 -175 17 -188 0 -10 -12 -1 94 9 110 10 16 25 13 61 -14z m1481 9 c-4 -9 -11 -16 -17 -16 -7 0 -20 -7 -30 -16 -14 -13 -58 -19 -191 -26 -95 -4 -183 -14 -195 -20 -11 -6 -37 -11 -56 -11 -31 0 -33 2 -16 14 24 19 23 31 -3 24 -12 -3 -21 -1 -21 4 0 6 12 10 26 10 14 0 38 5 55 12 16 6 110 18 208 25 254 18 247 18 240 0z m-1842 -37 c109 -5 109 -5 119 -35 6 -17 6 -34 1 -38 -15 -15 -235 -26 -235 -12 0 6 4 12 8 12 4 1 22 2 39 4 18 1 58 7 90 12 l57 9 -52 7 c-29 3 -67 2 -84 -3 -18 -5 -57 -11 -89 -15 -60 -6 -105 -20 -105 -31 0 -4 29 -4 65 0 75 8 72 -5 -5 -25 -90 -25 -59 -36 73 -27 205 14 207 14 211 -11 2 -12 -8 -31 -23 -45 l-26 -25 -14 22 c-10 16 -24 23 -51 23 -44 0 -239 -28 -293 -42 -21 -6 -57 -12 -80 -15 -47 -5 -98 -27 -119 -52 -18 -22 6 -35 29 -15 30 27 139 61 159 50 10 -5 21 -7 24 -4 10 10 200 25 236 18 46 -8 34 -20 -29 -29 -29 -4 -70 -17 -90 -29 -30 -18 -59 -23 -134 -26 -97 -3 -144 -15 -179 -45 -27 -23 -183 -20 -248 5 -45 17 -69 22 -123 25 -40 2 -63 34 -58 78 4 31 10 40 33 45 15 4 46 17 69 28 45 23 69 29 200 55 46 9 107 28 136 41 29 13 81 30 116 37 34 7 70 19 79 26 8 7 32 13 53 14 21 0 52 8 68 17 17 9 38 13 47 9 8 -4 64 -9 125 -13z m-2688 -29 c0 -14 -25 -41 -49 -53 -31 -17 -97 -16 -97 1 0 23 24 48 52 53 46 8 95 7 94 -1z m925 -35 c0 -18 -5 -29 -11 -25 -6 3 -10 18 -10 32 0 14 4 26 10 26 6 0 11 -15 11 -33z m-1148 5 c3 -10 1 -25 -6 -34 -7 -10 -19 -32 -28 -51 -17 -37 -27 -45 -61 -51 -12 -2 -46 -9 -75 -14 -91 -18 -100 -16 -100 20 0 25 5 32 24 33 67 5 99 2 121 -10 20 -11 24 -11 29 2 11 28 0 54 -22 51 -63 -9 -145 -7 -149 5 -8 22 18 57 38 51 10 -4 30 -2 44 4 14 5 60 10 102 10 61 1 77 -2 83 -16z m4540 -3 c-39 -30 -100 -45 -172 -42 -36 2 -75 -2 -87 -9 -13 -7 -27 -8 -37 -2 -24 15 10 41 65 48 48 7 184 20 230 23 l26 2 -25 -20z m-1072 -32 c0 -6 -5 -11 -10 -11 -6 0 -11 5 -11 11 0 5 5 10 11 10 5 0 10 -5 10 -10z m-3200 -37 c19 -40 18 -42 -31 -52 -34 -7 -34 -7 -34 28 0 66 39 80 65 24z m-95 -6 c-2 -14 -9 -31 -14 -38 -11 -13 -114 -17 -114 -4 0 20 33 48 70 59 52 16 62 13 58 -17z m4279 -10 c-12 -21 -73 -44 -153 -59 -21 -4 -57 -15 -80 -25 -42 -18 -68 -17 -68 1 0 5 5 10 13 10 15 0 60 45 60 61 0 16 77 31 165 32 75 1 76 0 63 -20z m-2591 -65 c1 -14 -48 39 -56 60 -4 13 5 7 25 -16 17 -20 31 -40 31 -44z m1366 60 c0 -9 -5 -16 -11 -16 -6 0 -10 7 -10 16 0 8 4 16 10 16 6 0 11 -8 11 -16z m297 -18 c11 -6 18 -12 16 -14 -9 -9 -160 12 -164 23 -4 14 117 7 148 -9z m-459 -14 c7 -17 -10 -43 -39 -58 -28 -15 -32 3 -8 40 24 37 38 43 47 18z m-1907 -15 c0 -6 -5 -11 -10 -11 -6 0 -11 5 -11 11 0 5 5 10 11 10 5 0 10 -5 10 -10z m2061 -29 c12 -15 -1 -18 -23 -4 -9 6 -12 16 -7 29 7 16 9 16 14 4 3 -9 10 -22 16 -29z m-2884 -53 c57 -110 62 -102 -70 -104 l-115 -1 0 30 0 31 79 0 c65 0 79 2 79 16 0 14 -12 16 -69 13 l-68 -3 0 32 c0 46 18 58 78 55 l52 -3 34 -66z m-195 31 c0 -17 -9 -37 -19 -46 -27 -23 -163 -38 -281 -30 -29 2 -68 0 -87 -4 l-35 -8 7 40 c4 23 10 44 12 49 3 4 35 8 71 8 59 0 68 -3 84 -27 24 -37 61 -33 109 10 33 31 46 37 89 37 48 0 50 -1 50 -29z m4317 -4 c-8 -8 -12 -8 -12 -2 0 14 12 27 19 20 3 -3 0 -11 -7 -18z m-1482 -1 c0 -8 -13 -21 -29 -29 -16 -8 -43 -24 -59 -35 -24 -15 -32 -17 -38 -7 -7 11 -14 10 -33 -3 -14 -10 -40 -17 -59 -17 -51 0 -221 -40 -276 -65 -26 -12 -61 -26 -79 -32 -35 -13 -183 -20 -199 -11 -9 6 26 14 191 44 25 4 55 17 67 27 15 14 46 23 97 28 127 12 211 28 249 47 20 10 65 29 99 41 35 13 64 24 66 24 1 1 3 -5 3 -12z m325 -39 c0 -6 -7 -10 -16 -10 -8 0 -15 4 -15 10 0 6 7 11 15 11 9 0 16 -5 16 -11z m-2152 -53 c0 -6 -5 -10 -11 -10 -6 0 -10 7 -10 16 0 9 4 14 10 10 6 -3 11 -11 11 -16z m829 -14 c23 -19 106 -48 139 -48 15 0 31 -5 34 -11 9 -14 -30 -13 -94 3 -63 16 -108 39 -136 70 l-21 23 31 -12 c17 -7 38 -18 47 -25z m1145 13 c0 -11 -17 -11 -51 -2 -16 4 -20 9 -13 14 16 9 64 1 64 -12z m1835 7 c13 -13 -15 -22 -91 -27 -44 -4 -84 -4 -89 -2 -4 2 3 14 16 25 20 18 34 20 91 15 37 -3 70 -8 73 -11z m-4838 -36 c0 -50 -7 -56 -55 -42 -26 7 -47 6 -68 -2 -16 -7 -83 -14 -148 -15 l-118 -3 0 41 0 41 113 1 c62 1 139 5 171 9 108 15 105 16 105 -30z m2829 8 c-16 -5 -32 -6 -35 -4 -7 8 45 25 56 18 5 -3 -4 -10 -21 -14z m2145 -32 c28 -27 31 -51 5 -48 -28 3 -142 -14 -163 -25 -11 -6 -34 -5 -61 2 -39 10 -48 8 -104 -21 -60 -31 -115 -42 -115 -23 0 33 117 74 214 75 76 0 194 30 172 43 -6 4 -23 3 -37 -2 -14 -5 -62 -10 -106 -10 -47 0 -92 -6 -108 -14 -38 -19 -83 -30 -83 -18 0 19 29 31 100 43 122 20 184 34 184 44 0 13 74 -21 102 -46z m-2263 16 c-7 -3 -21 -3 -31 0 -10 2 -5 5 13 5 17 0 25 -2 18 -5z m-73 -14 c17 0 -15 -21 -32 -21 -7 0 -13 8 -13 17 0 11 6 15 17 10 9 -3 22 -6 28 -6z m517 -10 c-4 -6 -16 -11 -27 -11 -11 0 -20 5 -20 11 0 5 12 10 26 10 16 0 24 -5 21 -10z m-2856 -19 c8 -23 -13 -34 -66 -34 -25 0 -62 -7 -83 -16 -42 -17 -71 -8 -82 26 -12 38 3 43 115 41 88 -1 111 -4 116 -17z m3118 8 c-3 -6 -26 -10 -50 -9 -42 1 -43 1 -13 9 47 12 71 12 63 0z m-845 -5 c0 -11 -20 -15 -26 -6 -4 6 1 11 10 11 9 0 16 -2 16 -5z m231 -5 c0 -6 -14 -11 -31 -11 -18 0 -32 5 -32 11 0 5 14 10 32 10 17 0 31 -5 31 -10z m-2826 -20 c8 -1 12 -12 10 -30 -3 -29 -5 -29 -92 -38 -112 -11 -138 -12 -213 -9 -57 2 -60 4 -60 28 0 30 8 32 126 28 37 -1 88 4 112 12 40 12 71 14 117 9z m2732 -1 c0 -6 -15 -11 -32 -11 -17 0 -31 5 -31 11 0 5 14 10 31 10 17 0 32 -5 32 -10z m819 -6 c18 -9 29 -21 25 -26 -3 -7 -14 -6 -27 1 -12 6 -35 10 -50 7 -31 -4 -63 18 -40 27 25 10 62 7 92 -9z m-137 -5 c-21 -13 -45 -13 -37 0 4 6 17 10 30 10 18 0 20 -2 7 -10z m1617 -26 c0 -22 -5 -26 -30 -26 -16 0 -45 -6 -64 -12 -35 -12 -84 0 -84 21 0 7 75 26 170 42 4 0 8 -11 8 -25z m-4672 -9 c0 -8 7 -21 16 -29 14 -11 3 -16 -76 -33 -104 -21 -128 -19 -149 14 -19 31 -2 46 48 43 22 -1 56 2 77 8 55 14 84 13 84 -3z m2047 -2 c14 -8 40 -15 58 -15 24 -1 28 -3 16 -11 -25 -16 -72 -12 -95 8 -38 32 -25 44 21 18z m172 7 c7 -11 -54 -25 -69 -16 -14 9 12 25 41 25 12 0 25 -4 28 -9z m238 -7 c0 -9 -10 -15 -23 -15 -18 0 -20 2 -9 15 7 9 17 16 22 16 5 0 10 -7 10 -16z m614 -3 c-46 -28 -98 -44 -141 -44 -28 0 -34 3 -22 11 9 5 29 10 44 10 21 0 27 4 23 15 -6 16 18 22 91 25 l36 2 -31 -19z m-168 -2 c-4 -6 -18 -10 -32 -10 -14 0 -26 4 -26 10 0 6 14 11 32 11 19 0 30 -5 26 -11z m1806 -10 c3 -6 1 -11 -5 -11 -6 0 -11 5 -11 11 0 5 2 10 5 10 2 0 7 -5 11 -10z m-5072 -32 c3 -5 3 -22 -1 -36 -5 -22 -13 -27 -40 -27 -19 0 -59 -5 -88 -10 -29 -6 -85 -11 -123 -12 -75 -2 -89 6 -89 51 0 22 4 23 87 23 47 0 117 4 155 9 37 5 73 10 80 11 7 1 16 -3 19 -9z m965 -6 c10 -26 8 -29 -9 -15 -18 14 -21 32 -7 32 6 0 13 -8 16 -17z m2186 7 c-8 -13 -111 -16 -111 -3 0 5 26 10 59 11 39 2 56 -1 52 -8z m1636 -12 c7 -6 0 -10 -21 -10 -18 0 -62 -3 -99 -7 -48 -5 -64 -4 -58 5 18 30 151 40 178 12z m256 -6 c3 -19 -5 -24 -61 -36 -48 -10 -67 -10 -76 -1 -16 17 11 43 57 54 53 13 77 8 80 -17z m-465 -4 c-20 -22 -68 -29 -68 -10 0 12 38 29 67 30 20 1 20 0 1 -20z m-1244 3 c0 -20 -38 -45 -70 -45 -39 0 -48 23 -17 41 21 12 87 15 87 4z m-2902 -21 c25 -33 16 -41 -67 -55 -126 -21 -134 -21 -134 10 0 24 6 27 90 43 49 10 91 18 93 19 2 0 10 -7 18 -17z m4346 -24 c0 -12 -26 -18 -110 -27 -61 -7 -113 -10 -116 -8 -8 8 33 35 53 35 10 0 33 6 51 14 42 17 122 8 122 -14z m-1704 -7 c-7 -3 -19 -3 -26 0 -7 3 -1 5 13 5 14 0 20 -2 13 -5z m1463 -4 c9 -15 -15 -41 -39 -41 -24 0 -25 8 -2 33 20 22 31 24 41 8z m-3535 -57 l-1 -32 -13 37 c-8 20 -11 41 -9 46 9 15 24 -18 23 -51z m4041 51 c14 -4 24 -15 24 -26 0 -16 -8 -20 -42 -20 -23 0 -53 -4 -67 -10 -20 -7 -30 -6 -39 5 -30 36 53 70 124 51z m-5037 -31 c5 -15 10 -31 10 -37 0 -18 -52 -10 -73 12 -34 33 -26 52 23 52 22 0 32 -7 40 -27z m3255 15 c0 -27 -36 -51 -74 -51 -49 0 -55 7 -35 38 13 20 26 25 62 25 29 0 47 -5 47 -12z m-3413 -45 c0 -35 -1 -36 -47 -36 -26 0 -61 -3 -78 -6 -27 -6 -31 -4 -41 25 -6 17 -7 34 -2 37 5 3 38 8 74 10 36 3 68 8 71 11 12 12 23 -8 23 -41z m3129 36 c0 -6 -2 -10 -5 -10 -2 0 -7 4 -11 10 -3 6 -1 11 5 11 6 0 11 -5 11 -11z m-2481 -29 c15 -22 14 -24 -10 -33 -15 -6 -67 -11 -118 -13 -70 -2 -93 1 -101 13 -16 25 -11 29 51 36 33 4 72 11 87 16 40 14 74 7 91 -19z m4296 3 c6 -32 -27 -47 -103 -48 -40 0 -81 -6 -99 -15 -45 -24 -80 -21 -80 7 0 37 30 61 78 62 23 1 57 5 74 10 18 4 53 7 79 6 37 -1 48 -5 51 -22z m-4891 -15 c0 -12 -5 -24 -11 -27 -6 -4 -10 5 -10 20 0 15 4 27 10 27 6 0 11 -9 11 -20z m4599 -5 c0 -23 -52 -64 -64 -52 -8 8 -3 21 17 44 27 32 47 35 47 8z m-1444 4 c-30 -13 -61 -13 -53 0 4 6 22 10 40 10 28 -1 30 -2 13 -10z m-347 -10 c4 -6 -6 -13 -21 -17 -16 -4 -25 -13 -22 -21 3 -7 -4 -15 -15 -18 -28 -7 -34 4 -14 26 17 18 17 19 0 19 -9 0 -17 5 -17 11 0 13 81 13 89 0z m2358 -27 c0 -28 -10 -32 -97 -42 -68 -7 -80 2 -50 40 17 22 32 28 76 31 67 3 71 2 71 -29z m-1889 -1 c-6 -36 -34 -56 -76 -56 -22 0 -43 4 -46 10 -4 6 -2 11 4 11 6 0 12 4 12 10 0 6 -15 11 -34 11 -49 0 -31 8 50 25 86 17 95 15 90 -11z m614 -1 c-8 -8 -27 7 -27 20 0 7 6 6 16 -2 8 -8 13 -16 11 -18z m-3775 -6 c1 -7 2 -20 3 -28 1 -9 -6 -19 -14 -23 -33 -15 -42 -9 -42 28 0 32 3 37 26 37 14 0 27 -6 27 -14z m2152 3 c0 -6 -5 -10 -11 -10 -6 0 -10 4 -10 10 0 6 4 11 10 11 6 0 11 -5 11 -11z m645 0 c-28 -12 -36 -12 -36 0 0 6 12 10 28 10 26 -1 27 -2 8 -10z m-2274 -28 c18 -40 3 -46 -120 -43 -93 2 -105 5 -108 22 -6 29 17 39 77 32 29 -3 64 -1 79 5 42 17 58 14 72 -16z m-692 -14 c0 -14 -13 -19 -65 -25 -65 -7 -81 0 -82 32 0 14 48 21 108 16 29 -3 39 -9 39 -23z m53 21 c0 -6 -5 -10 -11 -10 -6 0 -10 4 -10 10 0 6 4 11 10 11 6 0 11 -5 11 -11z m2318 0 c-20 -11 -92 -23 -92 -16 0 3 10 10 23 15 29 11 90 12 69 1z m2554 -1 c0 -6 -9 -25 -19 -42 -16 -28 -23 -31 -81 -31 -35 -1 -86 -3 -113 -4 -28 -2 -53 1 -56 6 -12 19 18 49 61 60 86 23 208 29 208 11z m-1959 -19 c7 -12 -32 -26 -47 -17 -6 4 -10 11 -10 17 0 12 49 13 57 0z m174 -1 c0 -13 -22 -13 -42 0 -13 8 -10 10 13 10 16 0 29 -4 29 -10z m-678 -21 c-3 -6 -13 -10 -21 -10 -8 0 -17 4 -21 10 -3 6 6 11 21 11 16 0 25 -5 21 -11z m2158 -14 c0 -41 -37 -62 -72 -40 -12 8 -11 14 4 37 24 36 68 38 68 3z m554 18 c14 -4 24 -15 24 -26 0 -16 -8 -20 -42 -20 -23 0 -53 -4 -67 -10 -20 -7 -30 -6 -39 5 -30 36 53 70 124 51z m-2839 -20 c-5 -12 2 -15 26 -15 18 0 33 -5 33 -11 0 -6 -9 -10 -21 -10 -11 0 -37 -8 -57 -18 -48 -23 -64 -10 -47 37 9 27 17 33 42 33 22 0 28 -4 24 -16z m-2151 -24 c0 -13 -4 -23 -8 -23 -5 0 -24 -6 -43 -14 -21 -9 -75 -15 -134 -16 -86 0 -101 3 -112 19 -10 16 -9 22 4 33 21 18 125 26 135 11 8 -14 60 -16 74 -2 11 10 55 20 73 16 6 -1 11 -12 11 -24z m3092 22 c-2 -28 -31 -42 -100 -48 -60 -4 -70 -3 -55 8 26 18 12 26 -49 28 -46 2 -43 3 26 9 121 10 178 11 178 3z m-2521 -44 c27 -38 18 -43 -81 -43 -39 0 -88 -5 -111 -11 -22 -6 -42 -9 -45 -6 -3 3 -6 21 -7 40 l-2 35 105 6 c58 3 108 6 112 7 4 2 17 -11 29 -28z m1702 20 c0 -6 -7 -10 -16 -10 -9 0 -14 4 -10 10 3 6 11 11 16 11 6 0 10 -5 10 -11z m551 -21 c4 -6 -7 -10 -26 -10 -19 0 -30 4 -26 10 3 6 15 11 26 11 11 0 23 -5 26 -11z m1780 2 c0 -5 -13 -14 -29 -20 -23 -9 -25 -11 -8 -12 12 -1 35 8 53 20 33 22 47 25 47 13 0 -16 -93 -66 -122 -66 -58 0 -82 58 -28 66 53 8 87 8 87 -1z m-1938 -12 c4 -6 -10 -7 -33 -4 -53 8 -57 14 -11 14 21 0 41 -4 44 -10z m69 -23 c0 -15 -18 -10 -25 6 -3 10 0 13 10 10 8 -4 15 -10 15 -16z m1694 7 c8 -21 -28 -39 -70 -35 -39 4 -41 19 -6 37 34 18 69 17 76 -2z m574 5 c0 -21 -50 -40 -118 -45 -39 -3 -71 -2 -71 2 0 20 30 42 63 46 74 8 126 7 126 -3z m-2809 -10 c3 -5 1 -13 -5 -16 -17 -11 -1 -26 27 -26 14 0 42 6 62 15 36 15 53 10 39 -12 -17 -28 -275 -42 -275 -15 0 34 135 82 152 54z m293 -23 c-3 -5 -16 -9 -30 -9 -27 0 -43 -16 -49 -47 -5 -26 -34 -28 -39 -3 -2 11 13 35 34 56 33 33 39 35 63 24 15 -7 24 -16 21 -21z m553 12 c0 -28 -69 -48 -150 -44 -29 2 -29 2 -9 22 14 14 39 22 77 25 30 2 61 4 68 6 8 1 14 -3 14 -9z m-3010 -27 c4 -14 5 -30 2 -35 -4 -7 -90 -16 -242 -25 -25 -2 -33 3 -41 26 -6 16 -7 32 -4 36 4 3 47 8 97 9 50 2 93 6 97 9 4 4 24 7 46 7 33 0 40 -4 45 -27z m3433 -1 l33 -18 -78 -13 c-137 -22 -176 -17 -124 17 48 32 123 38 169 14z m-2835 -24 c26 -45 22 -53 -28 -53 -24 0 -51 -6 -58 -13 -7 -7 -42 -16 -78 -21 -94 -12 -118 -16 -118 -18 0 -1 -8 -4 -18 -6 -14 -2 -18 4 -18 25 0 80 23 97 147 106 158 12 152 12 171 -20z m2085 -95 c1 -21 -1 -23 -9 -10 -6 8 -10 41 -10 73 l2 58 8 -47 c5 -26 9 -60 9 -74z m1723 82 c11 -13 21 -26 21 -29 0 -3 -34 -6 -76 -6 -75 0 -78 2 -73 36 1 6 24 12 52 14 27 2 51 5 52 6 1 1 12 -8 24 -21z m531 10 c-3 -7 -9 -21 -12 -31 -5 -13 -20 -17 -66 -17 -36 -1 -96 -13 -154 -32 -83 -28 -106 -31 -194 -28 -55 2 -136 -1 -181 -8 -85 -12 -106 -7 -81 19 15 14 138 20 288 13 58 -3 135 18 168 44 38 31 73 42 142 46 38 1 75 4 82 5 8 1 12 -4 8 -11z m52 3 c-4 -6 -11 -11 -17 -11 -6 0 -8 5 -4 11 3 5 11 10 17 10 6 0 7 -5 4 -10z m-2536 -10 c0 -6 13 -12 29 -13 23 -3 34 -15 57 -61 16 -32 29 -77 29 -100 0 -23 5 -71 11 -105 12 -66 13 -76 31 -205 6 -43 18 -98 26 -121 45 -133 62 -204 74 -306 3 -25 10 -57 16 -72 6 -15 11 -55 11 -89 0 -34 6 -83 14 -107 8 -25 22 -85 33 -134 10 -50 27 -124 38 -166 11 -42 20 -86 20 -97 0 -12 9 -30 20 -41 28 -29 39 -52 47 -103 7 -37 5 -45 -9 -45 -9 0 -16 5 -16 11 0 5 -10 30 -21 55 -23 49 -72 192 -85 249 -5 20 -19 65 -31 100 -12 34 -23 75 -25 89 -2 14 -16 65 -31 113 -16 48 -28 101 -28 116 0 16 -6 35 -12 42 -7 6 -12 35 -11 64 0 34 -5 56 -14 65 -9 6 -15 20 -15 31 0 10 -8 32 -16 48 -9 17 -16 44 -16 62 -1 17 -7 43 -16 58 -8 14 -15 39 -15 55 0 17 -5 38 -11 49 -5 11 -11 35 -11 54 -1 20 -13 69 -26 109 -13 41 -34 114 -47 163 -14 49 -29 96 -36 105 -40 55 -40 66 -3 123 10 16 39 18 39 4z m515 -12 c0 -6 -12 -23 -27 -37 -25 -25 -32 -26 -121 -24 -101 4 -144 20 -52 20 45 0 55 3 60 20 5 20 14 22 116 30 13 1 24 -3 24 -9z m575 -12 c2 -13 -8 -18 -53 -23 -30 -3 -77 -9 -104 -12 -27 -4 -57 -3 -66 3 -11 5 -42 5 -80 -1 -56 -9 -85 -5 -72 8 3 3 64 11 136 18 72 6 140 15 151 19 37 14 84 7 88 -12z m-1258 3 c0 -12 -22 -20 -39 -14 -23 8 -15 24 13 24 14 0 26 -5 26 -10z m-2228 -48 c35 -48 31 -65 -12 -54 -14 3 -30 22 -41 48 -23 53 -23 53 1 53 10 0 34 -21 52 -47z m2128 30 c-30 -22 -15 -26 69 -20 70 4 84 3 84 -10 0 -13 -15 -16 -66 -16 -36 0 -99 -6 -139 -14 -41 -7 -111 -11 -157 -9 l-83 4 41 40 41 39 113 -1 c86 -1 109 -4 97 -13z m-2226 -8 c0 -1 7 -12 14 -26 10 -17 11 -28 4 -35 -18 -18 -34 1 -27 30 5 21 3 26 -8 22 -8 -2 -16 -19 -17 -37 -3 -29 -7 -32 -48 -36 -70 -7 -102 3 -117 39 l-12 31 84 12 c68 9 127 9 127 0z m3643 -39 c17 -16 4 -19 -94 -21 -59 -2 -106 -9 -126 -19 -21 -11 -50 -15 -89 -12 -32 3 -83 4 -113 4 -46 0 -55 3 -55 19 0 10 5 21 11 25 7 4 92 8 190 10 97 1 181 6 185 10 9 9 78 -3 91 -16z m1298 14 c0 -5 -7 -18 -15 -28 -11 -15 -22 -18 -48 -13 -33 7 -126 -13 -171 -36 -10 -5 -60 -10 -110 -10 -51 0 -125 -6 -166 -14 -73 -15 -157 -15 -171 -1 -4 3 1 13 11 20 22 16 242 33 290 22 17 -4 52 -1 77 6 25 7 74 19 108 27 35 8 80 19 100 24 49 12 95 13 95 3z m-4258 -24 c10 -31 -1 -39 -61 -46 -152 -19 -283 -39 -349 -53 -40 -8 -125 -20 -189 -25 -63 -6 -131 -14 -150 -18 -31 -6 -38 -3 -65 28 l-29 35 64 14 c58 11 66 11 85 -7 12 -11 32 -23 45 -27 19 -5 26 -2 34 19 12 31 49 42 120 33 30 -4 74 -1 101 6 26 6 92 18 147 26 55 8 113 18 129 23 16 4 48 9 70 11 33 1 43 -2 48 -19z m2273 -9 c0 -35 -123 -86 -134 -56 -2 7 4 13 15 13 18 1 18 1 -1 16 -23 18 -14 23 52 29 23 2 48 5 55 6 7 1 13 -3 13 -8z m-568 -18 c3 -2 -21 -4 -53 -4 -64 0 -78 -7 -60 -28 16 -19 11 -23 -53 -35 -52 -10 -104 -12 -211 -7 -26 1 -65 -2 -87 -7 -27 -5 -39 -4 -39 4 0 19 43 74 53 68 19 -12 207 -5 262 9 50 13 173 13 188 0z m355 -83 c1 -23 -2 -46 -5 -51 -10 -17 -22 28 -23 88 0 54 1 56 13 32 8 -15 14 -46 15 -69z m896 46 c0 -20 -5 -22 -47 -16 -31 4 -74 -1 -129 -15 -58 -15 -115 -21 -197 -21 -120 1 -153 11 -117 38 18 13 107 13 169 0 12 -2 54 4 95 15 40 10 108 19 149 20 72 1 77 0 77 -21z m1222 16 c9 -3 17 -12 17 -20 0 -17 -24 -26 -69 -26 -19 0 -48 -5 -65 -12 -60 -23 -147 -40 -215 -40 -39 0 -93 -8 -121 -17 -34 -12 -69 -16 -111 -12 -69 6 -76 10 -67 33 5 13 24 17 88 17 45 0 101 7 124 16 24 8 80 15 133 15 50 0 104 5 121 12 24 10 116 35 141 39 4 1 15 -1 24 -5z m-4142 -91 c12 -41 27 -90 33 -108 17 -57 13 -75 -19 -75 -16 1 -42 -3 -58 -7 -27 -8 -29 -7 -29 24 0 29 3 33 30 33 35 0 66 27 41 37 -8 3 -29 0 -45 -6 -26 -10 -33 -9 -44 7 -23 31 -11 50 36 61 62 13 56 27 -12 27 -49 0 -57 3 -64 23 -14 40 -11 45 27 51 81 15 79 16 104 -67z m1670 66 c0 -6 -21 -10 -47 -10 -26 0 -47 4 -47 10 0 6 21 11 47 11 26 0 47 -5 47 -11z m467 -31 c-3 -6 -13 -11 -22 -11 -9 0 -13 5 -9 11 3 5 13 10 22 10 9 0 13 -5 9 -10z m-2335 -30 c7 -17 7 -30 0 -36 -5 -6 -56 -12 -113 -14 -58 -2 -124 -11 -150 -21 -31 -11 -68 -15 -104 -12 -32 2 -86 -2 -121 -10 -35 -7 -67 -13 -70 -14 -3 0 -14 14 -24 31 -17 30 -17 31 3 42 11 6 52 11 92 11 71 0 133 8 271 35 40 8 103 14 140 14 61 0 67 -2 76 -26z m1811 10 c-4 -13 -1 -22 11 -27 31 -12 9 -17 -92 -22 -54 -3 -136 -10 -182 -17 -46 -6 -110 -9 -142 -7 -54 3 -58 5 -55 29 2 14 6 28 9 31 3 3 80 7 170 8 91 1 186 6 212 12 72 15 76 15 69 -7z m1303 3 c6 -18 -23 -37 -61 -41 -20 -2 -62 -7 -96 -11 -42 -5 -65 -4 -76 6 -25 20 1 41 51 42 24 1 52 4 62 8 29 12 116 8 120 -4z m1210 -32 c-23 -22 -37 -27 -89 -27 -40 0 -69 -6 -80 -16 -13 -11 -49 -17 -126 -19 -60 -2 -130 -8 -155 -15 -26 -7 -72 -12 -101 -11 -29 0 -66 -4 -81 -10 -37 -14 -43 0 -15 34 22 26 25 27 73 16 40 -10 66 -9 131 5 45 10 120 20 166 22 46 3 112 14 147 26 34 12 84 21 110 22 l47 1 -27 -28z m-1611 -3 c0 -24 -30 -36 -72 -28 -29 5 -38 12 -38 28 0 19 6 21 55 18 39 -2 55 -8 55 -18z m132 -16 c0 -17 -33 -27 -94 -27 -46 0 -46 0 -27 21 23 26 121 31 121 6z m-2833 -43 c-3 -15 -16 -34 -29 -43 -26 -17 -183 -47 -183 -35 0 4 2 22 6 40 6 32 9 33 60 34 30 0 71 6 91 14 55 21 61 20 55 -10z m2418 16 c3 -6 1 -10 -5 -10 -6 0 -11 4 -11 10 0 6 2 11 5 11 2 0 7 -5 11 -11z m656 2 c0 -5 -8 -17 -18 -26 -23 -20 -162 -30 -168 -11 -6 19 14 26 95 35 41 4 79 8 83 9 4 1 8 -2 8 -7z m-1328 -12 c3 -6 -2 -22 -11 -37 -16 -24 -24 -26 -95 -25 -72 0 -77 2 -67 20 13 24 26 32 67 42 48 12 98 11 106 0z m142 0 c0 -6 -10 -11 -21 -11 -12 0 -21 -5 -21 -10 0 -6 4 -11 10 -11 6 0 11 -5 11 -10 0 -6 -12 -11 -26 -11 -24 0 -44 34 -31 54 8 13 78 11 78 -1z m52 0 c-21 -14 -45 -14 -37 0 4 5 17 10 30 10 18 0 20 -2 7 -10z m-388 -15 c0 -8 -9 -26 -20 -39 -18 -22 -29 -25 -110 -26 l-91 -2 0 35 0 35 71 -5 c39 -3 85 0 102 5 44 14 48 13 48 -3z m1108 3 c14 -22 -29 -51 -76 -51 -51 0 -53 1 -27 37 13 18 28 25 57 25 21 0 42 -5 46 -11z m141 -11 c0 -24 -31 -40 -78 -40 -33 0 -37 3 -37 25 0 20 6 26 28 29 72 8 87 6 87 -14z m1443 13 c9 -14 -17 -31 -46 -30 -15 0 -62 -5 -105 -11 -44 -7 -134 -20 -200 -30 -122 -18 -267 -24 -280 -11 -16 16 13 22 120 24 62 2 127 8 144 15 17 6 78 14 136 17 58 3 115 10 127 15 11 5 35 11 52 13 18 3 35 5 39 6 4 1 10 -3 13 -8z m-4489 -25 c-5 -59 -13 -65 -83 -66 -38 -1 -96 -5 -130 -9 -50 -6 -64 -4 -81 11 -45 40 -11 55 132 58 41 0 88 5 105 9 48 12 58 12 57 -3z m2461 -21 c3 -13 11 -66 18 -118 6 -52 16 -118 21 -147 15 -80 23 -152 18 -152 -7 0 -31 84 -53 184 -18 79 -30 257 -17 257 4 0 10 -11 13 -24z m-271 -18 c4 -6 -1 -10 -10 -10 -10 0 -14 4 -11 10 4 6 9 11 11 11 2 0 7 -5 10 -11z m1056 -4 c0 -33 -38 -51 -136 -64 l-47 -6 20 23 c12 12 35 31 52 42 38 23 111 27 111 5z m-1125 -13 c-11 -13 -11 -18 2 -26 10 -6 3 -9 -25 -9 -27 0 -42 5 -46 16 -8 21 6 30 49 33 29 2 32 0 20 -14z m2322 8 c0 -6 -8 -13 -17 -16 -22 -8 -204 -36 -284 -43 -36 -3 -78 -10 -93 -16 -31 -12 -229 -15 -240 -4 -4 4 -2 14 5 21 14 17 93 19 93 3 0 -9 4 -9 14 0 8 7 38 11 66 11 50 -2 415 41 423 49 8 8 33 4 33 -5z m-4211 -7 c0 -26 -37 -70 -64 -75 -28 -6 -29 -7 -12 -20 17 -13 17 -14 -4 -15 -13 0 -30 11 -40 26 -10 16 -23 23 -32 20 -11 -4 -16 0 -16 14 0 14 14 24 55 37 55 17 113 24 113 13z m1705 -2 c3 -3 -1 -15 -11 -26 -13 -14 -32 -19 -73 -19 -53 0 -56 2 -56 26 0 25 2 27 66 27 37 0 70 -4 74 -8z m960 -24 c3 -26 3 -26 -87 -26 -49 0 -89 2 -89 4 0 3 12 16 28 29 24 20 40 24 87 22 53 -3 58 -5 61 -29z m72 18 c-2 -7 -10 -12 -16 -10 -7 1 -12 -3 -12 -9 0 -6 -5 -8 -10 -4 -22 13 -11 37 16 37 17 0 26 -5 22 -14z m-1209 -34 c0 -19 -9 -21 -88 -26 -98 -6 -112 -2 -102 30 7 20 14 21 98 19 84 -2 92 -4 92 -23z m-1767 -20 c18 -27 4 -32 -128 -41 -57 -5 -73 -2 -94 15 -14 11 -23 22 -21 24 2 3 30 9 62 15 66 12 170 5 181 -13z m38 -32 c-14 -15 -22 1 -14 28 8 23 8 23 16 3 4 -11 4 -25 -2 -31z m453 23 c0 -7 3 -23 6 -35 5 -19 1 -23 -29 -28 -19 -3 -55 -12 -79 -19 -24 -8 -47 -11 -51 -7 -14 14 9 83 31 92 36 15 122 13 122 -3z m1402 3 c11 -19 -14 -39 -42 -34 -33 6 -35 31 -3 37 13 3 27 5 31 6 4 1 10 -3 14 -9z m254 -4 c1 -2 4 -14 5 -28 3 -23 -1 -26 -35 -27 -20 0 -50 -4 -65 -8 -33 -8 -36 4 -10 47 17 29 22 31 61 25 23 -4 43 -8 44 -9z m1002 -30 c-19 -19 -39 -25 -104 -29 -103 -7 -366 3 -376 13 -5 5 1 15 12 23 16 13 55 15 199 13 98 -2 202 0 231 3 29 4 54 5 57 3 2 -2 -6 -14 -19 -26z m1185 26 c0 -17 -69 -32 -168 -39 -55 -4 -135 -11 -178 -16 -44 -5 -119 -12 -167 -16 -84 -6 -87 -6 -76 15 10 19 23 20 147 21 75 1 144 4 153 8 19 7 203 32 255 34 19 0 34 -3 34 -7z m-2544 -32 c32 -43 11 -52 -142 -57 l-87 -3 7 32 c4 17 9 35 12 39 2 4 47 8 100 7 77 -1 99 -5 110 -18z m-1767 -28 c33 -51 25 -58 -71 -58 -82 0 -89 2 -115 30 -16 16 -26 32 -22 36 3 3 30 3 60 0 30 -2 66 0 81 6 39 16 48 14 67 -14z m2875 -21 c103 0 187 -3 187 -6 0 -4 -11 -16 -24 -28 -28 -24 -85 -29 -155 -12 -30 7 -64 8 -93 2 -49 -9 -211 5 -211 19 0 21 48 41 78 34 18 -5 116 -9 218 -9z m1390 -8 c-15 -25 -27 -27 -198 -33 -79 -3 -149 -8 -156 -12 -6 -4 -78 -9 -160 -12 -134 -5 -147 -3 -133 11 12 13 58 19 194 28 98 6 186 14 195 17 16 7 152 19 227 20 40 1 42 -1 31 -19z m-3765 -23 c0 -20 -9 -24 -82 -36 -45 -7 -117 -20 -160 -29 -43 -9 -121 -18 -173 -19 -52 -1 -112 -6 -133 -10 -32 -7 -42 -4 -67 19 -16 15 -26 30 -23 34 12 11 201 6 247 -8 47 -13 113 -1 149 28 9 7 58 20 109 29 52 10 96 20 99 22 11 11 34 -9 34 -30z m1589 18 c-4 -10 -16 -39 -27 -63 l-21 -45 -75 -2 c-41 -1 -84 0 -96 1 -11 1 -87 -8 -169 -20 -82 -12 -169 -21 -194 -19 l-44 3 21 27 c21 25 29 26 177 34 86 5 191 8 233 7 81 -1 154 16 143 34 -4 5 -14 7 -24 3 -9 -3 -112 -9 -227 -12 -116 -3 -219 -10 -230 -16 -23 -13 -44 3 -35 27 4 10 27 18 62 22 56 6 278 10 318 6 12 -1 40 5 63 14 23 9 62 16 87 17 37 0 43 -3 38 -18z m2086 -55 c0 -5 -16 -19 -35 -30 -26 -17 -57 -22 -139 -26 -58 -2 -112 -7 -118 -11 -7 -5 -17 -6 -22 -3 -17 11 -111 6 -183 -9 -21 -4 -47 -4 -57 0 -10 4 -32 7 -48 6 -20 -2 -28 2 -28 14 0 22 21 25 220 32 95 2 218 11 273 20 129 18 137 19 137 7z m-1481 -14 c9 -1 47 2 85 7 46 5 86 4 114 -4 34 -9 48 -9 59 1 12 9 19 10 27 1 9 -8 3 -19 -18 -39 -27 -25 -35 -27 -73 -19 -23 4 -93 8 -155 8 -97 1 -115 3 -124 19 -6 10 -22 19 -36 19 -14 0 -26 5 -26 11 0 11 18 11 147 -4z m-2188 -23 c3 -14 3 -30 0 -35 -6 -10 -57 -18 -174 -29 -32 -3 -91 -12 -132 -20 -40 -8 -109 -17 -152 -20 -75 -5 -80 -4 -98 22 -28 37 -11 45 103 45 52 0 114 4 137 10 23 6 88 16 144 22 57 6 113 15 126 20 35 14 39 13 46 -15z m2067 -5 c4 -7 -6 -11 -23 -10 -26 0 -27 2 -8 10 11 4 22 9 23 9 1 1 5 -4 8 -9z m-551 -42 c0 -22 -19 -28 -142 -42 -161 -20 -203 -20 -216 -4 -9 10 -15 11 -20 3 -12 -18 -116 -41 -189 -41 l-68 0 31 26 c28 22 42 26 112 26 43 0 93 5 110 10 17 6 103 15 193 20 90 5 169 10 176 10 7 1 13 -2 13 -8z m724 -14 c38 4 97 6 132 3 53 -4 63 -8 63 -25 0 -19 -11 -20 -173 -21 -96 -1 -188 1 -205 5 -31 7 -31 7 8 8 49 2 52 23 3 23 -20 0 -39 4 -42 9 -11 17 18 18 82 4 44 -11 83 -12 132 -6z m1324 3 c0 -29 -51 -39 -216 -41 -92 -1 -206 -6 -252 -11 -51 -5 -105 -4 -140 3 l-56 10 35 15 c19 8 59 14 88 14 151 -4 424 6 433 14 10 11 108 7 108 -4z m-3562 -41 c5 -34 -5 -40 -85 -53 -60 -10 -75 -9 -94 4 -13 9 -36 17 -52 17 -24 0 -29 -5 -27 -24 2 -15 -3 -24 -13 -24 -11 0 -15 10 -14 29 3 39 -12 37 -28 -3 -13 -31 -16 -32 -52 -25 -20 5 -56 8 -78 7 -43 -2 -69 11 -69 34 0 10 21 12 84 8 49 -2 90 0 97 6 7 6 58 16 113 23 54 6 121 16 147 20 61 11 67 9 71 -19z m1483 -15 c0 -29 -38 -47 -116 -53 -43 -3 -103 -10 -133 -15 -45 -7 -56 -6 -61 7 -12 29 15 39 142 49 37 4 87 10 110 15 23 5 45 9 50 10 4 0 8 -5 8 -13z m1995 -4 c0 -3 -8 -15 -18 -26 -14 -16 -33 -19 -110 -19 -50 0 -94 -4 -97 -9 -4 -5 -27 -5 -55 0 -27 5 -99 8 -160 8 -141 -1 -217 5 -215 17 3 17 39 23 79 14 72 -16 407 -9 502 10 62 13 74 14 74 5z m-2376 -36 c4 -19 -13 -35 -47 -45 -21 -7 -24 -4 -24 24 0 17 6 33 13 35 25 9 55 1 58 -14z m1354 -6 c15 -23 15 -24 -9 -23 -14 0 -34 4 -46 9 -11 4 -37 4 -57 0 -61 -14 -305 -21 -305 -10 0 6 14 11 32 11 36 0 41 13 10 27 -14 6 47 9 169 9 186 0 191 0 206 -23z m-1486 -3 c22 0 30 -5 30 -20 0 -31 -13 -34 -131 -33 -60 0 -121 -4 -136 -10 -15 -5 -27 -7 -27 -2 1 19 29 42 60 49 19 4 37 12 41 18 4 7 30 9 69 5 35 -4 77 -7 94 -7z m1825 0 c0 -6 -5 -10 -10 -10 -6 0 -11 4 -11 10 0 6 5 11 11 11 5 0 10 -5 10 -11z m-2802 -56 l-3 -47 -70 -5 c-39 -2 -73 -3 -76 -1 -3 1 -4 20 -2 40 4 30 10 38 27 38 13 1 44 7 70 14 26 7 50 12 53 11 3 -2 3 -24 1 -50z m1427 20 c0 -8 -15 -27 -32 -41 -26 -22 -37 -25 -58 -17 -16 6 -46 6 -80 -1 -59 -11 -124 -13 -124 -4 0 22 44 44 99 51 53 6 159 20 187 26 4 0 8 -6 8 -14z m-1791 -10 c49 -13 66 -30 68 -69 0 -13 -14 -16 -67 -17 l-68 -1 -19 43 c-10 24 -20 46 -22 51 -6 12 50 8 108 -7z m146 -14 c-10 -43 -14 -46 -36 -34 -25 13 -26 37 -2 51 33 20 45 14 38 -17z m2249 -72 c9 -52 21 -114 26 -138 25 -115 30 -137 40 -176 15 -58 3 -68 -20 -16 -25 54 -42 116 -48 172 -2 24 -11 88 -18 143 -13 90 -13 125 0 112 2 -2 11 -46 20 -97z m1317 90 c0 -4 -8 -14 -17 -22 -14 -12 -76 -15 -286 -17 -148 -1 -293 -5 -322 -10 -29 -4 -97 -9 -152 -11 -55 -1 -135 -5 -178 -8 -82 -5 -310 5 -287 13 8 2 14 11 14 18 0 15 58 22 266 31 63 3 116 7 118 9 8 8 844 5 844 -3z m-1260 -21 c14 -9 13 -10 -2 -10 -10 0 -21 4 -24 10 -8 13 5 13 26 0z m-1061 -26 c15 -18 15 -18 -70 -37 -29 -7 -91 -11 -136 -9 -45 1 -105 -1 -132 -6 -55 -9 -63 0 -28 31 18 17 45 21 176 27 84 3 159 7 166 8 6 1 17 -6 24 -14z m2160 -48 c-56 -25 -70 -27 -209 -25 -83 0 -188 -3 -234 -9 -104 -12 -199 -11 -226 3 -15 8 -30 7 -57 -4 -28 -12 -73 -15 -181 -13 -128 2 -145 4 -148 20 -3 17 9 18 137 17 87 -1 150 3 163 10 28 15 95 15 138 0 26 -9 41 -8 62 2 29 14 247 26 489 26 l125 0 -59 -27z m-1882 12 c7 -11 -20 -35 -67 -57 -29 -14 -64 -17 -184 -16 -84 1 -156 -3 -168 -9 -23 -11 -52 -11 -82 2 -14 6 -18 3 -18 -15 0 -12 -7 -39 -15 -58 l-15 -37 -115 2 -114 2 17 29 c20 37 59 51 141 51 59 0 62 1 46 18 -16 15 -24 16 -72 5 -63 -15 -89 -3 -50 23 32 21 148 32 210 19 40 -8 68 -5 147 16 73 19 115 24 161 20 35 -3 80 -2 100 3 50 13 71 13 78 2z m542 -11 c0 -6 -19 -11 -42 -11 -24 0 -42 5 -42 11 0 5 18 10 42 10 23 0 42 -5 42 -10z m-1854 -10 c3 -6 1 -13 -5 -17 -6 -3 -10 -15 -10 -25 0 -17 -14 -20 -119 -27 -113 -7 -261 -7 -268 -1 -2 2 -4 17 -5 34 -2 30 -2 30 56 27 31 -1 80 -8 107 -14 40 -9 54 -9 68 3 9 7 45 17 81 20 35 3 69 7 76 8 7 1 15 -3 19 -8z m3035 -54 c12 0 -9 -16 -50 -36 -73 -36 -131 -43 -291 -36 -26 1 -71 2 -100 1 -29 0 -99 -2 -155 -3 -58 -1 -122 4 -150 12 -35 9 -51 10 -56 2 -11 -18 -96 -22 -96 -4 0 4 9 18 21 31 19 20 29 22 113 17 50 -3 101 -5 113 -5 90 3 309 13 436 20 83 5 161 8 173 5 11 -2 30 -4 42 -4z m-1250 -6 c15 -6 15 -8 -2 -21 -18 -14 -18 -15 0 -29 11 -8 15 -17 11 -20 -10 -6 -192 -9 -192 -3 0 2 22 18 50 36 66 40 100 49 133 37z m74 -14 c3 -6 -1 -11 -11 -11 -9 0 -14 5 -10 11 3 5 8 10 10 10 2 0 7 -5 11 -10z m-800 -7 c27 -4 49 -10 49 -14 0 -3 -15 -15 -34 -26 -41 -25 -218 -36 -218 -14 1 47 86 70 203 54z m-1085 -39 c0 -46 -16 -59 -74 -59 -35 0 -54 5 -68 21 -24 26 -36 26 -36 1 0 -23 -22 -35 -42 -23 -8 5 -25 4 -39 -2 -38 -18 -92 2 -96 36 -3 26 -1 27 79 34 45 5 119 10 164 12 46 2 86 6 89 9 14 14 23 3 23 -29z m152 25 c3 -5 2 -12 -4 -15 -5 -4 -12 1 -15 9 -7 17 9 22 19 6z m2694 -62 c0 -27 -65 -37 -263 -40 -364 -6 -388 -5 -388 20 0 18 16 19 275 14 152 -3 292 -1 313 4 50 12 63 13 63 2z m-1029 -12 c14 -5 22 -9 17 -9 -5 -1 -4 -9 3 -17 11 -13 10 -17 -4 -22 -27 -11 -275 9 -289 23 -2 2 5 11 16 20 22 16 208 20 257 5z m-843 -6 l32 -7 -39 -34 c-34 -31 -66 -42 -116 -38 -11 1 -11 5 4 21 16 18 16 20 -1 26 -30 12 8 34 66 37 12 0 37 -2 54 -5z m-252 -21 l35 -6 -24 -20 c-21 -17 -26 -17 -36 -4 -12 16 -67 21 -67 7 0 -5 8 -19 17 -33 l18 -25 -38 7 c-21 4 -65 8 -97 8 l-60 1 34 33 c32 31 40 34 109 35 41 1 90 0 109 -3z m-748 -16 c4 -6 2 -17 -4 -23 -7 -6 -12 -20 -12 -29 0 -18 -28 -31 -72 -31 -21 0 -24 4 -20 39 3 36 7 40 40 46 57 10 61 10 68 -2z m-261 -13 c0 -1 4 -17 9 -37 7 -34 7 -34 -28 -31 -33 3 -35 6 -39 44 -3 40 -2 40 27 33 16 -4 30 -8 31 -9z m96 -10 c2 -11 -3 -18 -12 -18 -20 0 -32 17 -22 32 9 15 30 7 34 -14z m1809 -8 c12 -7 78 -8 179 -3 127 5 158 4 151 -6 -5 -8 -21 -12 -41 -9 -40 7 -80 -10 -58 -24 20 -12 4 -25 -19 -15 -28 13 -48 14 -192 16 -182 1 -248 21 -175 53 26 11 126 3 155 -12z m771 1 c6 1 74 4 152 6 l142 4 -47 -23 c-26 -12 -50 -23 -53 -24 -41 -14 -66 -17 -81 -10 -18 8 -91 13 -221 14 -40 1 -55 5 -55 16 0 8 -6 18 -13 21 -7 3 27 4 76 0 49 -3 94 -5 100 -4z m-1570 -21 c0 -6 -7 -11 -16 -11 -9 0 -14 5 -10 11 3 5 11 10 16 10 6 0 10 -5 10 -10z m-194 -43 c6 -5 22 -6 34 -3 13 3 24 1 24 -5 0 -5 -21 -13 -45 -16 -66 -9 -227 -7 -233 3 -8 12 15 29 47 35 35 7 160 -3 173 -14z m247 18 c0 -9 -143 -97 -176 -108 -47 -16 -192 -11 -204 8 -5 8 -9 17 -9 21 0 6 91 11 239 12 36 1 41 7 22 26 -10 10 -5 16 20 26 32 14 108 24 108 15z m600 -12 c32 -9 104 -15 218 -15 223 -1 272 -13 173 -42 -48 -14 -80 -13 -230 9 -35 4 -138 6 -229 3 -91 -3 -165 -2 -165 2 0 14 111 58 147 58 20 0 59 -6 86 -15z m880 -10 c32 -2 67 -5 79 -6 12 -1 1 -8 -25 -16 -53 -16 -146 -13 -191 8 -48 21 -37 32 24 24 30 -4 81 -8 113 -10z m-2551 -17 c8 0 45 3 81 7 67 7 79 -1 57 -36 -13 -20 -248 -41 -269 -23 -41 34 -3 67 68 57 25 -3 54 -6 63 -5z m630 -31 c11 -6 21 -17 21 -25 0 -19 -50 -59 -74 -59 -12 0 -21 -6 -21 -14 0 -22 -63 -64 -76 -50 -8 8 -6 17 8 32 18 21 18 22 -14 22 -19 0 -33 4 -33 9 0 5 22 26 49 46 43 32 62 40 111 48 5 1 18 -3 29 -9z m1370 -25 l105 1 -1 -27 c-1 -36 -31 -40 -150 -18 -54 10 -144 16 -222 15 -72 0 -149 1 -171 4 -22 3 -42 1 -45 -4 -8 -13 -267 -12 -267 2 0 5 8 10 18 10 10 1 31 7 45 16 22 12 74 13 305 7 153 -3 325 -6 383 -6z m369 -101 l4 -47 -17 35 c-8 19 -18 56 -21 84 l-5 49 18 -37 c9 -20 18 -58 21 -84z m88 105 c0 -6 -10 -10 -22 -10 -12 0 -19 4 -15 10 3 6 13 11 21 11 9 0 16 -5 16 -11z m-2358 -46 c-14 -22 -26 -25 -106 -30 -93 -6 -142 1 -148 20 -4 12 117 31 215 34 l55 1 -16 -25z m672 -5 c3 -6 -2 -13 -11 -16 -28 -11 -46 -7 -46 9 0 17 47 23 57 7z m627 -17 c51 -2 108 1 128 7 26 8 53 8 96 0 45 -9 77 -9 131 0 63 11 80 10 129 -5 31 -10 77 -18 102 -18 25 0 43 -3 39 -6 -3 -3 -28 -6 -56 -6 -28 0 -98 -10 -155 -22 -82 -16 -105 -18 -112 -8 -4 8 -16 11 -25 7 -10 -4 -15 -12 -11 -17 3 -6 -1 -11 -11 -11 -9 0 -14 4 -11 9 13 21 -134 34 -388 33 -154 0 -292 11 -280 23 18 18 111 28 223 22 60 -2 151 -6 201 -8z m-940 -32 c2 -6 -3 -20 -11 -31 -13 -18 -18 -19 -60 -6 l-46 13 25 21 c27 21 86 23 92 3z m282 4 c55 9 169 9 174 0 4 -6 24 -12 44 -14 21 -2 44 -8 52 -13 7 -4 75 -8 150 -9 289 0 436 -5 436 -13 0 -4 -51 -16 -113 -26 -120 -19 -311 -22 -365 -5 -18 6 -103 15 -189 20 -246 15 -259 17 -271 29 -9 8 -8 12 1 12 7 0 13 7 13 16 0 14 6 16 28 10 16 -5 34 -7 40 -7z m-687 -29 c-15 -28 -34 -32 -132 -32 -88 0 -107 7 -96 37 5 12 30 15 122 15 111 0 116 -1 106 -20z m-1103 -1 c0 -6 -10 -10 -21 -10 -12 0 -21 4 -21 10 0 6 9 11 21 11 11 0 21 -5 21 -11z m1473 -60 c12 -20 144 -18 144 2 0 20 136 26 190 9 21 -7 89 -13 152 -13 138 0 310 -25 263 -38 -54 -14 -747 -4 -810 12 -18 5 -57 8 -87 7 -66 -1 -68 11 -8 45 39 22 43 22 94 6 29 -9 57 -23 62 -30z m-402 4 c0 -30 -30 -42 -87 -33 -31 4 -71 8 -91 9 -21 1 -38 8 -41 16 -4 12 6 14 52 9 31 -2 68 -1 83 3 44 13 84 11 84 -4z m-125 -61 c10 -5 30 -9 44 -9 35 0 43 -26 13 -42 -17 -8 -40 -10 -70 -5 -26 5 -64 7 -86 6 -33 -2 -39 2 -39 19 0 45 77 62 138 31z m345 9 c23 -7 42 -18 42 -24 0 -21 -25 -36 -59 -36 -37 0 -55 15 -30 25 8 3 16 11 16 17 0 13 -32 -2 -57 -27 -10 -10 -30 -15 -51 -13 l-34 3 58 34 c66 39 61 38 115 21z m453 -27 c15 -6 31 -8 34 -4 12 12 193 15 200 3 5 -7 -5 -11 -26 -11 -18 0 -41 -5 -52 -10 -10 -6 -42 -13 -70 -15 -217 -18 -252 -18 -299 -4 -29 10 -70 14 -102 10 -51 -4 -54 -3 -54 20 l0 25 171 -1 c93 -1 183 -7 198 -13z m-779 -75 c28 0 27 -15 -1 -42 -28 -25 -21 -25 -93 -5 -31 8 -68 12 -82 8 -23 -5 -25 -3 -18 19 11 34 10 34 61 41 27 4 58 1 78 -7 19 -8 43 -14 55 -14z m152 25 c27 -10 -1 -35 -39 -35 -31 0 -31 0 -13 21 21 22 27 24 52 14z m115 0 c32 -12 17 -25 -30 -25 -26 0 -47 4 -47 10 0 18 46 27 77 15z m345 -20 c39 -4 71 -11 71 -16 0 -11 -12 -13 -100 -12 -183 1 -204 3 -204 17 0 28 25 29 233 11z m-361 -35 c22 -15 -5 -26 -63 -27 -53 -1 -64 14 -19 27 37 10 66 10 82 0z m-151 -22 c-3 -6 -17 -11 -31 -11 -14 0 -28 5 -32 11 -4 6 9 10 32 10 22 0 35 -4 31 -10z m426 0 c19 -13 19 -13 -53 -16 -32 -2 -68 3 -81 9 -19 10 -12 12 47 14 39 2 78 -2 87 -7z m-599 -42 c0 -24 -33 -34 -76 -24 -25 6 -61 9 -81 5 l-37 -5 25 27 c13 15 37 28 52 30 31 4 117 -21 117 -33z m152 0 c3 -5 3 -17 -1 -26 -5 -12 -21 -16 -63 -16 -31 0 -56 4 -56 9 0 31 104 59 120 33z m354 -13 c-6 -7 -39 -13 -72 -15 -60 -3 -67 12 -9 20 68 10 94 8 81 -5z m-608 -36 c24 -4 39 -13 39 -22 0 -24 -69 -47 -121 -39 -43 6 -45 8 -34 31 15 34 45 41 116 30z m354 -14 c0 -6 -7 -11 -16 -11 -9 0 -14 5 -10 11 3 5 11 10 16 10 6 0 10 -5 10 -10z m-115 -11 c0 -6 -8 -10 -16 -10 -9 0 -16 -5 -16 -11 0 -6 11 -10 24 -8 13 1 24 -2 26 -8 4 -15 -150 -19 -177 -5 -31 17 -8 40 46 45 89 8 113 7 113 -3z m141 -52 c4 -6 -5 -11 -20 -11 -15 0 -27 5 -27 11 0 5 9 10 20 10 12 0 24 -5 27 -10z m652 -17 c-1 -8 -5 -15 -9 -15 -4 0 -13 0 -19 0 -8 0 -8 5 1 16 17 20 30 20 27 -1z m-1066 -3 c0 -4 -15 -22 -32 -38 -29 -28 -34 -30 -66 -18 -20 7 -44 13 -55 13 -17 0 -17 2 6 26 20 22 34 26 85 26 34 0 62 -4 62 -9z m152 -11 c25 -4 59 -1 83 7 45 15 125 8 119 -11 -2 -6 -26 -22 -54 -37 -50 -26 -52 -26 -163 -14 -61 7 -120 10 -130 6 -27 -10 -22 1 16 37 27 26 40 31 61 25 14 -3 45 -10 68 -13z m2626 -51 c17 -75 40 -146 53 -165 16 -24 19 -68 3 -68 -6 0 -12 5 -14 13 -2 7 -17 51 -33 97 -34 100 -43 152 -27 152 6 0 14 -13 18 -29z m-2909 -13 c27 0 29 -31 4 -58 -13 -14 -31 -26 -39 -26 -21 0 -76 30 -76 42 0 16 66 53 82 47 8 -3 21 -5 29 -5z m291 -17 c44 -4 81 -10 81 -15 0 -5 -12 -18 -27 -30 -25 -20 -39 -21 -159 -17 -72 2 -134 7 -137 10 -8 8 29 48 55 60 12 4 40 6 63 4 23 -3 79 -8 124 -12z m-982 -31 c-4 -4 -13 -4 -20 -1 -9 3 -6 6 6 6 11 1 17 -2 14 -5z m4864 -4 c0 -6 -5 -11 -11 -11 -6 0 -8 5 -5 11 4 5 9 10 11 10 3 0 5 -5 5 -10z m-4500 -41 c3 -6 -1 -13 -10 -16 -9 -3 -15 0 -15 10 0 17 16 20 25 6z m279 -27 c-1 -32 -31 -49 -93 -52 -61 -3 -63 -3 -52 19 6 12 20 32 31 44 18 20 25 21 67 11 26 -6 47 -16 47 -22z m138 20 c34 -13 65 -15 122 -10 42 4 76 4 76 0 0 -6 -29 -51 -49 -78 -5 -7 -89 -3 -156 8 -36 5 -70 6 -80 0 -26 -13 -30 -11 -30 13 0 18 51 83 66 83 3 0 26 -7 51 -16z m-211 -112 c0 -19 -33 -72 -45 -73 -24 -1 -97 3 -101 7 -2 2 9 22 25 44 27 37 32 40 75 36 25 -2 46 -8 46 -14z m236 -5 c12 -12 27 -15 59 -10 l43 7 -22 -38 c-12 -20 -22 -44 -22 -53 0 -22 -27 -29 -55 -13 -14 8 -74 16 -138 19 l-113 6 37 44 c40 47 54 52 139 54 38 1 60 -4 72 -16z m2886 -41 c11 -29 7 -39 -9 -25 -17 14 -22 42 -7 42 6 0 13 -8 16 -17z m-3182 -64 c4 -4 3 -12 -2 -18 -5 -7 -12 -20 -15 -30 -10 -28 19 -23 32 6 16 37 132 45 241 18 43 -11 80 -22 83 -24 2 -2 -3 -14 -12 -26 -14 -20 -27 -23 -113 -24 -152 -3 -200 0 -231 12 -21 9 -36 8 -60 -2 -18 -7 -35 -10 -38 -7 -3 3 1 27 7 53 12 49 13 49 57 49 24 0 47 -3 51 -7z m3241 -24 c9 -17 8 -21 -3 -21 -15 0 -39 20 -39 33 0 17 31 8 42 -12z m-276 -59 c-3 -4 -12 -4 -20 -1 -8 3 -6 6 6 6 11 1 18 -2 14 -5z m-2948 -46 c25 -7 72 -9 105 -5 70 8 76 8 139 -1 41 -6 50 -12 55 -34 4 -14 6 -27 4 -29 -2 -2 -102 -6 -221 -8 l-218 -4 0 45 c0 60 20 65 136 36z"/>
		<path d="M2961 6717 c0 -7 -11 -13 -24 -14 -13 -1 -42 -7 -65 -14 -23 -7 -58 -15 -76 -18 -19 -3 -37 -10 -40 -15 -4 -5 -30 -9 -58 -9 -29 0 -52 -5 -52 -10 0 -5 -13 -12 -29 -15 -63 -13 -138 -34 -145 -41 -4 -4 -17 -8 -27 -8 -18 0 -84 -32 -111 -55 -20 -16 -16 -29 8 -29 23 0 112 39 121 54 3 5 20 9 37 9 17 0 31 5 31 11 0 5 11 10 25 10 14 0 29 5 32 11 4 5 17 10 30 10 13 0 33 7 44 15 23 17 100 22 100 7 0 -5 -15 -13 -32 -17 -17 -4 -34 -11 -37 -16 -4 -6 -22 -10 -42 -10 -20 0 -36 -5 -36 -10 0 -6 -10 -11 -21 -11 -11 0 -23 -5 -27 -10 -3 -6 -23 -11 -43 -11 -22 0 -45 -8 -59 -21 -21 -19 -21 -21 -3 -28 12 -4 32 0 50 10 17 10 39 18 50 18 11 0 23 5 26 11 4 5 20 10 37 10 17 0 33 5 37 11 3 5 17 10 31 10 14 0 28 5 32 11 3 5 17 10 31 10 14 0 28 5 32 11 3 5 24 10 45 10 21 1 51 7 65 16 14 8 39 15 55 15 15 0 31 5 34 11 4 6 20 11 36 11 17 0 33 6 36 14 9 24 -3 27 -48 11 -65 -23 -78 -18 -36 14 45 34 48 45 12 45 -14 0 -26 -6 -26 -14z m-129 -88 c-10 -3 -26 -3 -36 0 -10 2 -2 5 18 5 20 0 28 -3 18 -5z"/>
		<path d="M2825 6353 c0 -15 17 -22 35 -15 26 10 20 25 -9 25 -15 0 -26 -4 -26 -10z"/>
		<path d="M2159 4489 c-16 -15 -37 -26 -48 -26 -10 0 -25 -8 -32 -16 -7 -9 -22 -16 -33 -16 -11 0 -19 -5 -19 -10 0 -6 -12 -11 -27 -11 -14 0 -26 -5 -26 -10 0 -6 -7 -11 -16 -11 -9 0 -24 -4 -34 -9 -10 -6 -40 -18 -65 -28 -26 -10 -58 -22 -71 -27 -14 -5 -24 -18 -24 -30 0 -18 7 -21 39 -21 23 0 51 9 66 21 14 11 32 20 39 20 7 0 44 17 84 37 39 20 77 37 84 37 8 0 14 5 14 11 0 5 4 10 10 10 6 0 11 -12 11 -26 0 -35 16 -34 38 2 10 16 26 39 36 50 22 25 30 70 14 76 -6 2 -24 -8 -40 -23z"/>
		<path d="M2468 4409 c-38 -16 -77 -30 -87 -30 -18 0 -25 -22 -12 -35 3 -3 27 3 53 14 26 11 66 24 88 27 23 4 42 11 42 16 0 5 9 9 21 9 11 0 21 7 21 16 0 24 -49 18 -126 -17z"/>
		<path d="M3231 4162 c-11 -11 -233 -67 -266 -67 -18 0 -39 -7 -46 -16 -7 -8 -22 -15 -33 -15 -26 0 -135 -53 -135 -65 0 -14 6 -12 121 38 29 12 81 29 115 37 35 8 68 18 73 23 6 5 19 9 30 9 49 0 204 61 159 62 -6 0 -14 -2 -18 -6z"/>
		<path d="M2678 4095 c-9 -6 -36 -10 -61 -10 -24 0 -44 -4 -44 -9 0 -12 -49 -33 -76 -33 -29 0 -92 -23 -92 -33 0 -18 24 -21 81 -10 73 15 172 43 187 55 7 4 28 10 47 12 23 3 37 10 40 21 4 20 -10 23 -27 6 -8 -8 -13 -8 -18 0 -9 14 -17 14 -37 1z"/>
		<path d="M2742 3942 c-20 -8 -45 -15 -57 -15 -13 0 -43 -7 -68 -16 -24 -8 -66 -23 -92 -32 -38 -14 -47 -21 -47 -42 0 -30 1 -31 44 -7 59 32 148 65 203 75 70 13 89 22 89 39 0 18 -27 18 -72 -2z"/>
		<path d="M2643 3323 c-16 -14 -36 -26 -44 -26 -7 0 -19 -7 -26 -16 -8 -8 -27 -15 -43 -15 -16 0 -40 -10 -53 -21 l-25 -21 26 0 c48 0 166 48 193 80 15 16 27 33 27 38 1 15 -26 6 -55 -19z"/>
		<path d="M2630 3238 c-23 -13 -51 -25 -63 -25 -12 0 -31 -7 -42 -15 -12 -9 -27 -16 -35 -16 -21 -1 -85 -53 -85 -70 0 -20 12 -18 53 9 47 32 101 57 144 66 52 11 127 81 83 78 -7 -1 -32 -13 -55 -27z"/>
		<path d="M2741 3164 c-21 -9 -51 -23 -67 -31 -16 -8 -36 -14 -45 -14 -17 0 -59 -22 -69 -37 -12 -17 9 -29 30 -17 46 27 145 64 168 64 37 0 67 18 60 37 -8 19 -30 19 -77 -2z"/>
		<path d="M3462 2891 c-20 -5 -22 -13 -10 -32 6 -10 16 -8 38 7 24 15 26 20 12 25 -10 4 -19 6 -19 6 -1 -1 -11 -4 -21 -6z"/>
		<path d="M3576 5482 c-12 -19 -5 -21 36 -13 20 4 65 4 99 -1 60 -8 80 -5 65 10 -14 14 -192 17 -200 4z"/>
		<path d="M3743 5339 c-29 -9 -70 -15 -91 -15 -21 0 -50 -5 -64 -10 -15 -6 -45 -13 -68 -16 -65 -10 -274 -64 -283 -73 -12 -12 74 2 155 25 37 11 110 25 162 32 52 6 114 18 137 27 23 8 62 15 87 15 32 0 44 4 44 15 0 19 -9 19 -79 0z"/>
		<path d="M2171 1329 c-10 -7 -18 -20 -18 -28 0 -10 2 -11 8 -3 4 6 18 15 31 19 25 8 33 27 10 27 -7 -1 -21 -7 -31 -15z"/>
	</g>
</svg>
