<?xml version="1.0" encoding="utf-8"?>
<svg xmlns="http://www.w3.org/2000/svg" height="580.000000pt" preserveAspectRatio="xMidYMid meet" version="1.0" viewBox="0 0 579.569291 580.000000" width="579.569291pt">
	<title>N drop capital.</title>
	<metadata>
Created by Potrace Professional 1.1m
</metadata>
	<g fill="#000000" stroke="none" transform="translate(-18.722394,604.000000) rotate(-360.00) scale(0.095238,-0.095238)">
		<path d="M2893 6332 c-4 -6 -38 -11 -76 -11 -69 0 -83 -3 -188 -36 -30 -9 -68 -17 -84 -17 -35 -1 -126 -23 -136 -34 -5 -4 -24 -7 -43 -7 -19 0 -35 -5 -35 -11 0 -6 -10 -10 -22 -10 -12 0 -46 -12 -74 -27 -29 -14 -62 -26 -73 -26 -11 0 -20 -5 -20 -10 0 -6 -9 -11 -21 -11 -12 0 -21 -4 -21 -8 0 -4 -15 -15 -34 -23 -19 -8 -56 -31 -83 -50 -26 -19 -58 -34 -71 -34 -12 0 -22 -5 -22 -11 0 -6 -5 -10 -11 -10 -9 0 -91 -50 -104 -63 -3 -3 -42 -24 -87 -47 -45 -22 -81 -45 -81 -50 0 -5 -10 -8 -21 -8 -12 0 -21 -5 -21 -11 0 -6 -8 -10 -16 -10 -9 0 -16 -5 -16 -11 0 -6 -9 -10 -20 -10 -11 0 -22 -7 -25 -15 -6 -15 -96 -80 -111 -80 -5 0 -65 -54 -134 -120 -178 -171 -193 -186 -193 -203 0 -5 -14 -23 -31 -39 -18 -17 -32 -35 -32 -42 0 -6 -14 -17 -31 -25 -48 -21 -83 -52 -101 -91 -10 -20 -24 -36 -31 -36 -8 0 -34 -42 -59 -92 -25 -51 -49 -94 -54 -96 -4 -2 -7 -12 -7 -23 0 -11 -4 -20 -9 -20 -5 0 -14 -16 -21 -35 -7 -18 -23 -46 -36 -61 -22 -25 -30 -36 -63 -96 -7 -13 -19 -28 -26 -32 -8 -5 -14 -15 -14 -24 0 -8 -4 -15 -10 -15 -6 0 -11 -7 -11 -16 0 -9 -9 -27 -21 -39 -11 -12 -21 -28 -21 -36 0 -7 -11 -30 -26 -52 -14 -21 -26 -50 -26 -63 0 -14 -5 -25 -10 -25 -6 0 -11 -8 -11 -18 0 -9 -4 -32 -10 -50 -5 -17 -15 -53 -22 -79 -7 -26 -19 -63 -27 -82 -8 -19 -14 -48 -14 -65 0 -17 -5 -31 -11 -31 -6 0 -10 -14 -10 -31 0 -17 -5 -34 -11 -38 -6 -3 -11 -20 -11 -37 0 -17 -4 -39 -9 -50 -16 -32 -33 -109 -56 -254 -18 -113 -22 -186 -21 -362 1 -284 32 -686 56 -731 5 -10 10 -40 10 -66 0 -26 4 -50 10 -54 6 -3 11 -27 11 -53 0 -26 4 -46 10 -46 6 0 11 -17 11 -37 0 -20 4 -37 10 -37 6 0 11 -8 11 -17 0 -22 146 -318 170 -345 10 -11 18 -24 19 -28 0 -5 8 -23 19 -41 l20 -33 38 37 c21 20 38 42 38 48 0 6 5 12 10 12 11 0 64 76 64 92 0 5 30 41 67 80 39 40 66 76 62 84 -3 10 6 17 27 22 30 6 38 16 33 40 0 5 3 6 8 3 6 -3 21 3 34 15 13 11 25 19 27 17 2 -2 5 -23 6 -47 1 -30 -5 -51 -18 -65 -16 -18 -17 -24 -6 -34 11 -11 15 -10 19 0 8 22 75 87 90 87 41 0 75 30 119 105 12 22 86 84 99 84 15 -1 84 66 84 80 0 22 -16 17 -56 -20 -21 -19 -62 -53 -93 -76 -74 -57 -93 -76 -93 -94 0 -8 -12 -22 -26 -31 -29 -19 -100 -23 -100 -6 0 6 22 34 49 63 27 29 46 55 42 59 -4 4 -36 -15 -71 -43 -68 -53 -92 -58 -47 -9 15 16 27 34 27 40 0 5 13 21 30 34 16 12 42 35 58 49 16 15 32 27 36 27 4 0 15 9 23 21 17 24 38 27 46 8 3 -7 5 -4 6 7 0 11 22 40 48 65 26 26 47 53 47 61 0 7 16 27 35 44 35 30 81 93 135 186 20 34 36 49 51 49 17 0 21 -5 16 -17 -3 -9 2 -30 12 -47 14 -24 25 -31 45 -28 25 3 26 7 29 68 2 44 8 66 17 66 7 0 30 16 50 36 21 19 48 39 60 42 13 4 23 16 23 28 0 11 3 20 8 20 4 0 15 13 25 28 17 29 24 31 136 39 45 3 62 0 66 -10 8 -21 45 -18 67 4 11 11 27 22 36 26 9 3 18 17 20 30 2 13 11 25 20 27 12 4 12 2 2 -5 -11 -8 -11 -12 0 -21 18 -15 79 -11 110 6 12 7 43 13 69 13 70 0 110 52 55 73 -15 5 -26 17 -26 26 0 21 -20 20 -45 -2 -14 -13 -36 -18 -67 -17 -25 1 -48 -2 -52 -8 -3 -5 -20 -9 -37 -9 -23 0 -30 -5 -30 -21 0 -25 -18 -37 -35 -23 -7 5 -34 13 -60 16 -26 3 -57 8 -69 12 -15 5 -25 1 -29 -10 -3 -9 -16 -16 -27 -16 -11 0 -23 -6 -26 -14 -4 -7 -5 5 -2 26 3 22 0 42 -5 46 -6 3 -10 -6 -10 -21 0 -14 -4 -28 -9 -32 -13 -7 -24 41 -17 71 6 24 -7 124 -20 156 -13 29 23 32 60 6 35 -25 107 -62 157 -80 20 -8 29 -18 29 -36 0 -32 4 -36 41 -30 28 4 32 9 32 39 0 32 4 37 39 46 22 6 49 11 60 11 18 0 58 37 59 52 0 10 65 33 92 33 13 0 32 -10 44 -21 12 -12 32 -21 46 -21 21 0 26 -7 31 -40 9 -53 45 -93 94 -101 21 -3 55 -9 75 -13 21 -3 38 -1 42 5 4 7 20 12 36 12 31 0 41 13 66 86 10 30 30 51 84 89 40 27 72 56 72 64 0 8 6 13 13 10 22 -8 10 -92 -17 -114 -12 -10 -28 -19 -36 -19 -35 -1 -45 -115 -13 -147 21 -21 21 -20 41 5 25 31 37 32 67 5 18 -17 19 -21 6 -21 -9 0 -19 -10 -22 -22 -3 -12 -16 -24 -28 -27 -36 -10 -27 -36 10 -28 31 6 39 -1 23 -23 -13 -20 -59 -12 -84 14 -24 23 -25 25 -6 39 19 13 18 14 -8 21 -15 4 -38 1 -50 -5 -13 -7 -31 -11 -41 -10 -42 7 -93 -12 -105 -38 -13 -29 -33 -35 -33 -10 0 17 -58 22 -68 6 -4 -6 -22 -13 -40 -17 -19 -4 -62 -21 -96 -38 -34 -16 -67 -30 -75 -30 -7 0 -16 -7 -19 -16 -9 -22 0 -20 88 16 78 33 111 39 99 21 -3 -6 1 -13 9 -17 9 -3 21 -19 26 -34 9 -26 7 -32 -20 -49 -37 -25 -39 -36 -4 -36 14 0 26 3 26 8 0 5 16 15 36 23 20 8 39 20 42 28 3 8 19 14 36 14 17 0 33 6 36 13 3 10 8 9 21 -4 12 -12 14 -20 5 -28 -15 -15 -3 -28 18 -19 12 4 15 14 10 33 -7 27 12 62 28 52 14 -9 11 -44 -4 -51 -10 -5 -10 -8 0 -13 22 -10 15 -32 -15 -52 -65 -42 -119 -92 -110 -102 6 -6 18 -3 30 7 10 8 53 42 95 75 61 48 76 66 79 93 3 32 4 33 63 36 37 2 61 -1 61 -8 0 -6 -6 -11 -12 -11 -7 0 -32 -21 -55 -46 -24 -25 -52 -48 -62 -52 -10 -3 -19 -16 -18 -28 0 -11 -6 -21 -13 -21 -6 0 -9 -3 -6 -6 10 -10 60 19 66 38 3 11 20 25 37 33 17 7 31 22 31 32 0 10 9 23 21 29 20 10 20 9 8 -17 -7 -15 -26 -42 -42 -59 -16 -17 -29 -36 -29 -41 0 -6 -14 -25 -32 -44 -17 -18 -34 -42 -37 -52 -3 -10 -10 -18 -16 -18 -5 0 -9 -5 -9 -12 0 -7 -12 -28 -27 -47 -14 -19 -26 -39 -26 -45 0 -6 -4 -11 -8 -11 -5 -1 -15 -17 -22 -37 -7 -20 -18 -37 -23 -37 -6 0 -10 -7 -10 -16 0 -8 -5 -15 -10 -15 -6 0 -11 -8 -11 -16 0 -9 -12 -35 -26 -58 -15 -23 -26 -46 -26 -52 0 -6 -12 -11 -27 -11 -14 0 -26 -5 -26 -10 0 -6 5 -11 12 -11 7 0 17 -6 24 -14 6 -8 34 -22 62 -33 28 -10 62 -30 75 -43 23 -23 90 -37 90 -20 -1 13 -31 37 -46 36 -9 0 -30 12 -46 27 -50 45 -54 47 -71 47 -21 0 -21 2 11 55 14 25 29 53 32 63 4 10 10 19 15 19 4 -1 11 11 14 26 4 14 12 26 17 26 6 0 11 9 11 21 0 12 4 21 10 21 6 0 11 7 11 16 0 8 4 16 10 16 6 0 11 5 11 13 0 7 11 26 26 43 14 17 26 37 26 44 0 7 4 15 8 17 5 2 31 38 59 79 27 42 54 77 60 77 5 0 10 9 10 21 0 11 4 21 10 21 6 0 11 5 11 11 0 18 28 41 51 41 15 0 22 7 22 21 0 14 7 21 21 21 24 0 28 -31 8 -63 -10 -17 -10 -25 0 -42 7 -11 13 -42 13 -68 0 -46 -14 -72 -54 -96 -38 -23 -61 -75 -61 -134 0 -43 -4 -59 -15 -59 -19 0 -31 -32 -18 -45 27 -27 75 33 75 95 0 13 7 42 16 65 15 36 22 43 48 43 16 0 30 5 30 11 0 25 32 41 84 41 46 0 55 -3 60 -21 9 -33 24 -24 24 14 0 27 6 38 27 47 37 17 36 18 36 -32 0 -26 12 -72 29 -110 23 -52 33 -66 50 -63 31 4 32 51 3 99 -44 71 -60 115 -49 127 15 14 1 37 -18 30 -8 -4 -17 3 -20 13 -3 11 -25 32 -48 47 -23 15 -41 32 -41 37 0 6 12 20 27 32 26 20 27 23 11 41 -17 18 -17 21 3 45 20 24 21 24 52 7 27 -15 33 -16 33 -3 0 9 -8 16 -16 16 -9 0 -16 5 -16 11 0 6 4 8 9 5 13 -8 68 -31 80 -33 6 -1 17 -3 24 -3 7 -1 13 -6 13 -12 0 -6 -7 -10 -15 -8 -26 5 -17 -18 9 -25 14 -4 51 -19 82 -34 41 -20 68 -26 105 -23 28 2 53 0 55 -5 3 -4 22 -11 42 -14 32 -7 75 -45 63 -57 -4 -5 -44 9 -108 37 -37 16 -69 11 -62 -10 2 -7 18 -16 35 -19 44 -9 57 -18 50 -37 -5 -11 1 -15 19 -15 15 0 35 -9 45 -21 12 -13 14 -21 7 -21 -9 0 -10 -5 -1 -21 6 -12 8 -21 4 -21 -9 0 -97 70 -127 102 -13 13 -31 24 -40 24 -9 0 -44 18 -77 39 -133 88 -165 90 -48 3 91 -68 151 -114 207 -161 47 -39 60 -45 60 -28 0 6 4 9 11 5 7 -5 7 -12 -2 -22 -7 -9 -8 -14 -1 -14 11 0 26 -32 19 -40 -3 -3 -23 10 -45 28 -57 46 -68 40 -19 -11 27 -27 37 -45 29 -48 -24 -8 -14 -24 14 -24 23 0 71 -29 101 -60 110 -118 199 -220 299 -345 l33 -41 -14 41 c-7 23 -30 64 -51 92 -37 49 -40 69 -5 32 47 -51 104 -97 119 -97 10 0 15 -7 13 -18 -1 -10 4 -18 11 -19 8 0 21 -15 29 -34 20 -49 0 -44 -61 15 -59 59 -67 48 -12 -16 36 -42 37 -46 21 -62 -22 -23 -45 -10 -73 40 -11 20 -33 50 -49 68 -16 17 -35 42 -42 56 -7 14 -18 22 -27 18 -8 -3 -20 5 -27 18 -15 29 -120 161 -135 170 -16 10 -12 -7 7 -28 9 -10 12 -19 6 -19 -13 0 -20 7 -79 73 -23 24 -43 42 -47 38 -5 -5 49 -78 122 -163 18 -21 44 -51 59 -69 15 -17 29 -40 33 -50 5 -15 25 -26 25 -13 0 11 -48 87 -75 119 -17 19 -30 39 -30 46 0 19 29 -11 76 -78 26 -37 49 -59 57 -56 8 3 14 -2 14 -12 0 -9 13 -38 29 -65 16 -26 40 -82 53 -124 17 -54 28 -74 39 -70 9 4 22 -9 35 -35 23 -44 101 -131 110 -122 8 8 -10 64 -35 106 -28 47 -18 59 15 18 49 -61 91 -150 84 -178 -6 -25 -32 -47 -55 -47 -20 -1 -55 40 -76 87 -11 26 -26 51 -31 54 -6 4 -10 14 -10 22 0 19 -40 59 -45 45 -2 -6 -17 12 -32 40 -16 28 -38 63 -47 79 -10 15 -33 53 -52 84 -19 31 -48 72 -66 92 -44 51 -41 16 3 -37 55 -65 155 -238 155 -268 0 -22 -19 2 -74 95 -31 52 -63 95 -70 95 -15 0 -77 80 -77 100 0 7 -12 28 -27 48 -14 20 -43 62 -64 93 -33 49 -36 59 -22 67 14 9 6 23 -46 84 -34 41 -61 82 -61 93 0 12 -8 19 -20 19 -11 0 -29 13 -40 29 -24 37 -112 118 -128 118 -24 0 -11 -31 20 -49 17 -10 33 -26 36 -36 3 -9 20 -31 37 -47 30 -30 42 -67 22 -67 -6 -1 -24 -12 -41 -27 l-31 -26 -18 27 c-9 14 -21 23 -27 20 -6 -4 -4 -15 6 -29 8 -12 15 -26 16 -31 0 -15 -33 -8 -39 8 -5 14 -8 14 -20 -3 -7 -11 -17 -37 -21 -58 -5 -29 -15 -43 -39 -55 -40 -20 -39 -20 -39 10 0 14 -4 28 -9 32 -13 7 -23 -50 -12 -62 6 -6 3 -15 -8 -22 -13 -10 -15 -17 -6 -27 13 -17 24 -82 17 -102 -4 -10 -9 -10 -19 -2 -10 9 -20 5 -40 -14 -14 -15 -46 -32 -71 -40 -58 -16 -57 -15 -37 -35 21 -22 52 -13 99 27 19 17 41 30 48 30 18 0 45 -40 50 -72 3 -19 -4 -26 -36 -38 -22 -7 -43 -16 -47 -20 -11 -11 50 -6 70 6 16 10 23 9 37 -4 9 -9 17 -23 17 -31 0 -8 5 -21 13 -28 10 -10 10 -15 -1 -21 -20 -13 -12 -96 10 -110 13 -8 30 -7 61 3 35 12 49 12 64 2 11 -6 27 -12 36 -12 17 0 58 -72 58 -101 0 -27 12 -9 20 30 l7 34 18 -35 c10 -20 18 -49 18 -65 0 -17 5 -33 11 -36 5 -4 10 -26 10 -50 0 -43 4 -59 36 -162 9 -29 17 -75 17 -102 0 -27 4 -48 10 -48 15 0 13 -46 -2 -62 -11 -10 -11 -17 0 -33 7 -11 13 -29 13 -40 -1 -11 3 -23 7 -27 5 -5 9 -16 9 -26 1 -9 2 -31 3 -47 1 -19 6 -28 15 -25 7 2 11 12 10 22 -2 10 4 25 13 34 11 11 14 24 8 39 -10 29 -10 144 1 166 6 13 3 19 -13 25 -16 4 -24 19 -29 48 -3 23 -10 44 -15 47 -5 3 -9 20 -9 37 0 17 -5 31 -11 31 -6 0 -10 22 -10 50 0 28 -6 56 -12 62 -7 7 -13 40 -13 73 -2 60 -1 61 29 65 19 2 34 -3 40 -13 8 -14 11 -14 30 5 23 23 41 18 41 -12 0 -11 5 -20 11 -20 19 0 11 92 -11 128 -18 29 -21 31 -21 11 0 -36 -11 -56 -33 -56 -16 1 -19 8 -19 48 0 26 -5 47 -11 47 -6 0 -10 17 -10 37 0 20 -5 37 -11 37 -6 0 -10 13 -10 30 0 30 -29 97 -45 104 -4 2 -8 14 -8 27 -1 22 -22 59 -35 59 -14 0 -6 -38 14 -63 11 -14 21 -37 21 -50 0 -24 2 -30 35 -95 10 -19 18 -47 18 -61 0 -14 4 -25 10 -25 6 0 11 -26 11 -58 0 -60 -6 -66 -45 -44 -38 21 -44 35 -67 147 -4 16 -11 28 -16 28 -5 1 -9 10 -9 22 0 11 -4 29 -9 39 -15 30 -35 90 -41 121 -3 16 -9 28 -14 28 -5 1 -9 12 -9 27 0 14 -5 26 -11 26 -6 0 -10 14 -10 32 0 17 -5 31 -11 31 -6 0 -10 9 -10 20 0 12 -5 24 -11 27 -16 10 -25 -24 -13 -50 33 -74 45 -105 45 -123 0 -11 4 -22 9 -26 5 -3 12 -23 15 -45 3 -22 9 -52 13 -68 4 -19 3 -29 -5 -29 -6 0 -11 7 -11 16 0 8 -5 16 -11 16 -6 0 -10 -15 -10 -32 0 -17 4 -31 10 -31 6 0 11 -12 11 -27 0 -14 5 -26 13 -26 7 0 4 -6 -7 -12 -14 -8 -26 -8 -43 1 -18 10 -29 10 -45 2 -37 -20 -58 -4 -52 39 3 24 -3 55 -15 81 -18 41 -18 47 -1 105 9 34 21 64 25 66 13 5 11 44 -1 44 -6 0 -11 9 -11 20 0 11 -4 23 -9 26 -13 8 -22 -20 -22 -68 0 -22 -5 -43 -11 -47 -6 -3 -10 -20 -10 -37 0 -61 -20 -29 -25 40 -3 39 -8 87 -13 106 -7 33 -6 36 15 30 18 -4 23 -1 23 20 0 14 6 25 13 25 13 0 30 24 43 63 4 12 7 10 12 -8 11 -34 26 -29 26 9 0 28 3 32 22 27 13 -3 24 0 27 10 3 8 20 15 37 14 28 0 30 -2 19 -15 -11 -14 -9 -20 14 -40 16 -13 28 -32 28 -43 0 -10 5 -15 11 -11 17 10 2 57 -33 101 -17 21 -30 43 -30 48 0 10 50 40 55 33 15 -19 71 -106 71 -111 0 -3 18 -32 42 -65 23 -33 42 -66 42 -72 0 -7 19 -42 43 -78 25 -37 52 -79 61 -93 10 -14 31 -58 48 -98 16 -39 34 -74 40 -77 7 -4 8 1 3 13 -4 11 -11 34 -14 52 l-5 31 19 -26 c10 -14 21 -29 25 -31 3 -3 17 -24 30 -47 29 -50 24 -72 -16 -62 -24 6 -27 4 -20 -13 5 -11 9 -27 9 -36 0 -25 21 -32 35 -12 12 16 13 16 20 -1 9 -23 26 -24 26 -2 0 10 6 15 14 12 10 -4 13 2 9 20 -2 14 -1 25 3 25 17 0 57 -61 58 -87 0 -31 -15 -38 -29 -13 -6 11 -12 12 -24 4 -11 -8 -12 -12 -2 -16 7 -3 13 -14 13 -24 0 -10 7 -25 16 -32 8 -7 16 -24 16 -38 0 -15 7 -29 18 -32 10 -4 22 -12 26 -18 18 -27 6 20 -15 58 -26 45 -24 51 19 54 25 2 33 -4 48 -33 10 -20 23 -41 29 -47 16 -16 27 1 11 19 -11 13 -8 17 17 26 17 6 39 16 50 23 17 9 23 8 35 -8 7 -10 13 -26 14 -35 0 -9 6 -26 13 -38 8 -11 25 -49 38 -83 13 -35 31 -78 39 -96 9 -18 15 -42 12 -53 -3 -14 -11 -6 -33 33 -16 29 -26 44 -23 34 6 -21 -3 -49 -15 -50 -5 0 -24 37 -42 82 -40 97 -60 131 -74 123 -10 -6 2 -32 35 -77 12 -17 15 -30 8 -38 -6 -6 -7 -23 -4 -36 6 -22 4 -23 -28 -18 -40 6 -33 0 -64 59 l-25 47 -3 -56 c-3 -48 -6 -55 -21 -48 -10 4 -42 11 -71 15 -73 10 -86 18 -93 53 -5 28 -48 84 -64 84 -3 0 -6 -11 -6 -24 0 -38 -24 -61 -64 -60 -35 0 -35 0 -9 13 16 8 27 24 30 42 1 16 7 28 12 28 5 0 15 6 23 14 30 28 71 43 84 30 25 -24 40 -13 40 28 0 38 -1 40 -37 41 -29 1 -36 -3 -36 -19 0 -11 -8 -20 -16 -20 -9 0 -38 -22 -64 -48 -54 -52 -78 -54 -78 -6 0 38 -9 65 -22 65 -18 0 -10 -84 12 -124 19 -36 19 -40 3 -43 -10 -2 -20 1 -22 8 -6 17 -33 14 -52 -5 -14 -14 -15 -18 -2 -26 8 -5 23 -10 33 -10 10 0 19 -5 19 -10 0 -7 31 -11 73 -11 72 0 74 0 74 27 0 21 4 26 16 21 9 -3 19 -6 21 -6 3 0 5 -7 5 -15 0 -19 32 -90 41 -90 4 0 14 9 24 21 19 22 61 29 61 11 0 -6 7 -11 17 -11 20 0 45 -29 45 -54 0 -10 4 -19 8 -21 5 -2 16 -25 25 -50 19 -54 41 -69 41 -28 0 15 -5 27 -10 27 -6 0 -11 7 -11 16 0 8 7 16 15 15 28 0 37 -65 12 -97 -16 -21 -37 -24 -38 -5 -1 7 -6 3 -12 -10 -15 -30 -37 -30 -62 -1 -24 27 -25 36 -3 44 16 6 16 9 -1 25 -25 24 -75 28 -83 6 -6 -14 -8 -14 -23 1 -9 9 -33 16 -52 17 -31 0 -37 4 -43 28 -15 64 -22 68 -58 33 -18 -17 -29 -34 -25 -38 4 -4 11 0 16 8 8 13 13 12 31 -5 12 -11 18 -22 13 -26 -22 -15 -21 -41 4 -60 22 -17 26 -27 26 -85 0 -37 4 -65 10 -65 6 0 11 -30 11 -69 0 -38 -5 -68 -11 -68 -6 0 -10 -26 -10 -58 0 -32 4 -57 10 -57 6 0 11 -13 11 -29 1 -16 5 -39 10 -50 6 -13 9 46 10 153 0 95 -4 178 -9 183 -5 6 -12 34 -15 63 -3 29 -8 65 -12 80 -10 36 13 44 69 25 47 -17 104 -54 104 -69 0 -5 -15 -10 -34 -12 -30 -3 -34 -7 -31 -29 5 -39 20 -50 37 -28 20 28 54 18 58 -17 2 -21 -2 -29 -14 -29 -20 0 -21 -15 0 -32 12 -10 16 -10 16 1 0 12 2 12 13 0 10 -11 10 -15 0 -18 -10 -4 -10 -11 -2 -26 13 -25 8 -33 -24 -38 -27 -4 -42 -23 -35 -43 3 -7 6 -33 6 -57 0 -60 12 -41 14 23 1 28 4 54 7 57 2 3 18 3 34 0 24 -5 29 -11 28 -41 0 -19 -4 -38 -10 -41 -13 -8 -14 -79 -1 -79 5 0 13 13 17 29 7 26 8 27 16 8 5 -12 9 -34 9 -50 1 -32 22 -41 22 -9 0 11 -10 61 -21 111 -12 49 -19 95 -15 101 4 6 -2 20 -12 31 -17 20 -17 21 1 41 13 15 26 19 43 15 16 -4 25 -2 25 6 0 7 12 11 29 9 23 -3 29 -9 29 -29 0 -22 -6 -27 -32 -30 -40 -5 -68 -44 -31 -44 8 0 16 4 16 9 0 11 50 23 67 16 17 -7 59 -157 95 -348 13 -68 14 -90 4 -106 -10 -16 -10 -27 1 -52 12 -31 15 -32 36 -17 21 13 23 20 16 70 -4 30 -13 74 -20 97 -24 84 -25 89 -6 89 30 0 47 -26 50 -79 3 -44 7 -52 27 -55 13 -2 24 -8 24 -13 0 -6 4 -10 10 -10 6 0 11 21 11 47 0 43 13 64 22 36 3 -6 33 -9 77 -7 69 3 71 3 32 11 -76 15 -76 15 -65 109 2 18 0 39 -4 46 -11 18 -31 2 -31 -25 0 -42 -11 -47 -78 -37 -42 7 -68 17 -82 33 -25 29 -20 64 10 69 13 1 24 10 24 19 0 12 -7 15 -23 10 -13 -3 -29 -1 -37 6 -10 8 -14 6 -14 -9 -1 -12 -5 -7 -11 12 -5 18 -7 46 -4 63 4 20 3 27 -3 18 -7 -10 -12 -7 -21 13 -10 22 -8 27 11 41 22 14 24 13 42 -28 l18 -44 -6 45 c-9 65 10 55 37 -19 12 -34 27 -63 33 -63 14 1 13 6 -28 92 -26 54 -34 83 -27 90 21 20 40 -12 59 -98 13 -60 22 -83 34 -83 11 0 13 5 8 18 -4 10 -13 60 -19 112 -7 51 -17 95 -23 97 -7 2 -23 -6 -36 -17 -14 -12 -31 -22 -39 -22 -21 1 -17 32 4 39 10 3 36 14 57 25 48 26 54 26 46 0 -7 -23 7 -114 26 -162 17 -45 20 -30 7 34 -9 43 -9 57 2 64 11 6 11 15 -2 45 -23 56 -33 127 -17 121 8 -2 19 -20 26 -40 7 -20 20 -38 30 -40 14 -2 21 -16 33 -64 1 -3 4 -13 8 -21 3 -9 16 -49 28 -88 22 -75 27 -112 14 -112 -25 1 -37 27 -55 116 -12 66 -22 93 -27 81 -4 -10 0 -41 9 -68 19 -59 14 -73 -9 -23 l-16 36 6 -42 c4 -23 9 -56 12 -74 4 -26 3 -28 -7 -13 -6 10 -16 19 -22 19 -6 0 -8 -5 -4 -11 4 -6 1 -18 -6 -27 -15 -17 -6 -30 20 -32 49 -3 53 -5 47 -20 -4 -10 0 -15 11 -15 12 0 17 9 17 31 0 17 3 32 7 32 14 0 34 -39 35 -66 0 -16 4 -29 9 -29 15 0 25 54 13 67 -18 17 -13 26 10 20 32 -8 32 -10 60 -165 10 -50 35 -70 60 -45 16 16 16 21 2 47 -21 39 -38 95 -38 125 0 13 -5 25 -11 25 -6 0 -10 4 -10 10 0 18 28 12 43 -10 10 -15 22 -19 43 -14 16 3 29 9 29 14 0 21 63 73 88 73 15 0 28 4 28 8 0 4 15 14 34 22 59 24 81 36 81 45 0 5 16 9 36 9 29 0 41 7 60 34 13 19 30 38 37 43 11 6 8 14 -12 32 l-27 25 24 6 c13 4 33 7 45 7 12 0 28 9 36 21 9 12 21 21 28 21 6 0 18 7 25 16 11 13 11 21 0 41 -11 22 -11 28 3 42 9 9 24 17 33 17 15 -1 15 2 0 26 -10 15 -13 26 -6 26 6 0 15 -8 20 -17 12 -21 50 -15 50 8 0 19 20 39 63 63 17 10 33 27 35 37 2 11 11 29 21 40 28 34 44 67 44 90 0 13 19 40 47 65 26 23 47 51 47 62 0 11 5 20 11 20 5 0 10 8 10 19 0 10 3 22 6 25 9 9 67 184 68 203 0 8 4 15 10 15 6 0 11 14 11 32 0 17 4 31 9 31 5 0 12 18 15 39 3 22 13 73 23 113 17 71 31 147 43 229 4 21 10 39 15 39 4 0 10 18 13 39 2 22 13 68 23 103 34 115 40 157 40 268 0 196 -24 633 -34 644 -6 6 -11 21 -11 35 0 29 -20 117 -33 142 -5 10 -9 27 -9 39 0 11 -5 23 -10 27 -6 3 -11 23 -11 43 0 19 -4 44 -9 54 -13 25 -34 104 -40 152 -3 22 -10 40 -15 40 -5 0 -9 8 -9 19 0 10 -12 42 -26 71 -14 29 -30 72 -37 96 -6 25 -15 45 -19 45 -8 0 -21 29 -44 99 -8 23 -25 60 -39 81 -13 22 -25 44 -24 50 0 6 -5 19 -10 30 -5 10 -16 32 -23 49 -8 18 -18 36 -23 42 -24 32 -60 92 -60 100 0 6 -5 11 -10 11 -6 0 -11 4 -11 9 0 6 -28 40 -63 75 -35 36 -63 69 -63 74 0 5 -19 27 -42 50 -23 23 -42 45 -42 49 0 6 -80 85 -249 246 -19 17 -38 32 -42 32 -5 1 -30 22 -55 48 -26 25 -52 46 -56 46 -5 0 -20 11 -34 24 -37 35 -56 50 -63 50 -3 0 -12 5 -19 11 -7 5 -41 31 -75 57 -35 26 -69 52 -76 58 -7 6 -15 11 -18 11 -5 0 -35 23 -73 57 -6 6 -26 18 -43 26 -18 8 -40 22 -51 31 -29 24 -275 150 -385 197 -20 9 -45 20 -55 25 -10 6 -25 10 -34 10 -8 0 -33 8 -55 17 -79 34 -96 40 -179 53 -19 3 -37 10 -40 15 -3 5 -19 10 -36 10 -17 0 -33 4 -37 10 -3 6 -18 11 -33 11 -14 0 -36 5 -48 11 -44 24 -141 40 -241 41 -56 0 -105 5 -108 11 -4 6 -110 10 -284 10 -173 0 -279 -4 -283 -10z m-192 -263 c6 -20 16 -45 25 -57 18 -26 19 -120 1 -143 -7 -10 -19 -15 -26 -13 -40 14 -63 -82 -28 -117 13 -13 16 -35 14 -98 -2 -45 0 -105 5 -135 7 -44 5 -55 -9 -60 -13 -5 -15 -1 -10 20 4 15 2 26 -5 26 -6 0 -11 -6 -11 -13 0 -6 -4 -9 -7 -5 -4 3 -2 13 5 21 15 18 5 28 -26 28 -18 0 -27 -8 -32 -29 l-8 -29 -6 32 c-4 17 -1 47 7 67 21 52 18 130 -5 159 -19 23 -21 23 -44 7 -31 -21 -68 -122 -48 -129 8 -3 13 -21 12 -44 -1 -32 -6 -39 -31 -46 -34 -9 -59 -2 -59 17 0 22 -32 28 -58 12 -16 -11 -26 -31 -30 -63 -4 -26 -14 -49 -23 -52 -8 -4 -15 -20 -15 -38 0 -23 -4 -30 -16 -25 -9 3 -18 -2 -22 -11 -5 -14 -10 -14 -29 -5 -12 7 -27 19 -33 27 -6 8 -22 20 -36 27 -25 13 -26 17 -23 102 1 49 7 111 12 137 6 25 14 66 19 89 6 33 13 43 33 45 20 3 23 0 19 -18 -3 -12 0 -26 7 -32 8 -6 16 -28 20 -48 7 -44 46 -90 59 -70 4 8 11 45 15 83 5 53 12 76 31 97 14 15 31 37 37 49 7 13 34 31 62 41 52 19 150 110 150 140 0 20 73 98 88 93 6 -2 14 -20 19 -39z m1657 -148 c5 -10 7 -26 3 -36 -8 -22 26 -98 49 -105 17 -5 17 -8 -3 -47 -11 -23 -27 -42 -34 -42 -8 0 -30 -9 -49 -21 -35 -20 -35 -21 -34 -97 1 -55 -3 -81 -15 -95 -15 -18 -14 -23 9 -68 14 -26 34 -50 45 -53 13 -3 17 -11 12 -24 -7 -25 9 -26 47 -3 22 13 29 25 29 49 0 18 6 34 12 37 7 2 13 18 13 34 0 27 -4 31 -32 31 -17 0 -31 -5 -31 -10 0 -6 -15 -11 -32 -11 -36 0 -40 10 -12 28 11 7 22 31 27 56 16 105 45 154 73 126 6 -6 26 -10 45 -10 46 0 55 -20 21 -47 -33 -26 -37 -73 -11 -102 14 -15 15 -25 6 -48 -6 -16 -15 -53 -19 -82 -9 -68 -26 -100 -72 -135 -20 -16 -37 -38 -37 -49 0 -18 -8 -20 -71 -20 -40 0 -76 -5 -82 -10 -5 -5 -31 -11 -57 -13 l-47 -3 0 46 c0 44 -2 47 -40 62 -36 14 -41 13 -60 -4 -17 -15 -20 -27 -15 -57 4 -20 14 -45 22 -54 8 -9 14 -22 14 -29 0 -16 45 -16 61 0 12 13 12 13 28 -38 4 -12 22 -15 85 -14 61 1 83 -2 89 -14 5 -9 28 -22 51 -30 40 -13 43 -12 63 12 34 41 46 16 32 -70 -6 -41 -13 -85 -15 -99 -4 -38 -25 -86 -47 -111 -10 -11 -27 -51 -37 -89 -10 -38 -26 -86 -35 -108 -17 -37 -20 -39 -66 -39 -46 0 -49 -2 -55 -31 -5 -23 -14 -32 -37 -37 -25 -5 -35 -15 -44 -46 -18 -57 -39 -85 -64 -85 -12 0 -36 -12 -53 -27 -17 -14 -38 -26 -46 -26 -10 0 -15 -11 -15 -32 0 -17 4 -30 8 -29 4 1 18 -1 30 -5 32 -12 78 9 78 34 0 12 6 22 15 22 8 0 21 8 29 19 19 28 53 36 77 18 28 -21 44 -20 51 3 4 11 16 23 28 26 12 3 24 16 28 28 5 20 9 16 30 -29 23 -47 30 -53 67 -59 23 -4 42 -12 42 -18 0 -23 -22 -51 -40 -51 -11 0 -24 -13 -30 -29 l-12 -29 -1 28 c-1 26 -3 27 -34 18 -19 -5 -39 -14 -45 -20 -5 -6 -25 -10 -44 -10 -35 0 -41 -9 -66 -102 -12 -44 -32 -71 -32 -42 0 8 8 40 19 71 31 90 31 86 -5 90 -29 3 -36 -2 -50 -32 -9 -20 -17 -45 -17 -57 0 -11 -7 -26 -16 -33 -10 -9 -15 -9 -15 -2 0 6 4 14 10 17 21 13 9 32 -40 66 -57 38 -99 36 -121 -7 -13 -28 -38 -42 -38 -22 0 6 5 8 12 4 8 -5 10 -2 5 10 -3 10 -1 18 5 18 6 0 8 7 4 18 -3 9 -3 14 1 10 11 -11 47 25 38 39 -4 6 -8 29 -8 52 -1 26 -7 44 -19 50 -22 12 -24 79 -3 109 20 30 27 66 20 102 -5 27 -10 30 -36 27 -27 -4 -29 -2 -24 17 4 12 14 28 24 35 46 35 121 114 137 142 23 42 43 48 43 14 0 -34 9 -34 55 -4 36 23 69 76 56 89 -3 4 4 13 15 21 29 20 27 38 -3 28 -20 -6 -21 -5 -9 10 8 10 21 18 28 18 14 0 34 45 35 81 0 27 -37 34 -47 8 -4 -9 -12 -16 -20 -16 -7 0 -19 -7 -26 -16 -25 -30 -48 -18 -58 29 -10 44 -11 45 -59 48 -35 2 -50 -1 -54 -12 -4 -9 1 -18 9 -22 8 -3 15 -19 15 -36 0 -18 7 -33 16 -37 10 -4 16 -20 16 -42 0 -20 -8 -44 -16 -52 -9 -9 -16 -19 -16 -23 0 -3 -12 -17 -26 -30 -15 -14 -26 -30 -26 -37 0 -21 -78 -127 -94 -127 -10 0 -12 7 -6 24 4 13 9 50 11 82 2 56 9 86 43 204 10 35 12 61 6 78 -7 17 -2 51 14 112 l23 87 -25 23 -26 24 -21 -22 c-25 -24 -34 -113 -19 -180 11 -48 -4 -66 -49 -63 -20 2 -37 1 -38 -2 -2 -3 -8 -14 -15 -26 -6 -11 -16 -20 -21 -20 -14 1 -23 60 -12 81 5 11 6 44 3 74 -6 48 -3 61 26 112 l32 58 -6 -49 c-7 -52 6 -93 31 -93 14 0 19 17 32 132 6 44 3 57 -17 82 -18 24 -23 45 -24 97 -1 75 11 96 45 78 14 -7 22 -24 24 -50 5 -57 38 -55 58 2 8 23 29 54 47 69 29 24 34 36 39 95 7 66 7 67 39 68 18 1 42 5 55 9 28 9 28 5 7 -98 -9 -42 -14 -80 -11 -83 3 -3 1 -12 -6 -19 -6 -8 -8 -22 -5 -32 6 -15 9 -15 28 2 18 16 21 17 21 2 0 -9 -10 -23 -21 -31 -28 -20 -39 -69 -17 -77 9 -4 17 -13 17 -21 0 -19 30 -27 68 -17 26 7 33 17 45 60 11 39 12 56 3 70 -9 14 -8 24 1 40 11 16 10 27 -1 55 -7 19 -16 46 -19 61 -4 14 -18 41 -32 60 l-26 34 39 16 c59 25 111 77 111 111 0 16 4 40 9 54 5 13 12 32 15 41 7 22 45 14 60 -13z m-1785 -356 c0 -6 -5 -10 -11 -10 -6 0 -10 4 -10 10 0 6 4 11 10 11 6 0 11 -5 11 -11z m-35 -107 c-4 -8 -6 -6 -7 6 0 11 2 18 6 14 3 -3 4 -12 1 -20z m-39 -20 c0 -6 9 -8 19 -5 50 16 68 -48 19 -67 -14 -5 -27 -26 -36 -53 -13 -45 -13 -46 20 -76 27 -25 35 -28 49 -16 14 11 15 11 6 -8 -12 -24 -12 -115 0 -150 7 -17 14 -22 29 -17 28 9 25 -7 -9 -38 -16 -15 -33 -34 -39 -44 -7 -10 -18 -14 -29 -10 -16 7 -17 10 -3 37 9 17 16 32 16 34 0 2 -20 14 -44 27 -29 14 -46 18 -48 10 -2 -6 -14 -11 -25 -11 -12 0 -36 -12 -53 -27 -17 -14 -34 -26 -38 -26 -4 0 -6 18 -4 41 3 35 0 43 -28 63 -40 28 -61 28 -121 -4 -27 -15 -53 -26 -57 -26 -9 0 -33 83 -34 113 0 10 -16 29 -36 43 -20 13 -37 28 -37 31 1 13 74 85 87 85 7 0 23 -23 36 -52 25 -56 47 -66 66 -31 6 12 22 21 36 21 35 0 87 46 95 84 4 17 12 34 17 37 6 4 8 -4 5 -18 -5 -20 0 -28 30 -43 36 -17 38 -17 48 2 6 11 11 27 11 36 0 30 20 70 36 70 9 0 16 -6 16 -12z m1648 -47 c-20 -24 -24 -9 -9 27 13 28 15 30 18 10 2 -12 -2 -29 -9 -37z m237 21 c-22 -17 -37 -19 -37 -7 0 10 45 32 52 26 3 -2 -3 -11 -15 -19z m-1711 -30 c-6 -24 -3 -26 33 -29 38 -3 40 -5 43 -43 4 -45 28 -54 43 -15 12 32 38 52 61 47 25 -5 20 -49 -8 -73 -25 -21 -26 -33 -5 -50 9 -8 16 -28 16 -45 0 -24 -6 -33 -31 -42 -24 -10 -33 -22 -45 -65 -20 -72 -41 -74 -72 -6 -21 47 -27 53 -48 48 -29 -8 -31 10 -8 73 12 34 12 44 1 52 -14 12 -38 85 -38 118 0 20 34 54 56 55 5 0 6 -11 2 -25z m2493 -77 c-1 -27 -1 -28 -16 -9 -15 20 -12 38 6 38 6 0 10 -13 10 -29z m-2023 -114 c17 -35 21 -38 54 -32 62 10 110 -15 55 -28 -41 -11 -70 -46 -70 -86 0 -45 -19 -47 -48 -5 -19 28 -26 31 -94 34 l-73 3 55 35 c37 24 57 44 61 63 3 15 8 34 10 41 8 25 32 13 50 -25z m1267 12 c0 -2 -5 -7 -10 -11 -6 -3 -11 -1 -11 5 0 6 5 11 11 11 5 0 10 -2 10 -5z m-145 -92 c-8 -7 -12 -8 -12 -1 0 6 3 14 7 18 3 3 9 4 12 1 3 -3 0 -11 -7 -18z m134 10 c0 -7 -4 -20 -10 -28 -8 -13 -10 -10 -10 13 0 16 4 29 10 29 6 0 10 -6 10 -14z m-2524 -71 c29 -31 34 -32 82 -26 l52 7 -38 -43 c-41 -45 -46 -65 -28 -112 17 -45 -4 -50 -41 -9 -36 39 -69 46 -102 21 -11 -8 -27 -15 -35 -16 -20 0 4 28 39 45 39 19 52 45 36 70 -14 24 -18 95 -4 95 4 0 22 -15 39 -32z m603 -39 c0 -5 -7 -18 -15 -29 -16 -21 -22 -10 -10 20 6 18 25 24 25 9z m-42 -12 c0 -6 -5 -13 -10 -17 -6 -3 -11 1 -11 10 0 9 5 17 11 17 5 0 10 -5 10 -10z m74 0 c0 -5 -8 -26 -16 -47 -9 -21 -15 -40 -13 -42 1 -2 -4 -11 -12 -21 -12 -14 -12 -18 2 -23 16 -6 17 -53 2 -112 -13 -50 54 -158 84 -134 8 7 12 3 11 -13 -1 -29 35 -38 53 -14 10 15 17 16 35 6 20 -10 24 -7 44 34 11 24 18 33 15 19 -4 -15 -9 -36 -11 -47 -3 -11 -18 -33 -35 -49 -16 -16 -42 -54 -58 -85 -16 -31 -32 -63 -37 -71 -33 -60 -34 -64 -18 -86 8 -12 12 -28 9 -37 -8 -22 26 -67 62 -79 36 -13 36 -15 -5 -127 -22 -59 -59 -112 -79 -112 -2 0 -2 14 0 31 4 24 1 31 -9 27 -17 -7 -18 9 -2 34 16 26 -2 81 -26 79 -10 -1 -17 6 -17 15 0 9 -7 13 -16 9 -8 -3 -16 0 -18 6 -7 19 -58 1 -92 -33 -36 -35 -137 -71 -148 -52 -11 17 -115 -39 -115 -62 -1 -16 -1 -16 -12 1 -9 16 -14 17 -26 6 -12 -10 -19 -9 -33 5 -18 18 -14 31 51 144 17 29 20 52 18 124 -1 56 2 90 10 94 6 4 19 31 29 60 9 29 28 75 41 102 l23 50 21 -23 c11 -14 19 -33 17 -43 -2 -10 1 -18 6 -18 6 0 8 -9 5 -21 -4 -15 0 -21 13 -21 18 0 18 -1 0 -21 -20 -22 -15 -52 9 -52 14 0 70 135 70 171 0 10 -14 33 -31 50 -26 26 -32 28 -43 15 -7 -9 -17 -13 -22 -10 -5 3 -19 0 -32 -7 -18 -9 -20 -9 -14 2 5 8 13 33 17 56 19 105 29 135 55 174 16 24 33 54 38 69 10 25 32 36 32 15 0 -6 7 -10 16 -10 9 0 14 -5 10 -10 -8 -14 12 -25 53 -29 30 -3 34 -1 40 30 9 44 30 93 41 93 4 0 8 -5 8 -10z m319 -7 c3 -9 1 -13 -5 -10 -5 4 -10 11 -10 17 0 15 8 11 15 -7z m-172 -36 c0 -6 11 -10 25 -10 14 0 28 -5 32 -10 3 -6 14 -11 24 -11 10 -1 36 -2 57 -4 21 -1 45 -8 52 -15 7 -7 26 -13 42 -13 16 0 42 -12 59 -26 17 -14 44 -31 59 -37 32 -12 28 -31 -6 -31 -12 0 -48 -9 -78 -19 -46 -15 -56 -23 -56 -42 0 -16 6 -23 20 -23 11 0 35 -14 54 -31 32 -30 79 -39 109 -20 23 14 77 20 84 9 12 -19 67 -12 121 15 28 14 54 31 58 37 3 6 13 11 22 11 25 0 -3 -41 -33 -49 -29 -7 -47 -33 -47 -67 0 -21 5 -23 53 -19 28 2 52 2 52 0 0 -15 -35 -65 -46 -65 -7 0 -32 -16 -54 -36 -28 -25 -48 -35 -63 -31 -31 7 -75 -44 -88 -103 -6 -27 -9 -56 -6 -64 3 -8 -1 -21 -10 -28 -25 -20 -20 -36 16 -52 18 -8 34 -22 37 -31 3 -10 10 -24 15 -33 6 -9 17 -31 26 -50 9 -19 20 -34 26 -34 15 0 13 -22 -3 -41 -8 -9 -21 -37 -28 -62 -21 -66 -51 -84 -43 -25 2 19 -42 54 -70 54 -13 0 -35 -5 -50 -12 -40 -18 -52 0 -59 97 -5 78 -8 85 -44 120 -42 41 -42 42 -11 168 29 118 33 180 14 216 -10 19 -90 63 -114 63 -7 0 -30 18 -52 41 -38 40 -41 42 -121 47 -46 2 -85 7 -87 9 -5 5 -5 45 0 97 2 23 5 51 6 63 2 31 106 77 106 47z m-217 -27 c-4 -9 -9 -14 -12 -11 -2 3 -1 10 2 16 11 17 17 14 10 -5z m1393 7 c0 -6 -5 -13 -11 -17 -13 -8 -14 -47 -1 -47 5 0 7 -10 4 -21 -6 -24 -30 -23 -28 1 7 57 17 94 25 94 6 0 11 -5 11 -10z m283 -40 c0 -5 -9 -14 -21 -22 -25 -15 -27 -10 -4 13 18 18 25 21 25 9z m1619 -69 c14 -48 20 -56 51 -65 73 -22 78 -44 12 -51 -41 -5 -70 -30 -93 -77 -9 -19 -20 -35 -25 -35 -13 0 -41 57 -41 82 0 14 -19 30 -61 51 -33 16 -60 34 -60 40 0 6 26 13 59 16 63 6 86 19 110 65 8 16 19 30 24 30 5 0 16 -25 24 -56z m-1661 -7 c0 -6 -5 -11 -11 -11 -6 0 -8 5 -5 11 4 5 9 10 11 10 3 0 5 -5 5 -10z m-1508 -132 c-4 -8 -8 -15 -10 -15 -3 0 -4 7 -4 15 0 9 4 16 10 16 5 0 7 -7 4 -16z m-1306 -11 c0 -8 -7 -18 -16 -22 -8 -3 -15 -14 -15 -24 0 -11 -8 -25 -17 -32 -31 -26 -36 -49 -21 -86 38 -93 29 -106 -31 -45 -42 42 -69 45 -118 16 l-34 -21 0 25 c0 14 5 29 10 32 27 16 30 43 10 84 -11 22 -18 43 -15 46 3 3 29 0 57 -7 48 -11 55 -10 112 19 70 36 78 38 78 15z m1325 -28 c-8 -8 -9 -4 -5 14 4 14 9 19 11 11 3 -8 0 -19 -6 -25z m72 8 c0 -9 -5 -16 -11 -16 -5 0 -7 7 -4 16 4 8 8 16 10 16 3 0 5 -8 5 -16z m-389 -57 c0 -6 -5 -13 -10 -17 -6 -3 -11 1 -11 10 0 9 5 17 11 17 5 0 10 -5 10 -10z m1523 -128 c0 -10 3 -21 8 -24 5 -3 7 -21 5 -40 -2 -19 -4 -44 -4 -56 0 -11 -7 -32 -16 -46 -9 -13 -19 -54 -22 -89 -3 -35 -10 -73 -16 -83 -5 -11 -11 -40 -13 -65 -3 -35 0 -47 13 -52 13 -5 14 -10 4 -19 -25 -26 -12 -37 43 -37 30 0 61 4 68 10 10 8 14 7 14 -4 0 -11 14 -16 51 -18 29 -1 55 3 58 9 4 7 16 6 32 -1 19 -9 30 -9 41 1 10 8 29 10 53 5 54 -10 88 2 96 32 5 21 14 27 37 27 26 0 31 4 31 28 0 16 4 36 10 45 8 12 10 9 10 -13 0 -16 6 -29 14 -29 35 -1 41 -16 25 -71 -8 -28 -21 -63 -29 -77 -7 -14 -16 -32 -20 -41 -4 -9 -22 -25 -40 -37 -57 -36 -43 -46 63 -45 62 0 98 -4 101 -12 15 -46 91 -59 106 -19 9 23 9 23 17 -6 6 -23 0 -44 -25 -93 -18 -35 -33 -69 -33 -76 -1 -6 -12 -20 -27 -30 l-25 -19 0 37 c0 29 -5 38 -19 38 -11 0 -25 5 -31 11 -9 9 -21 8 -49 -5 -47 -22 -60 -21 -29 3 32 24 21 48 -17 38 -17 -4 -33 -1 -46 11 -24 22 -24 30 -3 51 20 20 10 41 -17 32 -15 -5 -23 0 -31 21 -13 33 -28 26 -48 -22 -20 -46 -20 -44 19 -61 22 -10 28 -15 15 -16 -13 0 -18 -7 -16 -24 3 -18 10 -23 27 -21 20 2 24 -3 24 -29 0 -19 7 -35 16 -38 8 -4 16 -13 16 -21 0 -17 21 -19 39 -4 10 8 10 7 2 -2 -30 -37 6 -71 77 -72 30 0 32 -2 16 -14 -24 -18 -12 -30 13 -14 16 10 23 7 41 -16 13 -17 38 -31 59 -35 26 -5 41 -16 52 -36 11 -21 28 -32 64 -41 62 -16 109 -48 109 -75 0 -27 -13 -26 -30 2 -10 15 -21 20 -39 17 -14 -3 -28 -2 -31 3 -3 4 -25 12 -49 16 -24 4 -51 14 -59 22 -22 22 -56 17 -62 -9 l-6 -23 -9 23 c-11 30 -28 29 -40 -1 -10 -27 -5 -39 16 -39 8 0 24 -9 36 -21 23 -23 98 -30 111 -10 4 8 11 8 20 0 8 -7 18 -11 23 -10 5 1 28 1 51 0 34 -1 46 -7 63 -32 11 -18 34 -37 50 -44 26 -10 29 -16 23 -45 -15 -74 -38 -142 -48 -142 -6 0 -9 -13 -8 -29 3 -23 10 -30 33 -33 18 -2 47 -20 71 -44 45 -45 139 -80 185 -68 17 4 38 -1 62 -16 44 -27 45 -38 5 -47 -37 -8 -37 -7 -14 -59 19 -44 38 -51 55 -22 10 17 10 17 11 0 0 -10 8 -18 17 -18 9 -1 25 -11 36 -25 10 -13 39 -33 64 -43 25 -10 71 -30 101 -44 31 -14 67 -25 81 -25 22 0 26 -5 26 -29 -1 -16 -5 -38 -11 -50 -7 -16 -8 -13 -3 13 5 29 3 34 -15 35 -11 0 -25 -11 -31 -24 l-12 -24 -1 27 c-1 14 -4 20 -7 13 -3 -8 -12 -13 -20 -13 -33 0 -4 -71 32 -80 17 -4 27 -14 27 -27 0 -11 3 -20 7 -20 5 0 16 -14 26 -31 18 -31 18 -31 -5 -31 -16 0 -80 55 -203 175 -98 97 -192 186 -209 197 -16 12 -42 31 -57 43 -15 12 -53 37 -84 55 -32 18 -70 43 -85 57 -15 13 -34 28 -44 34 -60 38 -165 113 -176 126 -7 9 -20 16 -28 16 -8 0 -37 11 -64 25 -79 41 -145 70 -158 70 -11 0 -37 10 -138 55 -26 12 -57 25 -69 28 -11 4 -47 19 -78 34 -77 35 -119 51 -149 56 -26 4 -95 17 -181 36 -29 6 -53 10 -55 8 -2 -2 1 -19 6 -37 11 -40 -2 -52 -37 -33 -29 15 -34 31 -10 31 9 0 16 5 16 11 0 5 -7 10 -15 10 -9 0 -13 7 -9 20 4 16 -3 21 -46 27 -76 11 -98 17 -98 29 0 5 10 13 22 16 15 4 20 11 17 25 -3 11 -1 22 5 26 5 3 13 -4 16 -16 5 -21 24 -31 24 -13 0 16 48 64 63 65 9 0 28 9 42 21 14 11 32 20 39 20 8 0 14 6 14 13 0 9 3 9 11 2 7 -8 7 -20 -2 -39 -14 -32 -30 -37 -30 -10 0 14 -5 13 -27 -7 -45 -43 -35 -53 53 -53 63 0 79 3 79 16 0 8 4 16 10 16 13 0 13 -7 0 -32 -8 -15 -6 -20 13 -25 31 -8 36 -3 43 45 9 53 0 78 -26 71 -11 -3 -19 -1 -19 3 0 19 -35 21 -50 3 -14 -17 -14 -17 -8 4 4 15 0 25 -12 29 -16 6 -16 9 1 28 11 11 24 21 29 21 20 0 71 58 71 81 0 13 5 24 11 24 5 0 10 -5 10 -11 0 -18 29 -11 78 18 52 31 56 41 33 71 -12 17 -19 18 -39 9 -14 -6 -40 -10 -58 -7 -24 2 -43 -4 -65 -23 -38 -32 -71 -34 -80 -4 -4 11 -19 26 -34 31 -22 9 -32 6 -52 -13 l-25 -23 -31 36 c-17 20 -31 40 -31 45 0 5 13 26 29 47 26 33 71 128 62 128 -2 0 2 27 8 59 12 58 11 61 -17 91 -27 30 -31 31 -61 18 -23 -9 -32 -20 -32 -37 0 -34 -26 -57 -55 -49 -49 15 -71 37 -71 72 0 39 -30 108 -47 110 -6 0 -22 0 -35 -1 -22 -2 -23 0 -13 19 16 30 14 40 -10 47 -13 3 -21 14 -21 27 0 13 -8 26 -18 30 -21 8 -55 45 -55 60 0 6 23 12 52 13 66 3 74 7 74 46 0 17 4 31 10 31 5 0 7 -7 4 -15 -9 -24 40 -71 80 -76 45 -5 47 -7 70 -77 l19 -58 45 1 c31 0 52 8 70 24 36 35 86 135 101 206 11 56 14 60 27 42 8 -11 15 -28 15 -38z m527 32 c-3 -12 -8 -19 -10 -16 -6 6 4 38 11 38 3 0 3 -10 -1 -22z m-1020 -44 c-10 -11 -11 -9 -6 6 4 10 10 16 13 13 4 -4 0 -12 -7 -19z m1000 -13 c-3 -9 -10 -16 -15 -16 -5 0 -9 7 -9 16 0 8 6 16 15 16 9 0 13 -7 9 -16z m-72 -43 c12 0 9 -26 -6 -41 -6 -6 -9 -1 -9 13 0 13 -5 24 -11 24 -6 0 -10 5 -10 11 0 6 5 7 13 2 7 -4 17 -8 23 -9z m-1055 -4 c0 -6 -5 -11 -11 -11 -6 0 -8 5 -5 11 4 5 9 10 11 10 3 0 5 -5 5 -10z m997 -8 c0 -23 -17 -52 -26 -43 -5 5 15 61 23 61 2 0 3 -8 3 -18z m-20 -66 c0 -6 -6 -10 -12 -10 -6 0 -8 4 -4 10 3 6 8 11 11 11 2 0 5 -5 5 -11z m-1015 -58 c-4 -9 -9 -14 -12 -11 -2 2 -1 10 2 16 11 17 17 13 10 -5z m670 -102 c-8 -7 -12 -8 -12 -1 0 6 3 14 6 18 4 3 10 4 13 1 3 -3 0 -11 -7 -18z m13 -42 c-33 -64 -42 -76 -31 -39 13 44 39 94 49 94 5 0 -3 -25 -18 -55z m-1380 -39 c-7 -14 -8 -21 -1 -21 6 0 8 -8 4 -17 -5 -14 -8 -14 -16 -3 -7 11 -11 11 -15 1 -3 -7 -10 -13 -15 -13 -5 0 1 16 14 37 25 38 48 51 29 16z m1523 11 c0 -14 -28 -33 -36 -25 -4 4 -14 -2 -22 -14 -21 -27 -20 -10 1 23 16 24 57 36 57 16z m295 -24 c-7 -8 -12 -8 -12 -2 0 6 3 14 7 18 4 4 9 5 12 2 3 -3 0 -11 -7 -18z m-232 9 c0 -7 -35 -75 -45 -88 -6 -7 -14 -11 -19 -8 -10 6 40 100 54 100 5 0 10 -2 10 -4z m80 -28 c-6 -17 -15 -31 -19 -31 -4 0 -2 14 5 31 6 17 15 32 19 32 4 0 2 -15 -5 -32z m-1616 -3 c-26 -41 -31 -63 -13 -56 10 4 14 2 10 -5 -4 -6 -14 -8 -21 -5 -9 3 -25 -9 -38 -29 -13 -18 -30 -37 -37 -42 -22 -13 -16 -23 21 -36 43 -16 97 0 107 30 7 23 15 24 52 8 22 -10 30 -9 45 5 16 14 26 15 58 6 l38 -10 -20 -34 c-29 -47 -27 -62 5 -54 19 5 28 2 33 -10 9 -23 -25 -73 -44 -65 -14 5 -35 -8 -75 -45 -13 -13 -17 -12 -30 8 -9 12 -24 22 -33 22 -19 0 -66 -48 -66 -68 0 -19 51 -30 69 -15 8 7 15 10 16 8 0 -2 2 -14 3 -27 4 -31 36 -66 61 -66 13 0 19 -8 19 -25 0 -32 48 -90 74 -90 29 0 35 -19 16 -49 -14 -20 -23 -24 -41 -18 -12 4 -32 7 -44 8 -11 0 -23 10 -26 21 -3 11 -20 25 -37 30 -26 9 -46 27 -53 50 -13 39 -21 50 -48 65 -17 10 -38 19 -45 19 -8 0 -17 6 -20 15 -4 11 -20 15 -55 13 -43 -1 -50 -5 -59 -30 -15 -42 -52 -61 -118 -61 -64 0 -83 13 -108 73 -9 20 -21 44 -29 53 -7 8 -19 44 -26 78 -7 35 -18 80 -23 100 -12 48 8 104 38 107 12 1 29 2 38 3 10 0 26 8 36 16 20 17 107 42 115 33 10 -9 6 -53 -6 -60 -15 -9 9 -36 33 -36 11 0 24 9 30 20 6 11 28 22 50 26 53 9 100 53 129 119 6 13 16 24 22 24 8 0 7 -8 -3 -24z m-165 3 c-9 -6 -21 -10 -27 -10 -6 0 -3 4 6 10 8 6 20 10 26 10 6 0 3 -4 -5 -10z m1844 -23 c-3 -8 -6 -6 -6 6 -1 11 2 18 5 14 4 -3 4 -12 1 -20z m-1844 -7 c0 -5 -10 -12 -21 -15 -23 -6 -30 8 -8 17 20 8 29 8 29 -2z m15 -33 c-3 -6 -17 -10 -29 -10 -19 0 -20 2 -7 10 20 13 45 13 36 0z m1284 -3 c8 -9 7 -21 -4 -39 l-16 -26 5 29 c2 16 0 29 -5 29 -5 0 -9 4 -9 10 0 15 16 13 29 -3z m-1583 -17 c0 -6 -5 -13 -10 -17 -6 -3 -11 1 -11 10 0 9 5 17 11 17 5 0 10 -5 10 -10z m-1561 -37 c34 -32 44 -35 78 -30 39 5 39 5 16 -12 -30 -22 -30 -39 -3 -64 21 -19 29 -47 13 -47 -5 0 -16 9 -26 21 -11 12 -31 21 -50 21 -18 0 -51 -9 -73 -21 -23 -12 -44 -21 -47 -21 -12 0 10 38 33 56 27 22 32 71 9 90 -15 13 -12 43 4 43 5 0 25 -16 46 -36z m1992 22 c0 -12 -53 -63 -60 -56 -8 8 36 60 51 60 5 0 9 -2 9 -4z m817 -212 c7 -15 12 -34 12 -42 0 -21 34 -36 83 -36 24 0 43 -4 42 -8 0 -5 -22 -22 -49 -40 -39 -24 -50 -38 -53 -63 -5 -56 -10 -63 -33 -42 -11 10 -23 32 -27 49 -8 35 -27 48 -88 57 -24 4 -43 10 -43 13 0 9 36 33 50 33 28 1 76 46 70 65 -13 42 18 54 36 14z m-643 -65 c-11 -11 -20 5 -11 19 7 11 9 11 13 0 2 -7 1 -16 -2 -19z m2597 -91 c10 -29 19 -37 48 -43 20 -3 39 -12 43 -18 5 -8 -1 -9 -20 -5 -30 8 -55 -11 -71 -52 -13 -33 -25 -31 -53 8 -13 18 -38 38 -56 46 l-32 14 39 7 c32 6 79 37 56 37 -4 0 -2 9 5 21 16 30 28 25 41 -15z m-902 -17 c0 -5 -11 -15 -24 -22 l-24 -12 21 22 c25 25 27 26 27 12z m-1869 -30 c0 -6 -8 -13 -18 -16 -14 -6 -15 -4 -4 9 15 18 22 20 22 7z m1936 -36 c-6 -17 -46 -32 -46 -18 0 10 43 44 49 38 2 -2 1 -11 -3 -20z m-2293 -23 c11 -14 10 -15 -4 -10 -10 4 -17 11 -17 16 0 14 6 12 21 -6z m-39 -21 c-3 -9 -8 -16 -10 -16 -2 0 -4 7 -4 16 0 8 5 16 10 16 6 0 8 -8 4 -16z m1424 -10 c17 -20 5 -74 -26 -120 -14 -20 -22 -42 -19 -49 6 -16 -27 -36 -48 -29 -7 3 -18 -1 -23 -9 -7 -10 -9 -11 -9 -1 0 7 -8 13 -16 13 -9 0 -16 5 -16 11 0 5 9 10 19 10 23 0 74 51 78 79 2 11 6 25 10 31 3 6 9 26 13 45 8 37 18 42 37 19z m-254 -44 c18 -5 23 -14 23 -39 0 -52 -11 -80 -31 -80 -10 0 -24 -8 -31 -16 -8 -9 -24 -16 -37 -16 -14 0 -27 -7 -31 -16 -9 -24 -65 -17 -61 8 2 10 -2 19 -8 19 -6 0 -10 4 -10 10 0 16 29 12 39 -6 9 -17 45 -11 45 8 0 5 -6 6 -14 2 -9 -5 -9 -4 -2 4 6 6 22 13 36 15 24 3 26 7 23 48 -5 64 5 73 59 59z m73 -148 c4 -10 14 -25 23 -32 19 -14 19 -14 -28 -18 -31 -3 -33 -1 -28 22 5 19 2 25 -11 25 -9 0 -14 5 -11 11 11 17 48 11 55 -8z m-1015 -13 c0 -6 -5 -11 -11 -11 -6 0 -10 5 -10 11 0 5 4 10 10 10 6 0 11 -5 11 -10z m926 -25 c-2 -11 2 -15 11 -12 13 5 71 -65 71 -85 0 -3 -18 -4 -40 -3 -31 3 -39 8 -36 22 2 12 -4 19 -16 19 -39 0 -47 14 -28 51 17 34 43 40 38 8z m-55 -5 c0 -14 -12 -23 -23 -17 -10 7 -1 26 13 26 6 0 10 -4 10 -9z m-1242 -25 c-4 -8 -6 -6 -7 6 0 11 2 18 6 14 3 -3 4 -12 1 -20z m1124 -15 c-9 -10 -22 -14 -29 -9 -10 6 -6 12 12 21 31 17 40 10 17 -12z m76 17 c0 -6 -7 -10 -16 -10 -9 0 -14 4 -10 10 3 6 11 11 16 11 6 0 10 -5 10 -11z m219 -25 c17 -17 20 -28 12 -33 -12 -7 -63 33 -63 49 0 18 28 8 51 -16z m463 4 c37 -12 72 -26 79 -30 6 -5 25 -14 42 -20 l32 -11 -30 -1 c-16 -1 -39 4 -51 10 -11 7 -33 14 -48 17 -14 2 -36 11 -48 19 -12 9 -32 13 -44 10 -15 -4 -25 0 -29 10 -9 23 14 22 97 -4z m-944 1 c0 -14 -39 -25 -63 -17 -36 11 -24 27 21 27 23 0 42 -5 42 -10z m55 -8 c-8 -3 -19 -3 -27 0 -7 3 -1 5 14 5 14 0 20 -2 13 -5z m170 -3 c-3 -6 -11 -11 -16 -11 -6 0 -10 5 -10 11 0 5 7 10 16 10 9 0 14 -5 10 -10z m615 -11 c0 -6 -9 -10 -19 -10 -16 0 -16 1 -2 10 19 13 21 13 21 0z m-1029 -10 c0 -6 11 -11 26 -11 14 0 26 -5 26 -10 0 -15 -21 -14 -56 2 -31 15 -37 29 -12 29 8 0 16 -5 16 -10z m651 -54 c0 -6 24 -34 53 -64 46 -47 52 -56 37 -66 -18 -14 -77 -9 -86 7 -4 5 -1 16 6 24 13 15 -3 33 -20 22 -5 -3 -22 11 -37 31 -15 20 -35 37 -43 37 -18 0 -21 17 -4 22 20 7 94 -4 94 -13z m711 5 c-4 -3 -13 -4 -20 -1 -9 4 -6 6 6 7 11 0 17 -2 14 -6z m102 -35 c4 -6 2 -11 -4 -11 -6 0 -13 5 -17 11 -3 5 -2 10 4 10 6 0 14 -5 17 -10z m-126 -10 c10 -17 -41 -22 -57 -6 -14 14 -12 16 18 16 18 0 35 -5 39 -10z m-725 -53 c34 -50 27 -63 -33 -63 -34 0 -34 0 -34 50 0 81 18 85 67 13z m870 -11 c48 -29 93 -52 100 -52 7 0 13 -5 13 -11 0 -6 -5 -10 -11 -10 -19 0 -11 -23 11 -29 11 -3 21 -10 21 -15 0 -5 8 -9 19 -9 30 0 35 -13 9 -26 -33 -17 -57 -8 -72 26 -13 30 -62 50 -85 35 -13 -8 -187 81 -180 93 6 10 45 -5 98 -38 49 -32 81 -36 43 -6 l-27 20 27 -6 c14 -4 33 -12 42 -18 20 -15 61 -38 68 -38 3 0 5 5 5 10 0 6 -45 34 -100 64 -55 30 -99 56 -99 58 0 15 42 -2 118 -48z m92 21 c0 -6 -8 -10 -16 -10 -9 0 -16 4 -16 10 0 6 7 11 16 11 8 0 16 -5 16 -11z m-174 -14 c30 -23 4 -27 -31 -6 -27 17 -28 20 -10 20 12 0 30 -6 41 -14z m-141 -7 c25 -14 26 -35 3 -54 -15 -12 -16 -11 -10 9 6 18 4 24 -9 24 -9 0 -16 7 -16 16 0 18 5 19 32 5z m97 -55 c45 -32 67 -45 123 -75 66 -35 106 -69 82 -69 -10 0 -21 4 -24 10 -4 6 -18 11 -32 11 -14 0 -46 14 -72 31 -25 17 -53 32 -62 32 -15 0 -35 20 -57 60 -18 31 -1 31 42 0z m270 13 c0 -6 9 -10 21 -10 11 0 25 -10 31 -21 11 -20 9 -20 -16 -11 -41 16 -73 53 -46 53 5 0 10 -5 10 -11z m126 0 c0 -6 -4 -10 -10 -10 -5 0 -13 4 -16 10 -4 6 1 11 10 11 9 0 16 -5 16 -11z m130 -64 c16 -14 -21 -23 -45 -10 -12 6 -26 21 -32 32 -11 19 -10 19 28 4 22 -9 44 -21 49 -26z m-109 -9 c0 -6 9 -11 20 -11 28 0 37 -18 21 -38 -12 -15 -16 -14 -32 5 -10 13 -25 23 -33 23 -8 0 -21 7 -28 15 -12 14 -9 16 19 16 18 0 33 -5 33 -10z m173 -23 c14 -7 27 -16 27 -20 0 -13 -77 -5 -82 8 -3 9 2 11 14 6 13 -4 16 -3 11 6 -10 15 -4 15 30 0z m-233 -41 c-7 -25 -28 -22 -33 4 -2 12 4 18 18 18 16 0 19 -6 15 -22z m-358 -18 c59 -29 186 -122 192 -140 3 -9 18 -23 32 -31 14 -7 26 -18 26 -24 0 -12 75 -80 88 -80 13 -1 138 -134 172 -184 15 -23 37 -53 49 -65 12 -13 26 -30 32 -38 6 -7 20 -24 31 -37 18 -21 19 -26 6 -34 -26 -16 -63 -12 -56 6 4 11 1 14 -9 10 -9 -3 -28 12 -49 39 -18 25 -55 64 -80 86 -26 22 -47 45 -47 51 0 6 -8 17 -18 24 -12 9 -14 14 -5 20 7 4 15 0 18 -9 4 -9 14 -16 22 -16 10 0 6 11 -14 36 -21 26 -35 35 -51 31 -15 -4 -26 3 -39 24 -10 16 -37 51 -60 77 -45 50 -53 69 -25 58 16 -6 16 -4 -1 15 -11 11 -25 21 -32 21 -7 0 -26 14 -42 32 -17 17 -36 31 -43 31 -7 0 -18 7 -25 16 -8 8 -20 16 -28 16 -7 0 35 -49 94 -109 111 -112 161 -172 151 -182 -3 -3 -14 7 -24 22 -9 15 -23 27 -30 27 -7 0 -26 14 -43 32 -30 31 -61 44 -36 15 7 -9 8 -15 2 -15 -6 0 -16 6 -23 14 -9 12 -9 16 2 20 9 3 6 13 -12 32 -27 29 -55 40 -32 12 20 -24 -5 -18 -27 6 -14 15 -16 24 -8 29 7 5 9 14 4 22 -5 8 -14 11 -21 7 -7 -4 -11 1 -11 15 0 15 -7 22 -19 20 -32 -3 -40 1 -23 11 13 9 9 17 -24 50 -22 22 -39 34 -39 27 0 -7 9 -18 21 -24 11 -6 21 -16 21 -21 0 -19 -22 -11 -47 18 -22 26 -23 30 -7 42 23 18 43 17 87 -5z m91 -8 c14 -15 19 -26 11 -26 -15 0 -51 31 -51 44 0 15 15 9 40 -18z m432 9 c0 -13 -3 -14 -16 -3 -8 7 -15 14 -15 17 0 2 7 4 15 4 9 0 16 -8 16 -18z m117 -6 c-7 -7 -12 -8 -12 -1 0 6 3 14 7 18 4 3 9 4 12 1 3 -3 0 -11 -7 -18z m-441 -10 c16 -5 31 -17 34 -25 7 -19 8 -19 -43 6 -45 22 -77 53 -39 37 11 -4 33 -12 48 -18z m114 -28 c17 -38 5 -39 -39 -6 -31 24 -36 31 -21 34 10 2 15 8 12 14 -4 6 3 5 15 -3 11 -7 26 -25 33 -39z m158 18 c0 -7 -4 -9 -7 -6 -4 4 -14 2 -22 -5 -16 -13 -30 -5 -19 12 9 15 48 14 48 -1z m208 -30 c-3 -10 -10 -8 -23 5 -10 10 -15 22 -11 28 9 15 39 -16 34 -33z m-271 -1 c0 -13 7 -20 21 -20 12 0 19 -5 15 -10 -3 -6 -18 -11 -32 -11 -16 0 -24 4 -20 11 4 6 -3 14 -15 17 -24 6 -30 31 -9 38 22 7 40 -4 40 -25z m205 4 c3 -10 10 -27 16 -37 5 -10 7 -18 4 -18 -11 0 -56 57 -51 65 9 14 25 9 31 -10z m146 -14 c9 -13 -1 -13 -27 1 -11 6 -20 15 -20 21 0 12 37 -5 47 -22z m-501 -26 c19 -9 34 -21 34 -26 0 -4 8 -11 17 -15 15 -5 15 -4 4 10 -27 33 2 29 37 -6 20 -19 37 -30 37 -23 0 6 -5 15 -11 18 -6 4 -10 11 -10 17 0 18 23 10 48 -17 26 -28 33 -57 15 -57 -6 0 -10 -11 -8 -24 1 -15 -4 -24 -17 -27 -20 -4 -59 25 -60 44 0 7 -11 19 -24 28 -101 64 -132 86 -137 99 -6 17 11 12 75 -21z m255 27 c0 -6 -8 -11 -16 -11 -9 0 -16 5 -16 11 0 5 7 10 16 10 8 0 16 -5 16 -10z m165 -38 c-10 -10 -30 6 -23 18 5 7 11 7 18 0 6 -7 8 -15 5 -18z m-94 -24 c3 -9 -2 -13 -14 -10 -11 2 -21 10 -24 17 -3 9 2 13 14 11 11 -2 21 -10 24 -18z m-740 -28 c20 -25 24 -36 14 -36 -9 0 -25 16 -37 36 -28 48 -15 48 23 0z m380 27 c3 -6 2 -11 -4 -11 -6 0 -14 5 -17 11 -4 5 -2 10 4 10 6 0 13 -5 17 -10z m320 -12 c0 -5 -5 -9 -11 -9 -6 0 -9 -5 -5 -10 3 -5 15 -7 27 -4 11 3 21 0 21 -6 0 -7 9 -12 21 -12 29 0 25 -13 -11 -34 -33 -19 -53 -8 -32 18 10 12 8 15 -14 13 -14 -1 -26 2 -25 8 1 6 -12 13 -29 16 -32 6 -34 24 -2 27 10 0 21 4 24 7 9 9 36 -2 36 -14z m207 5 c-3 -3 -12 -4 -20 -1 -8 4 -6 6 6 7 11 0 18 -2 14 -6z m119 -33 c0 -13 -3 -13 -16 -2 -9 7 -16 17 -16 21 0 5 7 7 16 3 8 -3 16 -13 16 -22z m-563 -33 c17 -18 26 -32 21 -32 -14 0 -88 62 -88 74 0 15 31 -5 67 -42z m410 41 c4 -6 -1 -10 -10 -10 -9 0 -16 4 -16 10 0 6 4 11 10 11 5 0 13 -5 16 -11z m-17 -45 c10 -13 8 -14 -12 -10 -13 2 -32 16 -43 30 l-19 27 31 -16 c16 -9 36 -23 43 -31z m222 -4 c0 -21 -25 -12 -30 10 -2 13 2 16 13 12 10 -4 17 -14 17 -22z m-92 -3 c7 -12 20 -22 29 -22 12 0 11 -4 -5 -16 -26 -20 -33 -19 -40 3 -3 10 -9 27 -13 37 -10 26 13 24 29 -2z m54 -6 c4 -10 2 -14 -4 -10 -6 3 -10 11 -10 16 0 15 7 12 14 -6z m95 7 c7 -12 -5 -54 -17 -54 -11 0 -29 44 -22 55 6 11 32 10 39 -1z m-435 -30 c0 -9 8 -26 17 -36 11 -12 13 -19 5 -19 -7 0 -15 7 -18 15 -9 23 -34 20 -56 -8 -19 -23 -20 -23 -41 -3 -32 28 -29 50 4 42 18 -5 28 -2 32 10 9 23 57 23 57 -1z m68 8 c8 -12 -12 -25 -26 -16 -12 7 -4 26 11 26 5 0 11 -4 15 -10z m174 -35 c0 -15 -16 -7 -30 14 -12 19 -11 20 8 8 12 -8 22 -17 22 -22z m-53 -7 c0 -17 -3 -18 -25 -8 -29 14 -26 29 5 29 13 0 20 -8 20 -21z m-92 0 c15 -1 8 -21 -8 -21 -8 0 -15 -6 -15 -12 0 -6 -5 -8 -10 -5 -17 10 -9 46 9 42 9 -1 20 -3 24 -4z m236 -11 c1 -12 -2 -21 -7 -21 -13 0 -33 27 -25 35 14 14 31 7 32 -14z m129 -6 c0 -9 -5 -13 -10 -10 -6 4 -11 14 -11 22 0 9 5 13 11 10 5 -4 10 -14 10 -22z m-158 -27 c1 -12 -93 -8 -101 4 -4 7 1 9 17 5 18 -5 25 -1 29 14 5 19 6 19 30 2 14 -10 25 -21 25 -25z m-422 14 c6 -19 -15 -15 -23 4 -4 10 -1 15 6 13 7 -3 15 -10 17 -17z m496 -3 c0 -6 -5 -8 -10 -4 -6 3 -11 11 -11 17 0 6 5 7 11 4 5 -4 10 -11 10 -17z m105 -76 c-12 -12 -42 10 -42 31 0 7 -9 19 -21 25 -12 6 -21 19 -21 29 0 12 15 3 47 -29 30 -29 44 -50 37 -56z m52 35 c5 0 11 -7 15 -16 8 -20 -4 -19 -32 3 -13 10 -26 32 -30 50 l-7 31 23 -34 c13 -19 27 -34 31 -34z m-545 43 c0 -15 -30 -35 -42 -28 -17 11 -13 25 7 30 31 8 35 8 35 -2z m178 -18 c0 -9 -7 -15 -18 -13 -26 5 -29 30 -4 30 13 0 22 -7 22 -17z m-41 -17 c6 -13 17 -36 25 -50 10 -16 11 -28 5 -30 -16 -5 -43 21 -37 36 2 7 -5 15 -16 18 -24 7 -28 50 -4 50 9 0 21 -11 27 -24z m-200 -3 c0 -15 15 -20 57 -18 12 1 15 -1 8 -4 -24 -10 -14 -27 12 -21 29 7 63 -23 50 -44 -7 -11 -11 -10 -22 3 -15 18 -58 23 -48 5 4 -6 11 -8 16 -5 5 3 12 1 16 -5 3 -6 -1 -10 -10 -10 -17 0 -111 90 -111 106 0 5 7 9 16 9 8 0 16 -7 16 -16z m278 -15 c-3 -5 5 -11 17 -14 29 -8 20 -31 -15 -40 -30 -8 -36 -1 -16 20 10 10 9 13 -5 13 -17 0 -25 21 -12 34 9 9 37 -3 31 -13z m72 -13 c6 -4 8 -11 3 -15 -10 -10 -38 30 -30 43 3 5 8 3 11 -6 2 -8 10 -18 16 -22z m138 23 c3 -6 1 -10 -5 -10 -6 0 -11 4 -11 10 0 6 2 11 5 11 2 0 7 -5 11 -11z m-22 -32 c17 -18 41 -40 55 -49 13 -9 25 -20 25 -25 0 -19 -22 -9 -56 26 -18 19 -42 38 -52 41 -18 7 -27 39 -11 39 5 0 22 -15 39 -32z m-319 5 c0 -3 -8 -4 -16 -4 -9 0 -16 4 -16 10 0 5 7 7 16 4 8 -4 16 -8 16 -10z m511 -6 c-4 -9 -6 -6 -7 6 0 11 2 17 6 14 3 -4 4 -13 1 -20z m45 -64 c0 -15 -20 -8 -31 12 -14 26 1 39 18 15 7 -10 13 -22 13 -27z m-378 24 c0 -6 -5 -11 -10 -11 -6 0 -11 5 -11 11 0 5 5 10 11 10 5 0 10 -5 10 -10z m60 -13 c-4 -8 -6 -6 -7 6 0 11 2 18 6 14 3 -3 4 -12 1 -20z m-98 -14 c7 -18 34 -21 40 -4 5 15 61 -34 61 -53 0 -7 -5 -9 -10 -6 -6 4 -11 -1 -11 -10 0 -15 -4 -18 -34 -20 -7 -1 -16 -5 -19 -10 -4 -4 -13 -1 -20 8 -11 14 -11 17 4 17 10 0 15 4 12 9 -3 5 6 12 20 16 29 7 36 27 11 27 -9 0 -16 -5 -16 -10 0 -6 -9 -11 -21 -11 -14 0 -21 7 -21 21 0 12 -7 21 -16 21 -8 0 -15 -5 -15 -11 0 -6 -6 -8 -13 -4 -8 5 -6 12 8 22 24 18 32 18 40 -2z m-73 -38 c-4 -13 -1 -19 11 -19 9 0 16 -9 16 -21 0 -12 5 -21 12 -21 17 0 63 -53 56 -64 -4 -6 -21 -10 -39 -10 -18 0 -30 3 -26 6 3 3 -3 15 -14 26 -11 11 -17 27 -14 36 4 10 0 16 -12 16 -11 0 -16 6 -12 16 4 9 0 16 -8 16 -17 0 -29 25 -21 46 10 24 59 -2 51 -27z m234 26 c6 -18 -29 -26 -47 -12 -13 11 -12 14 4 20 24 10 38 7 43 -8z m220 -5 c22 -21 23 -24 6 -37 -22 -16 -55 -18 -55 -3 0 5 5 10 11 10 5 0 10 5 10 11 0 6 -8 10 -17 8 -10 -2 -20 3 -22 10 -3 8 1 11 12 7 9 -4 17 -2 17 5 0 17 11 14 38 -11z m-107 -18 c7 -12 -24 -25 -37 -17 -6 4 -10 11 -10 16 0 13 39 13 47 1z m-53 -28 c16 -25 16 -26 -7 -26 -27 1 -60 23 -60 41 0 23 49 12 67 -15z m283 -11 c-9 -22 -30 -13 -34 16 -3 20 -1 22 18 12 13 -7 19 -18 16 -28z m-1018 -2 c4 -10 23 -36 43 -59 20 -22 37 -49 37 -60 0 -58 -67 22 -99 119 -3 10 -2 19 4 19 5 0 12 -9 15 -19z m361 -8 c-3 -3 -9 3 -13 13 -6 15 -5 16 6 6 7 -7 10 -16 7 -19z m445 -1 c10 -10 19 -24 19 -32 0 -9 12 -14 31 -14 17 0 34 -5 37 -10 4 -6 5 -11 3 -11 -1 -1 -20 -3 -42 -7 -26 -3 -39 -1 -39 7 0 6 -12 24 -27 40 -14 15 -26 32 -26 36 0 14 24 9 44 -9z m145 0 c0 -10 -6 -15 -15 -11 -8 3 -17 1 -19 -6 -4 -13 -29 -2 -29 13 0 9 22 17 50 20 7 0 13 -7 13 -16z m-724 -16 c0 -14 -24 -6 -30 10 -2 8 3 10 13 6 9 -3 17 -11 17 -16z m408 3 c-25 -20 -85 -43 -70 -27 16 16 66 45 80 46 8 0 4 -8 -10 -19z m-447 -9 c3 -10 18 -39 33 -65 15 -25 26 -47 24 -49 -5 -5 -92 110 -92 122 0 17 29 11 35 -8z m222 -20 c15 -15 25 -30 22 -33 -5 -5 -58 45 -58 56 0 10 10 3 36 -23z m-208 -88 c37 -55 67 -103 67 -106 0 -4 16 -24 36 -44 20 -20 37 -46 37 -58 0 -11 12 -28 26 -38 24 -16 40 -57 16 -43 -6 4 -10 2 -10 -4 0 -6 -8 -11 -16 -11 -9 0 -16 -5 -16 -11 0 -6 9 -10 20 -10 12 0 26 -9 32 -19 9 -16 10 -16 11 5 0 35 19 39 27 6 4 -16 17 -45 28 -64 12 -19 18 -37 16 -40 -3 -3 6 -17 20 -31 21 -21 23 -29 14 -46 -14 -27 -23 -27 -47 -1 -12 14 -16 29 -12 46 4 18 1 28 -10 32 -10 4 -15 16 -13 30 3 24 -5 27 -50 13 -18 -5 -25 3 -49 58 -20 47 -24 61 -11 51 14 -12 16 -11 9 9 -17 54 -172 294 -215 333 -29 26 -29 50 1 46 16 -2 44 -34 89 -103z m505 101 c-1 -1 -10 -8 -20 -15 -14 -11 -18 -10 -23 2 -4 10 3 14 21 14 14 0 24 0 22 -1z m61 -8 c4 -6 0 -16 -9 -21 -9 -5 -24 -16 -32 -24 -8 -9 -25 -13 -38 -9 -22 6 -21 7 12 35 38 33 56 38 67 19z m181 -8 c11 -6 9 -10 -8 -14 -14 -4 -21 -1 -21 9 0 16 9 18 29 5z m-312 -14 c1 -7 1 -19 0 -26 -1 -8 6 -13 16 -13 14 0 15 -3 4 -17 -8 -8 -16 -13 -19 -10 -3 3 -16 -4 -28 -15 -30 -29 -75 -33 -71 -8 3 14 -2 18 -15 16 -12 -2 -19 3 -19 13 0 23 59 27 75 4 11 -15 17 -16 26 -7 9 9 9 16 -1 28 -10 12 -10 19 1 31 17 20 30 21 31 4z m407 -7 c2 -8 -2 -12 -10 -10 -7 3 -16 11 -18 19 -3 8 1 12 9 9 8 -2 16 -11 19 -18z m80 10 c4 -6 2 -11 -4 -11 -6 0 -13 5 -17 11 -3 5 -2 10 4 10 6 0 14 -5 17 -10z m117 -29 c26 -30 33 -55 15 -55 -6 0 -11 9 -11 21 0 14 -7 21 -22 21 -20 0 -51 22 -51 36 0 17 48 1 69 -23z m-949 -29 c22 -1 59 -48 52 -68 -3 -10 0 -12 12 -8 11 4 15 2 11 -9 -4 -8 -1 -15 6 -15 19 0 64 -50 63 -70 -1 -11 -3 -14 -6 -6 -3 7 -10 13 -15 13 -15 0 -12 -22 5 -41 23 -26 73 -129 76 -158 l2 -27 -18 25 c-10 13 -44 65 -75 115 -31 50 -68 109 -82 131 -24 37 -25 40 -8 59 15 16 15 21 2 31 -12 10 -16 10 -20 -1 -5 -17 -38 8 -49 39 -12 31 0 43 14 14 7 -13 20 -24 30 -24z m517 13 c24 -34 20 -39 -23 -32 l-40 6 20 -23 c14 -15 23 -19 28 -11 5 8 10 8 14 2 6 -11 41 -10 79 2 30 10 28 -7 -4 -22 -18 -8 -28 -8 -36 0 -8 8 -11 6 -11 -6 0 -12 -6 -16 -17 -11 -15 5 -16 3 -6 -16 7 -12 12 -34 12 -48 0 -19 4 -25 15 -21 21 8 39 -31 29 -60 -8 -22 -10 -22 -40 15 -50 61 -80 123 -67 139 9 10 4 20 -16 41 l-28 28 24 20 c30 27 47 26 67 -3z m193 6 c-3 -13 -15 -19 -41 -20 -36 -1 -37 0 -21 17 22 25 66 27 62 3z m122 -3 c4 -6 2 -11 -4 -11 -6 0 -11 5 -11 11 0 5 2 10 4 10 3 0 8 -5 11 -10z m-711 -24 c-2 -7 -16 -15 -30 -16 -24 -3 -25 -3 -5 13 25 19 41 21 35 3z m643 3 c0 -6 -5 -11 -11 -11 -6 0 -8 5 -5 11 4 5 9 10 11 10 3 0 5 -5 5 -10z m-567 -16 c0 -9 -9 -16 -22 -16 -19 0 -20 3 -9 16 7 8 17 16 22 16 5 0 9 -8 9 -16z m-1001 -18 c-3 -8 -6 -6 -6 6 -1 11 2 18 5 14 4 -3 4 -12 1 -20z m1524 12 c-2 -6 -8 -12 -14 -12 -5 0 -11 6 -13 12 -3 6 4 11 13 11 10 0 16 -5 14 -11z m-901 -27 c0 -9 -5 -13 -10 -9 -6 3 -11 13 -11 22 0 9 5 13 11 9 5 -3 10 -13 10 -22z m1120 5 c-3 -9 -6 -6 -6 6 -1 11 2 17 5 14 4 -4 4 -13 1 -20z m-797 1 c-2 -6 -8 -12 -13 -12 -6 0 -12 6 -14 12 -2 6 4 11 14 11 9 0 16 -5 13 -11z m55 -20 c0 -6 -5 -11 -10 -11 -6 0 -11 5 -11 11 0 5 5 10 11 10 5 0 10 -5 10 -10z m179 0 c0 -6 -10 -11 -21 -11 -14 0 -21 -7 -21 -20 0 -28 -31 -37 -49 -14 -20 26 -13 38 28 46 56 10 63 10 63 -1z m-195 -40 c15 -45 36 -66 29 -30 -3 16 0 28 7 28 6 0 12 -5 12 -10 0 -5 7 -12 16 -16 13 -5 15 -1 9 18 -6 20 -4 20 16 -6 13 -16 21 -33 17 -36 -3 -4 -6 -1 -6 6 0 6 -5 12 -10 12 -6 0 -11 -12 -11 -26 0 -29 -10 -33 -29 -14 -9 9 -10 6 -6 -11 3 -13 10 -25 15 -29 14 -8 11 -38 -3 -33 -22 7 -106 163 -96 179 10 16 28 2 40 -32z m640 23 c9 -24 8 -26 -10 -19 -8 4 -15 13 -15 21 0 20 17 18 25 -2z m48 7 c0 -6 -5 -13 -10 -17 -6 -3 -11 1 -11 10 0 9 5 17 11 17 5 0 10 -5 10 -10z m71 -8 c2 -6 -6 -14 -18 -17 -13 -3 -21 0 -21 7 0 28 30 35 39 10z m-1715 -66 c-10 -29 -26 6 -19 42 l8 36 8 -31 c5 -18 6 -38 3 -47z m1375 47 c-3 -9 -11 -13 -17 -9 -6 4 -5 10 4 15 19 12 20 12 13 -6z m-182 -16 c8 11 13 12 17 3 3 -7 12 -10 20 -7 18 7 19 -1 3 -30 -11 -22 -12 -22 -26 -3 -14 19 -14 18 -14 -8 0 -19 -6 -28 -17 -28 -8 0 -18 -8 -22 -16 -6 -18 -24 -22 -24 -5 0 5 -10 20 -22 32 -27 26 -22 45 12 50 14 2 30 8 35 13 6 6 13 4 19 -4 6 -10 11 -9 19 3z m676 -88 c25 -49 38 -88 36 -107 -4 -33 -24 -45 -34 -20 -5 13 -2 16 10 11 24 -9 12 21 -45 114 -26 43 -44 83 -40 90 12 19 29 -3 73 -88z m-367 78 c4 -6 2 -11 -4 -11 -6 0 -11 5 -11 11 0 5 2 10 4 10 3 0 8 -5 11 -10z m-99 -55 c0 -18 -3 -19 -16 -8 -9 7 -16 19 -16 27 0 8 7 11 16 8 8 -4 16 -16 16 -27z m31 6 c0 -9 -5 -13 -10 -9 -6 3 -11 13 -11 22 0 9 5 13 11 9 5 -3 10 -13 10 -22z m329 6 c4 -18 3 -19 -10 -9 -16 14 -19 31 -5 31 5 0 12 -10 15 -22z m-234 1 c0 -6 -5 -11 -11 -11 -6 0 -10 5 -10 11 0 5 4 10 10 10 6 0 11 -5 11 -10z m121 -13 c3 -4 0 -16 -7 -28 -13 -19 -15 -20 -27 -3 -7 9 -13 22 -14 29 0 11 37 13 48 2z m-131 -29 c12 0 18 -5 14 -11 -3 -6 1 -23 10 -37 19 -29 21 -36 8 -36 -6 0 -13 11 -16 24 -3 14 -16 28 -27 31 -16 4 -21 14 -20 35 0 18 3 23 6 12 2 -10 14 -18 25 -18z m-533 -29 c23 -38 32 -45 39 -34 8 12 13 10 28 -11 24 -34 66 -124 66 -142 0 -16 -40 -28 -48 -14 -4 6 -18 8 -32 4 -14 -3 -25 -1 -25 4 0 5 -3 17 -6 26 -5 11 -1 17 10 17 9 0 17 -6 18 -13 0 -7 4 -4 8 7 6 14 1 27 -17 44 -13 14 -29 25 -34 25 -11 0 -15 15 -11 40 1 8 -5 24 -13 37 -20 31 -29 60 -20 59 4 0 21 -22 37 -49z m284 26 c7 -29 1 -36 -19 -19 -14 11 -17 10 -17 -6 -1 -16 -3 -15 -11 6 -7 18 -6 27 3 34 23 14 37 9 44 -15z m185 -9 c0 -5 -9 -9 -21 -9 -23 0 -29 16 -8 23 16 6 29 0 29 -14z m157 -39 c0 -8 -5 -12 -12 -10 -14 5 -31 56 -21 65 7 8 33 -35 33 -55z m-294 15 c0 -5 -7 -3 -15 4 -9 7 -13 18 -9 23 6 11 24 -9 24 -27z m-104 -50 c0 -5 -5 -9 -10 -9 -12 0 -69 51 -63 56 2 2 14 9 25 15 18 10 23 7 34 -21 7 -17 14 -36 14 -41z m-84 17 c0 -8 -8 -15 -16 -15 -17 0 -21 12 -9 24 12 12 25 8 25 -9z m735 -11 c0 -8 -5 -15 -11 -15 -6 0 -10 10 -10 22 0 12 4 18 10 15 6 -4 11 -14 11 -22z m-463 -60 c1 -24 -4 -23 -36 7 -31 29 -34 45 -8 51 20 4 44 -27 44 -58z m84 -6 c1 -28 -24 -5 -38 36 l-14 41 26 -31 c15 -18 26 -38 26 -46z m-171 27 c8 -5 14 -17 14 -26 1 -10 7 -29 15 -43 10 -19 11 -31 2 -50 -15 -33 -20 -32 -36 9 -9 24 -9 35 0 40 13 9 3 63 -13 63 -5 0 -10 -6 -10 -13 0 -7 -7 -3 -15 8 -20 26 -20 37 -1 29 9 -3 16 0 17 9 0 10 2 10 7 -2 3 -9 12 -20 20 -24z m-162 5 c-1 -7 4 -16 13 -19 10 -4 16 -20 16 -42 0 -29 3 -34 18 -29 15 6 15 4 -2 -10 -36 -29 -56 -22 -63 22 -4 22 -11 48 -17 58 -6 10 -7 24 -4 30 9 14 42 6 39 -10z m519 -4 c-3 -8 -6 -6 -6 6 -1 11 2 18 5 14 4 -3 4 -12 1 -20z m-429 -25 c2 -17 9 -34 16 -38 6 -4 8 -11 4 -15 -12 -12 -37 7 -58 41 -16 26 -16 30 -2 39 24 15 36 7 40 -27z m328 23 c0 -8 -10 -17 -22 -20 -22 -6 -22 -5 -4 14 22 24 26 25 26 6z m132 -41 c5 -13 8 -26 9 -30 0 -4 4 -11 8 -15 11 -11 10 -25 -2 -25 -6 0 -11 7 -11 16 0 8 -7 18 -16 22 -17 6 -22 56 -6 56 6 0 14 -11 18 -24z m-269 -2 c0 -9 -5 -16 -10 -16 -6 0 -11 7 -11 16 0 8 5 16 11 16 5 0 10 -8 10 -16z m152 -5 c3 -5 1 -13 -5 -16 -6 -4 -10 1 -10 10 0 18 6 21 15 6z m-43 -7 c19 -7 23 -35 7 -35 -6 0 -11 -8 -11 -16 0 -27 -18 -17 -24 13 -8 41 -1 50 28 38z m217 -9 c0 -9 -5 -16 -11 -16 -6 0 -10 7 -10 16 0 8 4 16 10 16 6 0 11 -8 11 -16z m-263 -5 c0 -6 -2 -11 -5 -11 -2 0 -7 5 -11 11 -3 5 -1 10 5 10 6 0 11 -5 11 -10z m-87 -29 l23 -29 1 29 c0 36 17 37 26 1 3 -15 13 -34 22 -43 17 -17 20 -41 6 -50 -6 -3 -15 9 -21 26 -11 32 -33 43 -33 16 0 -32 -20 -24 -41 16 -35 67 -26 85 17 34z m181 -27 c-11 -12 -24 -18 -28 -14 -5 5 0 14 10 22 10 7 19 20 19 28 0 12 1 12 9 0 6 -10 3 -22 -10 -36z m53 29 c0 -8 -5 -15 -10 -15 -6 0 -11 7 -11 15 0 9 5 16 11 16 5 0 10 -7 10 -16z m207 10 c-3 -4 -12 -4 -20 -1 -8 3 -6 6 6 6 11 1 18 -2 14 -5z m87 -43 c0 -8 -7 -14 -15 -14 -14 0 -29 47 -18 58 8 8 33 -26 33 -44z m-1040 25 c0 -7 -4 -20 -10 -28 -9 -14 -12 -14 -20 -1 -7 10 -6 20 1 29 14 17 30 17 29 0z m389 -13 c0 -9 -5 -14 -10 -10 -6 3 -11 11 -11 16 0 6 5 10 11 10 5 0 10 -7 10 -16z m389 -11 c0 -9 -5 -13 -11 -10 -6 4 -10 11 -10 17 0 5 4 10 10 10 6 0 11 -8 11 -17z m-515 -57 c36 -72 37 -73 16 -73 -9 0 -16 6 -16 14 0 7 -9 22 -20 32 -23 20 -45 74 -35 84 14 14 25 3 55 -57z m32 42 c0 -12 -7 -21 -16 -21 -9 0 -16 9 -16 21 0 12 7 21 16 21 9 0 16 -9 16 -21z m36 -3 c0 -9 4 -20 8 -24 5 -5 8 -17 8 -28 0 -15 -6 -19 -24 -17 -13 2 -23 10 -22 17 0 7 2 28 2 45 2 34 28 40 28 7z m506 -10 c-3 -7 -5 -1 -5 13 0 14 2 20 5 13 3 -7 3 -19 0 -26z m-91 13 c0 -6 -5 -10 -11 -10 -6 0 -8 4 -5 10 4 6 9 11 11 11 3 0 5 -5 5 -11z m194 0 c4 -6 2 -10 -4 -10 -6 0 -11 4 -11 10 0 6 2 11 4 11 3 0 8 -5 11 -11z m-750 -20 c0 -5 11 -26 26 -47 14 -21 29 -57 33 -80 6 -38 4 -42 -17 -42 -12 0 -20 4 -17 9 6 10 -55 130 -69 136 -4 2 -5 10 -2 18 6 16 46 22 46 6z m204 -31 c5 -18 14 -33 18 -33 5 0 9 -8 9 -18 0 -15 -3 -15 -19 3 -25 28 -48 91 -31 86 7 -2 17 -19 23 -38z m58 25 c0 -9 -9 -16 -21 -16 -12 0 -21 7 -21 16 0 9 9 16 21 16 12 0 21 -7 21 -16z m42 -7 c0 -6 7 -18 16 -26 14 -14 16 -14 16 1 0 22 13 20 35 -4 18 -19 17 -20 -15 -27 -39 -9 -57 5 -69 51 -5 22 -4 28 5 23 7 -4 12 -12 12 -18z m299 -5 c-22 -16 -36 -19 -36 -6 0 16 23 32 39 26 14 -5 13 -8 -3 -20z m-769 -10 c10 -22 9 -29 -3 -36 -15 -10 -40 21 -41 50 -1 24 31 14 44 -14z m604 0 c-3 -3 -9 3 -13 13 -5 15 -4 17 6 6 7 -7 11 -15 7 -19z m76 17 c0 -6 -9 -11 -21 -11 -12 0 -21 5 -21 11 0 5 9 10 21 10 12 0 21 -5 21 -10z m-880 -30 c3 9 15 5 38 -13 38 -31 40 -37 12 -45 -14 -3 -26 3 -36 17 -13 19 -16 20 -16 5 0 -10 -4 -18 -9 -18 -11 0 -22 25 -22 49 0 13 3 13 14 4 12 -10 16 -9 19 1z m-88 -42 c2 -25 -1 -33 -13 -33 -9 0 -16 8 -16 20 0 11 -6 23 -12 27 -8 5 -7 10 3 17 22 14 35 4 38 -31z m966 10 c2 -15 -2 -22 -13 -22 -11 0 -16 9 -16 27 0 33 24 29 29 -5z m131 -1 c6 -23 -9 -30 -16 -8 -3 8 -14 2 -29 -17 -16 -19 -27 -26 -34 -19 -13 13 -1 33 19 33 9 0 13 4 10 10 -6 10 26 33 38 26 3 -2 9 -14 12 -25z m60 16 c0 -10 -6 -13 -16 -10 -8 3 -13 10 -10 16 10 14 26 11 26 -6z m42 -7 c0 -6 -5 -8 -10 -4 -6 3 -11 11 -11 17 0 6 5 7 11 4 5 -4 10 -11 10 -17z m-787 -12 c11 -13 20 -32 20 -42 0 -9 5 -20 11 -24 6 -3 11 -20 11 -38 0 -18 -5 -29 -11 -25 -6 4 -11 1 -11 -7 0 -8 -5 -4 -12 7 -6 12 -25 38 -42 60 -28 36 -37 71 -22 85 13 14 37 7 56 -16z m228 -11 c19 7 16 -5 -8 -28 -21 -21 -21 -21 -38 6 -15 23 -16 28 -3 36 10 6 18 5 25 -4 6 -8 17 -12 24 -10z m-585 -2 c0 -9 -5 -16 -11 -16 -6 0 -10 7 -10 16 0 8 4 16 10 16 6 0 11 -8 11 -16z m283 -47 c0 -5 -8 -9 -18 -8 -13 1 -19 11 -21 30 -2 29 -2 29 18 9 12 -12 21 -25 21 -31z m515 42 c0 -13 -41 -35 -67 -38 -11 0 -23 -7 -27 -14 -5 -7 -8 1 -8 19 0 26 3 30 14 21 10 -9 14 -9 14 0 0 16 29 15 35 -2 3 -9 7 -7 12 6 8 19 27 25 27 8z m-662 -52 c0 -10 6 -24 13 -31 10 -10 10 -15 -3 -23 -27 -17 -46 -11 -60 18 -18 40 -16 64 5 69 24 5 45 -10 45 -33z m82 10 c12 -35 -1 -44 -18 -14 -9 16 -11 14 -12 -13 l0 -31 -15 26 c-23 41 -20 63 9 63 19 0 28 -8 36 -31z m303 -16 c-10 -25 -28 -9 -28 24 0 25 1 26 17 10 10 -9 14 -24 11 -34z m140 16 c4 -3 10 -18 14 -34 12 -47 -12 -44 -34 4 -15 33 -17 47 -8 53 7 4 14 2 16 -5 3 -7 8 -16 12 -18z m-50 -34 c-18 -17 -39 5 -30 29 7 18 8 18 25 1 14 -14 15 -20 5 -30z m250 28 c11 -13 11 -24 -1 -58 -7 -23 -16 -41 -20 -41 -8 0 -32 52 -32 70 0 7 -5 14 -11 14 -6 0 -8 -12 -4 -27 4 -15 2 -26 -4 -26 -13 0 -27 53 -16 64 5 4 21 10 35 12 14 3 29 6 33 7 3 0 12 -6 20 -15z m82 -29 c1 -23 -2 -39 -8 -39 -6 0 -11 4 -11 9 0 5 -4 25 -7 44 -6 26 -4 33 8 29 8 -3 16 -22 18 -43z m135 14 c1 -12 -5 -21 -13 -21 -11 0 -13 -9 -9 -32 4 -20 2 -31 -5 -31 -12 0 -14 5 -16 34 -1 7 -6 16 -11 20 -6 4 1 17 16 28 32 27 36 27 38 2z m-1004 -45 c8 -14 6 -20 -8 -26 -11 -3 -22 -8 -26 -10 -4 -2 -7 18 -6 45 0 45 2 47 15 29 8 -11 20 -28 25 -38z m666 -8 c1 -31 -4 -42 -18 -46 -13 -3 -17 -10 -12 -24 6 -17 4 -17 -11 2 -23 29 -21 63 7 92 29 30 34 27 34 -24z m-475 10 c12 -20 -19 -62 -45 -62 -9 0 -22 -6 -28 -12 -14 -14 -58 -9 -64 8 -2 8 15 18 41 25 25 7 40 15 32 18 -11 4 -10 9 5 25 20 23 44 22 59 -2z m277 5 c4 -10 1 -21 -6 -25 -18 -11 -11 -107 8 -122 11 -9 11 -13 -3 -25 -14 -11 -18 -9 -27 15 -6 16 -12 47 -14 70 -2 23 -7 44 -11 48 -13 13 -6 35 10 35 9 0 13 4 10 10 -4 6 1 11 10 11 9 0 20 -8 23 -17z m457 -15 c3 -20 1 -31 -6 -28 -13 4 -20 60 -7 60 5 0 11 -15 13 -32z m-653 -14 c0 -4 -5 -5 -10 -2 -6 4 -11 15 -11 24 0 16 2 16 11 3 5 -9 10 -20 10 -25z m294 20 c0 -10 -6 -13 -16 -10 -8 4 -15 1 -15 -5 0 -7 -5 -12 -11 -12 -6 0 -10 7 -10 16 0 9 4 14 9 11 6 -4 13 -2 17 4 9 16 26 13 26 -4z m-168 -32 c0 -15 -4 -26 -9 -26 -13 0 -24 30 -17 42 12 19 26 10 26 -16z m88 -11 c-3 -8 -10 -13 -16 -10 -14 10 -11 26 6 26 10 0 13 -6 10 -16z m101 -22 c0 -16 -27 -20 -36 -5 -3 5 -3 17 0 27 5 13 10 14 21 4 8 -6 15 -18 15 -26z m-240 -3 c-8 -5 -11 -14 -7 -21 3 -6 2 -11 -3 -11 -10 0 -23 24 -23 42 0 5 8 6 17 3 13 -5 16 -3 9 8 -7 12 -6 12 6 1 13 -11 13 -15 1 -22z m367 -32 c-8 -45 -9 -46 -19 -22 -8 19 -6 33 7 55 20 36 24 27 12 -33z m107 42 c3 -12 1 -21 -4 -21 -5 0 -9 9 -9 21 0 11 1 21 4 21 2 0 6 -10 9 -21z m-796 -4 c24 -18 14 -49 -16 -49 -12 0 -25 10 -30 24 -15 40 8 52 46 25z m508 -10 c-3 -17 -12 -24 -33 -27 -34 -4 -37 12 -5 35 32 22 42 20 38 -8z m-586 3 c0 -6 -5 -10 -11 -10 -6 0 -10 4 -10 10 0 6 4 11 10 11 6 0 11 -5 11 -11z m-79 -21 c4 -6 16 -8 27 -5 12 4 28 1 36 -6 11 -9 16 -9 16 -1 0 7 4 12 10 12 6 0 11 -6 11 -13 0 -20 -41 -41 -64 -34 -11 4 -20 2 -20 -4 0 -16 -32 -23 -54 -12 -25 14 -25 29 -3 54 20 22 31 24 41 9z m523 -52 c19 -53 16 -63 -20 -63 -29 0 -34 21 -9 42 11 9 14 23 9 46 -10 44 1 32 20 -25z m219 24 c23 -21 25 -45 4 -45 -8 0 -17 -6 -19 -13 -2 -7 -10 3 -18 21 -7 19 -18 34 -23 34 -6 0 -7 4 -4 10 10 16 38 13 60 -7z m172 7 c21 -8 31 -8 36 1 5 8 10 8 14 1 4 -6 -7 -17 -24 -25 -18 -7 -32 -17 -32 -22 0 -17 -18 -6 -30 19 -19 42 -14 45 36 26z m-113 -20 c3 -8 -1 -12 -9 -10 -8 3 -16 11 -19 19 -2 8 2 12 10 9 7 -2 16 -11 18 -18z m-607 -15 c0 -22 -37 -69 -46 -59 -7 8 -27 51 -27 57 0 7 41 25 60 26 7 0 13 -11 13 -24z m299 14 c4 -6 -1 -10 -10 -10 -9 0 -16 4 -16 10 0 6 4 11 10 11 5 0 13 -5 16 -11z m174 -3 c0 -7 7 -26 15 -43 16 -29 13 -48 -5 -48 -6 0 -13 18 -17 42 -5 28 -12 42 -24 42 -15 0 -15 1 -1 10 21 14 31 13 32 -3z m-1113 -18 c0 -6 -5 -10 -11 -10 -6 0 -10 4 -10 10 0 6 4 11 10 11 6 0 11 -5 11 -11z m1313 -17 c11 -13 11 -18 -2 -26 -14 -9 -41 13 -41 35 0 14 28 9 43 -9z m-49 -37 c-3 -5 -10 -7 -15 -4 -5 3 -11 -5 -12 -18 -3 -17 -12 -25 -32 -27 -24 -3 -27 0 -22 21 9 36 25 52 46 45 16 -5 19 -2 14 13 -6 17 -5 17 10 -1 9 -11 14 -24 11 -29z m-204 18 c0 -2 3 -11 6 -20 5 -12 1 -15 -16 -10 -25 6 -30 35 -6 35 9 0 16 -2 16 -5z m-63 -40 c0 -15 -41 -44 -49 -36 -3 3 -2 15 1 27 8 24 48 31 48 9z m84 -16 c0 -11 -23 -34 -34 -34 -4 0 -8 9 -8 21 0 14 7 21 21 21 12 0 21 -4 21 -8z m74 3 c0 -11 -21 -15 -27 -6 -3 6 1 11 10 11 9 0 17 -2 17 -5z m-153 -42 c-18 -14 -19 -17 -5 -26 13 -9 12 -11 -7 -11 -13 0 -26 5 -30 11 -8 13 24 41 47 41 11 0 9 -4 -5 -15z m169 -15 c-8 -13 -37 -16 -37 -3 0 5 5 14 12 21 15 15 36 -1 25 -18z m-86 4 c-7 -16 -35 -22 -35 -7 0 13 12 23 27 23 8 0 11 -7 8 -16z m-266 -263 c0 -9 -10 -26 -21 -38 l-21 -23 0 22 c0 12 -3 30 -7 39 -5 12 0 17 21 17 18 0 28 -6 28 -17z"/>
		<path d="M2384 5586 c0 -6 4 -10 10 -10 6 0 11 4 11 10 0 6 -5 11 -11 11 -6 0 -10 -5 -10 -11z"/>
		<path d="M4047 4685 c-6 -4 -11 -26 -11 -49 0 -23 -7 -55 -15 -72 -12 -26 -12 -31 9 -52 17 -17 36 -22 77 -23 54 0 56 1 66 37 6 20 14 41 18 47 3 6 9 23 13 39 5 23 2 32 -19 45 -19 13 -31 14 -45 6 -16 -8 -24 -6 -38 10 -18 21 -36 26 -55 12z m101 -53 c0 -14 -31 -37 -39 -29 -8 7 16 38 29 38 5 0 10 -4 10 -9z m5 -64 c-4 -6 -11 -11 -17 -11 -6 0 -8 5 -4 11 3 5 11 10 17 10 6 0 7 -5 4 -10z"/>
		<path d="M2323 4208 c-18 -23 -25 -58 -12 -66 14 -9 76 55 67 69 -9 14 -43 12 -55 -3z"/>
		<path d="M3985 3633 c-4 -6 -28 -21 -52 -32 -37 -18 -45 -26 -40 -43 4 -16 12 -20 29 -17 17 3 22 1 19 -9 -8 -21 28 -18 67 6 19 12 35 28 35 37 0 9 5 16 12 16 8 0 6 7 -5 18 -15 15 -20 15 -36 2 -10 -8 -29 -21 -42 -28 -20 -11 -24 -11 -24 3 0 8 9 16 19 16 19 0 44 18 44 33 0 12 -19 10 -26 -2z"/>
		<path d="M3879 3377 c-13 -34 0 -64 30 -68 25 -2 29 1 29 26 0 40 -47 74 -59 42z"/>
		<path d="M4323 3290 c-25 -7 -23 -32 3 -40 27 -9 42 1 42 27 0 20 -8 22 -45 13z"/>
		<path d="M4523 3076 c-26 -20 -29 -27 -23 -61 10 -52 26 -60 55 -25 l24 29 -13 -30 c-12 -27 -11 -31 7 -42 34 -20 83 -28 91 -14 6 8 8 6 8 -6 1 -34 20 -19 35 26 34 100 37 113 28 119 -6 3 -10 0 -10 -8 -1 -9 -4 -8 -11 4 -16 27 -44 16 -59 -24 l-13 -36 6 40 c5 34 3 39 -15 39 -11 0 -34 2 -51 5 -21 4 -39 -1 -59 -16z m88 -80 c-11 -18 -11 -18 -12 3 0 24 13 43 19 26 2 -6 -1 -19 -7 -29z m58 -5 c-3 -9 -6 -6 -6 6 -1 11 2 17 5 14 4 -4 4 -13 1 -20z m24 -23 c-10 -10 -12 -8 -6 7 3 11 7 25 8 31 0 7 3 4 6 -7 3 -10 -1 -25 -8 -31z m-56 8 c-4 -10 -9 -16 -12 -13 -3 3 -2 13 1 23 4 10 9 16 12 13 3 -3 3 -14 -1 -23z"/>
		<path d="M2272 3747 c-8 -14 29 -82 44 -82 8 0 15 4 15 9 0 6 13 9 29 8 24 -1 29 3 32 27 2 17 -2 31 -10 34 -26 10 -105 12 -110 4z"/>
		<path d="M2436 3728 c-21 -16 -24 -23 -13 -34 8 -8 13 -9 13 -1 0 6 8 11 18 10 12 -1 20 7 22 22 4 29 -6 29 -40 3z"/>
		<path d="M4505 2305 c0 -15 43 -79 53 -79 6 0 2 15 -8 32 -20 34 -45 60 -45 47z"/>
		<path d="M4820 1830 c0 -4 4 -15 10 -24 9 -14 10 -13 10 2 0 10 -4 21 -10 24 -6 4 -10 3 -10 -2z"/>
		<path d="M4856 1460 c-3 -6 -1 -11 5 -11 6 0 11 5 11 11 0 5 -2 10 -5 10 -2 0 -7 -5 -11 -10z"/>
		<path d="M3434 3176 c0 -8 4 -15 9 -17 5 -2 12 -15 16 -28 7 -22 5 -23 -19 -17 -15 4 -27 4 -27 0 0 -4 23 -31 52 -59 29 -29 53 -60 53 -68 0 -18 48 -40 64 -30 6 3 8 11 6 18 -3 7 0 21 5 31 10 20 -8 42 -85 106 -27 21 -33 31 -22 38 18 11 6 28 -26 34 -17 3 -26 0 -26 -8z m113 -137 c25 -18 31 -36 11 -36 -15 0 -51 31 -51 44 0 13 14 10 40 -8z"/>
		<path d="M2462 3099 c-6 -5 -34 -17 -63 -27 -57 -19 -108 -52 -93 -61 5 -4 38 7 72 24 34 17 78 36 97 42 19 6 37 16 40 21 8 13 -40 13 -53 1z"/>
		<path d="M2216 3082 c0 -9 -27 -28 -61 -43 -132 -61 -190 -87 -273 -120 -56 -23 -89 -42 -93 -55 -10 -32 1 -32 66 1 34 17 123 58 198 90 196 87 268 122 268 133 0 14 -36 12 -52 -4 -11 -10 -15 -10 -19 0 -7 19 -34 17 -34 -2z"/>
		<path d="M2483 3047 c-36 -12 -63 -32 -54 -40 9 -9 81 26 81 40 0 5 -2 8 -3 7 -2 0 -12 -4 -24 -7z"/>
		<path d="M2613 2982 c-25 -17 -50 -31 -54 -31 -5 0 -16 -6 -24 -14 -30 -27 -42 -35 -78 -52 -20 -9 -45 -27 -55 -39 -10 -12 -25 -21 -34 -21 -9 0 -16 -4 -16 -9 0 -12 -81 -44 -115 -44 -17 0 -34 5 -38 11 -9 15 15 42 39 42 23 0 26 16 4 24 -19 7 -47 -2 -47 -15 0 -5 -6 -9 -12 -9 -6 0 -32 -15 -57 -32 -25 -17 -53 -31 -62 -31 -9 0 -17 -4 -17 -8 0 -22 -52 -66 -77 -66 -18 0 -40 -13 -64 -37 -19 -20 -42 -36 -50 -36 -18 0 -67 -50 -58 -59 8 -8 71 18 71 30 0 4 6 8 12 8 7 0 24 10 39 23 18 17 27 20 30 10 3 -7 17 -25 32 -39 l28 -25 -23 -20 c-22 -19 -31 -54 -17 -68 3 -3 33 22 65 56 32 34 62 63 67 63 5 0 15 4 22 10 7 6 38 30 68 54 30 23 52 47 49 52 -5 9 -59 -25 -142 -88 -21 -16 -47 -28 -59 -28 -26 0 -48 23 -40 43 6 14 90 67 142 90 85 36 86 36 109 16 12 -11 31 -23 41 -27 19 -7 19 -8 0 -41 -10 -19 -25 -42 -33 -52 -8 -10 -11 -23 -7 -30 4 -6 -22 -40 -62 -80 -63 -63 -84 -98 -59 -98 5 0 32 26 60 58 49 55 77 72 77 45 0 -7 -8 -21 -18 -32 -16 -17 -16 -21 -1 -36 15 -15 17 -12 24 27 4 24 11 45 16 48 5 3 6 15 3 27 -3 11 0 21 6 21 7 0 12 9 12 21 0 14 7 21 21 21 12 0 21 5 21 11 0 12 26 41 37 41 4 0 15 9 25 19 9 10 36 33 59 50 23 17 49 39 59 49 9 10 21 19 27 19 18 0 68 60 56 67 -7 5 -21 -4 -33 -19 -12 -15 -27 -27 -34 -27 -16 0 -160 -110 -199 -151 -25 -26 -32 -29 -40 -17 -6 10 -4 19 6 27 10 7 16 29 16 55 0 37 3 44 22 44 13 0 30 8 40 18 9 10 34 28 56 39 22 11 40 24 40 29 0 4 6 8 13 8 7 0 20 9 29 21 8 12 21 21 29 21 7 0 24 9 36 21 12 12 31 21 41 21 10 0 25 7 34 16 8 8 21 16 27 16 6 0 11 4 11 10 0 21 -50 10 -96 -21z"/>
		<path d="M2252 2998 c-6 -2 -23 -7 -39 -10 -16 -4 -29 -13 -29 -22 0 -21 17 -19 59 6 43 27 47 38 9 26z"/>
		<path d="M2468 2977 c-15 -8 -34 -18 -42 -22 -9 -3 -24 -10 -34 -16 -11 -5 -27 -9 -38 -9 -25 0 -81 -59 -66 -68 7 -4 35 7 63 24 28 17 77 43 110 58 32 15 59 32 59 38 0 15 -22 13 -52 -5z"/>
		<path d="M2289 2967 c-7 -9 -20 -16 -28 -16 -7 0 -14 -5 -14 -11 0 -6 7 -10 15 -10 25 0 70 23 66 35 -6 18 -25 19 -39 2z"/>
		<path d="M3644 2972 c0 -14 104 -88 113 -80 4 4 -14 26 -40 49 -46 39 -73 51 -73 31z"/>
		<path d="M2129 2886 c-58 -31 -76 -51 -47 -51 28 0 123 53 123 68 0 22 -6 20 -76 -17z"/>
		<path d="M2788 2898 c-4 -12 -13 -21 -20 -21 -7 0 -20 -12 -28 -26 -7 -15 -29 -39 -49 -53 -19 -15 -34 -32 -34 -37 0 -6 -22 -31 -48 -57 -26 -25 -47 -49 -47 -53 0 -3 -21 -27 -47 -53 -26 -25 -47 -51 -47 -57 0 -6 -5 -10 -11 -10 -6 0 -10 -8 -10 -16 0 -12 -13 -16 -48 -16 -26 0 -47 -5 -47 -10 0 -19 5 -27 15 -24 5 2 16 1 24 -2 11 -4 12 -9 1 -26 -19 -30 0 -42 23 -14 10 13 27 24 36 24 10 0 17 9 17 23 0 15 24 50 65 92 36 38 78 84 92 104 39 53 80 96 93 96 7 0 12 7 12 16 0 9 26 41 58 71 32 31 58 59 58 63 0 4 -12 7 -26 7 -16 0 -28 -8 -32 -21z"/>
		<path d="M3509 2908 c2 -8 11 -16 18 -19 8 -2 12 2 10 10 -3 7 -11 16 -19 18 -8 3 -12 -1 -9 -9z"/>
		<path d="M1880 2823 c-54 -28 -104 -51 -111 -51 -17 0 -68 -41 -68 -54 0 -6 10 -7 22 -3 37 11 283 146 283 154 0 15 -28 5 -126 -46z"/>
		<path d="M1668 2816 c-20 -16 -162 -103 -252 -156 -12 -6 -34 -23 -49 -37 -16 -14 -71 -56 -123 -93 -102 -73 -131 -99 -131 -115 0 -13 31 1 54 24 30 29 137 113 144 113 5 0 18 9 31 21 25 23 313 199 327 199 13 0 64 42 64 53 0 17 -38 11 -65 -9z"/>
		<path d="M2027 2818 c1 -12 3 -14 7 -6 3 8 2 17 -1 20 -4 4 -6 -3 -6 -14z"/>
		<path d="M3549 2827 c0 -6 8 -17 17 -25 15 -12 16 -11 13 6 -4 21 -30 37 -30 19z"/>
		<path d="M3191 2797 c-9 -156 -27 -293 -38 -292 -8 1 -46 2 -86 3 -89 2 -117 20 -91 60 19 29 20 36 6 36 -18 0 -52 -46 -52 -70 0 -36 38 -55 126 -60 43 -3 84 -5 91 -6 9 0 14 -17 14 -47 0 -48 -12 -66 -34 -52 -7 5 -55 9 -106 10 -73 1 -95 -2 -99 -14 -10 -25 10 -29 140 -29 123 0 124 0 130 26 3 15 15 28 27 30 43 7 89 35 89 54 0 15 -11 21 -52 27 -49 6 -53 9 -56 40 -2 18 2 50 8 70 16 52 14 223 -3 228 -7 3 -14 -4 -14 -14z m54 -361 c0 -6 -12 -10 -27 -10 -14 0 -26 4 -26 10 0 6 12 11 26 11 15 0 27 -5 27 -11z"/>
		<path d="M1907 2757 c-19 -16 -26 -27 -18 -32 11 -7 73 34 74 50 1 15 -26 6 -56 -18z"/>
		<path d="M3439 2720 c-7 -11 33 -102 48 -112 16 -9 10 31 -11 77 -21 47 -27 52 -37 35z"/>
		<path d="M1632 2682 c-20 -16 -19 -16 6 -11 14 4 30 6 34 6 4 0 8 5 8 11 0 16 -25 13 -48 -6z"/>
		<path d="M1730 2667 c-15 -12 -31 -21 -36 -21 -12 0 -38 -43 -30 -50 6 -6 82 30 113 54 10 8 19 19 19 26 0 19 -37 14 -66 -9z"/>
		<path d="M3396 2654 c-7 -19 13 -71 27 -71 16 0 9 76 -8 81 -7 3 -16 -2 -19 -10z"/>
		<path d="M1510 2617 c-91 -60 -131 -97 -104 -97 11 0 103 60 125 81 8 7 19 14 24 14 6 0 8 4 4 10 -9 14 -16 13 -49 -8z"/>
		<path d="M3686 2584 c0 -6 4 -11 10 -11 6 0 11 -10 11 -21 0 -11 3 -21 8 -23 8 -4 65 -118 65 -131 0 -3 7 -13 16 -21 13 -14 15 -12 9 19 -7 40 -36 103 -48 103 -5 0 -8 7 -8 16 0 8 -5 16 -10 16 -6 0 -12 12 -13 28 -4 28 -40 50 -40 25z"/>
		<path d="M1583 2564 c-7 -11 -22 -22 -32 -26 -18 -7 -26 -39 -10 -39 17 0 97 65 91 74 -10 16 -34 11 -49 -9z"/>
		<path d="M3423 2510 c0 -6 5 -11 11 -11 5 0 10 5 10 11 0 5 -5 10 -10 10 -6 0 -11 -5 -11 -10z"/>
		<path d="M3812 2491 c19 -52 34 -76 49 -76 17 0 17 12 1 49 -24 53 -68 76 -50 27z"/>
		<path d="M1672 2478 c-12 -12 -25 -21 -28 -21 -6 0 -36 -26 -95 -81 -20 -19 -40 -34 -43 -34 -9 0 -57 -56 -57 -66 0 -18 34 -6 57 20 16 19 26 24 31 16 5 -8 1 -12 -9 -12 -9 0 -16 -6 -16 -12 0 -7 -11 -22 -24 -33 -16 -15 -19 -23 -10 -26 7 -3 13 -9 13 -15 0 -14 27 -40 41 -40 6 0 12 7 12 15 0 9 5 16 13 17 7 0 2 6 -11 12 -29 14 -30 40 -2 61 11 8 21 23 21 33 0 11 4 19 10 19 5 0 19 10 31 23 16 17 18 25 9 31 -24 15 2 23 28 9 21 -11 30 -11 50 1 30 19 82 14 82 -8 0 -18 -90 -105 -119 -114 -10 -4 -18 -11 -18 -16 0 -6 -6 -10 -14 -10 -7 0 -20 -16 -28 -36 -10 -26 -22 -37 -45 -42 -17 -3 -35 -3 -39 -1 -5 3 -12 -4 -16 -15 -3 -12 -11 -21 -16 -21 -6 0 -10 -12 -10 -25 0 -15 -10 -30 -26 -38 -15 -8 -26 -19 -26 -24 0 -9 -92 52 -102 68 -2 4 18 30 46 58 39 38 51 58 51 84 1 19 9 43 19 53 19 21 23 44 7 44 -11 0 -42 -30 -42 -41 0 -7 -36 -49 -95 -113 -11 -13 -21 -31 -21 -41 0 -9 -19 -36 -42 -59 -23 -24 -42 -47 -42 -51 0 -4 -9 -10 -21 -13 -11 -3 -24 -14 -28 -25 -4 -10 -17 -29 -29 -42 -12 -12 -31 -35 -43 -51 -11 -16 -26 -35 -32 -41 -6 -6 -14 -20 -18 -30 -7 -19 -60 -26 -60 -7 0 6 -13 19 -30 29 -34 20 -32 35 10 75 26 25 42 64 26 64 -14 0 -58 -26 -58 -34 0 -6 -22 -30 -48 -55 -26 -25 -47 -51 -47 -57 0 -7 -4 -12 -10 -12 -5 0 -13 -9 -16 -21 -4 -12 -13 -21 -21 -21 -8 0 -18 -9 -21 -21 -4 -11 -23 -38 -44 -59 -27 -27 -35 -44 -31 -60 3 -13 6 -29 6 -37 1 -25 47 -8 63 25 9 17 28 43 43 58 14 15 36 46 49 68 19 35 29 42 61 45 l39 3 -4 -65 c-2 -43 0 -67 8 -70 7 -2 16 6 20 18 3 12 15 22 27 22 14 0 20 7 20 26 0 14 5 26 11 26 5 0 10 8 10 18 0 11 13 25 30 32 18 8 37 30 49 55 10 23 23 42 28 42 4 0 9 4 9 10 0 19 126 137 147 137 11 0 21 -5 21 -10 0 -6 7 -11 16 -11 26 0 29 -28 4 -53 -22 -22 -22 -25 -6 -36 23 -17 22 -20 -14 -56 -18 -18 -32 -37 -32 -43 0 -6 -5 -11 -11 -11 -7 0 -7 6 0 20 14 25 14 64 1 64 -14 0 -53 -58 -53 -78 0 -9 5 -17 11 -17 5 0 10 -9 10 -21 0 -12 -5 -21 -10 -21 -6 0 -11 -6 -11 -14 0 -8 -21 -25 -47 -38 -26 -14 -47 -29 -47 -34 0 -5 -10 -8 -21 -8 -12 0 -21 -5 -21 -10 0 -5 -11 -12 -24 -15 -18 -5 -21 -9 -11 -19 10 -9 19 -8 39 5 27 18 59 23 58 10 0 -5 -9 -20 -21 -34 -37 -47 -73 -106 -73 -120 0 -8 -14 -29 -31 -47 -17 -17 -35 -45 -39 -61 -4 -17 -16 -37 -26 -47 -20 -17 -24 -37 -13 -66 13 -35 66 -5 67 39 0 10 5 18 11 18 5 0 10 9 10 21 0 20 16 52 65 133 14 22 34 58 45 80 11 21 42 61 67 89 26 27 49 61 50 75 3 30 16 40 75 55 52 13 59 30 13 30 -17 0 -31 4 -31 9 0 4 30 41 68 81 37 40 68 79 68 86 0 7 9 13 21 13 14 0 21 7 21 21 0 15 7 21 26 21 14 0 31 6 39 14 8 8 31 17 51 21 20 3 49 9 64 12 22 6 28 3 33 -16 3 -12 11 -20 17 -16 17 11 14 38 -4 38 -9 0 -16 4 -16 10 0 16 -55 12 -78 -6 -27 -20 -58 -19 -58 1 0 9 9 16 21 16 11 0 21 7 21 15 0 27 34 58 65 58 16 0 29 -5 29 -10 0 -6 10 -11 21 -11 12 0 24 -7 28 -16 4 -10 20 -15 45 -15 21 0 44 -6 51 -13 16 -16 65 5 65 29 0 13 -8 15 -46 9 -58 -8 -90 1 -90 28 0 15 -8 20 -32 20 -17 0 -31 3 -31 6 0 3 15 21 34 40 18 19 41 44 50 55 10 11 42 41 71 66 30 26 55 51 55 55 0 18 -23 8 -55 -23 -27 -26 -40 -31 -61 -25 -14 4 -49 6 -76 5 -55 -1 -66 15 -29 42 12 8 21 18 21 23 0 15 -27 8 -50 -13z m-296 -504 c0 -6 -5 -10 -11 -10 -6 0 -10 4 -10 10 0 6 4 11 10 11 6 0 11 -5 11 -11z"/>
		<path d="M2520 2473 c0 -29 11 -33 43 -15 17 9 19 14 9 26 -21 25 -52 19 -52 -11z"/>
		<path d="M3875 2483 c0 -8 7 -15 17 -15 13 0 14 2 4 15 -8 9 -15 16 -18 16 -2 0 -3 -7 -3 -16z"/>
		<path d="M1430 2479 c-30 -5 -56 -19 -78 -41 -42 -42 -30 -56 17 -19 42 31 70 36 70 10 0 -15 3 -14 24 5 26 25 66 31 72 11 6 -17 40 -3 40 16 0 26 -53 32 -145 18z"/>
		<path d="M1943 2444 c0 -9 4 -20 10 -24 13 -8 13 6 0 27 -9 13 -10 13 -10 -3z"/>
		<path d="M1373 2394 c-28 -21 -38 -42 -21 -42 4 1 19 10 32 21 35 29 24 49 -11 21z"/>
		<path d="M2037 2360 c-67 -80 -106 -113 -132 -113 -31 0 -34 -17 -4 -26 13 -4 32 0 47 9 14 10 35 17 47 17 17 0 21 5 16 19 -4 14 8 33 42 66 26 25 47 52 47 59 0 26 -26 12 -63 -31z"/>
		<path d="M2616 2386 c-13 -9 -34 -17 -46 -18 -35 -3 -35 -26 0 -26 17 0 34 -4 38 -8 12 -12 48 -11 50 1 2 22 -3 54 -10 61 -4 3 -18 -1 -32 -10z"/>
		<path d="M1242 2371 c-19 -11 -32 -25 -29 -30 9 -14 73 15 77 35 4 23 -6 22 -48 -5z"/>
		<path d="M1910 2365 c-13 -17 -13 -17 4 -4 10 8 18 16 18 19 0 8 -9 3 -22 -15z"/>
		<path d="M1950 2351 c-22 -13 -24 -30 -4 -30 18 0 43 27 31 34 -5 3 -17 1 -27 -4z"/>
		<path d="M2279 2335 c-51 -16 -79 -35 -50 -35 27 0 31 -20 8 -44 -12 -13 -21 -30 -21 -37 0 -8 -5 -14 -11 -14 -6 0 -10 -7 -10 -16 0 -9 -11 -25 -25 -37 -13 -12 -31 -37 -39 -58 -7 -20 -18 -36 -22 -36 -5 0 -9 -9 -9 -21 0 -12 -5 -21 -10 -21 -6 0 -11 -7 -11 -16 0 -8 4 -15 8 -15 19 1 74 62 80 90 4 17 22 48 39 69 17 21 31 44 31 50 0 6 4 11 9 11 6 0 13 9 17 20 3 11 25 39 47 62 52 51 40 69 -31 48z"/>
		<path d="M3896 2331 c0 -6 5 -10 11 -10 6 0 8 4 4 10 -3 6 -8 11 -11 11 -2 0 -4 -5 -4 -11z"/>
		<path d="M2678 2310 c0 -14 45 -31 79 -31 43 0 34 -30 -21 -68 -32 -22 -10 -41 23 -19 97 61 83 129 -27 129 -30 0 -54 -5 -54 -11z"/>
		<path d="M3661 2314 c-12 -12 -8 -36 9 -53 8 -8 16 -25 16 -36 0 -11 4 -20 10 -20 17 0 12 56 -9 87 -10 16 -22 25 -26 22z"/>
		<path d="M1823 2293 c-9 -23 5 -37 25 -25 14 9 14 12 -1 27 -16 15 -18 15 -24 -2z"/>
		<path d="M2882 2299 c-4 -7 -3 -16 2 -21 12 -12 40 6 30 20 -9 15 -23 15 -32 1z"/>
		<path d="M3150 2300 c-14 -9 -13 -12 2 -28 21 -21 26 -19 31 11 4 23 -11 31 -33 17z"/>
		<path d="M3990 2294 c0 -14 57 -112 60 -103 5 16 -37 109 -49 109 -6 0 -11 -3 -11 -6z"/>
		<path d="M2142 2279 c0 -6 5 -11 11 -11 5 0 10 5 10 11 0 5 -5 10 -10 10 -6 0 -11 -5 -11 -10z"/>
		<path d="M1134 2184 c-75 -71 -96 -97 -87 -106 14 -15 61 20 113 85 17 22 47 53 66 68 19 16 34 33 34 38 0 26 -36 1 -126 -85z"/>
		<path d="M2084 2258 c-3 -6 -1 -11 5 -11 6 0 11 5 11 11 0 5 -2 10 -5 10 -2 0 -7 -5 -11 -10z"/>
		<path d="M3944 2260 c-4 -3 -6 -17 -6 -30 0 -20 5 -25 26 -25 14 0 26 5 26 11 0 14 -39 52 -46 44z"/>
		<path d="M2541 2226 c0 -17 -4 -31 -9 -31 -5 0 -15 -14 -22 -31 -13 -31 -8 -53 10 -53 13 0 46 62 38 70 -4 4 -1 12 5 20 12 15 3 57 -12 57 -6 0 -10 -15 -10 -32z"/>
		<path d="M3110 2204 c-34 -13 -40 -38 -14 -61 25 -22 29 -39 9 -46 -7 -2 1 -11 19 -21 36 -18 63 -7 70 30 2 13 15 23 35 26 48 10 79 22 79 32 0 4 14 10 33 11 38 4 51 25 20 35 -13 4 -36 -3 -65 -21 -54 -35 -141 -42 -141 -13 0 27 -18 38 -45 28z"/>
		<path d="M1985 2179 c0 -9 9 -16 21 -16 11 0 30 -9 41 -20 22 -22 32 -18 32 11 0 15 -8 20 -31 20 -17 0 -34 4 -37 10 -10 16 -26 13 -26 -5z"/>
		<path d="M856 2075 c-34 -37 -48 -69 -29 -69 5 0 27 18 50 41 31 33 38 45 28 55 -9 9 -21 3 -49 -27z"/>
		<path d="M2599 2096 c-10 -7 -16 -19 -12 -26 5 -7 14 -5 28 9 32 33 22 45 -16 17z"/>
		<path d="M4053 2101 c0 -17 52 -85 65 -85 5 0 2 13 -6 29 -18 35 -59 74 -59 56z"/>
		<path d="M2475 2093 c-4 -4 -7 -17 -7 -30 0 -28 -33 -60 -40 -39 -3 8 -26 13 -67 13 -46 0 -62 -4 -59 -13 3 -8 20 -12 44 -10 49 4 80 -20 80 -63 0 -16 -5 -29 -10 -29 -5 0 -15 -22 -23 -48 -10 -32 -20 -47 -32 -47 -24 0 -34 -17 -15 -25 11 -4 14 -16 9 -45 -3 -22 -10 -42 -15 -44 -5 -2 -9 -17 -9 -33 0 -17 -5 -33 -10 -37 -6 -3 -11 -19 -11 -35 0 -15 -6 -38 -14 -49 -8 -11 -20 -58 -28 -102 -7 -45 -18 -85 -23 -88 -4 -3 -8 -19 -8 -36 0 -28 -9 -57 -35 -112 -6 -13 -11 -39 -10 -58 0 -31 -7 -56 -40 -129 -5 -11 -12 -51 -15 -89 -15 -177 -23 -248 -31 -265 -5 -10 -5 -40 -1 -67 6 -41 10 -47 30 -44 31 5 49 85 54 249 3 72 10 135 16 141 6 6 11 27 11 46 0 20 5 56 11 81 l11 46 135 -2 c127 -1 136 0 155 22 11 13 28 24 38 24 21 0 22 14 2 31 -11 9 -23 7 -53 -10 -31 -17 -56 -21 -148 -21 -90 0 -109 3 -109 16 0 23 32 100 42 100 4 -1 10 29 13 65 3 36 10 85 17 108 6 23 16 68 23 100 17 83 32 118 43 106 10 -9 51 -5 51 6 0 3 -10 17 -21 32 -23 28 -29 81 -11 92 6 3 11 19 11 34 0 16 9 43 21 60 11 18 20 40 20 50 0 11 9 19 21 19 13 0 28 13 38 34 10 18 23 37 29 41 17 11 3 21 -18 13 -9 -4 -20 -18 -23 -32 -4 -14 -14 -25 -22 -25 -9 0 -14 4 -12 8 2 4 10 20 18 36 19 39 2 79 -23 54z"/>
		<path d="M1775 2063 c0 -9 -10 -20 -21 -23 -12 -3 -21 -10 -21 -15 0 -5 -12 -9 -27 -9 -21 0 -26 5 -26 26 0 37 -14 33 -29 -8 -9 -23 -10 -35 -2 -37 6 -2 22 -16 36 -31 l26 -28 25 26 c14 14 40 40 58 56 33 31 41 49 23 49 -5 0 -17 2 -26 6 -11 4 -16 0 -16 -12z"/>
		<path d="M1869 2048 c0 -6 5 -11 11 -11 5 0 10 5 10 11 0 5 -5 10 -10 10 -6 0 -11 -5 -11 -10z"/>
		<path d="M2121 1980 c0 -18 37 -23 47 -6 4 6 2 11 -4 11 -5 0 -17 2 -26 6 -11 4 -17 0 -17 -11z"/>
		<path d="M3148 1979 c-3 -3 -4 -16 -1 -27 7 -27 40 -22 40 6 0 20 -26 34 -39 21z"/>
		<path d="M2045 1967 c-10 -3 -18 -14 -18 -25 0 -11 -5 -20 -11 -20 -6 0 -10 -10 -10 -21 0 -12 -5 -21 -11 -21 -6 0 -10 -8 -10 -16 0 -9 -6 -16 -14 -16 -12 0 -60 -78 -60 -99 0 -15 -56 -58 -76 -58 -15 0 -17 5 -12 26 8 31 -34 80 -66 77 -44 -4 -115 2 -129 12 -13 8 -10 15 19 44 20 19 30 36 23 38 -22 7 -63 -9 -63 -24 0 -9 -5 -16 -11 -16 -6 0 -10 -7 -10 -16 0 -9 -10 -27 -21 -39 -12 -12 -21 -28 -21 -36 0 -7 -10 -16 -23 -20 -32 -10 -72 -48 -72 -69 0 -31 -12 -51 -31 -51 -23 0 -32 -9 -25 -26 3 -8 14 -11 25 -8 28 7 26 -10 -6 -39 -14 -14 -26 -34 -26 -44 0 -10 -5 -21 -11 -25 -5 -3 -28 -42 -49 -86 -34 -67 -47 -83 -83 -100 -45 -22 -92 -20 -101 5 -3 8 5 51 19 97 17 59 31 89 48 100 13 9 40 29 59 46 32 28 34 32 18 48 -11 11 -19 12 -24 5 -4 -6 -26 -25 -49 -42 -59 -43 -68 -53 -68 -72 0 -9 -5 -16 -11 -16 -6 0 -10 -9 -10 -20 0 -11 -12 -46 -26 -78 -30 -68 -25 -109 18 -133 21 -12 32 -13 51 -4 67 32 86 22 51 -27 -36 -52 -53 -101 -39 -115 6 -7 17 -12 24 -12 18 0 57 37 57 54 0 21 40 126 52 139 6 6 11 19 11 30 0 10 7 19 16 19 8 0 16 4 16 9 0 6 14 12 33 13 48 5 52 30 4 30 -46 0 -49 20 -11 61 14 15 26 33 26 40 0 6 9 24 21 38 12 15 21 35 21 44 0 9 5 17 11 17 5 0 10 7 10 15 0 9 4 16 10 16 5 0 13 9 16 21 4 11 21 35 38 52 17 17 31 37 31 44 0 23 52 41 121 41 59 0 65 -3 76 -27 7 -15 13 -36 13 -46 0 -24 18 -32 58 -24 29 5 30 4 15 -15 -9 -11 -24 -27 -34 -37 -10 -9 -18 -22 -18 -28 0 -6 -16 -36 -34 -65 -31 -50 -37 -54 -67 -49 -24 4 -35 0 -45 -15 -7 -11 -17 -20 -23 -20 -6 0 -21 -9 -33 -21 -24 -22 -82 -29 -82 -10 0 5 -9 10 -21 10 -12 0 -21 -7 -21 -16 0 -21 31 -68 45 -68 28 0 120 54 133 78 18 34 53 36 53 3 0 -13 -17 -59 -38 -102 -22 -43 -44 -91 -49 -105 -6 -14 -14 -34 -19 -44 -5 -11 -9 -31 -9 -45 0 -15 -5 -26 -11 -26 -6 0 -10 -12 -10 -27 0 -14 -5 -34 -11 -45 -5 -10 -22 -55 -37 -100 -31 -91 -25 -116 26 -110 35 4 56 48 60 129 3 58 28 145 47 168 5 5 9 25 9 43 0 19 4 36 8 38 9 4 41 87 57 148 6 21 15 39 20 39 5 0 10 9 10 19 0 11 13 31 30 45 24 20 32 36 34 72 4 46 30 75 30 33 0 -30 19 -37 43 -16 28 26 25 40 -8 31 -26 -6 -27 -5 -20 28 3 19 11 36 17 38 5 2 10 13 10 24 0 14 7 20 25 20 20 0 24 -4 20 -21 -3 -12 -10 -21 -15 -21 -5 0 -9 -5 -9 -11 0 -6 11 -10 24 -8 13 2 22 10 20 18 -1 7 2 20 8 27 7 9 4 19 -11 35 l-21 23 38 71 c21 39 40 73 43 75 2 2 15 -9 30 -25 l25 -30 13 28 c22 49 62 32 62 -28 0 -46 11 -49 89 -27 102 28 109 41 18 34 -71 -6 -75 -5 -75 15 0 12 -6 24 -13 26 -8 3 -4 12 11 27 42 43 28 54 -34 28 -52 -22 -59 -20 -59 16 0 21 5 32 16 32 8 0 16 4 16 10 0 6 -5 11 -10 11 -5 0 -16 1 -24 4 -7 2 -22 1 -32 -1z"/>
		<path d="M753 1952 c-10 -6 -26 -25 -35 -43 -9 -18 -38 -56 -65 -84 -33 -36 -44 -54 -36 -62 19 -19 48 -6 58 27 6 18 23 46 38 63 68 78 88 125 40 99z"/>
		<path d="M2564 1873 c-41 -21 -55 -61 -30 -86 16 -16 18 -15 18 4 0 27 28 68 48 68 8 0 26 -11 39 -24 13 -13 44 -33 69 -44 58 -26 71 -50 46 -85 -10 -14 -24 -25 -29 -26 -12 0 -62 -78 -73 -113 -5 -15 1 -30 21 -51 15 -17 35 -41 44 -54 42 -64 217 15 229 104 2 14 7 50 11 82 8 62 39 117 87 155 l30 24 50 -27 c27 -14 52 -24 55 -21 11 11 -8 38 -33 47 -13 6 -27 17 -31 26 -9 23 -24 21 -87 -10 -44 -23 -58 -36 -75 -76 -19 -46 -38 -110 -54 -186 -9 -45 -22 -62 -63 -82 -50 -24 -65 -22 -106 14 l-35 31 15 45 c8 26 31 60 54 81 32 29 40 43 40 74 0 43 -12 57 -55 67 -16 4 -45 21 -64 37 -45 40 -78 47 -121 26z"/>
		<path d="M3670 1872 c-12 -3 -34 -14 -49 -25 -15 -11 -36 -20 -45 -20 -10 0 -29 -12 -43 -27 -24 -26 -25 -26 -52 -9 -20 13 -40 16 -79 12 -29 -4 -55 -2 -58 4 -3 5 -16 10 -29 10 -30 0 -112 -32 -112 -44 0 -18 30 -21 61 -6 23 11 45 13 87 7 31 -5 66 -8 77 -7 15 2 22 -5 25 -22 5 -41 31 -39 78 5 52 47 113 81 140 75 48 -9 29 -94 -30 -136 -16 -12 -29 -25 -29 -30 0 -4 -19 -36 -42 -71 -23 -35 -42 -71 -42 -81 0 -10 -14 -32 -31 -49 -39 -39 -40 -54 -5 -73 26 -13 29 -12 58 22 20 25 30 49 30 74 1 43 74 194 94 194 24 0 35 -39 64 -215 5 -32 14 -84 20 -116 8 -51 7 -60 -10 -79 -11 -12 -20 -37 -20 -56 0 -18 -5 -33 -10 -33 -5 0 -14 -13 -21 -29 -7 -17 -26 -38 -43 -48 -30 -18 -30 -19 -26 -94 7 -118 9 -128 26 -128 13 0 15 13 13 63 -1 34 -2 75 -3 91 0 20 11 39 39 64 l39 37 14 -27 c7 -14 11 -30 8 -35 -3 -5 0 -39 6 -75 18 -92 28 -208 19 -208 -4 0 -14 7 -21 14 -20 20 -109 43 -166 43 -32 0 -67 -9 -105 -28 -58 -29 -171 -47 -196 -31 -17 11 -20 34 -11 69 6 24 3 36 -15 56 -13 13 -30 25 -38 25 -19 0 -17 -32 4 -48 16 -11 16 -14 0 -37 -12 -17 -14 -29 -7 -42 6 -11 8 -26 4 -34 -8 -23 11 -30 95 -36 68 -5 84 -2 149 27 103 45 141 50 215 27 34 -10 62 -23 62 -28 0 -6 12 -7 26 -4 33 8 35 -8 4 -33 -13 -10 -40 -33 -61 -50 -20 -18 -49 -38 -63 -45 -15 -7 -40 -23 -55 -35 -33 -26 -51 -19 -32 12 21 33 16 54 -11 51 -23 -4 -23 -7 -21 -113 2 -82 7 -114 19 -126 14 -14 16 -11 16 28 0 46 14 57 39 32 14 -13 17 -69 7 -97 -7 -18 -46 -23 -46 -6 0 22 -21 9 -43 -27 -27 -44 -18 -63 24 -48 15 6 30 16 34 22 4 6 15 11 24 11 10 0 39 24 64 53 41 48 47 61 51 115 2 34 0 64 -6 67 -14 9 -36 -22 -29 -41 4 -11 -1 -15 -21 -15 -24 0 -26 3 -23 44 3 35 8 45 24 48 12 2 42 20 68 40 46 35 74 45 74 25 0 -6 7 -10 16 -10 19 0 21 32 3 50 -11 10 -11 17 0 34 17 28 16 48 -4 56 -13 5 -16 20 -14 62 1 31 -1 62 -5 69 -7 11 -19 70 -31 154 -2 11 -11 37 -20 57 -24 54 1 107 58 122 15 3 35 15 45 26 16 18 16 21 0 37 -9 9 -17 22 -18 29 -4 28 -8 68 -12 128 -12 143 -49 299 -71 299 -13 0 -13 -23 1 -59 16 -43 42 -184 35 -194 -3 -5 -1 -25 5 -44 35 -117 34 -186 -4 -186 -13 0 -47 147 -47 207 0 18 -5 36 -10 40 -6 3 -11 19 -11 34 0 16 -7 52 -16 81 -11 35 -12 55 -5 62 20 20 7 155 -14 152 -7 0 -22 -3 -33 -6z m-26 -1337 c0 -13 -8 -20 -21 -20 -29 0 -37 20 -15 36 23 17 36 11 36 -16z m55 -72 c5 -19 -24 -53 -45 -53 -12 0 -14 55 -4 66 15 14 44 6 49 -13z"/>
		<path d="M3801 1853 c1 -27 2 -29 12 -12 8 14 8 23 0 31 -9 9 -12 3 -12 -19z"/>
		<path d="M1418 1810 c12 -14 11 -19 -6 -31 -28 -21 -7 -39 27 -22 16 8 27 23 29 41 3 26 0 29 -30 29 -30 0 -32 -2 -20 -17z"/>
		<path d="M2068 1753 c-8 -15 -8 -26 -1 -33 14 -15 33 -1 33 23 0 30 -18 35 -32 10z"/>
		<path d="M2481 1727 c-9 -20 -14 -40 -10 -44 9 -9 59 48 59 68 1 27 -32 11 -49 -24z"/>
		<path d="M4363 1754 c-4 -6 1 -14 10 -18 23 -8 30 1 12 17 -10 8 -17 9 -22 1z"/>
		<path d="M4274 1708 c0 -18 29 -44 39 -34 9 9 -10 40 -27 46 -7 2 -12 -3 -12 -12z"/>
		<path d="M3145 1701 c-10 -16 6 -63 22 -63 21 0 29 26 15 52 -13 23 -27 28 -37 11z"/>
		<path d="M891 1667 c-21 -17 -114 -168 -114 -185 0 -17 37 -15 53 4 13 16 50 80 80 139 20 39 9 64 -19 42z"/>
		<path d="M2020 1622 c-9 -23 13 -45 29 -29 13 14 5 45 -12 45 -6 0 -14 -7 -17 -16z"/>
		<path d="M1323 1586 c-13 -9 -11 -11 8 -11 14 0 22 5 18 11 -8 12 -6 12 -26 0z"/>
		<path d="M2034 1514 c-6 -59 -5 -60 36 -98 23 -22 56 -42 73 -46 24 -5 29 -10 20 -21 -6 -7 -26 -16 -45 -20 -19 -3 -46 -17 -61 -31 -14 -13 -44 -30 -66 -38 -34 -11 -44 -22 -66 -70 -15 -31 -36 -63 -47 -70 -28 -17 -24 -38 7 -38 38 0 89 57 89 101 0 24 6 35 21 40 11 4 48 25 82 48 35 23 69 42 77 42 25 0 62 31 62 52 0 23 -30 42 -67 42 -14 0 -38 10 -54 23 -24 18 -28 28 -23 57 7 41 -1 74 -19 81 -10 4 -15 -12 -19 -54z"/>
		<path d="M3140 1545 c0 -5 7 -15 16 -23 18 -15 43 1 31 21 -8 13 -47 15 -47 2z"/>
		<path d="M4242 1538 c0 -8 5 -15 11 -15 5 0 10 7 10 15 0 9 -5 16 -10 16 -6 0 -11 -7 -11 -16z"/>
		<path d="M3129 1481 c6 -11 11 -31 11 -45 0 -30 18 -50 38 -43 37 14 -1 109 -44 109 -13 0 -14 -5 -5 -21z"/>
		<path d="M2631 1482 c-4 -7 -5 -16 -2 -20 10 -9 20 5 15 20 -4 11 -6 11 -13 0z"/>
		<path d="M4069 1413 c4 -21 9 -54 10 -72 5 -50 4 -49 17 -49 9 0 10 15 5 49 -4 28 -9 62 -10 76 0 14 -7 27 -15 30 -11 3 -12 -5 -7 -34z"/>
		<path d="M3148 1360 c-3 -4 -4 -16 -1 -28 7 -26 40 -21 40 7 0 20 -26 33 -39 21z"/>
		<path d="M3478 1295 c-16 -6 -17 -45 -2 -45 22 0 52 21 52 37 0 15 -24 19 -50 8z"/>
		<path d="M4043 1197 c0 -12 -7 -21 -15 -21 -21 0 -24 -21 -14 -120 16 -150 20 -376 8 -388 -14 -13 -15 -48 -1 -48 12 0 4 -82 -12 -113 -16 -32 -3 -76 23 -76 12 0 21 3 21 8 0 4 11 12 24 18 30 13 36 75 13 133 -16 40 -16 43 2 57 10 7 22 14 27 14 4 0 7 51 7 113 0 93 -3 119 -19 143 -21 32 -42 22 -24 -11 5 -10 13 -57 17 -104 8 -94 -4 -120 -31 -68 -12 23 -16 64 -16 156 0 68 -4 129 -10 134 -5 6 -11 31 -13 57 -3 38 0 48 15 51 15 3 19 -4 19 -34 0 -21 5 -37 11 -37 12 0 6 106 -8 142 -8 22 -24 18 -24 -6z"/>
		<path d="M2599 1184 c-23 -33 -20 -43 10 -35 14 3 44 -1 68 -11 51 -20 78 -71 69 -130 -14 -86 45 -120 139 -78 70 31 80 31 119 4 25 -18 39 -21 75 -15 25 4 49 10 53 12 18 11 -17 34 -50 33 -18 -1 -58 7 -87 18 -52 19 -53 19 -96 -4 -48 -25 -90 -29 -102 -11 -4 7 -8 43 -9 81 -2 59 -6 72 -28 88 -13 10 -30 24 -37 29 -7 6 -19 11 -27 11 -8 0 -24 7 -35 15 -28 22 -43 20 -62 -7z"/>
		<path d="M3454 1181 c-15 -19 2 -68 24 -68 7 0 19 -9 27 -21 7 -12 19 -21 28 -21 29 0 27 21 -5 54 -17 18 -31 42 -31 53 0 23 -24 25 -43 3z"/>
		<path d="M1733 1174 c0 -18 43 -61 61 -61 13 0 16 30 4 49 -13 20 -65 30 -65 12z"/>
		<path d="M4240 1093 c2 -65 8 -98 18 -107 13 -10 15 0 10 71 -7 97 -13 129 -24 130 -4 0 -6 -43 -4 -94z"/>
		<path d="M3144 1162 c-3 -8 -4 -44 -1 -80 2 -35 -1 -67 -6 -71 -6 -3 -3 -10 6 -15 10 -6 18 -17 18 -25 0 -18 16 -21 26 -5 12 20 13 131 1 167 -13 39 -35 54 -44 29z"/>
		<path d="M3890 1138 c18 -66 39 -182 51 -279 7 -56 18 -108 24 -114 16 -16 40 -2 27 15 -10 12 -24 78 -29 138 -3 30 -29 167 -45 230 -4 17 -14 33 -22 35 -11 4 -12 -2 -6 -25z"/>
		<path d="M3965 1148 c-15 -16 -6 -45 15 -45 21 0 25 8 14 35 -7 18 -17 21 -29 10z"/>
		<path d="M4494 1016 c0 -48 14 -81 25 -62 4 6 14 8 23 5 20 -8 19 18 -3 64 -24 52 -45 49 -45 -7z"/>
		<path d="M3852 942 c-5 -40 33 -162 46 -149 4 4 2 20 -4 35 -6 15 -10 29 -10 30 6 22 -2 88 -13 103 -14 18 -15 16 -19 -19z"/>
		<path d="M4300 948 c19 -70 25 -119 26 -195 0 -64 4 -83 16 -88 27 -10 36 9 26 54 -6 27 -5 46 1 55 6 7 8 18 4 24 -3 6 -9 40 -12 76 -4 49 -11 71 -26 84 -32 27 -44 23 -35 -10z"/>
		<path d="M3161 898 c0 -19 5 -26 20 -26 27 0 37 18 21 37 -20 24 -41 18 -41 -11z"/>
		<path d="M4190 831 c0 -69 3 -85 20 -101 19 -17 22 -17 28 -2 3 10 3 31 -1 47 -3 15 -12 53 -18 83 -6 31 -15 56 -20 56 -5 0 -9 -38 -9 -83z"/>
		<path d="M4439 864 c-14 -18 -13 -111 3 -140 5 -10 10 -34 10 -51 0 -25 5 -32 21 -32 17 0 21 7 21 36 0 20 -5 39 -10 42 -17 10 -14 111 3 111 15 0 49 -86 49 -124 0 -15 6 -23 17 -23 21 0 14 49 -18 122 -11 26 -20 54 -20 61 0 20 -59 17 -76 -2z"/>
		<path d="M3586 777 c-9 -14 4 -34 16 -26 13 8 13 37 0 37 -5 0 -13 -5 -16 -11z"/>
		<path d="M3890 680 c3 -54 7 -116 9 -139 2 -23 0 -50 -5 -60 -10 -19 15 -46 33 -35 13 8 13 127 -1 205 -6 32 -13 73 -16 92 -13 70 -25 31 -20 -63z"/>
		<path d="M3146 585 c-18 -66 7 -146 35 -117 12 12 17 112 7 129 -13 20 -35 14 -42 -12z"/>
		<path d="M3749 425 c0 -31 3 -37 18 -35 12 3 18 14 18 35 0 22 -6 33 -18 35 -15 3 -18 -4 -18 -35z"/>
		<path d="M3146 417 c-10 -36 -8 -165 3 -165 5 0 16 11 25 24 20 30 13 165 -8 165 -8 0 -16 -11 -20 -24z"/>
	</g>
</svg>
