<?xml version="1.0" encoding="utf-8"?>
<svg xmlns="http://www.w3.org/2000/svg" height="1142.982071" preserveAspectRatio="xMidYMid meet" version="1.0" viewBox="0 0 600.408589 1142.982071" width="600.408589">
	<title>This is Wise Baviaan, the dog-headed Baboon, Who is Quite the Wisest Animal in All South Africa.</title>
	<metadata>
Created by Potrace Professional 1.1m
</metadata>
	<g fill="#000000" stroke="none" transform="translate(-8.274879,1155.454653) rotate(-360.00) scale(0.095238,-0.095238)">
		<path d="M465 12130 l-369 -3 0 -430 c0 -237 -3 -435 -7 -441 -3 -6 -3 -16 1 -23 5 -7 7 -46 6 -87 -2 -40 -3 -80 -2 -87 1 -15 1 -39 0 -58 0 -7 2 -450 6 -984 3 -534 8 -1829 10 -2877 8 -3163 18 -4857 32 -5197 4 -78 6 -316 6 -528 -1 -253 3 -386 9 -386 6 0 11 14 11 32 0 17 1 32 3 32 4 3 1672 10 3147 15 1214 3 1589 6 2574 21 171 2 323 7 338 11 25 6 29 1 64 -74 l38 -80 -1 -238 c0 -131 2 -307 3 -391 l3 -152 -167 -3 c-127 -2 -170 0 -176 10 -6 10 -11 10 -17 2 -4 -6 -44 -11 -94 -12 -47 0 -94 -6 -105 -12 -14 -8 20 -11 129 -10 83 1 156 -3 168 -9 12 -7 40 -8 70 -4 51 8 174 6 215 -4 20 -5 24 -1 24 18 0 14 -5 30 -11 36 -17 16 -24 448 -9 502 7 23 8 43 3 45 -5 1 -8 44 -7 94 4 170 18 1435 17 1510 0 40 -2 171 -3 291 -1 154 -5 218 -14 218 -8 0 -8 4 1 13 17 16 17 75 0 65 -8 -5 -9 -3 -3 7 5 7 11 26 12 41 3 20 12 587 15 929 0 18 0 234 0 482 0 247 2 454 5 459 3 5 0 19 -6 31 -6 11 -9 25 -5 31 7 12 8 860 0 2273 -6 1221 -6 1545 -2 3261 2 626 0 1245 -3 1375 -5 220 -7 236 -25 240 -14 2 -18 0 -12 -10 13 -20 21 -7834 10 -9055 -3 -295 -5 -540 -4 -546 4 -85 3 -576 -3 -903 -4 -231 -8 -441 -8 -467 0 -29 -4 -43 -10 -37 -6 6 -46 88 -90 184 -128 276 -129 278 -288 611 -35 74 -64 137 -64 141 0 3 -35 79 -79 168 -43 89 -78 165 -78 169 0 4 -47 102 -104 218 -174 352 -175 355 -173 449 1 66 7 92 30 138 36 72 80 117 129 133 51 17 100 47 103 64 2 8 10 33 20 56 12 30 15 34 12 13 -2 -16 0 -26 5 -23 13 8 11 55 -3 63 -7 5 -9 25 -6 56 9 73 -3 78 -171 64 -150 -13 -525 -10 -525 4 0 5 9 21 19 36 79 115 117 223 118 329 0 39 4 94 10 121 5 28 12 77 15 109 3 31 10 97 15 147 10 104 7 232 -9 356 -6 49 -9 96 -5 104 3 8 -1 51 -10 95 -21 107 -45 285 -59 432 -7 66 -16 151 -22 189 -10 64 -12 290 -3 305 2 4 7 39 10 79 8 107 37 310 46 329 4 9 14 45 21 79 18 93 33 155 43 179 5 11 12 40 16 63 3 23 13 62 22 88 8 25 16 67 17 94 0 27 4 53 7 59 4 6 7 197 8 426 1 228 4 431 7 451 21 172 137 426 262 574 55 65 110 126 145 160 21 21 58 63 84 95 l46 57 4 103 c5 135 -37 431 -72 510 -20 45 -29 72 -84 239 -30 93 -83 224 -118 294 -55 110 -79 148 -155 239 -28 35 -319 327 -352 354 -49 40 -246 300 -246 324 0 4 -17 24 -37 44 -20 19 -37 40 -37 46 0 14 -215 227 -289 286 -137 112 -336 220 -462 251 -64 16 -220 47 -315 62 -17 3 -93 13 -168 21 -75 9 -153 19 -173 22 -26 3 -32 2 -21 -5 9 -6 99 -22 200 -37 245 -36 450 -80 572 -124 85 -32 237 -126 350 -219 148 -122 344 -337 453 -498 46 -67 169 -215 179 -215 8 0 253 -248 317 -320 55 -63 133 -181 141 -213 3 -16 12 -36 20 -44 42 -50 120 -250 151 -389 5 -20 17 -55 26 -78 38 -87 67 -234 90 -460 14 -138 2 -191 -56 -251 -114 -118 -255 -284 -299 -350 -26 -41 -64 -112 -83 -158 -20 -46 -40 -88 -46 -94 -5 -5 -9 -18 -9 -29 0 -10 -5 -18 -11 -18 -11 0 -9 15 11 94 25 96 5 174 -57 228 -21 19 -38 36 -38 38 0 2 30 4 66 4 57 -1 74 4 132 38 113 66 147 120 169 264 25 160 9 452 -30 576 -19 60 -73 259 -97 359 -16 66 -72 237 -92 283 -11 23 -22 55 -26 71 -4 16 -12 29 -17 29 -16 0 -13 -11 22 -106 57 -158 81 -234 94 -298 16 -85 82 -341 94 -368 9 -19 29 -168 29 -220 3 -236 3 -334 -1 -338 -3 -3 -13 10 -23 30 -24 46 -46 70 -82 89 -50 26 -99 32 -153 20 -34 -8 -35 -7 -28 16 4 14 12 47 17 73 12 61 4 475 -10 530 -6 23 -13 56 -16 73 -23 131 -84 366 -126 489 -44 129 -158 383 -176 394 -5 3 -23 35 -41 69 -17 35 -34 61 -37 58 -4 -3 20 -52 52 -109 32 -57 66 -127 76 -156 10 -28 29 -75 43 -104 25 -53 135 -405 144 -462 2 -18 14 -70 26 -116 41 -158 60 -393 47 -579 l-6 -86 -38 40 c-62 66 -200 87 -310 49 -62 -21 -86 -17 -70 14 6 11 11 37 11 57 0 32 -6 41 -41 63 -22 15 -58 34 -80 43 -46 19 -175 22 -224 4 -45 -15 -52 -5 -19 25 33 28 112 172 136 246 17 51 39 139 67 266 9 40 17 156 21 278 5 187 3 220 -16 300 -11 49 -24 119 -28 157 -4 38 -19 111 -33 163 -43 149 -161 383 -161 317 0 -9 5 -20 11 -23 14 -9 108 -209 129 -273 19 -60 27 -104 33 -179 2 -29 10 -81 16 -115 33 -174 37 -437 9 -593 -40 -232 -108 -421 -182 -507 -20 -24 -37 -50 -37 -57 0 -8 -8 -14 -18 -14 -14 0 -15 3 -5 13 18 17 16 62 -5 91 -39 56 -170 71 -282 32 -34 -11 -65 -20 -70 -18 -5 1 5 17 21 34 48 53 159 254 186 338 9 28 20 60 25 72 65 164 118 439 120 623 2 125 0 136 -12 106 -10 -24 -12 -62 -8 -120 4 -63 0 -109 -15 -174 -11 -49 -29 -129 -40 -178 -11 -49 -40 -148 -64 -220 -24 -72 -43 -134 -43 -139 0 -4 -33 -68 -73 -141 -41 -73 -74 -135 -74 -137 0 -3 -12 -17 -28 -33 -15 -15 -25 -23 -21 -17 9 18 -24 74 -52 87 -14 7 -37 12 -50 12 -47 0 -269 -87 -256 -100 2 -3 35 8 72 23 92 38 165 54 207 45 46 -10 57 -23 59 -65 1 -33 2 -34 42 -32 23 2 69 10 103 19 109 27 187 16 233 -35 17 -19 18 -27 6 -54 -7 -17 -10 -35 -6 -41 3 -6 65 -8 156 -4 138 5 153 4 193 -17 69 -35 96 -88 61 -117 -8 -7 -15 -24 -15 -38 0 -31 25 -32 139 -9 88 18 195 8 228 -21 9 -9 23 -16 29 -16 15 0 44 -55 44 -83 0 -11 -4 -24 -11 -28 -6 -3 -9 -14 -7 -24 2 -14 19 -17 98 -18 83 0 100 -4 126 -24 37 -29 77 -109 78 -155 0 -55 -66 -126 -157 -168 -47 -22 -70 -26 -125 -23 -39 2 -69 -1 -71 -7 -2 -6 22 -38 53 -71 64 -67 69 -86 55 -197 -5 -38 -11 -99 -13 -136 -2 -38 -7 -111 -12 -163 -4 -52 -7 -232 -5 -399 3 -316 -9 -524 -36 -624 -9 -32 -20 -80 -24 -106 -5 -26 -20 -85 -33 -131 -34 -123 -63 -266 -63 -310 l0 -39 -196 -6 c-109 -4 -507 -7 -885 -8 -378 0 -731 -3 -785 -5 -59 -3 -97 -1 -97 6 0 5 17 46 37 91 66 142 118 274 147 376 10 34 24 82 32 106 8 24 24 83 36 131 25 106 40 158 58 214 7 23 21 71 30 105 35 128 39 139 75 221 8 17 16 44 20 59 7 33 87 156 107 163 19 8 19 46 -1 46 -15 0 -18 -3 -61 -58 -50 -64 -102 -184 -143 -331 -12 -43 -32 -112 -45 -152 -23 -78 -31 -107 -50 -184 -44 -186 -76 -297 -86 -309 -5 -6 -9 -19 -9 -30 0 -10 -9 -39 -20 -63 -45 -101 -106 -249 -106 -259 0 -13 -64 -144 -130 -265 -67 -123 -82 -201 -85 -423 -1 -115 -6 -194 -15 -221 -33 -100 -306 -402 -453 -500 -14 -10 -52 -37 -83 -61 -32 -23 -82 -59 -111 -79 -29 -21 -78 -57 -110 -80 -32 -23 -91 -62 -131 -85 -40 -24 -78 -48 -84 -53 -21 -16 -105 -71 -112 -71 -3 0 -48 -26 -99 -58 -86 -52 -130 -76 -251 -132 -23 -11 -49 -24 -58 -30 -26 -17 -501 -242 -511 -242 -10 0 -152 -58 -192 -79 -37 -18 -216 -78 -235 -78 -9 0 -17 -5 -19 -12 -2 -6 -25 -15 -50 -21 -25 -6 -65 -19 -89 -29 -24 -11 -52 -22 -62 -26 -10 -3 -18 -13 -18 -20 0 -12 -50 -16 -118 -9 -4 1 -7 42 -6 93 0 50 -1 206 -2 347 l-4 255 26 17 c14 10 33 28 43 40 14 18 152 116 221 157 10 6 37 24 60 40 23 16 61 40 83 55 22 15 49 35 60 45 11 10 65 46 120 80 55 34 107 68 116 76 9 7 42 27 73 44 32 17 98 57 147 90 49 33 101 62 116 66 14 3 40 17 57 30 18 13 44 27 58 31 14 4 33 13 42 21 9 7 35 23 58 35 63 33 197 119 226 144 8 8 51 44 94 81 43 37 83 76 89 87 6 11 36 63 66 116 30 53 55 101 55 108 0 7 11 34 25 62 33 65 94 223 117 301 10 35 23 68 28 73 5 6 8 19 9 30 0 11 6 41 14 69 21 68 43 152 62 233 16 69 72 279 112 420 12 43 24 90 26 105 5 34 34 158 41 178 4 9 9 32 11 53 3 20 20 86 37 147 18 60 35 123 38 139 2 17 9 45 15 63 15 51 74 287 90 365 8 37 27 103 42 147 15 43 34 104 43 136 9 32 20 62 24 68 5 6 26 53 48 105 114 273 194 388 326 467 23 14 44 28 47 32 31 37 221 114 339 137 156 31 198 28 346 -26 71 -25 149 -52 174 -58 63 -17 202 -103 241 -150 10 -12 13 -260 13 -1166 0 -1007 2 -1151 16 -1163 12 -9 51 -11 155 -6 76 4 218 7 314 7 123 -1 177 3 183 12 5 8 18 1271 14 1389 0 6 -3 88 -6 183 l-6 172 -38 32 c-21 18 -48 43 -60 54 -11 12 -51 48 -89 79 -37 32 -75 65 -84 75 -9 9 -47 45 -84 79 -38 33 -114 102 -168 152 -134 122 -147 132 -263 211 -60 41 -117 71 -142 75 -23 4 -102 27 -177 51 -133 42 -137 42 -246 36 -61 -4 -115 -12 -121 -18 -6 -5 -23 -10 -37 -10 -15 0 -56 -14 -92 -31 -79 -37 -159 -38 -195 -3 -31 31 -37 113 -13 166 22 47 193 220 228 231 13 4 33 15 45 26 11 10 63 41 115 68 362 192 589 397 639 575 21 77 47 200 59 280 6 40 28 104 54 158 56 119 59 162 13 252 -26 53 -35 84 -37 137 -2 74 -21 126 -45 126 -9 0 -35 -25 -58 -56 -46 -58 -99 -100 -127 -101 -10 -1 -23 -8 -30 -17 -8 -8 -22 -15 -32 -15 -23 0 -169 -64 -188 -83 -8 -7 -40 -32 -71 -55 -32 -24 -66 -60 -79 -86 -16 -30 -24 -39 -27 -27 -6 27 25 78 82 137 54 55 64 87 12 37 -38 -37 -44 -36 -44 5 0 63 -157 183 -266 203 -26 5 -38 3 -38 -4 0 -7 15 -12 34 -12 91 0 223 -107 239 -194 8 -42 6 -55 -17 -99 -23 -45 -25 -57 -17 -109 6 -39 19 -71 41 -99 25 -31 30 -45 23 -58 -8 -14 -7 -18 5 -18 20 0 31 36 19 59 -6 11 -23 31 -38 45 -15 14 -27 35 -27 47 1 41 60 124 117 165 61 43 200 114 223 114 8 0 53 19 100 43 71 35 92 52 120 94 18 28 38 52 45 52 6 0 16 -41 23 -96 9 -70 20 -109 42 -149 43 -76 40 -108 -19 -243 -36 -82 -54 -140 -62 -200 -13 -96 -40 -209 -42 -178 -1 12 -14 -8 -31 -47 -25 -57 -34 -68 -52 -65 -13 1 -23 -2 -23 -8 0 -19 -68 -82 -121 -111 -40 -22 -65 -28 -105 -26 -29 1 -75 1 -103 1 -48 -1 -51 0 -66 36 -8 20 -23 40 -33 44 -10 3 -22 12 -27 20 -4 8 -17 14 -28 14 -11 0 -23 5 -27 11 -10 17 -59 34 -92 32 -47 -2 -78 -30 -96 -85 -23 -69 -13 -135 28 -186 49 -62 63 -94 55 -132 -11 -60 28 -80 132 -65 l47 6 -83 -45 c-45 -25 -120 -70 -166 -101 -85 -56 -88 -56 -39 9 64 84 97 201 73 257 -11 25 -11 26 -16 -58 -3 -70 -29 -135 -80 -199 -65 -83 -73 -95 -68 -104 4 -5 -1 -16 -10 -23 -13 -11 -14 -10 -8 6 7 18 5 18 -14 4 -12 -8 -41 -39 -64 -67 -103 -127 -166 -179 -317 -260 -157 -83 -253 -148 -253 -171 1 -21 1 -21 48 22 38 34 90 66 241 147 82 44 163 107 234 182 l65 69 -26 -47 c-30 -55 -33 -113 -9 -164 21 -43 29 -49 82 -56 l41 -6 -31 -15 c-53 -27 -175 -115 -223 -160 -56 -53 -117 -146 -154 -235 l-29 -67 -57 58 c-59 60 -114 91 -199 114 -63 16 -162 5 -280 -32 -46 -15 -92 -23 -104 -19 -14 4 -19 3 -14 -5 9 -14 -36 -33 -81 -32 -84 0 -159 46 -171 104 -25 125 -66 186 -131 194 -19 3 -48 11 -65 17 l-30 13 35 37 c51 54 164 124 232 144 70 20 160 14 241 -16 38 -15 49 -16 50 -5 0 8 -35 23 -87 37 -155 41 -257 15 -407 -108 -98 -79 -89 -76 -131 -43 -47 38 -76 121 -85 245 -7 89 -34 157 -64 157 -6 0 -17 8 -24 16 -8 9 -18 13 -24 9 -7 -4 -8 -2 -4 5 4 7 0 27 -10 46 -24 47 -21 107 9 159 14 24 29 57 32 73 4 16 12 29 18 29 5 0 10 5 10 11 0 21 170 209 219 243 64 44 280 223 318 264 47 51 106 155 111 198 7 52 -12 97 -66 156 -45 49 -67 105 -49 128 132 170 231 271 344 349 40 28 105 81 143 116 41 37 92 73 121 84 28 11 132 61 232 112 213 107 244 114 362 82 93 -25 139 -28 76 -5 -67 25 -195 49 -223 42 -14 -4 -102 -45 -195 -91 -93 -46 -200 -94 -236 -106 -49 -17 -84 -38 -132 -81 -72 -66 -190 -158 -201 -158 -18 0 -285 -268 -294 -295 -3 -11 -13 -20 -21 -20 -8 0 -16 -4 -19 -8 -11 -19 33 -119 68 -158 21 -23 45 -54 52 -67 36 -67 -17 -193 -121 -290 -75 -69 -283 -233 -296 -234 -19 0 -182 -174 -234 -249 -18 -26 -22 -42 -16 -70 6 -32 4 -38 -13 -38 -10 0 -25 -4 -33 -8 -16 -11 -28 -115 -14 -132 5 -6 12 -29 16 -50 6 -31 17 -45 56 -71 60 -40 77 -76 77 -167 0 -153 61 -273 140 -275 11 0 25 -7 32 -16 7 -9 33 -20 59 -23 79 -10 132 -66 142 -148 5 -40 66 -125 104 -143 60 -28 139 -21 281 26 106 36 144 44 218 45 79 1 96 -2 151 -29 35 -16 87 -54 117 -83 l54 -54 -24 -47 c-27 -52 -87 -216 -120 -326 -20 -70 -44 -160 -111 -430 -21 -84 -42 -161 -47 -171 -5 -10 -14 -36 -19 -58 -6 -21 -19 -75 -30 -118 -11 -43 -31 -131 -44 -194 -13 -64 -30 -134 -38 -155 -8 -22 -15 -54 -15 -71 0 -18 -5 -40 -10 -50 -18 -33 -43 -119 -37 -129 4 -6 1 -10 -6 -10 -6 0 -10 -11 -9 -24 1 -13 -1 -30 -4 -39 -14 -34 -59 -208 -71 -273 -45 -248 -267 -795 -367 -903 -68 -75 -165 -147 -331 -249 -148 -91 -136 -88 -402 -94 -131 -2 -290 -9 -354 -15 -63 -5 -172 -15 -241 -20 -70 -6 -152 -15 -184 -21 -32 -5 -75 -12 -97 -16 l-38 -6 -1 1426 c-1 784 -3 1551 -6 1704 -7 386 -6 2933 1 3292 4 161 6 385 6 496 l0 202 138 1 c76 0 198 2 270 4 232 7 2791 6 3008 -1 450 -14 2756 -27 2736 -15 -9 4 -49 11 -90 15 -91 9 -1418 10 -1432 2 -5 -3 -11 -2 -13 3 -3 8 -1801 30 -2114 25 -75 -1 -267 -1 -425 0 -468 3 -1353 3 -1751 0z m3626 -2137 c-11 -43 -91 -158 -158 -225 -64 -65 -176 -145 -289 -210 -62 -35 -184 -62 -230 -50 -22 5 -24 10 -18 42 8 43 -11 89 -57 139 -37 41 -50 109 -31 167 21 65 39 80 93 74 27 -3 50 -12 56 -22 5 -9 19 -17 32 -17 28 -1 81 -45 81 -68 0 -26 45 -48 96 -46 25 1 61 -2 80 -6 64 -14 171 39 238 118 20 25 38 40 38 33 0 -24 29 10 48 58 20 48 32 56 21 13z m-510 -485 c0 -2 -5 -7 -11 -11 -6 -3 -10 -1 -10 5 0 6 4 11 10 11 6 0 11 -2 11 -5z m897 -1018 c70 -63 169 -153 221 -201 52 -47 109 -99 128 -116 l34 -30 8 -147 c4 -81 6 -235 3 -341 -4 -200 -4 -265 1 -871 3 -343 3 -351 -18 -359 -11 -4 -152 -8 -312 -8 l-290 0 -1 44 c0 24 0 282 1 574 1 292 1 595 0 674 -1 98 2 146 11 151 8 5 8 9 1 14 -11 6 -16 341 -13 727 l1 101 49 -49 c28 -27 107 -101 176 -163z m832 -701 c-4 -8 -6 -6 -7 6 0 11 2 18 6 14 3 -3 4 -12 1 -20z m-219 -1915 c-13 -137 -5 -429 16 -566 3 -18 8 -62 12 -100 4 -38 9 -71 11 -75 4 -7 -437 -20 -636 -20 -235 1 -1172 -9 -1383 -15 -123 -3 -223 -3 -223 0 0 4 16 28 36 54 20 27 42 68 48 92 6 23 15 50 21 59 32 49 63 119 82 184 26 87 39 336 20 378 -10 22 -8 35 13 76 l25 49 814 0 c448 0 890 3 983 6 92 2 169 4 171 4 1 -1 -3 -58 -10 -126z m-2008 -42 c14 -78 -13 -313 -47 -404 -43 -112 -50 -110 -57 15 -6 106 4 218 24 264 5 11 19 53 32 92 12 39 26 71 31 71 5 0 13 -17 17 -38z m2056 -822 c4 -38 13 -112 22 -164 14 -87 27 -257 29 -389 2 -90 -15 -319 -26 -354 -5 -19 -14 -91 -18 -160 -8 -117 -11 -132 -48 -205 -22 -43 -54 -97 -72 -121 l-33 -42 -68 9 c-42 5 -104 4 -158 -2 -55 -7 -270 -9 -562 -6 -260 3 -479 5 -488 5 -401 -7 -3441 -20 -3412 -14 26 5 234 78 283 99 14 6 73 28 129 47 57 20 126 47 153 60 27 14 79 36 117 49 38 14 88 39 112 55 24 16 52 29 63 29 34 0 66 13 67 25 0 6 28 23 63 36 35 14 103 47 151 75 49 28 99 54 113 59 29 9 122 55 139 69 33 27 223 142 269 162 14 7 32 20 40 29 8 10 19 18 23 18 13 0 150 89 240 156 43 33 105 78 138 101 33 23 74 52 90 65 17 13 56 44 88 68 60 47 190 178 258 261 22 26 47 45 56 44 26 -5 448 -2 531 4 41 2 432 6 870 9 438 2 799 7 803 10 15 16 33 -24 38 -87z m-3880 25 c-3 -3 -33 -20 -68 -38 -34 -18 -86 -48 -115 -66 -29 -18 -62 -39 -73 -46 -12 -7 -45 -25 -74 -41 -42 -22 -340 -216 -483 -315 -17 -12 -59 -40 -92 -62 -34 -22 -92 -71 -129 -107 -37 -37 -70 -65 -75 -62 -5 3 -8 151 -8 329 l0 323 94 13 c52 8 161 19 242 25 210 16 237 19 277 26 24 4 39 2 45 -7 8 -11 11 -11 15 -1 4 8 32 13 81 14 41 1 104 5 138 9 73 9 232 13 225 6z m2403 -1488 c19 -18 1000 -19 1000 -1 0 8 7 14 16 14 8 0 16 -7 16 -15 0 -12 81 -13 480 -10 l480 4 -33 -34 -34 -33 -518 -3 c-520 -3 -1101 -3 -3573 0 l-1344 1 -3 29 c-2 18 2 29 10 30 8 0 767 1 1686 3 1295 1 1675 5 1685 15 16 16 116 16 132 0z m2037 -53 c3 -11 -7 -17 -28 -21 -37 -5 -39 -1 -15 26 20 21 39 20 43 -5z m-727 -490 c-9 -16 44 -22 189 -21 259 1 245 3 252 -30 4 -16 15 -48 26 -71 10 -23 22 -52 26 -65 4 -13 25 -61 48 -108 23 -47 42 -87 42 -90 0 -13 126 -273 172 -355 l29 -52 -76 7 c-81 8 -1472 9 -1845 2 -189 -4 -223 -2 -223 11 0 8 -5 15 -10 15 -6 0 -10 -6 -8 -13 2 -10 -102 -13 -491 -14 -437 -1 -496 1 -513 16 -56 47 -219 332 -243 422 -27 104 -24 143 9 151 30 8 77 55 82 83 4 25 30 35 30 12 0 -10 4 -15 10 -11 7 4 -2 21 -21 43 -17 20 -31 41 -31 46 0 6 286 10 721 10 397 0 734 1 749 2 14 1 73 -1 131 -5 211 -12 940 -12 938 1 -2 13 1 24 7 24 4 0 4 -5 0 -10z m-4562 -494 c0 -6 -6 -11 -12 -11 -6 0 -8 5 -4 11 3 5 8 10 11 10 2 0 5 -5 5 -10z m89 -62 c-8 -8 -27 11 -20 21 4 7 10 6 15 -3 5 -7 7 -15 5 -18z m34 -128 c11 -18 11 -22 -3 -27 -20 -8 -53 21 -42 37 11 18 31 14 45 -10z m5048 -125 l179 0 46 -98 c25 -53 63 -133 86 -177 22 -45 37 -83 33 -86 -5 -3 -65 -1 -134 4 -70 5 -211 7 -315 4 -104 -2 -626 -6 -1160 -9 -535 -3 -1217 -9 -1518 -13 -300 -3 -1014 -7 -1587 -8 l-1042 -1 -3 100 c-2 55 -2 136 0 180 l3 81 133 0 c458 -1 3417 21 3422 25 1 2 1070 1 1857 -2z m-590 -387 c4 -6 65 -9 65 -3 0 6 531 8 674 3 106 -4 192 -4 192 1 0 4 5 8 11 8 5 0 10 -7 10 -15 0 -12 67 -159 97 -211 6 -12 28 -54 48 -95 19 -40 63 -130 97 -200 35 -69 63 -128 63 -131 0 -3 -153 -5 -339 -5 -186 0 -421 -2 -522 -5 -248 -5 -1314 6 -1386 15 -43 6 -54 5 -42 -4 11 -8 -65 -11 -268 -11 -382 -1 -577 -6 -591 -14 -6 -4 -14 -3 -17 2 -4 6 -228 7 -539 4 -589 -6 -1151 -8 -1216 -3 -23 2 -118 2 -211 1 -94 -2 -175 0 -182 4 -6 4 -11 2 -11 -5 0 -6 -8 -9 -18 -6 -26 8 -84 8 -297 1 -191 -6 -433 -6 -439 0 -3 3 -2 497 1 594 l2 47 126 -1 c70 0 164 -2 210 -3 46 -2 266 -1 489 3 222 4 413 8 425 8 11 0 255 -1 541 -2 285 0 760 2 1055 5 426 5 943 6 1160 3 131 -1 770 13 774 17 9 9 32 8 38 -2z"/>
		<path d="M4491 8334 c-8 -13 -26 -48 -38 -77 -20 -46 -22 -61 -13 -115 6 -34 13 -70 17 -80 6 -16 2 -17 -32 -12 -30 5 -38 4 -34 -8 5 -16 142 -22 258 -11 81 7 65 28 -19 26 l-68 -2 45 11 c49 13 56 30 24 58 -22 18 -30 41 -12 30 6 -4 22 10 38 30 31 41 28 71 -12 114 -28 30 -87 65 -95 56 -6 -5 60 -69 72 -69 4 0 11 -17 15 -38 5 -28 2 -42 -10 -54 -15 -16 -20 -16 -61 0 -30 12 -48 14 -55 7 -7 -6 -4 -10 8 -10 23 0 80 -55 80 -78 0 -9 -13 -22 -29 -27 -16 -6 -37 -15 -47 -21 -25 -14 -26 -14 -35 18 -15 59 7 227 35 258 14 16 15 18 0 18 -9 0 -23 -11 -32 -24z"/>
		<path d="M4315 8006 c-14 -17 -6 -19 26 -6 17 7 18 9 3 14 -9 4 -22 0 -29 -8z"/>
		<path d="M4284 7969 c0 -6 5 -8 11 -5 5 4 10 9 10 11 0 3 -5 5 -10 5 -6 0 -11 -5 -11 -11z"/>
		<path d="M4641 7852 c0 -7 12 -23 28 -35 24 -19 27 -27 20 -61 -8 -42 -45 -75 -73 -64 -20 8 -22 33 -6 73 18 48 -17 73 -59 43 -19 -15 -19 -16 -1 -36 38 -42 0 -106 -46 -78 -12 8 -25 11 -30 8 -11 -6 -3 45 12 76 8 17 8 27 -2 38 -7 9 -10 20 -7 26 3 5 -6 7 -21 4 -32 -6 -43 -30 -27 -56 8 -12 8 -21 2 -25 -6 -4 -10 -25 -10 -48 0 -67 57 -92 132 -56 28 13 40 14 49 5 13 -13 59 -15 76 -3 6 4 24 25 41 46 41 55 36 111 -12 137 -40 22 -66 24 -66 6z"/>
		<path d="M4546 7487 c15 -28 13 -85 -5 -116 -19 -34 -19 -52 -1 -52 9 0 24 27 38 69 26 78 19 120 -21 120 -18 0 -20 -4 -11 -21z"/>
		<path d="M4610 7489 c0 -4 7 -20 15 -34 24 -41 19 -62 -27 -117 -49 -59 -41 -66 19 -17 87 71 109 143 49 166 -32 12 -57 13 -56 2z"/>
		<path d="M4454 7404 c-19 -12 -33 -79 -21 -100 5 -10 23 -17 40 -17 28 0 31 -3 34 -45 2 -36 7 -44 24 -44 16 0 20 6 19 30 -2 17 -9 35 -16 40 -11 7 -11 11 2 19 22 15 -3 30 -43 27 -36 -2 -37 3 -9 52 11 20 21 39 21 42 0 8 -36 5 -51 -4z"/>
		<path d="M4459 7122 c-11 -11 -8 -71 4 -83 8 -8 7 -20 -1 -38 -18 -38 -5 -78 31 -97 27 -14 35 -14 66 -1 22 9 54 12 85 9 61 -7 83 9 107 79 15 46 15 51 -2 74 -23 31 -93 72 -104 62 -4 -5 7 -24 26 -43 54 -56 42 -143 -20 -143 -32 0 -32 0 -27 51 4 41 1 55 -15 69 -10 10 -24 15 -30 11 -14 -9 -15 -44 -1 -53 6 -3 11 -20 11 -36 0 -23 -6 -31 -28 -37 -15 -3 -36 -3 -47 0 -24 8 -27 49 -4 68 18 15 4 39 -31 52 -20 8 -20 8 2 27 12 11 20 23 17 28 -6 10 -29 11 -39 1z"/>
		<path d="M4436 6758 c-11 -44 -2 -74 24 -78 31 -5 60 18 45 33 -14 14 -14 39 0 39 6 0 18 -17 28 -37 10 -20 21 -37 26 -37 4 0 5 -7 2 -15 -3 -8 0 -25 7 -38 10 -18 9 -22 -2 -18 -8 3 -28 -5 -46 -18 -17 -13 -46 -31 -64 -40 -38 -20 -55 -66 -33 -87 18 -18 73 -23 78 -8 3 6 -5 14 -17 17 -22 6 -30 29 -10 29 6 0 7 5 3 12 -4 7 -3 9 3 5 6 -3 30 3 54 14 56 27 61 27 77 -9 14 -32 58 -64 87 -64 23 0 21 17 -4 31 -11 6 -23 21 -27 34 -21 66 -101 218 -126 238 -17 12 -44 22 -64 22 -28 0 -36 -5 -41 -25z"/>
		<path d="M3673 5845 c-95 -58 -106 -87 -32 -86 l50 0 -3 -47 c-10 -139 -8 -154 31 -212 53 -81 56 -95 25 -132 -15 -18 -25 -38 -22 -46 8 -22 -7 -38 -46 -48 -20 -5 -38 -16 -41 -24 -4 -11 12 -13 87 -7 51 3 95 9 98 12 15 15 -14 19 -66 9 -32 -6 -58 -8 -58 -6 0 12 59 49 72 46 8 -1 24 6 37 17 27 24 85 32 78 11 -3 -8 -17 -12 -35 -10 -25 3 -28 1 -18 -12 7 -8 10 -18 6 -22 -4 -3 -2 -6 5 -6 6 0 10 -6 7 -14 -4 -9 6 -13 31 -13 48 0 58 12 17 21 -38 8 -38 10 -12 36 20 20 21 20 50 -22 34 -49 59 -61 130 -61 86 0 81 14 -41 117 -29 25 -33 34 -33 83 0 81 -80 265 -127 292 -23 13 -27 23 -26 60 1 60 -25 89 -82 88 -26 0 -59 -10 -82 -24z m133 -13 c17 -18 19 -25 16 -75 -1 -27 4 -36 28 -49 33 -17 42 -31 82 -133 28 -73 54 -185 45 -194 -8 -9 -114 66 -167 117 -27 27 -54 66 -62 89 -13 40 -12 43 16 73 17 17 27 34 23 38 -13 13 -59 -52 -59 -84 -1 -68 63 -140 206 -232 51 -32 112 -75 135 -95 l42 -37 -61 0 c-64 0 -69 3 -127 78 -28 37 -33 39 -73 34 -24 -3 -48 -13 -55 -22 -13 -18 -42 -22 -51 -7 -3 5 4 17 15 27 31 28 26 73 -15 135 -45 68 -54 114 -37 190 16 69 6 87 -54 100 l-36 8 30 8 c21 6 32 4 42 -9 8 -11 20 -14 37 -10 24 6 24 7 -8 20 -54 23 -38 43 38 45 18 1 40 -6 50 -15z"/>
		<path d="M3291 5783 c-44 -48 -49 -78 -31 -189 11 -67 -3 -82 -69 -80 -29 1 -55 -1 -58 -5 -3 -3 11 -27 33 -54 32 -39 40 -59 47 -113 4 -36 6 -69 4 -73 -8 -14 22 -22 91 -24 l72 -3 -1 50 c0 28 5 60 12 72 6 11 11 30 11 41 0 10 14 35 31 55 17 20 31 40 32 45 0 4 -21 8 -47 8 -46 0 -48 1 -41 26 4 18 -4 48 -28 97 -37 76 -37 74 5 173 15 35 -21 20 -63 -26z m18 -60 c-3 -41 2 -59 20 -85 30 -43 40 -112 17 -121 -10 -4 -29 -4 -43 0 -23 5 -25 9 -16 39 7 23 5 41 -6 62 -22 43 -19 97 6 129 12 16 23 28 24 28 1 0 0 -23 -2 -52z m122 -231 c2 0 -8 -16 -23 -36 -15 -19 -27 -45 -27 -58 0 -13 -5 -33 -11 -44 -6 -12 -12 -35 -12 -52 -1 -32 -23 -41 -85 -32 -26 3 -29 7 -29 47 0 50 -28 118 -61 147 -12 11 -22 24 -22 29 0 7 233 6 270 -1z"/>
		<path d="M4641 5792 c0 -8 -13 -18 -29 -22 -16 -4 -46 -18 -68 -32 -21 -14 -44 -26 -51 -26 -21 0 -126 -65 -133 -81 -9 -24 19 -35 71 -28 38 5 53 2 76 -17 16 -12 29 -30 29 -40 0 -10 7 -31 16 -48 l15 -29 -41 7 c-23 4 -43 2 -47 -4 -8 -14 66 -24 136 -19 39 2 53 8 56 21 2 10 8 15 14 11 35 -22 106 6 151 58 l22 26 7 -27 c5 -20 20 -33 54 -47 26 -11 47 -22 47 -26 0 -3 -28 -4 -62 -1 -39 3 -63 1 -63 -6 0 -13 102 -22 132 -11 26 9 35 27 48 98 5 29 12 67 15 84 4 25 0 37 -22 57 -21 20 -30 23 -39 13 -10 -9 -9 -12 5 -12 23 0 54 -47 45 -70 -6 -15 -9 -15 -23 6 -23 32 -81 56 -117 47 -16 -4 -58 -20 -94 -37 -36 -16 -81 -30 -100 -30 -41 0 -138 57 -131 76 2 7 26 18 52 24 27 6 51 13 55 17 10 10 -5 83 -17 83 -5 0 -9 -7 -9 -15z m21 -47 c0 -4 -25 -16 -56 -26 -30 -9 -62 -23 -71 -30 -8 -8 -13 -13 -11 -11 3 1 22 -14 44 -34 37 -33 96 -58 139 -58 10 0 48 15 83 33 78 41 141 45 184 13 26 -20 29 -29 29 -76 -1 -73 -12 -81 -68 -51 -57 30 -76 57 -50 72 10 5 19 15 19 20 0 21 -24 8 -74 -39 -41 -38 -62 -49 -98 -53 -26 -3 -56 0 -70 7 -23 13 -23 12 -17 -15 7 -27 6 -28 -27 -21 -47 10 -59 22 -67 63 -4 19 -18 46 -32 59 -21 20 -36 24 -83 22 -78 -4 -68 18 30 65 42 20 85 43 96 52 22 17 100 23 100 8z"/>
		<path d="M4514 5755 c-14 -11 -23 -23 -19 -26 3 -4 17 5 31 20 29 31 22 34 -12 6z"/>
		<path d="M3136 5651 c-23 -25 -22 -58 2 -79 25 -23 47 -22 68 2 22 24 22 43 1 73 -20 28 -48 30 -71 4z m65 -24 c16 -26 0 -51 -31 -51 -29 0 -45 36 -24 57 22 22 38 20 55 -6z"/>
		<path d="M3407 5653 c-26 -26 -16 -70 19 -82 55 -19 93 36 54 79 -22 24 -50 26 -73 3z m63 -36 c0 -30 -36 -41 -56 -17 -10 12 -9 19 5 33 24 24 51 16 51 -16z"/>
		<path d="M4148 5429 c0 -5 9 -13 21 -16 35 -12 24 -35 -19 -39 -25 -2 -40 -9 -42 -20 -4 -19 38 -41 76 -41 15 0 31 -9 37 -21 24 -46 68 -52 342 -50 238 3 286 7 238 22 -69 22 -118 44 -160 74 -110 80 -171 79 -272 -7 -42 -36 -84 -33 -123 9 -29 31 -31 42 -9 50 8 4 16 14 16 24 0 16 -2 16 -22 -2 -21 -18 -22 -18 -37 4 -16 23 -46 32 -46 13z m415 -64 c15 -5 48 -27 72 -47 24 -20 63 -40 86 -46 29 -7 -30 -10 -204 -10 l-246 -1 -27 29 c-16 17 -45 33 -67 38 -55 10 -61 27 -9 27 35 0 49 -6 72 -31 38 -42 96 -48 134 -13 73 66 121 80 189 54z"/>
		<path d="M415 4757 c3 -6 8 -11 11 -11 2 0 5 5 5 11 0 5 -6 10 -12 10 -6 0 -8 -5 -4 -10z"/>
		<path d="M5279 2818 c-15 -15 -22 -16 -50 -4 -44 18 -48 9 -15 -30 32 -38 46 -123 42 -253 -3 -72 8 -137 21 -124 6 6 12 64 21 206 3 60 13 128 21 150 22 63 0 94 -40 55z"/>
		<path d="M5006 2807 c-21 -6 -23 -15 -8 -31 6 -6 14 -87 18 -181 4 -121 10 -169 19 -169 10 0 27 186 27 306 0 10 5 21 10 25 12 7 13 46 2 47 -4 1 -17 2 -29 4 -11 2 -29 1 -39 -1z"/>
		<path d="M3686 2789 c0 -20 43 -101 54 -101 5 0 9 11 9 24 0 13 7 34 16 47 22 32 11 45 -38 45 -29 0 -41 -5 -41 -15z"/>
		<path d="M4027 2794 c-4 -6 -3 -17 1 -24 4 -7 13 -41 19 -75 14 -76 32 -88 42 -27 4 24 15 58 24 74 12 19 14 33 8 40 -17 16 -86 25 -94 12z"/>
		<path d="M4587 2781 c-22 -22 -24 -22 -70 -5 -26 9 -50 15 -52 12 -6 -6 83 -105 93 -105 8 0 94 106 94 115 0 15 -45 3 -65 -17z"/>
		<path d="M3063 2786 c-4 -3 0 -19 7 -34 8 -15 17 -40 21 -56 10 -44 32 -35 59 25 20 44 21 55 9 62 -16 11 -86 13 -96 3z"/>
		<path d="M4163 2782 c-4 -6 3 -22 15 -35 26 -28 27 -37 6 -76 -15 -30 -20 -56 -10 -56 10 0 110 75 110 83 0 8 -74 72 -102 88 -6 4 -15 2 -19 -4z"/>
		<path d="M4337 2749 c-49 -68 -40 -93 19 -50 32 24 59 19 76 -13 10 -18 31 -18 31 1 0 12 -75 106 -85 106 -4 0 -23 -20 -41 -44z"/>
		<path d="M4683 2785 c0 -4 10 -20 21 -34 21 -26 22 -26 37 -6 25 34 19 48 -21 48 -20 0 -37 -4 -37 -8z"/>
		<path d="M4837 2748 c-42 -46 -65 -81 -54 -81 4 0 28 15 54 33 l47 32 47 -24 c25 -13 49 -20 53 -16 7 6 -88 99 -102 101 -3 0 -24 -20 -45 -45z"/>
		<path d="M3334 2751 c-76 -60 -89 -99 -38 -110 16 -4 40 -16 53 -28 12 -12 29 -19 37 -16 12 5 11 13 -5 47 -20 41 -19 60 5 120 11 27 -8 23 -52 -13z"/>
		<path d="M3814 2749 c-19 -7 -34 -15 -34 -18 0 -4 20 -13 45 -20 24 -8 50 -16 58 -19 10 -5 13 3 11 29 -4 40 -23 46 -80 28z"/>
		<path d="M5127 2706 c21 -20 41 -49 45 -66 13 -58 17 -68 25 -63 7 5 8 30 2 89 -2 19 -74 75 -98 75 -7 0 5 -16 26 -35z"/>
		<path d="M2940 2672 c-40 -29 -92 -34 -101 -10 -8 19 -29 20 -45 1 -13 -16 -5 -48 13 -48 6 0 27 -16 46 -34 30 -30 37 -32 58 -20 13 7 37 32 53 54 47 69 34 100 -24 57z"/>
		<path d="M4699 2680 c4 -10 10 -27 13 -37 7 -24 20 -23 34 2 20 37 13 54 -22 54 -27 0 -31 -4 -25 -19z"/>
		<path d="M2708 2661 c-10 -12 -24 -15 -51 -11 -45 8 -119 8 -126 0 -10 -10 77 -77 109 -84 26 -6 36 0 76 43 25 27 43 54 40 59 -9 15 -33 11 -48 -7z"/>
		<path d="M3691 2656 c-11 -18 17 -73 37 -73 9 0 24 58 19 70 -5 9 -51 12 -56 3z"/>
		<path d="M3448 2617 c21 -85 20 -116 -3 -145 -20 -25 -22 -58 -5 -77 7 -8 120 137 120 155 0 13 -94 96 -108 96 -6 0 -8 -12 -4 -29z"/>
		<path d="M3096 2604 c-4 -43 0 -63 14 -77 15 -15 18 -15 30 -1 7 8 9 15 5 15 -4 0 0 12 9 27 10 14 15 31 12 36 -9 14 -68 14 -70 0z"/>
		<path d="M3819 2601 c-49 -12 -46 -30 7 -42 49 -12 69 -4 62 23 -7 27 -21 31 -69 19z"/>
		<path d="M4037 2530 c10 -107 19 -149 35 -154 9 -3 13 10 13 44 0 26 9 77 21 112 12 35 19 67 15 70 -3 4 -25 7 -48 7 l-43 1 7 -80z"/>
		<path d="M4158 2591 c1 -7 8 -22 16 -34 22 -28 20 -44 -11 -83 -48 -64 -23 -97 28 -38 16 17 37 32 49 32 11 0 26 7 34 16 11 13 8 22 -22 53 -44 45 -94 74 -94 54z"/>
		<path d="M4694 2571 c0 -25 27 -69 36 -60 3 3 6 21 8 41 2 31 -1 37 -21 40 -19 2 -23 -2 -23 -21z"/>
		<path d="M3607 2510 c-4 -6 -2 -11 4 -11 6 0 13 5 17 11 3 5 2 10 -4 10 -6 0 -14 -5 -17 -10z"/>
		<path d="M3680 2492 c4 -15 13 -37 20 -47 12 -17 16 -18 26 -6 7 8 15 30 19 48 6 32 5 33 -33 33 -37 0 -39 -1 -32 -28z"/>
		<path d="M3833 2490 c-19 -4 -37 -12 -39 -18 -4 -11 77 -54 85 -46 2 3 7 20 11 39 8 37 8 37 -57 25z"/>
		<path d="M4704 2463 c0 -49 16 -56 37 -17 18 37 13 53 -17 53 -16 0 -20 -7 -20 -36z"/>
		<path d="M3087 2472 c0 -9 5 -13 11 -10 5 4 10 11 10 17 0 5 -5 10 -10 10 -6 0 -11 -8 -11 -17z"/>
		<path d="M3098 2442 c-8 -10 -7 -23 3 -49 8 -20 13 -41 10 -48 -2 -8 3 -10 15 -7 23 6 72 86 59 98 -18 16 -75 20 -87 6z"/>
		<path d="M3654 2437 c0 -5 7 -12 15 -15 10 -4 13 -1 10 9 -7 17 -25 21 -25 6z"/>
		<path d="M3901 2415 c-4 -6 3 -10 16 -10 12 0 19 4 15 10 -3 6 -10 11 -15 11 -6 0 -13 -5 -16 -11z"/>
		<path d="M5303 2410 c0 -8 4 -18 10 -21 6 -4 11 3 11 15 0 12 -5 22 -11 22 -6 0 -10 -7 -10 -16z"/>
		<path d="M3507 2159 c-25 -10 -23 -11 21 -17 26 -4 40 -8 31 -9 -25 -2 -56 -40 -48 -59 3 -9 23 -24 43 -32 38 -16 46 -34 24 -55 -19 -20 -27 -15 -21 12 3 19 -1 27 -17 32 -31 10 -45 -1 -41 -34 3 -34 -31 -45 -52 -17 -19 27 -17 38 13 83 32 46 24 65 -10 25 -13 -15 -30 -30 -38 -33 -10 -4 -11 -6 -2 -7 8 0 13 -16 13 -43 0 -35 5 -44 26 -54 20 -9 33 -9 53 0 15 7 41 13 58 13 38 0 58 31 41 64 -9 16 -9 25 0 33 16 16 14 49 -4 56 -8 3 -17 14 -19 24 -7 24 -38 32 -71 18z m84 -59 c12 -21 -3 -31 -16 -10 -12 20 -26 -1 -15 -22 12 -23 0 -27 -19 -8 -17 17 -17 47 0 54 26 10 39 7 50 -14z m-47 -94 c3 -6 -1 -11 -10 -11 -9 0 -16 5 -16 11 0 5 4 10 9 10 6 0 13 -5 17 -10z"/>
		<path d="M4029 2160 c-16 -11 -10 -13 36 -14 47 0 51 1 35 14 -24 17 -48 17 -71 0z"/>
		<path d="M2991 2156 c7 -3 16 -3 20 1 3 3 -3 6 -14 5 -12 0 -15 -3 -6 -6z"/>
		<path d="M3047 2146 c10 -10 21 -16 25 -12 3 3 -5 12 -18 19 -24 12 -24 12 -7 -7z"/>
		<path d="M2935 2142 c-4 -6 -2 -10 4 -10 6 0 13 4 17 10 3 6 2 11 -4 11 -6 0 -14 -5 -17 -11z"/>
		<path d="M2791 2137 c-3 -3 -553 -6 -1222 -6 l-1217 0 -29 -26 c-29 -25 -39 -57 -18 -57 5 0 10 5 10 11 0 16 44 51 63 51 10 0 4 -10 -16 -26 -38 -31 -19 -35 20 -4 l28 22 -1 -69 c0 -37 5 -71 11 -75 7 -4 10 23 10 73 l1 80 32 0 33 0 -7 -66 c-4 -36 -8 -75 -9 -86 -1 -11 4 -22 11 -24 9 -3 13 11 13 49 l0 54 39 -3 40 -3 -3 -56 c-1 -37 -9 -65 -23 -83 -29 -37 -14 -54 16 -19 25 30 40 94 34 148 -3 28 -7 31 -48 34 -40 3 -45 6 -45 29 1 26 2 26 77 23 l76 -3 -1 -66 c-1 -79 21 -85 24 -6 1 28 2 57 2 64 1 8 12 14 26 14 37 0 44 -47 10 -69 -13 -9 -24 -23 -24 -31 0 -24 22 -19 28 5 6 22 22 25 63 14 19 -5 24 -14 24 -40 0 -28 -9 -42 -42 -70 -42 -34 -51 -54 -31 -67 5 -3 14 5 20 19 5 14 24 37 42 52 27 24 32 35 32 76 0 46 -1 48 -31 48 -37 0 -40 7 -14 28 17 13 17 14 -5 8 -17 -5 -23 -2 -23 10 0 14 15 17 97 17 l97 0 0 -79 c-1 -71 -4 -81 -30 -108 -28 -30 -28 -44 0 -44 8 0 14 9 14 20 0 11 9 26 21 32 19 10 21 20 18 95 l-2 84 39 0 c32 0 40 -4 39 -21 0 -11 -12 -29 -28 -41 -16 -11 -25 -25 -21 -29 5 -5 14 -1 19 9 11 20 41 25 41 8 0 -6 17 -10 37 -10 36 0 37 -1 37 -47 0 -42 -5 -50 -50 -88 -41 -35 -48 -45 -37 -56 11 -11 15 -10 19 7 4 11 25 34 48 50 41 29 41 30 38 89 -3 60 -3 60 -37 64 -38 3 -44 16 -16 32 18 10 18 11 0 11 -10 0 -18 5 -18 11 0 6 32 11 76 11 l76 0 -3 -91 c-3 -67 0 -93 10 -100 17 -10 146 -2 158 10 5 5 12 47 15 95 l7 86 37 0 36 0 -7 -75 c-6 -60 -5 -74 6 -70 8 3 15 18 15 35 3 106 4 110 26 110 29 0 27 -46 -3 -66 -19 -13 -21 -19 -11 -30 11 -11 14 -10 14 4 0 10 4 18 10 18 6 0 11 -5 11 -11 0 -8 14 -9 42 -5 40 7 42 6 42 -22 0 -22 -13 -40 -50 -72 -30 -27 -46 -48 -41 -56 11 -17 28 -16 28 2 0 9 18 31 40 50 38 33 40 39 36 80 l-5 44 -41 -6 c-47 -8 -55 7 -13 26 15 7 24 16 20 20 -3 3 -12 1 -19 -6 -18 -18 -29 -15 -29 9 0 18 7 21 64 21 l64 0 -4 -87 -3 -87 39 -3 c36 -3 40 -6 40 -34 0 -17 5 -31 11 -31 6 0 9 17 8 39 -4 38 -6 40 -43 43 -36 3 -39 6 -39 34 0 27 3 31 30 31 17 0 33 -6 35 -13 3 -7 9 -10 13 -6 17 16 -5 40 -36 40 -30 0 -32 3 -32 37 0 32 3 37 26 37 19 0 24 -5 19 -17 -4 -13 -1 -16 14 -13 11 3 19 10 17 17 -3 13 0 14 47 16 l29 1 2 -86 c1 -83 0 -87 -29 -112 -30 -25 -41 -58 -20 -58 6 0 11 6 11 15 0 27 44 48 101 48 32 0 58 5 63 13 5 7 11 51 14 97 4 65 9 84 21 84 12 0 16 -17 19 -78 3 -68 0 -80 -20 -102 -13 -14 -32 -25 -42 -25 -25 0 -36 -20 -16 -27 27 -11 84 45 97 94 10 40 14 44 49 47 l39 3 0 -45 c0 -41 -5 -49 -42 -77 -38 -27 -53 -47 -36 -47 3 0 30 19 58 44 l53 44 -3 84 c-4 84 -4 85 23 85 25 0 26 -2 29 -97 l3 -97 51 0 c29 0 55 5 59 11 4 7 10 51 14 98 6 76 8 85 27 85 32 0 34 -43 4 -68 -14 -11 -21 -23 -17 -28 5 -4 15 1 24 13 14 18 15 14 9 -41 -5 -42 -3 -60 5 -60 7 0 12 21 12 55 0 33 7 65 16 79 15 21 15 23 -1 17 -13 -5 -16 -2 -13 13 2 11 14 21 27 23 29 4 31 -9 18 -125 -5 -48 -11 -62 -32 -73 -14 -7 -25 -20 -25 -28 0 -46 65 28 78 90 11 48 11 49 55 52 44 3 45 2 45 -29 0 -28 -3 -32 -31 -32 -47 0 -48 -18 -1 -23 51 -5 53 0 53 98 0 46 4 71 11 67 5 -4 10 -44 10 -89 0 -80 -1 -84 -30 -105 -17 -12 -39 -21 -48 -21 -9 0 -16 -8 -16 -16 0 -29 37 -17 77 25 l40 41 -3 82 c-4 77 -2 83 17 83 19 0 21 -7 21 -86 0 -47 3 -89 7 -93 4 -4 21 -4 38 0 31 7 32 9 39 82 l7 76 41 1 c32 1 41 -2 39 -15 -2 -9 5 -19 15 -21 12 -2 19 3 19 16 0 31 -21 44 -62 39 -21 -3 -32 -2 -25 2 20 9 16 25 -6 25 -11 0 -22 -2 -25 -5z m-796 -64 c0 -34 -2 -36 -37 -36 -23 0 -35 -4 -31 -10 3 -6 20 -11 37 -11 32 0 36 -8 24 -50 -5 -20 -13 -23 -53 -23 l-47 0 7 81 c4 45 12 84 17 87 5 3 26 4 46 2 34 -4 37 -8 37 -40z m166 9 c3 -31 0 -34 -23 -34 -14 0 -33 -3 -42 -7 -14 -5 -17 1 -17 30 0 45 4 49 45 46 30 -1 34 -5 37 -35z m189 -44 c3 -79 4 -77 -53 -90 l-29 -6 0 83 c0 45 2 84 4 86 3 3 20 4 40 4 l35 -1 3 -76z m236 73 c13 0 18 -9 18 -33 0 -31 -1 -32 -45 -28 -33 2 -45 8 -48 22 -6 31 5 46 32 43 13 -2 33 -3 43 -4z m189 2 c9 -15 -14 -143 -27 -151 -26 -17 -30 -7 -23 67 9 86 11 92 31 92 8 0 17 -4 19 -8z m-1368 -54 c0 -83 -10 -114 -37 -119 -23 -5 -25 -1 -28 48 -5 76 -29 79 -29 3 0 -56 -2 -59 -27 -59 -26 0 -26 1 -26 89 l0 90 74 0 73 0 0 -52z"/>
		<path d="M4352 2134 c-26 -6 -68 -44 -68 -62 0 -7 14 -24 32 -37 34 -25 40 -51 15 -71 -20 -17 -49 -6 -40 15 3 9 0 23 -7 32 -18 21 -45 0 -36 -28 7 -24 -19 -27 -38 -3 -11 13 -10 24 9 62 12 25 32 49 43 53 26 8 29 26 6 26 -9 0 -33 -18 -52 -39 -20 -21 -38 -37 -39 -34 -2 3 -12 22 -22 44 -15 34 -22 39 -52 38 -19 0 -26 -3 -16 -6 10 -2 19 -14 19 -25 0 -11 9 -30 22 -42 18 -19 20 -28 12 -55 -6 -23 -16 -34 -32 -37 -22 -3 -23 -1 -12 23 18 39 4 83 -25 79 -20 -3 -23 -10 -23 -53 1 -54 -8 -63 -45 -49 -17 6 -23 17 -23 40 0 18 5 32 11 32 16 0 51 44 51 66 1 30 -19 21 -49 -24 -33 -47 -41 -50 -50 -22 -20 62 -73 90 -122 64 -30 -17 -27 -69 6 -90 32 -21 33 -37 6 -62 -14 -12 -29 -16 -46 -12 -37 9 -45 38 -15 61 19 15 20 19 6 19 -28 0 -51 -30 -44 -59 8 -33 -10 -32 -37 3 -27 34 -27 52 -1 96 26 42 59 43 55 2 -3 -25 -2 -25 16 -7 18 18 17 20 -7 39 -22 18 -28 19 -47 7 -12 -8 -31 -32 -41 -53 -35 -69 -1 -132 64 -119 16 3 36 1 46 -5 24 -13 66 8 81 40 15 33 16 29 -22 65 -27 26 -31 34 -21 47 19 22 51 28 72 12 17 -12 16 -13 -6 -20 -27 -9 -26 -35 2 -52 14 -9 21 -8 28 4 9 13 12 13 26 -5 9 -12 16 -36 16 -54 0 -28 5 -34 33 -39 18 -4 41 -2 51 3 10 6 35 8 54 4 31 -5 38 -2 49 19 6 14 13 34 15 46 5 32 24 20 24 -15 0 -18 5 -36 11 -42 17 -17 137 -18 156 -2 28 24 21 66 -17 98 l-34 29 25 21 c13 12 33 21 43 21 21 0 49 -28 38 -39 -4 -4 -12 -1 -18 8 -9 12 -10 11 -7 -6 2 -11 8 -21 15 -21 24 0 26 -14 4 -36 -22 -22 -22 -54 1 -79 15 -16 78 -11 107 8 33 22 35 32 8 59 -18 18 -18 21 -3 36 36 37 -33 94 -91 76 -12 -4 -24 -2 -27 4 -8 12 -9 12 -43 3z m-210 -64 c-7 -7 -26 20 -26 35 1 6 8 2 16 -9 8 -12 13 -23 10 -26z m352 25 c7 -9 10 -23 7 -32 -8 -20 -38 -20 -38 0 0 10 6 13 17 9 12 -5 15 -3 10 5 -4 7 -15 13 -23 13 -15 0 -19 -13 -16 -41 2 -8 -2 -11 -8 -8 -5 3 -12 20 -14 36 -4 26 -1 30 24 31 15 2 34 -4 41 -13z m-477 -26 c-4 -6 -12 -11 -18 -11 -7 0 -7 6 2 16 14 17 27 13 16 -5z m-100 -11 c0 -6 -7 -10 -16 -10 -8 0 -18 4 -21 10 -4 6 3 11 15 11 12 0 22 -5 22 -11z m167 -29 c0 -10 -4 -25 -9 -32 -12 -20 -25 2 -17 30 8 25 27 27 26 2z m411 -13 c11 -6 20 -16 20 -23 0 -6 -11 -4 -26 6 -32 21 -36 4 -5 -18 22 -15 22 -16 -10 -22 -56 -13 -100 31 -56 56 24 14 51 14 77 1z"/>
		<path d="M5041 2109 c-14 -18 -25 -39 -25 -47 0 -22 -16 -17 -23 7 -4 11 -11 21 -17 21 -5 0 -9 5 -9 11 0 6 4 8 10 4 6 -3 11 -2 11 4 0 6 -5 14 -11 17 -19 12 -23 -24 -6 -57 17 -32 5 -47 -13 -15 -6 11 -12 13 -17 6 -3 -6 4 -21 16 -33 18 -16 21 -24 11 -36 -18 -21 -72 -42 -91 -34 -26 10 -18 36 28 85 44 48 48 73 13 86 -12 5 -25 -1 -37 -17 l-19 -23 -28 22 c-33 26 -54 27 -86 5 -12 -9 -23 -12 -23 -6 0 18 -41 24 -79 12 -74 -25 -112 -110 -73 -166 20 -28 47 -29 80 -3 22 18 24 23 13 53 -11 28 -11 31 4 23 9 -5 22 -25 28 -45 7 -23 21 -38 39 -45 24 -8 35 -4 73 26 25 20 42 31 38 25 -10 -17 22 -57 46 -57 29 0 72 30 93 65 l18 29 26 -39 c22 -35 30 -39 69 -39 24 0 46 -3 50 -7 3 -3 31 -4 61 -1 40 4 63 12 84 32 27 26 29 26 29 5 0 -42 25 -49 71 -20 79 50 97 108 49 156 -25 25 -33 27 -87 21 -36 -3 -65 -13 -73 -23 -12 -15 -14 -15 -24 2 -13 22 -61 24 -89 4 -16 -12 -24 -12 -41 -1 -44 27 -63 26 -89 -7z m-246 -11 c-10 -5 -17 -18 -17 -29 0 -23 30 -37 45 -22 8 8 6 11 -7 11 -9 0 -17 7 -17 16 0 9 9 16 21 16 33 0 27 -55 -12 -100 -38 -43 -51 -45 -79 -15 -19 21 -19 22 1 37 18 13 19 18 7 37 -15 24 -2 47 35 61 27 11 45 1 23 -12z m445 1 c15 -28 -2 -49 -21 -26 -8 9 -18 17 -24 17 -6 0 -5 -7 2 -16 10 -11 9 -20 -5 -42 -10 -14 -15 -36 -12 -48 3 -11 0 -24 -6 -27 -18 -12 -50 37 -50 76 0 34 13 47 26 25 13 -20 28 -11 16 10 -8 16 -6 23 13 37 31 22 47 20 61 -6z m187 1 c27 -26 27 -32 5 -82 l-17 -39 -7 32 c-5 26 -11 31 -35 29 -26 -2 -28 1 -22 27 10 49 13 54 33 54 11 0 30 -10 43 -21z m-736 -23 c15 -40 9 -49 -19 -32 -12 8 -33 10 -47 7 -22 -6 -26 -13 -24 -34 2 -15 10 -29 19 -32 14 -4 14 -2 1 13 -12 15 -11 17 9 17 18 0 22 -5 20 -23 -5 -32 -34 -48 -55 -30 -28 23 -21 82 14 117 40 40 66 39 82 -3z m233 20 c0 -16 -8 -27 -44 -59 l-28 -24 7 24 c9 37 34 73 51 73 8 0 14 -6 14 -14z m205 4 c3 -5 -2 -15 -11 -23 -13 -11 -16 -25 -11 -63 9 -63 -12 -75 -51 -29 -33 39 -34 75 -4 103 24 22 66 29 77 12z m209 -7 c8 -21 -16 -78 -43 -102 -12 -10 -39 -22 -59 -25 -36 -6 -38 -4 -38 21 0 16 9 33 23 43 21 15 25 15 35 1 17 -22 32 -20 51 7 22 32 21 43 -4 27 -11 -6 -18 -16 -15 -21 3 -4 0 -8 -6 -8 -17 0 -13 33 6 54 22 24 42 25 50 3z m49 -83 c0 -9 -6 -16 -12 -16 -7 0 -9 -7 -6 -16 4 -9 0 -15 -9 -15 -19 0 -20 32 -3 50 17 17 30 16 30 -3z"/>
		<path d="M3119 2094 c-28 -24 -32 -34 -32 -79 0 -43 4 -54 26 -68 30 -20 79 -13 79 11 0 12 -6 13 -28 5 -37 -14 -50 0 -48 55 2 60 17 72 45 36 27 -34 41 -29 16 6 -23 33 -21 40 15 40 17 0 32 5 32 11 0 22 -72 10 -105 -17z"/>
		<path d="M3242 2082 c-10 -11 -22 -33 -29 -50 -10 -26 -8 -35 8 -57 11 -15 28 -29 38 -31 25 -5 21 13 -7 25 -42 18 -28 41 32 52 30 5 55 13 55 18 0 12 -50 10 -75 -3 -34 -18 -38 0 -6 28 16 13 29 27 29 30 0 13 -30 5 -45 -12z"/>
		<path d="M3351 2059 c20 -35 22 -45 11 -68 -6 -15 -17 -27 -23 -27 -15 0 -13 28 3 35 8 3 8 5 1 6 -7 0 -18 -7 -25 -15 -10 -13 -10 -19 0 -32 20 -24 48 -19 61 11 18 39 15 66 -9 101 -32 44 -46 37 -19 -11z"/>
		<path d="M4253 1915 c-55 -8 -105 -26 -105 -37 0 -7 7 -8 18 -4 10 5 55 11 100 13 78 6 99 15 64 28 -17 7 -32 7 -77 0z"/>
		<path d="M478 1754 c-4 -6 -2 -11 4 -11 6 0 13 5 17 11 3 5 2 10 -4 10 -6 0 -14 -5 -17 -10z"/>
		<path d="M259 1736 c-14 -14 -6 -24 27 -33 l34 -9 -2 -170 c-2 -131 1 -168 11 -163 9 6 9 4 0 -7 -14 -18 -24 -94 -12 -94 18 0 33 52 46 157 13 104 13 113 -7 150 -24 48 -26 77 -4 85 23 9 19 28 -13 62 -26 27 -64 38 -80 22z"/>
		<path d="M415 1733 c-4 -6 -2 -11 4 -11 6 0 12 5 12 11 0 5 -3 10 -5 10 -3 0 -8 -5 -11 -10z"/>
		<path d="M1389 1652 c-8 -16 -13 -39 -13 -51 0 -22 34 -68 51 -68 18 0 32 -67 39 -190 4 -69 11 -125 16 -125 5 0 9 7 9 16 0 8 4 16 9 16 36 0 46 211 12 255 -15 19 -68 59 -114 87 -2 1 2 12 9 24 10 19 18 21 53 15 47 -7 55 7 18 33 -37 25 -74 20 -89 -12z"/>
		<path d="M393 1627 c-3 -6 -4 -14 -2 -16 3 -3 8 2 12 11 7 18 1 22 -10 5z"/>
		<path d="M2269 1618 c-6 -10 -12 -37 -13 -59 -2 -32 2 -43 26 -62 27 -22 29 -27 29 -117 0 -52 -1 -102 -3 -110 -3 -15 7 -16 78 -8 25 3 23 19 -2 19 -19 0 -21 5 -15 54 3 30 3 75 -1 100 -6 38 -14 51 -47 73 -33 21 -40 32 -38 57 3 38 14 51 23 27 7 -19 31 -23 41 -6 9 15 -25 52 -49 52 -10 0 -23 -9 -29 -20z"/>
		<path d="M2810 1630 c-9 -15 -5 -322 4 -339 7 -13 24 -16 81 -13 91 4 115 10 122 29 9 22 0 39 -30 61 -45 33 -81 34 -119 2 l-33 -28 0 53 c0 49 7 88 31 187 5 21 4 38 -3 45 -13 13 -45 15 -53 3z m140 -286 c22 -13 13 -19 -44 -26 -52 -7 -67 5 -32 25 23 14 56 14 76 1z"/>
		<path d="M2667 1618 c0 -6 5 -13 11 -17 5 -3 10 1 10 10 0 9 -5 17 -10 17 -6 0 -11 -5 -11 -10z"/>
		<path d="M845 1571 c2 -24 11 -65 21 -90 10 -26 21 -86 25 -132 6 -75 9 -84 29 -87 25 -3 40 26 51 99 8 52 -8 90 -56 133 -26 23 -33 37 -33 70 0 23 6 43 13 45 7 3 -2 5 -20 5 -32 0 -33 -2 -30 -43z m100 -242 c0 -3 -5 -8 -10 -11 -6 -4 -11 -2 -11 4 0 6 5 12 11 12 5 0 10 -3 10 -5z"/>
		<path d="M1775 1576 c0 -5 4 -11 10 -13 6 -2 -2 -17 -17 -34 -63 -68 -85 -243 -33 -270 21 -12 137 -6 208 9 47 11 61 40 72 152 5 48 13 97 17 110 9 29 -18 44 -42 24 -19 -15 -21 -52 -4 -52 18 0 0 -95 -26 -134 -21 -32 -42 -45 -99 -61 -19 -5 -23 -2 -23 15 0 23 39 96 52 96 16 0 20 47 5 62 -12 12 -17 12 -31 1 -8 -7 -13 -17 -10 -22 3 -5 -8 -40 -24 -78 -32 -75 -54 -86 -82 -43 -20 30 -13 65 25 134 16 30 39 55 57 62 32 13 35 20 16 39 -15 15 -71 17 -71 3z"/>
		<path d="M3923 1548 c-21 -21 -21 -26 0 -56 15 -21 15 -26 2 -39 -13 -13 -20 -8 -50 33 -20 26 -42 47 -48 47 -30 0 -78 -14 -78 -22 0 -14 35 -12 50 3 9 9 14 7 19 -8 4 -11 10 -23 14 -25 3 -3 17 -22 31 -41 20 -29 22 -37 10 -45 -8 -5 -18 -9 -22 -9 -13 0 -9 -40 5 -45 12 -5 1 -11 -42 -24 -7 -2 -13 -10 -13 -18 0 -10 16 -15 53 -16 63 -1 75 15 43 57 -23 28 -21 46 3 46 20 0 59 -46 59 -72 0 -13 6 -22 16 -22 9 0 13 -5 10 -11 -4 -6 -2 -10 3 -10 6 0 13 6 16 14 10 25 -5 63 -37 91 -34 32 -37 46 -10 65 25 18 37 89 18 109 -19 19 -32 18 -52 -2z"/>
		<path d="M2489 1497 c-25 -40 -23 -81 3 -60 11 9 13 -5 14 -68 0 -85 14 -114 39 -88 31 33 20 157 -16 182 -18 13 -18 15 7 28 30 16 29 35 -2 40 -16 2 -29 -8 -45 -34z"/>
		<path d="M3492 1506 c-24 -24 -16 -41 21 -45 17 -2 37 -8 44 -14 16 -14 45 -3 45 16 0 40 -81 72 -110 43z"/>
		<path d="M3077 1501 c-9 -7 -12 -14 -6 -16 6 -3 29 -15 52 -28 41 -24 42 -24 39 -81 -3 -43 -9 -61 -26 -75 -22 -19 -22 -19 -2 -19 40 -1 49 14 49 82 0 35 4 64 10 64 5 0 10 9 10 21 0 14 -15 27 -44 42 -50 24 -60 25 -82 10z"/>
		<path d="M3654 1503 c0 -6 16 -24 36 -41 32 -29 35 -36 32 -81 -2 -27 -8 -55 -14 -61 -19 -19 -14 -39 9 -39 18 0 21 7 22 55 0 30 2 73 3 95 3 32 -2 44 -23 60 -27 22 -65 28 -65 12z"/>
		<path d="M1194 1484 c-28 -28 23 -87 75 -87 18 0 33 -5 33 -11 0 -18 15 -12 30 12 13 22 12 26 -23 58 -37 34 -96 48 -115 28z"/>
		<path d="M3255 1480 c0 -6 9 -14 20 -17 15 -4 22 -19 27 -54 3 -27 9 -64 12 -82 5 -30 2 -34 -43 -56 -27 -13 -47 -25 -45 -27 1 -2 30 2 64 8 l60 10 46 96 c44 94 50 137 19 131 -19 -4 -26 -17 -51 -85 -9 -27 -21 -49 -26 -49 -9 0 -11 18 -14 105 -1 21 -7 26 -35 29 -21 2 -34 -1 -34 -9z"/>
		<path d="M2096 1461 c-16 -18 -16 -21 1 -43 24 -29 94 -37 107 -12 12 24 3 41 -31 59 -39 20 -56 20 -77 -4z"/>
		<path d="M2893 1470 c-4 -6 -4 -20 0 -32 8 -24 45 -28 54 -5 11 31 -38 64 -54 37z"/>
		<path d="M3633 1414 c0 -36 -5 -71 -11 -77 -11 -11 -3 -45 11 -45 13 0 20 29 22 89 2 79 0 100 -11 100 -6 0 -11 -30 -11 -67z"/>
		<path d="M445 1458 c-4 -6 1 -16 10 -21 14 -8 15 -14 6 -32 -6 -12 -9 -34 -6 -50 8 -39 -2 -74 -21 -74 -21 0 -13 -36 9 -40 29 -6 52 44 58 125 5 65 3 78 -14 90 -23 17 -32 18 -42 2z"/>
		<path d="M662 1461 c0 -6 14 -27 31 -47 25 -28 40 -36 68 -36 31 0 37 3 37 22 -1 13 -12 31 -26 41 -30 22 -110 37 -110 20z"/>
		<path d="M578 1404 c-6 -126 -5 -147 5 -151 30 -10 51 167 24 194 -22 21 -26 14 -29 -43z"/>
		<path d="M3066 1423 c0 -19 -5 -48 -10 -63 -12 -29 3 -85 19 -74 14 8 26 104 17 142 -9 43 -26 40 -26 -5z"/>
		<path d="M515 1350 c0 -18 41 -69 41 -51 1 19 -23 66 -33 66 -5 0 -8 -7 -8 -15z"/>
		<path d="M851 1324 c0 -6 4 -13 10 -17 6 -3 11 -2 11 4 0 6 -5 14 -11 17 -6 4 -10 2 -10 -4z"/>
		<path d="M2572 1279 c-12 -23 -12 -23 7 -6 10 10 16 21 12 24 -3 4 -12 -4 -19 -18z"/>
		<path d="M3528 1271 c0 -6 5 -11 11 -11 5 0 10 5 10 11 0 5 -5 10 -10 10 -6 0 -11 -5 -11 -10z"/>
		<path d="M572 1229 c4 -6 14 -11 22 -11 8 0 15 5 15 11 0 5 -10 10 -22 10 -12 0 -18 -5 -15 -10z"/>
		<path d="M2426 11015 c0 -6 4 -11 10 -11 6 0 11 5 11 11 0 5 -5 10 -11 10 -6 0 -10 -5 -10 -10z"/>
		<path d="M2322 10921 c-49 -32 -101 -66 -117 -75 -107 -61 -191 -178 -193 -268 -1 -52 29 -94 63 -86 17 4 16 6 -8 18 -16 7 -31 23 -34 35 -8 31 13 110 41 155 27 43 114 125 133 126 8 0 44 24 82 52 38 29 73 52 80 52 13 1 52 40 45 47 -2 2 -44 -23 -92 -56z"/>
		<path d="M2538 10964 c-22 -24 -23 -33 -4 -33 22 0 44 30 32 42 -7 7 -17 4 -28 -9z"/>
		<path d="M2441 10910 c-23 -11 -65 -31 -94 -44 -67 -30 -128 -77 -147 -114 -8 -16 -36 -53 -61 -83 -37 -42 -46 -62 -48 -96 -2 -46 13 -83 32 -83 7 0 7 5 -2 15 -23 28 -3 107 43 165 22 29 41 57 41 62 0 22 71 86 122 110 32 14 62 26 68 26 13 0 115 51 115 57 0 10 -27 4 -69 -15z"/>
		<path d="M2428 10797 c-19 -2 -34 -9 -34 -15 0 -7 18 -8 50 -4 38 5 68 1 129 -20 43 -14 100 -26 127 -26 62 1 129 23 133 45 4 21 4 21 -45 -4 -48 -24 -114 -27 -171 -7 -110 40 -113 40 -189 31z"/>
		<path d="M4022 10754 c-15 -11 -60 -33 -100 -49 -126 -51 -207 -135 -191 -198 8 -29 54 -59 91 -59 28 0 38 -28 18 -51 -13 -14 -15 -33 -10 -84 5 -62 4 -68 -24 -97 -33 -34 -77 -41 -125 -19 -36 17 -44 5 -17 -22 36 -36 78 -39 125 -8 62 41 91 116 63 167 -8 17 -7 31 7 62 23 50 12 67 -48 75 -37 5 -71 29 -73 51 0 3 14 27 30 53 26 40 45 54 124 92 129 61 165 82 170 95 5 16 -11 13 -40 -8z"/>
		<path d="M2280 10738 c-162 -139 -185 -223 -86 -315 30 -28 69 -53 96 -61 54 -16 180 -18 294 -5 75 8 85 7 137 -17 31 -15 70 -39 88 -53 30 -25 31 -30 31 -104 -1 -80 -26 -146 -77 -208 l-22 -26 19 52 c10 29 17 67 17 84 -3 50 -44 129 -90 174 -43 41 -145 88 -176 81 -10 -2 5 -11 32 -21 123 -42 208 -148 208 -258 0 -102 -46 -162 -158 -208 -108 -43 -118 -65 -11 -24 64 24 129 66 171 111 38 41 98 132 111 168 10 29 3 115 -13 156 -13 32 -60 79 -80 79 -9 0 -22 6 -29 13 -18 23 -69 26 -301 18 -111 -4 -131 -2 -173 17 -59 28 -100 71 -113 120 -10 35 -7 43 37 109 26 39 63 81 83 93 19 13 35 27 35 31 0 11 -13 9 -30 -6z"/>
		<path d="M2329 10626 c-13 -43 -10 -61 14 -84 29 -27 67 -27 122 0 31 15 63 20 115 20 80 -1 157 5 215 17 37 7 41 5 58 -25 13 -24 34 -39 69 -52 28 -10 72 -38 99 -63 47 -45 47 -47 43 -103 -4 -47 -11 -64 -40 -93 -37 -38 -37 -65 0 -32 41 37 66 90 65 135 -2 45 -12 64 -78 151 -27 36 -39 61 -35 73 11 29 -4 56 -32 56 -15 0 -36 5 -48 12 -28 15 -126 -4 -206 -39 -47 -21 -69 -25 -120 -20 -48 4 -71 0 -103 -16 -46 -24 -97 -27 -113 -8 -6 8 -12 32 -14 55 -3 37 -5 39 -11 16z m599 -16 c30 -7 34 -11 28 -33 -3 -15 1 -35 11 -51 20 -31 18 -31 -36 -10 -22 9 -51 31 -64 49 -22 29 -28 31 -67 26 -24 -4 -57 -9 -73 -13 -48 -12 -32 12 21 30 49 16 107 17 180 2z"/>
		<path d="M4011 10547 c0 -9 5 -14 11 -10 5 3 10 11 10 16 0 6 -5 10 -10 10 -6 0 -11 -7 -11 -16z"/>
		<path d="M3077 10469 c0 -6 4 -11 10 -11 6 0 11 5 11 11 0 5 -5 10 -11 10 -6 0 -10 -5 -10 -10z"/>
		<path d="M2132 10380 c0 -11 20 -27 58 -45 l59 -27 -5 -43 c-5 -32 -15 -51 -41 -72 -18 -16 -42 -29 -51 -29 -26 0 -190 -87 -269 -143 -39 -28 -102 -80 -140 -114 -37 -35 -90 -82 -115 -105 -55 -48 -168 -185 -193 -234 -30 -57 -19 -63 13 -6 32 59 126 169 227 266 171 165 268 230 449 305 105 43 130 67 140 129 8 45 -12 74 -57 86 -16 3 -39 16 -52 29 -21 19 -23 20 -23 3z"/>
		<path d="M4757 10389 c0 -7 12 -45 26 -84 15 -40 39 -106 54 -146 36 -97 88 -272 98 -331 11 -67 24 -317 23 -473 0 -128 -24 -314 -59 -462 -19 -79 -21 -102 -7 -88 13 13 49 148 63 236 32 194 38 599 11 766 -11 63 -42 175 -64 226 -5 11 -28 75 -51 142 -43 122 -93 235 -94 214z"/>
		<path d="M2348 10277 c8 -47 -15 -91 -87 -169 -65 -70 -98 -129 -98 -173 0 -38 24 -98 47 -117 9 -7 16 -23 16 -33 0 -12 15 -29 34 -41 38 -23 57 -16 21 8 -33 22 -29 48 9 63 21 7 30 16 25 24 -5 8 -3 11 7 8 8 -3 27 1 42 8 36 19 195 153 216 183 25 36 6 37 -24 1 -16 -18 -45 -42 -66 -53 -49 -25 -184 -70 -236 -79 -22 -4 -47 -9 -55 -12 -10 -5 -15 2 -15 20 0 50 25 98 96 182 40 47 72 90 72 97 0 6 8 16 18 22 13 7 15 13 7 19 -6 4 -11 21 -10 38 0 17 -5 33 -12 35 -9 3 -11 -6 -7 -31z m120 -328 c0 -3 -26 -23 -58 -44 -45 -29 -61 -35 -72 -26 -8 7 -18 8 -22 4 -4 -4 -4 0 -1 9 4 9 38 26 77 38 39 12 71 22 73 23 1 0 3 -1 3 -4z"/>
		<path d="M4306 10203 c-5 -13 -22 -66 -38 -118 -25 -86 -71 -212 -105 -294 -7 -17 -16 -48 -21 -68 -10 -48 -102 -187 -179 -273 -34 -37 -95 -104 -136 -148 -40 -45 -89 -101 -107 -125 -27 -34 -34 -39 -34 -23 0 34 -30 49 -90 45 -11 0 -66 -31 -121 -67 l-99 -65 -100 0 c-86 0 -100 -3 -103 -19 -3 -14 4 -18 31 -18 34 1 34 1 14 17 -22 18 -21 18 93 -2 41 -7 83 12 194 86 81 54 109 64 145 48 33 -16 32 -25 -8 -70 l-32 -37 37 0 c21 0 40 5 44 11 4 7 -3 8 -20 4 -21 -5 -3 18 74 97 185 189 346 378 391 459 36 63 161 436 185 550 8 39 -1 45 -15 10z"/>
		<path d="M2073 9991 c-39 -40 -68 -57 -214 -124 -78 -36 -326 -264 -326 -300 0 -8 44 32 97 88 54 56 114 114 134 127 20 14 54 36 74 50 21 14 74 40 119 59 80 34 164 102 164 133 0 18 2 19 -48 -33z"/>
		<path d="M5009 9807 c0 -6 5 -10 11 -10 6 0 8 4 4 10 -3 6 -8 11 -11 11 -2 0 -4 -5 -4 -11z"/>
		<path d="M1964 9783 c-88 -20 -389 -243 -389 -288 0 -8 26 11 58 43 32 33 71 67 87 77 16 10 47 33 70 51 79 62 237 124 253 98 7 -11 99 -13 99 -2 0 11 -78 35 -107 33 -14 0 -46 -6 -71 -12z"/>
		<path d="M2420 9766 c-118 -48 -152 -57 -215 -59 -37 0 -87 -6 -110 -13 -90 -27 -225 -166 -226 -232 0 -27 65 -122 94 -138 57 -30 190 -60 190 -42 0 6 -8 11 -17 11 -9 0 -50 9 -89 21 -62 19 -79 30 -115 73 -62 74 -54 114 40 201 77 73 123 92 241 103 101 10 214 42 244 70 13 13 13 14 0 14 -9 -1 -25 -5 -37 -9z"/>
		<path d="M1654 9503 c-4 -6 2 -11 13 -11 11 0 29 -9 39 -21 17 -18 18 -27 8 -60 -11 -36 -11 -38 3 -19 24 31 20 85 -8 105 -27 18 -46 21 -55 6z"/>
		<path d="M1784 9512 c0 -2 -2 -18 -4 -35 -10 -75 -44 -111 -177 -189 -67 -38 -89 -58 -108 -92 -8 -16 -14 -30 -14 -32 0 -2 22 18 50 44 28 27 78 65 111 84 87 50 138 102 153 157 9 32 9 49 1 57 -6 6 -11 9 -12 6z"/>
		<path d="M1587 9411 c-45 -26 -113 -106 -100 -118 4 -3 9 1 12 9 8 24 68 75 95 81 56 15 35 -26 -31 -60 -22 -11 -40 -25 -40 -30 0 -11 94 30 121 53 26 21 39 62 24 79 -16 19 -27 17 -81 -14z"/>
		<path d="M3591 9404 c-79 -41 -204 -112 -215 -122 -21 -21 6 -22 32 -1 16 12 34 22 41 22 7 0 41 18 75 40 35 23 76 45 93 51 17 6 32 16 35 23 5 17 -7 14 -61 -13z"/>
		<path d="M2168 9282 c-4 -6 10 -18 30 -26 58 -24 119 -103 143 -184 38 -126 29 -157 -67 -221 -38 -25 -69 -49 -69 -54 0 -18 10 -12 100 57 70 53 80 65 76 88 -3 13 -1 22 4 19 5 -3 9 -2 9 1 0 20 -58 180 -70 195 -8 9 -14 20 -14 25 0 21 -58 82 -90 96 -42 17 -43 17 -52 4z"/>
		<path d="M2691 9251 c-6 -21 -17 -66 -25 -100 -21 -97 -105 -266 -150 -299 -11 -9 -38 -29 -60 -44 -22 -15 -37 -30 -34 -34 10 -10 48 15 106 70 62 61 133 194 150 283 6 30 16 72 22 93 6 21 9 45 7 53 -3 8 -10 -2 -16 -22z"/>
		<path d="M3357 9200 c-32 -33 -41 -68 -12 -43 15 12 51 73 43 73 -1 0 -16 -14 -31 -30z"/>
		<path d="M2011 9198 c11 -12 57 -41 104 -64 47 -23 96 -53 110 -65 36 -34 66 -110 59 -148 -5 -25 -4 -29 4 -17 16 22 14 80 -3 113 -26 49 -82 94 -166 134 -45 21 -86 45 -93 53 -7 8 -17 15 -23 15 -6 0 -3 -10 8 -21z"/>
		<path d="M1848 9202 c0 -31 132 -137 160 -127 6 2 -18 21 -53 44 -35 22 -69 51 -76 65 -12 22 -31 34 -31 18z"/>
		<path d="M2952 9117 c-47 -44 -95 -85 -105 -91 -42 -25 -158 -116 -154 -120 3 -3 44 20 91 52 88 57 271 222 260 234 -3 3 -45 -30 -92 -75z"/>
		<path d="M1722 9165 c0 -17 53 -124 65 -131 17 -10 23 5 8 22 -7 9 -24 40 -37 69 -24 51 -36 64 -36 40z"/>
		<path d="M3293 9128 c-10 -11 -8 -45 4 -45 6 0 11 11 11 26 0 27 -3 31 -15 19z"/>
		<path d="M1617 9074 c0 -37 36 -117 53 -117 5 0 1 17 -11 39 -12 21 -21 48 -21 60 0 12 -5 28 -10 37 -8 12 -11 7 -11 -19z"/>
		<path d="M2497 9072 c-1 -15 0 -37 1 -50 3 -39 -56 -142 -103 -176 -38 -28 -53 -47 -37 -47 20 0 104 85 125 125 43 88 51 123 32 150 l-16 24 -2 -26z"/>
		<path d="M1543 9056 c-3 -11 -2 -48 1 -81 4 -46 12 -67 31 -84 l25 -24 -20 32 c-12 19 -22 61 -26 105 -3 40 -8 64 -11 52z"/>
		<path d="M2190 9026 c48 -48 52 -103 12 -135 -18 -14 -20 -18 -7 -18 33 -1 55 38 49 84 -6 44 -50 105 -77 105 -7 0 4 -17 23 -36z"/>
		<path d="M3237 9012 c-8 -3 -13 -12 -13 -21 0 -10 5 -13 16 -9 13 5 15 1 10 -18 -5 -18 -4 -20 4 -7 22 31 11 65 -17 55z"/>
		<path d="M2870 8906 c-92 -143 -139 -259 -124 -308 12 -38 24 -19 25 37 0 60 11 91 69 190 60 104 70 123 66 127 -2 2 -18 -19 -36 -46z"/>
		<path d="M2932 8922 l-12 -34 20 25 c22 26 27 44 13 44 -5 0 -14 -16 -21 -35z"/>
		<path d="M2932 8860 c-15 -15 -18 -65 -4 -56 7 4 24 69 18 69 -1 0 -7 -6 -14 -13z"/>
		<path d="M2893 8823 c-14 -66 -15 -78 -6 -101 5 -12 10 -18 11 -12 1 6 3 40 6 76 6 68 0 87 -11 37z"/>
		<path d="M2727 8802 c-39 -42 -81 -131 -80 -173 0 -32 2 -29 24 28 26 70 63 134 72 126 3 -3 8 6 10 21 3 14 5 27 4 27 -1 0 -14 -13 -30 -29z"/>
		<path d="M2584 8733 c-24 -49 -28 -76 -13 -85 5 -4 12 13 16 36 4 24 15 54 24 68 9 15 12 26 6 26 -6 0 -21 -20 -33 -45z"/>
		<path d="M5744 3501 c1 -12 3 -15 7 -6 3 7 2 16 -1 20 -4 3 -6 -3 -6 -14z"/>
		<path d="M145 860 c-1 -66 -3 -179 -4 -251 -1 -72 -3 -209 -6 -303 l-4 -173 965 -1 c530 0 966 3 969 7 3 5 13 3 24 -2 10 -6 21 -8 24 -5 8 8 531 14 1893 21 1324 8 1650 8 1662 0 5 -3 28 4 50 15 36 19 38 21 15 22 -15 1 -31 1 -36 0 -5 -1 -104 -2 -220 -1 -116 1 -230 1 -253 0 -23 0 -292 -3 -597 -6 -510 -4 -556 -3 -572 13 -17 17 -18 17 -21 0 -3 -15 -23 -18 -168 -18 -693 -5 -1443 -10 -1531 -11 -59 -1 -112 1 -118 5 -6 4 -13 3 -16 -2 -4 -7 -1644 -6 -1944 1 l-94 2 3 52 c1 29 8 56 15 61 10 6 10 10 -1 17 -11 7 -14 78 -17 336 -1 180 -6 331 -9 334 -4 4 -8 -47 -9 -113z"/>
		<path d="M4817 969 c-9 -3 -23 -18 -31 -35 -13 -29 -40 -43 -40 -20 0 5 -4 10 -10 10 -13 0 -1 -43 18 -66 9 -10 13 -21 10 -25 -4 -4 -2 -13 4 -20 12 -15 18 -47 21 -125 1 -29 5 -57 8 -63 3 -6 6 -24 6 -42 1 -17 5 -37 9 -44 5 -7 10 -45 13 -84 5 -71 12 -117 22 -153 4 -15 17 -18 61 -18 65 0 76 9 85 74 3 25 11 68 16 94 5 25 11 61 14 78 6 46 19 93 28 105 4 6 11 29 14 51 12 64 59 162 87 180 28 19 23 41 -7 32 -15 -5 -24 2 -36 24 -11 22 -26 33 -53 38 -21 4 -42 4 -47 1 -5 -3 -22 0 -36 7 -21 9 -34 9 -53 0 -15 -7 -38 -8 -55 -3 -16 4 -38 6 -48 4z m203 -57 c9 -18 6 -19 -32 -19 -32 0 -45 5 -54 22 -9 17 -9 24 1 30 19 12 72 -9 85 -33z m-112 17 c28 -29 19 -36 -46 -36 -50 0 -63 3 -63 16 0 32 81 47 109 20z m168 10 c28 -11 20 -46 -9 -46 -22 0 -48 24 -48 46 0 8 36 8 57 0z m-13 -194 c-26 -22 -194 -33 -241 -16 -38 15 1 22 118 22 72 0 128 -3 123 -6z m-14 -36 c-2 -2 -36 -9 -75 -16 -88 -14 -154 -10 -154 8 0 11 14 13 60 8 33 -3 84 -2 113 3 50 8 66 7 56 -3z"/>
		<path d="M2415 929 c8 -9 16 -14 18 -11 8 7 -7 27 -20 27 -7 0 -6 -6 2 -16z"/>
		<path d="M1252 907 c-19 -10 -34 -22 -34 -28 0 -5 7 -4 16 3 9 8 19 11 22 8 3 -3 -9 -12 -27 -20 -21 -9 -36 -26 -44 -50 -16 -48 -6 -170 16 -202 9 -13 17 -33 17 -43 0 -17 -12 -18 -127 -18 -117 0 -127 1 -121 18 3 10 15 46 28 80 39 111 23 208 -38 223 -59 15 -86 -19 -47 -59 18 -17 26 -19 43 -10 18 9 21 7 21 -16 0 -29 -47 -159 -65 -181 -6 -7 -20 -49 -30 -91 -15 -66 -16 -84 -5 -117 29 -83 94 -122 203 -123 120 -1 206 77 217 198 4 39 -2 62 -37 133 -52 105 -57 172 -16 213 33 33 49 32 45 -3 -2 -25 1 -29 24 -29 36 0 41 40 9 74 -25 27 -21 48 6 26 10 -9 16 -10 16 -2 0 11 -33 33 -49 33 -5 0 -24 -8 -43 -17z m40 -14 c0 -6 -3 -11 -5 -11 -3 0 -8 5 -11 11 -4 5 -2 10 4 10 6 0 12 -5 12 -10z m-65 -376 c-4 -16 -20 -19 -143 -21 -118 -3 -139 -1 -139 12 0 17 35 21 208 25 68 2 77 0 74 -16z m2 -56 c0 -14 -22 -18 -139 -24 -124 -7 -141 -6 -152 10 -7 10 -12 21 -9 24 2 4 70 7 152 7 128 0 148 -2 148 -17z m31 -4 c0 -15 -4 -26 -9 -26 -5 0 -7 11 -4 26 3 14 7 26 9 26 2 0 4 -12 4 -26z m-42 -44 c0 -3 -5 -14 -11 -25 -16 -31 -64 -51 -134 -56 -57 -4 -65 -2 -101 27 -21 18 -35 36 -30 40 4 5 51 11 102 15 52 4 95 8 97 9 5 5 77 -5 77 -10z"/>
		<path d="M3754 899 c-29 -14 -74 -48 -101 -76 -50 -54 -111 -174 -98 -195 6 -8 11 -6 16 8 6 16 8 12 9 -15 0 -28 -3 -34 -17 -29 -14 6 -16 0 -12 -43 3 -28 13 -68 24 -90 34 -72 137 -157 205 -169 l37 -7 -43 40 c-53 48 -68 72 -98 158 -37 110 -39 149 -8 216 33 72 94 154 129 172 35 19 31 1 -6 -27 -17 -13 -37 -33 -43 -45 -10 -19 -5 -17 28 9 58 46 90 52 120 22 21 -22 23 -22 16 -4 -17 44 -19 58 -7 58 6 0 12 -6 12 -13 0 -7 17 -28 39 -46 l39 -34 -28 -26 c-27 -24 -70 -142 -104 -285 -7 -29 -17 -58 -22 -65 -14 -18 2 -87 23 -98 14 -8 29 -3 58 17 l40 27 -17 -27 c-21 -31 -22 -38 -7 -38 5 0 18 19 27 42 18 45 38 51 44 13 7 -45 72 -67 102 -34 24 27 37 27 37 0 0 -12 4 -21 10 -21 6 0 11 5 11 11 0 7 6 7 19 0 58 -31 98 28 98 143 -1 113 -22 197 -71 286 -30 54 -27 99 8 118 20 10 20 12 4 28 -17 17 -19 16 -33 -3 -8 -11 -15 -26 -15 -34 0 -20 -10 -16 -33 13 -35 43 -57 51 -93 30 -17 -11 -35 -31 -40 -45 l-8 -26 -26 36 c-14 20 -26 40 -26 44 0 12 -6 12 -50 4 -30 -6 -48 -3 -66 9 -30 20 -21 21 -83 -9z m430 -151 c4 -16 14 -43 22 -60 27 -59 46 -121 40 -136 -3 -8 0 -17 6 -21 18 -11 14 -155 -5 -182 -38 -53 -92 -6 -85 73 2 25 -3 75 -10 112 -10 47 -11 81 -4 120 6 29 7 62 4 72 -7 24 4 64 16 57 5 -3 12 -19 16 -35z m-169 -73 c0 -51 -7 -128 -14 -171 -12 -69 -19 -84 -57 -123 -55 -58 -80 -59 -80 -6 0 22 6 60 14 84 10 35 16 42 25 33 10 -9 16 -9 29 1 22 19 20 39 -5 46 -18 4 -21 11 -15 35 16 65 80 193 97 193 4 0 7 -42 6 -92z m116 58 c-7 -11 -86 -11 -92 -1 -3 5 18 9 46 9 28 0 49 -3 46 -8z m-60 -151 c-3 -4 -12 -4 -20 -1 -8 3 -6 6 6 6 11 1 18 -2 14 -5z m-34 -183 c4 -6 2 -10 -4 -10 -6 0 -11 4 -11 10 0 6 2 11 4 11 3 0 8 -5 11 -11z m-351 -10 c0 -6 -6 -11 -12 -11 -6 0 -8 5 -4 11 3 5 8 10 11 10 2 0 5 -5 5 -10z m451 -21 c0 -6 -5 -11 -10 -11 -6 0 -11 5 -11 11 0 5 5 10 11 10 5 0 10 -5 10 -10z m-37 -10 c3 -6 1 -13 -5 -17 -6 -3 -10 -1 -10 6 0 7 -9 10 -22 7 -11 -3 -18 -1 -15 4 8 12 44 12 52 0z"/>
		<path d="M5313 914 c-13 -9 -13 -11 3 -11 10 0 18 5 18 11 0 12 -1 12 -21 0z"/>
		<path d="M1680 905 c0 -5 7 -9 15 -9 9 0 13 4 10 9 -3 5 -10 9 -15 9 -6 0 -10 -4 -10 -9z"/>
		<path d="M3176 904 c-48 -12 -152 -85 -158 -112 -8 -32 2 -46 33 -46 15 0 24 -6 23 -14 -2 -7 6 -12 18 -11 12 1 23 -1 26 -6 9 -12 89 -32 129 -32 71 0 208 68 208 104 0 32 -69 82 -143 105 -74 23 -86 24 -136 12z m-36 -38 c-8 -8 -18 -15 -24 -15 -6 0 -5 6 3 15 7 9 17 16 23 16 6 0 5 -7 -2 -16z m169 -22 c22 -20 26 -77 7 -96 -18 -18 -94 -16 -122 3 -26 19 -30 59 -7 78 13 12 15 9 9 -17 -5 -25 -1 -33 21 -45 15 -8 37 -11 53 -7 21 5 27 13 27 38 0 16 -5 33 -10 37 -12 7 -15 26 -4 26 4 0 16 -8 26 -17z m-211 -8 c0 -2 -8 -7 -17 -11 -9 -3 -13 -1 -10 5 6 10 27 14 27 6z"/>
		<path d="M4461 907 c-20 -6 -33 -32 -24 -47 3 -5 2 -9 -3 -9 -5 0 -9 -9 -10 -19 0 -10 -4 -42 -8 -71 -4 -29 -9 -70 -9 -91 -1 -21 -5 -36 -8 -34 -3 2 -6 -14 -7 -36 -3 -74 -5 -91 -16 -141 -11 -55 -44 -128 -60 -139 -21 -13 -10 -26 21 -26 35 0 83 21 103 46 11 13 16 12 39 -11 28 -28 53 -23 82 18 13 19 16 20 24 6 16 -28 89 -72 101 -60 8 8 6 17 -5 30 -27 31 -41 116 -46 275 -6 231 -13 282 -37 295 -24 13 -112 22 -137 14z m12 -434 c0 -6 -5 -11 -11 -11 -6 0 -8 5 -5 11 4 5 9 10 11 10 3 0 5 -5 5 -10z m160 -53 c4 -11 3 -23 -1 -25 -8 -5 -124 -9 -208 -7 -37 0 -44 4 -43 22 2 22 18 29 19 7 0 -10 2 -10 8 0 4 7 31 14 60 15 165 11 159 11 165 -12z"/>
		<path d="M4597 413 c8 -3 17 -3 20 1 4 3 -3 6 -14 5 -12 0 -14 -3 -6 -6z"/>
		<path d="M5482 900 c-30 -15 -38 -39 -59 -181 -8 -57 -22 -124 -31 -147 -8 -23 -15 -54 -15 -68 -1 -37 -64 -190 -81 -196 -24 -9 -16 -24 12 -25 25 0 80 25 123 56 16 11 22 8 43 -17 29 -37 59 -34 79 7 14 30 14 30 37 9 63 -57 136 -58 84 -1 -19 21 -34 165 -35 325 -1 128 -16 221 -39 238 -23 17 -85 17 -118 0z m121 -436 c27 -2 33 -6 33 -27 0 -25 -3 -25 -112 -32 -61 -4 -120 -10 -130 -13 -13 -3 -18 1 -18 17 0 20 7 22 81 24 l82 2 -68 3 c-76 4 -99 9 -91 21 4 7 140 10 223 5z"/>
		<path d="M5565 441 c-12 -8 -7 -10 19 -10 21 0 32 4 28 10 -8 13 -27 13 -47 0z"/>
		<path d="M5817 890 c-21 -14 -42 -40 -50 -61 -15 -41 -9 -199 9 -231 5 -11 8 -21 6 -20 -3 0 2 -25 11 -56 9 -30 17 -74 19 -97 1 -23 8 -55 14 -71 7 -17 12 -36 12 -44 0 -20 15 -28 37 -20 11 5 15 14 12 29 -3 12 -20 89 -36 170 -17 81 -36 157 -43 170 -18 34 -15 139 6 181 20 40 51 51 88 31 21 -11 22 -18 17 -112 -6 -121 6 -191 36 -216 24 -20 73 -24 103 -8 23 12 44 69 38 100 -3 12 -5 42 -5 67 -1 31 -5 44 -14 41 -9 -3 -14 -29 -15 -72 -2 -95 -1 -92 -24 -104 -14 -7 -28 -7 -47 1 -32 15 -45 81 -31 161 6 29 7 69 3 87 -4 19 -3 32 2 28 5 -3 10 0 10 6 0 6 -6 11 -14 11 -7 0 -18 11 -23 24 -15 34 -74 37 -121 5z"/>
		<path d="M375 896 c-9 -8 1 -24 14 -24 6 0 10 7 10 15 0 16 -12 21 -24 9z"/>
		<path d="M1473 885 c-33 -18 -118 -126 -118 -150 0 -20 89 -53 148 -54 40 0 73 7 117 28 33 15 60 30 60 33 0 14 -47 88 -56 88 -5 0 -6 7 -3 16 3 9 2 13 -4 10 -5 -3 -29 6 -52 20 -50 32 -49 32 -92 9z m89 -53 c7 -10 12 -29 12 -44 -2 -25 -2 -25 -6 -3 -7 35 -49 60 -76 45 -24 -13 -36 -43 -26 -67 8 -23 49 -33 77 -18 17 9 22 9 22 -3 0 -9 -8 -18 -17 -22 -81 -31 -134 57 -71 115 30 28 61 27 85 -3z"/>
		<path d="M2667 883 c-6 -11 -10 -28 -10 -38 0 -9 -8 -32 -17 -50 -14 -30 -14 -32 0 -14 9 12 19 18 23 14 3 -3 -9 -25 -28 -49 -25 -31 -37 -39 -43 -30 -8 13 -10 10 -13 -19 -2 -16 -56 -77 -69 -77 -6 0 -11 -9 -11 -19 -1 -16 -55 -86 -67 -86 -2 0 -7 13 -10 31 -4 17 -19 39 -34 49 -27 17 -29 17 -43 -2 -21 -29 -17 -56 12 -91 15 -17 27 -35 27 -39 0 -4 -17 -13 -37 -20 -33 -12 -131 -108 -131 -128 0 -16 32 -42 59 -49 18 -4 33 1 51 18 14 13 26 30 26 37 0 7 20 25 45 39 l44 27 30 -31 c62 -63 268 -93 387 -57 94 28 173 95 196 165 7 19 13 58 15 87 2 50 1 53 -24 53 -22 0 -26 -5 -24 -26 2 -31 -16 -84 -29 -84 -4 0 -21 15 -37 34 -15 18 -69 76 -119 128 l-90 94 -1 60 c0 33 -6 67 -14 76 -19 23 -50 21 -64 -3z m11 -310 c0 -85 -5 -154 -11 -158 -16 -10 -145 7 -165 21 -16 12 -15 16 13 50 17 20 39 39 50 42 22 7 35 37 21 51 -17 16 -41 0 -93 -63 -27 -32 -47 -51 -45 -42 4 20 208 251 221 251 5 0 9 -69 9 -152z m179 12 c57 -59 104 -110 104 -114 0 -14 -87 -41 -156 -47 l-72 -7 1 138 c0 76 5 138 10 138 6 0 57 -48 113 -108z m-190 -276 c0 -3 -7 -4 -16 -4 -8 0 -15 4 -15 10 0 5 7 7 15 4 9 -4 16 -8 16 -10z"/>
		<path d="M1979 878 c-18 -8 -46 -30 -62 -50 -17 -19 -35 -34 -40 -32 -10 3 -39 -28 -39 -42 -1 -14 94 -52 150 -61 64 -10 142 10 193 49 34 25 47 52 21 43 -7 -3 -29 15 -49 39 -54 65 -110 82 -174 54z m16 -64 c-16 -19 -6 -64 16 -72 25 -10 68 11 68 33 0 11 -9 28 -21 39 -26 23 -20 32 10 16 24 -13 30 -72 9 -93 -19 -18 -87 -16 -104 4 -24 29 -23 64 3 82 27 19 38 14 19 -9z"/>
		<path d="M660 877 c-2 -2 -59 -10 -125 -17 -66 -7 -142 -20 -167 -30 -26 -10 -65 -22 -86 -26 -21 -3 -45 -14 -53 -24 -12 -15 -11 -16 18 -9 17 4 65 11 107 16 42 5 90 12 108 16 18 4 32 3 32 -3 0 -14 -54 -23 -138 -23 -39 0 -74 -4 -77 -9 -8 -14 63 -40 131 -49 49 -6 64 -3 98 16 21 13 42 20 46 16 8 -7 0 -13 -87 -58 -37 -19 -58 -38 -71 -67 -19 -39 -19 -41 5 -109 13 -37 36 -81 51 -97 34 -38 74 -111 66 -119 -4 -4 -21 -7 -38 -7 -19 0 -29 -5 -26 -13 5 -16 164 -19 168 -3 2 6 -9 12 -23 14 -35 5 -50 20 -35 35 12 11 76 -4 106 -27 22 -16 174 -37 185 -26 19 18 -32 55 -85 61 -42 5 -49 10 -53 32 -9 62 -83 158 -158 206 -30 20 -55 42 -55 50 0 16 63 69 112 95 19 9 49 17 68 17 19 0 55 11 82 23 26 13 68 24 92 24 25 0 44 5 44 11 -1 6 -34 28 -73 50 -53 28 -85 39 -118 39 -25 0 -48 -2 -51 -5z m-51 -42 c0 -2 -5 -7 -10 -11 -6 -3 -11 -1 -11 5 0 6 5 11 11 11 5 0 10 -2 10 -5z m-49 -21 c-3 -9 -16 -16 -28 -16 -22 1 -21 2 4 16 32 19 32 19 24 0z m74 -32 c3 -8 1 -15 -4 -15 -6 0 -10 7 -10 15 0 9 1 16 4 16 2 0 6 -7 10 -16z m-114 -368 c20 -15 41 -24 47 -21 6 4 11 2 11 -4 0 -19 -25 -12 -74 21 -26 17 -41 31 -33 31 7 0 29 -12 49 -27z"/>
		<path d="M5203 762 c-41 -18 -89 -67 -89 -90 0 -23 54 -71 90 -80 45 -11 94 5 128 43 41 45 41 57 5 92 -56 51 -82 58 -134 35z m91 -53 c17 -39 -12 -79 -58 -79 -39 0 -59 16 -59 46 0 57 94 84 117 33z"/>
		<path d="M5210 712 c-21 -21 -14 -50 13 -63 32 -14 59 3 59 39 0 34 -46 49 -72 24z"/>
		<path d="M1874 665 c10 -48 11 -49 14 -15 4 38 -3 64 -17 64 -5 0 -4 -22 3 -49z"/>
		<path d="M1636 671 c-3 -8 -37 -14 -98 -16 -71 -3 -100 -8 -120 -23 -37 -28 -40 -75 -7 -105 22 -21 36 -24 107 -25 71 0 84 -3 106 -25 33 -33 33 -82 -2 -111 -40 -35 -97 -51 -187 -51 -88 0 -122 -11 -122 -39 0 -12 3 -14 10 -7 6 5 40 7 81 4 129 -11 215 18 265 90 19 28 21 42 15 88 -9 72 -33 88 -148 96 -102 6 -124 20 -90 54 34 33 117 30 168 -6 36 -25 73 -28 59 -3 -5 7 -1 6 9 -2 14 -11 18 -10 23 4 6 16 -18 45 -37 46 -4 0 -6 8 -5 18 2 20 -21 31 -27 13z"/>
		<path d="M1952 655 c-34 -14 -64 -52 -67 -82 -1 -17 51 -67 82 -79 16 -6 46 -11 66 -11 46 0 95 -25 104 -52 11 -35 -22 -82 -68 -96 -36 -11 -48 -10 -94 10 -65 28 -123 31 -164 9 -71 -39 -100 -49 -130 -45 -33 3 -43 -7 -19 -22 20 -12 123 -10 123 2 0 7 17 20 37 29 35 17 40 17 117 -8 97 -32 149 -34 183 -6 80 66 90 98 48 159 -28 43 -68 64 -132 69 -94 9 -115 22 -99 62 19 49 116 56 188 13 19 -11 43 -19 54 -18 10 1 27 -1 38 -6 10 -4 21 -6 24 -2 8 8 -37 67 -58 76 -35 15 -195 13 -233 -2z"/>
		<path d="M3350 650 c-14 -6 -39 -7 -55 -4 -42 9 -98 -12 -129 -49 -33 -39 -33 -43 -2 -79 22 -25 36 -30 100 -36 85 -7 117 -27 117 -74 0 -19 -12 -40 -34 -61 -31 -30 -39 -32 -81 -27 -138 18 -159 18 -211 -1 -51 -18 -75 -44 -28 -31 107 30 120 31 184 8 93 -34 119 -31 175 22 39 37 48 53 48 82 0 60 -70 115 -146 115 -54 0 -96 18 -96 42 0 29 50 63 93 62 44 0 57 -6 74 -39 17 -32 35 -30 26 3 -7 29 -2 31 29 15 39 -21 45 5 9 36 -37 30 -37 30 -73 16z"/>
		<path d="M753 602 c-9 -8 1 -24 14 -24 6 0 10 7 10 15 0 16 -12 21 -24 9z"/>
		<path d="M5081 580 c-13 -17 -13 -17 4 -4 11 9 30 12 52 8 24 -5 30 -3 19 4 -25 16 -59 12 -75 -8z"/>
		<path d="M2247 567 c-9 -6 -11 -10 -3 -10 6 0 19 -3 27 -6 8 -4 18 1 22 10 7 19 -21 22 -46 6z"/>
		<path d="M3414 568 c5 -14 19 -16 20 -4 1 4 -5 10 -12 12 -6 2 -10 -2 -8 -8z"/>
		<path d="M5882 541 c0 -18 3 -23 5 -13 3 10 3 24 0 31 -3 7 -5 -1 -5 -18z"/>
		<path d="M2195 546 c0 -5 7 -7 15 -4 9 4 16 8 16 10 0 3 -7 5 -16 5 -8 0 -15 -5 -15 -11z"/>
		<path d="M5697 494 c-11 -17 12 -22 26 -6 10 13 10 16 -4 16 -9 0 -19 -4 -22 -10z"/>
		<path d="M1479 486 c7 -3 16 -2 20 1 3 4 -3 6 -14 6 -12 -1 -15 -3 -6 -7z"/>
		<path d="M5198 458 c0 -2 7 -7 16 -11 9 -3 13 -1 10 5 -6 10 -26 14 -26 6z"/>
		<path d="M1712 400 c0 -6 4 -13 10 -17 6 -3 8 1 4 10 -7 18 -14 22 -14 7z"/>
		<path d="M6211 315 c-4 -7 -14 -9 -22 -6 -11 4 -15 -4 -15 -31 0 -20 5 -36 11 -36 5 0 10 7 10 17 0 14 7 11 32 -12 17 -17 31 -26 31 -20 0 6 -12 22 -26 35 -20 19 -24 28 -14 39 6 8 9 17 6 20 -3 3 -9 1 -13 -6z"/>
		<path d="M6076 299 c-11 -27 -8 -68 4 -68 5 0 10 7 10 16 0 23 17 19 36 -7 9 -13 19 -20 23 -16 4 4 0 15 -9 25 -9 10 -18 28 -20 40 -5 26 -36 33 -44 10z"/>
		<path d="M5759 237 c-12 -9 -15 -16 -9 -16 7 0 18 7 25 15 17 20 10 20 -16 1z"/>
		<path d="M1733 205 c0 -9 4 -16 10 -16 5 0 7 7 4 16 -4 8 -8 16 -10 16 -3 0 -4 -8 -4 -16z"/>
		<path d="M1334 199 c0 -6 4 -8 10 -5 6 4 11 9 11 11 0 3 -5 5 -11 5 -6 0 -10 -5 -10 -11z"/>
		<path d="M1559 179 c-3 -6 -1 -11 5 -11 6 0 11 5 11 11 0 5 -2 10 -5 10 -2 0 -7 -5 -11 -10z"/>
	</g>
</svg>
