<?xml version="1.0" encoding="utf-8"?>
<svg xmlns="http://www.w3.org/2000/svg" height="742.781957pt" preserveAspectRatio="xMidYMid meet" version="1.0" viewBox="0 0 558.204837 742.781957" width="558.204837pt">
	<metadata>
Created by Potrace Professional 1.1m
</metadata>
	<g fill="#000000" stroke="none" transform="translate(-19.775371,760.865489) rotate(-360.00) scale(0.095238,-0.095238)">
		<path d="M365 7977 c-16 -6 -29 -18 -29 -26 0 -8 -9 -24 -21 -36 -12 -13 -21 -29 -21 -37 0 -8 -9 -25 -21 -37 -29 -31 -28 -108 3 -173 13 -28 28 -54 34 -58 13 -9 7 -264 -6 -269 -6 -2 -10 -33 -10 -69 0 -35 -4 -69 -9 -75 -5 -5 -15 -45 -22 -88 -7 -44 -17 -98 -22 -121 -5 -23 -12 -78 -15 -121 -4 -43 -9 -109 -13 -147 -9 -113 -6 -358 6 -430 37 -225 48 -271 77 -336 12 -26 26 -60 32 -74 24 -57 45 -100 53 -103 4 -2 8 -12 8 -22 0 -9 9 -24 21 -32 11 -9 21 -24 21 -33 -1 -40 12 -51 54 -51 23 0 51 -6 63 -12 15 -8 24 -8 33 0 6 6 36 12 66 12 76 0 85 5 100 63 17 67 72 126 118 126 15 0 29 4 33 10 3 6 20 11 37 11 16 0 32 4 36 9 3 5 21 11 40 14 18 3 62 14 97 24 119 34 136 38 170 44 19 3 35 10 35 15 0 5 11 9 26 9 14 0 26 5 26 11 0 5 9 10 19 10 10 0 28 7 39 15 12 9 29 16 39 16 10 0 19 5 19 11 0 6 10 11 23 11 14 0 31 9 40 21 8 11 21 21 29 21 7 0 26 11 42 26 15 14 33 26 39 26 6 0 18 9 26 21 8 12 19 21 24 21 5 0 53 21 107 47 53 26 105 48 114 48 9 0 19 4 22 9 3 5 21 12 40 15 19 3 50 9 68 13 34 7 35 6 35 -34 0 -73 31 -87 171 -73 45 4 54 9 67 37 18 36 35 43 35 14 0 -11 13 -27 31 -37 29 -18 32 -18 52 0 23 20 28 35 11 35 -12 0 -63 46 -63 57 0 3 9 6 21 6 12 0 21 -5 21 -11 0 -6 9 -10 21 -10 21 0 26 -21 22 -79 -3 -31 -23 -79 -34 -79 -5 0 -9 -7 -9 -15 0 -8 -5 -16 -11 -18 -6 -3 -14 -24 -17 -49 -5 -37 -2 -49 16 -65 12 -12 33 -21 47 -21 14 0 43 -16 66 -37 47 -43 64 -43 88 0 17 31 63 50 63 27 0 -6 6 -11 14 -11 21 0 59 -49 60 -76 0 -30 22 -95 39 -115 7 -8 16 -43 19 -77 4 -35 12 -72 18 -84 7 -11 15 -42 19 -68 17 -106 22 -132 31 -152 5 -12 11 -43 13 -68 3 -26 14 -83 27 -126 12 -44 22 -98 22 -122 0 -23 6 -48 13 -55 7 -7 14 -31 15 -52 4 -62 16 -118 26 -118 5 0 10 -33 10 -73 0 -46 4 -74 12 -76 18 -6 19 -1154 2 -1175 -7 -8 -15 -50 -18 -93 -5 -75 -14 -138 -37 -273 -24 -139 -34 -194 -41 -204 -12 -21 -26 -106 -30 -195 -3 -50 -9 -99 -14 -111 -13 -26 -20 -120 -27 -330 -3 -90 -11 -196 -18 -237 -27 -159 -11 -752 24 -906 5 -24 10 -56 10 -70 0 -14 5 -28 11 -32 5 -3 10 -21 10 -39 0 -31 8 -64 37 -144 7 -21 18 -56 25 -79 7 -23 17 -52 21 -63 5 -12 14 -34 21 -51 6 -16 12 -38 12 -49 0 -12 3 -21 8 -21 11 0 44 -68 44 -90 0 -8 5 -15 11 -15 5 0 10 -12 10 -26 0 -15 4 -26 8 -26 5 0 19 -23 33 -50 14 -28 29 -57 34 -66 5 -9 12 -23 16 -31 18 -39 88 -84 131 -85 19 0 54 -7 77 -16 54 -19 115 -19 180 1 28 8 61 15 74 15 13 0 24 4 26 9 2 4 25 19 51 31 70 34 107 57 136 87 15 14 40 32 55 39 16 7 32 24 36 39 3 15 10 26 14 27 15 0 75 67 81 91 3 13 10 24 15 24 5 0 10 10 10 23 -1 12 15 41 34 65 19 24 39 55 46 70 39 86 48 111 57 160 16 82 23 249 12 296 -12 59 -50 64 -100 13 -84 -87 -163 -92 -230 -16 -46 51 -72 97 -71 126 0 10 -5 27 -10 38 -11 21 -35 86 -52 139 -7 21 -12 58 -12 82 0 25 -5 53 -10 64 -16 29 -18 670 -2 685 7 8 12 44 12 89 0 48 4 77 11 77 7 0 11 17 9 39 -1 22 6 67 16 100 14 47 15 64 5 83 -12 22 -5 60 23 133 5 13 9 35 9 48 0 13 6 28 12 35 6 6 12 47 13 90 1 43 5 77 9 75 9 -6 18 39 30 149 5 51 13 115 18 141 5 28 5 56 -2 71 -7 17 -6 31 2 45 7 11 13 45 13 76 0 30 4 60 10 65 5 6 12 43 14 84 3 40 11 97 18 126 20 89 24 131 12 131 -16 0 -16 121 0 150 16 28 16 349 0 368 -5 7 -13 78 -16 159 -9 216 -18 314 -29 325 -5 6 -9 39 -9 74 0 35 -5 80 -11 100 -6 20 -15 79 -21 131 -6 52 -15 118 -21 147 -6 29 -14 68 -17 87 -3 19 -10 37 -15 40 -5 3 -9 35 -9 71 0 36 -6 71 -13 78 -16 17 -16 419 0 436 7 6 13 24 13 39 0 32 28 95 42 95 5 0 13 11 16 26 4 14 10 26 15 26 4 0 22 14 40 32 18 17 43 31 54 31 12 0 22 5 22 11 0 5 13 10 30 10 38 0 135 19 164 32 22 10 178 29 310 38 43 3 83 9 88 15 6 5 44 10 84 10 41 0 93 7 116 15 23 8 67 15 97 16 48 0 153 26 218 53 20 8 56 14 166 27 27 3 50 10 50 16 0 5 16 9 36 9 22 0 55 11 79 26 23 15 46 27 51 27 5 0 17 9 28 21 10 11 27 21 37 21 10 0 35 11 56 26 22 14 43 26 49 26 5 0 10 4 10 9 0 5 13 15 29 23 16 8 54 40 84 70 31 31 60 56 66 56 5 0 10 4 10 10 0 6 14 24 32 40 17 17 31 38 31 46 0 9 7 22 16 30 8 7 16 19 16 27 0 8 4 15 10 15 6 0 11 9 11 21 0 11 4 21 10 21 6 0 11 9 11 20 0 11 11 32 26 47 14 14 26 36 26 48 0 11 5 21 11 21 11 0 13 31 3 57 -5 15 -28 17 -175 16 -97 -1 -175 -6 -183 -12 -7 -6 -13 -25 -13 -42 0 -17 -7 -33 -16 -36 -21 -8 -68 12 -102 44 -16 14 -33 26 -40 26 -6 0 -56 44 -110 98 -74 74 -99 106 -99 126 0 15 -4 28 -9 28 -10 0 -33 62 -33 91 0 12 -12 29 -26 39 -28 17 -100 23 -101 7 0 -5 -42 -12 -94 -16 -94 -8 -99 -10 -95 -50 4 -40 -19 -61 -65 -61 -25 0 -73 -5 -108 -11 -34 -6 -127 -16 -204 -22 -78 -5 -189 -15 -247 -20 -203 -20 -260 -23 -271 -11 -7 6 -36 12 -67 12 -30 0 -58 4 -61 10 -4 6 -21 11 -38 11 -17 0 -48 7 -69 15 -21 9 -44 16 -53 16 -8 0 -34 9 -58 21 -24 12 -54 21 -67 21 -13 0 -27 5 -30 11 -4 5 -16 10 -27 10 -12 0 -29 4 -39 10 -10 5 -48 18 -84 29 -36 10 -65 22 -65 27 0 4 -18 8 -40 8 -22 0 -45 4 -50 9 -33 31 -292 32 -367 1 -54 -21 -148 -69 -151 -76 -2 -4 -12 -8 -23 -8 -11 0 -20 -4 -20 -9 0 -5 -9 -13 -19 -16 -10 -4 -28 -13 -39 -20 -71 -45 -116 -74 -121 -80 -3 -3 -19 -13 -35 -22 -36 -18 -177 -20 -183 -1 -2 6 -18 12 -35 12 -17 0 -30 4 -30 10 0 6 -17 11 -37 11 -20 0 -37 4 -37 10 0 6 -10 11 -22 11 -12 0 -37 6 -55 14 -56 24 -171 59 -194 59 -12 0 -25 5 -28 11 -4 5 -21 10 -39 10 -17 0 -44 9 -60 20 -16 11 -41 24 -57 28 -15 4 -31 11 -34 16 -3 5 -29 10 -57 10 -28 0 -54 4 -58 10 -3 6 -25 11 -47 11 -22 0 -44 4 -47 10 -4 6 -19 11 -33 11 -15 0 -36 5 -48 11 -12 7 -51 16 -86 21 -35 4 -90 14 -122 20 -32 7 -78 15 -102 18 -25 3 -45 9 -45 15 0 5 -17 9 -37 9 -20 0 -36 5 -36 11 0 5 -12 10 -26 10 -14 0 -53 7 -86 16 -34 8 -76 16 -95 16 -19 0 -35 4 -35 9 0 5 -41 12 -92 16 -170 12 -218 18 -228 28 -13 12 -55 10 -92 -4z m789 -416 c4 -5 28 -12 54 -15 204 -26 226 -30 247 -50 17 -16 37 -20 101 -20 74 0 82 -2 114 -31 18 -18 40 -32 47 -32 8 0 32 -12 53 -26 22 -15 50 -26 64 -26 25 0 33 14 14 26 -20 12 -10 26 19 26 17 0 39 -9 49 -20 10 -11 24 -18 32 -15 16 6 68 -43 68 -65 0 -9 -14 -15 -39 -17 -33 -3 -40 -8 -41 -28 -1 -21 3 -24 24 -18 21 5 26 3 23 -12 -2 -11 -9 -19 -16 -19 -7 0 -15 -3 -18 -6 -3 -3 -29 -5 -58 -3 -36 1 -56 -3 -66 -14 -27 -33 32 -49 217 -60 24 -1 34 5 45 28 12 24 18 27 30 17 8 -7 12 -21 9 -32 -8 -25 4 -25 22 -1 19 25 53 5 48 -29 -2 -13 5 -29 16 -37 25 -18 38 -9 25 16 -16 29 -14 32 18 32 18 0 34 8 42 21 16 25 66 28 65 4 0 -12 -6 -16 -20 -12 -23 6 -29 -5 -28 -50 1 -32 1 -32 72 -35 54 -2 71 -7 71 -18 0 -9 -9 -15 -21 -15 -22 0 -28 -16 -10 -27 20 -12 10 -26 -21 -26 -60 0 -64 -5 -63 -98 0 -75 2 -88 21 -99 11 -7 21 -20 21 -28 0 -8 5 -17 13 -19 7 -3 -5 -13 -28 -22 -34 -15 -42 -15 -55 -2 -8 8 -14 22 -14 32 -1 9 -5 14 -11 10 -7 -4 -7 -13 0 -27 9 -15 8 -22 -4 -26 -18 -7 -59 25 -59 46 0 23 -146 6 -171 -20 -11 -11 -17 -24 -14 -28 2 -4 -15 -9 -39 -11 -24 -1 -49 -10 -55 -18 -7 -9 -20 -15 -29 -15 -27 0 -43 -40 -28 -69 11 -20 17 -23 41 -15 15 5 65 14 110 19 54 7 89 17 100 28 16 16 15 17 -6 11 -30 -9 -77 21 -77 48 0 17 8 20 57 20 53 0 59 -3 76 -32 17 -30 22 -32 87 -32 82 -1 58 -19 -26 -20 -37 0 -85 -14 -158 -43 -83 -35 -112 -42 -144 -37 -27 4 -38 3 -34 -4 4 -6 12 -8 18 -4 7 4 9 2 4 -5 -4 -7 -17 -12 -28 -12 -11 0 -48 -9 -81 -20 -33 -11 -74 -23 -90 -27 -27 -6 -29 -5 -18 8 7 8 29 18 48 22 35 7 58 31 58 60 -1 10 -5 8 -15 -4 -7 -11 -21 -16 -30 -13 -15 6 -43 -14 -53 -39 -4 -11 -8 -10 -16 2 -9 13 -12 13 -18 -3 -5 -12 -14 -17 -27 -12 -11 3 -19 1 -19 -5 0 -6 -13 -18 -29 -27 l-29 -17 37 5 36 6 -36 -20 c-43 -24 -86 -29 -66 -9 18 18 16 30 -6 30 -10 0 -23 4 -29 10 -6 6 -24 5 -48 -3 -52 -18 -74 -38 -66 -61 5 -16 0 -20 -22 -20 -15 0 -24 5 -21 11 11 17 -30 11 -66 -11 -19 -12 -40 -21 -47 -21 -7 -1 -32 -10 -55 -21 -23 -11 -48 -20 -55 -21 -15 0 -18 -31 -3 -31 6 0 27 9 48 21 33 18 38 19 35 4 -4 -18 -71 -46 -111 -46 -13 0 -24 -5 -24 -11 0 -6 -11 -10 -25 -10 -14 0 -27 -6 -30 -12 -2 -6 -15 -10 -29 -7 l-26 4 29 14 c22 11 26 17 17 28 -17 21 -25 18 -67 -18 -20 -18 -37 -28 -37 -22 0 13 -49 29 -113 38 -39 5 -44 4 -44 -14 0 -22 19 -32 58 -32 20 0 26 -6 26 -28 0 -26 -2 -27 -61 -21 -112 10 -143 16 -152 32 -5 9 -17 17 -28 17 -10 0 -26 8 -36 18 -59 63 -70 76 -70 85 0 6 -9 26 -20 46 -16 28 -21 67 -27 202 -4 93 -7 182 -7 200 4 95 15 190 23 199 6 5 10 23 10 38 0 16 4 32 9 35 22 14 32 182 17 297 -5 38 -3 56 4 56 7 0 12 6 12 14 0 7 12 27 26 44 15 17 26 37 26 44 0 7 5 13 11 13 6 0 11 7 11 16 0 8 5 16 11 16 6 0 24 9 40 20 17 12 51 22 80 23 103 7 418 -1 424 -11z m2143 -74 c31 -31 29 -139 -6 -253 -14 -49 -28 -98 -31 -108 -12 -55 -48 -104 -64 -88 -5 5 23 120 50 202 25 75 27 167 4 221 -20 48 -20 47 5 47 12 0 30 -10 42 -21z m84 -8 c19 -24 21 -37 15 -81 -3 -29 -15 -79 -25 -111 -11 -32 -27 -93 -37 -136 -10 -44 -25 -106 -33 -139 -9 -34 -13 -77 -9 -96 5 -28 3 -37 -11 -42 -24 -10 -34 -1 -30 27 12 89 27 166 40 202 31 88 53 222 52 313 -1 50 3 92 7 92 5 0 19 -13 31 -29z m-287 -26 c20 -18 24 -33 24 -81 0 -105 -34 -116 -46 -14 -4 33 -9 73 -13 89 -6 35 3 37 35 6z m132 -22 c1 -24 0 -63 -4 -86 -11 -61 -47 -211 -54 -223 -4 -6 -7 -29 -8 -51 -3 -58 -9 -78 -25 -78 -8 0 -17 8 -21 17 -7 18 10 172 26 235 18 75 23 146 11 179 -14 43 -8 52 36 52 34 0 35 -2 39 -45z m256 8 c17 -25 17 -30 0 -64 -9 -20 -17 -49 -17 -65 0 -16 -6 -35 -12 -42 -7 -7 -14 -18 -16 -26 -4 -19 -35 -134 -46 -170 -5 -18 -14 -64 -21 -103 -12 -69 -31 -92 -46 -53 -6 15 34 207 57 277 23 69 41 147 48 199 10 84 22 94 53 47z m-459 -30 c18 -45 25 -122 13 -122 -7 0 -12 7 -12 15 0 8 -6 21 -14 29 -16 16 -28 69 -21 89 9 21 24 17 34 -11z m534 -9 c2 -15 -15 -66 -41 -119 -24 -53 -45 -113 -47 -139 -2 -25 -6 -49 -9 -53 -2 -5 -10 -41 -16 -81 -12 -72 -26 -104 -43 -93 -5 3 -4 17 1 31 5 14 15 65 21 113 10 82 45 193 77 243 7 12 15 43 16 68 1 26 5 51 8 56 11 17 30 2 33 -26z m-606 -41 c0 -30 7 -52 26 -74 24 -29 33 -50 21 -50 -3 0 -27 22 -53 49 -59 63 -66 119 -14 119 16 0 20 -9 20 -44z m691 -29 c2 -26 -2 -34 -21 -42 -14 -5 -28 -7 -33 -4 -9 5 -10 91 0 101 14 15 50 -22 54 -55z m-766 -4 c5 -13 26 -44 46 -70 21 -26 35 -50 32 -55 -22 -37 -132 89 -115 133 9 23 27 20 37 -8z m864 -96 c-7 -44 -17 -88 -22 -98 -20 -38 -43 -96 -84 -218 -34 -101 -43 -142 -43 -201 0 -76 -16 -109 -43 -92 -14 8 -7 125 19 314 10 68 89 313 110 336 5 5 9 23 9 38 0 36 20 44 46 19 19 -18 20 -25 8 -98z m838 56 c0 -13 -79 -17 -86 -5 -15 21 -9 36 15 40 22 3 70 -21 71 -35z m-580 26 c31 -8 30 -24 -6 -73 -16 -23 -48 -72 -70 -109 -23 -38 -54 -83 -69 -101 -30 -36 -67 -135 -58 -158 3 -8 -2 -21 -10 -29 -9 -9 -16 -26 -16 -40 0 -13 -7 -36 -15 -50 -17 -31 -22 -142 -5 -132 12 8 34 -45 27 -64 -3 -7 -14 -11 -25 -8 -15 4 -19 13 -16 34 l3 28 -11 -26 c-11 -26 -12 -26 -26 -6 -9 11 -15 16 -15 11 0 -5 -6 -5 -12 2 -12 12 3 82 28 131 8 15 15 37 15 49 0 12 7 37 15 56 9 19 18 52 21 72 4 21 23 65 43 99 20 33 41 77 47 98 18 65 104 222 121 222 6 0 21 -3 34 -6z m970 -31 c16 -34 16 -36 0 -32 -9 3 -31 8 -47 11 -16 3 -36 10 -45 17 -11 10 -14 9 -14 -5 0 -11 18 -26 48 -39 40 -18 53 -19 78 -9 24 10 37 9 79 -10 63 -27 52 -40 -38 -44 -62 -3 -72 0 -108 27 -36 28 -41 29 -56 14 -15 -15 -21 -13 -63 27 -25 24 -45 47 -45 52 0 4 25 8 57 8 31 0 60 4 63 10 4 6 22 11 41 11 28 0 36 -6 50 -38z m-2812 11 c4 -9 0 -15 -9 -15 -9 0 -15 -5 -15 -10 0 -9 -83 7 -97 19 -5 4 11 5 34 3 26 -3 42 0 42 7 0 18 38 14 45 -4z m656 -19 c2 -15 8 -28 13 -28 5 0 30 -22 57 -50 36 -38 46 -56 42 -73 -4 -18 -1 -24 14 -24 41 0 107 -105 107 -170 0 -30 -24 -18 -37 19 -11 31 -25 54 -91 140 -30 39 -36 53 -26 64 10 10 7 11 -15 6 -19 -4 -32 -1 -44 12 -26 30 -49 84 -49 113 0 36 25 29 29 -9z m738 -21 c-19 -19 -26 2 -11 32 l14 29 4 -25 c2 -13 -1 -29 -7 -36z m327 38 c2 -10 -8 -42 -22 -71 -13 -28 -26 -60 -28 -69 -2 -10 -8 -27 -14 -38 -6 -10 -19 -38 -28 -61 -10 -23 -22 -49 -27 -58 -29 -49 -41 -83 -79 -223 -33 -125 -44 -155 -59 -155 -26 0 -24 39 9 147 15 49 31 111 36 138 4 27 19 69 32 94 26 52 66 158 89 235 9 29 18 59 20 66 7 21 66 16 71 -5z m-1611 -30 c7 -14 13 -31 13 -36 0 -14 -39 -13 -48 0 -3 6 -15 11 -27 11 -22 0 -27 20 -7 39 21 22 56 15 69 -14z m2149 17 c9 -14 -16 -14 -36 0 -13 8 -12 10 7 10 12 0 26 -5 29 -10z m297 3 c16 -4 27 -17 30 -34 3 -15 18 -36 34 -46 15 -9 35 -22 44 -28 8 -5 28 -13 44 -16 16 -3 48 -22 70 -43 22 -20 48 -36 57 -36 26 0 21 -22 -13 -58 -16 -18 -33 -43 -37 -56 -4 -12 -16 -27 -27 -33 -33 -17 -170 -44 -218 -43 -46 2 -43 3 -115 -75 -9 -10 -37 -21 -63 -25 -37 -5 -49 -3 -59 11 -9 13 -24 17 -49 15 -35 -4 -59 -30 -27 -30 9 0 17 -6 17 -13 0 -16 -89 -52 -110 -44 -7 3 -17 -3 -21 -13 -6 -15 -9 -16 -16 -4 -10 16 -79 7 -91 -12 -5 -8 5 -9 34 -4 53 10 35 -12 -24 -27 -82 -22 -119 -23 -141 -3 -29 26 -25 44 12 52 17 4 31 12 31 18 0 7 6 3 14 -7 11 -15 18 -17 34 -7 11 6 34 16 50 22 16 6 26 15 23 21 -4 6 0 8 10 4 9 -4 18 1 22 11 4 9 11 14 17 10 17 -11 39 31 39 75 0 23 -4 61 -10 84 -5 23 -13 68 -16 100 -10 81 -26 96 -104 93 -109 -4 -173 1 -173 11 0 6 19 14 43 18 42 6 43 7 19 18 -25 10 -24 11 14 15 40 3 56 23 18 23 -12 0 -21 4 -21 9 0 5 44 13 97 17 123 10 159 9 218 -2 41 -7 47 -12 44 -32 -2 -13 2 -23 8 -23 6 0 11 5 11 11 0 7 14 9 42 4 28 -4 42 -3 42 5 0 6 -9 11 -21 11 -41 0 -20 20 29 27 27 4 66 14 87 21 41 15 68 18 102 8z m429 -45 c38 -21 39 -22 9 -16 -17 4 -40 9 -50 11 -34 6 -91 30 -91 36 0 25 54 12 132 -31z m-3084 17 c7 -8 31 -18 54 -22 60 -9 51 -27 -14 -24 -30 1 -63 -2 -73 -7 -15 -7 -18 -4 -18 14 0 21 18 52 32 53 4 0 12 -6 19 -14z m510 -10 c3 -13 7 -37 9 -55 3 -17 10 -45 16 -61 7 -16 12 -38 12 -49 0 -11 14 -44 32 -73 17 -30 31 -58 31 -62 0 -5 9 -17 21 -27 59 -54 142 -217 168 -331 8 -32 19 -66 25 -76 13 -22 8 -28 -26 -32 -22 -2 -25 1 -22 27 2 17 -4 49 -13 72 -9 22 -17 53 -17 69 0 16 -9 44 -21 63 -11 19 -20 39 -20 45 0 18 -116 202 -154 244 -20 21 -35 44 -35 51 0 6 -16 31 -34 55 -18 24 -35 45 -37 48 -2 2 -9 -1 -16 -8 -10 -10 -10 -18 0 -34 13 -20 10 -20 -58 -19 -62 1 -67 2 -42 12 16 6 29 18 29 26 0 8 9 17 21 20 11 3 23 15 27 27 5 17 9 18 16 7 6 -10 9 0 9 29 1 45 8 54 50 55 16 1 25 -6 29 -23z m513 -21 c-16 -12 -45 -38 -63 -57 -40 -41 -45 -42 -45 -10 0 26 54 76 104 97 37 16 40 -2 4 -30z m-311 -13 c8 -24 40 -68 77 -105 34 -35 63 -69 63 -76 0 -6 6 -16 14 -20 51 -31 96 -161 105 -303 3 -46 8 -98 12 -116 5 -23 2 -37 -11 -50 -34 -34 -44 -22 -45 57 -1 40 -9 89 -17 107 -8 19 -26 67 -38 107 -13 41 -27 78 -32 84 -5 5 -9 16 -9 24 0 15 -82 138 -121 181 -13 14 -36 46 -51 70 -24 39 -25 45 -11 66 23 32 47 23 64 -26z m-107 1 c9 -20 16 -45 16 -56 0 -11 19 -38 42 -61 80 -77 140 -179 182 -309 47 -148 58 -221 34 -240 -14 -12 -18 -8 -32 25 -9 22 -16 47 -16 56 0 22 -35 120 -45 128 -4 3 -17 29 -30 58 -12 28 -36 66 -52 83 -32 35 -59 78 -98 158 -79 162 -86 194 -43 194 21 0 31 -8 42 -36z m912 -9 c-15 -27 -50 -60 -64 -60 -22 0 -16 31 10 53 27 23 66 28 54 7z m-1353 -7 c19 -9 18 -10 -8 -10 -15 -1 -31 4 -34 10 -8 12 13 12 42 0z m877 -26 c0 -24 -75 -83 -88 -70 -8 8 -1 22 24 48 38 38 64 48 64 22z m2172 -10 c37 -40 194 -110 266 -119 24 -3 40 -11 40 -19 0 -9 -17 -17 -40 -21 -22 -3 -50 -8 -63 -11 -18 -4 -22 -1 -16 13 4 10 -1 22 -13 31 -23 17 -115 20 -105 4 4 -6 21 -10 38 -10 23 0 31 -5 31 -21 0 -18 -5 -20 -34 -14 -46 9 -123 63 -135 93 -5 14 -14 26 -20 26 -12 0 -15 55 -4 66 13 13 31 7 55 -18z m-1694 -63 c-19 -46 -52 -54 -41 -9 4 16 17 42 29 59 20 27 22 28 25 9 2 -12 -4 -38 -13 -59z m1526 57 c12 -7 11 -11 -5 -19 -19 -10 -29 -9 -67 5 -13 4 -12 7 5 14 28 11 49 12 67 0z m79 -37 c8 -41 52 -94 87 -105 13 -4 24 -11 24 -17 0 -20 -56 -30 -158 -30 -101 0 -104 0 -110 25 -9 33 36 103 87 137 53 34 62 33 70 -10z m-167 5 c3 -6 -4 -10 -16 -10 -12 0 -19 4 -16 10 4 6 11 11 16 11 5 0 12 -5 16 -11z m-1916 -26 c0 -21 -40 -61 -53 -53 -15 10 -13 20 11 46 25 26 42 29 42 7z m1111 -19 c2 -11 -4 -28 -14 -38 -16 -18 -13 -53 5 -53 5 0 11 -8 15 -17 3 -9 1 -13 -4 -10 -6 4 -16 -15 -22 -40 -9 -36 -19 -50 -40 -57 -32 -12 -134 -33 -199 -41 -49 -7 -62 -18 -44 -40 6 -8 7 -17 2 -20 -5 -3 -19 16 -31 42 l-22 48 25 -6 c20 -5 24 -3 19 9 -3 9 -14 16 -24 16 -16 0 -17 6 -6 57 13 65 44 107 87 117 16 4 34 12 41 17 7 6 13 5 16 -3 3 -9 15 -9 46 0 23 6 57 11 76 11 28 0 34 4 29 17 -4 12 0 16 18 13 12 -2 25 -12 27 -22z m-712 -32 c-14 -38 -37 -37 -27 1 7 29 29 51 35 35 1 -4 -2 -21 -8 -36z m-966 -7 c0 -12 4 -21 10 -21 6 0 11 -5 11 -10 0 -6 -13 -11 -29 -11 -25 0 -29 4 -30 32 -1 24 3 31 18 31 13 0 20 -8 20 -21z m559 -39 c5 -26 3 -34 -8 -34 -20 0 -31 39 -15 58 15 19 15 19 23 -24z m1131 18 c0 -6 -5 -10 -10 -10 -6 0 -11 4 -11 10 0 6 5 11 11 11 5 0 10 -5 10 -11z m-987 -22 c0 -5 -13 -17 -29 -28 -57 -36 -124 -89 -141 -111 -17 -22 -18 -22 -25 -2 -7 16 4 32 53 76 34 30 67 56 74 56 7 0 19 6 25 15 13 15 43 11 43 -6z m294 -9 c0 -29 -41 -56 -61 -40 -12 10 -10 16 13 36 34 30 48 31 48 4z m2021 -10 c11 -18 -86 -65 -189 -91 -55 -14 -111 -32 -124 -41 -23 -15 -70 -11 -70 5 0 20 13 41 23 36 5 -4 22 6 37 21 26 26 53 37 40 17 -9 -14 -2 -14 31 1 28 13 36 30 14 30 -10 0 -10 3 -1 12 10 9 16 9 28 0 16 -14 123 -9 165 8 33 13 39 13 46 2z m-534 -21 c-8 -12 -48 -22 -48 -11 0 5 10 11 23 13 13 3 25 5 27 6 2 1 1 -3 -2 -8z m-2510 -25 c-17 -13 -49 -39 -71 -59 -43 -38 -57 -38 -47 1 13 53 48 74 128 79 17 1 16 -2 -10 -21z m136 -55 c-9 -50 -48 -142 -84 -199 -18 -29 -41 -66 -51 -82 -19 -30 -49 -39 -49 -14 0 7 10 22 21 33 29 26 84 129 84 157 0 12 4 27 9 32 4 6 14 36 22 68 18 75 22 81 40 57 9 -13 12 -32 8 -52z m1595 41 c9 -23 -3 -34 -15 -14 -13 19 -13 31 -1 31 5 0 12 -8 16 -17z m940 -1 c-44 -59 -56 -66 -102 -66 -25 0 -55 -5 -67 -11 -12 -7 -24 -9 -28 -5 -10 10 13 41 38 53 13 5 21 16 18 23 -6 16 16 21 93 23 57 1 61 0 48 -17z m-2604 -8 c10 -12 8 -25 -10 -65 -24 -54 -38 -68 -63 -62 -9 2 -28 7 -44 10 -25 6 -27 9 -17 36 6 16 33 44 60 62 57 39 58 39 74 19z m631 -3 c-15 -10 -51 -41 -80 -68 -50 -47 -78 -62 -78 -42 0 11 94 102 121 116 11 7 30 12 42 12 19 -1 18 -2 -5 -18z m312 -16 c-4 -9 -26 -17 -53 -20 -46 -6 -90 -22 -204 -78 -30 -15 -82 -55 -115 -89 -34 -34 -65 -62 -69 -62 -4 0 -8 11 -8 25 0 30 60 85 103 96 15 3 34 16 42 27 7 11 20 20 27 20 8 0 27 10 42 22 15 12 63 33 107 47 43 13 87 29 97 35 21 12 39 -1 31 -23z m1466 -3 c-17 -17 -25 -34 -22 -47 4 -14 -1 -25 -15 -32 -22 -11 -45 -4 -35 12 4 6 1 10 -5 10 -6 0 -11 -9 -11 -20 0 -16 -19 -32 -38 -32 -14 0 1 31 33 68 29 32 36 36 31 18 -9 -34 6 -29 40 13 16 20 34 37 39 37 5 0 -3 -12 -17 -27z m-97 -18 c-11 -10 -12 -9 -6 6 4 10 10 16 13 13 3 -3 0 -12 -7 -19z m-1658 -3 c14 -14 -7 -44 -40 -56 -19 -7 -50 -27 -67 -44 -18 -18 -38 -30 -44 -28 -14 4 115 134 133 134 7 0 15 -3 18 -6z m-543 -80 c-42 -124 -75 -190 -110 -222 -30 -25 -38 -29 -40 -15 -4 19 51 134 86 181 13 18 30 51 37 74 18 56 22 61 35 49 7 -8 4 -29 -8 -67z m1559 67 c0 -5 -18 -14 -39 -21 l-40 -12 25 21 c25 21 54 27 54 12z m584 -11 c-9 -10 -17 -25 -17 -33 0 -7 -8 -20 -18 -27 -23 -18 -87 -19 -87 -3 0 7 -7 6 -19 -5 -11 -10 -28 -14 -42 -11 -26 7 -31 30 -7 39 8 4 16 2 16 -4 0 -18 21 -11 46 16 29 32 63 46 110 47 34 0 35 0 18 -19z m-1319 -21 c0 -21 -19 -33 -53 -33 -28 0 -26 30 3 42 37 15 50 12 50 -9z m1155 15 c0 -3 -5 -8 -10 -11 -6 -4 -11 -2 -11 4 0 6 5 12 11 12 5 0 10 -3 10 -5z m-813 -40 c10 -19 36 -54 60 -78 45 -47 47 -77 5 -77 -36 0 -78 50 -92 107 -12 45 -9 82 5 82 3 0 13 -15 22 -34z m272 12 c-8 -12 -36 -12 -36 0 0 12 22 21 34 15 4 -3 5 -9 2 -15z m-708 -52 c-3 -26 -5 -66 -5 -89 -1 -41 -12 -61 -30 -51 -4 3 -5 15 -2 27 4 11 7 53 7 94 0 62 2 73 17 70 14 -3 16 -13 13 -51z m651 43 c0 -6 -14 -11 -31 -11 -16 0 -46 -3 -65 -7 -25 -4 -33 -3 -25 5 19 19 121 30 121 13z m-714 -36 c0 -24 -35 -48 -69 -48 -29 0 -16 39 19 56 45 22 50 21 50 -8z m1249 20 c0 -2 -5 -7 -10 -11 -6 -3 -11 -1 -11 5 0 6 5 11 11 11 5 0 10 -2 10 -5z m727 -24 c-3 -16 -8 -23 -10 -15 -5 13 3 44 11 44 2 0 2 -13 -1 -29z m-2587 -4 c24 -39 21 -56 -24 -146 -37 -74 -49 -89 -70 -89 -33 0 -39 37 -11 76 11 16 33 64 49 105 16 42 32 77 36 77 3 0 12 -10 20 -23z m768 7 c0 -19 -49 -44 -60 -33 -8 9 34 49 51 49 5 0 9 -8 9 -16z m1013 5 c4 -6 -1 -10 -10 -10 -10 0 -14 4 -11 10 4 6 9 11 11 11 2 0 7 -5 10 -11z m909 -9 c0 -5 -8 -15 -16 -22 -17 -15 -19 -11 -10 14 7 18 26 23 26 8z m-2976 -36 c-2 -7 -5 -1 -5 14 0 14 3 20 5 13 3 -8 3 -19 0 -27z m1518 7 c22 -20 25 -35 7 -35 -15 0 -51 31 -51 43 0 15 23 10 44 -8z m51 7 c0 -6 -5 -11 -11 -11 -6 0 -10 5 -10 11 0 5 4 10 10 10 6 0 11 -5 11 -10z m-778 -20 c6 -13 6 -41 -2 -84 -13 -65 -23 -80 -33 -46 -7 22 -6 130 0 142 9 13 24 8 35 -12z m557 -5 c0 -7 12 -31 27 -53 21 -31 25 -43 15 -52 -9 -9 -20 -3 -43 24 -17 20 -28 43 -25 51 3 8 5 24 5 35 0 11 5 18 11 14 5 -3 10 -12 10 -19z m-1281 4 c0 -6 -2 -11 -5 -11 -2 0 -7 5 -11 11 -3 5 -1 10 5 10 6 0 11 -5 11 -10z m830 -16 c0 -9 -5 -16 -11 -16 -6 0 -10 7 -10 16 0 8 4 16 10 16 6 0 11 -8 11 -16z m155 -13 c-4 -19 -57 -38 -66 -24 -7 11 35 42 55 42 8 0 13 -8 11 -18z m-1013 -13 c-11 -40 -71 -80 -103 -67 -28 10 -17 22 20 21 45 -1 58 10 33 28 -26 19 -15 35 24 35 22 0 29 -4 26 -17z m694 -25 c-4 -10 -12 -17 -19 -17 -7 0 -30 -15 -52 -33 -22 -18 -42 -31 -45 -28 -2 3 18 32 45 65 41 50 51 57 63 45 8 -8 12 -22 8 -32z m121 26 c13 -25 -6 -99 -24 -93 -19 7 -11 113 8 113 3 0 10 -9 16 -20z m-530 -149 c-21 -22 -40 -31 -64 -31 l-34 0 46 70 c26 38 47 77 48 86 0 10 8 -8 17 -38 l16 -56 -29 -31z m570 77 c-5 -18 -5 -18 -13 0 -4 10 -4 26 0 36 8 18 8 18 13 0 2 -10 2 -26 0 -36z m-1369 13 c7 -18 5 -19 -19 -10 -20 8 -22 26 -2 26 8 0 17 -8 21 -16z m1542 9 c-7 -3 -21 -3 -31 -1 -10 3 -5 5 13 5 17 1 25 -2 18 -4z m-332 -52 c8 -20 7 -21 -41 -29 -43 -6 -52 7 -21 31 25 19 55 18 62 -2z m364 1 c101 -24 110 -47 36 -86 -28 -14 -33 -14 -48 1 -13 13 -14 19 -4 29 7 7 13 19 13 26 0 25 -37 15 -68 -17 -28 -30 -66 -41 -82 -25 -4 4 -2 13 5 21 18 22 3 28 -30 12 -16 -8 -36 -27 -43 -43 -15 -30 -46 -37 -76 -18 -12 7 -13 13 -3 22 6 7 10 18 7 25 -3 8 23 19 77 31 45 11 96 23 113 28 42 10 34 11 103 -6z m270 -58 c0 -6 -5 -10 -10 -10 -6 0 -11 4 -11 10 0 6 5 11 11 11 5 0 10 -5 10 -11z m-637 -42 c-21 -35 -40 -45 -68 -36 -29 9 -24 36 7 36 15 0 26 6 26 15 0 15 29 27 45 19 4 -2 0 -18 -10 -34z m527 17 c17 -26 11 -59 -10 -59 -18 0 -42 47 -34 68 9 23 25 20 44 -9z m-625 4 c0 -6 -5 -10 -10 -10 -6 0 -11 -7 -11 -14 0 -23 -81 -95 -99 -88 -26 10 -19 28 15 40 20 7 32 18 32 31 0 11 -4 20 -8 20 -16 0 -97 -47 -97 -56 0 -5 -10 -23 -22 -40 -26 -36 -67 -40 -84 -8 -11 20 -8 26 18 48 34 28 104 68 110 62 2 -2 27 2 56 10 64 17 100 19 100 5z m-275 -34 c-2 -13 -12 -25 -22 -27 -21 -4 -24 19 -5 38 19 19 31 15 27 -11z m708 3 c10 -11 25 -35 34 -53 21 -41 50 -42 47 -3 -3 47 0 56 17 56 17 0 36 -41 36 -79 0 -41 -51 -49 -113 -17 -31 15 -58 19 -120 17 -74 -3 -81 -1 -86 19 -10 37 -8 48 14 59 21 11 87 -9 100 -31 14 -23 37 -10 37 21 0 37 9 40 34 11z m-235 -50 c18 -16 33 -31 33 -34 0 -3 -19 -7 -43 -9 -34 -2 -49 3 -69 23 -24 24 -24 26 -7 37 31 18 52 13 86 -17z m-171 -20 c29 -15 56 -30 60 -35 11 -10 -48 -32 -85 -32 -43 0 -70 53 -42 82 16 15 7 17 67 -15z m-100 -88 c0 -4 -12 -12 -26 -19 -21 -9 -30 -8 -52 9 -14 11 -31 21 -37 21 -23 0 -12 40 12 44 23 3 103 -39 103 -55z m-658 43 c17 -7 18 -8 2 -21 -9 -8 -30 -15 -46 -16 -25 -1 -28 -4 -26 -34 2 -29 0 -32 -25 -32 -36 0 -61 26 -63 67 -2 27 2 35 21 38 38 8 116 7 137 -2z m1162 -11 c0 -5 9 -11 21 -14 11 -3 21 -11 21 -17 0 -8 -10 -9 -29 -4 -41 12 -242 8 -289 -5 -52 -14 -61 3 -11 20 61 20 66 21 159 26 49 2 91 6 93 8 7 7 35 -5 35 -14z m-2205 1 c0 -5 -9 -12 -19 -16 -10 -4 -24 -9 -31 -13 -8 -3 -13 -1 -13 4 0 5 10 15 23 21 30 15 40 15 40 4z m1537 -55 c16 -18 27 -34 25 -35 -2 -2 -25 0 -50 3 -42 6 -48 10 -51 36 -2 24 1 29 22 29 15 0 37 -14 54 -33z m306 -5 c-12 -8 -39 -18 -60 -22 -22 -3 -64 -22 -94 -42 -42 -28 -57 -33 -64 -22 -4 7 -7 17 -5 22 4 13 94 48 165 64 77 18 82 18 58 0z m360 5 c18 -6 33 -16 33 -21 0 -11 -18 -11 -47 0 -12 5 -46 2 -79 -7 -36 -9 -85 -13 -128 -10 -69 5 -75 3 -184 -51 -62 -31 -119 -57 -126 -57 -31 0 -10 28 37 49 155 72 169 77 275 86 59 6 110 13 113 17 10 9 71 6 106 -6z m0 -78 c6 -6 -21 -68 -30 -68 -4 0 -14 7 -21 16 -7 8 -21 16 -30 16 -29 0 -47 17 -40 37 6 15 16 17 62 10 30 -4 57 -9 59 -11z m-240 -3 c0 -5 -28 -29 -62 -54 -34 -24 -86 -72 -117 -106 -30 -35 -58 -62 -63 -62 -18 0 -20 39 -4 72 24 47 109 127 152 143 43 15 94 19 94 7z m-408 -30 c-13 -21 -16 -15 -5 12 3 9 8 15 11 12 3 -3 0 -14 -6 -24z m587 -71 c48 -49 68 -100 41 -100 -15 0 -201 148 -194 155 3 3 16 11 29 17 30 16 53 2 124 -72z m-402 23 c-2 -7 -16 -15 -30 -16 -24 -3 -25 -3 -5 13 25 19 41 21 35 3z m213 -39 c0 -26 -7 -47 -18 -55 -54 -44 -161 -151 -167 -167 -6 -20 -36 -28 -36 -11 0 5 -3 24 -7 42 -5 29 0 38 45 83 28 28 71 73 95 100 57 64 88 67 88 8z m172 -98 c72 -70 79 -80 85 -128 l7 -53 -46 50 c-25 27 -62 58 -82 69 -20 10 -41 29 -47 41 -5 13 -21 28 -35 34 l-26 12 24 26 c14 14 28 26 33 26 4 0 43 -35 87 -77z m-175 -16 c-1 -9 4 -18 13 -19 9 0 20 -2 24 -2 5 -1 -9 -20 -31 -41 -23 -22 -70 -71 -106 -110 -60 -65 -66 -69 -76 -50 -15 27 32 112 107 194 50 55 75 65 69 28z m149 -96 c62 -52 148 -177 148 -216 0 -29 -1 -29 -21 -10 -12 10 -21 24 -21 31 0 22 -88 100 -158 141 -74 42 -88 65 -50 82 38 19 49 16 102 -28z m-138 -51 c2 -15 -15 -42 -54 -85 -32 -34 -66 -78 -76 -97 -17 -32 -18 -33 -32 -14 -19 26 -19 28 17 74 118 156 138 173 145 122z m147 -89 c24 -18 46 -42 50 -53 3 -10 27 -42 53 -71 32 -37 46 -61 46 -83 l0 -31 -54 52 c-29 29 -58 53 -62 53 -5 0 -36 25 -69 57 -32 31 -69 58 -81 60 -34 5 -28 34 9 41 56 12 65 10 108 -25z m-159 -14 c-4 -4 1 -13 11 -20 16 -12 15 -15 -6 -42 -12 -16 -22 -33 -22 -39 0 -14 -96 -134 -107 -134 -20 0 -8 76 17 109 15 19 27 39 27 44 0 15 63 89 76 89 6 0 8 -4 4 -7z m138 -125 c26 -26 51 -47 56 -47 5 0 24 -17 43 -39 19 -21 43 -47 53 -58 20 -21 39 -63 39 -88 0 -8 -29 16 -64 53 -40 43 -73 69 -86 69 -13 0 -32 9 -44 21 -42 42 -88 74 -104 74 -9 0 -17 4 -17 9 0 11 53 53 67 53 5 0 30 -21 57 -47z m-89 -62 c3 -8 -3 -23 -14 -32 -11 -10 -23 -31 -26 -46 -7 -31 -77 -129 -97 -135 -10 -4 -13 12 -13 55 0 65 6 82 60 154 35 47 38 48 61 33 13 -8 26 -22 29 -29z m178 -133 c46 -37 96 -109 87 -124 -10 -16 -60 3 -98 38 -20 19 -65 43 -109 57 -42 14 -77 30 -79 36 -3 7 10 27 27 45 l31 33 50 -27 c28 -14 69 -41 91 -58z m-181 -45 c0 -16 -93 -182 -107 -191 -5 -3 -9 22 -9 55 0 56 3 65 41 106 40 44 75 58 75 30z m124 -64 c26 -21 53 -37 61 -37 8 0 14 -5 14 -10 0 -6 8 -11 17 -11 28 0 88 -68 88 -101 l0 -29 -34 32 c-41 39 -113 77 -147 77 -14 0 -34 7 -45 15 -12 9 -37 16 -57 16 l-37 0 34 -29 c19 -15 34 -32 34 -38 0 -16 -118 -184 -126 -179 -16 10 -19 80 -6 108 8 15 25 57 38 91 25 66 76 132 104 131 9 0 37 -16 62 -36z m185 -37 c4 -6 2 -10 -4 -10 -6 0 -11 4 -11 10 0 6 2 11 4 11 3 0 8 -5 11 -11z m-150 -109 c19 -9 44 -25 55 -37 11 -12 26 -22 33 -22 23 0 85 -80 93 -120 4 -22 5 -42 1 -46 -3 -3 -28 15 -56 41 -93 89 -163 136 -201 136 -12 0 -21 4 -21 10 0 6 4 11 10 11 6 0 11 6 11 14 0 14 13 24 32 27 4 0 23 -6 43 -14z m-61 -80 c5 -5 -2 -23 -18 -42 -16 -18 -31 -45 -35 -60 -9 -36 -49 -110 -60 -112 -12 -2 -19 29 -17 81 1 47 14 83 44 125 18 25 27 29 49 24 15 -4 32 -11 37 -16z m128 -102 c21 -32 55 -64 102 -94 33 -21 39 -31 39 -61 0 -21 -2 -37 -4 -37 -2 0 -31 26 -64 57 -35 33 -74 60 -93 64 -18 4 -38 11 -44 16 -6 4 -22 10 -35 12 -14 2 -31 12 -37 22 -10 16 -6 25 23 50 34 31 35 31 66 13 17 -10 38 -29 47 -42z m-321 -13 c0 -6 -9 -11 -21 -11 -12 0 -21 5 -21 11 0 5 9 10 21 10 12 0 21 -5 21 -10z m183 -49 c9 -3 17 -12 17 -20 0 -20 -84 -162 -96 -162 -17 0 -10 46 16 99 14 29 28 61 31 71 6 21 8 21 32 12z m171 -96 c28 -27 63 -59 80 -71 20 -14 31 -33 35 -60 8 -48 -5 -50 -33 -5 -25 39 -111 94 -179 114 -52 15 -55 20 -29 51 31 36 70 27 126 -29z m-132 -54 l25 -20 -34 -46 c-19 -25 -42 -61 -51 -79 -26 -51 -67 -40 -46 13 5 11 9 34 9 50 1 16 5 29 10 29 4 0 16 16 26 36 20 43 27 44 61 17z m159 -77 c33 -23 55 -59 43 -71 -5 -4 -60 -10 -122 -13 l-112 -6 14 28 c29 55 97 100 132 88 9 -3 29 -15 45 -26z m140 -128 c-1 -20 -5 -40 -9 -44 -4 -3 -53 -6 -110 -5 -87 2 -114 -2 -175 -24 -63 -23 -77 -25 -100 -14 -32 15 -36 48 -9 68 12 9 74 17 168 23 92 5 164 14 187 24 46 20 51 16 48 -28z m-32 -100 c-6 -9 -40 -16 -127 -26 -17 -2 -67 -21 -110 -41 -106 -52 -136 -50 -122 9 6 23 41 44 64 38 5 -2 19 2 31 8 34 17 57 19 167 21 62 1 100 -3 97 -9z m34 -86 l-3 -35 -105 -3 c-116 -3 -225 -30 -272 -66 l-27 -22 0 25 c0 17 9 30 28 39 16 7 38 18 48 23 19 10 103 40 165 59 20 6 60 14 89 18 29 4 54 9 57 12 12 11 23 -17 20 -50z m-4 -92 c2 -4 -1 -25 -8 -46 -11 -37 -15 -39 -54 -39 -70 0 -157 -12 -172 -24 -8 -6 -47 -13 -86 -14 -56 -3 -73 0 -73 11 0 8 -3 21 -6 30 -6 16 68 73 92 70 7 -2 21 0 30 4 35 14 269 21 277 8z m-414 -137 c0 -6 -7 -11 -16 -11 -9 0 -14 5 -10 11 3 5 11 10 16 10 6 0 10 -5 10 -10z m393 -12 c5 -5 4 -15 -4 -24 -7 -9 -10 -21 -6 -27 18 -29 -130 -60 -260 -55 -37 2 -49 -1 -49 -12 0 -8 13 -18 30 -21 17 -3 66 -40 116 -85 47 -44 90 -79 95 -79 18 0 42 -34 42 -59 0 -39 -20 -31 -84 33 -32 31 -62 57 -67 57 -5 0 -18 12 -29 26 -12 15 -29 27 -38 27 -9 0 -31 10 -49 24 -18 13 -41 27 -51 31 -23 9 -24 29 -1 29 13 0 15 6 9 34 -4 18 -11 38 -17 44 -32 34 4 49 126 53 48 2 93 8 99 14 13 13 122 5 138 -10z m-25 -136 c0 -30 -51 -94 -74 -94 -28 0 -43 23 -28 42 18 24 81 74 92 74 5 0 10 -10 10 -22z m-384 -10 c4 -6 2 -10 -4 -10 -6 0 -11 4 -11 10 0 6 2 11 4 11 3 0 8 -5 11 -11z m279 2 c0 -18 -40 -44 -57 -38 -17 7 -23 27 -10 40 10 10 67 8 67 -2z m108 -110 c8 -30 -5 -37 -35 -18 -13 8 -12 12 5 31 22 25 21 25 30 -13z m-273 7 c27 -9 49 -22 49 -29 0 -6 -24 -37 -53 -69 -66 -72 -78 -64 -68 41 4 41 11 74 15 74 4 0 30 -8 57 -17z m102 -77 c0 -5 -5 -13 -11 -16 -6 -4 -27 -32 -47 -63 -19 -31 -48 -65 -64 -75 -15 -11 -39 -30 -52 -43 -29 -30 -36 -30 -29 -3 3 12 9 21 14 21 5 0 15 11 23 26 26 50 128 163 146 163 11 0 20 -4 20 -10z m91 -72 c22 -27 15 -59 -19 -97 -18 -20 -40 -47 -49 -60 -8 -13 -22 -23 -30 -23 -21 0 -89 63 -86 80 2 7 29 44 61 82 57 66 58 67 84 51 14 -9 32 -24 39 -33z m-270 -34 c0 -6 -5 -10 -10 -10 -6 0 -11 7 -11 16 0 9 5 14 11 10 5 -3 10 -11 10 -16z m310 -91 c-4 -24 -20 -53 -40 -73 -28 -28 -37 -32 -51 -21 -15 11 -13 19 26 72 52 72 76 79 65 22z m-172 -82 c40 -37 78 -68 85 -68 21 -1 61 -38 61 -57 0 -45 -88 11 -178 114 -50 58 -63 80 -47 80 4 0 39 -31 79 -69z m-75 -10 c32 -33 34 -39 22 -61 -7 -13 -22 -30 -33 -37 -17 -11 -26 -9 -52 10 -40 30 -44 83 -8 108 31 22 30 22 71 -20z m222 -30 c-14 -13 -28 -3 -18 13 4 7 12 9 18 5 7 -4 7 -10 0 -18z m-156 -55 c21 -22 -57 -112 -157 -179 -42 -29 -45 -30 -45 -11 0 8 26 40 58 71 32 31 64 63 71 71 7 7 21 23 31 34 19 21 31 25 42 14z m-155 -65 c-4 -4 -11 0 -16 8 -6 10 -5 18 3 23 14 8 25 -19 13 -31z m265 -23 c17 -20 17 -73 -1 -80 -18 -7 -122 38 -122 52 0 6 15 26 33 45 32 33 34 34 55 17 12 -10 28 -25 35 -34z m150 -74 c0 -12 -5 -21 -10 -21 -14 0 -24 19 -17 32 11 17 27 11 27 -11z m-249 -20 c70 -35 102 -61 102 -83 0 -13 -3 -14 -13 -4 -7 7 -25 13 -41 13 -26 0 -125 65 -125 82 0 7 11 23 15 22 0 0 28 -13 62 -30z m-26 -82 l83 -71 -38 -14 c-37 -14 -188 -11 -212 4 -6 3 -10 25 -10 49 0 36 6 48 34 72 19 17 40 30 47 30 8 0 51 -31 96 -70z m-108 -129 c29 -18 41 -20 80 -11 70 16 145 14 152 -5 3 -9 0 -23 -8 -32 -11 -14 -28 -16 -98 -10 -47 4 -115 8 -153 10 -106 4 -105 4 -105 31 0 13 3 27 7 31 15 15 92 6 125 -14z m110 -99 c131 -5 126 -3 126 -36 0 -17 -6 -35 -14 -41 -7 -6 -60 -12 -118 -14 -224 -6 -245 -1 -222 57 15 37 46 48 117 41 23 -2 73 -5 111 -7z m113 -157 c5 -40 -14 -59 -54 -54 -18 3 -60 -2 -93 -11 -32 -8 -99 -15 -148 -15 -101 0 -111 8 -86 68 l16 36 133 3 c234 5 228 6 232 -27z m-23 -127 c3 -15 3 -39 -1 -54 l-7 -27 -170 5 c-93 3 -171 6 -172 7 -2 0 -3 12 -3 26 0 38 33 51 133 53 48 0 90 4 94 9 4 4 33 7 63 7 51 0 57 -2 63 -26z m-232 -111 c46 -7 95 -16 108 -22 13 -5 40 -9 59 -9 33 0 48 -14 48 -43 0 -5 -68 -9 -155 -9 -98 0 -160 -5 -167 -12 -6 -6 -25 -10 -42 -8 -27 3 -30 7 -27 43 3 63 19 85 59 78 18 -3 71 -11 117 -18z m315 -74 c4 -6 3 -16 -3 -22 -7 -6 -12 -2 -16 12 -6 23 7 30 19 10z m-404 -68 c0 -3 -10 -4 -22 -4 -12 0 -19 4 -16 10 6 9 38 4 38 -6z m120 6 c4 -6 -3 -10 -15 -10 -13 0 -20 4 -16 10 3 6 10 11 16 11 5 0 12 -5 15 -11z m141 -6 c3 -3 2 -7 -2 -11 -10 -10 -60 5 -60 18 0 11 50 5 62 -7z m-322 -1 c-7 -3 -19 -3 -26 0 -7 3 -1 5 13 5 14 0 20 -2 13 -5z m89 -47 c-4 -9 -6 -6 -7 6 0 11 2 17 6 14 3 -4 4 -13 1 -20z m45 7 c0 -9 -5 -16 -10 -16 -6 0 -11 7 -11 16 0 8 5 16 11 16 5 0 10 -8 10 -16z m87 9 c10 -10 -4 -35 -20 -35 -16 0 -17 2 -8 25 6 17 17 21 28 10z m-160 -14 c0 -6 -5 -11 -11 -11 -6 0 -10 5 -10 11 0 5 4 10 10 10 6 0 11 -5 11 -10z m109 0 c4 -5 2 -13 -4 -16 -6 -4 -11 1 -11 10 0 18 6 21 15 6z m-141 -30 c0 -14 -12 -23 -23 -17 -10 7 -1 26 13 26 6 0 10 -4 10 -9z m52 -12 c9 13 11 13 11 -2 0 -18 -25 -33 -36 -22 -3 3 -6 13 -6 23 0 14 2 14 11 1 9 -14 11 -14 20 0z m53 -12 c0 -5 -5 -9 -10 -9 -6 0 -11 7 -11 16 0 9 5 13 11 10 5 -4 10 -11 10 -17z m88 6 c4 -11 -1 -15 -16 -15 -18 0 -20 2 -9 15 7 9 14 16 16 16 1 0 5 -7 9 -16z m119 -23 c-3 -10 -5 -5 -5 13 -1 17 2 25 4 18 3 -7 3 -21 1 -31z m-165 6 c0 -18 -3 -20 -16 -9 -8 7 -15 17 -15 22 0 5 7 10 15 10 9 0 16 -10 16 -23z m-147 -30 c0 -12 -4 -21 -10 -21 -14 0 -24 19 -16 32 11 17 26 11 26 -11z m91 -9 c17 16 103 7 103 -11 0 -16 -55 -24 -64 -9 -3 5 -11 5 -18 1 -18 -11 -84 -3 -93 11 -11 17 36 28 50 11 8 -10 15 -11 22 -3z m193 -12 c0 -25 -7 -26 -27 -6 -21 20 -19 27 6 27 14 0 21 -7 21 -21z m-233 -41 c13 -7 31 -10 39 -7 9 3 19 -2 22 -10 10 -26 -2 -29 -38 -11 -20 11 -32 13 -32 6 0 -7 -15 -10 -34 -9 -26 3 -35 9 -37 26 -3 19 1 22 26 21 16 -1 40 -8 54 -16z m134 -30 c-12 -11 -20 7 -11 26 7 18 8 18 12 0 3 -11 2 -22 -1 -26z m85 24 c24 0 14 -21 -10 -21 -15 0 -25 7 -27 19 -3 15 0 18 10 11 8 -5 20 -9 27 -9z m-123 -18 c0 -17 -3 -20 -12 -12 -6 7 -8 17 -4 24 11 17 16 13 16 -12z m-151 -67 c-5 -14 -10 -15 -19 -7 -6 6 -8 20 -4 30 5 13 10 15 18 6 7 -6 9 -19 5 -29z m193 2 c-1 -22 -1 -22 -16 -1 -14 17 -18 18 -26 5 -11 -18 -26 -7 -18 14 9 24 60 9 60 -18z m59 -1 c-3 -9 -11 -16 -17 -16 -12 0 -15 34 -3 46 11 11 27 -12 20 -30z m46 16 c0 -12 -4 -21 -10 -21 -14 0 -24 19 -16 31 11 18 26 12 26 -10z m-202 1 c7 -1 13 -8 13 -15 0 -14 -76 -19 -90 -5 -13 13 7 28 35 24 16 -2 35 -4 42 -4z m206 -50 c9 -23 8 -25 -9 -25 -18 0 -30 17 -21 32 9 15 23 12 30 -7z m-98 -26 c0 -22 -16 -27 -27 -9 -10 15 3 44 16 36 6 -3 11 -15 11 -27z m-210 1 c0 -12 -5 -21 -11 -21 -6 0 -10 9 -10 21 0 12 4 21 10 21 6 0 11 -9 11 -21z m47 -3 c0 -28 -21 -26 -25 2 -2 17 1 23 11 20 7 -3 14 -13 14 -22z m79 8 c0 -8 -5 -15 -11 -15 -6 0 -10 7 -10 15 0 9 4 16 10 16 6 0 11 -7 11 -16z m42 -5 c0 -22 -16 -28 -27 -10 -7 12 3 31 17 31 5 0 10 -9 10 -21z m-79 -9 c0 -20 -19 -19 -22 2 -2 10 3 17 9 15 7 -3 13 -10 13 -17z m220 -34 c0 -8 -12 -16 -29 -18 -29 -3 -29 -3 -11 18 20 24 40 24 40 0z m-97 -26 c-4 -44 12 -65 33 -47 15 12 17 9 17 -24 0 -41 -15 -52 -24 -17 -3 12 -14 21 -28 21 -18 0 -21 6 -21 36 0 26 -5 37 -16 37 -22 0 -20 18 2 24 32 8 40 1 37 -30z m-202 7 c0 -24 -17 -38 -26 -22 -9 15 1 42 15 42 6 0 11 -9 11 -20z m42 -1 c0 -12 -4 -21 -10 -21 -14 0 -24 19 -16 32 11 17 26 11 26 -11z m80 3 c-10 -10 -49 -11 -55 -1 -3 5 10 9 29 9 18 0 30 -4 26 -8z m-80 -66 c0 -17 -4 -31 -9 -31 -5 0 -12 14 -14 31 -3 21 0 32 9 32 9 0 14 -13 14 -32z m84 21 c0 -6 -5 -10 -10 -10 -6 0 -11 4 -11 10 0 6 5 11 11 11 5 0 10 -5 10 -11z m42 -10 c0 -11 -5 -23 -10 -27 -6 -3 -11 5 -11 21 0 14 5 27 11 27 5 0 10 -10 10 -21z m-173 -11 c0 -8 -6 -16 -13 -18 -8 -3 -13 4 -13 18 0 14 5 21 13 18 7 -2 13 -10 13 -18z m96 -8 c9 -38 22 -45 73 -39 37 5 44 2 49 -16 6 -22 -17 -30 -29 -10 -4 6 -12 7 -19 3 -23 -14 -61 -13 -67 2 -3 9 -10 13 -15 10 -5 -4 -9 -2 -9 4 0 5 -3 24 -7 42 -8 42 14 45 24 4z m228 -18 c3 -8 1 -18 -4 -22 -6 -3 -10 4 -10 16 0 25 5 28 14 6z m-319 -37 c0 -12 -7 -21 -16 -21 -16 0 -21 22 -9 35 14 13 25 7 25 -14z m53 -6 c0 -15 -23 -21 -35 -8 -10 9 14 36 25 29 5 -3 10 -13 10 -21z m250 -23 c-5 -22 -23 -21 -28 2 -2 10 4 17 14 17 11 0 16 -7 14 -19z m-40 -23 c0 -28 -18 -36 -24 -11 -6 20 -1 32 15 32 5 0 9 -10 9 -21z m-210 -13 c0 -18 -5 -20 -35 -13 -63 13 -65 31 -3 33 31 1 38 -3 38 -20z m42 2 c0 -12 -5 -21 -11 -21 -6 0 -10 9 -10 21 0 12 4 21 10 21 6 0 11 -9 11 -21z m41 -39 c0 -19 -4 -34 -10 -34 -6 0 -10 22 -10 49 0 36 3 46 10 35 6 -9 10 -32 10 -50z m85 39 c0 -12 -5 -21 -11 -21 -6 0 -10 5 -10 12 0 7 -12 9 -29 6 -27 -5 -28 -5 -9 9 30 22 59 19 59 -6z m-221 -47 c0 -16 -19 -32 -28 -23 -9 9 5 39 17 39 6 0 11 -7 11 -16z m53 -11 c0 -8 -8 -15 -16 -15 -9 0 -16 7 -16 15 0 9 7 16 16 16 8 0 16 -7 16 -16z m126 -5 c0 -12 -5 -21 -11 -21 -6 0 -10 9 -10 21 0 12 4 21 10 21 6 0 11 -9 11 -21z m42 5 c0 -8 -5 -15 -11 -15 -6 0 -10 7 -10 15 0 9 4 16 10 16 6 0 11 -7 11 -16z m52 -44 c0 -21 -3 -25 -12 -16 -6 6 -9 19 -5 28 9 25 17 20 17 -12z m-274 -7 c12 -15 5 -27 -16 -27 -8 0 -14 9 -14 21 0 24 13 27 30 6z m59 -12 c0 -29 -31 -26 -35 4 -3 19 1 24 16 21 10 -2 19 -13 19 -25z m89 -6 c0 -22 -15 -27 -27 -9 -9 15 4 44 16 36 6 -3 11 -15 11 -27z m35 12 c3 -12 1 -21 -4 -21 -6 0 -10 9 -10 21 0 11 2 21 4 21 2 0 7 -10 10 -21z m49 5 c0 -8 -4 -17 -9 -21 -11 -6 -24 21 -15 30 11 11 24 7 24 -9z m-133 -11 c4 -8 2 -15 -4 -15 -5 0 -10 7 -10 15 0 9 2 16 4 16 2 0 7 -7 10 -16z m-90 -92 c3 -50 -6 -61 -28 -35 -8 10 -9 17 -2 22 6 3 8 21 4 39 -5 25 -3 31 9 27 9 -3 15 -23 17 -53z m147 43 c10 -10 13 -10 13 0 0 7 5 13 11 13 6 0 10 -9 8 -18 -5 -26 -65 -26 -69 -1 -5 21 19 25 37 6z m76 -8 c0 -12 -4 -21 -10 -21 -14 0 -24 19 -16 31 11 18 26 12 26 -10z m42 16 c0 -3 -5 -8 -10 -11 -6 -4 -11 -2 -11 4 0 6 5 12 11 12 5 0 10 -3 10 -5z m-168 -22 c0 -8 -5 -15 -10 -15 -6 0 -11 7 -11 15 0 9 5 16 11 16 5 0 10 -7 10 -16z m-52 -5 c0 -6 -5 -10 -10 -10 -6 0 -13 4 -17 10 -3 6 1 11 10 11 9 0 17 -5 17 -11z m308 -49 c7 -51 -5 -80 -21 -54 -14 21 -12 103 2 103 7 0 15 -22 19 -49z m-55 0 c-6 -11 -12 -13 -12 -6 0 7 -4 13 -10 13 -5 0 -12 -20 -14 -45 -4 -43 -4 -42 -6 11 -1 44 1 53 14 48 9 -3 16 0 16 8 0 10 3 11 12 2 8 -8 8 -17 0 -31z m-248 -3 c0 -8 -6 -16 -13 -19 -8 -2 -13 5 -13 19 0 13 5 20 13 18 7 -3 13 -11 13 -18z m131 -6 c0 -14 -5 -26 -10 -26 -12 0 -15 35 -4 45 12 12 14 9 14 -19z m48 15 c9 -14 -11 -35 -26 -26 -12 7 -4 38 10 38 5 0 12 -6 16 -12z m-124 -18 c3 -9 -2 -13 -14 -11 -10 2 -21 10 -23 18 -3 9 2 13 14 10 10 -2 21 -10 23 -17z m45 9 c0 -12 -21 -26 -28 -18 -8 8 5 28 18 28 5 0 10 -4 10 -10z m-147 -58 c0 -9 -8 -16 -16 -16 -9 0 -16 7 -16 16 0 8 7 16 16 16 8 0 16 -8 16 -16z m94 0 c0 -9 -5 -16 -10 -16 -6 0 -11 7 -11 16 0 8 5 16 11 16 5 0 10 -8 10 -16z m137 -5 c0 -12 -7 -21 -16 -21 -16 0 -22 22 -9 34 13 14 25 7 25 -13z m73 10 c0 -6 -5 -10 -10 -10 -6 0 -11 4 -11 10 0 6 5 11 11 11 5 0 10 -5 10 -11z m-258 -10 c4 -5 2 -13 -4 -16 -6 -4 -11 1 -11 10 0 18 6 21 15 6z m95 0 c3 -5 1 -13 -5 -16 -6 -4 -10 1 -10 10 0 18 6 21 15 6z m37 -6 c0 -9 -5 -14 -10 -10 -6 3 -11 11 -11 16 0 6 5 10 11 10 5 0 10 -7 10 -16z m179 -61 c-14 -14 -26 18 -16 43 6 16 8 15 17 -7 6 -16 6 -29 -1 -36z m-353 25 c8 -12 -4 -42 -16 -42 -5 0 -9 11 -9 26 0 26 14 35 25 16z m48 -21 c0 -11 -5 -23 -11 -27 -13 -8 -25 21 -16 43 8 21 27 9 27 -16z m53 0 c0 -26 -20 -38 -28 -17 -8 22 3 51 17 43 6 -4 11 -16 11 -26z m126 -1 c0 -22 -16 -27 -27 -9 -10 15 3 44 16 36 6 -4 11 -16 11 -27z m84 11 c0 -12 -5 -21 -10 -21 -14 0 -24 19 -17 32 11 17 27 11 27 -11z m-168 -10 c0 -12 -5 -21 -11 -21 -6 0 -10 9 -10 21 0 11 4 21 10 21 6 0 11 -10 11 -21z m-119 -50 c27 -6 34 -45 8 -45 -8 0 -15 5 -15 12 0 8 -5 8 -15 -1 -12 -9 -18 -7 -31 11 -19 27 -13 46 12 35 10 -4 28 -10 41 -12z m339 3 c15 -19 5 -39 -16 -31 -16 7 -22 46 -6 46 5 0 15 -7 22 -15z m-262 -53 c3 -56 1 -68 -10 -68 -13 0 -27 88 -18 111 11 27 25 4 28 -43z m136 42 c0 -9 -7 -16 -16 -16 -8 0 -15 7 -15 16 0 8 7 16 15 16 9 0 16 -8 16 -16z m-94 -16 c0 -12 -5 -21 -11 -21 -6 0 -10 9 -10 21 0 12 4 21 10 21 6 0 11 -9 11 -21z m168 0 c0 -22 -9 -25 -36 -15 -31 12 -18 28 28 35 4 0 8 -8 8 -20z m-29 -47 c10 4 21 -2 28 -15 10 -19 8 -24 -15 -32 -33 -13 -34 -29 -4 -34 30 -4 39 -29 10 -29 -34 0 -35 -19 0 -36 26 -13 36 -14 53 -3 16 10 22 9 30 -3 15 -25 -8 -41 -66 -45 -33 -2 -55 -8 -58 -17 -3 -11 10 -13 60 -10 46 2 64 0 64 -10 0 -7 -12 -13 -27 -13 -37 0 -27 -23 15 -34 22 -6 33 -15 33 -29 0 -27 -16 -35 -32 -16 -8 11 -32 16 -75 16 -57 0 -65 -3 -104 -39 -32 -31 -44 -50 -48 -84 -6 -40 -3 -46 35 -84 37 -36 47 -40 84 -37 24 3 46 -1 50 -7 13 -20 27 -12 27 16 0 20 5 26 18 23 14 -3 18 -13 16 -38 l-3 -35 100 7 c64 4 100 2 100 -4 0 -6 -18 -14 -39 -18 -22 -4 -61 -14 -87 -22 -30 -10 -64 -13 -91 -9 -25 4 -65 1 -90 -6 -24 -7 -65 -12 -90 -11 -51 2 -117 26 -117 43 0 6 -9 11 -20 11 -16 0 -22 10 -26 45 -3 24 -9 60 -13 80 l-7 35 38 -7 c24 -4 38 -3 38 4 0 6 -14 14 -31 18 -37 7 -37 7 -15 41 12 18 27 26 48 26 20 0 30 4 27 13 -3 7 -17 11 -31 10 -17 -3 -29 2 -33 14 -9 22 0 37 20 29 8 -3 27 -3 42 1 23 6 25 9 14 23 -11 14 -11 18 4 27 12 6 16 17 12 34 -4 17 -1 26 12 31 17 7 17 8 -1 21 -26 19 -13 49 21 49 27 0 35 14 16 26 -6 3 -10 25 -10 48 0 26 4 40 10 36 6 -4 11 -19 11 -33 0 -17 4 -25 13 -22 7 2 11 13 9 24 -4 25 29 50 46 36 7 -6 20 -8 29 -5z m-234 -17 c0 -25 -8 -25 -33 -3 -18 17 -19 17 -19 0 0 -9 -8 -17 -16 -17 -18 0 -19 2 -10 24 4 10 20 16 42 16 28 0 36 -4 36 -20z m330 5 c7 -20 -1 -35 -20 -35 -14 0 -29 36 -18 46 11 12 31 6 38 -11z m-240 -22 c-10 -11 -19 5 -10 19 6 11 9 11 12 0 3 -7 2 -16 -2 -19z m-134 -37 c10 -9 13 -9 13 0 0 7 9 13 21 13 11 0 21 -7 21 -16 0 -11 -13 -15 -48 -15 -35 0 -47 4 -47 15 0 19 22 21 40 3z m378 -27 c3 -19 -1 -24 -16 -21 -10 2 -20 14 -22 28 -3 19 1 24 16 21 10 -2 20 -15 22 -28z m-325 -42 c3 -25 -5 -28 -29 -13 -17 11 -7 46 12 40 7 -2 15 -15 17 -27z m44 -7 c0 -9 -5 -16 -10 -16 -14 0 -23 16 -15 25 12 12 25 7 25 -9z m-77 -35 c12 10 17 9 25 -3 11 -18 12 -30 2 -31 -5 -1 -21 -3 -36 -5 -18 -2 -31 2 -34 13 -9 22 3 39 18 25 7 -8 15 -7 25 1z m29 -75 c0 -20 -47 -28 -58 -10 -13 21 -1 32 30 28 17 -1 28 -9 28 -18z m393 -43 c20 -38 29 -83 18 -83 -27 0 -38 17 -38 56 0 24 -6 50 -13 57 -8 8 -8 13 -1 13 7 0 22 -20 34 -43z m-167 -61 c0 -5 -9 -17 -21 -28 -26 -23 -27 -55 -4 -80 17 -18 16 -19 -4 -19 -26 0 -55 36 -55 70 0 30 35 66 63 66 12 0 21 -4 21 -9z m226 -55 c3 -5 -11 -12 -31 -15 -35 -7 -37 -10 -37 -49 0 -34 -4 -41 -19 -38 -22 4 -29 46 -14 85 9 23 16 27 53 27 24 -1 45 -5 48 -10z m-144 -27 c-5 -41 -29 -45 -27 -4 2 18 9 32 17 32 8 0 12 -10 10 -28z m134 -15 c9 -15 -2 -24 -22 -16 -9 3 -14 11 -10 17 8 14 23 13 32 -1z m162 -20 c0 -6 -10 -10 -22 -10 -12 0 -18 4 -15 10 4 6 14 11 22 11 8 0 15 -5 15 -11z m53 -10 c0 -6 -5 -11 -11 -11 -6 0 -10 5 -10 11 0 5 4 10 10 10 6 0 11 -5 11 -10z m-126 -11 c0 -6 -10 -10 -21 -10 -11 0 -23 4 -27 10 -3 6 5 11 21 11 14 0 27 -5 27 -11z m94 -6 c0 -22 -23 -44 -42 -39 -26 7 -28 31 -3 38 29 7 45 8 45 1z m-163 -47 c-4 -6 -14 -10 -23 -10 -13 0 -14 3 -3 16 13 16 36 11 26 -6z m-77 -5 c0 -5 -5 -11 -11 -13 -6 -3 -11 4 -11 13 0 10 5 16 11 14 6 -2 11 -8 11 -14z m219 -99 c8 -5 12 -13 9 -16 -8 -8 -40 5 -40 17 0 12 11 11 31 -1z m-241 -53 c-15 -11 -64 -33 -110 -48 -75 -24 -88 -26 -124 -14 -49 16 -51 31 -4 31 21 0 42 7 53 20 14 16 36 21 89 24 38 2 81 5 96 6 l26 2 -26 -21z m136 -15 c0 -3 -5 -8 -10 -11 -6 -4 -11 -2 -11 4 0 6 5 12 11 12 5 0 10 -3 10 -5z m-126 -207 c0 -6 -7 -18 -16 -26 -14 -14 -15 -13 -15 9 0 14 3 29 6 32 9 9 25 -1 25 -15z m-105 2 c0 -6 -8 -11 -18 -11 -16 0 -16 2 -3 11 20 12 21 12 21 0z"/>
		<path d="M1507 7382 c-29 -4 -43 -11 -46 -24 -3 -20 -10 -19 157 -22 34 -1 66 -8 77 -17 19 -16 48 -6 56 18 11 34 -128 59 -244 45z"/>
		<path d="M1964 7329 c0 -6 4 -10 9 -10 6 0 13 4 17 10 3 6 -1 11 -10 11 -9 0 -16 -5 -16 -11z"/>
		<path d="M1620 7320 c-13 -1 -24 -10 -24 -18 0 -20 30 -32 44 -18 17 18 5 40 -20 36z"/>
		<path d="M1797 7271 c5 -36 29 -52 65 -43 35 9 28 29 -17 48 -19 8 -38 17 -42 19 -5 3 -8 -8 -6 -24z"/>
		<path d="M2085 6924 c-15 -11 -17 -18 -9 -27 14 -14 170 -20 178 -6 3 5 -3 18 -13 29 -23 26 -125 28 -156 4z"/>
		<path d="M2058 6826 c-14 -26 1 -36 35 -23 14 6 36 8 48 4 31 -8 54 4 47 23 -8 19 -29 21 -56 3 -17 -10 -24 -10 -34 0 -18 18 -27 16 -40 -7z"/>
		<path d="M2258 6825 c-14 -8 -14 -12 2 -28 21 -21 47 -6 36 22 -7 19 -16 20 -38 6z"/>
		<path d="M1621 6751 c-59 -18 -66 -43 -17 -70 30 -17 31 -17 37 8 3 12 14 21 28 21 27 0 41 29 20 42 -17 11 -25 11 -68 -1z"/>
		<path d="M1790 6692 c-29 -9 -70 -19 -92 -21 -43 -6 -52 -14 -41 -33 11 -17 183 -22 188 -5 3 8 -3 14 -12 14 -9 0 -16 4 -16 10 0 8 6 8 20 0 13 -7 29 -7 47 0 32 12 33 19 9 38 -23 17 -37 17 -103 -3z"/>
		<path d="M1554 6573 c-37 -37 -23 -55 24 -29 42 24 52 50 18 50 -12 0 -30 -9 -42 -21z"/>
		<path d="M1418 6521 c-21 -4 -48 -13 -60 -20 -13 -6 -31 -12 -41 -12 -23 0 -46 -30 -46 -60 0 -18 -7 -24 -26 -24 -22 0 -67 -47 -56 -59 8 -8 149 47 153 60 3 9 -3 10 -23 5 -26 -6 -28 -5 -17 15 6 11 21 21 32 21 12 0 33 7 47 17 14 9 29 14 35 10 14 -9 75 25 75 42 0 16 -15 17 -73 5z"/>
		<path d="M1836 6503 c7 -3 16 -3 20 1 3 3 -3 6 -14 5 -12 0 -15 -3 -6 -6z"/>
		<path d="M1121 6429 c-16 -2 -29 -9 -29 -14 0 -6 -23 -10 -50 -10 -50 0 -76 -13 -76 -38 0 -19 30 -26 54 -14 12 7 39 13 60 15 66 5 129 28 125 47 -3 17 -34 22 -84 14z"/>
		<path d="M667 6238 c-8 -13 12 -25 26 -17 12 8 4 27 -10 27 -6 0 -12 -5 -16 -10z"/>
		<path d="M4383 7171 c-14 -23 12 -29 79 -19 84 12 93 18 24 18 -29 0 -63 3 -74 6 -12 4 -25 2 -29 -5z"/>
		<path d="M4463 7131 c-48 -7 -68 -27 -35 -37 10 -3 45 -1 77 5 31 6 66 11 76 11 10 0 18 7 18 15 0 16 -45 18 -136 6z"/>
		<path d="M4580 7089 c-13 -10 -21 -21 -16 -26 10 -10 50 -9 83 4 23 9 26 13 15 26 -17 21 -52 19 -82 -4z"/>
		<path d="M4456 6939 c-25 -12 -46 -51 -46 -83 0 -17 7 -20 42 -20 30 0 42 4 42 15 0 8 -5 18 -10 21 -7 4 -4 16 6 32 9 14 13 30 10 36 -9 13 -15 13 -44 -1z"/>
		<path d="M5282 7086 c0 -10 46 -23 62 -18 6 2 -5 9 -26 15 -20 7 -36 8 -36 3z"/>
		<path d="M5093 7081 c-23 -29 -29 -67 -11 -67 6 0 16 13 21 29 6 16 15 37 21 47 17 29 -6 22 -31 -9z"/>
		<path d="M5137 7061 c-15 -17 -17 -47 -4 -47 6 0 15 14 21 32 12 33 5 40 -17 15z"/>
		<path d="M4144 6974 c-4 -21 -11 -44 -15 -51 -9 -14 -88 -31 -86 -18 5 24 -3 23 -32 -3 -17 -15 -29 -31 -26 -35 8 -13 112 2 132 20 10 9 26 23 35 30 17 15 23 81 7 91 -5 3 -12 -12 -15 -34z"/>
		<path d="M5236 6891 c-4 -3 -7 -11 -7 -17 0 -7 5 -6 12 1 7 7 10 15 7 18 -3 3 -8 2 -12 -2z"/>
		<path d="M5061 6888 c0 -6 5 -10 11 -10 5 0 10 4 10 10 0 6 -5 11 -10 11 -6 0 -11 -5 -11 -11z"/>
		<path d="M4719 6793 c-12 -20 6 -25 24 -7 17 17 17 18 1 18 -10 0 -21 -5 -25 -11z"/>
	</g>
</svg>
