<?xml version="1.0" encoding="utf-8"?>
<svg xmlns="http://www.w3.org/2000/svg" height="1223.258436" preserveAspectRatio="xMidYMid meet" version="1.0" viewBox="0 0 296.659740 1223.258436" width="296.659740">
	<title>I drop capital.</title>
	<g fill="#000000" stroke="none" transform="translate(-28.131873,1234.000000) rotate(-360.00) scale(0.095238,-0.095238)">
		<path d="M379 12920 c-16 -28 -22 -57 -23 -113 -1 -42 -6 -121 -11 -175 -6 -55 -15 -282 -19 -504 -5 -223 -14 -575 -19 -783 -6 -232 -7 -388 -1 -403 7 -17 6 -45 -3 -79 -16 -69 -4 -3141 13 -3252 14 -90 7 -2508 -10 -3374 -9 -462 -9 -629 1 -730 17 -174 16 -738 -1 -1302 -12 -366 -12 -489 -2 -619 8 -90 13 -185 13 -210 1 -26 1 -180 1 -342 0 -161 0 -398 0 -525 1 -127 -3 -253 -8 -279 -5 -33 -4 -51 4 -56 6 -4 12 -19 12 -32 l0 -26 769 -3 c613 -2 1425 4 1569 13 28 1 76 1 113 0 61 -2 128 -3 153 -1 14 1 41 -1 60 -5 22 -4 49 -1 76 10 30 12 76 17 151 17 90 0 110 3 116 17 3 9 6 106 6 216 0 109 5 207 10 218 6 11 11 1782 12 4805 1 3097 5 4826 12 4898 6 60 12 357 15 660 4 469 2 554 -11 582 -15 34 -12 91 6 102 8 6 21 260 18 364 -4 148 1 643 6 706 4 44 4 108 1 143 l-7 64 -97 7 c-53 4 -98 12 -100 18 -2 6 -485 10 -1403 10 l-1400 0 -22 -37z m447 -220 c0 -8 -4 -13 -9 -10 -5 3 -8 10 -8 16 0 5 3 10 8 10 5 0 9 -7 9 -16z m758 -169 c6 -6 -38 -71 -62 -92 -17 -14 -21 -26 -16 -45 5 -20 0 -37 -20 -62 -31 -41 -31 -41 -10 -62 14 -14 15 -22 5 -47 -13 -32 -83 -87 -126 -101 -15 -4 -47 -19 -72 -33 -55 -30 -77 -31 -95 -3 -12 20 -8 35 25 119 22 52 45 103 53 112 8 9 15 20 15 23 0 19 90 133 129 164 32 26 96 43 134 37 20 -3 38 -8 40 -10z m720 -14 c5 -14 13 -18 29 -14 30 8 127 -46 148 -83 9 -17 16 -30 14 -30 -1 0 -19 12 -38 26 -20 15 -54 32 -76 38 -22 6 -39 15 -39 20 0 6 -6 11 -12 11 -7 0 -9 -9 -5 -19 5 -15 3 -15 -10 2 -8 11 -15 24 -15 29 0 4 -12 11 -27 15 -33 8 -34 25 0 25 15 0 27 -8 31 -20z m-598 -35 c42 -27 46 -49 14 -77 -22 -20 -22 -20 -16 7 9 35 -16 73 -36 54 -10 -10 -15 -8 -26 6 -8 10 -14 21 -14 26 -1 16 43 7 78 -16z m468 14 c0 -20 -169 -166 -230 -199 -35 -19 -64 -41 -64 -48 0 -8 -8 -17 -16 -20 -9 -4 -16 -14 -16 -24 0 -9 -12 -31 -26 -48 -25 -29 -31 -59 -30 -139 1 -42 -74 -78 -87 -43 -17 44 -145 -1 -133 -46 3 -13 -3 -24 -17 -32 -13 -7 -22 -22 -22 -37 0 -14 -4 -28 -10 -31 -5 -4 -12 -20 -16 -37 -5 -24 -14 -31 -43 -37 -32 -6 -44 -2 -97 32 -2 2 14 40 35 85 24 54 40 105 44 147 4 46 10 63 19 60 13 -5 58 34 58 50 0 4 29 26 65 49 36 23 80 57 97 75 109 117 120 124 201 132 68 6 81 11 122 46 24 21 57 46 71 56 28 18 95 25 95 9z m127 -77 c6 -25 13 -74 15 -110 3 -65 3 -67 -41 -111 -24 -25 -54 -60 -66 -77 -12 -16 -26 -27 -31 -22 -14 13 29 82 66 106 30 19 35 28 32 58 -4 48 -27 55 -31 10 -3 -36 -40 -59 -40 -26 0 23 -10 21 -38 -5 -20 -19 -22 -27 -13 -44 10 -19 9 -20 -16 -14 -24 6 -27 4 -27 -18 0 -17 -8 -27 -23 -31 -19 -5 -21 -9 -10 -22 11 -13 6 -18 -25 -33 -20 -10 -37 -20 -37 -23 0 -15 26 -94 34 -105 6 -7 5 -21 -2 -34 -7 -12 -9 -26 -6 -31 3 -6 1 -13 -5 -17 -6 -3 -11 -17 -11 -29 0 -13 -9 -49 -21 -81 -12 -31 -20 -69 -17 -84 3 -14 11 -48 17 -73 31 -131 34 -179 17 -233 -9 -28 -24 -60 -33 -70 -9 -10 -24 -28 -34 -40 -28 -36 -59 -40 -79 -10 -16 23 -15 27 4 52 12 14 28 45 36 68 12 35 12 44 0 62 -15 21 -15 65 0 140 6 31 3 43 -19 69 -21 25 -29 50 -39 137 -10 80 -10 114 -1 140 15 43 15 96 1 128 -9 19 -7 37 10 82 22 58 36 71 126 119 46 24 159 111 159 123 0 4 18 27 41 51 57 59 90 58 107 -2z m144 -43 c10 -12 8 -16 -8 -20 -22 -6 -48 15 -36 27 11 11 32 8 44 -7z m46 -56 c-8 -13 -29 -26 -46 -30 -39 -9 -52 2 -18 15 31 11 55 38 47 52 -4 6 -1 12 7 15 20 7 27 -27 10 -52z m-801 -1 c-2 -41 -74 -59 -82 -20 -3 15 1 18 18 13 11 -4 24 -2 27 4 8 13 38 15 37 3z m-136 -28 c0 -15 -30 -32 -40 -22 -6 6 19 37 31 37 5 0 9 -7 9 -15z m37 -52 c-9 -13 -41 -38 -71 -54 -44 -24 -52 -26 -39 -10 25 33 56 57 81 64 13 3 24 10 24 16 0 5 4 9 10 9 6 0 4 -11 -5 -25z m-184 -127 c0 -2 -5 -17 -12 -31 -12 -27 -30 -37 -30 -16 0 5 -8 10 -18 10 -13 0 -10 6 13 20 31 21 47 26 47 17z m761 -110 c0 -53 -3 -66 -23 -80 -13 -9 -24 -25 -24 -37 0 -11 -5 -20 -10 -20 -6 0 -22 -13 -37 -29 -14 -16 -26 -22 -26 -15 0 8 14 26 31 40 29 25 36 55 18 74 -4 4 -2 13 4 20 7 9 7 15 0 20 -20 12 -12 29 10 23 16 -4 24 3 36 31 8 19 16 35 18 35 2 0 3 -28 3 -62z m-887 44 c0 -13 -63 -44 -88 -44 -13 0 -29 -6 -37 -14 -11 -10 -13 -9 -10 8 5 28 135 77 135 50z m551 -42 c-1 -27 -8 -64 -14 -81 -7 -18 -15 -37 -17 -44 -3 -9 -16 -7 -46 8 -54 26 -68 47 -18 26 38 -16 39 -16 33 7 -3 13 -3 18 0 11 17 -36 47 17 47 81 0 23 3 42 8 42 5 0 8 -22 7 -50z m-469 -5 c19 -19 15 -45 -14 -102 -14 -29 -26 -58 -26 -66 0 -8 -10 -22 -22 -32 -16 -14 -20 -29 -18 -58 3 -32 8 -39 30 -42 14 -2 30 -8 36 -13 5 -6 20 -10 34 -10 28 0 22 -27 -8 -37 -11 -4 -20 -12 -20 -20 0 -7 -10 -22 -21 -32 -12 -11 -21 -27 -21 -37 0 -10 -18 -50 -40 -90 -35 -64 -44 -73 -73 -76 -38 -4 -49 11 -60 77 -5 27 -20 57 -43 82 -30 32 -42 39 -78 39 -49 0 -97 -22 -140 -61 -19 -19 -28 -23 -28 -12 0 15 69 136 83 146 4 3 12 13 17 22 9 16 41 57 100 129 15 18 38 52 50 76 26 51 62 79 128 98 25 7 54 17 63 22 23 13 57 12 71 -3z m322 -60 c3 -5 -3 -7 -14 -4 -12 3 -29 -4 -42 -18 -12 -14 -25 -21 -28 -18 -4 3 4 16 17 28 25 23 57 29 67 12z m-47 -69 c-7 -8 -18 -15 -25 -15 -6 0 -3 7 9 16 26 19 33 19 16 -1z m-83 -60 c-12 -19 -22 -27 -22 -18 0 19 31 66 39 58 3 -3 -4 -21 -17 -40z m157 18 c0 -28 -35 -104 -53 -115 -20 -12 -11 -26 16 -26 21 0 26 -5 22 -19 -4 -12 4 -30 21 -48 l27 -30 -23 -16 c-16 -11 -22 -24 -18 -41 3 -19 0 -25 -14 -25 -22 0 -31 -27 -19 -61 13 -35 -36 -93 -91 -108 -37 -11 -47 -9 -89 13 -29 15 -54 38 -65 60 -9 19 -25 43 -34 53 -21 23 -21 37 -1 54 9 7 16 21 16 32 0 11 5 20 10 20 13 0 95 78 95 90 0 16 35 47 53 47 17 0 37 39 58 113 4 14 41 32 70 33 13 0 19 -8 19 -26z m483 18 c0 -17 -40 -44 -55 -38 -12 4 -18 -5 -23 -38 -6 -37 -4 -46 17 -62 23 -19 24 -19 42 0 10 11 19 29 19 41 0 12 5 22 13 22 9 0 12 -23 9 -86 -3 -77 -15 -99 -24 -46 -6 34 -36 31 -51 -4 -16 -40 -13 -49 15 -45 18 3 19 1 9 -10 -24 -24 -16 -44 13 -36 32 8 37 -21 5 -31 -12 -3 -21 -16 -21 -27 0 -12 -5 -31 -11 -42 -7 -14 -7 -26 1 -41 9 -18 6 -26 -20 -47 -16 -14 -33 -40 -37 -57 -3 -18 -16 -42 -28 -54 -21 -21 -30 -77 -35 -238 -1 -15 -8 -24 -19 -24 -9 0 -22 -13 -27 -30 -13 -35 -74 -85 -104 -85 -42 0 -64 47 -70 152 -3 48 -30 120 -62 165 -11 16 -11 21 3 29 31 21 67 7 86 -34 10 -21 28 -44 40 -50 27 -15 76 -5 97 19 18 22 94 160 87 160 -3 0 2 22 10 49 20 65 19 142 -1 208 -14 45 -20 120 -16 186 2 29 81 103 111 103 15 0 27 -4 27 -9z m-447 -23 c4 -6 2 -10 -4 -10 -6 0 -11 4 -11 10 0 6 2 11 4 11 3 0 8 -5 11 -11z m-425 -42 c0 -6 -5 -10 -10 -10 -6 0 -11 4 -11 10 0 6 5 11 11 11 5 0 10 -5 10 -11z m831 -34 c-7 -7 -12 -8 -12 -1 0 14 12 26 19 19 3 -3 0 -11 -7 -18z m-674 -35 c-16 -19 -31 -19 -31 0 0 19 35 41 40 26 2 -6 -2 -17 -9 -26z m-78 12 c12 -9 16 -16 10 -16 -6 0 -19 7 -31 16 -11 8 -15 15 -10 15 6 0 20 -7 31 -15z m48 -66 c-9 -15 -11 -16 -11 -2 -1 18 11 33 18 26 2 -2 -1 -13 -7 -24z m-94 -125 c-12 -23 -22 -38 -22 -34 -1 14 32 85 38 79 3 -3 -5 -23 -16 -45z m-294 -42 c12 -11 20 -32 20 -53 0 -51 24 -104 59 -126 22 -15 46 -19 104 -16 63 2 77 -1 94 -19 10 -11 16 -21 12 -21 -4 0 -2 -12 4 -28 8 -21 7 -33 -5 -52 -20 -30 -21 -46 -2 -46 12 0 12 -6 2 -37 -7 -20 -16 -39 -20 -43 -13 -14 -7 -25 13 -25 17 0 19 -6 15 -45 -8 -68 -11 -75 -30 -60 -8 7 -26 11 -40 8 -21 -4 -24 -1 -20 20 5 27 24 45 24 23 0 -10 2 -10 12 -1 9 9 9 16 -2 28 -13 17 -7 99 10 132 14 27 -6 63 -36 63 -18 0 -31 8 -38 24 -18 39 -114 67 -114 34 0 -11 10 -16 30 -16 17 0 33 -7 36 -16 5 -12 -4 -15 -46 -15 -44 0 -52 3 -52 19 0 26 -27 78 -52 101 -12 11 -22 24 -22 31 0 6 -10 17 -23 23 -94 48 -113 60 -113 72 0 46 140 77 180 41z m1206 -28 c0 -28 -20 -83 -21 -57 0 4 -12 0 -26 -9 -23 -15 -26 -15 -26 -2 0 9 -3 31 -7 49 -5 25 -3 33 9 33 9 0 19 -8 23 -17 8 -21 27 -9 27 17 0 11 5 21 11 21 5 0 10 -16 10 -35z m-1430 -29 c-3 -17 5 -25 36 -36 50 -17 91 -44 99 -64 9 -24 -5 -31 -25 -13 -25 22 -82 51 -102 51 -21 0 -53 -62 -39 -76 7 -7 14 -3 22 11 14 26 45 29 63 7 16 -19 6 -37 -21 -37 -18 0 -19 -3 -8 -26 13 -29 -4 -86 -22 -74 -14 8 -26 -15 -15 -27 6 -6 31 -13 56 -18 59 -10 65 -29 14 -43 -55 -15 -104 -14 -117 2 -16 19 -18 107 -4 170 30 140 47 195 60 195 4 0 5 -10 3 -22z m1055 -52 c-14 -45 -27 -73 -35 -73 -5 0 -10 -11 -12 -24 -2 -18 -11 -25 -37 -27 -43 -4 -45 14 -4 38 36 20 64 63 64 99 0 14 3 29 8 33 9 10 22 -26 16 -46z m-577 -10 l15 -30 -54 -4 c-65 -6 -82 5 -39 23 18 7 37 19 44 27 16 20 16 20 34 -16z m65 -24 l17 -34 -22 25 c-12 13 -21 29 -21 34 0 18 10 8 26 -25z m835 -40 c14 -7 21 -22 21 -44 0 -34 -58 -162 -102 -228 -13 -20 -24 -43 -24 -50 0 -6 -6 -25 -12 -42 -7 -16 -13 -40 -14 -53 -1 -13 -10 -30 -21 -38 -11 -8 -22 -27 -24 -43 -5 -35 -70 -90 -161 -137 -29 -15 -34 -15 -61 1 -34 20 -57 90 -47 141 l6 33 35 -34 c31 -29 39 -32 74 -26 22 4 53 14 68 22 42 22 100 98 116 151 8 25 20 48 27 51 8 2 14 9 14 15 0 6 -8 8 -16 5 -19 -7 -19 9 -6 131 9 86 34 134 77 147 13 4 25 7 27 8 1 1 12 -4 23 -10z m-793 -10 c3 -6 15 -10 27 -10 26 0 26 -28 0 -42 -17 -9 -23 -6 -37 22 -9 18 -16 35 -16 37 0 8 20 3 26 -7z m593 -16 c0 -9 -5 -14 -11 -10 -6 3 -8 11 -4 16 9 15 15 12 15 -6z m-976 -37 c0 -12 -5 -19 -11 -15 -6 3 -10 13 -10 21 0 9 4 16 10 16 6 0 11 -10 11 -22z m544 -5 c23 -19 43 -26 79 -26 27 0 49 5 49 11 0 5 7 10 17 10 14 0 14 -3 3 -16 -7 -9 -10 -28 -6 -47 l6 -32 -32 17 c-19 10 -43 14 -58 10 -21 -5 -34 2 -68 36 -42 43 -52 45 -100 14 -15 -10 -25 -11 -30 -4 -7 11 61 50 91 52 9 1 31 -10 49 -25z m-171 -16 c9 -15 -17 -45 -29 -33 -10 10 0 44 13 44 5 0 12 -5 16 -11z m125 -33 c31 -14 33 -36 11 -109 -20 -64 -20 -96 -2 -131 8 -15 18 -41 22 -57 4 -17 17 -42 28 -56 28 -36 18 -40 -29 -9 -22 14 -59 32 -81 39 l-41 12 6 52 c8 62 -7 107 -41 130 -40 26 -29 57 38 102 32 21 59 39 60 39 1 0 14 -5 29 -12z m172 -122 c9 -12 12 -37 9 -79 -4 -47 -2 -62 9 -67 19 -7 10 -76 -12 -93 -11 -9 -11 -22 1 -71 10 -45 11 -60 2 -57 -7 3 -15 14 -17 25 -2 11 -12 31 -23 45 -11 13 -25 44 -31 68 -7 24 -18 50 -26 59 -37 43 -39 143 -3 186 16 19 71 10 91 -16z m54 -44 c0 -6 -5 -10 -10 -10 -6 0 -11 4 -11 10 0 6 5 11 11 11 5 0 10 -5 10 -11z m851 -52 c0 -6 -8 -11 -17 -11 -9 0 -13 5 -10 11 4 5 11 10 17 10 5 0 10 -5 10 -10z m-1214 -101 c30 -12 19 -33 -15 -28 -31 5 -38 13 -24 27 8 9 18 9 39 1z m34 -52 c22 -2 46 -4 54 -4 7 -1 18 -13 25 -28 8 -17 18 -24 28 -20 8 3 26 -5 40 -17 20 -20 23 -30 18 -66 -3 -24 -13 -63 -22 -87 -9 -24 -12 -54 -8 -66 4 -13 1 -36 -5 -53 -10 -24 -10 -35 4 -62 14 -27 15 -40 5 -73 -9 -32 -16 -40 -32 -36 -24 7 -23 5 -3 53 13 31 13 44 4 68 -7 16 -17 29 -21 29 -18 0 -62 -112 -62 -156 0 -50 4 -52 37 -21 25 22 47 19 47 -8 0 -20 -53 -98 -67 -98 -5 0 -4 8 4 18 28 34 42 66 35 78 -4 6 -15 -3 -27 -22 -12 -18 -25 -32 -30 -32 -19 0 -95 -93 -121 -147 -15 -32 -31 -61 -35 -63 -11 -9 -81 -157 -102 -216 -10 -29 -22 -55 -25 -57 -4 -3 -29 -51 -56 -107 -27 -56 -55 -104 -62 -107 -10 -3 -10 -9 0 -27 9 -14 11 -29 5 -36 -10 -13 -34 -91 -34 -111 0 -6 5 -11 11 -11 5 0 10 9 10 21 0 11 5 21 11 21 18 0 11 -60 -11 -79 -24 -22 -26 -42 -9 -140 11 -61 10 -76 -4 -105 -14 -28 -15 -46 -7 -98 6 -34 19 -80 31 -101 11 -22 20 -43 21 -48 0 -22 140 -160 202 -198 53 -34 59 -44 33 -59 -14 -8 -15 -13 -5 -33 12 -21 14 -22 31 -7 16 15 20 13 46 -20 24 -30 31 -53 40 -128 11 -94 13 -210 3 -225 -3 -5 -20 -9 -37 -9 -32 0 -33 1 -27 38 4 23 1 52 -8 73 -8 19 -12 37 -9 40 15 15 -52 143 -75 143 -6 0 -12 24 -13 53 -1 33 -12 74 -31 111 -26 53 -35 61 -77 75 -79 25 -120 75 -159 191 -30 89 -34 115 -37 237 -6 283 -8 291 -49 359 l-37 61 14 68 c23 108 39 147 128 315 52 97 80 143 105 171 12 13 30 39 40 59 16 31 65 97 135 180 13 15 37 58 54 95 18 37 49 90 70 119 21 28 41 63 44 78 14 72 -26 181 -77 210 -35 19 -42 38 -11 28 11 -3 38 -8 60 -11z m232 -111 c-2 -8 -7 -4 -11 11 -4 17 -3 21 5 13 6 -6 9 -17 6 -24z m-336 3 c2 -7 -3 -15 -13 -19 -22 -8 -29 -1 -20 21 7 19 26 18 33 -2z m702 -124 c-9 -118 -13 -134 -41 -146 -13 -6 -33 -28 -44 -50 -15 -28 -30 -42 -51 -46 -19 -4 -28 -12 -26 -23 3 -23 -33 -77 -46 -68 -6 3 -8 25 -4 51 7 46 -10 174 -28 208 -5 11 -12 31 -15 46 -2 15 -11 37 -20 49 -23 33 -19 60 4 31 30 -35 83 -58 118 -51 17 4 48 25 70 48 24 25 50 41 65 41 l25 1 -7 -91z m-323 41 c6 -16 14 -50 18 -76 4 -26 11 -54 16 -63 28 -51 28 -151 -2 -318 -10 -57 -17 -71 -32 -71 -26 0 -44 -63 -23 -80 13 -10 13 -14 -1 -28 -9 -9 -20 -18 -24 -20 -13 -5 -71 -84 -91 -121 -9 -18 -26 -36 -37 -39 -19 -7 -74 -80 -74 -99 0 -6 9 -8 21 -5 38 11 21 -32 -61 -149 -39 -55 -40 -57 -18 -57 20 0 20 -20 -1 -28 -12 -5 -14 -15 -9 -37 7 -34 -11 -42 -22 -8 -15 47 -37 8 -68 -122 -7 -29 -15 -69 -17 -89 -3 -20 -10 -41 -15 -47 -17 -16 -11 -33 16 -47 21 -12 24 -17 14 -29 -14 -17 -22 -109 -11 -118 5 -3 17 -19 27 -35 10 -16 23 -26 28 -23 16 10 12 45 -6 55 -13 8 -15 19 -7 61 7 42 12 52 32 55 26 4 38 -16 30 -52 l-4 -25 -8 24 c-9 26 -26 32 -26 8 0 -9 7 -35 16 -58 17 -42 17 -43 -10 -68 -30 -27 -36 -47 -14 -48 7 0 29 -24 48 -52 20 -29 40 -52 45 -52 5 0 9 -8 9 -16 0 -9 5 -16 12 -16 6 0 27 -17 46 -38 19 -20 43 -38 53 -40 15 -2 19 -14 20 -61 1 -39 7 -64 19 -76 27 -26 22 -57 -9 -69 -24 -9 -27 -14 -19 -39 10 -36 10 -66 -1 -134 -5 -29 -9 -62 -10 -73 -2 -35 -29 -104 -50 -130 -10 -14 -19 -37 -19 -50 0 -24 3 -25 45 -19 46 7 67 18 113 55 50 42 59 55 74 98 19 59 99 139 209 210 49 32 95 65 102 73 6 8 38 67 70 130 52 102 66 122 121 163 92 71 116 110 118 191 1 81 15 108 75 156 31 23 61 62 86 110 64 120 121 170 205 179 20 3 68 10 106 16 39 7 82 9 96 6 35 -9 46 -39 22 -57 -16 -11 -21 -11 -31 2 -15 21 -33 21 -81 1 -25 -11 -38 -23 -38 -36 -1 -11 -10 -41 -22 -68 -15 -34 -25 -87 -31 -168 -7 -90 -15 -132 -36 -179 -17 -38 -29 -87 -31 -128 -3 -43 -12 -78 -26 -102 -13 -20 -23 -47 -23 -61 0 -13 -19 -54 -42 -91 -23 -36 -42 -68 -42 -72 1 -18 -46 -67 -61 -64 -12 2 -18 -6 -20 -25 -4 -31 -28 -53 -205 -187 -59 -44 -123 -96 -142 -114 -20 -18 -43 -33 -53 -33 -9 -1 -33 -17 -54 -36 -20 -20 -60 -48 -87 -63 -28 -15 -67 -41 -87 -59 -20 -17 -43 -31 -50 -31 -7 -1 -39 -17 -70 -37 -32 -21 -63 -35 -71 -32 -7 3 -13 0 -13 -5 0 -6 -5 -10 -11 -10 -6 0 6 20 27 46 28 34 48 48 76 53 44 8 70 27 106 78 31 43 24 78 -20 96 -17 7 -40 23 -50 36 -21 27 -42 23 -54 -10 -11 -27 -77 -52 -167 -64 -36 -5 -65 -16 -79 -29 -12 -12 -31 -22 -43 -22 -26 -1 -38 -48 -11 -48 9 0 16 -7 16 -16 0 -10 -10 -15 -31 -15 -18 0 -32 -5 -32 -11 0 -12 6 -15 70 -31 25 -6 58 -23 75 -38 17 -14 44 -25 60 -25 36 0 30 -20 -14 -46 -40 -23 -65 -17 -65 17 0 23 -4 25 -60 26 -42 1 -64 7 -73 18 -6 10 -29 20 -50 23 -23 4 -37 12 -37 22 0 12 -10 14 -40 10 -65 -10 -165 -35 -197 -51 -43 -20 -100 -121 -104 -183 -5 -65 -23 -82 -32 -29 -8 49 9 141 32 176 29 44 82 77 136 85 29 4 69 11 89 16 20 5 54 11 76 14 47 6 90 35 134 91 20 25 42 42 56 42 13 0 30 4 39 10 12 9 13 12 1 20 -11 7 -8 22 17 76 17 37 34 81 39 98 10 44 7 305 -4 333 -5 13 -17 47 -27 74 -15 42 -22 50 -45 50 -52 0 -155 61 -209 122 -43 49 -54 71 -70 139 -21 86 -25 297 -7 369 17 69 50 176 66 211 9 20 22 55 30 78 8 23 24 59 38 81 13 21 24 42 24 45 0 13 71 151 100 194 18 26 40 61 49 79 14 28 119 228 159 304 9 18 23 48 31 69 8 20 20 50 28 68 24 58 40 171 31 213 -12 49 -12 55 -1 55 5 0 14 -13 21 -29z m-72 -50 c0 -9 -5 -16 -10 -16 -6 0 -11 7 -11 16 0 8 5 16 11 16 5 0 10 -8 10 -16z m-4 -106 c-6 -17 -27 -21 -27 -5 0 5 5 23 12 39 12 29 12 29 16 5 3 -13 2 -31 -1 -39z m172 -188 c0 -2 -5 -7 -10 -11 -6 -3 -11 -1 -11 5 0 6 5 11 11 11 5 0 10 -2 10 -5z m42 -95 c-9 -11 -17 -13 -24 -6 -7 7 -6 16 3 27 9 11 17 13 24 6 7 -7 6 -16 -3 -27z m-56 -13 c-2 -10 -5 -4 -5 13 0 18 2 26 5 19 3 -7 3 -21 0 -32z m-406 -138 c0 -10 -29 -43 -37 -43 -3 0 1 12 7 26 12 26 30 36 30 17z m262 -154 c-19 -23 -23 -11 -8 22 11 23 15 26 17 12 2 -10 -2 -25 -9 -34z m95 1 c-5 -20 -6 -37 -4 -37 3 0 2 -5 -2 -11 -4 -7 -12 -4 -20 8 -12 16 -12 21 1 35 8 9 15 25 15 35 0 10 4 16 9 12 5 -3 6 -22 1 -42z m-42 -114 c0 -52 -5 -75 -24 -103 -38 -56 -100 -209 -107 -263 -6 -42 -4 -50 14 -55 27 -9 37 -60 15 -77 -10 -7 -23 -13 -30 -13 -18 0 -26 -42 -15 -79 5 -17 12 -44 16 -60 3 -17 15 -38 26 -47 12 -10 21 -26 21 -36 0 -10 4 -21 10 -24 5 -3 6 -16 3 -28 -4 -18 -2 -20 22 -14 58 14 122 -47 89 -87 -20 -24 2 -35 40 -19 47 20 67 11 67 -28 0 -28 -2 -30 -16 -19 -12 11 -22 11 -43 2 -35 -17 -62 -16 -77 2 -7 8 -35 21 -63 27 -147 36 -227 218 -186 427 10 50 23 98 30 106 6 8 13 27 15 43 1 15 7 45 12 66 12 46 162 346 173 346 4 0 8 -31 8 -67z m-124 1 c-21 -47 -33 -50 -33 -10 0 21 7 34 23 41 13 6 25 10 26 9 1 -1 -6 -19 -16 -40z m177 8 c0 -2 -5 -7 -11 -11 -6 -3 -10 -1 -10 5 0 6 4 11 10 11 6 0 11 -2 11 -5z m-545 -75 c-12 -23 -22 -37 -22 -33 -1 12 34 82 39 77 2 -2 -6 -22 -17 -44z m524 -23 c0 -5 -8 -18 -16 -29 -15 -19 -15 -18 -4 9 12 29 20 36 20 20z m-567 -96 c-7 -12 -17 -19 -23 -16 -6 5 -4 14 6 25 9 10 17 25 18 33 1 10 3 9 6 -3 2 -9 -1 -27 -7 -39z m510 -56 c-14 -55 -22 -119 -22 -178 0 -51 -3 -92 -7 -92 -11 0 -23 110 -16 149 19 110 48 208 63 208 2 0 -6 -39 -18 -87z m-556 -51 c-12 -22 -26 -40 -31 -40 -15 -1 -7 36 14 72 32 52 48 22 17 -32z m690 49 c3 -10 0 -13 -10 -9 -16 6 -21 25 -6 25 6 0 12 -7 16 -16z m-357 -21 c-4 -9 -8 -16 -10 -16 -3 0 -4 7 -4 16 0 8 4 16 10 16 5 0 7 -8 4 -16z m269 6 c0 -5 20 -30 45 -55 24 -24 49 -61 55 -82 13 -43 45 -57 54 -22 12 43 36 15 34 -40 l0 -28 -12 27 c-12 24 -13 23 -16 -24 -2 -27 2 -59 8 -71 6 -12 9 -31 5 -42 -4 -14 -1 -23 10 -27 9 -4 17 -16 17 -27 0 -11 7 -32 16 -46 10 -14 15 -36 12 -47 -6 -23 13 -84 26 -84 5 0 9 -9 9 -20 0 -12 9 -28 22 -36 22 -16 19 -38 -6 -38 -14 0 -33 -51 -23 -60 3 -3 -2 -25 -11 -49 -26 -69 -32 -99 -72 -334 -5 -26 -22 -52 -53 -83 -56 -56 -75 -47 -47 22 31 75 53 154 59 207 2 28 9 64 14 81 24 82 38 201 38 328 0 126 -2 140 -21 154 -12 9 -29 16 -38 17 -9 0 -31 7 -48 15 -85 43 -127 144 -114 278 4 43 9 82 12 87 7 12 25 11 25 -1z m-275 -136 c-7 -32 -15 -50 -19 -43 -7 11 19 110 26 102 2 -1 -1 -28 -7 -59z m-556 -25 c16 -50 12 -177 -7 -199 -13 -16 -13 -21 1 -43 9 -13 18 -50 21 -82 9 -97 35 -197 70 -267 43 -88 77 -128 117 -136 23 -6 45 -25 79 -71 47 -64 54 -81 35 -81 -30 0 -88 35 -143 87 -62 59 -73 75 -124 191 -16 34 -35 77 -43 94 -46 101 -71 368 -46 488 14 61 25 67 40 19z m485 3 c0 -12 -7 -21 -16 -21 -16 0 -22 22 -9 35 13 13 25 6 25 -14z m9 -42 c10 -6 12 -16 6 -28 -20 -47 -23 -73 -11 -106 4 -15 3 -24 -4 -24 -6 0 -11 5 -11 11 0 21 -22 9 -32 -17 -8 -22 -13 -25 -25 -16 -13 11 -13 18 0 49 8 19 15 47 15 61 0 37 18 80 34 80 7 0 20 -4 28 -10z m270 -126 c8 0 15 -7 15 -15 0 -14 71 -83 107 -102 13 -7 19 -18 15 -32 -3 -12 2 -24 14 -30 11 -6 18 -17 17 -26 -3 -23 -17 -33 -17 -12 0 13 -6 16 -25 11 -21 -5 -29 -1 -42 25 -9 17 -33 42 -53 54 -28 18 -38 32 -43 62 -3 21 -10 53 -16 70 -13 43 -11 61 2 23 6 -16 17 -28 26 -28z m-304 -55 c-3 -8 -6 -6 -6 6 -1 11 2 18 5 14 4 -3 4 -12 1 -20z m505 -33 c24 -15 3 -27 -31 -17 -51 15 -63 33 -19 28 21 -2 43 -7 50 -11z m220 -108 c3 -9 -1 -39 -10 -65 l-16 -49 1 65 c2 64 11 84 25 49z m-631 -73 c12 -25 14 -41 7 -48 -13 -13 -59 61 -51 82 8 21 23 9 44 -34z m403 4 c0 -7 -7 -6 -16 2 -8 7 -15 15 -15 17 0 2 7 1 15 -3 9 -3 16 -11 16 -16z m267 -25 c9 -24 8 -28 -6 -23 -14 4 -22 40 -9 40 4 0 11 -8 15 -17z m75 -69 c14 -27 15 -34 3 -42 -36 -22 -54 -5 -44 42 8 42 19 42 41 0z m-672 11 c3 -6 18 -15 32 -20 14 -6 25 -15 25 -21 0 -16 -27 -13 -42 5 -7 9 -17 13 -23 10 -6 -4 -2 -15 8 -27 17 -19 17 -19 -8 -19 -32 0 -56 24 -44 44 24 38 40 47 52 28z m68 1 c0 -6 -3 -10 -5 -10 -3 0 -8 4 -11 10 -4 6 -2 11 4 11 6 0 12 -5 12 -11z m57 -21 c4 -6 0 -10 -9 -10 -9 0 -19 4 -22 10 -4 6 0 11 9 11 9 0 19 -5 22 -11z m56 -20 c3 -8 -1 -12 -9 -10 -8 3 -16 11 -19 19 -2 8 2 12 10 9 7 -2 16 -11 18 -18z m81 -37 c8 -8 21 -17 28 -19 10 -3 8 -12 -5 -33 -11 -16 -16 -37 -13 -49 9 -26 27 -27 27 0 0 11 4 23 10 27 14 8 13 2 -6 -65 -9 -31 -14 -64 -11 -71 3 -8 -2 -18 -11 -21 -11 -4 -14 -14 -9 -38 5 -22 2 -40 -10 -58 -9 -14 -19 -48 -23 -75 -3 -28 -16 -61 -27 -73 -11 -13 -17 -28 -13 -35 4 -6 -1 -27 -10 -46 -9 -19 -22 -53 -29 -75 -10 -30 -27 -48 -64 -71 -28 -17 -53 -28 -57 -25 -3 4 11 38 31 78 33 63 67 164 93 276 35 154 41 193 41 269 0 47 3 93 6 102 8 21 33 22 52 2z m228 -21 c-7 -37 -13 -34 -13 5 0 18 4 30 9 27 5 -3 7 -18 4 -32z m176 -1 c0 -15 -7 -29 -16 -33 -25 -9 -34 7 -13 22 10 8 19 19 19 26 0 6 2 12 5 12 3 0 5 -12 5 -27z m-598 1 c0 -3 -5 -8 -11 -11 -6 -4 -10 -2 -10 4 0 6 4 12 10 12 6 0 11 -3 11 -5z m493 -32 c0 -33 16 -35 26 -3 7 23 7 23 16 -7 8 -24 4 -41 -17 -84 -51 -101 -83 -152 -112 -174 -26 -21 -28 -21 -28 -3 0 10 15 59 32 108 18 49 37 106 42 126 17 59 19 63 30 63 6 0 11 -12 11 -26z m652 -92 c0 -42 5 -100 11 -129 5 -29 13 -79 16 -113 3 -33 10 -63 15 -66 5 -3 10 -15 10 -27 0 -12 7 -36 17 -55 28 -55 32 -64 40 -99 4 -18 12 -33 17 -33 5 0 10 -8 10 -17 0 -23 51 -88 69 -88 8 0 18 -8 21 -16 4 -9 15 -16 25 -16 10 0 21 -7 25 -16 4 -11 23 -15 69 -15 35 0 64 3 64 8 0 7 91 44 109 44 13 0 6 -210 -9 -254 -8 -25 -17 -72 -19 -105 -3 -33 -9 -66 -15 -74 -16 -20 -35 -118 -35 -176 0 -31 -6 -57 -16 -67 -8 -8 -15 -30 -15 -47 0 -18 -5 -35 -11 -38 -6 -4 -10 -17 -10 -30 0 -13 -7 -33 -16 -44 -8 -12 -15 -36 -16 -55 0 -19 -4 -34 -10 -34 -8 0 -19 -33 -41 -136 -5 -21 -13 -47 -19 -58 -6 -12 -19 -36 -28 -54 -10 -19 -17 -43 -17 -55 0 -13 -5 -22 -11 -22 -6 0 -10 -12 -10 -27 0 -14 -12 -51 -27 -81 -14 -29 -26 -62 -26 -72 0 -10 -7 -26 -16 -34 -8 -9 -16 -22 -16 -30 0 -8 -11 -37 -26 -66 -14 -29 -25 -63 -26 -76 0 -13 -4 -24 -10 -24 -5 0 -12 -14 -16 -31 -4 -18 -12 -32 -17 -32 -5 0 -9 -10 -9 -21 0 -12 -8 -24 -16 -28 -9 -3 -16 -17 -16 -30 0 -13 -4 -26 -9 -28 -12 -4 -91 -133 -101 -164 -4 -13 -11 -23 -17 -23 -5 0 -9 -7 -9 -15 0 -9 -12 -38 -27 -65 -14 -27 -26 -64 -26 -83 0 -19 -12 -51 -26 -72 -15 -22 -26 -43 -26 -48 0 -4 -8 -14 -16 -21 -9 -8 -16 -22 -16 -33 0 -11 -5 -20 -10 -20 -6 0 -14 -12 -17 -26 -4 -15 -11 -26 -16 -26 -5 0 -9 -10 -9 -21 0 -21 -32 -87 -45 -93 -4 -2 -8 -12 -8 -21 -1 -10 -8 -27 -16 -38 -9 -11 -15 -31 -15 -45 0 -13 -5 -24 -10 -24 -5 0 -13 -14 -17 -31 -4 -18 -11 -34 -16 -38 -6 -3 -10 -19 -10 -35 0 -17 -7 -33 -16 -36 -8 -4 -16 -14 -15 -23 0 -9 -12 -34 -27 -55 -14 -21 -26 -51 -26 -65 -1 -15 -8 -36 -16 -47 -9 -11 -15 -29 -15 -40 0 -10 -5 -18 -11 -18 -6 0 -11 -13 -11 -29 0 -31 -32 -144 -45 -157 -4 -4 -7 -17 -7 -30 0 -13 -7 -29 -16 -37 -8 -7 -15 -21 -15 -31 0 -10 -8 -32 -16 -49 -9 -16 -16 -42 -16 -58 0 -16 -5 -31 -10 -35 -6 -3 -11 -26 -11 -50 0 -25 -5 -61 -11 -81 -6 -20 -16 -114 -22 -207 -9 -140 -9 -174 2 -188 13 -15 15 -15 22 3 8 18 8 18 6 -2 -3 -32 32 -96 55 -103 12 -3 21 -10 22 -16 0 -7 -12 -7 -33 -1 -17 5 -39 6 -47 3 -17 -6 -21 -45 -4 -45 5 0 10 -11 10 -24 1 -40 54 -106 95 -117 20 -6 41 -16 47 -22 17 -19 47 -80 47 -96 0 -8 7 -18 16 -21 8 -4 16 -14 16 -24 0 -10 3 -22 7 -26 11 -11 34 -80 45 -132 16 -85 33 -142 43 -152 5 -6 10 -30 10 -54 0 -25 4 -46 11 -48 6 -2 15 -30 20 -62 15 -92 32 -157 43 -157 5 0 10 -16 10 -36 0 -20 4 -39 9 -42 5 -3 13 -30 17 -59 4 -28 11 -52 16 -52 6 0 10 -27 10 -60 0 -34 5 -77 12 -98 7 -20 16 -76 20 -125 8 -84 23 -192 31 -216 2 -6 0 -18 -4 -27 -4 -9 -2 -58 4 -110 7 -52 11 -109 11 -128 0 -19 -1 -52 -2 -73 0 -22 3 -66 7 -99 5 -38 3 -66 -5 -82 -8 -15 -14 -102 -16 -254 -2 -127 -6 -234 -9 -237 -7 -7 -81 38 -80 49 0 8 -43 53 -85 91 -43 37 -83 89 -90 115 -3 14 -12 26 -18 26 -7 0 -24 17 -38 38 -15 20 -35 46 -45 57 -10 11 -18 24 -18 28 0 4 -12 26 -27 47 -14 21 -26 46 -26 55 0 9 -4 16 -10 16 -5 0 -13 10 -17 23 -4 12 -23 39 -43 59 -19 21 -38 48 -42 62 -3 13 -10 24 -15 24 -5 0 -9 7 -9 15 0 8 -26 42 -58 74 -32 32 -58 62 -58 66 0 4 -19 26 -42 49 -23 23 -42 45 -42 51 0 13 -28 39 -41 39 -6 0 -11 10 -11 22 0 12 -6 28 -14 35 -35 37 -59 69 -65 89 -4 12 -11 22 -15 22 -5 0 -12 8 -16 18 -3 10 -20 42 -37 71 -17 29 -39 69 -49 88 -10 19 -24 37 -32 40 -8 3 -14 17 -14 31 0 14 -4 25 -9 25 -5 0 -18 18 -29 39 -11 22 -26 46 -33 53 -7 8 -13 21 -13 29 0 9 -4 16 -9 15 -5 0 -12 19 -16 42 -4 24 -11 43 -16 43 -5 0 -12 11 -16 26 -3 14 -11 26 -17 26 -5 0 -10 12 -10 26 0 15 -4 27 -9 27 -6 0 -13 11 -16 26 -4 14 -12 26 -17 26 -6 0 -10 7 -11 16 0 9 -4 24 -9 34 -23 42 -43 91 -43 104 0 8 -5 14 -10 14 -6 0 -14 19 -17 42 -4 23 -11 42 -16 42 -5 0 -9 12 -9 26 0 15 -5 27 -11 27 -6 0 -10 4 -11 11 0 17 -40 102 -52 109 -6 4 -10 20 -10 36 0 17 -7 33 -16 36 -9 4 -16 16 -16 27 0 11 -4 22 -8 24 -11 5 -44 79 -44 98 0 9 -5 16 -10 16 -5 0 -12 11 -16 26 -3 14 -11 26 -17 26 -5 0 -10 12 -10 26 0 15 -4 26 -10 26 -5 0 -13 15 -17 34 -4 18 -18 54 -32 80 -14 26 -25 51 -25 56 0 5 -19 39 -42 76 -23 37 -42 72 -42 79 0 6 -5 12 -10 12 -6 0 -11 6 -11 14 0 15 -31 81 -43 90 -4 3 -10 16 -14 29 -4 13 -12 24 -17 24 -6 0 -10 7 -10 16 0 8 -5 16 -10 16 -6 0 -11 8 -11 19 0 10 -14 29 -31 42 -21 15 -32 32 -32 49 0 14 -4 26 -8 26 -4 0 -16 15 -26 32 -17 29 -17 36 -3 70 9 20 16 60 16 88 0 28 5 52 11 52 5 0 10 11 10 26 0 14 5 26 11 26 5 0 10 5 10 12 0 6 7 26 15 44 8 18 18 51 21 73 4 21 11 39 17 39 5 0 10 14 10 30 0 17 7 36 16 44 8 7 16 21 16 32 0 10 4 21 9 24 5 3 11 21 14 40 7 40 56 151 71 161 6 3 11 15 11 27 0 11 4 20 9 20 5 0 12 13 16 29 4 16 11 31 15 34 10 8 30 41 54 92 12 24 26 45 32 45 5 0 10 4 10 10 0 6 6 18 13 27 33 40 46 59 89 144 8 16 19 29 25 29 5 0 10 5 10 12 0 7 19 35 42 63 24 28 48 61 55 74 22 40 75 118 84 122 4 2 8 10 8 18 0 8 7 15 15 15 9 0 16 9 16 22 0 13 12 34 26 47 15 14 26 30 26 37 0 7 12 28 27 47 14 19 26 40 26 46 0 6 7 14 16 18 8 3 16 17 16 31 0 14 4 25 10 25 6 0 11 10 11 21 0 12 7 24 15 28 9 3 16 15 16 26 0 11 7 23 16 26 8 4 16 13 16 21 0 8 4 15 9 15 5 0 12 18 16 42 3 23 11 42 17 42 5 0 10 13 10 30 0 17 5 34 11 38 5 3 10 19 10 35 0 16 7 38 15 49 9 12 16 36 16 54 0 19 5 36 10 40 5 3 13 26 16 50 4 25 11 54 16 66 5 11 14 122 20 247 11 242 8 268 -38 288 -13 6 -23 14 -23 18 0 5 -8 9 -16 9 -9 0 -16 6 -16 13 0 15 -69 77 -107 98 -24 12 -18 18 25 29 15 3 41 21 57 38 19 20 41 32 58 32 18 0 41 12 61 32 26 26 36 30 47 21 10 -9 17 -9 21 -2 11 18 132 13 190 -8 62 -21 142 -65 142 -77 0 -5 7 -8 15 -8 9 0 16 -5 16 -11 0 -24 40 -55 62 -48 33 11 30 66 -4 81 -15 7 -26 16 -26 21 0 5 -5 9 -12 9 -6 0 -21 12 -35 26 -13 15 -34 27 -45 27 -12 0 -27 7 -35 15 -7 9 -26 16 -42 16 -16 0 -42 7 -59 16 -16 8 -44 15 -61 15 -30 0 -30 1 -10 19 11 10 43 30 71 45 73 37 91 48 104 61 7 7 23 12 36 12 14 0 25 5 25 11 0 5 6 10 13 10 8 0 21 12 29 26 7 15 20 27 28 27 7 0 14 3 14 7 0 5 17 20 39 34 22 15 42 29 45 33 2 3 13 9 24 13 11 4 22 17 25 28 3 12 10 21 15 21 6 0 42 30 79 66 107 101 108 102 113 102 9 0 69 65 69 75 0 15 33 62 43 62 23 0 6 -105 -33 -205 -10 -24 -17 -60 -33 -168 -6 -41 -15 -83 -21 -95 -20 -43 7 -382 32 -407 16 -16 15 -100 -2 -117 -19 -19 -33 -72 -70 -258 -13 -66 -36 -145 -45 -153 -4 -5 -8 -25 -8 -46 0 -20 -7 -46 -16 -58 -8 -11 -15 -29 -15 -39 0 -10 -5 -19 -12 -19 -7 0 -9 18 -4 55 14 112 2 265 -22 289 -8 8 -14 30 -14 48 0 21 -10 44 -25 60 -14 15 -27 38 -31 52 -19 81 -28 109 -38 119 -6 6 -11 24 -11 41 0 19 -6 29 -16 29 -13 0 -16 -16 -16 -78 0 -43 5 -81 11 -85 5 -3 10 -18 10 -32 0 -14 4 -25 10 -25 14 0 53 -68 53 -93 0 -12 5 -23 12 -25 45 -15 44 -398 -2 -443 -5 -6 -10 -21 -10 -34 0 -13 -5 -27 -10 -30 -6 -4 -11 -17 -11 -30 0 -12 -7 -35 -15 -51 -8 -15 -18 -43 -22 -60 -3 -18 -11 -32 -16 -32 -6 0 -10 -16 -10 -36 0 -20 -7 -49 -16 -66 -17 -32 -19 -70 -9 -132 7 -38 25 -56 25 -24 0 9 7 16 16 16 8 0 16 7 16 16 0 8 4 16 9 16 5 0 15 38 23 84 8 50 21 94 33 107 10 12 19 35 19 52 0 16 4 30 10 30 6 0 11 14 11 31 0 19 6 35 15 38 9 4 16 18 16 31 0 14 4 26 10 26 5 0 13 15 17 34 4 18 11 38 15 44 4 6 11 25 14 42 13 66 33 132 41 132 4 0 8 13 8 29 0 16 6 38 14 50 8 11 17 37 21 57 10 62 32 137 41 137 4 0 8 22 8 49 1 28 8 59 16 71 9 11 16 31 16 44 0 14 4 25 10 25 13 0 14 101 1 109 -5 3 -12 25 -16 50 -4 24 -12 50 -18 57 -22 27 7 434 38 526 4 12 14 25 22 28 11 4 15 26 15 78 0 39 5 76 11 82 12 12 29 90 42 198 11 93 33 184 44 184 4 0 8 -34 9 -76z m-1534 3 c0 -6 -7 -8 -16 -4 -8 3 -15 8 -15 10 0 2 7 4 15 4 9 0 16 -5 16 -10z m466 -93 c5 -9 -17 -99 -35 -138 l-12 -27 6 26 c2 14 0 32 -7 39 -8 10 -8 14 1 14 6 0 12 17 12 40 0 22 3 44 7 48 9 9 22 8 28 -2z m70 -547 c0 -6 -4 -13 -9 -16 -5 -3 -9 2 -9 10 0 9 4 16 9 16 5 0 9 -5 9 -10z m-189 -42 c0 -16 -25 -27 -53 -23 -42 5 -50 16 -16 23 48 11 69 10 69 0z m73 -143 c-8 -14 -20 -26 -28 -26 -20 0 -17 11 9 39 28 29 38 23 19 -13z m-567 -83 c0 -2 -7 -7 -16 -10 -10 -4 -14 -2 -10 4 6 10 26 15 26 6z m693 -16 c0 -6 -5 -11 -10 -11 -6 0 -11 5 -11 11 0 5 5 10 11 10 5 0 10 -5 10 -10z m-717 -37 c0 -8 -5 -13 -9 -10 -5 3 -7 10 -3 16 8 13 12 12 12 -6z m460 -16 c3 -5 -9 -21 -27 -36 -28 -23 -42 -27 -106 -27 -87 0 -135 -19 -185 -72 -39 -41 -55 -38 -29 6 39 67 182 129 239 104 12 -6 25 0 42 17 22 23 54 27 66 8z m-473 -31 c4 -6 2 -11 -4 -11 -6 0 -11 5 -11 11 0 5 2 10 4 10 3 0 8 -5 11 -10z m163 -33 c0 -5 -9 -9 -21 -9 -23 0 -29 16 -8 23 16 6 29 0 29 -14z m-173 -164 c13 -18 15 -18 34 0 18 16 55 25 55 13 0 -18 -27 -58 -39 -58 -23 0 -108 41 -108 53 0 17 44 11 58 -8z m1335 -708 c-3 -9 -6 -6 -6 6 -1 11 2 17 5 14 4 -4 4 -13 1 -20z m-33 -111 c-4 -16 -17 -43 -28 -61 l-21 -31 6 36 c6 35 32 85 44 85 4 0 3 -13 -1 -29z m-263 -2355 c4 -6 -1 -10 -10 -10 -9 0 -16 4 -16 10 0 6 4 11 10 11 5 0 13 -5 16 -11z m37 -130 c0 -2 -9 -7 -21 -10 -12 -3 -21 -1 -21 4 0 6 9 10 21 10 12 0 21 -2 21 -4z m-1669 -2280 c0 -8 -5 -15 -11 -15 -6 0 -10 7 -10 15 0 9 4 16 10 16 6 0 11 -7 11 -16z m2278 -141 c0 -6 -17 -11 -37 -11 -21 0 -35 4 -33 8 8 13 70 15 70 3z m326 -1450 c0 -12 -5 -19 -11 -15 -6 3 -10 13 -10 21 0 9 4 16 10 16 6 0 11 -10 11 -22z"/>
		<path d="M1460 12044 c0 -6 4 -11 10 -11 6 0 11 5 11 11 0 5 -5 10 -11 10 -6 0 -10 -5 -10 -10z"/>
		<path d="M1896 12044 c-8 -12 12 -25 26 -16 11 7 4 26 -11 26 -5 0 -12 -4 -15 -10z"/>
		<path d="M1593 11594 c-23 -25 -8 -47 29 -42 37 4 60 36 37 51 -24 15 -47 12 -66 -9z"/>
		<path d="M2192 11281 c-5 -4 -8 -15 -8 -24 0 -11 3 -13 12 -4 6 6 10 17 7 24 -2 6 -7 8 -11 4z"/>
		<path d="M2149 11214 c-21 -30 -24 -88 -5 -81 13 4 33 76 26 95 -1 6 -11 0 -21 -14z"/>
		<path d="M1386 10375 c0 -21 34 -39 52 -27 17 10 13 33 -6 41 -30 11 -46 6 -46 -14z"/>
		<path d="M1355 8432 c0 -6 7 -11 15 -11 9 0 16 5 16 11 0 5 -7 10 -16 10 -8 0 -15 -5 -15 -10z"/>
		<path d="M1984 10625 c-6 -11 -9 -27 -7 -34 2 -7 12 3 22 22 10 19 13 34 7 34 -6 0 -15 -10 -22 -22z"/>
		<path d="M1963 10518 c-15 -33 -6 -50 15 -28 9 10 12 23 7 36 -8 20 -9 19 -22 -8z"/>
		<path d="M1418 9667 c0 -8 -14 -33 -30 -55 -34 -48 -58 -99 -50 -107 3 -3 -3 -12 -13 -19 -13 -10 -15 -17 -6 -26 19 -18 36 -3 36 33 0 19 5 31 14 31 8 0 17 14 21 32 4 20 14 35 26 38 12 3 23 18 27 37 9 45 8 50 -10 50 -8 0 -15 -6 -15 -14z"/>
		<path d="M2619 9291 c-21 -19 -50 -60 -64 -92 -24 -53 -27 -72 -27 -191 0 -73 3 -142 7 -154 12 -39 40 -38 77 2 38 42 43 59 16 59 -16 0 -15 3 6 23 19 20 25 21 33 8 18 -28 24 -1 26 108 2 108 19 197 37 197 18 0 11 37 -9 56 -28 26 -59 21 -102 -16z m42 2 c4 -5 2 -13 -4 -16 -6 -4 -11 1 -11 10 0 18 6 21 15 6z"/>
		<path d="M2419 9041 c-36 -15 -52 -68 -37 -123 14 -52 9 -82 -21 -148 -17 -35 -19 -51 -11 -78 6 -19 16 -67 21 -107 13 -88 22 -98 65 -80 53 22 84 52 84 80 0 18 7 29 22 33 13 3 19 11 15 21 -3 9 3 17 17 21 19 5 21 11 17 45 -4 28 -1 44 12 57 16 16 14 16 -28 10 -31 -5 -44 -3 -44 5 0 7 -12 23 -27 37 -29 27 -31 39 -14 121 21 101 -1 134 -71 106z"/>
		<path d="M2215 8675 c-83 -87 -111 -133 -113 -186 -2 -39 3 -56 21 -75 12 -13 28 -24 35 -24 17 0 40 -38 56 -92 7 -25 19 -45 26 -45 37 0 123 100 123 144 0 15 -9 28 -24 35 -23 10 -24 17 -24 130 0 162 -26 191 -100 113z m-41 -191 c0 -6 -10 -10 -21 -10 -12 0 -21 4 -21 10 0 6 9 11 21 11 11 0 21 -5 21 -11z"/>
		<path d="M2010 8378 c-41 -12 -83 -56 -72 -74 19 -30 14 -40 -11 -24 -28 19 -79 10 -79 -13 0 -8 -11 -25 -25 -38 -13 -13 -27 -36 -31 -52 -5 -18 -12 -26 -21 -23 -8 3 -20 -2 -27 -10 -20 -24 -1 -72 31 -77 14 -2 42 -20 63 -40 26 -26 47 -36 70 -36 31 0 33 1 44 64 12 69 33 107 33 60 0 -58 45 -66 104 -19 39 32 39 33 46 126 8 105 -1 141 -37 149 -13 3 -31 8 -40 11 -9 3 -30 1 -48 -4z m6 -51 c-21 -13 -35 -2 -20 17 9 11 16 12 24 4 8 -9 7 -15 -4 -21z m-100 -116 c4 -6 4 -10 2 -10 -3 0 -13 -3 -22 -7 -12 -5 -15 -2 -10 11 7 19 21 22 30 6z"/>
		<path d="M1670 9094 c0 -10 24 -22 44 -22 7 0 3 7 -8 15 -24 18 -36 21 -36 7z"/>
		<path d="M1165 5610 c0 -10 -7 -36 -14 -58 -8 -22 -11 -39 -8 -39 17 0 65 78 65 105 0 19 -42 11 -43 -8z"/>
		<path d="M1281 5316 c-9 -3 -31 -20 -50 -38 -44 -41 -44 -81 -3 -147 34 -53 73 -71 51 -23 -6 15 -16 27 -21 27 -5 0 -8 10 -8 23 0 22 1 21 23 -8 13 -16 36 -42 51 -57 15 -15 30 -34 33 -43 3 -9 25 -25 49 -37 60 -28 58 -50 -4 -41 -45 7 -47 6 -47 -19 0 -28 41 -76 74 -87 20 -6 56 19 141 101 44 43 68 41 68 -4 0 -79 -45 -133 -111 -133 -28 0 -32 -10 -13 -29 32 -33 97 9 136 88 22 44 23 50 8 91 -8 24 -22 45 -32 47 -15 3 -155 -104 -165 -126 -6 -14 -25 -9 -39 10 -22 28 -18 33 24 36 35 3 40 8 43 33 2 16 -2 29 -8 29 -14 0 -126 117 -126 132 -1 17 -73 88 -90 88 -9 0 -15 4 -15 10 0 15 39 24 73 16 37 -8 40 3 10 41 -23 29 -26 30 -52 20z"/>
		<path d="M922 5132 c-7 -13 -12 -30 -10 -37 1 -7 -4 -10 -14 -6 -11 4 -20 -4 -27 -26 -8 -23 -16 -30 -28 -26 -13 5 -16 1 -11 -16 5 -18 1 -23 -14 -23 -24 0 -23 2 -8 -41 9 -27 8 -38 -6 -59 -9 -14 -16 -30 -16 -36 0 -6 -12 -30 -27 -53 -28 -44 -32 -63 -16 -63 18 0 64 57 64 80 0 12 14 50 31 84 17 34 31 68 31 76 1 18 40 85 65 110 21 19 27 60 9 60 -5 0 -16 -11 -23 -24z"/>
		<path d="M1292 4930 c0 -23 -4 -67 -7 -97 -6 -47 -4 -55 10 -55 15 0 17 11 16 70 -1 84 -17 152 -19 82z"/>
		<path d="M1397 4842 c0 -12 36 -43 50 -43 16 0 16 23 0 39 -14 15 -50 17 -50 4z"/>
		<path d="M1338 4735 c-7 -12 55 -83 72 -83 6 0 26 -15 46 -32 37 -33 59 -33 54 -2 -3 13 4 17 25 16 24 -2 29 2 32 31 4 41 23 48 44 15 19 -28 24 -49 34 -127 5 -37 3 -53 -8 -60 -12 -7 -12 -13 -2 -29 13 -21 6 -180 -8 -180 -10 0 -83 76 -83 86 0 5 -10 9 -21 9 -17 0 -21 -7 -21 -32 0 -19 6 -35 15 -38 9 -4 16 -12 16 -20 0 -7 14 -26 32 -40 25 -21 37 -25 56 -18 21 8 29 3 65 -42 42 -54 57 -63 57 -36 0 8 -7 16 -16 16 -9 0 -20 11 -26 25 -5 14 -19 35 -32 46 -22 21 -22 22 -5 91 11 43 17 112 17 188 0 106 -2 122 -24 156 -31 48 -69 60 -94 30 -10 -12 -22 -22 -28 -22 -5 0 -16 -7 -23 -16 -21 -25 -38 -19 -91 32 -50 48 -70 56 -83 36z m262 -446 c27 -20 15 -52 -13 -37 -23 12 -37 53 -19 53 7 -1 21 -7 32 -16z"/>
		<path d="M716 4702 c-7 -7 -12 -20 -12 -28 0 -12 4 -11 21 4 21 19 27 37 12 37 -5 0 -14 -6 -21 -13z"/>
		<path d="M672 4620 c0 -6 7 -10 16 -10 8 0 16 -9 16 -19 1 -15 2 -15 9 3 5 11 7 24 4 29 -6 11 -45 9 -45 -3z"/>
		<path d="M1582 4550 c-14 -14 -6 -35 14 -35 14 0 21 7 21 21 0 20 -21 28 -35 14z"/>
		<path d="M714 4523 c0 -9 7 -30 16 -46 8 -17 16 -40 16 -51 0 -21 0 -21 16 -1 22 30 19 51 -16 85 -23 22 -32 25 -32 13z"/>
		<path d="M1565 4473 c0 -12 7 -21 15 -21 9 0 16 9 16 21 0 12 -7 21 -16 21 -8 0 -15 -9 -15 -21z"/>
		<path d="M1397 4161 c1 -21 41 -54 83 -67 53 -17 69 -41 28 -41 -30 0 -46 -18 -30 -33 11 -11 89 22 102 44 11 17 78 41 96 34 8 -3 13 -13 10 -21 -3 -8 -6 -18 -6 -22 -1 -4 -7 -16 -16 -27 -12 -17 -18 -18 -31 -7 -9 8 -19 11 -23 8 -7 -7 59 -102 72 -102 14 0 10 29 -5 34 -10 4 -10 12 2 40 8 20 15 58 16 84 1 40 -2 47 -22 50 -13 2 -45 -9 -72 -24 l-49 -27 -37 27 c-20 16 -39 35 -42 43 -5 15 -77 21 -76 7z"/>
		<path d="M1225 4042 l-50 -31 3 -60 3 -61 47 0 c25 0 52 6 59 13 8 8 20 11 29 8 12 -5 15 1 13 27 -4 50 -30 59 -73 26 -19 -14 -37 -24 -41 -20 -8 8 14 57 34 78 29 28 45 52 35 52 -5 0 -32 -14 -59 -32z"/>
		<path d="M1639 4057 c0 -12 3 -14 6 -6 3 8 3 17 -1 20 -3 4 -6 -3 -5 -14z"/>
		<path d="M1354 3952 c41 -51 116 -104 116 -81 0 11 -66 67 -100 85 -30 16 -31 16 -16 -4z"/>
		<path d="M1533 3948 c0 -6 7 -10 16 -10 29 0 18 -39 -13 -46 -17 -3 -34 -16 -40 -30 -9 -21 -18 -24 -64 -24 -54 0 -78 -9 -63 -23 11 -12 238 -14 238 -3 0 15 27 12 40 -4 15 -18 -6 -73 -40 -109 -32 -35 -27 -50 34 -94 30 -22 73 -58 96 -80 44 -41 59 -48 59 -25 0 17 -90 103 -134 129 -19 10 -34 23 -34 29 0 17 45 101 54 101 21 0 6 50 -22 71 -27 20 -31 21 -47 5 -25 -25 -33 -8 -30 61 2 60 1 63 -24 63 -14 0 -26 -5 -26 -11z m15 -80 c20 -8 22 -46 2 -46 -14 0 -27 21 -27 43 0 11 3 12 25 3z"/>
		<path d="M1392 3451 c-15 -22 -14 -33 11 -123 15 -55 32 -109 38 -120 13 -24 29 -82 34 -126 8 -60 33 -154 43 -161 5 -4 10 -12 10 -18 0 -6 6 -29 13 -52 8 -23 19 -60 26 -81 6 -22 20 -48 31 -57 10 -10 19 -28 19 -42 0 -13 7 -31 16 -39 8 -9 16 -20 16 -26 0 -5 9 -18 21 -28 11 -11 21 -30 21 -42 0 -13 9 -35 22 -49 12 -13 33 -46 47 -72 31 -56 95 -145 151 -210 23 -26 62 -70 86 -98 25 -28 63 -75 84 -105 22 -30 52 -66 66 -81 17 -17 27 -38 27 -60 0 -19 4 -34 9 -34 14 0 75 -95 75 -117 0 -28 17 -33 53 -14 31 17 32 18 25 71 -11 92 -36 168 -50 156 -9 -7 -21 -6 -39 4 -14 8 -20 15 -13 15 7 0 13 8 13 17 0 11 -6 14 -20 10 -16 -5 -21 1 -27 32 -4 21 -5 40 -2 43 10 10 28 -8 28 -27 0 -11 10 -22 22 -25 20 -6 22 -3 16 27 -4 18 -16 50 -27 70 -11 21 -31 61 -45 90 -26 52 -60 92 -60 69 0 -6 -10 -11 -21 -11 -12 0 -21 7 -21 15 0 9 7 16 15 16 28 0 17 30 -26 74 -23 23 -46 42 -51 42 -5 0 -12 9 -15 22 -4 13 -11 19 -18 14 -7 -4 -17 -1 -22 7 -5 8 -4 17 3 21 17 10 -30 72 -55 72 -11 0 -30 9 -42 21 -17 18 -24 19 -41 8 -14 -8 -19 -20 -15 -31 6 -22 -6 -24 -31 -6 -16 12 -17 15 -1 37 9 13 25 24 36 24 24 0 45 33 35 57 -5 14 -8 15 -16 4 -7 -10 -8 -6 -4 13 4 21 -3 37 -30 69 -39 45 -96 162 -104 210 -3 16 -6 32 -7 35 -1 3 -2 14 -1 24 1 10 -2 18 -8 18 -5 0 -12 10 -15 22 -4 14 -11 19 -19 14 -8 -5 -10 -3 -6 3 4 6 0 27 -8 47 -10 21 -16 27 -16 15 -1 -30 -26 -13 -30 21 -2 16 -10 37 -17 46 -8 9 -17 31 -21 49 -4 18 -19 48 -33 67 -14 19 -25 41 -25 49 0 18 -40 97 -61 121 -21 24 -30 23 -49 -6z m68 -71 c0 -12 -5 -18 -11 -15 -6 4 -10 14 -10 22 0 8 4 15 10 15 6 0 11 -10 11 -22z m98 -236 c21 -8 22 -40 3 -56 -19 -15 -28 -4 -28 32 0 32 1 33 25 24z m95 -233 c-12 -33 -34 -37 -51 -10 -9 16 -7 23 14 40 33 27 52 12 37 -30z m115 -217 c-7 -19 -52 -41 -66 -33 -6 4 -11 21 -11 38 0 43 38 60 65 30 9 -12 15 -27 12 -35z m-4 -208 c0 -4 -4 -8 -9 -8 -10 0 -33 56 -33 78 1 12 41 -56 42 -70z m189 -95 c-1 -19 -38 -60 -56 -60 -18 0 -19 53 -2 65 18 13 58 10 58 -5z m90 -42 c8 -8 -8 -39 -19 -39 -6 0 -17 -8 -25 -18 -13 -18 -14 -18 -14 0 0 10 4 18 10 18 6 0 11 7 11 16 0 8 -5 16 -11 16 -6 0 -10 -4 -10 -9 0 -11 -39 -9 -50 2 -14 14 23 28 63 24 23 -3 43 -7 45 -10z m26 -39 c0 -6 -5 -10 -11 -10 -6 0 -10 4 -10 10 0 6 4 11 10 11 6 0 11 -5 11 -11z m-150 -52 c7 -12 9 -21 3 -21 -6 0 -15 9 -21 21 -7 11 -8 21 -3 21 4 0 14 -10 21 -21z m145 -15 c8 -8 20 -17 26 -19 6 -2 13 -23 14 -47 3 -35 0 -45 -16 -49 -12 -3 -26 3 -35 17 -12 18 -19 20 -29 10 -6 -7 -17 -13 -23 -13 -6 1 -1 10 12 20 l24 20 -27 17 c-14 10 -23 22 -20 28 6 9 39 26 56 30 1 0 10 -6 18 -14z m-95 -38 c3 -6 2 -10 -4 -10 -6 0 -14 4 -17 10 -4 6 -2 11 4 11 6 0 13 -5 17 -11z m223 -71 c2 -7 -3 -13 -12 -13 -18 0 -21 -9 -17 -50 1 -19 -4 -23 -24 -23 -15 0 -29 7 -33 16 -7 19 10 57 26 57 5 0 10 7 10 16 0 20 43 17 50 -3z"/>
		<path d="M1304 3367 c-13 -13 -23 -30 -23 -38 0 -8 -8 -20 -18 -28 -17 -13 -17 -14 -1 -14 23 -1 83 75 73 92 -6 9 -15 6 -31 -12z"/>
		<path d="M1869 2577 c0 -9 5 -13 11 -10 5 4 10 11 10 17 0 5 -5 10 -10 10 -6 0 -11 -8 -11 -17z"/>
		<path d="M2423 1374 c-30 -11 -40 -40 -14 -40 8 0 17 -10 20 -22 3 -15 12 -21 25 -19 14 3 20 15 22 48 3 49 -2 52 -53 33z"/>
	</g>
</svg>
