<?xml version="1.0" encoding="utf-8"?>
<svg xmlns="http://www.w3.org/2000/svg" version="1" viewBox="0 0 161.679 149.772">
	<title>
    A drawing of a simpler family group.
  </title>
	<path d="M80.762 1.024c-.953.476-2 2.476-2.286 4.38-.38 1.906-1.428 3.715-2.286 4-7.81 2.382-40.857 6.477-53.142 6.477-8.096.095-12.953 1.62-13.62 4.572-.38 1.333-1.142 2.095-1.904 1.809C6 21.691 0 26.548 0 28.452c0 .762.762 1.81 1.714 2.286 1.524.953 1.524 1.429-.19 8.476-1.62 6.477-1.714 8.19-.667 11.715.667 2.285.953 6 .667 8.285-.286 2.286-.19 4.858.38 5.62 1.525 2.38 3.525-.191 5.43-7.143 1.047-3.429 2.666-7.81 3.809-9.81 4.762-8.286 6.19-12.667 6.38-18.476l.191-6 19.048-.572c22.095-.761 34.19-2 43.238-4.476 3.143-.857 4.095.953 2.38 4.572-2.38 4.666-3.428 13.714-4.285 35.523-.38 10.381-1.047 19.81-1.524 20.762-.476.953-2.571 2.667-4.666 3.81-2.19 1.048-3.905 2.476-4 3.143 0 .666-.286 2.19-.572 3.238-.285 1.143-.571 11.047-.762 22-.19 23.81-.762 27.524-4.19 27.524-1.238 0-3.81 1.238-5.524 2.857-5.714 5.143-1.524 8.476 10.095 7.904 5.238-.19 6.572-.57 6.857-2 .286-1.333-.095-1.619-1.428-1.047-1.524.571-1.62.095-.953-4.762.858-6.19.858-23.905 0-31.429-.761-6.476 1.048-17.238 3.239-19.714.952-1.047 2-1.524 2.285-1.047.381.38.381 5.238 0 10.761-.476 5.429-.762 16.096-.857 23.62-.095 12.285.095 13.809 2 16.19 1.143 1.524 2.667 2.667 3.429 2.667s1.904.857 2.476 2c1.143 2.19 5.048 2.761 4.952.761 0-.666-1.524-2.285-3.428-3.619L82 139.691v-30.477c0-25.333.286-31.238 1.619-35.333.857-2.762 2.19-4.952 2.952-4.952 1.81 0 3.143-2.667 6.572-13.334 2.952-8.952 4-19.523 2.476-24.38-.571-1.81.095-2 10.571-3.048 14.286-1.334 27.143-.095 33.048 3.143 6.571 3.714 9.714 8.952 11.428 19.238.858 4.857 2 9.428 2.572 10.095 1.333 1.619 2.762.667 2.762-1.714 0-1.048.857-3.429 2-5.238 2.38-4 2.571-8 .38-11.334-1.523-2.285-1.523-2.571.477-4.19 3.048-2.476 3.714-7.238 1.429-10-1.62-2-2.762-2.286-12.19-2.381-11.144-.095-12.572-.476-18.191-5.62-3.238-3.047-4.477-3.428-11.524-4.094-4.286-.286-10.19-.667-13.048-.667-5.047 0-5.143-.095-4.666-2.572.476-2.57-.572-3.809-9.524-10.666C88-.214 83.714-.69 80.762 1.024zm10.286 10.857c0 .476-1.43.857-3.048.857-3.62-.095-3.81-.571-.762-1.714 2.38-.857 3.81-.571 3.81.857zm-1.334 23.81c-.476 6.285-1.143 8.19-2.38 6.952-1.144-1.238-1.239-14-.096-16.095 1.048-2 1.048-2 2 .38.476 1.43.762 5.334.476 8.763zM154 32.548c0 .285-.857 1.619-1.81 2.952-2.095 2.572-4.19 1.62-4.19-1.81 0-1.333.762-1.809 3.047-1.809 1.62 0 2.953.286 2.953.667zm2 13.905c0 6.761-1.62 7.238-2.19.761-.477-5.047-.286-6.285 1.237-6.285.572 0 .953 2.476.953 5.524z"/>
</svg>
