<?xml version="1.0" encoding="utf-8"?>
<svg xmlns="http://www.w3.org/2000/svg" viewBox="0 0 267 92">
	<title>A drawing of shark teeth.</title>
	<path d="M259.209 3.39c-2.762 1.714-8.952 6.476-13.714 10.476-4.857 4-10.19 8-11.905 8.857-1.714.857-5.143 3.047-7.714 4.857-6.667 4.762-14.667 8.571-17.905 8.571-2.571 0-3.524 1.048-8.286 8.762-2.952 4.762-6.666 11.429-8.285 14.762-6.477 13.333-17.334 21.048-36.667 26-7.429 1.905-7.905 1.81-8.952-.857-1.905-4.953 2.57-15.62 13.619-32.667 2.761-4.095 8.19-13.047 12.285-19.905 4-6.857 9.334-15.428 11.715-19.047 4.095-6.095 4.285-6.572 2.38-6.857-2-.286-14.38 5.524-22.095 10.38-2 1.239-6 3.143-9.047 4.382-10.857 4.38-12 5.142-14 8.476-1.62 2.762-3.238 3.905-7.524 5.238-3.048.952-6.476 2.667-7.714 3.905-2.381 2.38-14.667 17.428-19.905 24.38-1.81 2.477-6.667 6.762-10.762 9.524-7.238 4.953-7.62 5.048-15.81 5.334-5.047.285-8.761 0-9.428-.667-.572-.571-1.048-3.048-1.048-5.429.096-5.333 2.572-9.904 17.143-32.19 6.095-9.333 11.143-17.524 11.143-18.19 0-2.858-2.476-2.096-10.381 3.142-4.571 3.048-8.571 5.524-8.952 5.524-.286 0-5.334 2.762-11.238 6.095-13.239 7.524-14.953 8.19-19.905 8.286-3.62.095-4.19.476-6.286 4.286-2.667 4.857-16.476 16.286-19.619 16.38-1.143 0-3.619.858-5.428 2-1.81 1.048-4.191 1.906-5.239 1.906-2.952.095-7.714 2.761-8.285 4.761-1.715 5.905-1.81 8.477-.476 8.096.666-.286 1.714-1.81 2.19-3.429 1.619-5.619 2-5.81 10.38-6.952 7.334-.953 8.477-1.429 13.334-5.524 2.953-2.381 8.095-7.238 11.524-10.667 4.381-4.476 6.857-6.285 8.762-6.19 2.857 0 12.286-3.905 16.38-6.857 1.525-1.048 5.906-3.524 9.715-5.524 3.905-2 8.381-4.572 10-5.62 7.333-4.952 5.62-1.428-8.095 17.239-7.143 9.524-9.333 15.047-9.333 22.952v6.762l3.904 2c14.953 7.62 36.953-6.952 54.096-35.714 1.81-2.952 3.904-5.333 4.761-5.333 4.286 0 9.239-2.381 14.667-6.953 3.238-2.666 7.905-5.619 10.476-6.476 2.476-.857 8.572-3.81 13.429-6.571 9.81-5.429 9.619-5.334 9.619-4 0 .952-2.572 5.238-18.762 30.571-12.19 19.143-15.333 25.81-16 33.905-.476 5.904-.286 6.476 2.571 9.619l3.048 3.428 7.333-1.81c4-1.047 11.429-3.809 16.477-6.285 7.428-3.524 10.095-5.428 14.761-10.571 3.048-3.524 6.477-8.381 7.62-10.857 8.285-18.286 11.619-22.953 16.38-22.953 4.953-.095 13.429-5.428 35.238-22.286 8.19-6.38 10.762-6.857 5.143-.952-12.952 13.62-20.38 26.19-25.333 42.952-2.476 8-2.667 9.524-1.524 12.19 1.524 3.81 8.762 7.334 14 6.858 5.048-.38 4.857-2.38-.38-3.143-2.477-.286-6.191-1.238-8.191-2.095-3.524-1.524-3.62-1.62-2.953-5.524.858-5.428 7.143-21.047 11.429-28.476 5.333-9.238 19.524-27.714 25.143-32.762 7.905-7.238 5.714-9.428-3.524-3.524z"/>
</svg>
