<?xml version="1.0" encoding="utf-8"?>
<svg xmlns="http://www.w3.org/2000/svg" version="1" viewBox="0 0 887 111">
	<title>
    A drawing of a chain of alphabet symbols.
  </title>
	<path d="M106.504 1.38c-.666.856-1.428 5.333-1.619 10.094-.19 4.762-1.238 12.286-2.286 16.858-1.047 4.476-2.476 10.857-3.142 14.095-.667 3.333-1.81 7.047-2.572 8.286-.762 1.142-1.428 2.857-1.428 3.714 0 .857-.858 1.524-1.905 1.524-1.048 0-3.143.666-4.762 1.523-2.952 1.524-8.19 1.905-12.095.858-3.524-.953-4.762-5.62-4.667-17.429.095-14.38 1.238-20.762 3.714-22.095 2.667-1.429.857-3.143-2.952-2.667-2.571.286-2.762.667-2.571 3.714.19 1.905-.381 5.524-1.239 8.096-.857 2.571-1.523 6.666-1.428 9.047 0 2.476-.286 7.048-.667 10.286l-.666 5.714-4.667-.19c-4.952-.19-7.524.666-6.572 2.19.381.572 1.62.953 2.953.953 1.333 0 3.714 1.333 5.333 2.952 2.762 2.762 2.857 3.238 2.095 7.714-.476 2.572-1.238 6.095-1.714 7.81-1.143 4.571-.571 20.476.953 25.047 1.714 4.953 6.38 7.62 12.761 7.238 5.143-.285 6.572-2.38 2.381-3.333-1.523-.38-4-1.81-5.523-3.238-1.524-1.429-2.762-2.19-2.762-1.619 0 .476-.762-.19-1.715-1.524-2.285-3.333-2.285-20.857 0-22.571 1.238-.857 1.524-2.286 1.048-6.762-.667-6.476-.286-6.762 5.429-3.81 5.81 2.858 10.666 3.429 14.19 1.62 3.62-1.905 3.62-1.62 1.333 7.142-1.523 5.62-1.523 6.667-.285 8.572 4.19 6.571 5.047 9.333 5.047 16.666 0 5.81-.285 7.238-1.238 6.286-2.095-2.095-2.762-1.333-2.762 2.762 0 3.429.286 4 2 4 3.048 0 8-5.238 8-8.476 0-1.524-.666-5.238-1.524-8.381-1.047-3.905-1.428-9.81-1.238-18.667.19-12.952.19-12.952 2.572-12.666 1.619.19 2.476-.381 2.857-1.81.286-1.048 1.619-2.286 2.952-2.571 4.572-1.143 2.19-4.953-2.857-4.572-2.095.19-2.762-.19-2.762-1.524 0-2.666 3.81-23.238 4.476-24.285.953-1.524 3.524-26 2.953-27.048-.857-1.333-2.095-1.143-3.429.476zm-16 61.523c-2 1.333-6 1.333-6 0 0-.476 1.62-.952 3.715-.952 2.761 0 3.333.285 2.285.952zm5.905 15.81c0 2.761-.19 3.333-.952 2.19-1.238-1.905-1.238-6 0-6 .571 0 .952 1.714.952 3.81zM384.79 14.713c-1.524 3.714-5.334 10.571-8.477 15.333-3.142 4.762-8 13.333-10.857 19.047-14.19 28.286-17.81 34.286-20.952 35.334-3.048.952-4.19 4.571-2.286 6.762 2.096 2.38 4 2.19 9.62-.572 2.57-1.333 4.856-2 5.237-1.524.286.477 1.715.858 3.143.858 1.524 0 7.143 1.523 12.476 3.333 9.048 3.048 9.62 3.428 8 4.952-2.666 2.667-.476 3.238 3.62.857 4.761-2.666 6-2.761 3.809-.285-1.048 1.047-1.429 2.571-1.048 3.524.953 2.476 12.953 1.809 12.762-.667-.19-2.095.667-2.19 3.143-.286 2.095 1.62 6.476 2.095 6.476.762 0-.38-3.047-4-6.762-8-4.476-4.857-7.523-7.238-8.952-7.238-2.667.095-2.762.762-.762 3.429 1.905 2.666 1.238 3.333-3.047 2.857-2.477-.381-4.096-1.238-5.239-3.143-2.095-3.238-3.238-4-4.857-3.429-1.047.381-.952 1.048.381 3.048l1.62 2.571-3.43-.762c-3.142-.762-7.047-2.476-15.618-6.952-2.953-1.524-3.334-1.524-6.476.19-8.286 4.381-10.858 5.334-10.858 3.715 0-.857.762-1.81 1.715-2.19 5.523-2.096 16.095-18.191 21.047-31.905.572-1.62 3.238-5.905 6-9.524 4.286-5.62 7.238-10.953 17.81-32.19 2-4 1.81-4.667-1.429-4.667-2.666 0-3.143.666-5.81 6.762zM494.694 13.189c-3.81 1.81-8.19 16.38-8.19 27.333 0 5.143 0 5.238 4.667 8.286 2.666 1.619 6.095 3.524 7.619 4.095 1.904.667 3.428 2.476 4.761 5.524 1.048 2.476 2.572 4.857 3.334 5.238 1.714 1.048 2.857 6 1.619 6.762-.572.38-1.048 3.238-1.048 6.38 0 3.81-.571 6.572-1.714 8.191-.952 1.334-1.714 2.667-1.62 2.953 0 .285-.285 1.428-.666 2.476-.38 1.143-1.047 3.428-1.428 5.238-.381 1.905-2.477 4.762-5.048 7.143-3.905 3.619-4.857 4-9.333 4-3.715 0-5.905-.667-8.286-2.476-4.38-3.143-12.857-5.524-17.619-4.858-3.905.572-9.238 5.143-9.238 8 0 1.81.857 1.81 3.428-.095 2.667-2 9.143-1.81 12.381.476 3.238 2.286 11.429 4.096 18.667 4.096 11.62 0 18.476-5.905 26.762-23.048 4.476-9.143 5.143-11.429 5.524-18.286l.476-7.81-5.524-5.237c-3.333-3.334-7.238-6-10.38-7.048-2.667-.952-6.191-2.286-7.715-2.857-1.524-.572-3.238-2.19-3.81-3.62-1.428-3.713.858-15.809 3.81-20.094 1.238-1.905 2.38-4 2.38-4.667 0-.762 1.048-1.524 2.382-1.905 4-1.047 10 2.953 16.285 10.857 7.62 9.62 9.62 11.429 13.239 12.19 1.714.382 3.523 1.525 4.095 2.572 1.81 3.429 3.905 2.381 3.619-1.81-.095-3.237-.476-3.714-2.667-3.809-4.19-.19-4.571-.476-2.762-1.524 4.286-2.476-.571-8.571-8.476-10.666-2-.572-5.238-2.572-7.143-4.476-3.524-3.334-15.047-8.858-18.38-8.667-.953 0-2.763.571-4 1.143zm16.762 45.904c0 2.667-3.905 2.381-4.952-.38-.476-1.239-.667-2.572-.381-2.953.762-1.333 5.333 1.524 5.333 3.333zm3.524 6.953c.857 2.571-.286 7.524-1.524 6.286-1.524-1.62-1.619-8.381-.095-8.381.571 0 1.238.952 1.619 2.095zm-3.524 9.905a.954.954 0 0 1-.952.952c-.572 0-1.048-.381-1.048-.952 0-.572.476-1.048 1.048-1.048.476 0 .952.476.952 1.048zm-33.428 32.857c-1.81.38-7.524-2.572-7.524-3.81 0-.476 2 .095 4.476 1.238 2.476 1.238 3.81 2.381 3.048 2.572z"/>
	<path d="M28.504 17.95c-7.333 1.143-10.666 2.858-13.333 6.858-3.048 4.666-3.714 8.857-2.571 17.619 1.238 9.143 5.81 16.19 13.238 20.476 5.904 3.333 9.81 9.143 9.619 14.286-.286 7.333.095 10.285 1.523 13.047 1.334 2.667 1.239 3.238-.285 5.905-1.429 2.286-1.429 3.048-.381 3.714 2 1.238-5.238 4.286-10.762 4.477-5.714.19-9.524-2.096-11.81-6.953-1.428-2.952-1.523-4-.38-6.952 1.142-3.143 1.047-3.81-.953-6.476-2.571-3.715-10.571-9.334-12-8.477-1.619.953 1.905 4.477 4.476 4.477 1.143.095 2.857 1.142 3.81 2.38 1.524 2.096 1.524 3.143.571 8-.857 3.715-.857 6.477-.285 8.286 1.523 4.286 8.476 9.048 14.476 9.81 7.047.952 16.476-.286 18.476-2.381 2-2.286 3.619-15.429 2.857-22.953-.38-3.904-.19-6.095.571-6.571.762-.476.762-1.238-.095-2.857-.666-1.238-1.428-3.524-1.714-5.143-.381-1.619-1.81-3.619-3.238-4.476C23.742 53.95 20.028 50.332 16.885 41.474c-1.619-4.952 0-12.571 3.334-15.238 5.904-4.762 16.285-6.285 16.285-2.38 0 .952 1.715 2.666 3.81 3.904 2.19 1.238 4.666 3.333 5.524 4.667 1.81 2.762 3.619 3.333 3.619 1.047 0-1.904 3.333-2.857 7.143-2 2.761.572 2.952.477 2.476-1.238-.381-1.238-.096-2.476.857-3.238 2.571-2.19 1.714-3.333-1.905-2.762-2.571.477-3.333.286-2.952-.762.666-1.714-5.62-3.81-9.048-2.952a6.667 6.667 0 0 1-4.857-.762c-3.048-2-7.333-2.571-12.667-1.81zM552.504 19.665c-2.857.952-8 6.667-8 8.667 0 3.142 4 10.571 5.619 10.571 1.238 0 1.143-.571-.572-3.333-2.19-3.429-2.666-8.096-1.238-10.477.477-.666 2.857-1.523 5.238-1.809 4.286-.571 4.381-.476 2.19 1.143-1.523 1.047-2.285 2.666-2.285 4.857 0 1.714-.476 3.81-.952 4.667-.572.857-.572 1.904.095 2.762 1.524 1.81 2.857 1.523 2.667-.477-.477-6 .285-9.523 2.19-10 1.143-.285 2-1.333 2-2.38 0-1.048.476-1.905 1.048-1.905.476 0 .952.571.952 1.238 0 .666 1.429 2.571 3.143 4.38 2.667 2.763 5.62 10.953 4.286 12.286-.19.19-1.429-.952-2.762-2.571-1.429-1.524-2.857-2.476-3.238-2.095-.476.476.19 1.81 1.333 3.047 1.143 1.238 2.762 3.81 3.62 5.62 1.237 2.952 1.237 4 0 7.428-.763 2.19-1.334 5.524-1.334 7.524 0 1.905-1.429 8.476-3.143 14.476-3.238 11.333-4.286 21.714-2.286 22.38.667.191 1.429-.761 1.81-2.19.285-1.333 1.238-2.571 2.095-2.571 1.333 0 6.476-9.333 6.476-11.714 0-1.334 5.143-16.381 7.429-21.62 2.19-4.952 3.047-4.095 1.238 1.239-.762 2.285-1.048 4.38-.572 4.666 1.143.762 3.048-4.095 3.238-8.571.096-2.19 1.143-4.476 2.953-6.476 1.428-1.62 3.238-4.572 3.905-6.476 2-6.286 3.81-8.096 7.238-7.81 2.19.19 3.143.857 3.333 2.286.476 2.571 2.476 6.762 3.714 7.81.667.476.476 1.142-.476 1.809-1.143.762-1.238 1.143-.286 1.524 2.381.952 1.334 2.38-3.714 4.857-2.762 1.428-4.952 2.952-4.952 3.333 0 1.905 6.952.476 10.857-2.19 9.905-6.953 6.952-22.096-4.667-24.096-6.666-1.142-9.81 1.334-15.238 12-3.428 6.762-5.238 9.239-7.238 9.905-1.524.476-2.952.762-3.238.476-.286-.285-.667-3.428-.857-6.952-.762-11.619-4.19-20-9.524-23.714-3.333-2.095-8.571-2.857-12.095-1.524zm54.952 21.238c0 .476-.476 1.238-.952 1.524-.572.38-1.048-.095-1.048-.953 0-.857.476-1.523 1.048-1.523.476 0 .952.38.952.952zm-31.333 17.238c-.286.762-.572.572-.572-.571-.095-1.048.19-1.715.477-1.334.38.286.38 1.143.095 1.905zM255.933 24.332c-3.62 1.619-10.19 9.047-17.334 19.81-5.619 8.475-6.285 9.047-8.38 8.285-1.334-.476-1.905-1.524-7.334-12.667-3.429-7.238-4.38-8.095-12.952-11.333-5.715-2.19-8-2.572-12.476-2-2.953.286-6.477 1.238-7.62 2-2.666 1.714-6.38 11.238-6.38 16.19 0 3.81 4.476 12.572 8 15.81 1.809 1.619 2 1.714 2 .19 0-.952-1.62-4.857-3.524-8.762-3.238-6.476-3.524-7.619-2.953-12.571.857-6.571 2.762-8.19 10.953-9.048 4-.38 7.333 0 11.714 1.238 5.333 1.62 6.38 2.477 9.429 6.858 3.333 4.952 5.047 10.285 2 6.095-3.143-4.286-2.477-.19 1.047 6.476l3.714 7.238.286 15.143c.381 26.476.572 28.095 2.953 28.476 3.714.572 4.476-1.905 4.952-16.38.38-14.953 2.857-29.43 5.524-33.43.857-1.333 3.238-5.714 5.238-9.523 5.905-11.81 16.19-18.19 24.095-14.953 5.905 2.477 6.286 4 3.524 14a353.683 353.683 0 0 0-1.714 6.953c-.477 2.666-.381 2.857 1.047 1.714 2.572-2.095 4.953-9.714 5.143-15.905l.095-5.81-5.428-2.761c-5.905-2.952-10.857-3.429-15.62-1.333zm-24.762 34.19c-.953.952-2.667-.476-2.667-2.38 0-1.525.095-1.525 1.62.094.952.953 1.428 1.905 1.047 2.286z"/>
	<path d="M265.361 30.332c.667.857 1.048 3.047.857 4.952-.38 4.476 1.524 4.857 2.381.476.762-3.714-.476-6.857-2.762-6.857-1.333 0-1.333.381-.476 1.429zM131.266 34.617c-1.238.381-1.524 1.238-1.143 3.715.381 2.19-.095 4.571-1.428 7.238-1.143 2.095-3.238 7.904-4.762 12.857-3.81 12.857-3.238 20.571 2.476 30.857 4.476 8.286 9.81 12.571 18.095 14.762 4 1.047 5.048.952 9.334-.953 2.666-1.142 5.619-2.19 6.57-2.19 3.525 0 7.144-5.524 9.62-14.571 2.952-10.858 2.952-12.858.38-19.81-1.142-3.048-1.809-6.38-1.523-7.429.381-1.047 0-2.38-.857-3.047-.762-.667-1.238-1.905-.857-2.667.286-.762-.19-2.571-1.143-3.905-1.238-2-2.476-2.571-5.62-2.571-3.237 0-3.904.38-3.904 2 0 1.048 1.143 2.857 2.572 3.905 1.428 1.143 2.285 2.571 1.904 3.143-.38.571.286 2.285 1.429 3.904 1.619 2.286 2.095 4.477 2.095 10.381 0 8.476-.666 10.857-2.476 10.096-.857-.286-1.905 1.428-3.048 5.047-2.285 7.429-6.952 11.62-12.762 11.524-2.571 0-5.047-.762-6.285-1.714-3.81-3.238-9.429-11.524-10.476-15.334-1.429-5.238.476-28.38 2.571-31.619 1.62-2.476 3.429-3.047 3.429-1.047 0 .857.285.857 1.238-.096.857-.857.952-1.904.095-3.904-.667-1.905-.667-3.334 0-4.476.762-1.143.667-2.096-.286-3.143-1.333-1.62-2.095-1.81-5.238-.953zM461.837 37.38c-.952 2.57 1.238 6.57 3.62 6.57 2.57 0 2.475-.19-.477-4.57-2-2.953-2.571-3.334-3.143-2zM207.457 38.713c0 1.047 1.333 4.38 2.952 7.333 1.714 2.952 3.048 6.38 3.048 7.619 0 2 3.333 5.238 5.238 5.238 1.333 0-.667-14.857-2.381-18.19-1.715-3.334-2.762-.762-1.238 2.857.857 2 1.333 4.571 1.142 5.714-.19 1.619-1.142.38-3.714-4.667-3.81-7.428-5.047-8.857-5.047-5.904zM838.79 42.236c-2.763 2.857-5.906 5.905-6.953 6.667-5.714 4.571-10.381 7.048-14.857 8.19-6.667 1.715-7.143 2.096-8.572 8-.666 2.762-2.666 6.953-4.571 9.429-3.62 4.762-2.857 7.143 1.143 3.429 1.619-1.62 3.143-2.096 5.047-1.715 3.238.572 5.238-3.047 2.762-4.952-2.095-1.714-.857-9.333 1.524-9.333.857 0 2.952-.762 4.667-1.62 1.619-.857 5.333-2.57 8.19-3.904l5.143-2.286-3.81 7.62c-4.476 9.047-5.714 14.761-4.095 19.618 1.334 3.905 7.62 10 9.238 8.953.762-.477-.095-1.81-2.095-3.524-2.762-2.572-3.143-3.429-2.952-7.62.19-6.19 4.857-17.428 12-29.333 3.238-5.238 5.904-10.38 5.904-11.238 0-2.952-2.666-1.81-7.714 3.62zM434.123 47.189c-2.667 1.81-6.667 4.38-8.952 5.81-2.667 1.714-4.096 3.237-3.905 4.285.19.952-.381 2.667-1.238 3.905s-1.524 2.952-1.524 3.904c0 2-8.667 12.19-10.762 12.667-.667.19-1.524-.38-1.905-1.238-.571-1.429-3.333-2.286-3.333-1.048 0 1.905 2.286 4.381 4.952 5.334 2.572.857 3.334.666 5.905-1.429 2.476-2.095 12.476-16.095 13.429-18.762.38-1.428 11.523 1.81 13.047 3.715.572.761 3.429 2.38 6.19 3.619 4.763 2 5.144 2.38 6.382 7.047.952 3.81 2.476 6.286 6.285 10 11.238 11.048 22.762 5.905 22.762-10.19 0-8.095-2.476-9.238-3.238-1.524-.762 7.428-3.143 12.476-6.38 13.714-5.43 2.095-12.572-2.571-15.81-10.286-2.476-5.809-2.19-6.285 5.047-7.523 3.62-.572 6.762-1.334 7.048-1.524.667-.667-2-8.762-2.952-8.762-.381 0-1.62.952-2.667 2-1.238 1.238-3.333 2-5.524 2-3.238 0-3.524-.19-4.095-3.714-.953-5.81-1.524-7.238-2.572-7.238-.666 0-.857 2.095-.38 6 .857 6.952 0 7.523-5.334 3.619-1.81-1.334-5.524-2.953-8.19-3.62-5.143-1.237-6.477-3.333-2.953-4.476 1.143-.38 2-1.333 2-2.095 0-1.524 4.953-4.476 7.715-4.476 1.047 0 2.38.571 3.047 1.238 1.62 1.62 2.857.095 1.62-2-.667-1.048-2.667-1.81-4.953-2-3.143-.19-4.953.381-8.762 3.048zM697.075 45.76c-2.857 1.714-7.81 11.048-9.143 17.333-.857 4.19-6.19 14.858-7.333 14.858-.476 0-1.429-.667-2.095-1.524-2-2.381-3.715-1.715-4.381 1.619-.381 1.714-.667 3.524-.667 3.905 0 .38 2 .666 4.571.761 3.62 0 4.953-.476 6.953-2.57 1.333-1.525 2.476-3.334 2.476-4.191.095-2 3.429-11.524 4.667-13.143.571-.762 1.714-3.429 2.666-6 .953-2.572 2.667-5.429 3.905-6.476 1.143-1.048 1.714-1.239 1.238-.477-.571 1.048-.38 1.238.762.858 2.19-.858 6.095 3.523 5.333 5.904-.285 1.048.381 3.334 1.429 5.048 1.524 2.571 2.667 3.238 4.952 3.238 2.477 0 3.143-.476 3.715-2.667.952-3.714 6.095-11.81 7.619-11.81.952 0 1.143 3.048.857 11.81l-.381 11.81 4.19 4c3.143 2.952 4.953 3.905 6.858 3.714 2.476-.286 2.761-.762 3.047-5.238.286-5.048-1.238-8.38-2.476-5.238-.857 2.38-2.571 2-4.857-1.048-1.524-2.19-1.905-4.38-2-12.38-.095-10.382-1.048-12.953-4.953-12.953-2.571 0-6.571 4-9.047 8.952l-1.81 3.524-2.857-3.238c-1.524-1.81-2.857-4.095-2.857-5.143 0-2.095-3.524-5.047-6-5.047-.857 0-2.762.857-4.38 1.81zm14.381 16.381c0 1.333-2.286.476-2.762-1.048-.286-.666.19-.952 1.143-.571.952.381 1.619 1.048 1.619 1.62zm16 6.952c0 .572 1.619 2.572 3.524 4.381 2 2 3.047 3.62 2.476 4-.571.381-1.81.096-2.571-.666-2.19-1.715-5.715-8.857-4.477-8.857.572 0 1.048.476 1.048 1.142zM645.17 46.617c-1.428 1.334-.666 5.143 1.429 7.81l2.095 2.666-2.762 5.81c-3.904 8.19-6.38 11.048-10 11.333l-2.952.19-.476-8-.572-8-3.238.191c-1.81.096-3.238-.285-3.238-.762 0-.476-.857-.952-1.905-.952-1.333 0-2.285 1.143-3.047 3.524-1.429 4.286-3.62 6.095-2.667 2.19 1.048-4.19-1.333-3.238-3.238 1.334-1.81 4.38-3.81 4.952-8.095 2.476-3.334-1.905-11.429-1.905-13.048 0-1.428 1.714-.38 3.905 1.62 3.143 1.142-.477 14 3.714 15.237 4.952 1.048.952-6.476 13.81-9.428 16-6.572 5.048-10.667.762-7.715-7.905 1.62-4.762 1.62-5.905.096-5.428-1.334.38-3.81 8.095-3.81 11.81 0 3.523 3.81 6.952 7.81 6.952 4.19 0 13.238-8.953 15.047-14.953 1.334-4.286 2.476-4.857 5.429-2.571 1.047.762 4.095 1.905 6.762 2.571 4.666 1.048 4.952 1.334 4.952 4.381 0 5.048 4.476 12.953 8.572 15.143l3.523 1.905 5.238-2.857c5.905-3.238 9.143-7.238 11.238-14.19 2.953-9.906.191-11.906-3.904-2.668-1.334 3.143-4.19 7.429-6.19 9.524-2.953 3.048-4.096 3.62-6.191 3.048-2.19-.476-2.476-.381-2 1.048.762 1.904.286 2-2.19.666-2.096-1.143-5.048-7.905-5.048-11.524 0-2.19.571-2.571 4-3.142 4.571-.762 8.666-4.286 9.619-8.381.38-1.334 1.524-4.286 2.571-6.381 1.333-2.667 1.81-5.143 1.524-7.715-.286-2-.095-4.19.476-4.666.572-.667.572-1.238-.19-1.715-.572-.38-1.048-1.619-1.048-2.857 0-3.238-2.667-5.714-4.286-4zm-17.047 19.62c1.238 5.714 1.047 6.57-.857 4.952-.762-.572-3.238-1.334-5.62-1.715-2.57-.476-4.095-1.142-3.904-1.904.38-1.048 7.619-6.477 8.762-6.572.285 0 1.047 2.286 1.619 5.238zm-5.62 10.19c1.62 2.095-.952 2.095-3.618.095-1.905-1.524-1.905-1.524.19-1.524 1.143 0 2.667.667 3.429 1.429zM771.837 47.38c-2.762 1.237-4.095 2.57-9.333 9.523-1.524 2.095-2.096 2.286-3.334 1.238-.857-.667-4.285-1.714-7.619-2.286-3.333-.666-6.095-1.523-6.095-2 0-.476-1.714-.952-3.714-.952-3.62 0-3.715.095-1.715 1.905 1.048.952 5.048 3.047 8.953 4.476 10.19 3.905 10.19 3.905 6.571 7.524-1.714 1.81-3.047 3.619-3.047 4.095 0 .571-1.048 1.524-2.19 2.095-2.763 1.524-4.953-.666-6.382-6.19-1.047-4.476-4-6.953-3.047-2.667.19 1.238.666 3.429.952 4.857.857 3.81 4.476 8 6.952 7.905 1.429 0 4-2.19 7.62-6.381l5.333-6.38 4.952 1.904c2.667 1.047 5.714 1.905 6.762 1.905 2.286 0 3.524 2.095 4.38 7.714.953 6.476 2.668 9.238 6.763 11.333 2.952 1.524 4.38 1.714 6.38.953 3.715-1.429 2.572-3.429-2.38-4.096-5.143-.666-6.572-2.095-8-7.904-1.238-5.239-.953-5.81 2.19-4.096 3.715 2 8.095 1.048 8.476-1.81.477-2.856-1.238-4.094-5.523-4.094-5.048 0-6.286-.858-6.286-4.477 0-3.142-2.667-13.333-3.905-14.666-.286-.381-2-.095-3.714.571zm2.38 6.856c1.43 3.81 1.62 9.715.382 9.715-2.286 0-10.095-3.334-10.095-4.381 0-1.238 6.666-8.667 7.81-8.667.38 0 1.237 1.524 1.904 3.333zM782.123 47.57c-2.858 2.857 2.666 8 5.81 5.428 2.285-1.905 1.904-4.38-.572-3.714-1.238.286-2.286 0-2.572-.952-.571-1.524-1.619-1.81-2.666-.762zM859.456 52.427c0 1.524-1.524 4.857-3.333 7.428-6.667 9.143-7.429 18.762-2 26.381 2.38 3.524 3.809 4.381 7.904 5.334 8.572 2 12 1.714 14.857-1.334 1.334-1.524 3.524-5.143 4.667-8.285 1.238-3.048 3.048-6.286 4.095-7.334 2.19-2.095 2.19-2.095.572-4.666-.953-1.524-.953-2.19 0-3.143 3.333-3.334.38-8.762-4.953-9.429l-3.619-.38.477 7.237c.19 3.905.857 7.62 1.333 8.19 1.428 1.43 1.238 3.144-1.048 8.477-2.19 5.048-4 6.286-10.571 7.429-5.143.857-9.334-4.381-9.334-11.715 0-4.571 4-15.047 6.381-16.38.762-.477 2-2.191 2.953-4l1.619-3.239-3.238-.857c-1.81-.571-4.095-1.333-5.048-1.714-1.333-.572-1.714-.19-1.714 2zm-3.62 31.047c.287.762.096 1.429-.38 1.429-.572 0-.953-.667-.953-1.429 0-.857.096-1.523.381-1.523.19 0 .572.666.953 1.523zM288.6 54.998c-3.43 1.715-7.62 4.953-9.62 7.238-4.476 5.238-6.952 5.715-9.428 1.62-1.048-1.715-2.19-2.667-2.477-2.096-.666 1.048.572 4.476 2.667 7.524 1.048 1.524.572 2.38-4.19 6.762-2.953 2.666-6.096 4.857-6.953 4.857-.952 0 0-1.048 2.096-2.476 2.095-1.429 3.81-2.953 3.81-3.524 0-1.333-1.239-1.143-3.62.476-1.81 1.238-4.571 2-6.952 1.714-.572-.095-1.905-1.81-2.953-3.904-2.571-4.953-2.476-4.857-3.524-3.238-1.619 2.476-1.142 5.333 1.524 9.238 2.381 3.428 2.953 3.714 7.238 3.714 5.238 0 10.381-2.476 13.905-6.762 2.095-2.476 2.381-2.476 4.095-.952 3.334 3.047 9.048 4.762 17.81 5.238 4.857.19 9.047.762 9.333 1.238.381.38 1.714 4 2.953 7.905 2.571 8.38 4.571 10.476 10.476 11.142 4.571.477 10.666-1.714 10.666-4 0-.571.667-1.904 1.524-2.761.857-.953 1.905-4.19 2.381-7.143.572-2.953 1.238-6.19 1.62-7.143.475-1.143.19-1.714-.763-1.714-.952 0-1.81 2.19-2.762 6.952-1.142 6.095-1.619 7.048-3.428 7.048-1.143 0-2.572.857-3.238 1.904-1.62 2.477-6.19 3.238-8.953 1.429-2.476-1.62-4.571-6.572-3.714-8.857.667-1.81.857-1.81 3.905.095 2 1.429 2.952 1.429 5.428.381 2.667-1.048 3.048-1.62 3.048-5.714 0-4-.286-4.381-2-4-1.143.285-4.095 0-6.762-.667-4.19-1.048-4.762-1.524-5.428-4.667-.477-1.81-.572-5.523-.19-8 .666-5.714-.763-8.666-5.239-10.476-4.571-1.905-5.238-1.905-12.286 1.62zm12.666-.19c.762.476 1.048 1.143.571 1.428-.476.286-1.81-.095-2.857-.857-2.095-1.619-.095-2.095 2.286-.571zm-4.095 2.666c2.095.858 4.095 2.096 4.476 2.762.476.667.762 4.286.762 8l.095 6.667h-6.952c-7.715 0-10.19-.667-14.477-4.286-2.857-2.476-2.857-2.476-.952-4.952 2-2.667 11.048-9.714 12.476-9.714.476 0 2.572.666 4.572 1.523zm17.238 23.429c1.238.762 1.238 1.048-.286 1.619-1.143.476-2.476.095-3.428-.952-1.524-1.524-1.524-1.62.285-1.62 1.048 0 2.667.477 3.429.953zM315.742 54.617c-1.81.762-1.619 2.762.572 4.667 3.523 3.238 8.19 1.524 8.19-3.048 0-2-.571-2.285-3.81-2.19-2.095 0-4.285.286-4.952.571zM47.933 63.95c-.857 1.43 1.333 4.953 3.047 4.953 2 0 1.905-4.571-.095-5.333-2.095-.762-2.19-.762-2.952.38z"/>
	<path d="M693.742 67.57c-.762.285-1.238 1.238-1.238 2 0 .857.38 1.238.952.857.476-.286 2.667.38 4.857 1.428l3.81 2 3.714-2.571c3.333-2.19 4.095-2.381 6.667-1.333 4.19 1.714 6.095.666 2.285-1.334-3.619-1.904-6.952-2.19-7.81-.666-1.618 2.571-4.285 2.857-7.904.952-2-1.048-3.714-1.905-3.905-1.905-.095.095-.762.381-1.428.572zM551.36 81.38c-.951 1.904-.951 2.856.096 4.094 1.81 2.096 4.19 0 3.81-3.333-.381-3.429-2.572-3.905-3.905-.762zM85.933 106.046c-1.048 1.524 2.095 4.286 4 3.524 1.333-.477 1.333-.858.286-2.572-1.334-2.286-3.239-2.666-4.286-.952z"/>
</svg>
