<?xml version="1.0" encoding="utf-8"?>
<svg xmlns="http://www.w3.org/2000/svg" viewBox="0 0 187 150">
	<title>A drawing of a pike mouth.</title>
	<path d="M157.312 7.714c-.38 4.19-1.047 8.096-1.523 8.572-.572.476-2.953.095-5.81-.857-3.714-1.429-8-1.81-19.047-1.905-13.143 0-14.286.095-16.477 2.19-2.19 2-12.571 5.334-22.857 7.334-9.524 1.81-41.619 19.047-49.904 26.857-2 1.81-6 4.857-9.048 6.952C21.789 64.095-1.164 89.333.075 92.572.36 93.333 1.598 94 2.836 94c3.143 0 4.572 1.143 4.858 3.524.38 3.524 0 3.81-2.096 2C4.551 98.476 3.313 98 2.932 98.476c-1.62 1.62 7.142 7.524 14.19 9.62 3.81 1.142 10.286 3.142 14.19 4.475 3.905 1.334 11.524 3.143 16.953 4 5.428.858 12.476 2 15.619 2.477 7.333 1.333 58.38 1.238 70.095-.096 9.81-1.142 10.667-.857 12.667 4.096.952 2.38.952 3.238 0 4.476-1.048 1.238-.953 1.905.476 3.524 2.571 2.762 7.143 2.476 13.048-1.048 5.428-3.238 8.571-4 6.571-1.619-.571.762-1.048 2.38-.857 3.619.19 1.81-.762 2.952-4.476 5.048-4.953 3.047-13.62 6.762-23.048 10.19-6 2.19-6.19 4.095-.286 3.143 16.096-2.762 19.429-3.714 26.857-8 10.667-6.095 16.381-10.381 17.62-13.429 2.857-6.476 4.095-17.81 4.38-39.904l.19-12.476-3.809-.858c-2.095-.571-4.095-1.523-4.38-2.285-.286-.762-1.143-1.429-1.905-1.429-1.048 0-1.334 1.81-1.334 7.524 0 6.667-.38 8-2.762 11.143-5.523 7.238-25.428 17.904-39.428 21.047-15.048 3.429-68.762 1.62-93.333-3.143-11.048-2.095-25.81-6.666-27.81-8.476-1.524-1.428-1.524-2.095-.476-5.143 1.429-4 2.381-4.857 4.667-4.285 1.143.285 2.19-.667 3.428-3.334 3.62-7.619 8.286-14 16.857-23.238 10.286-10.857 16.381-15.619 34.667-27.047 19.81-12.381 23.238-13.62 42.667-14.572 25.714-1.238 27.428-1.143 33.619 2.096 5.81 3.142 6.476 4.19 10.762 16.19 1.523 4.286 3.333 7.714 4.095 7.714 1.524 0 4.952-11.333 4.952-16.952.095-2.19.476-5.62.953-7.62 1.238-5.237-2.953-23.618-5.048-22.38-1.143.762-1.048 6.095.19 10.857 1.238 4.476.572 8.572-1.428 8.572-1.143 0-1.334-1.524-.857-7.81C161.979 4.286 161.312 0 159.312 0c-.952 0-1.523 2.286-2 7.714zM159.693 20c0 .572-.285.953-.476.953-.286 0-.762-.381-1.047-.953-.381-.571-.19-1.047.38-1.047.572 0 1.143.476 1.143 1.047zm2.572 9.524c.38.857.286 2.286-.095 3.238-.572 1.429-1.048 1.143-2.572-1.81-1.047-1.904-1.905-3.809-1.905-4.19-.095-1.333 4 1.238 4.572 2.762zm-1.62 79.524c-2.38 1.523-3.714 1.047-1.618-.572 1.143-.762 2.19-1.238 2.476-.952.38.38-.095 1.047-.857 1.524zm15.81 13.143c-.285.666-2 1.809-3.904 2.571L169.122 126l3.048-2.476c3.238-2.762 4.857-3.238 4.285-1.333z"/>
</svg>
