<?xml version="1.0" encoding="utf-8"?>
<svg xmlns="http://www.w3.org/2000/svg" version="1" viewBox="0 0 299 162">
	<title>
    A drawing of a snake, drying pole and round egg.
  </title>
	<path d="M246.9 2.99c-6.19 3.62-9.904 8.382-15.428 20-9.334 19.81-10.857 24.382-14.762 46-2.667 14.477-2.286 12.858-6 23.334-6.286 17.81-5.714 37.048 1.428 50 4.381 7.905 10.381 14.19 15.238 15.714 1.81.572 3.334 1.524 3.334 2 0 2.667 13.238-1.81 21.047-7.143 3.143-2.095 6.096-3.904 6.477-3.904 1.714 0 14.476-11.715 19.523-18 4.286-5.238 12.19-19.048 14.477-25.143.952-2.381 2.285-5.714 3.047-7.429 2-4.571 4.381-23.333 4.381-34.476 0-18.19-6.286-31.333-23.238-49.047C268.329 6.515 258.519-.057 253.948.038c-.953 0-4.19 1.334-7.048 2.953zm27.905 15.906c17.143 17.428 20.857 26 20.857 48.095 0 19.333-3.143 33.619-9.905 44.571a1558.62 1558.62 0 0 1-6.571 11.048c-4 7.143-14.762 17.428-21.714 20.952-2.572 1.333-7.524 4.19-10.953 6.476l-6.38 4-7.43-7.81c-4.285-4.38-8.761-10.19-10.38-13.428-2.667-5.333-5.905-18.952-5.905-24.857.095-3.524 3.524-17.905 7.238-29.238 1.714-5.428 3.524-12 4-14.571 1.62-8.857 4.19-16.667 8.381-25.143 2.381-4.667 5.524-11.429 7.048-15.048 2-4.666 3.905-7.333 7.047-9.905 2.381-1.904 4.572-4.285 4.857-5.238.381-1.333 1.43-1.81 4.286-1.81 3.62 0 4.667.763 15.524 11.906zm-59.143 101.428c1.905 9.81 6.381 18 14.762 26.762 6 6.38 7.333 8.19 6.19 8.952-2.285 1.429-5.333 1.143-10.19-.952-7.524-3.238-12-12.762-13.238-27.905-.667-7.905-.095-14.095 1.048-12.952.285.286.857 2.952 1.428 6.095zM54.139 4.99c-6.477 1.525-18.19 9.048-22.572 14.572-5.143 6.476-7.143 11.429-7.714 18.572-.381 6-.19 7.238 2.286 11.523 3.904 6.762 8.285 11.239 13.333 13.429 2.286 1.048 6.286 3.429 8.857 5.429 2.571 1.904 5.238 3.428 5.905 3.428 4.286 0 13.428 14 13.428 20.476 0 1.429.762 4.381 1.62 6.667 1.237 2.952 1.428 4.667.666 5.81-.571.952-.667 2.761-.095 4.57 1.333 4.668 1.333 24.668 0 27.81-4.953 11.905-23.333 22.762-35.905 21.239-5.333-.667-5.714-.953-14.667-10.191-4.952-5.238-10.38-11.429-11.904-13.714-2.572-3.905-2.667-4.572-2.19-12.095.952-13.429-2.858-14.762-4.667-1.62-.858 6.667-.762 7.524 1.428 12.381 3.048 6.667 22.286 26.762 25.62 26.667 1.142 0 2.38.762 2.761 1.524.286.857 1.81 1.524 3.333 1.524 4.667 0 18.286-3.143 22-5.048 1.905-.952 5.62-2.476 8.286-3.428 6.476-2.286 9.714-5.239 13.048-12 2.666-5.143 2.857-6.286 2.19-12.381-.38-3.62-.857-10-1.047-14.19-.096-4.096-.572-8.572-.953-10-.286-1.334-1.047-4.668-1.524-7.43-1.333-6.57-3.904-14.38-5.81-17.523-2.19-3.524-8.38-10-9.618-10-.572 0-6.19-3.334-12.381-7.334-14.095-9.238-18.381-14.761-18.381-24.285 0-7.715 9.238-21.334 17.238-25.429 2.095-1.047 4.095-2.857 4.476-3.905.667-2.285.857-2.285 12-2.095 12.286.381 17.714 3.715 18.953 11.715.952 6.57 2.571 9.333 8 13.809 2.57 2.095 5.047 4.857 5.619 6.19 1.238 3.334 4.476 3.048 5.714-.57 1.143-3.239.762-4.096-1.905-4.096-1.619 0-3.905-2.667-3.905-4.476 0-.286 1.429.19 3.048 1.047 4.476 2.286 4.857 1.048.857-2.571-4.571-4-4.19-3.62-9.905-10.572-4.19-5.047-6.476-6.761-12.762-9.714-8.095-3.619-16.952-5.143-22.761-3.714z"/>
	<path d="M121.186 4.896c-.38.666-.286 1.619.19 2.38.382.667.762 11.143.858 23.239 0 12.095.476 24.571.857 27.714l.857 5.714h-8.667c-7.81 0-8.666.286-8.476 1.81.476 2.952-1.047 4.19-5.047 4.19-2 0-4.572.667-5.62 1.524-1.809 1.238-1.809 1.524-.476 2.952 1.334 1.334 2.381 1.334 10-.476 4.667-1.047 9.81-2.38 11.429-2.952 1.524-.476 3.238-.667 3.714-.381.762.476.381 48.476-.571 71.333-.381 8.286-.476 8.476-3.143 9.238-1.62.381-3.905.476-5.143.19-1.81-.476-2.286-.19-2.286 1.334 0 2.38 1.81 4.286 4.096 4.286.952 0 1.904.476 2.095 1.047.19.762 3.524.572 10.285-.38 11.334-1.715 24.667-3.143 25.81-2.858.38.095 3.905-.285 7.714-.952 5.048-.857 7.048-1.524 7.048-2.667 0-1.333-2-1.428-14.286-.857-7.81.381-16.38.952-18.952 1.333-4.476.572-4.572.477-5.143-2.285-.286-1.62-.571-17.62-.571-35.62 0-18-.286-33.618-.572-34.761-1.048-3.143 2-7.62 5.524-8.381 8.857-1.714 21.905-.381 36 3.81 2.952.857 8.095 2.095 11.238 2.761l5.81 1.143-.572 4.572c-.38 2.571-.952 8.38-1.429 13.047-1.142 11.524-4.38 29.429-7.523 41.333-2.762 10.667-3.048 13.239-1.524 14.19 2.38 1.525 5.143-.951 8.095-7.332 2.762-5.905 3.238-8.096 4-20.19.857-13.239 1.714-21.048 3.905-38.096l1.143-8.572 3.714-1.142c5.81-1.715 9.238-4.857 8.857-8-.286-2.667-.286-2.667-8-2.477l-7.81.19.572-3.713c2-12.477 2.857-17.81 4.667-27.143 3.904-20.857 4.666-27.143 3.143-27.714-2.477-.953-4.096 1.714-4.858 8-.38 3.428-.857 7.142-1.047 8.19-.19 1.143-.572 4.095-.953 6.476-.285 2.476-1.238 6.381-2 8.572-.761 2.19-1.619 6.095-2 8.666-.666 5.524-1.904 6.762-3.619 3.905-.952-1.429-1.619-1.714-2.571-.952-.952.857-.857 1.81.762 4.952 2 4 2.38 8.952.952 12.381-.762 1.81-.952 1.714-2-1.238-1.714-4.667-4.285-4.381-3.428.38.666 3.334.571 3.62-1.143 2.858-1.048-.381-4.19-1.143-6.953-1.524a369.236 369.236 0 0 1-10-1.905c-2.761-.666-10.38-1.333-16.952-1.428l-12-.381.19-8.381c.096-4.571.477-12.667.858-17.905.476-7.619.285-10.762-1.048-15.047-.952-2.953-2-8.286-2.38-11.905-.572-5.62-.953-6.572-2.763-6.762-1.238-.19-2.476.095-2.857.667zm60.19 128.285c-.38.762-.57.572-.666-.571 0-1.048.19-1.715.571-1.334.286.286.381 1.143.096 1.905zm-57.523 10.476l-.953 3.81-.095-4.952c-.095-3.62.19-4.667.953-3.81.857.762.857 2.19.095 4.952z"/>
</svg>
