<?xml version="1.0" encoding="utf-8"?>
<svg xmlns="http://www.w3.org/2000/svg" version="1" viewBox="0 0 131 157">
	<title>
    A drawing of an egg.
  </title>
	<path d="M75.004.188c-1.048.286-4.572.952-7.81 1.619-4 .762-6.762 2-8.857 4-1.714 1.619-4.476 3.619-6.095 4.476-1.524.762-6.381 4.857-10.762 8.952-5.905 5.62-8.38 7.429-10.095 7.239-2.095-.286-2.381.095-2.381 3.142-.095 3.524-2.381 7.905-7.048 12.953-2.762 3.143-7.714 13.619-9.904 21.238-1.62 5.524-4.286 11.333-8.953 19.333-4.571 7.714-4.38 9.143 2.381 17.524 3.429 4.19 8.476 12.476 11.714 18.952 10.381 20.857 22.096 29.81 48 36.572 10.381 2.762 21.524.476 29.62-6.19 2.856-2.382 6.761-5.525 8.761-7.144 1.905-1.619 5.048-3.81 7.048-5.047 4.571-2.762 10.857-10.286 15.333-18.286 4-7.333 5.714-17.81 5.048-30.952-.286-4.096-.953-17.143-1.524-28.953-.762-13.523-1.62-22.476-2.476-24.19-.667-1.524-1.62-4.667-2-7.048-1.143-6.762-4.19-12.19-9.334-16.571-7.523-6.286-15.523-9.81-24.095-10.572-4.19-.38-9.143-.857-11.047-1.142-1.905-.19-4.381-.096-5.524.095zm16.952 4.38c1.048.858 1.905.858 3.334-.094 1.619-.953 2.761-.762 6.38.952 2.477 1.238 4.762 2.19 5.143 2.19.381 0 2.572 1.334 4.857 2.953 3.715 2.762 5.905 5.619 8.667 11.619.572 1.238 1.524 10.571 2.095 20.952.762 12.286 1.905 21.81 3.238 27.333 1.715 7.048 2 10.572 1.62 21.524-.381 11.62-.762 13.715-3.143 18.572-1.429 3.047-2.572 6.38-2.572 7.333-.095 2.095-11.714 14-20.38 20.667-3.144 2.476-6.286 5.714-6.953 7.047-.667 1.429-3.62 3.715-6.667 5.238-4.571 2.381-6.666 2.762-13.81 2.762-9.523 0-16.761-1.524-18.475-3.904-1.81-2.381-6.667-4.286-9.048-3.524-1.238.38-1.714.285-1.333-.381.38-.667-1.143-2.286-3.62-3.81-2.285-1.428-5.714-3.524-7.428-4.666-3.238-2.19-7.905-9.239-15.619-23.715-4.381-8.19-4.571-8.857-5.143-19.523-.571-9.048-.286-12.19 1.333-18.19 1.905-7.334 2.572-8.668 9.62-18.953 4.19-6.096 5.619-9.048 9.904-20.857 2.19-6 3.62-8.096 10.286-14.572C55.194 10.855 63.099 6.093 73.004 3.997c6.762-1.428 16.857-1.142 18.952.572zm35.62 39.144c0 .476-.477.857-1.048.857-.572 0-.953-.667-.953-1.524s.381-1.238.953-.952c.571.38 1.047 1.047 1.047 1.619zM26.527 46.378c0 .381-.953 2.286-2.19 4.19-2.477 4.191-3.62 2.572-1.334-1.904 1.428-2.762 3.524-4.19 3.524-2.286zm101.333 4.953c.952 5.428.762 10.285-.19 10.285-.953 0-2.096-5.714-2.096-10.762-.095-4.476 1.524-4.095 2.286.477zM9.004 90.664c.38 3.905.38 7.429 0 7.714-.381.381-1.524-.38-2.667-1.714-1.619-2-1.81-3.333-1.333-7.048.38-2.476.952-4.857 1.143-5.238 1.333-2.095 2.285-.095 2.857 6.286z"/>
</svg>
