<?xml version="1.0" encoding="utf-8"?>
<svg xmlns="http://www.w3.org/2000/svg" version="1" viewBox="0 0 150.739 144.95">
	<title>
    A drawing of a pike mouth with spear at left.
  </title>
	<path d="M147.238 10.986c.19 7.523-.095 11.238-.857 11.523-.572.19-1.429-.952-1.715-2.666-.761-3.905-6.666-7.143-9.714-5.238-1.143.761-2.095.857-2.476.19-1.048-1.619-3.429-1.048-3.429.857 0 1.429-.952 1.714-6.285 1.714-3.429 0-7.143.381-8.286.858-1.048.476-4.19 1.047-6.857 1.142-2.667.19-5.62 1.048-6.667 2-.952.953-2.285 1.334-2.857 1.048-.571-.38-1.619-.38-2.38.095-.668.381-2.096.762-3.239.762-1.238.095-1.905.667-1.81 1.81.096 2-1.238 2.38-1.904.476-.381-.952-1.143-.857-3.334.38-1.619.858-5.047 2.191-7.714 2.953-2.857.857-4.666 2-4.666 2.857 0 1.143-.381 1.238-1.143.381-1.524-1.523-3.048-.857-12.381 5.524C44.19 48.128 35.048 56.605 35.048 60.32c-.096 1.333-1.143 3.524-2.572 4.952-2.38 2.381-2.476 2.953-1.905 9.81.572 6.666.858 7.523 4 10.285 1.905 1.81 6.381 4.096 10.667 5.429 9.81 3.238 12.667 4.667 16.762 8.667 3.333 3.142 15.524 8.38 19.619 8.38.857 0 1.81.858 2 1.81.571 1.905 15.428 12.19 17.714 12.19.667 0 3.62.667 6.572 1.524 4.38 1.334 5.142 1.905 4.571 3.524-.571 1.905-.286 1.905 6.571 1.333 6-.57 7.143-.476 6.762.667-.285.953-2.857 1.714-6.857 2.286-10.762 1.333-11.333 1.524-9.905 3.238.667.857 1.048 1.619.858 1.905-.286.19-4 1.524-8.286 3.047-7.714 2.572-8.286 2.572-25.048 2-14.38-.571-18.285-1.047-24.952-3.143-5.714-1.809-8.19-2.285-8.952-1.428-1.715 1.619.952 3.524 7.81 5.333 4.19 1.143 12.38 1.81 27.047 2.19l20.952.667 13.524-4.19c7.428-2.381 15.333-4.476 17.524-4.667 2.19-.285 5.143-1.333 6.666-2.38 1.429-1.048 3.048-1.905 3.524-1.905 3.905 0 8.762-17.239 7.905-28-.286-3.62-.762-7.334-1.143-8.286-.762-1.81-3.429-2.381-3.429-.762 0 2-12.38 19.238-14.476 20.19-1.714.762-3.428.572-7.143-.952-2.761-1.048-10.095-3.619-16.38-5.619-6.381-2-13.62-4.476-16-5.62-2.477-1.047-9.905-4-16.572-6.475-6.571-2.572-14.286-5.715-17.143-7.048-2.857-1.333-5.714-2.476-6.38-2.476-1.81.095-15.62-6.571-16.382-7.81-.38-.666 0-1.428.858-1.714.857-.38 2.761-2.286 4.285-4.38 3.238-4.287 13.905-13.525 19.81-17.048 2.19-1.334 4.38-3.048 4.857-3.905 2.571-4.19 9.714-8.857 25.143-16.572 9.333-4.761 17.619-8.571 18.476-8.571.857 0 4.38-.857 8-2 7.047-2.19 19.714-2.762 24.19-1.048 1.524.572 3.143 1.905 3.81 3.048 1.619 3.143 5.81 2.667 7.143-.667 1.619-4 2.19-23.142.762-24.857-2.381-2.952-2.953-1.047-2.667 9.715zm-5.905 99.142c-.857 6-2.095 8.667-3.714 8.667-1.048 0-1.238-.762-.667-3.333.667-2.953 4-9.62 4.762-9.62.19 0 0 1.905-.38 4.286zm-53.619.286c-.286.38-1.143.38-1.905.095-.761-.285-.571-.571.572-.571 1.047-.095 1.714.19 1.333.476zm27.81 7.905c4.19 1.524 2.952 2-2.381.857-1.715-.286-2.857-.953-2.572-1.429.667-1.047.096-1.143 4.953.572zM24.571 5.08c-.285 2.382-.762 9.62-1.142 16.096-.572 11.714-2 19.429-2.477 13.619-.571-5.81.477-24.095 1.715-30.19.38-2.286.19-2.762-1.62-2.762-2.38 0-2.285-.381-2.19 10.952 0 4.762-.286 11.714-.667 15.524l-.666 7.047-2.286-2.285c-3.81-3.81-4.571-1.524-1.429 4.095 2.286 4.095 3.048 6.952 3.62 13.81.761 9.428-.19 23.904-1.524 23.809-.476 0-2.19-2-3.905-4.476-1.714-2.476-3.714-4.476-4.571-4.476-.762 0-1.429.19-1.429.476 0 .285 2.286 4.571 5.143 9.619l5.143 9.047-1.143 8.19c-2 14.668-2.095 18.477-.762 18.953 1.524.667.762 7.81-.857 8.381-.572.19-2.095-1.238-3.429-3.143-1.238-1.904-2.857-3.523-3.428-3.523-1.238 0-6.667 6.38-6.667 7.714 0 1.333 4.952 5.619 9.524 8.38 2.19 1.239 5.524 3.81 7.428 5.62 1.905 1.81 3.905 3.143 4.477 2.952.666-.19 1.333-4.666 1.619-10.762.38-7.143 1.238-12.095 2.666-15.714 1.334-3.238 1.715-5.143.953-4.952-.667.19-2.19 3.428-3.524 7.142-1.334 3.715-2.572 6.572-2.762 6.381-.19-.19.38-8.19 1.238-17.81 1.524-16.856 2.095-19.332 6.095-24.856l1.715-2.381-3.334.762-3.333.762.667-13.905c.38-7.62 1.047-15.143 1.523-16.857.477-1.62 1.429-4.857 2.096-7.143 1.333-4.476.666-7.905-1.143-6.762-.762.476-.953 0-.572-1.238 1.143-4.095 1.905-29.048.857-29.714-.666-.381-1.238.952-1.619 3.619z"/>
</svg>
