<?xml version="1.0" encoding="utf-8"?>
<svg xmlns="http://www.w3.org/2000/svg" version="1" viewBox="0 0 119.724 102.877">
	<title>
    A drawing of a shark tooth.
  </title>
	<path d="M102.771 5.687c-6.286 3.047-13.905 7.238-16.952 9.333-16.667 11.238-35.334 20-42.667 20-2.952 0-3.81.572-6.095 4.286C27.628 53.877 14.39 68.258 7.247 71.4c-5.333 2.381-8.952 5.62-6.38 5.62.761 0 4.57-1.81 8.476-4 7.81-4.287 20.476-16.763 27.523-27.144 3.905-5.714 6.762-7.81 10.953-7.904 5.524 0 42.857-17.524 53.904-25.239 2.572-1.809 5.048-2.285 4.953-.952 0 .381-4.762 5.714-10.572 11.714-7.428 7.81-12.761 14.667-18.19 23.238-4.667 7.429-8.286 12.096-9.143 12-1.143-.19-1.81 1.905-2.762 8.286-2 13.905-1.81 23.81.476 29.048 2.667 6 5.334 7.143 16.762 6.762 7.334-.286 9.048-.572 9.238-1.905.286-1.333-.952-1.81-6.476-2.381-7.143-.667-13.143-2.19-14.762-3.62-.476-.475-1.047-5.809-1.143-11.904l-.285-10.952 4.19-8.286C79.724 52.45 90.771 36.925 97.438 30.64c3.047-2.762 7.333-7.619 9.619-10.571 6.571-8.953 12.666-18 12.666-19.048 0-2.286-6.285-.571-16.952 4.667z"/>
</svg>
