<?xml version="1.0" encoding="utf-8"?>
<svg xmlns="http://www.w3.org/2000/svg" viewBox="0 0 421 158">
	<title>A drawing of a snake, drying pole, thin egg, carp tail, carp mouth.</title>
	<path d="M53.988 2.76C49.32 4.377 42.94 5.996 39.702 6.377c-4.571.477-5.714.953-5.714 2.477 0 1.142-1.905 2.857-5.048 4.571-7.333 4.19-8.476 7.143-8.476 21.81 0 9.714.476 13.809 2.476 21.047 2.19 7.81 3.238 9.905 8.571 16.476 12.19 14.953 17.81 24.762 20.477 35.905 1.714 7.143.857 20.571-1.62 25.238-2.761 5.333-9.904 12.667-14 14.381-4.666 1.905-12.476 1.905-17.047 0-2-.857-4.667-1.524-5.905-1.524-1.81 0-3.143-1.238-5.428-5.238-2.953-5.048-3.048-5.619-2.762-15.238.285-8.571.666-10.857 3.047-15.619 3.143-6.476 3.334-8.19.953-7.714-.953.19-3.143 3.238-5.048 7.238-6.38 13.238-5.333 30.762 2.286 37.428 8.286 7.334 16.476 10.572 22.857 9.143 11.905-2.571 13.429-3.428 20.19-10.476 3.62-3.81 6.762-8 7.048-9.429.286-1.428.952-4.19 1.429-6.19 1.428-5.333 1.142-17.524-.477-24.571-1.904-8.096-6.952-16.953-14.19-25.239C32.94 69.14 29.797 63.235 26.94 49.235c-1.238-5.714-1.143-20 .095-22.666 2.096-4.667 15.429-10.095 30.19-12.476l9.715-1.524 5.048 2.476c4.952 2.476 6.571 2.286 5.428-.571-.38-1.143.095-1.334 2-.953 3.143.572 3.334-.952.572-3.619-1.81-1.619-1.905-2-.572-3.143 1.334-1.047 2.286-6 1.143-6-.19 0-1.619.667-3.143 1.429-2.476 1.333-3.143 1.238-6.571-.476C65.988-.764 64.369-.67 53.988 2.759zm13.047.952c0 .571-.762.762-1.524.38-.857-.285-1.523-.761-1.523-.952 0-.19.666-.38 1.523-.38.762 0 1.524.476 1.524.952zM98.559 6.664c-.857 2.476.286 12.381 1.905 16.952 1.333 4.096 1.047 6.096-1.048 6.096-.762 0-2.19 1.523-3.143 3.333-1.428 2.571-1.81 5.81-1.81 17.238-.094 18.286.096 17.238-4.19 19.048-4.38 1.81-7.238 4.19-7.238 6.095-.095 2.095 2.286 2.571 5.524 1.143 1.62-.667 3.333-1.238 3.81-1.238 1.428-.096 1.142 68.762-.286 69.238-1.524.476-1.429 1.904.571 6.38.953 2.096 2.286 3.81 2.953 3.81 1.81 0 3.714-7.619 2.857-11.905-.381-2-.572-8.761-.381-15.142.095-6.286.19-19.81.19-29.905-.095-10.19.286-18.953.667-19.524.476-.571 1.048-2.38 1.238-4 .19-2.19.952-3.048 3.333-3.81 2.667-.761 12.19-2.285 20-3.142 1.62-.19 4.286-.667 5.905-1.143l2.857-.762-.571 7.524c-.381 4.095-1.333 10.095-2.19 13.333-3.62 14.571-4.953 30.571-4.096 47.81.762 12.666.953 14 3.333 16.761 3.715 4.477 5.239 2.477 5.239-6.666 0-4 .38-7.524.857-7.81.476-.285 1.143-6.095 1.619-12.857.666-12.667 1.333-16.476 4.095-25.81 2.952-10 3.524-13.142 4-23.333l.38-10.095 3.334-1.143c3.524-1.143 4.572-3.428 2.381-5.238-1.047-.857-2.19-.857-4-.19-2.095.762-2.666.666-2.666-.477 0-1.047 1.142-1.523 4-1.523 3.333 0 4-.286 4-1.905 0-1.524-.858-2-4.286-2.286l-4.19-.286-.667-15.619c-.572-11.428-1.143-16.571-2.381-18.857-1.81-3.619-4-3.523-4 .19 0 1.43-.572 3.239-1.143 4-2.095 2.667-3.714 13.715-3.81 26.286l-.095 13.048-5.428 1.143c-7.429 1.619-19.81 3.619-23.524 3.714l-2.953.095-.285-12.38c-.19-10.381 0-12.858 1.523-15.048 4.572-6.857 5.43-9.143 4.286-12.286-.571-1.714-1.047-4.571-1.047-6.476 0-1.905-.477-4.286-1.048-5.429-.857-1.523-.762-2.571.476-4.476.953-1.333 1.429-2.857 1.048-3.428-1.048-1.715-5.334-1.048-5.905.952zm40.476 38.095c0 4.857-.476 8-1.047 8-.667 0-1.048-3.047-.953-8 .095-4.38.572-8 1.048-8 .476 0 .952 3.62.952 8zm-.666 11.62c2 .761 2.095 3.333.19 3.333-.762 0-1.62-.857-1.905-2-.571-2.19-.476-2.19 1.715-1.334zm2.857 8.666c1.333 3.81.666 14.286-1.524 23.238-1.333 5.524-3.048 12.762-3.714 16.286-.762 3.428-1.715 6.476-2.19 6.857-1.144.667-.096-12.857 1.713-22.476.858-4.096 1.524-11.143 1.524-15.62 0-4.57.286-8.57.667-8.952 1.047-1.047 3.047-.666 3.524.667zM252.083 9.902c-5.62 2.953-8.096 7.524-8.096 14.667 0 6.952 1.81 6.571 4.286-.857 2.667-7.905 6.19-11.048 12.857-11.524 6.381-.476 11.238 1.905 12.953 6.286.571 1.523 1.714 7.523 2.476 13.238.857 6.762 2.286 12.19 3.905 15.523 1.523 3.143 2.19 5.905 1.904 7.334-.476 1.524-.095 2.666 1.143 3.619 1.62 1.143 1.714 2.286.572 17.143-2.572 36.476-4.096 52.38-5.524 60.38-2.381 12.953-2.095 16.096 1.428 19.524 2.572 2.477 3.048 2.667 3.62 1.143.38-.952.095-3.524-.667-5.714-.953-3.048-1.048-4.286-.095-5.143.571-.667 1.142-3.905 1.238-7.238 0-3.333.476-8.476.857-11.524.476-3.047 1.333-10.19 2-16 .666-5.81 2.095-14.762 3.143-20 2.857-14.666 4.19-25.714 3.523-29.714-.571-3.81.762-7.62 4.762-12.952 1.715-2.286 2.477-5.048 2.857-10 .477-4.667 1.62-8.953 3.715-13.524 2.762-5.81 3.524-6.667 6.476-7.238 1.905-.381 3.905-1.334 4.667-2.19 1.619-2 6.666-1.144 13.238 2.285 6.857 3.524 6.857 2.286 0-2.095-4.381-2.667-5.238-3.62-3.524-3.62 3.81 0 8.286 2.953 9.714 6.477 1.81 4.38 4.19 6.38 5.048 4.19.857-2.285-2.953-7.904-7.524-11.047-6.762-4.667-18.571-3.238-27.524 3.428-8.38 6.19-9.81 8.572-9.143 14.667.477 3.905.096 6.286-1.523 10.476-3.62 8.953-4.096 8.762-4.286-1.143-.095-3.524-.476-4.571-1.905-4.857-1.714-.286-1.905.286-1.524 7.238.381 6.762.19 7.62-1.428 7.62-2.572 0-3.62-3.81-4.857-16.477-.762-8.19-1.429-11.524-2.858-13.047-.952-1.048-2.095-2.953-2.476-4.191-.952-3.333-6.857-6.38-13.333-6.952-4.667-.381-6.476 0-10.095 1.81zM216.654 16.76c-2 4.952-2.19 12.856-.286 15.523 2.381 3.429.381 29.429-3.428 43.524-.476 1.905-1.333 12.571-1.905 23.524-.857 16.952-1.524 21.619-4.095 31.428-2.286 8.762-3.714 12.19-5.905 14.476-1.524 1.62-3.048 3.905-3.238 5.048-1.048 6.095-9.238-2.571-12.286-13.238-.952-2.952-3.714-8-6.571-11.81-6.476-8.571-7.62-10.857-8.762-18-1.333-8-.286-23.428 1.81-27.523.476-.858 1.333-5.334 2-10 2.57-19.524 7.714-32.857 12-31.429 3.142.952 4.38-.476 2.38-2.667-1.714-1.904-1.428-2.19 2.381-1.904 2.667.19 3.143-2.953.762-4.953-2.19-1.81-1.904-3.81.762-4.19 3.048-.476 3.238-2.953.286-6.095-2.952-3.238-3.714-3.334-6.095-.762-.953 1.143-2.572 2-3.524 2-2.19 0-6.952 3.81-6.952 5.619 0 .762 1.333 2.095 3.047 2.952 1.62.857 2.953 1.81 2.953 2.19 0 .286-1.62 3.905-3.524 8-4.19 8.667-6.953 16.858-7.905 23.81-.381 2.762-1.62 8.095-2.667 12-1.238 4.476-2.19 11.905-2.571 20.952-.572 12.286-.381 15.334 1.619 24.477 3.619 16.761 12.38 31.238 21.905 36.38 4.857 2.667 5.714 2.762 9.142 1.81 5.715-1.714 10.572-7.714 12-14.762.667-3.238 1.81-8.095 2.477-10.857 1.333-4.667 2.095-8.762 2.952-16 .286-1.714.952-5.905 1.524-9.524.571-3.619 1.047-10.571 1.047-15.524.096-8.19 1.334-19.047 4-33.523.572-3.143.762-10.762.381-18-.38-6.953-.666-15.715-.761-19.524-.096-5.524-.477-6.952-1.715-7.238-1.143-.19-2.19 1.047-3.238 3.81zm-40.762 110.094c1.81 2.19 4.19 6.572 5.334 9.715 1.047 3.143 3.523 8.285 5.428 11.524 1.905 3.238 3.238 6.095 3.048 6.285-.667.667-9.905-11.714-13.334-18.095-3.047-5.714-5.428-13.524-4.095-13.524.19 0 1.81 1.81 3.62 4.095z"/>
	<path d="M364.273 25.807c-9.429 4.571-19.714 17.714-24.667 31.619-10.19 28.571-9.619 27.524-13.047 27.143-4.095-.286-16.857 1.143-18.572 2.19-2 1.238-2.285 4.953-.476 7.62 1.429 2.19 2.19 2.38 9.524 2.38 4.38 0 8 .381 8 .762s-.952 4.095-2.19 8.19c-7.81 27.524-10.096 33.905-14.572 39.715-3.143 4.19-5.714 4.286-7.81.286-2-3.905-4.952-4.096-4-.19 1.048 4.475 3.905 7.713 7.239 8 2.571.285 3.81-.477 8.19-5.43 2.953-3.238 5.905-6.952 6.572-8.38 2.19-4 7.238-19.81 8.571-26.477.952-4.666 3.905-12.952 5.524-15.238.095-.19 6.571-.571 14.38-.857 7.715-.19 15.239-.857 16.667-1.428 3.524-1.334 11.81-1.238 18.096.285 4.476 1.048 5.428 1.62 5.904 3.715.286 1.428 2.096 7.047 3.905 12.666 7.62 22.857 12.381 30.381 19.238 30.381 5.62 0 7.238-1.428 7.238-6.571 0-5.048-2.285-6.19-4.19-2-1.238 2.857-4.572 4-7.143 2.285-1.81-1.238-5.048-8.57-11.143-25.714-1.81-5.238-3.619-10.285-4-11.238-.667-1.524.095-1.714 7.62-1.619h9.428c.571-.095 3.428-3.714 6.38-8.19 4.382-6.572 5.048-8.286 4-9.429-1.523-2-4.952-2-4.952 0 0 2.095-8.857 13.429-10.571 13.429-.857 0-1.429-.953-1.429-2.572V88.57l-6.38.666-6.286.667-.667-5.333c-.381-2.953-.667-13.429-.667-23.334 0-17.428-1.428-29.714-4.095-34.666-2.476-4.667-10.952-4.953-19.619-.762zm16.095 2.476c2.19 2.19 2.476 4.762 3.143 30 .286 12.667.762 24.762 1.143 26.952l.476 4-15.333-.095c-20.286-.19-31.81-1.238-32.476-2.952-.286-.762 1.333-5.905 3.523-11.334 2.286-5.523 5.048-12.857 6.191-16.285 4.762-14 14.857-27.62 22.476-30.286 5.238-1.905 8.953-1.905 10.857 0zM340.464 92.76c.38.572-.096.953-.953.953-.952 0-1.333-.381-1.047-.953.38-.571.857-1.047 1.047-1.047.19 0 .667.476.953 1.047zM411.035 27.712c-1.62 3.047-1.238 8 1.143 12.666 2.476 5.048 5.143 6.286 7.905 3.81 2.57-2.381 2.38-4.19-1.239-11.048-4.095-7.714-5.904-9.047-7.81-5.428z"/>
</svg>
