<?xml version="1.0" encoding="utf-8"?>
<svg xmlns="http://www.w3.org/2000/svg" viewBox="0 0 600 1142">
	<title>A representation of Wise Baviaan, a dog-faced creature with man-like body, in a style reminiscent of Egyptian tomb paintings. Hieroglyphs are drawn on his back, waist and on the platform he sits on.</title>
	<path d="M36.01.218L.869.503v40.953c0 22.571-.286 41.428-.667 42-.285.571-.285 1.524.096 2.19.476.667.666 4.381.571 8.286-.19 3.81-.286 7.619-.19 8.286.095 1.428.095 3.714 0 5.523 0 .667.19 42.858.57 93.715.287 50.857.763 174.19.953 274 .762 301.237 1.715 462.57 3.048 494.951.38 7.429.571 30.095.571 50.286-.095 24.095.286 36.762.857 36.762.572 0 1.048-1.334 1.048-3.048 0-1.619.095-3.047.286-3.047.38-.286 159.238-.953 299.714-1.43 115.619-.285 151.333-.57 245.142-1.999 16.286-.19 30.762-.667 32.19-1.048 2.382-.571 2.763-.095 6.096 7.048l3.62 7.619-.096 22.667c0 12.476.19 29.238.286 37.238l.285 14.476-15.904.286c-12.096.19-16.19 0-16.762-.953-.572-.952-1.048-.952-1.62-.19-.38.571-4.19 1.047-8.952 1.143-4.476 0-8.952.571-10 1.142-1.333.762 1.905 1.048 12.286.953 7.905-.095 14.857.286 16 .857 1.143.667 3.81.762 6.667.38 4.857-.761 16.571-.57 20.476.382 1.905.476 2.286.095 2.286-1.714 0-1.334-.477-2.858-1.048-3.429-1.62-1.524-2.286-42.667-.857-47.81.666-2.19.762-4.095.285-4.285-.476-.095-.761-4.19-.666-8.953.38-16.19 1.714-136.666 1.619-143.809 0-3.81-.19-16.286-.286-27.714-.095-14.667-.476-20.762-1.333-20.762-.762 0-.762-.381.095-1.238 1.62-1.524 1.62-7.143 0-6.19-.762.476-.857.285-.286-.667.477-.667 1.048-2.476 1.143-3.905.286-1.905 1.143-55.905 1.429-88.476v-45.905c0-23.524.19-43.238.476-43.714.286-.476 0-1.81-.571-2.952-.572-1.048-.858-2.381-.477-2.953.667-1.143.762-81.905 0-216.476-.571-116.285-.571-147.143-.19-310.571.19-59.619 0-118.571-.286-130.952-.476-20.953-.667-22.476-2.38-22.857-1.334-.19-1.715 0-1.144.952 1.238 1.905 2 746.095.953 862.38-.286 28.095-.476 51.429-.381 52 .38 8.095.285 54.857-.286 86-.38 22-.762 42-.762 44.476 0 2.762-.38 4.095-.952 3.524-.572-.571-4.381-8.381-8.572-17.524-12.19-26.286-12.285-26.476-27.428-58.19-3.334-7.048-6.095-13.048-6.095-13.429 0-.286-3.334-7.524-7.524-16-4.095-8.476-7.429-15.714-7.429-16.095 0-.381-4.476-9.714-9.905-20.762-16.571-33.524-16.666-33.81-16.476-42.762.096-6.285.667-8.762 2.857-13.143 3.429-6.857 7.62-11.142 12.286-12.666 4.857-1.62 9.524-4.476 9.81-6.096.19-.761.952-3.142 1.904-5.333 1.143-2.857 1.429-3.238 1.143-1.238-.19 1.524 0 2.476.476 2.19 1.239-.761 1.048-5.238-.285-6-.667-.476-.857-2.38-.572-5.333.857-6.952-.285-7.428-16.285-6.095-14.286 1.238-50 .952-50-.381 0-.476.857-2 1.81-3.429 7.523-10.952 11.142-21.238 11.237-31.333 0-3.714.381-8.952.953-11.524.476-2.666 1.142-7.333 1.428-10.38.286-2.953.953-9.239 1.429-14 .952-9.905.666-22.096-.857-33.905-.572-4.667-.858-9.143-.477-9.905.286-.762-.095-4.857-.952-9.048-2-10.19-4.286-27.142-5.619-41.142-.667-6.286-1.524-14.381-2.095-18-.953-6.096-1.143-27.62-.286-29.048.19-.381.667-3.714.952-7.524.762-10.19 3.524-29.524 4.381-31.333.381-.857 1.334-4.286 2-7.524 1.715-8.857 3.143-14.762 4.096-17.048.476-1.047 1.142-3.81 1.523-6 .286-2.19 1.239-5.904 2.096-8.38.762-2.381 1.523-6.381 1.619-8.953 0-2.571.38-5.047.666-5.619.381-.571.667-18.762.762-40.571.096-21.715.381-41.048.667-42.953 2-16.38 13.048-40.571 24.952-54.666 5.238-6.19 10.476-12 13.81-15.238 2-2 5.524-6 8-9.048l4.38-5.428.382-9.81c.476-12.857-3.524-41.048-6.857-48.571-1.905-4.286-2.762-6.858-8-22.762-2.858-8.857-7.905-21.334-11.239-28-5.238-10.476-7.523-14.095-14.761-22.762-2.667-3.333-30.381-31.143-33.524-33.714-4.667-3.81-23.429-28.572-23.429-30.857 0-.381-1.619-2.286-3.524-4.191-1.904-1.81-3.523-3.81-3.523-4.38 0-1.334-20.477-21.62-27.524-27.239-13.048-10.667-32-20.952-44-23.905-6.095-1.524-20.952-4.476-30-5.904-1.62-.286-8.857-1.239-16-2-7.143-.858-14.571-1.81-16.476-2.096-2.476-.285-3.048-.19-2 .476.857.572 9.428 2.096 19.047 3.524 23.334 3.429 42.858 7.62 54.477 11.81 8.095 3.047 22.57 12 33.333 20.857 14.095 11.619 32.762 32.095 43.143 47.428 4.38 6.381 16.095 20.477 17.047 20.477.762 0 24.095 23.619 30.19 30.476 5.239 6 12.667 17.238 13.43 20.285.285 1.524 1.142 3.429 1.904 4.191 4 4.762 11.429 23.81 14.381 37.048.476 1.904 1.619 5.238 2.476 7.428 3.62 8.286 6.381 22.286 8.572 43.81 1.333 13.142.19 18.19-5.334 23.904-10.857 11.238-24.285 27.048-28.476 33.334-2.476 3.904-6.095 10.666-7.905 15.047-1.904 4.381-3.81 8.381-4.38 8.953-.477.476-.858 1.714-.858 2.761 0 .953-.476 1.715-1.047 1.715-1.048 0-.858-1.429 1.047-8.953 2.381-9.142.476-16.571-5.428-21.714-2-1.81-3.62-3.428-3.62-3.619 0-.19 2.858-.38 6.286-.38 5.429.094 7.048-.382 12.572-3.62 10.762-6.286 14-11.428 16.095-25.143 2.38-15.238.857-43.047-2.857-54.857-1.81-5.714-6.953-24.666-9.238-34.19-1.524-6.286-6.857-22.572-8.762-26.953-1.048-2.19-2.095-5.238-2.476-6.762-.381-1.523-1.143-2.761-1.62-2.761-1.523 0-1.237 1.047 2.096 10.095 5.428 15.047 7.714 22.286 8.952 28.38 1.524 8.096 7.81 32.477 8.953 35.048.857 1.81 2.761 16 2.761 20.953.286 22.476.286 31.81-.095 32.19-.285.286-1.238-.952-2.19-2.857-2.286-4.381-4.381-6.667-7.81-8.476-4.762-2.476-9.428-3.048-14.571-1.905-3.238.762-3.333.667-2.667-1.524.381-1.333 1.143-4.476 1.62-6.952 1.142-5.81.38-45.238-.953-50.476a107.296 107.296 0 0 1-1.524-6.953c-2.19-12.476-8-34.857-12-46.571-4.19-12.286-15.048-36.476-16.762-37.524-.476-.286-2.19-3.333-3.905-6.571-1.619-3.334-3.238-5.81-3.523-5.524-.381.286 1.904 4.952 4.952 10.38 3.048 5.43 6.286 12.096 7.238 14.858.952 2.667 2.762 7.143 4.095 9.905 2.381 5.047 12.857 38.571 13.715 44 .19 1.714 1.333 6.666 2.476 11.047 3.905 15.048 5.714 37.429 4.476 55.143l-.571 8.19-3.62-3.809c-5.904-6.286-19.047-8.286-29.523-4.667-5.905 2-8.19 1.62-6.667-1.333.571-1.048 1.048-3.524 1.048-5.428 0-3.048-.572-3.905-3.905-6-2.095-1.429-5.524-3.239-7.62-4.096-4.38-1.81-16.666-2.095-21.332-.38-4.286 1.428-4.953.476-1.81-2.382 3.143-2.666 10.667-16.38 12.952-23.428 1.62-4.857 3.715-13.238 6.381-25.333.857-3.81 1.62-14.858 2-26.477.477-17.81.286-20.952-1.523-28.571-1.048-4.667-2.286-11.333-2.667-14.952-.381-3.62-1.81-10.572-3.143-15.524-4.095-14.19-15.333-36.476-15.333-30.19 0 .857.476 1.904 1.047 2.19 1.334.857 10.286 19.905 12.286 26 1.81 5.714 2.571 9.905 3.143 17.047.19 2.762.952 7.715 1.524 10.953 3.143 16.571 3.523 41.619.857 56.476-3.81 22.095-10.286 40.095-17.333 48.286-1.905 2.285-3.524 4.762-3.524 5.428 0 .762-.762 1.334-1.715 1.334-1.333 0-1.428-.286-.476-1.239 1.715-1.619 1.524-5.904-.476-8.666-3.714-5.334-16.19-6.762-26.857-3.048-3.238 1.048-6.19 1.905-6.667 1.714-.476-.095.476-1.619 2-3.238 4.572-5.047 15.143-24.19 17.715-32.19.857-2.667 1.904-5.714 2.38-6.857 6.19-15.62 11.239-41.81 11.429-59.334.19-11.904 0-12.952-1.143-10.095-.952 2.286-1.143 5.905-.762 11.429.381 6 0 10.38-1.428 16.571l-3.81 16.953c-1.047 4.666-3.81 14.095-6.095 20.952-2.286 6.857-4.095 12.762-4.095 13.238 0 .381-3.143 6.476-6.953 13.429-3.904 6.952-7.047 12.857-7.047 13.047 0 .286-1.143 1.62-2.667 3.143-1.429 1.429-2.38 2.19-2 1.62.857-1.715-2.286-7.049-4.952-8.287-1.334-.666-3.524-1.142-4.762-1.142-4.476 0-25.62 8.285-24.381 9.523.19.286 3.333-.762 6.857-2.19 8.762-3.62 15.714-5.143 19.714-4.286 4.381.953 5.429 2.19 5.62 6.19.095 3.143.19 3.239 4 3.048 2.19-.19 6.57-.952 9.809-1.81 10.38-2.57 17.81-1.523 22.19 3.334 1.62 1.81 1.715 2.571.572 5.143-.667 1.619-.953 3.333-.572 3.905.286.571 6.19.762 14.857.38 13.143-.476 14.572-.38 18.381 1.62 6.572 3.333 9.143 8.38 5.81 11.142-.762.667-1.429 2.286-1.429 3.62 0 2.952 2.381 3.047 13.238.857 8.381-1.715 18.572-.762 21.715 2 .857.857 2.19 1.523 2.762 1.523 1.428 0 4.19 5.239 4.19 7.905 0 1.048-.381 2.286-1.048 2.667-.571.286-.857 1.333-.666 2.286.19 1.333 1.81 1.619 9.333 1.714 7.905 0 9.524.38 12 2.286 3.524 2.762 7.333 10.38 7.429 14.762 0 5.238-6.286 12-14.953 16-4.476 2.095-6.666 2.476-11.905 2.19-3.714-.19-6.57.095-6.761.667-.19.571 2.095 3.619 5.047 6.762 6.095 6.38 6.572 8.19 5.238 18.761-.476 3.62-1.047 9.429-1.238 12.953-.19 3.619-.666 10.571-1.143 15.524-.38 4.952-.666 22.095-.476 38 .286 30.095-.857 49.904-3.428 59.428-.858 3.048-1.905 7.62-2.286 10.095-.476 2.476-1.905 8.096-3.143 12.476-3.238 11.715-6 25.334-6 29.524v3.715l-18.667.57c-10.38.382-48.285.668-84.285.763-36 0-69.62.286-74.762.476-5.62.286-9.238.095-9.238-.571 0-.477 1.619-4.381 3.524-8.667 6.285-13.524 11.238-26.095 14-35.81.952-3.238 2.285-7.81 3.047-10.095.762-2.285 2.286-7.905 3.429-12.476 2.38-10.095 3.81-15.048 5.524-20.38.666-2.191 2-6.763 2.857-10 3.333-12.191 3.714-13.239 7.143-21.048.761-1.62 1.523-4.19 1.904-5.62.667-3.142 8.286-14.857 10.19-15.523 1.81-.762 1.81-4.381-.094-4.381-1.429 0-1.715.285-5.81 5.524-4.762 6.095-9.714 17.523-13.619 31.523-1.143 4.096-3.048 10.667-4.286 14.477-2.19 7.428-2.952 10.19-4.762 17.523-4.19 17.715-7.238 28.286-8.19 29.429-.476.571-.857 1.81-.857 2.857 0 .952-.857 3.714-1.905 6-4.286 9.619-10.095 23.714-10.095 24.667 0 1.238-6.095 13.714-12.381 25.238-6.381 11.714-7.81 19.143-8.095 40.285-.096 10.953-.572 18.477-1.429 21.048-3.143 9.524-29.143 38.286-43.143 47.619-1.333.952-4.952 3.524-7.904 5.81-3.048 2.19-7.81 5.619-10.572 7.523-2.762 2-7.428 5.429-10.476 7.62-3.048 2.19-8.667 5.904-12.476 8.095-3.81 2.285-7.429 4.571-8 5.047-2 1.524-10 6.762-10.667 6.762-.286 0-4.571 2.476-9.428 5.524-8.19 4.952-12.381 7.238-23.905 12.571-2.19 1.048-4.667 2.286-5.524 2.857-2.476 1.62-47.714 23.048-48.667 23.048-.952 0-14.476 5.524-18.285 7.524-3.524 1.714-20.572 7.428-22.381 7.428-.857 0-1.62.477-1.81 1.143-.19.572-2.38 1.429-4.762 2-2.38.572-6.19 1.81-8.476 2.762-2.286 1.048-4.952 2.095-5.905 2.476-.952.286-1.714 1.238-1.714 1.905 0 1.143-4.762 1.524-11.238.857-.38-.095-.667-4-.571-8.857 0-4.762-.096-19.619-.19-33.047l-.382-24.286 2.476-1.62c1.334-.952 3.143-2.666 4.096-3.809 1.333-1.714 14.476-11.047 21.047-14.952.953-.572 3.524-2.286 5.714-3.81 2.19-1.523 5.81-3.81 7.905-5.238 2.095-1.428 4.667-3.333 5.714-4.285 1.048-.953 6.191-4.381 11.429-7.62 5.238-3.238 10.19-6.476 11.048-7.238.857-.666 4-2.571 6.952-4.19 3.048-1.62 9.333-5.429 14-8.571 4.667-3.143 9.62-5.905 11.048-6.286 1.333-.286 3.81-1.62 5.428-2.857 1.714-1.238 4.19-2.572 5.524-2.953 1.333-.38 3.143-1.238 4-2 .857-.666 3.333-2.19 5.524-3.333 6-3.143 18.762-11.333 21.524-13.714.761-.762 4.857-4.19 8.952-7.715 4.095-3.523 7.905-7.238 8.476-8.285.572-1.048 3.429-6 6.286-11.048 2.857-5.047 5.238-9.619 5.238-10.286 0-.666 1.048-3.238 2.38-5.904 3.144-6.19 8.953-21.238 11.144-28.667.952-3.333 2.19-6.476 2.666-6.952.477-.572.762-1.81.858-2.857 0-1.048.571-3.905 1.333-6.572 2-6.476 4.095-14.476 5.905-22.19 1.523-6.572 6.857-26.572 10.666-40 1.143-4.096 2.286-8.572 2.476-10 .477-3.238 3.239-15.048 3.905-16.953.381-.857.857-3.047 1.048-5.047.286-1.905 1.905-8.19 3.524-14 1.714-5.715 3.333-11.715 3.619-13.238.19-1.62.857-4.286 1.428-6 1.429-4.857 7.048-27.334 8.572-34.762.762-3.524 2.571-9.81 4-14 1.428-4.095 3.238-9.905 4.095-12.953.857-3.047 1.905-5.904 2.286-6.476.476-.571 2.476-5.047 4.571-10 10.857-26 18.476-36.952 31.048-44.476 2.19-1.333 4.19-2.667 4.476-3.048 2.952-3.523 21.047-10.857 32.286-13.047 14.857-2.952 18.857-2.667 32.952 2.476 6.762 2.381 14.19 4.952 16.571 5.524 6 1.619 19.238 9.81 22.953 14.286.952 1.142 1.238 24.761 1.238 111.047 0 95.905.19 109.619 1.524 110.762 1.142.857 4.857 1.047 14.761.571 7.239-.38 20.762-.666 29.905-.666 11.714.095 16.857-.286 17.429-1.143.476-.762 1.714-121.048 1.333-132.286 0-.571-.286-8.38-.571-17.428l-.572-16.381-3.619-3.048c-2-1.714-4.571-4.095-5.714-5.143-1.048-1.143-4.857-4.571-8.476-7.524-3.524-3.047-7.143-6.19-8-7.142-.857-.858-4.477-4.286-8-7.524-3.62-3.143-10.857-9.714-16-14.476-12.762-11.62-14-12.572-25.048-20.096-5.714-3.904-11.143-6.761-13.524-7.142-2.19-.381-9.714-2.572-16.857-4.858-12.666-4-13.047-4-23.428-3.428-5.81.38-10.953 1.143-11.524 1.714-.572.476-2.19.953-3.524.953-1.429 0-5.333 1.333-8.762 2.952-7.524 3.524-15.143 3.619-18.571.286-2.953-2.953-3.524-10.762-1.238-15.81 2.095-4.476 18.38-20.952 21.714-22 1.238-.38 3.143-1.428 4.286-2.476 1.047-.952 6-3.905 10.952-6.476 34.476-18.286 56.095-37.81 60.857-54.762 2-7.333 4.476-19.048 5.62-26.667.57-3.81 2.666-9.905 5.142-15.047 5.333-11.334 5.619-15.429 1.238-24-2.476-5.048-3.333-8-3.524-13.048-.19-7.048-2-12-4.285-12-.858 0-3.334 2.381-5.524 5.333-4.381 5.524-9.429 9.524-12.095 9.62-.953.095-2.191.761-2.858 1.618-.762.762-2.095 1.43-3.047 1.43-2.19 0-16.095 6.094-17.905 7.904-.762.666-3.81 3.047-6.762 5.238-3.048 2.286-6.286 5.714-7.524 8.19-1.524 2.858-2.285 3.715-2.571 2.572-.572-2.572 2.38-7.429 7.81-13.048 5.142-5.238 6.095-8.286 1.142-3.524-3.619 3.524-4.19 3.429-4.19-.476 0-6-14.953-17.428-25.334-19.333-2.476-.476-3.619-.286-3.619.38 0 .667 1.429 1.144 3.239 1.144 8.666 0 21.238 10.19 22.761 18.476.762 4 .572 5.238-1.619 9.428-2.19 4.286-2.38 5.429-1.619 10.381.572 3.715 1.81 6.762 3.905 9.429 2.381 2.952 2.857 4.286 2.19 5.524-.761 1.333-.666 1.714.477 1.714 1.904 0 2.952-3.429 1.81-5.619-.572-1.048-2.191-2.952-3.62-4.286-1.428-1.333-2.571-3.333-2.571-4.476.095-3.905 5.714-11.81 11.143-15.714 5.81-4.095 19.047-10.857 21.238-10.857.762 0 5.047-1.81 9.524-4.096 6.761-3.333 8.761-4.952 11.428-8.952 1.714-2.667 3.62-4.952 4.286-4.952.571 0 1.524 3.904 2.19 9.143.857 6.666 1.905 10.38 4 14.19 4.095 7.238 3.81 10.286-1.81 23.143-3.428 7.81-5.142 13.333-5.904 19.047-1.238 9.143-3.81 19.905-4 16.953-.095-1.143-1.333.762-2.952 4.476-2.381 5.429-3.239 6.476-4.953 6.19-1.238-.095-2.19.19-2.19.762 0 1.81-6.476 7.81-11.524 10.572-3.81 2.095-6.19 2.666-10 2.476-2.762-.095-7.143-.095-9.81-.095-4.571.095-4.857 0-6.285-3.429-.762-1.905-2.19-3.81-3.143-4.19-.953-.286-2.095-1.143-2.572-1.905-.38-.762-1.619-1.333-2.666-1.333-1.048 0-2.19-.477-2.572-1.048-.952-1.62-5.619-3.238-8.762-3.048-4.476.19-7.428 2.858-9.142 8.096-2.19 6.571-1.238 12.857 2.666 17.714 4.667 5.905 6 8.952 5.238 12.571-1.047 5.715 2.667 7.62 12.572 6.19l4.476-.57-7.905 4.285c-4.285 2.381-11.428 6.667-15.81 9.62-8.095 5.332-8.38 5.332-3.714-.858 6.096-8 9.239-19.143 6.953-24.476-1.048-2.381-1.048-2.476-1.524 5.524-.286 6.666-2.762 12.857-7.619 18.952-6.19 7.905-6.952 9.048-6.476 9.905.38.476-.095 1.523-.953 2.19-1.238 1.048-1.333.953-.762-.571.667-1.715.477-1.715-1.333-.381-1.143.762-3.905 3.714-6.095 6.38-9.81 12.096-15.81 17.048-30.19 24.763-14.953 7.904-24.096 14.095-24.096 16.285.096 2 .096 2 4.572-2.095 3.619-3.238 8.571-6.286 22.952-14 7.81-4.19 15.524-10.19 22.286-17.333l6.19-6.572-2.476 4.477c-2.857 5.238-3.143 10.761-.857 15.619 2 4.095 2.762 4.666 7.81 5.333l3.904.571-2.952 1.429c-5.048 2.571-16.667 10.952-21.238 15.238-5.334 5.048-11.143 13.905-14.667 22.38l-2.762 6.382-5.428-5.524c-5.62-5.714-10.858-8.667-18.953-10.857-6-1.524-15.428-.476-26.666 3.048-4.381 1.428-8.762 2.19-9.905 1.809-1.334-.38-1.81-.286-1.334.476.858 1.334-3.428 3.143-7.714 3.048-8 0-15.143-4.381-16.285-9.905-2.381-11.905-6.286-17.714-12.477-18.476-1.81-.286-4.571-1.048-6.19-1.62l-2.857-1.237 3.333-3.524c4.857-5.143 15.62-11.81 22.095-13.714 6.667-1.905 15.238-1.334 22.953 1.524 3.619 1.428 4.666 1.523 4.762.476 0-.762-3.334-2.19-8.286-3.524-14.762-3.905-24.476-1.429-38.762 10.286-9.333 7.523-8.476 7.238-12.476 4.095-4.476-3.62-7.238-11.524-8.095-23.333-.667-8.477-3.239-14.953-6.096-14.953-.571 0-1.619-.762-2.285-1.524-.762-.857-1.715-1.238-2.286-.857-.667.381-.762.19-.381-.476.38-.667 0-2.571-.952-4.38-2.286-4.477-2-10.191.857-15.144 1.333-2.285 2.762-5.428 3.047-6.952.381-1.524 1.143-2.762 1.715-2.762.476 0 .952-.476.952-1.048 0-2 16.19-19.904 20.857-23.143 6.095-4.19 26.667-21.238 30.286-25.142 4.476-4.857 10.095-14.762 10.571-18.857.667-4.953-1.143-9.239-6.285-14.858-4.286-4.666-6.381-10-4.667-12.19 12.571-16.19 22-25.81 32.762-33.238 3.81-2.667 10-7.714 13.619-11.048 3.905-3.524 8.762-6.952 11.524-8 2.666-1.047 12.571-5.81 22.095-10.666 20.285-10.19 23.238-10.858 34.476-7.81 8.857 2.381 13.238 2.667 7.238.476-6.38-2.38-18.571-4.666-21.238-4-1.333.381-9.714 4.286-18.571 8.667-8.858 4.38-19.048 8.952-22.477 10.095-4.666 1.62-8 3.62-12.571 7.714-6.857 6.286-18.095 15.048-19.143 15.048-1.714 0-27.143 25.524-28 28.095-.286 1.048-1.238 1.905-2 1.905s-1.524.381-1.81.762c-1.047 1.81 3.143 11.333 6.477 15.048 2 2.19 4.286 5.142 4.952 6.38 3.429 6.381-1.619 18.381-11.524 27.62-7.142 6.57-26.952 22.19-28.19 22.285-1.81 0-17.333 16.572-22.286 23.714-1.714 2.477-2.095 4-1.524 6.667.572 3.048.381 3.62-1.238 3.62-.952 0-2.38.38-3.143.761-1.523 1.048-2.666 10.952-1.333 12.571.476.572 1.143 2.762 1.524 4.762.571 2.953 1.619 4.286 5.333 6.762 5.715 3.81 7.334 7.238 7.334 15.905 0 14.571 5.81 26 13.333 26.19 1.048 0 2.38.667 3.048 1.524.666.857 3.142 1.905 5.619 2.19 7.523.953 12.571 6.286 13.523 14.096.477 3.81 6.286 11.905 9.905 13.619 5.714 2.667 13.238 2 26.762-2.476 10.095-3.429 13.714-4.19 20.762-4.286 7.524-.095 9.143.19 14.38 2.762 3.334 1.524 8.287 5.143 11.144 7.905l5.143 5.143-2.286 4.476c-2.572 4.952-8.286 20.571-11.429 31.047-1.905 6.667-4.19 15.238-10.571 40.953-2 8-4 15.333-4.476 16.285-.477.953-1.334 3.429-1.81 5.524-.571 2-1.81 7.143-2.857 11.238-1.048 4.096-2.952 12.477-4.19 18.477-1.239 6.095-2.858 12.761-3.62 14.761-.761 2.096-1.428 5.143-1.428 6.762 0 1.715-.476 3.81-.952 4.762-1.715 3.143-4.096 11.334-3.524 12.286.38.571.095.952-.572.952-.571 0-.952 1.048-.857 2.286.095 1.238-.095 2.857-.38 3.714-1.334 3.238-5.62 19.81-6.763 26-4.285 23.62-25.428 75.714-34.952 86-6.476 7.143-15.714 14-31.524 23.714-14.095 8.667-12.952 8.381-38.286 8.953-12.476.19-27.619.857-33.714 1.428-6 .477-16.38 1.429-22.952 1.905-6.667.572-14.476 1.429-17.524 2-3.048.476-7.143 1.143-9.238 1.524l-3.619.571-.095-135.809c-.096-74.667-.286-147.714-.572-162.286-.666-36.761-.571-279.333.096-313.523.38-15.333.571-36.667.571-47.238V3.456l13.143-.095c7.238 0 18.857-.19 25.714-.381 22.095-.667 265.81-.572 286.476.095 42.857 1.333 262.476 2.571 260.571 1.428-.857-.38-4.667-1.047-8.571-1.428-8.667-.857-135.048-.953-136.381-.19-.476.285-1.048.19-1.238-.286-.286-.762-171.524-2.857-201.333-2.381-7.143.095-25.429.095-40.476 0C158.2-.068 73.916-.068 36.01.218zM381.345 203.74c-1.048 4.096-8.667 15.048-15.048 21.429-6.095 6.19-16.762 13.81-27.524 20-5.904 3.333-17.523 5.905-21.904 4.762-2.096-.476-2.286-.953-1.715-4 .762-4.095-1.047-8.476-5.428-13.238-3.524-3.905-4.762-10.381-2.953-15.905 2-6.19 3.715-7.62 8.858-7.048 2.571.286 4.761 1.143 5.333 2.096.476.857 1.81 1.619 3.048 1.619 2.666.095 7.714 4.285 7.714 6.476 0 2.476 4.285 4.571 9.143 4.38 2.38-.095 5.81.191 7.619.572 6.095 1.333 16.285-3.714 22.666-11.238 1.905-2.38 3.62-3.81 3.62-3.143 0 2.286 2.761-.952 4.57-5.524 1.906-4.571 3.048-5.333 2-1.238zm-48.572 46.19c0 .191-.476.667-1.047 1.048-.572.286-.953.096-.953-.476 0-.571.381-1.047.953-1.047.571 0 1.047.19 1.047.476zm85.429 96.953c6.667 6 16.095 14.571 21.047 19.143 4.953 4.476 10.381 9.428 12.19 11.047l3.239 2.858.762 14c.38 7.714.571 22.38.286 32.476-.381 19.047-.381 25.238.095 82.952.286 32.667.286 33.429-1.714 34.19-1.048.381-14.477.762-29.715.762h-27.619l-.095-4.19c0-2.286 0-26.857.095-54.667.096-27.81.096-56.666 0-64.19-.095-9.333.19-13.905 1.048-14.381.762-.476.762-.857.095-1.333-1.047-.572-1.524-32.477-1.238-69.238l.095-9.62 4.667 4.667c2.667 2.572 10.19 9.62 16.762 15.524zm79.238 66.762c-.381.762-.572.571-.667-.572 0-1.047.19-1.714.572-1.333.285.286.38 1.143.095 1.905zm-20.857 182.38c-1.238 13.048-.476 40.858 1.524 53.905.285 1.715.761 5.905 1.142 9.524.381 3.62.858 6.762 1.048 7.143.381.667-41.619 1.905-60.571 1.905-22.381-.095-111.62.857-131.714 1.428-11.715.286-21.239.286-21.239 0 0-.38 1.524-2.666 3.429-5.143 1.905-2.57 4-6.476 4.571-8.761.572-2.19 1.429-4.762 2-5.62 3.048-4.666 6-11.333 7.81-17.523 2.476-8.286 3.714-32 1.905-36-.953-2.095-.762-3.334 1.238-7.238l2.38-4.667h77.525c42.666 0 84.761-.286 93.618-.571 8.762-.19 16.096-.381 16.286-.381.095.095-.286 5.523-.952 12zm-191.238 4c1.333 7.43-1.238 29.81-4.476 38.477-4.096 10.666-4.762 10.476-5.429-1.429-.571-10.095.381-20.762 2.286-25.143.476-1.047 1.81-5.047 3.047-8.762 1.143-3.714 2.477-6.761 2.953-6.761s1.238 1.619 1.619 3.619zm195.81 78.286c.38 3.62 1.237 10.667 2.094 15.62 1.334 8.285 2.572 24.475 2.762 37.047.19 8.571-1.428 30.38-2.476 33.714-.476 1.81-1.333 8.667-1.714 15.238-.762 11.143-1.048 12.572-4.572 19.524-2.095 4.095-5.142 9.238-6.857 11.524l-3.143 4-6.476-.857c-4-.477-9.904-.381-15.047.19-5.238.667-25.715.857-53.524.572-24.762-.286-45.62-.477-46.476-.477-38.19.667-327.714 1.905-324.952 1.334 2.476-.476 22.285-7.429 26.952-9.429 1.333-.571 6.952-2.667 12.286-4.476 5.428-1.905 12-4.476 14.571-5.714 2.572-1.334 7.524-3.429 11.143-4.667 3.62-1.333 8.381-3.714 10.667-5.238 2.285-1.524 4.952-2.762 6-2.762 3.238 0 6.285-1.238 6.38-2.38 0-.572 2.667-2.191 6-3.43 3.334-1.333 9.81-4.476 14.382-7.142 4.666-2.667 9.428-5.143 10.761-5.62 2.762-.857 11.62-5.237 13.239-6.57 3.142-2.572 21.238-13.525 25.619-15.43 1.333-.666 3.047-1.904 3.81-2.761.761-.953 1.809-1.715 2.19-1.715 1.238 0 14.285-8.476 22.857-14.857 4.095-3.143 10-7.428 13.143-9.619 3.142-2.19 7.047-4.952 8.57-6.19 1.62-1.238 5.334-4.19 8.382-6.476 5.714-4.477 18.095-16.953 24.571-24.857 2.096-2.477 4.476-4.286 5.334-4.191 2.476.476 42.666.19 50.571-.38 3.905-.191 41.143-.572 82.857-.858 41.714-.19 76.095-.667 76.476-.952 1.429-1.524 3.143 2.285 3.62 8.285zm-369.524-2.38c-.286.285-3.143 1.904-6.476 3.618-3.239 1.715-8.19 4.572-10.953 6.286a788.314 788.314 0 0 0-6.952 4.381c-1.143.667-4.286 2.381-7.048 3.905-4 2.095-32.38 20.571-46 30-1.619 1.143-5.619 3.81-8.762 5.905-3.238 2.095-8.762 6.761-12.285 10.19-3.524 3.524-6.667 6.19-7.143 5.905-.476-.286-.762-14.381-.762-31.334v-30.761l8.952-1.239c4.953-.761 15.334-1.81 23.048-2.38 20-1.524 22.571-1.81 26.38-2.477 2.287-.38 3.715-.19 4.287.667.761 1.048 1.047 1.048 1.428.095.381-.762 3.048-1.238 7.714-1.333 3.905-.095 9.905-.476 13.143-.857 6.953-.857 22.095-1.238 21.429-.572zm228.857 141.713c1.81 1.715 95.238 1.81 95.238.096 0-.762.666-1.334 1.523-1.334.762 0 1.524.667 1.524 1.429 0 1.143 7.715 1.238 45.715.952l45.714-.38-3.143 3.237-3.238 3.143-49.333.286c-49.524.286-104.857.286-340.286 0l-128-.095-.285-2.762c-.19-1.714.19-2.762.952-2.857.762 0 73.048-.095 160.571-.286 123.333-.095 159.524-.476 160.476-1.429 1.524-1.523 11.048-1.523 12.572 0zm194 5.048c.285 1.048-.667 1.62-2.667 2-3.524.476-3.714.095-1.429-2.476 1.905-2 3.715-1.905 4.095.476zm-69.239 46.667c-.857 1.524 4.19 2.095 18 2 24.667-.096 23.334-.286 24 2.857.381 1.524 1.429 4.571 2.477 6.762.952 2.19 2.095 4.952 2.476 6.19.38 1.238 2.38 5.81 4.571 10.286 2.19 4.476 4 8.286 4 8.571 0 1.238 12 26 16.381 33.81l2.762 4.952-7.238-.666c-7.714-.762-140.19-.858-175.714-.19-18 .38-21.238.19-21.238-1.049 0-.761-.476-1.428-.953-1.428-.571 0-.952.571-.762 1.238.191.952-9.714 1.238-46.761 1.333-41.62.096-47.238-.095-48.857-1.524-5.334-4.476-20.858-31.619-23.143-40.19-2.572-9.905-2.286-13.619.857-14.38 2.857-.763 7.333-5.239 7.81-7.906.38-2.38 2.857-3.333 2.857-1.142 0 .952.38 1.428.952 1.047.667-.38-.19-2-2-4.095-1.62-1.905-2.952-3.905-2.952-4.381 0-.571 27.238-.952 68.666-.952 37.81 0 69.905-.096 71.333-.19 1.334-.096 6.953.094 12.477.475 20.095 1.143 89.523 1.143 89.333-.095-.19-1.238.095-2.286.666-2.286.381 0 .381.477 0 .953zM30.773 916.407c0 .572-.572 1.048-1.143 1.048-.572 0-.762-.476-.381-1.048.286-.476.762-.952 1.048-.952.19 0 .476.476.476.952zm8.476 5.905c-.762.762-2.572-1.048-1.905-2 .381-.667.953-.571 1.429.286.476.666.666 1.428.476 1.714zm3.238 12.19c1.048 1.715 1.048 2.096-.286 2.572-1.904.762-5.047-2-4-3.524 1.048-1.714 2.953-1.333 4.286.952zm480.761 11.905h17.048l4.38 9.334c2.382 5.047 6 12.666 8.191 16.857 2.096 4.285 3.524 7.904 3.143 8.19-.476.286-6.19.095-12.762-.38-6.666-.477-20.095-.667-30-.382-9.904.19-59.619.572-110.476.857-50.952.286-115.904.858-144.571 1.238-28.571.286-96.571.667-151.143.762l-99.238.096-.285-9.524c-.19-5.238-.19-12.953 0-17.143l.285-7.714h12.667c43.619.095 325.428-2 325.904-2.381.096-.19 101.905-.095 176.857.19zm-56.19 36.857c.38.572 6.19.857 6.19.286s50.572-.762 64.19-.286c10.096.381 18.287.381 18.287-.095 0-.38.476-.762 1.047-.762.476 0 .953.667.953 1.429 0 1.143 6.38 15.143 9.238 20.095.571 1.143 2.666 5.143 4.571 9.048 1.81 3.81 6 12.38 9.238 19.047 3.333 6.572 6 12.19 6 12.476 0 .286-14.571.477-32.286.477-17.714 0-40.095.19-49.714.476-23.619.476-125.143-.572-132-1.429-4.095-.571-5.142-.476-4 .381 1.048.762-6.19 1.048-25.523 1.048-36.381.095-54.953.571-56.286 1.333-.572.381-1.333.286-1.62-.19-.38-.572-21.713-.667-51.332-.381-56.096.571-109.62.762-115.81.285-2.19-.19-11.238-.19-20.095-.095-8.952.19-16.667 0-17.333-.38-.572-.382-1.048-.191-1.048.475 0 .572-.762.858-1.714.572-2.476-.762-8-.762-28.286-.095-18.19.571-41.238.571-41.81 0-.285-.286-.19-47.334.096-56.572l.19-4.476 12 .095c6.667 0 15.62.19 20 .286 4.381.19 25.334.095 46.572-.286 21.142-.38 39.333-.762 40.476-.762 1.047 0 24.285.096 51.524.19 27.142 0 72.38-.19 100.476-.475 40.571-.477 89.81-.572 110.476-.286 12.476.095 73.333-1.238 73.714-1.62.857-.856 3.048-.761 3.619.191z"/>
	<path d="M419.439 361.741c-.762 1.238-2.476 4.572-3.62 7.333-1.904 4.381-2.094 5.81-1.237 10.953.571 3.238 1.238 6.667 1.619 7.619.571 1.524.19 1.619-3.048 1.143-2.857-.476-3.619-.381-3.238.762.476 1.523 13.524 2.095 24.572 1.047 7.714-.666 6.19-2.666-1.81-2.476l-6.476.19 4.286-1.047c4.666-1.238 5.333-2.857 2.285-5.524-2.095-1.714-2.857-3.905-1.143-2.857.572.381 2.096-.952 3.62-2.857 2.952-3.905 2.666-6.762-1.143-10.857-2.667-2.857-8.286-6.19-9.048-5.334-.571.477 5.714 6.572 6.857 6.572.381 0 1.048 1.619 1.429 3.619.476 2.667.19 4-.953 5.143-1.428 1.524-1.904 1.524-5.81 0-2.856-1.143-4.57-1.334-5.237-.667-.667.571-.381.952.762.952 2.19 0 7.619 5.239 7.619 7.429 0 .857-1.238 2.095-2.762 2.571-1.524.572-3.524 1.429-4.476 2-2.381 1.334-2.477 1.334-3.334-1.714-1.428-5.619.667-21.619 3.334-24.571 1.333-1.524 1.428-1.715 0-1.715-.858 0-2.19 1.048-3.048 2.286zM402.677 392.98c-1.333 1.618-.571 1.809 2.476.57 1.62-.666 1.715-.856.286-1.333-.857-.38-2.095 0-2.762.762zM399.725 396.503c0 .571.476.762 1.047.476.477-.38.953-.857.953-1.047 0-.286-.476-.477-.953-.477-.571 0-1.047.477-1.047 1.048zM433.725 407.646c0 .667 1.143 2.19 2.666 3.333 2.286 1.81 2.572 2.572 1.905 5.81-.762 4-4.286 7.143-6.952 6.095-1.905-.762-2.096-3.143-.572-6.952 1.715-4.572-1.619-6.953-5.619-4.096-1.81 1.429-1.81 1.524-.095 3.429 3.62 4 0 10.095-4.38 7.428-1.144-.761-2.382-1.047-2.858-.761-1.048.571-.286-4.286 1.143-7.239.762-1.619.762-2.57-.19-3.619-.667-.857-.953-1.904-.667-2.476.285-.476-.572-.666-2-.38-3.048.57-4.096 2.856-2.572 5.333.762 1.142.762 2 .19 2.38-.57.382-.952 2.382-.952 4.572 0 6.381 5.429 8.762 12.572 5.333 2.666-1.238 3.81-1.333 4.666-.476 1.238 1.238 5.62 1.429 7.238.286.572-.381 2.286-2.381 3.905-4.381 3.905-5.238 3.429-10.572-1.143-13.048-3.81-2.095-6.285-2.285-6.285-.571zM424.677 442.408c1.429 2.666 1.238 8.095-.476 11.047-1.81 3.238-1.81 4.953-.095 4.953.857 0 2.285-2.572 3.619-6.572 2.476-7.428 1.81-11.428-2-11.428-1.715 0-1.905.38-1.048 2zM430.772 442.217c0 .381.667 1.905 1.429 3.238 2.286 3.905 1.81 5.905-2.572 11.143-4.666 5.62-3.904 6.286 1.81 1.62 8.286-6.763 10.38-13.62 4.667-15.81-3.048-1.143-5.429-1.238-5.334-.19z"/>
	<path d="M415.915 450.313c-1.81 1.142-3.143 7.523-2 9.523.476.953 2.19 1.62 3.81 1.62 2.666 0 2.952.285 3.238 4.285.19 3.429.666 4.19 2.285 4.19 1.524 0 1.905-.57 1.81-2.857-.19-1.619-.857-3.333-1.524-3.81-1.047-.666-1.047-1.047.19-1.809 2.096-1.428-.285-2.857-4.095-2.571-3.428.19-3.523-.286-.857-4.952 1.048-1.905 2-3.715 2-4 0-.762-3.428-.477-4.857.38zM416.391 477.17c-1.047 1.047-.762 6.762.381 7.904.762.762.667 1.905-.095 3.62-1.714 3.618-.476 7.428 2.952 9.238 2.572 1.333 3.334 1.333 6.286.095 2.095-.857 5.143-1.143 8.095-.857 5.81.666 7.905-.858 10.19-7.524 1.43-4.381 1.43-4.857-.19-7.048-2.19-2.952-8.857-6.857-9.904-5.905-.381.477.666 2.286 2.476 4.096 5.143 5.333 4 13.619-1.905 13.619-3.048 0-3.048 0-2.571-4.857.38-3.905.095-5.239-1.429-6.572-.952-.952-2.286-1.428-2.857-1.047-1.333.857-1.429 4.19-.095 5.047.571.286 1.047 1.905 1.047 3.429 0 2.19-.571 2.952-2.666 3.524-1.429.285-3.429.285-4.477 0-2.285-.762-2.571-4.667-.38-6.477 1.714-1.428.38-3.714-2.953-4.952-1.905-.762-1.905-.762.19-2.571 1.143-1.048 1.905-2.191 1.62-2.667-.572-.953-2.762-1.048-3.715-.095zM414.2 511.836c-1.047 4.19-.19 7.048 2.287 7.429 2.952.476 5.714-1.714 4.285-3.143-1.333-1.333-1.333-3.714 0-3.714.572 0 1.715 1.619 2.667 3.523.952 1.905 2 3.524 2.476 3.524.381 0 .476.667.19 1.429-.285.762 0 2.38.667 3.619.953 1.714.857 2.095-.19 1.714-.762-.286-2.667.476-4.381 1.714-1.62 1.239-4.381 2.953-6.095 3.81-3.62 1.905-5.238 6.286-3.143 8.286 1.714 1.714 6.952 2.19 7.428.762.286-.572-.476-1.334-1.619-1.62-2.095-.57-2.857-2.761-.952-2.761.571 0 .667-.477.286-1.143-.381-.667-.286-.857.285-.476.572.285 2.858-.286 5.143-1.334 5.334-2.571 5.81-2.571 7.334.857 1.333 3.048 5.523 6.096 8.285 6.096 2.19 0 2-1.62-.38-2.953-1.048-.571-2.191-2-2.572-3.238-2-6.286-9.62-20.762-12-22.666-1.62-1.143-4.19-2.096-6.095-2.096-2.667 0-3.429.476-3.905 2.381zM341.534 598.789c-9.047 5.523-10.095 8.285-3.047 8.19h4.762l-.286 4.476c-.953 13.238-.762 14.667 2.952 20.19 5.048 7.715 5.334 9.048 2.381 12.572-1.428 1.714-2.38 3.62-2.095 4.381.762 2.095-.667 3.62-4.381 4.571-1.905.477-3.619 1.524-3.905 2.286-.38 1.048 1.143 1.238 8.286.667 4.857-.286 9.048-.857 9.333-1.143 1.429-1.429-1.333-1.81-6.285-.857-3.048.571-5.524.762-5.524.571 0-1.143 5.619-4.666 6.857-4.38.762.095 2.286-.572 3.524-1.62 2.571-2.285 8.095-3.047 7.428-1.047-.285.762-1.619 1.142-3.333.952-2.381-.286-2.667-.095-1.714 1.143.666.762.952 1.714.571 2.095-.38.286-.19.572.476.572.572 0 .953.571.667 1.333-.381.857.571 1.238 2.952 1.238 4.572 0 5.524-1.143 1.62-2-3.62-.762-3.62-.952-1.143-3.429 1.904-1.904 2-1.904 4.761 2.096 3.239 4.666 5.62 5.81 12.381 5.81 8.19 0 7.715-1.334-3.904-11.144-2.762-2.38-3.143-3.238-3.143-7.904 0-7.715-7.62-25.239-12.095-27.81-2.191-1.238-2.572-2.19-2.477-5.714.096-5.715-2.38-8.476-7.81-8.381-2.475 0-5.618.952-7.809 2.286zm12.667 1.238c1.619 1.714 1.81 2.38 1.524 7.142-.095 2.572.38 3.43 2.666 4.667 3.143 1.62 4 2.953 7.81 12.667 2.667 6.952 5.143 17.619 4.286 18.476-.762.857-10.857-6.286-15.905-11.143-2.572-2.571-5.143-6.286-5.905-8.476-1.238-3.81-1.143-4.095 1.524-6.952 1.619-1.62 2.571-3.239 2.19-3.62-1.238-1.238-5.619 4.953-5.619 8-.095 6.477 6 13.334 19.62 22.096 4.857 3.047 10.666 7.143 12.857 9.047l4 3.524h-5.81c-6.095 0-6.571-.286-12.095-7.428-2.667-3.524-3.143-3.715-6.953-3.239-2.285.286-4.571 1.239-5.238 2.096-1.238 1.714-4 2.095-4.857.666-.286-.476.381-1.619 1.429-2.571 2.952-2.667 2.476-6.952-1.429-12.857-4.286-6.476-5.143-10.857-3.524-18.095 1.524-6.572.572-8.286-5.142-9.524l-3.429-.762 2.857-.762c2-.571 3.048-.38 4 .857.762 1.048 1.905 1.333 3.524.953 2.286-.572 2.286-.667-.762-1.905-5.143-2.19-3.619-4.095 3.619-4.286 1.714-.095 3.81.571 4.762 1.429zM305.153 604.693c-4.19 4.572-4.666 7.429-2.952 18 1.048 6.381-.286 7.81-6.571 7.62-2.762-.096-5.239.095-5.524.476-.286.285 1.047 2.57 3.143 5.142 3.047 3.715 3.81 5.62 4.476 10.762.38 3.429.571 6.572.38 6.953-.761 1.333 2.096 2.095 8.667 2.285l6.858.286-.096-4.762c0-2.667.477-5.714 1.143-6.857.572-1.048 1.048-2.857 1.048-3.905 0-.952 1.333-3.333 2.952-5.238 1.62-1.905 2.953-3.81 3.048-4.286 0-.38-2-.761-4.476-.761-4.381 0-4.572-.096-3.905-2.477.38-1.714-.381-4.571-2.667-9.238-3.524-7.238-3.524-7.047.476-16.476 1.429-3.333-2-1.905-6 2.476zm1.715 5.715c-.286 3.904.19 5.619 1.904 8.095 2.858 4.095 3.81 10.666 1.62 11.524-.953.38-2.762.38-4.096 0-2.19-.477-2.38-.858-1.524-3.715.667-2.19.477-3.904-.571-5.904-2.095-4.096-1.81-9.239.571-12.286 1.143-1.524 2.19-2.667 2.286-2.667.095 0 0 2.19-.19 4.953zm11.619 22c.19 0-.762 1.523-2.19 3.428-1.43 1.81-2.572 4.286-2.572 5.524 0 1.238-.476 3.143-1.048 4.19-.571 1.143-1.143 3.334-1.143 4.953-.095 3.047-2.19 3.905-8.095 3.047-2.476-.285-2.762-.666-2.762-4.476 0-4.762-2.666-11.238-5.81-14-1.142-1.047-2.095-2.285-2.095-2.762 0-.666 22.19-.571 25.715.096zM433.725 603.836c0 .762-1.238 1.714-2.762 2.095-1.524.381-4.381 1.715-6.476 3.048-2 1.333-4.19 2.476-4.858 2.476-2 0-12 6.19-12.666 7.714-.857 2.286 1.81 3.334 6.762 2.667 3.619-.476 5.047-.19 7.238 1.62 1.524 1.142 2.762 2.856 2.762 3.809 0 .952.666 2.952 1.523 4.571l1.43 2.762-3.906-.667c-2.19-.38-4.095-.19-4.476.381-.762 1.334 6.286 2.286 12.952 1.81 3.715-.19 5.048-.762 5.334-2 .19-.953.762-1.429 1.333-1.048 3.333 2.095 10.095-.571 14.381-5.524l2.095-2.476.667 2.572c.476 1.904 1.905 3.143 5.143 4.476 2.476 1.047 4.476 2.095 4.476 2.476 0 .286-2.667.381-5.905.095-3.714-.285-6-.095-6 .572 0 1.238 9.715 2.095 12.572 1.047 2.476-.857 3.333-2.571 4.571-9.333.476-2.762 1.143-6.381 1.429-8 .38-2.381 0-3.524-2.096-5.429-2-1.904-2.857-2.19-3.714-1.238-.952.857-.857 1.143.476 1.143 2.19 0 5.143 4.476 4.286 6.667-.571 1.428-.857 1.428-2.19-.572-2.19-3.047-7.715-5.333-11.143-4.476-1.524.381-5.524 1.905-8.953 3.524-3.428 1.524-7.714 2.857-9.523 2.857-3.905 0-13.143-5.428-12.477-7.238.19-.667 2.477-1.714 4.953-2.286 2.571-.571 4.857-1.238 5.238-1.619.952-.952-.476-7.904-1.62-7.904-.475 0-.856.666-.856 1.428zm2 4.476c0 .381-2.381 1.524-5.334 2.477-2.857.857-5.904 2.19-6.762 2.857l-1.047 1.047c.286-.095 2.095 1.334 4.19 3.238 3.524 3.143 9.143 5.524 13.238 5.524.953 0 4.572-1.428 7.905-3.143 7.429-3.904 13.429-4.285 17.524-1.238 2.476 1.905 2.762 2.762 2.762 7.238-.095 6.953-1.143 7.715-6.476 4.857-5.429-2.857-7.238-5.428-4.762-6.857.952-.476 1.81-1.428 1.81-1.904 0-2-2.286-.762-7.048 3.714-3.905 3.619-5.905 4.667-9.334 5.047-2.476.286-5.333 0-6.666-.666-2.19-1.238-2.19-1.143-1.62 1.428.667 2.572.572 2.667-2.57 2-4.477-.952-5.62-2.095-6.382-6-.38-1.81-1.714-4.38-3.047-5.619-2-1.904-3.429-2.285-7.905-2.095-7.429.381-6.476-1.714 2.857-6.19 4-1.905 8.095-4.096 9.143-4.953 2.095-1.619 9.524-2.19 9.524-.762zM421.63 607.36c-1.334 1.048-2.191 2.19-1.81 2.476.286.381 1.619-.476 2.952-1.905 2.762-2.952 2.096-3.238-1.143-.571z"/>
	<path d="M290.391 617.265c-2.19 2.38-2.095 5.524.191 7.524 2.38 2.19 4.476 2.095 6.476-.191 2.095-2.286 2.095-4.095.095-6.952-1.904-2.667-4.571-2.857-6.762-.381zm6.191 2.285c1.524 2.477 0 4.858-2.952 4.858-2.762 0-4.286-3.429-2.286-5.429 2.095-2.095 3.619-1.905 5.238.571zM316.201 617.074c-2.476 2.476-1.524 6.667 1.81 7.81 5.238 1.81 8.857-3.429 5.142-7.524-2.095-2.286-4.762-2.476-6.952-.286zm6 3.429c0 2.857-3.429 3.905-5.333 1.619-.953-1.143-.857-1.81.476-3.143 2.286-2.286 4.857-1.524 4.857 1.524zM386.772 638.408c0 .476.857 1.238 2 1.523 3.334 1.143 2.286 3.334-1.81 3.715-2.38.19-3.809.857-4 1.904-.38 1.81 3.62 3.905 7.239 3.905 1.428 0 2.952.857 3.524 2 2.285 4.381 6.476 4.953 32.571 4.762 22.667-.286 27.238-.667 22.667-2.095-6.572-2.095-11.238-4.19-15.238-7.048-10.477-7.619-16.286-7.524-25.905.667-4 3.428-8 3.143-11.714-.857-2.762-2.953-2.953-4-.857-4.762.761-.381 1.523-1.333 1.523-2.286 0-1.524-.19-1.524-2.095.19-2 1.715-2.095 1.715-3.524-.38-1.524-2.19-4.38-3.048-4.38-1.238zm39.524 6.095c1.429.476 4.572 2.571 6.857 4.476 2.286 1.905 6 3.81 8.19 4.38 2.763.668-2.856.953-19.428.953l-23.428.096-2.572-2.762c-1.524-1.62-4.286-3.143-6.38-3.62-5.239-.952-5.81-2.57-.858-2.57 3.333 0 4.667.57 6.857 2.952 3.62 4 9.143 4.571 12.762 1.238 6.953-6.286 11.524-7.62 18-5.143zM31.249 702.407c.286.572.762 1.048 1.048 1.048.19 0 .476-.476.476-1.048 0-.476-.572-.952-1.143-.952-.572 0-.762.476-.381.952zM494.487 887.074c-1.429 1.429-2.096 1.524-4.762.38-4.19-1.713-4.572-.856-1.429 2.858 3.048 3.62 4.381 11.714 4 24.095-.286 6.857.762 13.048 2 11.81.571-.572 1.143-6.095 2-19.62.286-5.714 1.238-12.19 2-14.285 2.095-6 0-8.952-3.81-5.238zM468.487 888.122c-2 .571-2.19 1.428-.762 2.952.571.571 1.333 8.286 1.714 17.238.38 11.524.952 16.095 1.81 16.095.952 0 2.57-17.714 2.57-29.143 0-.952.477-2 .953-2.38 1.143-.667 1.238-4.381.19-4.477-.38-.095-1.618-.19-2.761-.38-1.048-.191-2.762-.096-3.714.095zM342.772 889.836c0 1.905 4.096 9.619 5.143 9.619.476 0 .857-1.048.857-2.286s.667-3.238 1.524-4.476c2.095-3.048 1.048-4.286-3.619-4.286-2.762 0-3.905.476-3.905 1.429zM375.249 889.36c-.381.571-.286 1.619.095 2.285.38.667 1.238 3.905 1.81 7.143 1.333 7.238 3.047 8.381 4 2.572.38-2.286 1.428-5.524 2.285-7.048 1.143-1.81 1.333-3.143.762-3.81-1.62-1.523-8.19-2.38-8.952-1.142zM428.582 890.598c-2.095 2.095-2.286 2.095-6.667.476-2.476-.857-4.762-1.429-4.952-1.143-.572.572 7.905 10 8.857 10 .762 0 8.952-10.095 8.952-10.952 0-1.429-4.285-.286-6.19 1.619zM283.44 890.122c-.382.285 0 1.81.666 3.238.762 1.428 1.619 3.81 2 5.333.952 4.19 3.047 3.333 5.619-2.38 1.905-4.191 2-5.239.857-5.906-1.524-1.047-8.19-1.238-9.143-.285zM388.2 890.503c-.38.571.287 2.095 1.43 3.333 2.476 2.667 2.57 3.524.57 7.238-1.428 2.857-1.904 5.333-.951 5.333.952 0 10.476-7.143 10.476-7.904 0-.762-7.048-6.858-9.715-8.381-.571-.381-1.428-.19-1.81.38zM404.772 893.645c-4.666 6.477-3.81 8.858 1.81 4.762 3.047-2.285 5.619-1.81 7.238 1.238.952 1.715 2.952 1.715 2.952-.095 0-1.143-7.143-10.095-8.095-10.095-.38 0-2.19 1.905-3.905 4.19zM437.725 890.217c0 .38.952 1.905 2 3.238 2 2.476 2.095 2.476 3.523.571 2.381-3.238 1.81-4.571-2-4.571-1.904 0-3.523.38-3.523.762zM452.391 893.74c-4 4.382-6.19 7.715-5.143 7.715.381 0 2.667-1.429 5.143-3.143l4.477-3.048 4.476 2.286c2.38 1.238 4.666 1.905 5.047 1.524.667-.571-8.38-9.429-9.714-9.62-.286 0-2.286 1.906-4.286 4.287zM309.249 893.455c-7.238 5.714-8.477 9.428-3.62 10.476 1.524.381 3.81 1.524 5.048 2.667 1.143 1.143 2.762 1.81 3.524 1.524 1.143-.477 1.048-1.239-.476-4.477-1.905-3.904-1.81-5.714.476-11.428 1.048-2.572-.762-2.19-4.952 1.238zM354.963 893.645c-1.81.667-3.238 1.429-3.238 1.715 0 .38 1.905 1.238 4.285 1.904 2.286.762 4.762 1.524 5.524 1.81.953.476 1.238-.286 1.048-2.762-.381-3.81-2.19-4.38-7.62-2.667zM480.01 897.74c2 1.905 3.905 4.667 4.286 6.286 1.238 5.524 1.62 6.477 2.381 6 .667-.476.762-2.857.19-8.476-.19-1.81-7.047-7.143-9.333-7.143-.667 0 .476 1.524 2.476 3.334zM271.725 900.979c-3.81 2.762-8.762 3.238-9.62.952-.761-1.81-2.761-1.905-4.285-.095-1.238 1.524-.476 4.571 1.238 4.571.572 0 2.572 1.524 4.381 3.238 2.857 2.858 3.524 3.048 5.524 1.905 1.238-.667 3.524-3.047 5.048-5.143 4.476-6.571 3.238-9.524-2.286-5.428zM439.248 900.217c.381.952.953 2.571 1.239 3.524.666 2.285 1.904 2.19 3.238-.19 1.904-3.525 1.238-5.144-2.096-5.144-2.571 0-2.952.381-2.38 1.81zM249.63 902.026c-.953 1.143-2.286 1.429-4.858 1.048-4.285-.762-11.333-.762-12 0-.952.952 7.334 7.333 10.381 8 2.477.571 3.429 0 7.239-4.095 2.38-2.572 4.095-5.143 3.809-5.62-.857-1.428-3.143-1.047-4.571.667zM343.249 902.503c-1.048 1.714 1.619 6.952 3.523 6.952.858 0 2.286-5.524 1.81-6.667-.476-.857-4.857-1.143-5.333-.285zM320.106 906.217c2 8.095 1.905 11.047-.286 13.81-1.905 2.38-2.095 5.523-.476 7.333.667.762 11.428-13.048 11.428-14.762 0-1.238-8.952-9.143-10.285-9.143-.572 0-.762 1.143-.381 2.762zM286.582 907.455c-.381 4.095 0 6 1.333 7.333 1.429 1.429 1.715 1.429 2.857.095.667-.761.858-1.428.477-1.428s0-1.143.857-2.572c.952-1.333 1.428-2.952 1.143-3.428-.858-1.333-6.477-1.333-6.667 0zM355.439 907.74c-4.667 1.143-4.38 2.858.667 4 4.666 1.143 6.571.382 5.904-2.19-.666-2.571-2-2.952-6.571-1.81zM376.2 914.503c.953 10.19 1.81 14.19 3.334 14.666.857.286 1.238-.952 1.238-4.19 0-2.476.857-7.334 2-10.667s1.81-6.38 1.429-6.667c-.286-.38-2.381-.666-4.572-.666l-4.095-.096.667 7.62zM387.725 908.693c.095.667.762 2.095 1.524 3.238 2.095 2.667 1.904 4.19-1.048 7.905-4.572 6.095-2.19 9.238 2.667 3.619 1.523-1.62 3.523-3.048 4.666-3.048 1.048 0 2.476-.666 3.238-1.524 1.048-1.238.762-2.095-2.095-5.047-4.19-4.286-8.952-7.048-8.952-5.143zM438.772 910.598c0 2.38 2.572 6.571 3.429 5.714.286-.286.571-2 .762-3.905.19-2.952-.095-3.524-2-3.81-1.81-.19-2.19.191-2.19 2zM335.249 916.407c-.381.572-.19 1.048.38 1.048.572 0 1.239-.476 1.62-1.048.285-.476.19-.952-.381-.952-.572 0-1.334.476-1.62.952zM342.201 918.122c.38 1.428 1.238 3.523 1.905 4.476 1.143 1.619 1.524 1.714 2.476.571.667-.762 1.428-2.857 1.81-4.571.57-3.048.476-3.143-3.143-3.143-3.524 0-3.715.095-3.048 2.667zM356.772 918.312c-1.81.381-3.523 1.143-3.714 1.714-.38 1.048 7.333 5.143 8.095 4.381.19-.285.667-1.904 1.048-3.714.762-3.524.762-3.524-5.429-2.381zM439.725 920.883c0 4.667 1.523 5.334 3.523 1.62 1.715-3.524 1.239-5.048-1.619-5.048-1.523 0-1.904.667-1.904 3.428zM285.725 920.026c0 .857.476 1.238 1.047.953.477-.381.953-1.048.953-1.62 0-.476-.476-.952-.953-.952-.571 0-1.047.762-1.047 1.62zM286.772 922.883c-.761.953-.666 2.19.286 4.667.762 1.905 1.238 3.905.953 4.572-.19.761.285.952 1.428.666 2.19-.571 6.857-8.19 5.62-9.333-1.715-1.524-7.144-1.905-8.287-.572zM339.725 923.36c0 .476.666 1.143 1.428 1.428.953.381 1.238.095.953-.857-.667-1.619-2.381-2-2.381-.571zM363.249 925.455c-.381.571.285.952 1.523.952 1.143 0 1.81-.38 1.429-.952-.286-.572-.952-1.048-1.429-1.048-.571 0-1.238.476-1.523 1.048zM496.772 925.931c0 .762.381 1.714.953 2 .571.381 1.047-.286 1.047-1.428 0-1.143-.476-2.096-1.047-2.096-.572 0-.953.667-.953 1.524zM325.725 949.836c-2.381.952-2.19 1.047 2 1.619 2.476.38 3.81.762 2.952.857-2.38.19-5.333 3.81-4.571 5.619.285.857 2.19 2.286 4.095 3.048 3.619 1.523 4.38 3.238 2.286 5.238-1.81 1.905-2.572 1.428-2-1.143.285-1.81-.096-2.572-1.62-3.048-2.952-.952-4.285.096-3.904 3.238.286 3.238-2.952 4.286-4.952 1.62-1.81-2.572-1.62-3.62 1.238-7.905 3.047-4.381 2.285-6.19-.953-2.381-1.238 1.428-2.857 2.857-3.619 3.143-.952.38-1.047.571-.19.666.762 0 1.238 1.524 1.238 4.095 0 3.334.476 4.19 2.476 5.143 1.905.857 3.143.857 5.048 0 1.428-.666 3.904-1.238 5.523-1.238 3.62 0 5.524-2.952 3.905-6.095-.857-1.524-.857-2.381 0-3.143 1.524-1.524 1.333-4.667-.38-5.333-.763-.286-1.62-1.334-1.81-2.286-.667-2.286-3.62-3.048-6.762-1.714zm8 5.619c1.143 2-.286 2.952-1.524.952-1.143-1.905-2.476.095-1.429 2.095 1.143 2.19 0 2.572-1.81.762-1.618-1.619-1.618-4.476 0-5.142 2.477-.953 3.715-.667 4.763 1.333zm-4.476 8.952c.285.572-.096 1.048-.953 1.048s-1.524-.476-1.524-1.048c0-.476.381-.952.858-.952.571 0 1.238.476 1.619.952zM375.439 949.74c-1.524 1.048-.952 1.239 3.429 1.334 4.476 0 4.857-.095 3.333-1.333-2.286-1.62-4.572-1.62-6.762 0zM276.582 950.122c.667.285 1.524.285 1.905-.096.285-.285-.286-.571-1.334-.476-1.142 0-1.428.286-.571.572zM281.915 951.074c.953.952 2 1.524 2.381 1.143.286-.286-.476-1.143-1.714-1.81-2.286-1.143-2.286-1.143-.667.667zM271.249 951.455c-.381.571-.19.952.38.952.572 0 1.239-.38 1.62-.952.285-.572.19-1.048-.381-1.048-.572 0-1.334.476-1.62 1.048zM257.534 951.931c-.285.286-52.666.571-116.38.571H25.249l-2.762 2.477c-2.762 2.38-3.714 5.428-1.714 5.428.476 0 .952-.476.952-1.047 0-1.524 4.19-4.858 6-4.858.952 0 .381.953-1.524 2.477-3.619 2.952-1.81 3.333 1.905.38l2.667-2.095-.096 6.572c0 3.524.477 6.762 1.048 7.143.667.38.952-2.19.952-6.953l.096-7.619H38.963l-.666 6.286a592.314 592.314 0 0 0-.858 8.19c-.095 1.048.381 2.096 1.048 2.286.857.286 1.238-1.047 1.238-4.667v-5.142l3.714.285 3.81.286-.286 5.333c-.095 3.524-.857 6.19-2.19 7.905-2.762 3.524-1.334 5.143 1.523 1.81 2.381-2.857 3.81-8.953 3.239-14.096-.286-2.666-.667-2.952-4.572-3.238-3.81-.285-4.286-.571-4.286-2.762.096-2.476.19-2.476 7.334-2.19l7.238.286-.095 6.285c-.096 7.524 2 8.096 2.285.572.096-2.667.19-5.429.19-6.095.096-.762 1.144-1.334 2.477-1.334 3.524 0 4.19 4.476.952 6.572-1.238.857-2.285 2.19-2.285 2.952 0 2.286 2.095 1.81 2.666-.476.572-2.095 2.096-2.381 6-1.333 1.81.476 2.286 1.333 2.286 3.809 0 2.667-.857 4-4 6.667-4 3.238-4.857 5.143-2.952 6.38.476.286 1.333-.476 1.904-1.809.477-1.333 2.286-3.524 4-4.952 2.572-2.286 3.048-3.334 3.048-7.238 0-4.381-.095-4.572-2.952-4.572-3.524 0-3.81-.666-1.334-2.666 1.62-1.239 1.62-1.334-.476-.762-1.619.476-2.19.19-2.19-.953 0-1.333 1.428-1.619 9.238-1.619h9.238v7.524c-.095 6.762-.381 7.714-2.857 10.286-2.667 2.857-2.667 4.19 0 4.19.762 0 1.333-.857 1.333-1.905 0-1.047.857-2.476 2-3.047 1.81-.953 2-1.905 1.714-9.048l-.19-8h3.714c3.048 0 3.81.381 3.714 2 0 1.048-1.142 2.762-2.666 3.905-1.524 1.048-2.381 2.38-2 2.762.476.476 1.333.095 1.81-.857 1.047-1.905 3.904-2.381 3.904-.762 0 .571 1.62.952 3.524.952 3.428 0 3.524.095 3.524 4.476 0 4-.477 4.762-4.762 8.381-3.905 3.334-4.572 4.286-3.524 5.334 1.048 1.047 1.428.952 1.81-.667.38-1.048 2.38-3.238 4.57-4.762 3.906-2.762 3.906-2.857 3.62-8.476-.286-5.714-.286-5.714-3.524-6.095-3.619-.286-4.19-1.524-1.524-3.048 1.715-.952 1.715-1.048 0-1.048-.952 0-1.714-.476-1.714-1.047 0-.572 3.048-1.048 7.238-1.048h7.238l-.286 8.667c-.285 6.38 0 8.857.953 9.524 1.619.952 13.905.19 15.047-.953.477-.476 1.143-4.476 1.429-9.047l.667-8.19h6.952l-.667 7.142c-.571 5.714-.476 7.048.572 6.667.762-.286 1.428-1.715 1.428-3.334.286-10.095.381-10.476 2.477-10.476 2.761 0 2.571 4.381-.286 6.286-1.81 1.238-2 1.81-1.048 2.857 1.048 1.048 1.334.952 1.334-.38 0-.953.38-1.715.952-1.715.571 0 1.048.476 1.048 1.047 0 .762 1.333.858 4 .477 3.81-.667 4-.572 4 2.095 0 2.095-1.239 3.81-4.762 6.857-2.857 2.571-4.381 4.571-3.905 5.333 1.048 1.62 2.667 1.524 2.667-.19 0-.857 1.714-2.952 3.81-4.762 3.618-3.143 3.809-3.714 3.428-7.62l-.477-4.19-3.904.572c-4.476.762-5.238-.667-1.238-2.476 1.428-.667 2.285-1.524 1.904-1.905-.285-.286-1.142-.095-1.81.571-1.713 1.715-2.761 1.429-2.761-.857 0-1.714.667-2 6.095-2h6.095l-.38 8.286-.286 8.286 3.714.285c3.429.286 3.81.572 3.81 3.238 0 1.62.476 2.953 1.047 2.953.572 0 .857-1.62.762-3.714-.38-3.62-.571-3.81-4.095-4.096-3.429-.285-3.714-.571-3.714-3.238 0-2.571.285-2.952 2.857-2.952 1.619 0 3.143.571 3.333 1.238.286.667.857.952 1.238.571 1.62-1.523-.476-3.81-3.428-3.81-2.858 0-3.048-.285-3.048-3.523 0-3.048.286-3.524 2.476-3.524 1.81 0 2.286.476 1.81 1.62-.381 1.237-.096 1.523 1.333 1.237 1.048-.285 1.81-.952 1.619-1.619-.286-1.238 0-1.333 4.476-1.523l2.762-.096.19 8.19c.096 7.906 0 8.286-2.761 10.667-2.857 2.381-3.905 5.524-1.905 5.524.571 0 1.048-.571 1.048-1.428 0-2.572 4.19-4.572 9.619-4.572 3.047 0 5.523-.476 6-1.238.476-.667 1.047-4.857 1.333-9.238.38-6.19.857-8 2-8s1.524 1.62 1.81 7.429c.285 6.476 0 7.619-1.905 9.714-1.238 1.333-3.048 2.38-4 2.38-2.381 0-3.429 1.906-1.524 2.572 2.571 1.048 8-4.285 9.238-8.952.952-3.81 1.333-4.19 4.667-4.476l3.714-.286v4.286c0 3.904-.476 4.666-4 7.333-3.62 2.571-5.048 4.476-3.429 4.476.286 0 2.857-1.81 5.524-4.19l5.048-4.19-.286-8c-.38-8-.38-8.096 2.19-8.096 2.381 0 2.477.19 2.762 9.238l.286 9.238h4.857c2.762 0 5.238-.476 5.62-1.047.38-.667.952-4.858 1.333-9.334.571-7.238.762-8.095 2.571-8.095 3.048 0 3.238 4.095.381 6.476-1.333 1.048-2 2.19-1.619 2.667.476.38 1.429-.095 2.286-1.238 1.333-1.714 1.428-1.334.857 3.905-.476 4-.286 5.714.476 5.714.667 0 1.143-2 1.143-5.238 0-3.143.667-6.19 1.524-7.524 1.428-2 1.428-2.19-.096-1.62-1.238.477-1.523.191-1.238-1.237.19-1.048 1.334-2 2.572-2.19 2.762-.382 2.952.856 1.714 11.904-.476 4.572-1.048 5.905-3.048 6.952-1.333.667-2.38 1.905-2.38 2.667 0 4.381 6.19-2.667 7.428-8.571 1.048-4.572 1.048-4.667 5.238-4.953 4.19-.285 4.286-.19 4.286 2.762 0 2.667-.286 3.048-2.953 3.048-4.476 0-4.57 1.714-.095 2.19 4.857.477 5.048 0 5.048-9.333 0-4.381.38-6.762 1.047-6.381.477.381.953 4.19.953 8.476 0 7.62-.095 8-2.857 10-1.62 1.143-3.715 2-4.572 2-.857 0-1.524.762-1.524 1.524 0 2.762 3.524 1.62 7.334-2.38l3.81-3.906-.286-7.81c-.381-7.333-.19-7.904 1.619-7.904 1.81 0 2 .667 2 8.19 0 4.477.285 8.477.666 8.858.381.38 2 .38 3.62 0 2.952-.667 3.047-.857 3.714-7.81l.666-7.238 3.905-.095c3.048-.095 3.905.19 3.714 1.428-.19.858.477 1.81 1.429 2 1.143.19 1.81-.285 1.81-1.523 0-2.953-2-4.19-5.905-3.715-2 .286-3.048.19-2.381-.19 1.905-.857 1.524-2.381-.572-2.381-1.047 0-2.095.19-2.38.476zm-75.81 6.095c0 3.238-.19 3.429-3.523 3.429-2.19 0-3.333.38-2.952.952.285.572 1.905 1.048 3.524 1.048 3.047 0 3.428.762 2.285 4.762-.476 1.905-1.238 2.19-5.047 2.19h-4.477l.667-7.714c.381-4.286 1.143-8 1.62-8.286.475-.285 2.475-.38 4.38-.19 3.238.38 3.524.762 3.524 3.81zm15.81-.857c.286 2.953 0 3.238-2.19 3.238-1.333 0-3.143.286-4 .667-1.333.476-1.62-.095-1.62-2.857 0-4.286.382-4.667 4.287-4.381 2.857.095 3.238.476 3.523 3.333zm18 4.19c.286 7.524.381 7.334-5.047 8.572l-2.762.571v-7.904c0-4.286.19-8 .38-8.19.287-.286 1.906-.382 3.81-.382l3.334.096.285 7.238zm22.477-6.952c1.238 0 1.714.857 1.714 3.143 0 2.952-.095 3.048-4.286 2.667-3.143-.19-4.286-.762-4.571-2.095-.572-2.953.476-4.381 3.047-4.096 1.238.19 3.143.286 4.096.381zm18-.19c.857 1.428-1.334 13.619-2.572 14.38-2.476 1.62-2.857.667-2.19-6.38.857-8.19 1.047-8.762 2.952-8.762.762 0 1.62.38 1.81.762zm-130.286 5.143c0 7.904-.952 10.857-3.524 11.333-2.19.476-2.38.095-2.666-4.571-.477-7.239-2.762-7.524-2.762-.286 0 5.333-.19 5.619-2.572 5.619-2.476 0-2.476-.095-2.476-8.476v-8.572h14v4.953zM406.2 952.217c-2.475.571-6.475 4.19-6.475 5.905 0 .666 1.333 2.285 3.047 3.523 3.238 2.381 3.81 4.857 1.429 6.762-1.905 1.62-4.667.572-3.81-1.428.286-.857 0-2.19-.666-3.048-1.715-2-4.286 0-3.429 2.667.667 2.285-1.81 2.571-3.619.285-1.048-1.238-.952-2.285.857-5.904 1.143-2.381 3.048-4.667 4.095-5.048 2.477-.762 2.762-2.476.572-2.476-.857 0-3.143 1.714-4.952 3.714-1.905 2-3.62 3.524-3.715 3.238-.19-.285-1.143-2.095-2.095-4.19-1.429-3.238-2.095-3.715-4.952-3.62-1.81 0-2.477.286-1.524.572.952.19 1.81 1.333 1.81 2.381 0 1.048.856 2.857 2.095 4 1.714 1.81 1.904 2.667 1.142 5.238-.571 2.19-1.523 3.238-3.047 3.524-2.095.286-2.19.095-1.143-2.19 1.714-3.715.38-7.905-2.381-7.524-1.905.285-2.19.952-2.19 5.047.095 5.143-.762 6-4.286 4.667-1.62-.571-2.19-1.62-2.19-3.81 0-1.714.476-3.047 1.047-3.047 1.524 0 4.857-4.19 4.857-6.286.095-2.857-1.81-2-4.667 2.286-3.142 4.476-3.904 4.762-4.761 2.095-1.905-5.905-6.953-8.571-11.62-6.095-2.857 1.619-2.57 6.571.572 8.571 3.048 2 3.143 3.524.571 5.905-1.333 1.143-2.762 1.524-4.38 1.143-3.524-.857-4.286-3.62-1.43-5.81 1.81-1.428 1.906-1.81.572-1.81-2.666 0-4.857 2.858-4.19 5.62.762 3.143-.953 3.048-3.524-.286-2.571-3.238-2.571-4.952-.095-9.143 2.476-4 5.619-4.095 5.238-.19-.286 2.38-.19 2.38 1.524.667 1.714-1.715 1.619-1.905-.667-3.715-2.095-1.714-2.667-1.81-4.476-.666-1.143.761-2.953 3.047-3.905 5.047-3.333 6.572-.095 12.572 6.095 11.334 1.524-.286 3.429-.096 4.381.476 2.286 1.238 6.286-.762 7.715-3.81 1.428-3.143 1.523-2.762-2.096-6.19-2.571-2.476-2.952-3.238-2-4.476 1.81-2.096 4.857-2.667 6.857-1.143 1.62 1.143 1.524 1.238-.571 1.904-2.571.858-2.476 3.334.19 4.953 1.334.857 2 .762 2.667-.381.857-1.238 1.143-1.238 2.476.476.857 1.143 1.524 3.429 1.524 5.143 0 2.667.476 3.238 3.143 3.714 1.714.381 3.905.19 4.857-.286.952-.571 3.333-.761 5.143-.38 2.952.476 3.619.19 4.667-1.81.571-1.333 1.238-3.238 1.428-4.381.476-3.048 2.286-1.905 2.286 1.429 0 1.714.476 3.428 1.048 4 1.619 1.619 13.047 1.714 14.857.19 2.666-2.286 2-6.286-1.62-9.333l-3.237-2.762 2.38-2c1.239-1.143 3.143-2 4.096-2 2 0 4.666 2.667 3.619 3.714-.381.381-1.143.095-1.715-.762-.857-1.143-.952-1.047-.666.572.19 1.047.762 2 1.428 2 2.286 0 2.477 1.333.381 3.428-2.095 2.095-2.095 5.143.096 7.524 1.428 1.524 7.428 1.048 10.19-.762 3.143-2.095 3.333-3.047.762-5.619-1.714-1.714-1.714-2-.286-3.428 3.429-3.524-3.143-8.953-8.666-7.239-1.143.381-2.286.19-2.572-.38-.762-1.143-.857-1.143-4.095-.286zm-20 6.095c-.666.667-2.475-1.905-2.475-3.333.095-.572.762-.19 1.524.857.761 1.143 1.238 2.19.952 2.476zm33.525-2.381c.666.857.952 2.19.666 3.048-.762 1.904-3.619 1.904-3.619 0 0-.953.572-1.238 1.62-.857 1.142.476 1.428.285.952-.477-.381-.666-1.429-1.238-2.19-1.238-1.43 0-1.81 1.238-1.525 3.905.19.762-.19 1.048-.761.762-.477-.286-1.143-1.905-1.334-3.429-.38-2.476-.095-2.857 2.286-2.952 1.429-.19 3.238.38 3.905 1.238zm-45.429 2.476c-.38.572-1.143 1.048-1.714 1.048-.667 0-.667-.572.19-1.524 1.334-1.619 2.572-1.238 1.524.476zm-9.524 1.048c0 .571-.666.952-1.523.952-.762 0-1.715-.38-2-.952-.381-.572.285-1.048 1.428-1.048s2.095.476 2.095 1.048zm15.905 2.762c0 .952-.38 2.38-.857 3.047-1.143 1.905-2.381-.19-1.62-2.857.763-2.38 2.572-2.571 2.477-.19zm39.143 1.238c1.048.571 1.905 1.524 1.905 2.19 0 .572-1.048.381-2.476-.571-3.048-2-3.43-.381-.477 1.714 2.096 1.429 2.096 1.524-.952 2.095-5.333 1.239-9.524-2.952-5.333-5.333 2.285-1.333 4.857-1.333 7.333-.095zM471.82 954.598c-1.333 1.714-2.381 3.714-2.381 4.476 0 2.095-1.524 1.619-2.19-.667-.381-1.047-1.048-2-1.62-2-.476 0-.857-.476-.857-1.047 0-.572.381-.762.953-.381.571.285 1.047.19 1.047-.381 0-.572-.476-1.334-1.047-1.62-1.81-1.142-2.19 2.286-.572 5.43 1.62 3.047.476 4.475-1.238 1.428-.571-1.048-1.143-1.238-1.619-.572-.286.572.381 2 1.524 3.143 1.714 1.524 2 2.286 1.048 3.429-1.715 2-6.858 4-8.667 3.238-2.476-.952-1.714-3.429 2.667-8.095 4.19-4.572 4.57-6.953 1.238-8.19-1.143-.477-2.381.094-3.524 1.618l-1.81 2.19-2.666-2.095c-3.143-2.476-5.143-2.571-8.19-.476-1.144.857-2.191 1.143-2.191.572 0-1.715-3.905-2.286-7.524-1.143-7.048 2.38-10.667 10.476-6.953 15.81 1.905 2.666 4.477 2.761 7.62.285 2.095-1.714 2.285-2.19 1.238-5.048-1.048-2.666-1.048-2.952.38-2.19.858.476 2.096 2.38 2.667 4.286.667 2.19 2 3.619 3.715 4.285 2.285.762 3.333.381 6.952-2.476 2.38-1.905 4-2.952 3.619-2.38-.952 1.618 2.095 5.428 4.38 5.428 2.763 0 6.858-2.857 8.858-6.19l1.714-2.763 2.476 3.715c2.096 3.333 2.858 3.714 6.572 3.714 2.286 0 4.38.286 4.762.667.286.285 2.952.38 5.81.095 3.809-.381 6-1.143 8-3.048 2.57-2.476 2.761-2.476 2.761-.476 0 4 2.381 4.667 6.762 1.905 7.524-4.762 9.238-10.286 4.667-14.857-2.381-2.381-3.143-2.572-8.286-2-3.428.285-6.19 1.238-6.952 2.19-1.143 1.429-1.334 1.429-2.286-.19-1.238-2.095-5.81-2.286-8.476-.381-1.524 1.143-2.286 1.143-3.905.095-4.19-2.571-6-2.476-8.476.667zm-23.429 1.047c-.952.477-1.619 1.715-1.619 2.762 0 2.19 2.857 3.524 4.286 2.095.762-.761.571-1.047-.667-1.047-.857 0-1.619-.667-1.619-1.524s.857-1.524 2-1.524c3.143 0 2.572 5.238-1.143 9.524-3.619 4.095-4.857 4.286-7.523 1.429-1.81-2-1.81-2.096.095-3.524 1.714-1.238 1.81-1.714.667-3.524-1.429-2.286-.19-4.476 3.333-5.81 2.571-1.047 4.286-.095 2.19 1.143zm42.381-.095c1.429 2.667-.19 4.667-2 2.476-.762-.857-1.714-1.619-2.285-1.619-.572 0-.477.667.19 1.524.952 1.048.857 1.905-.476 4-.953 1.333-1.429 3.429-1.143 4.571.286 1.048 0 2.286-.571 2.572-1.715 1.143-4.762-3.524-4.762-7.238 0-3.238 1.238-4.476 2.476-2.381 1.238 1.905 2.666 1.047 1.524-.953-.762-1.523-.572-2.19 1.238-3.523 2.952-2.096 4.476-1.905 5.81.571zm17.81-.095c2.571 2.476 2.571 3.047.476 7.81l-1.62 3.714-.666-3.048c-.476-2.476-1.047-2.952-3.333-2.762-2.476.19-2.667-.095-2.095-2.571.952-4.667 1.238-5.143 3.143-5.143 1.047 0 2.857.952 4.095 2zm-70.095 2.19c1.428 3.81.857 4.667-1.81 3.048-1.143-.762-3.143-.952-4.476-.667-2.095.572-2.476 1.238-2.286 3.238.19 1.429.953 2.762 1.81 3.048 1.333.38 1.333.19.095-1.238-1.143-1.429-1.048-1.62.857-1.62 1.714 0 2.095.477 1.905 2.191-.476 3.048-3.238 4.572-5.238 2.857-2.667-2.19-2-7.81 1.333-11.142 3.81-3.81 6.286-3.715 7.81.285zm22.19-1.904c0 1.523-.762 2.571-4.19 5.619l-2.667 2.285.667-2.285c.857-3.524 3.238-6.953 4.857-6.953.762 0 1.333.572 1.333 1.334zm19.524-.381c.286.476-.19 1.428-1.048 2.19-1.238 1.048-1.524 2.381-1.047 6 .857 6-1.143 7.143-4.858 2.762-3.142-3.714-3.238-7.143-.38-9.81 2.285-2.095 6.285-2.761 7.333-1.142zm19.905.666c.761 2-1.524 7.429-4.096 9.715-1.143.952-3.714 2.095-5.619 2.38-3.428.572-3.619.381-3.619-2 0-1.523.857-3.142 2.19-4.095 2-1.428 2.382-1.428 3.334-.095 1.62 2.095 3.048 1.905 4.857-.667 2.095-3.047 2-4.095-.38-2.571-1.048.571-1.715 1.524-1.43 2 .286.38 0 .762-.57.762-1.62 0-1.239-3.143.57-5.143 2.096-2.286 4-2.381 4.763-.286zm4.666 7.905c0 .857-.571 1.524-1.143 1.524-.666 0-.857.667-.571 1.524.38.857 0 1.428-.857 1.428-1.81 0-1.905-3.047-.286-4.762 1.62-1.619 2.857-1.523 2.857.286zM288.772 956.026c-2.666 2.286-3.047 3.238-3.047 7.524 0 4.095.38 5.143 2.476 6.476 2.857 1.905 7.524 1.238 7.524-1.047 0-1.143-.572-1.238-2.667-.477-3.524 1.334-4.762 0-4.571-5.238.19-5.714 1.619-6.857 4.285-3.428 2.572 3.238 3.905 2.762 1.524-.572-2.19-3.142-2-3.81 1.429-3.81 1.619 0 3.047-.475 3.047-1.047 0-2.095-6.857-.952-10 1.62zM300.487 957.17c-.953 1.047-2.096 3.142-2.762 4.761-.953 2.476-.762 3.333.762 5.429 1.047 1.428 2.666 2.762 3.619 2.952 2.38.476 2-1.238-.667-2.381-4-1.714-2.667-3.905 3.048-4.952 2.857-.477 5.238-1.238 5.238-1.715 0-1.142-4.762-.952-7.143.286-3.238 1.714-3.62 0-.571-2.667 1.523-1.238 2.761-2.571 2.761-2.857 0-1.238-2.857-.476-4.285 1.143z"/>
	<path d="M310.868 959.36c1.904 3.333 2.095 4.285 1.047 6.476-.571 1.428-1.619 2.571-2.19 2.571-1.429 0-1.238-2.666.286-3.333.761-.286.761-.476.095-.572-.667 0-1.715.667-2.381 1.429-.953 1.238-.953 1.81 0 3.048 1.905 2.285 4.571 1.81 5.81-1.048 1.714-3.714 1.428-6.286-.858-9.619-3.047-4.19-4.38-3.524-1.81 1.048zM396.772 973.074c-5.238.762-10 2.476-10 3.524 0 .666.667.762 1.715.38.952-.476 5.238-1.047 9.523-1.237 7.429-.572 9.429-1.429 6.096-2.667-1.62-.667-3.048-.667-7.334 0zM37.249 988.407c-.381.572-.19 1.048.38 1.048.572 0 1.239-.476 1.62-1.048.286-.476.19-.952-.381-.952s-1.333.476-1.62.952zM16.392 990.121c-1.334 1.334-.572 2.286 2.571 3.143l3.238.857-.19 16.19c-.19 12.477.095 16 1.047 15.525.858-.572.858-.381 0 .666-1.333 1.715-2.285 8.953-1.142 8.953 1.714 0 3.142-4.953 4.38-14.953 1.239-9.904 1.239-10.761-.666-14.285-2.286-4.572-2.476-7.334-.381-8.096 2.19-.857 1.81-2.666-1.238-5.904-2.476-2.572-6.095-3.62-7.62-2.096zM31.249 990.407c-.381.572-.19 1.048.38 1.048.572 0 1.144-.476 1.144-1.048 0-.476-.286-.952-.476-.952-.286 0-.762.476-1.048.952zM124.01 998.121c-.761 1.524-1.237 3.715-1.237 4.858 0 2.095 3.238 6.476 4.857 6.476 1.714 0 3.047 6.38 3.714 18.095.381 6.571 1.048 11.905 1.524 11.905s.857-.667.857-1.524c0-.762.38-1.524.857-1.524 3.429 0 4.381-20.095 1.143-24.286-1.429-1.81-6.476-5.619-10.857-8.285-.19-.095.19-1.143.857-2.286.952-1.81 1.714-2 5.048-1.429 4.476.667 5.238-.666 1.714-3.142-3.524-2.381-7.048-1.905-8.476 1.142zM29.154 1000.502c-.286.572-.381 1.334-.19 1.524.285.286.761-.19 1.142-1.047.667-1.715.095-2.096-.952-.477zM207.82 1001.36c-.571.952-1.143 3.523-1.238 5.619-.19 3.047.19 4.095 2.476 5.904 2.572 2.096 2.762 2.572 2.762 11.143 0 4.953-.095 9.714-.286 10.476-.285 1.429.667 1.524 7.429.762 2.38-.285 2.19-1.81-.19-1.81-1.81 0-2-.475-1.43-5.142.287-2.857.287-7.143-.094-9.524-.572-3.619-1.334-4.857-4.476-6.952-3.143-2-3.81-3.048-3.62-5.429.286-3.619 1.334-4.857 2.19-2.571.668 1.81 2.953 2.19 3.906.571.857-1.428-2.381-4.952-4.667-4.952-.952 0-2.19.857-2.762 1.905zM259.344 1000.217c-.857 1.428-.476 30.666.38 32.285.668 1.238 2.287 1.524 7.715 1.238 8.667-.38 10.953-.952 11.62-2.761.856-2.096 0-3.715-2.858-5.81-4.286-3.143-7.714-3.238-11.333-.19l-3.143 2.666v-5.047c0-4.667.667-8.381 2.952-17.81.476-2 .381-3.619-.285-4.286-1.239-1.238-4.286-1.428-5.048-.285zm13.333 27.238c2.095 1.238 1.238 1.81-4.19 2.476-4.953.667-6.381-.476-3.048-2.381 2.19-1.333 5.333-1.333 7.238-.095zM245.725 1001.36c0 .571.476 1.238 1.047 1.619.477.285.953-.096.953-.953s-.476-1.619-.953-1.619c-.57 0-1.047.476-1.047.953zM72.201 1005.836c.19 2.285 1.048 6.19 2 8.571.953 2.476 2 8.19 2.381 12.572.572 7.142.857 8 2.762 8.285 2.381.286 3.81-2.476 4.857-9.428.762-4.953-.762-8.572-5.333-12.667-2.476-2.19-3.143-3.524-3.143-6.667 0-2.19.571-4.095 1.238-4.285.667-.286-.19-.476-1.905-.476-3.047 0-3.142.19-2.857 4.095zm9.524 23.047c0 .286-.476.762-.952 1.048-.572.38-1.048.19-1.048-.381s.476-1.143 1.048-1.143c.476 0 .952.286.952.476zM160.773 1005.36c0 .476.38 1.047.952 1.238.571.19-.19 1.619-1.62 3.238-6 6.476-8.094 23.143-3.142 25.714 2 1.143 13.048.571 19.81-.857 4.476-1.048 5.81-3.81 6.857-14.476.476-4.572 1.238-9.238 1.619-10.476.857-2.762-1.715-4.191-4-2.286-1.81 1.428-2 4.952-.381 4.952 1.714 0 0 9.048-2.476 12.762-2 3.048-4 4.286-9.429 5.81-1.81.476-2.19.19-2.19-1.429 0-2.19 3.714-9.143 4.952-9.143 1.524 0 1.905-4.476.476-5.905-1.143-1.142-1.619-1.142-2.952-.095-.762.667-1.238 1.62-.953 2.095.286.477-.762 3.81-2.285 7.429-3.048 7.143-5.143 8.19-7.81 4.095-1.905-2.857-1.238-6.19 2.381-12.762 1.524-2.857 3.714-5.238 5.429-5.904 3.047-1.239 3.333-1.905 1.523-3.715-1.428-1.428-6.761-1.619-6.761-.285zM365.344 1008.026c-2 2-2 2.476 0 5.334 1.428 2 1.428 2.476.19 3.714s-1.904.762-4.762-3.143c-1.904-2.476-4-4.476-4.571-4.476-2.857 0-7.429 1.333-7.429 2.095 0 1.333 3.334 1.143 4.762-.286.857-.857 1.334-.666 1.81.762.38 1.048.952 2.19 1.333 2.381.286.286 1.62 2.095 2.953 3.905 1.904 2.762 2.095 3.524.952 4.286-.762.476-1.714.857-2.095.857-1.238 0-.857 3.81.476 4.285 1.143.477.095 1.048-4 2.286-.667.19-1.238.953-1.238 1.714 0 .953 1.524 1.43 5.047 1.524 6 .096 7.143-1.428 4.096-5.428-2.19-2.667-2-4.381.285-4.381 1.905 0 5.62 4.38 5.62 6.857 0 1.238.57 2.095 1.523 2.095.857 0 1.238.476.953 1.048-.381.571-.19.952.285.952.572 0 1.238-.571 1.524-1.333.952-2.381-.476-6-3.524-8.667-3.238-3.047-3.524-4.38-.952-6.19 2.38-1.715 3.524-8.476 1.714-10.381-1.81-1.81-3.047-1.715-4.952.19zM228.773 1012.883c-2.381 3.81-2.191 7.715.285 5.715 1.048-.857 1.238.476 1.334 6.476 0 8.095 1.333 10.857 3.714 8.38 2.952-3.142 1.905-14.952-1.524-17.333-1.714-1.238-1.714-1.428.667-2.666 2.857-1.524 2.762-3.334-.19-3.81-1.525-.19-2.763.762-4.286 3.238zM324.296 1012.026c-2.285 2.286-1.524 3.905 2 4.286 1.62.19 3.524.762 4.19 1.333 1.524 1.334 4.286.286 4.286-1.524 0-3.81-7.714-6.857-10.476-4.095zM284.772 1012.502c-.857.667-1.142 1.334-.571 1.524.571.286 2.762 1.429 4.952 2.667 3.905 2.286 4 2.286 3.715 7.714-.286 4.095-.857 5.81-2.477 7.143-2.095 1.81-2.095 1.81-.19 1.81 3.81.095 4.667-1.334 4.667-7.81 0-3.333.38-6.095.952-6.095.476 0 .952-.857.952-2 0-1.334-1.428-2.572-4.19-4-4.762-2.286-5.714-2.381-7.81-.953zM339.725 1012.312c0 .571 1.524 2.286 3.428 3.905 3.048 2.762 3.334 3.428 3.048 7.714-.19 2.571-.762 5.238-1.333 5.81-1.81 1.809-1.334 3.714.857 3.714 1.714 0 2-.667 2.095-5.238 0-2.857.19-6.953.286-9.048.285-3.048-.19-4.19-2.19-5.714-2.572-2.095-6.191-2.667-6.191-1.143zM105.44 1014.121c-2.667 2.667 2.19 8.286 7.142 8.286 1.714 0 3.143.476 3.143 1.048 0 1.714 1.429 1.143 2.857-1.143 1.238-2.095 1.143-2.476-2.19-5.524-3.524-3.238-9.143-4.571-10.953-2.667zM301.725 1014.502c0 .572.857 1.334 1.905 1.62 1.428.38 2.095 1.809 2.571 5.142.286 2.572.857 6.096 1.143 7.81.476 2.857.19 3.238-4.095 5.333-2.572 1.238-4.477 2.381-4.286 2.572.095.19 2.857-.19 6.095-.762l5.714-.953 4.381-9.143c4.19-8.952 4.762-13.047 1.81-12.476-1.81.381-2.476 1.62-4.857 8.096-.857 2.57-2 4.666-2.476 4.666-.858 0-1.048-1.714-1.334-10-.095-2-.666-2.476-3.333-2.762-2-.19-3.238.096-3.238.857zM191.344 1016.312c-1.524 1.714-1.524 2 .095 4.095 2.286 2.762 8.953 3.524 10.19 1.143 1.144-2.286.286-3.905-2.952-5.619-3.714-1.905-5.333-1.905-7.333.38z"/>
	<path d="M267.249 1015.455c-.381.571-.381 1.905 0 3.047.762 2.286 4.285 2.667 5.143.477 1.047-2.953-3.62-6.096-5.143-3.524zM337.725 1020.788c0 3.429-.476 6.762-1.048 7.333-1.047 1.048-.286 4.286 1.048 4.286 1.238 0 1.905-2.762 2.095-8.476.19-7.524 0-9.524-1.048-9.524-.571 0-1.047 2.857-1.047 6.381zM34.106 1016.598c-.38.571.095 1.523.952 2 1.334.762 1.429 1.333.572 3.047-.572 1.143-.857 3.238-.572 4.762.762 3.714-.19 7.048-2 7.048-2 0-1.238 3.428.858 3.81 2.761.57 4.952-4.191 5.523-11.905.477-6.19.286-7.429-1.333-8.572-2.19-1.619-3.048-1.714-4-.19zM54.773 1016.312c0 .571 1.333 2.571 2.952 4.476 2.381 2.667 3.81 3.429 6.476 3.429 2.953 0 3.524-.286 3.524-2.096-.095-1.238-1.143-2.952-2.476-3.904-2.857-2.096-10.476-3.524-10.476-1.905zM46.773 1021.74c-.572 12-.477 14 .476 14.381 2.857.953 4.857-15.904 2.286-18.476-2.096-2-2.477-1.333-2.762 4.096zM283.725 1019.931c0 1.81-.476 4.571-.953 6-1.142 2.762.286 8.095 1.81 7.048 1.333-.762 2.476-9.905 1.619-13.524-.857-4.095-2.476-3.81-2.476.476zM40.773 1026.883c0 1.715 3.904 6.572 3.904 4.857.096-1.809-2.19-6.285-3.142-6.285-.477 0-.762.666-.762 1.428zM72.773 1029.36c0 .571.38 1.238.952 1.619.571.285 1.048.19 1.048-.381 0-.572-.477-1.334-1.048-1.62-.571-.38-.952-.19-.952.382zM236.677 1033.645c-1.143 2.19-1.143 2.19.667.572.952-.953 1.524-2 1.143-2.286-.286-.381-1.143.38-1.81 1.714zM327.725 1034.407c0 .572.476 1.048 1.047 1.048.477 0 .953-.476.953-1.048 0-.476-.476-.952-.953-.952-.571 0-1.047.476-1.047.952zM46.201 1038.407c.381.572 1.334 1.048 2.095 1.048.762 0 1.43-.476 1.43-1.048 0-.476-.953-.952-2.096-.952-1.143 0-1.714.476-1.429.952zM222.773 106.408c0 .572.38 1.048.952 1.048.571 0 1.048-.476 1.048-1.048 0-.476-.477-.952-1.048-.952a.954.954 0 0 0-.952.952zM212.868 115.36c-4.667 3.048-9.62 6.286-11.143 7.143-10.19 5.81-18.19 16.953-18.381 25.524-.095 4.952 2.762 8.952 6 8.19 1.619-.38 1.524-.57-.762-1.714-1.524-.666-2.952-2.19-3.238-3.333-.762-2.952 1.238-10.476 3.905-14.762 2.571-4.095 10.857-11.905 12.666-12 .762 0 4.19-2.286 7.81-4.952 3.619-2.762 6.952-4.953 7.619-4.953 1.238-.095 4.952-3.81 4.286-4.476-.19-.19-4.19 2.19-8.762 5.333zM233.44 111.265c-2.096 2.286-2.191 3.143-.382 3.143 2.095 0 4.19-2.857 3.048-4-.667-.667-1.62-.38-2.667.857z"/>
	<path d="M224.201 116.408c-2.19 1.048-6.19 2.952-8.952 4.19-6.381 2.858-12.19 7.334-14 10.858-.762 1.523-3.429 5.047-5.81 7.904-3.524 4-4.38 5.905-4.571 9.143-.19 4.381 1.238 7.905 3.047 7.905.667 0 .667-.476-.19-1.429-2.19-2.666-.286-10.19 4.095-15.714 2.095-2.762 3.905-5.428 3.905-5.905 0-2.095 6.762-8.19 11.619-10.476 3.048-1.333 5.905-2.476 6.476-2.476 1.238 0 10.953-4.857 10.953-5.428 0-.953-2.572-.381-6.572 1.428zM222.963 127.17c-1.81.19-3.238.857-3.238 1.429 0 .666 1.714.761 4.762.38 3.619-.476 6.476-.095 12.285 1.905 4.096 1.334 9.524 2.476 12.096 2.476 5.904-.095 12.285-2.19 12.666-4.285.381-2 .381-2-4.285.38-4.572 2.286-10.857 2.572-16.286.667-10.476-3.81-10.762-3.81-18-2.952zM374.772 131.265c-1.428 1.048-5.714 3.143-9.523 4.667-12 4.857-19.715 12.857-18.19 18.857.761 2.762 5.142 5.619 8.666 5.619 2.666 0 3.619 2.667 1.714 4.857-1.238 1.333-1.429 3.143-.952 8 .476 5.905.38 6.476-2.286 9.238-3.143 3.238-7.333 3.905-11.905 1.81-3.428-1.62-4.19-.476-1.619 2.095 3.429 3.429 7.429 3.714 11.905.762 5.905-3.905 8.667-11.048 6-15.905-.762-1.619-.667-2.952.667-5.905 2.19-4.761 1.142-6.38-4.572-7.142-3.524-.477-6.762-2.762-6.952-4.858 0-.285 1.333-2.571 2.857-5.047 2.476-3.81 4.286-5.143 11.81-8.762 12.285-5.81 15.714-7.81 16.19-9.048.476-1.524-1.048-1.238-3.81.762z"/>
	<path d="M208.868 132.789c-15.429 13.238-17.62 21.238-8.19 30 2.856 2.667 6.57 5.048 9.142 5.81 5.143 1.523 17.143 1.714 28 .476 7.143-.762 8.095-.667 13.048 1.619 2.952 1.428 6.666 3.714 8.38 5.047 2.858 2.381 2.953 2.857 2.953 9.905-.095 7.62-2.476 13.905-7.333 19.81l-2.096 2.476 1.81-4.953c.952-2.761 1.619-6.38 1.619-8-.286-4.761-4.19-12.285-8.571-16.571-4.096-3.905-13.81-8.38-16.762-7.714-.953.19.476 1.047 3.047 2 11.715 4 19.81 14.095 19.81 24.571 0 9.714-4.381 15.429-15.048 19.81-10.285 4.095-11.238 6.19-1.047 2.285 6.095-2.285 12.285-6.285 16.285-10.571 3.62-3.905 9.334-12.571 10.572-16 .952-2.762.285-10.952-1.238-14.857-1.238-3.048-5.715-7.524-7.62-7.524-.857 0-2.095-.571-2.761-1.238-1.715-2.19-6.572-2.476-28.667-1.714-10.571.38-12.476.19-16.476-1.62-5.62-2.666-9.524-6.761-10.762-11.428-.952-3.333-.667-4.095 3.524-10.38 2.476-3.715 6-7.715 7.905-8.858 1.81-1.238 3.333-2.571 3.333-2.952 0-1.048-1.238-.858-2.857.571z"/>
	<path d="M213.534 143.456c-1.238 4.095-.952 5.81 1.334 8 2.762 2.571 6.38 2.571 11.619 0 2.952-1.429 6-1.905 10.952-1.905 7.62.095 14.953-.476 20.476-1.62 3.524-.666 3.905-.475 5.524 2.382 1.238 2.286 3.238 3.714 6.572 4.952 2.666.953 6.857 3.62 9.428 6 4.476 4.286 4.476 4.476 4.095 9.81-.38 4.476-1.047 6.095-3.81 8.857-3.523 3.619-3.523 6.19 0 3.047 3.906-3.523 6.287-8.571 6.191-12.857-.19-4.285-1.143-6.095-7.428-14.38-2.572-3.43-3.715-5.81-3.334-6.953 1.048-2.762-.38-5.333-3.047-5.333-1.429 0-3.429-.477-4.572-1.143-2.666-1.429-12 .38-19.619 3.714-4.476 2-6.571 2.381-11.428 1.905-4.572-.381-6.762 0-9.81 1.524-4.38 2.285-9.238 2.571-10.762.762-.571-.762-1.142-3.048-1.333-5.239-.286-3.523-.476-3.714-1.048-1.523zm57.048 1.523c2.857.667 3.238 1.048 2.667 3.143-.286 1.429.095 3.334 1.047 4.857 1.905 2.953 1.715 2.953-3.428.953-2.096-.857-4.857-2.953-6.096-4.667-2.095-2.762-2.666-2.952-6.38-2.476-2.286.38-5.429.857-6.953 1.238-4.571 1.143-3.047-1.143 2-2.857 4.667-1.524 10.19-1.62 17.143-.19zM373.725 150.98c0 .857.476 1.333 1.047.952.477-.286.953-1.048.953-1.524a.954.954 0 0 0-.953-.952c-.571 0-1.047.666-1.047 1.523zM284.772 158.408c0 .571.381 1.048.953 1.048.571 0 1.047-.477 1.047-1.048 0-.476-.476-.952-1.047-.952a.954.954 0 0 0-.953.952zM194.773 166.884c0 1.048 1.904 2.572 5.523 4.286l5.62 2.571-.477 4.096c-.476 3.047-1.428 4.857-3.905 6.857-1.714 1.524-4 2.762-4.857 2.762-2.476 0-18.095 8.285-25.619 13.619-3.714 2.666-9.714 7.619-13.333 10.857-3.524 3.333-8.571 7.81-10.952 10-5.239 4.571-16 17.619-18.381 22.285-2.857 5.429-1.81 6 1.238.572 3.047-5.62 12-16.095 21.619-25.333 16.285-15.715 25.524-21.905 42.762-29.048 10-4.095 12.38-6.38 13.333-12.286.762-4.285-1.143-7.047-5.429-8.19-1.523-.286-3.714-1.524-4.952-2.762-2-1.81-2.19-1.905-2.19-.286zM444.772 166.027c0 .667 1.143 4.286 2.476 8 1.429 3.81 3.715 10.095 5.143 13.905 3.429 9.238 8.381 25.905 9.334 31.524 1.047 6.38 2.285 30.19 2.19 45.047 0 12.19-2.286 29.905-5.619 44-1.81 7.524-2 9.714-.667 8.381 1.239-1.238 4.667-14.095 6-22.476 3.048-18.476 3.62-57.048 1.048-72.952-1.048-6-4-16.667-6.095-21.524-.476-1.048-2.667-7.143-4.857-13.524-4.096-11.619-8.857-22.38-8.953-20.38zM215.344 176.694c.762 4.476-1.429 8.666-8.286 16.095-6.19 6.667-9.333 12.286-9.333 16.476 0 3.62 2.286 9.333 4.476 11.143.857.667 1.524 2.19 1.524 3.143 0 1.143 1.428 2.762 3.238 3.905 3.619 2.19 5.429 1.523 2-.762-3.143-2.096-2.762-4.572.857-6 2-.667 2.857-1.524 2.381-2.286-.476-.762-.286-1.048.667-.762.762.286 2.571-.095 4-.762 3.428-1.81 18.571-14.571 20.571-17.428 2.381-3.429.572-3.524-2.286-.096-1.523 1.715-4.285 4-6.285 5.048-4.667 2.38-17.524 6.667-22.476 7.524-2.096.38-4.477.857-5.239 1.143-.952.476-1.428-.19-1.428-1.905 0-4.762 2.38-9.333 9.143-17.333 3.81-4.477 6.857-8.572 6.857-9.239 0-.57.762-1.523 1.714-2.095 1.238-.666 1.429-1.238.667-1.81-.572-.38-1.048-2-.953-3.618 0-1.62-.476-3.143-1.142-3.334-.858-.285-1.048.572-.667 2.953zm11.429 31.238c0 .286-2.477 2.19-5.524 4.19-4.286 2.762-5.81 3.334-6.857 2.476-.762-.666-1.715-.761-2.096-.38-.38.38-.38 0-.095-.858.381-.857 3.62-2.476 7.333-3.619 3.715-1.143 6.762-2.095 6.953-2.19.095 0 .286.095.286.38zM401.82 183.741c-.476 1.238-2.095 6.286-3.62 11.238-2.38 8.19-6.761 20.19-10 28-.666 1.62-1.523 4.572-2 6.477-.951 4.571-9.713 17.81-17.047 26-3.238 3.523-9.047 9.904-12.952 14.095-3.81 4.285-8.476 9.619-10.19 11.905-2.572 3.238-3.239 3.714-3.239 2.19 0-3.238-2.857-4.667-8.571-4.286-1.048 0-6.286 2.953-11.524 6.381l-9.428 6.19h-9.524c-8.19 0-9.524.286-9.81 1.81-.285 1.334.381 1.715 2.953 1.715 3.238-.096 3.238-.096 1.333-1.62-2.095-1.714-2-1.714 8.857.19 3.905.668 7.905-1.142 18.476-8.19 7.715-5.142 10.381-6.095 13.81-4.57 3.143 1.523 3.047 2.38-.762 6.666l-3.048 3.524h3.524c2 0 3.81-.477 4.19-1.048.382-.667-.285-.762-1.904-.381-2 .476-.286-1.714 7.047-9.238 17.62-18 32.953-36 37.238-43.714 3.43-6 15.334-41.524 17.62-52.381.761-3.715-.096-4.286-1.43-.953z"/>
	<path d="M189.153 203.932c-3.714 3.81-6.476 5.428-20.38 11.81-7.429 3.428-31.048 25.142-31.048 28.57 0 .763 4.19-3.047 9.238-8.38 5.143-5.334 10.857-10.857 12.762-12.095 1.905-1.334 5.143-3.429 7.048-4.762 2-1.334 7.047-3.81 11.333-5.62 7.619-3.237 15.619-9.714 15.619-12.666 0-1.714.19-1.81-4.572 3.143zM468.772 221.456c0 .571.476.952 1.048.952.571 0 .762-.381.38-.952-.285-.572-.761-1.048-1.047-1.048-.19 0-.38.476-.38 1.048zM178.773 223.741c-8.381 1.905-37.048 23.143-37.048 27.429 0 .762 2.476-1.048 5.524-4.095 3.047-3.143 6.762-6.381 8.285-7.334 1.524-.952 4.477-3.143 6.667-4.857 7.524-5.905 22.572-11.81 24.095-9.333.667 1.047 9.429 1.238 9.429.19 0-1.047-7.429-3.333-10.19-3.143-1.334 0-4.381.572-6.762 1.143zM222.201 225.36c-11.238 4.572-14.476 5.429-20.476 5.62-3.524 0-8.286.57-10.476 1.237-8.572 2.572-21.429 15.81-21.524 22.096 0 2.571 6.19 11.619 8.952 13.143 5.429 2.857 18.096 5.714 18.096 4 0-.572-.762-1.048-1.62-1.048-.857 0-4.761-.857-8.476-2-5.904-1.81-7.523-2.857-10.952-6.952-5.905-7.048-5.143-10.858 3.81-19.143 7.333-6.953 11.714-8.762 22.952-9.81 9.619-.952 20.38-4 23.238-6.666 1.238-1.239 1.238-1.334 0-1.334-.857.095-2.381.476-3.524.857zM149.249 250.408c-.381.571.19 1.048 1.238 1.048 1.047 0 2.762.857 3.714 2 1.62 1.714 1.714 2.571.762 5.714-1.048 3.428-1.048 3.619.286 1.81 2.285-2.953 1.905-8.096-.762-10-2.572-1.715-4.381-2-5.238-.572z"/>
	<path d="M161.63 249.55c0 .191-.19 1.715-.381 3.334-.953 7.143-4.19 10.572-16.857 18-6.381 3.62-8.477 5.524-10.286 8.762-.762 1.524-1.333 2.857-1.333 3.048 0 .19 2.095-1.715 4.761-4.19 2.667-2.572 7.43-6.191 10.572-8 8.286-4.763 13.143-9.715 14.571-14.953.857-3.048.857-4.667.096-5.429-.572-.571-1.048-.857-1.143-.571z"/>
	<path d="M142.868 259.17c-4.286 2.476-10.762 10.095-9.524 11.238.381.286.857-.095 1.143-.857.762-2.286 6.476-7.143 9.047-7.715 5.334-1.428 3.334 2.477-2.952 5.715-2.095 1.047-3.81 2.38-3.81 2.857 0 1.048 8.953-2.857 11.524-5.048 2.477-2 3.715-5.904 2.286-7.523-1.524-1.81-2.571-1.62-7.714 1.333zM333.725 259.837c-7.524 3.904-19.429 10.666-20.476 11.619-2 2 .571 2.095 3.047.095 1.524-1.143 3.238-2.095 3.905-2.095.667 0 3.905-1.715 7.143-3.81 3.333-2.19 7.238-4.286 8.857-4.857 1.619-.572 3.048-1.524 3.333-2.19.476-1.62-.666-1.334-5.81 1.238zM198.201 271.456c-.38.571.952 1.714 2.857 2.476 5.524 2.285 11.334 9.81 13.62 17.524 3.618 12 2.761 14.952-6.382 21.047-3.619 2.381-6.571 4.667-6.571 5.143 0 1.714.952 1.143 9.524-5.429 6.666-5.047 7.619-6.19 7.238-8.38-.286-1.239-.095-2.096.38-1.81.477.286.858.19.858-.095 0-1.905-5.524-17.143-6.667-18.572-.762-.857-1.333-1.904-1.333-2.38 0-2-5.524-7.81-8.572-9.144-4-1.619-4.095-1.619-4.952-.38zM248.01 274.408c-.57 2-1.618 6.286-2.38 9.524-2 9.238-10 25.333-14.286 28.476-1.048.857-3.62 2.762-5.714 4.19-2.096 1.429-3.524 2.857-3.238 3.238.952.953 4.571-1.428 10.095-6.666 5.905-5.81 12.666-18.476 14.285-26.953.572-2.857 1.524-6.857 2.096-8.857.571-2 .857-4.285.666-5.047-.285-.762-.952.19-1.523 2.095zM311.44 279.265c-3.049 3.143-3.906 6.476-1.144 4.095 1.429-1.143 4.857-6.952 4.095-6.952-.095 0-1.523 1.333-2.952 2.857z"/>
	<path d="M183.249 279.456c1.047 1.142 5.428 3.904 9.904 6.095 4.477 2.19 9.143 5.047 10.477 6.19 3.428 3.238 6.285 10.476 5.619 14.095-.476 2.381-.381 2.762.38 1.62 1.524-2.096 1.334-7.62-.285-10.762-2.476-4.667-7.81-8.953-15.81-12.762-4.285-2-8.19-4.286-8.857-5.048-.666-.762-1.619-1.428-2.19-1.428-.572 0-.286.952.762 2zM167.725 279.075c0 2.952 12.571 13.047 15.238 12.095.571-.19-1.714-2-5.048-4.19-3.333-2.096-6.571-4.858-7.238-6.191-1.143-2.095-2.952-3.238-2.952-1.714zM272.868 287.17c-4.476 4.19-9.048 8.095-10 8.666-4 2.381-15.048 11.048-14.667 11.429.286.286 4.19-1.905 8.667-4.952 8.38-5.429 25.81-21.143 24.762-22.286-.286-.286-4.286 2.857-8.762 7.143zM155.725 282.598c0 1.62 5.048 11.81 6.19 12.477 1.62.952 2.19-.477.762-2.096-.666-.857-2.285-3.81-3.523-6.571-2.286-4.857-3.429-6.095-3.429-3.81zM305.344 286.122c-.953 1.048-.762 4.286.38 4.286.572 0 1.048-1.048 1.048-2.476 0-2.572-.285-2.953-1.428-1.81zM145.725 291.265c0 3.524 3.429 11.143 5.048 11.143.476 0 .095-1.62-1.048-3.714-1.143-2-2-4.572-2-5.715 0-1.143-.476-2.666-.952-3.523-.762-1.143-1.048-.667-1.048 1.809zM229.534 291.456c-.095 1.428 0 3.523.096 4.761.285 3.715-5.334 13.524-9.81 16.762-3.619 2.667-5.047 4.476-3.524 4.476 1.905 0 9.905-8.095 11.905-11.904 4.095-8.381 4.857-11.715 3.048-14.286l-1.524-2.286-.19 2.477zM138.677 292.98c-.285 1.047-.19 4.57.096 7.714.38 4.38 1.142 6.38 2.952 8l2.38 2.285-1.904-3.047c-1.143-1.81-2.095-5.81-2.476-10-.286-3.81-.762-6.096-1.048-4.953z"/>
	<path d="M200.296 295.836c4.572 4.572 4.953 9.81 1.143 12.858-1.714 1.333-1.905 1.714-.666 1.714 3.142.095 5.238-3.62 4.666-8-.571-4.19-4.762-10-7.333-10-.667 0 .38 1.619 2.19 3.428zM300.01 297.17c-.761.286-1.238 1.143-1.238 2 0 .952.477 1.238 1.524.857 1.238-.476 1.429-.095.953 1.714-.477 1.715-.381 1.905.38.667 2.096-2.952 1.048-6.19-1.618-5.238zM265.058 307.265c-8.762 13.62-13.238 24.667-11.81 29.333 1.144 3.62 2.286 1.81 2.382-3.523 0-5.715 1.047-8.667 6.571-18.096 5.714-9.904 6.667-11.714 6.286-12.095-.19-.19-1.715 1.81-3.429 4.381zM270.963 305.741l-1.143 3.238 1.905-2.38c2.095-2.477 2.571-4.191 1.238-4.191-.476 0-1.333 1.524-2 3.333zM270.963 311.646c-1.429 1.429-1.714 6.19-.381 5.333.667-.38 2.286-6.571 1.714-6.571-.095 0-.666.571-1.333 1.238zM267.249 315.17c-1.334 6.285-1.429 7.428-.572 9.619.476 1.143.953 1.714 1.048 1.143.095-.572.286-3.81.571-7.238.572-6.477 0-8.286-1.047-3.524zM251.44 317.17c-3.715 4-7.715 12.476-7.62 16.476 0 3.048.19 2.762 2.286-2.667 2.476-6.666 6-12.762 6.857-12 .286.286.762-.571.952-2 .286-1.333.477-2.571.381-2.571-.095 0-1.333 1.238-2.857 2.762zM237.82 323.741c-2.286 4.667-2.667 7.238-1.238 8.095.476.381 1.143-1.238 1.524-3.428.38-2.286 1.428-5.143 2.286-6.476.857-1.429 1.142-2.477.571-2.477s-2 1.905-3.143 4.286zM538.772 822.026c.095 1.143.286 1.429.667.572.286-.667.19-1.524-.095-1.905-.381-.286-.572.286-.572 1.333zM5.535 1073.55c-.096 6.286-.286 17.048-.381 23.905-.096 6.857-.286 19.904-.572 28.857l-.38 16.476 91.904.095c50.476 0 92-.285 92.286-.666.285-.477 1.238-.286 2.285.19.953.571 2 .762 2.286.476.762-.762 50.571-1.333 180.286-2 126.095-.762 157.142-.762 158.285 0 .476.286 2.667-.38 4.762-1.428 3.429-1.81 3.619-2 1.429-2.096-1.429-.095-2.953-.095-3.429 0-.476.096-9.905.19-20.952.096-11.048-.096-21.905-.096-24.096 0-2.19 0-27.81.285-56.857.571-48.571.381-52.952.286-54.476-1.238-1.619-1.619-1.714-1.619-2 0-.286 1.429-2.19 1.714-16 1.714-66 .476-137.428.953-145.81 1.048-5.618.095-10.666-.095-11.237-.476-.572-.381-1.238-.286-1.524.19-.381.667-156.571.572-185.143-.095l-8.952-.19.286-4.953c.095-2.762.762-5.333 1.428-5.81.953-.57.953-.952-.095-1.618-1.048-.667-1.333-7.429-1.62-32-.094-17.143-.57-31.524-.856-31.81-.381-.38-.762 4.476-.857 10.762z"/>
	<path d="M450.487 1063.169c-.858.286-2.19 1.714-2.953 3.333-1.238 2.762-3.81 4.096-3.81 1.905a.954.954 0 0 0-.952-.952c-1.238 0-.095 4.095 1.715 6.285.857.953 1.238 2 .952 2.381-.381.381-.19 1.238.38 1.905 1.144 1.429 1.715 4.476 2 11.905.096 2.762.477 5.428.763 6 .286.571.571 2.286.571 4 .095 1.619.476 3.524.857 4.19.477.667.953 4.286 1.238 8 .477 6.762 1.143 11.143 2.096 14.572.38 1.428 1.619 1.714 5.81 1.714 6.19 0 7.237-.857 8.094-7.048.286-2.38 1.048-6.476 1.524-8.952.476-2.38 1.048-5.81 1.334-7.428.571-4.381 1.81-8.858 2.666-10 .381-.572 1.048-2.762 1.334-4.858 1.142-6.095 5.619-15.428 8.285-17.142 2.667-1.81 2.19-3.905-.666-3.048-1.429.476-2.286-.19-3.429-2.286-1.048-2.095-2.476-3.143-5.048-3.619-2-.38-4-.38-4.476-.095-.476.286-2.095 0-3.428-.667-2-.857-3.238-.857-5.048 0-1.428.667-3.619.762-5.238.286-1.524-.381-3.62-.571-4.571-.381zm19.333 5.429c.857 1.714.571 1.81-3.048 1.81-3.047 0-4.285-.477-5.143-2.096-.857-1.62-.857-2.286.096-2.857 1.81-1.143 6.857.857 8.095 3.143zm-10.667-1.62c2.667 2.762 1.81 3.43-4.38 3.43-4.763 0-6-.287-6-1.525 0-3.047 7.714-4.476 10.38-1.904zm16-.952c2.667 1.048 1.905 4.381-.857 4.381-2.095 0-4.571-2.286-4.571-4.38 0-.763 3.428-.763 5.428 0zm-1.238 18.476c-2.476 2.096-18.476 3.143-22.952 1.524-3.62-1.428.095-2.095 11.238-2.095 6.857 0 12.19.286 11.714.571zm-1.333 3.429c-.19.19-3.429.857-7.143 1.524-8.381 1.333-14.667.952-14.667-.762 0-1.048 1.334-1.238 5.715-.762 3.142.286 8 .19 10.761-.286 4.762-.762 6.286-.666 5.334.286zM221.725 1066.979c.762.857 1.524 1.333 1.714 1.047.762-.666-.666-2.571-1.905-2.571-.666 0-.571.571.19 1.524zM110.963 1069.074c-1.81.952-3.238 2.095-3.238 2.666 0 .477.667.381 1.524-.285.857-.762 1.81-1.048 2.095-.762.286.286-.857 1.143-2.571 1.905-2 .857-3.429 2.476-4.19 4.761-1.525 4.572-.572 16.191 1.523 19.239.857 1.238 1.619 3.142 1.619 4.095 0 1.619-1.143 1.714-12.095 1.714-11.143 0-12.095-.095-11.524-1.714.286-.953 1.429-4.381 2.667-7.62 3.714-10.57 2.19-19.809-3.62-21.237-5.618-1.429-8.19 1.81-4.476 5.619 1.715 1.619 2.477 1.81 4.096.952 1.714-.857 2-.667 2 1.524 0 2.762-4.477 15.143-6.19 17.238-.572.667-1.906 4.667-2.858 8.667-1.429 6.285-1.524 8-.476 11.143 2.762 7.904 8.952 11.619 19.333 11.714 11.429.095 19.62-7.334 20.667-18.857.38-3.715-.19-5.905-3.524-12.667-4.952-10-5.429-16.38-1.524-20.286 3.143-3.143 4.667-3.047 4.286.286-.19 2.381.095 2.762 2.286 2.762 3.428 0 3.904-3.81.857-7.048-2.381-2.571-2-4.571.571-2.476.953.857 1.524.952 1.524.19 0-1.047-3.143-3.142-4.667-3.142-.476 0-2.285.762-4.095 1.619zm3.81 1.333c0 .572-.286 1.048-.477 1.048-.285 0-.761-.476-1.047-1.048-.381-.476-.19-.952.38-.952.572 0 1.144.476 1.144.952zm-6.19 35.81c-.382 1.523-1.906 1.81-13.62 2-11.238.285-13.238.095-13.238-1.143 0-1.62 3.333-2 19.81-2.381 6.476-.19 7.333 0 7.047 1.524zm.19 5.333c0 1.333-2.096 1.714-13.238 2.286-11.81.666-13.429.571-14.477-.953-.666-.952-1.142-2-.857-2.285.19-.381 6.667-.667 14.476-.667 12.19 0 14.096.19 14.096 1.619zm2.952.38c0 1.43-.381 2.477-.857 2.477s-.667-1.048-.381-2.476c.286-1.333.667-2.476.857-2.476.19 0 .381 1.143.381 2.476zm-4 4.191c0 .286-.476 1.334-1.048 2.381-1.523 2.953-6.095 4.857-12.762 5.334-5.428.38-6.19.19-9.619-2.572-2-1.714-3.333-3.428-2.857-3.81.381-.475 4.857-1.047 9.715-1.428 4.952-.38 9.047-.762 9.238-.857.476-.476 7.333.476 7.333.952zM349.249 1069.836c-2.762 1.333-7.048 4.571-9.62 7.238-4.761 5.143-10.57 16.571-9.333 18.571.572.762 1.048.572 1.524-.762.571-1.524.762-1.143.857 1.429 0 2.667-.286 3.238-1.619 2.762-1.333-.572-1.524 0-1.143 4.095.286 2.667 1.238 6.476 2.286 8.571 3.238 6.858 13.048 14.953 19.524 16.096l3.524.666-4.096-3.81c-5.047-4.57-6.476-6.856-9.333-15.047-3.524-10.476-3.714-14.19-.762-20.571 3.143-6.857 8.952-14.667 12.286-16.381 3.333-1.81 2.952-.095-.572 2.571-1.619 1.238-3.523 3.143-4.095 4.286-.952 1.81-.476 1.619 2.667-.857 5.524-4.381 8.571-4.953 11.428-2.095 2 2.095 2.19 2.095 1.524.38-1.619-4.19-1.81-5.523-.666-5.523.57 0 1.142.571 1.142 1.238 0 .666 1.62 2.666 3.715 4.38l3.714 3.239-2.667 2.476c-2.571 2.286-6.666 13.524-9.904 27.143-.667 2.762-1.62 5.524-2.096 6.19-1.333 1.715.19 8.286 2.19 9.334 1.334.762 2.763.285 5.525-1.62l3.81-2.57-1.62 2.57c-2 2.953-2.095 3.62-.667 3.62.477 0 1.715-1.81 2.572-4 1.714-4.286 3.619-4.857 4.19-1.238.667 4.285 6.857 6.38 9.715 3.238 2.285-2.572 3.523-2.572 3.523 0 0 1.143.381 2 .953 2 .571 0 1.047-.477 1.047-1.048 0-.667.572-.667 1.81 0 5.524 2.952 9.333-2.667 9.333-13.619-.095-10.762-2.095-18.762-6.762-27.238-2.857-5.143-2.571-9.429.762-11.238 1.905-.953 1.905-1.143.381-2.667-1.619-1.619-1.81-1.524-3.143.286-.762 1.048-1.428 2.476-1.428 3.238 0 1.905-.953 1.524-3.143-1.238-3.333-4.095-5.429-4.857-8.857-2.857-1.62 1.047-3.334 2.952-3.81 4.285l-.762 2.477-2.476-3.429c-1.333-1.905-2.476-3.81-2.476-4.19 0-1.143-.571-1.143-4.762-.381-2.857.571-4.571.285-6.286-.857-2.857-1.905-2-2-7.904.857zm40.952 14.38c.38 1.524 1.333 4.096 2.095 5.715 2.572 5.619 4.381 11.524 3.81 12.952-.286.762 0 1.62.571 2 1.714 1.048 1.333 14.762-.476 17.334-3.62 5.047-8.762.571-8.095-6.953.19-2.38-.286-7.143-.953-10.666-.952-4.477-1.047-7.715-.38-11.429.57-2.762.666-5.905.38-6.857-.666-2.286.381-6.095 1.524-5.429.476.286 1.143 1.81 1.524 3.334zm-16.095 6.953c0 4.857-.667 12.19-1.334 16.286-1.142 6.571-1.81 8-5.428 11.714-5.238 5.524-7.62 5.619-7.62.571 0-2.095.572-5.714 1.334-8 .952-3.333 1.524-4 2.381-3.142.952.857 1.524.857 2.762-.096 2.095-1.81 1.905-3.714-.476-4.38-1.715-.382-2-1.048-1.429-3.334 1.524-6.19 7.62-18.38 9.238-18.38.381 0 .667 4 .572 8.761zm11.047-5.524c-.666 1.048-8.19 1.048-8.762.095-.285-.476 1.715-.857 4.381-.857 2.667 0 4.667.286 4.381.762zm-5.714 14.381c-.286.381-1.143.381-1.905.095-.762-.285-.571-.571.572-.571 1.047-.095 1.714.19 1.333.476zm-3.238 17.429c.38.571.19.952-.381.952s-1.048-.38-1.048-.952.19-1.048.381-1.048c.286 0 .762.476 1.048 1.048zm-33.429.952c0 .571-.571 1.048-1.142 1.048-.572 0-.762-.477-.381-1.048.285-.476.761-.952 1.047-.952.19 0 .476.476.476.952zm42.953 2c0 .571-.476 1.048-.953 1.048a1.057 1.057 0 0 1-1.047-1.048c0-.476.476-.952 1.047-.952.477 0 .953.476.953.952zm-3.524.952c.286.572.095 1.239-.476 1.62-.572.285-.953.095-.953-.572 0-.667-.857-.952-2.095-.667-1.048.286-1.714.096-1.428-.38.761-1.143 4.19-1.143 4.952 0zM497.725 1068.407c-1.238.857-1.238 1.048.285 1.048.953 0 1.715-.476 1.715-1.048 0-1.143-.096-1.143-2 0zM151.725 1069.264c0 .476.667.857 1.429.857.857 0 1.238-.38.952-.857-.286-.476-.952-.857-1.429-.857-.571 0-.952.381-.952.857zM294.201 1069.36c-4.571 1.142-14.476 8.095-15.048 10.666-.761 3.048.19 4.381 3.143 4.381 1.429 0 2.286.572 2.19 1.333-.19.667.572 1.143 1.715 1.048 1.143-.095 2.19.095 2.476.571.857 1.143 8.476 3.048 12.286 3.048 6.762 0 19.81-6.476 19.81-9.905 0-3.047-6.572-7.81-13.62-10-7.047-2.19-8.19-2.285-12.952-1.142zm-3.429 3.619c-.761.761-1.714 1.428-2.285 1.428-.572 0-.476-.571.285-1.428.667-.858 1.62-1.524 2.19-1.524.572 0 .477.666-.19 1.524zm16.096 2.095c2.095 1.905 2.476 7.333.666 9.143-1.714 1.714-8.952 1.523-11.619-.286-2.476-1.81-2.857-5.62-.666-7.429 1.238-1.143 1.428-.857.857 1.62-.476 2.38-.095 3.142 2 4.285 1.428.762 3.524 1.048 5.047.667 2-.476 2.572-1.238 2.572-3.62 0-1.523-.476-3.142-.953-3.523-1.142-.667-1.428-2.476-.38-2.476.38 0 1.523.762 2.476 1.619zm-20.096.762c0 .19-.761.666-1.619 1.047-.857.286-1.238.096-.952-.476.571-.952 2.571-1.333 2.571-.571zM416.582 1069.074c-1.905.571-3.143 3.047-2.286 4.476.286.476.19.857-.286.857s-.857.857-.952 1.81c0 .952-.38 4-.762 6.762-.38 2.761-.857 6.666-.857 8.666-.095 2-.476 3.429-.762 3.238-.286-.19-.571 1.334-.667 3.429-.285 7.047-.476 8.667-1.523 13.428-1.048 5.239-4.19 12.19-5.715 13.238-2 1.239-.952 2.477 2 2.477 3.334 0 7.905-2 9.81-4.381 1.047-1.238 1.524-1.143 3.714 1.047 2.667 2.667 5.048 2.19 7.81-1.714 1.238-1.81 1.523-1.905 2.285-.571 1.524 2.666 8.477 6.857 9.62 5.714.761-.762.57-1.62-.477-2.857-2.571-2.953-3.905-11.048-4.38-26.19-.572-22-1.239-26.858-3.525-28.096-2.285-1.238-10.666-2.095-13.047-1.333zm1.143 41.333c0 .572-.476 1.048-1.048 1.048-.571 0-.762-.476-.476-1.048.38-.476.857-.952 1.048-.952.285 0 .476.476.476.952zm15.238 5.048c.38 1.047.285 2.19-.095 2.38-.762.477-11.81.858-19.81.667-3.524 0-4.19-.38-4.095-2.095.19-2.095 1.714-2.762 1.81-.667 0 .953.19.953.761 0 .381-.666 2.953-1.333 5.715-1.428 15.714-1.048 15.142-1.048 15.714 1.143z"/>
	<path d="M429.534 1116.121c.762.286 1.62.286 1.905-.095.38-.286-.286-.571-1.333-.476-1.143 0-1.334.286-.572.571zM513.82 1069.74c-2.857 1.429-3.62 3.715-5.62 17.239-.761 5.428-2.094 11.809-2.952 14-.761 2.19-1.428 5.142-1.428 6.476-.095 3.524-6.095 18.095-7.714 18.666-2.286.857-1.524 2.286 1.142 2.381 2.381 0 7.62-2.38 11.715-5.333 1.524-1.048 2.095-.762 4.095 1.619 2.762 3.524 5.619 3.238 7.524-.667 1.333-2.857 1.333-2.857 3.524-.857 6 5.429 12.952 5.524 8 .095-1.81-2-3.239-15.714-3.334-30.952-.095-12.19-1.524-21.048-3.714-22.667-2.19-1.619-8.095-1.619-11.238 0zm11.524 41.524c2.571.19 3.142.572 3.142 2.572 0 2.38-.285 2.38-10.666 3.047-5.81.381-11.429.953-12.381 1.238-1.238.286-1.714-.095-1.714-1.619 0-1.904.666-2.095 7.714-2.285l7.81-.19-6.477-.287c-7.238-.38-9.428-.857-8.666-2 .38-.666 13.333-.952 21.238-.476z"/>
	<path d="M521.725 1113.455c-1.143.762-.667.952 1.81.952 2 0 3.047-.38 2.666-.952-.762-1.238-2.572-1.238-4.476 0zM545.725 1070.693c-2 1.333-4 3.81-4.762 5.81-1.429 3.904-.857 18.952.857 22 .476 1.047.762 2 .571 1.904-.285 0 .19 2.381 1.048 5.333.857 2.858 1.619 7.048 1.81 9.239.095 2.19.761 5.238 1.333 6.761.666 1.62 1.143 3.429 1.143 4.19 0 1.906 1.428 2.668 3.523 1.906 1.048-.477 1.429-1.334 1.143-2.762-.285-1.143-1.905-8.476-3.428-16.19-1.62-7.715-3.429-14.953-4.096-16.191-1.714-3.238-1.428-13.238.572-17.238 1.905-3.81 4.857-4.857 8.38-2.953 2 1.048 2.096 1.715 1.62 10.667-.572 11.524.571 18.19 3.428 20.571 2.286 1.905 6.953 2.286 9.81.762 2.19-1.143 4.19-6.571 3.619-9.523-.286-1.143-.476-4-.476-6.381-.095-2.953-.476-4.19-1.334-3.905-.857.286-1.333 2.762-1.428 6.857-.19 9.048-.095 8.762-2.286 9.905-1.333.666-2.666.666-4.476-.096-3.048-1.428-4.286-7.714-2.952-15.333.571-2.762.666-6.571.285-8.286-.38-1.81-.285-3.047.19-2.666.477.285.953 0 .953-.572 0-.571-.571-1.047-1.333-1.047-.667 0-1.714-1.048-2.19-2.286-1.43-3.238-7.048-3.524-11.524-.476zM27.44 1070.121c-.858.762.095 2.286 1.333 2.286.571 0 .952-.667.952-1.428 0-1.524-1.143-2-2.286-.858zM132.01 1071.169c-3.142 1.714-11.237 12-11.237 14.286 0 1.904 8.476 5.047 14.095 5.143 3.81 0 6.952-.667 11.143-2.667 3.143-1.429 5.714-2.857 5.714-3.143 0-1.333-4.476-8.38-5.333-8.38-.477 0-.572-.668-.286-1.525.286-.857.19-1.238-.381-.952-.476.286-2.762-.572-4.952-1.905-4.762-3.047-4.667-3.047-8.762-.857zm8.477 5.048c.667.952 1.143 2.762 1.143 4.19-.19 2.381-.19 2.381-.572.286-.666-3.334-4.666-5.714-7.238-4.286-2.285 1.238-3.428 4.095-2.476 6.381.762 2.19 4.667 3.143 7.333 1.714 1.62-.857 2.096-.857 2.096.286 0 .857-.762 1.714-1.62 2.095-7.714 2.953-12.761-5.428-6.761-10.952 2.857-2.667 5.81-2.572 8.095.286zM245.725 1071.36c-.572 1.047-.953 2.666-.953 3.619 0 .857-.761 3.047-1.619 4.761-1.333 2.858-1.333 3.048 0 1.334.858-1.143 1.81-1.715 2.19-1.334.287.286-.856 2.381-2.666 4.667-2.38 2.952-3.524 3.714-4.095 2.857-.762-1.238-.952-.952-1.238 1.81-.19 1.524-5.333 7.333-6.571 7.333-.572 0-1.048.857-1.048 1.81-.095 1.523-5.238 8.19-6.381 8.19-.19 0-.667-1.238-.952-2.952-.381-1.62-1.81-3.715-3.239-4.667-2.571-1.619-2.761-1.619-4.095.19-2 2.762-1.619 5.334 1.143 8.667 1.429 1.62 2.572 3.334 2.572 3.714 0 .381-1.62 1.239-3.524 1.905-3.143 1.143-12.476 10.286-12.476 12.19 0 1.524 3.047 4 5.619 4.667 1.714.381 3.142-.095 4.857-1.714 1.333-1.238 2.476-2.857 2.476-3.524 0-.666 1.905-2.38 4.286-3.714l4.19-2.571 2.857 2.952c5.905 6 25.524 8.857 36.857 5.428 8.953-2.666 16.476-9.047 18.667-15.714.667-1.81 1.238-5.524 1.429-8.285.19-4.762.095-5.048-2.286-5.048-2.095 0-2.476.476-2.286 2.476.19 2.952-1.524 8-2.762 8-.38 0-2-1.428-3.524-3.238-1.428-1.714-6.571-7.238-11.333-12.19l-8.571-8.953-.096-5.714c0-3.143-.571-6.381-1.333-7.238-1.81-2.19-4.762-2-6.095.285zm1.047 29.523c0 8.096-.476 14.667-1.047 15.048-1.524.952-13.81-.667-15.714-2-1.524-1.143-1.429-1.524 1.238-4.762 1.619-1.905 3.714-3.714 4.762-4 2.095-.667 3.333-3.524 2-4.857-1.62-1.524-3.905 0-8.858 6-2.571 3.047-4.476 4.857-4.285 4 .38-1.905 19.81-23.905 21.047-23.905.477 0 .857 6.572.857 14.476zm17.048-1.143c5.429 5.62 9.905 10.477 9.905 10.858 0 1.333-8.286 3.904-14.857 4.476l-6.857.666.095-13.142c0-7.239.476-13.143.952-13.143.572 0 5.429 4.571 10.762 10.285zm-18.095 26.286c0 .286-.667.381-1.524.381-.762 0-1.429-.38-1.429-.952 0-.477.667-.667 1.43-.381.856.38 1.523.762 1.523.952zM180.201 1071.836c-1.714.762-4.38 2.857-5.905 4.762-1.619 1.81-3.333 3.238-3.81 3.047-.952-.286-3.713 2.667-3.713 4-.096 1.334 8.952 4.953 14.285 5.81 6.095.952 13.524-.953 18.381-4.667 3.238-2.38 4.476-4.952 2-4.095-.666.286-2.762-1.429-4.666-3.714-5.143-6.19-10.477-7.81-16.572-5.143zm1.524 6.095c-1.524 1.81-.571 6.095 1.524 6.857 2.38.952 6.476-1.048 6.476-3.143 0-1.047-.857-2.666-2-3.714-2.476-2.19-1.905-3.048.952-1.524 2.286 1.238 2.857 6.857.857 8.857-1.81 1.715-8.285 1.524-9.904-.38-2.286-2.763-2.19-6.096.285-7.81 2.572-1.81 3.62-1.334 1.81.857zM54.582 1071.93c-.19.191-5.619.953-11.905 1.62-6.285.667-13.523 1.905-15.904 2.857-2.476.952-6.19 2.095-8.19 2.476-2 .286-4.286 1.334-5.048 2.286-1.143 1.429-1.048 1.524 1.714.857 1.619-.38 6.19-1.047 10.19-1.524 4-.476 8.572-1.143 10.286-1.523 1.714-.381 3.048-.286 3.048.285 0 1.334-5.143 2.19-13.143 2.19-3.714 0-7.048.382-7.333.858-.762 1.333 6 3.81 12.476 4.667 4.666.571 6.095.285 9.333-1.524 2-1.238 4-1.905 4.381-1.524.762.667 0 1.238-8.286 5.524-3.524 1.81-5.524 3.619-6.762 6.38-1.81 3.715-1.81 3.905.477 10.382 1.238 3.523 3.428 7.714 4.857 9.238 3.238 3.619 7.047 10.571 6.285 11.333-.38.381-2 .667-3.619.667-1.81 0-2.762.476-2.476 1.238.476 1.524 15.62 1.81 16 .285.19-.57-.857-1.142-2.19-1.333-3.334-.476-4.762-1.905-3.334-3.333 1.143-1.048 7.238.38 10.096 2.571 2.095 1.524 16.571 3.524 17.619 2.476 1.81-1.714-3.048-5.238-8.096-5.81-4-.475-4.666-.951-5.047-3.047-.857-5.904-7.905-15.047-15.048-19.619-2.857-1.904-5.238-4-5.238-4.762 0-1.523 6-6.571 10.667-9.047 1.81-.857 4.666-1.62 6.476-1.62 1.81 0 5.238-1.047 7.81-2.19 2.476-1.238 6.476-2.285 8.761-2.285 2.381 0 4.19-.477 4.19-1.048-.094-.572-3.237-2.667-6.952-4.762-5.047-2.667-8.095-3.714-11.238-3.714-2.38 0-4.571.19-4.857.476zm-4.857 4c0 .191-.476.668-.952 1.049-.572.285-1.048.095-1.048-.477 0-.571.476-1.047 1.048-1.047.476 0 .952.19.952.476zm-4.667 2c-.285.858-1.523 1.525-2.666 1.525-2.095-.096-2-.19.38-1.524 3.048-1.81 3.048-1.81 2.286 0zm7.048 3.049c.286.761.095 1.428-.38 1.428-.572 0-.953-.667-.953-1.428 0-.858.095-1.524.38-1.524.191 0 .572.666.953 1.524zm-10.857 35.047c1.905 1.429 3.905 2.286 4.476 2 .571-.38 1.048-.19 1.048.381 0 1.81-2.381 1.143-7.048-2-2.476-1.619-3.905-2.952-3.143-2.952.667 0 2.762 1.143 4.667 2.571zM487.248 1082.883c-3.904 1.715-8.476 6.381-8.476 8.572 0 2.19 5.143 6.762 8.572 7.619 4.285 1.047 8.952-.476 12.19-4.095 3.905-4.286 3.905-5.429.476-8.762-5.333-4.858-7.81-5.524-12.762-3.334zm8.667 5.048c1.62 3.714-1.143 7.524-5.524 7.524-3.714 0-5.619-1.524-5.619-4.381 0-5.429 8.953-8 11.143-3.143z"/>
	<path d="M487.915 1087.645c-2 2-1.333 4.762 1.238 6 3.048 1.334 5.62-.286 5.62-3.714 0-3.238-4.382-4.667-6.858-2.286zM170.201 1092.121c.953 4.572 1.048 4.667 1.333 1.429.381-3.62-.285-6.095-1.619-6.095-.476 0-.38 2.095.286 4.666zM147.534 1091.55c-.285.762-3.523 1.333-9.333 1.524-6.762.285-9.524.762-11.428 2.19-3.524 2.667-3.81 7.143-.667 10 2.095 2 3.429 2.286 10.19 2.381 6.762 0 8 .286 10.096 2.381 3.142 3.143 3.142 7.81-.19 10.572-3.81 3.333-9.239 4.857-17.81 4.857-8.381 0-11.62 1.047-11.62 3.714 0 1.143.286 1.333.953.667.571-.477 3.81-.667 7.714-.381 12.286 1.047 20.476-1.715 25.238-8.572 1.81-2.666 2-4 1.429-8.38-.857-6.858-3.143-8.382-14.095-9.144-9.715-.571-11.81-1.904-8.572-5.142 3.238-3.143 11.143-2.858 16 .571 3.429 2.381 6.953 2.667 5.62.286-.477-.667-.096-.572.856.19 1.334 1.048 1.715.953 2.19-.38.572-1.525-1.713-4.286-3.523-4.382-.38 0-.571-.762-.476-1.714.19-1.905-2-2.952-2.572-1.238zM177.63 1093.074c-3.238 1.333-6.096 4.952-6.381 7.81-.095 1.618 4.857 6.38 7.81 7.523 1.523.572 4.38 1.048 6.285 1.048 4.38 0 9.048 2.38 9.905 4.952 1.047 3.333-2.096 7.81-6.476 9.143-3.429 1.048-4.572.952-8.953-.952-6.19-2.667-11.714-2.953-15.619-.858-6.762 3.715-9.524 4.667-12.38 4.286-3.144-.286-4.096.667-1.81 2.095 1.904 1.143 11.714.953 11.714-.19 0-.667 1.619-1.905 3.524-2.762 3.333-1.62 3.81-1.62 11.143.762 9.238 3.047 14.19 3.238 17.428.571 7.62-6.285 8.572-9.333 4.572-15.143-2.667-4.095-6.477-6.095-12.572-6.571-8.952-.857-10.952-2.095-9.428-5.905 1.81-4.666 11.047-5.333 17.904-1.238 1.81 1.048 4.096 1.81 5.143 1.714.953-.095 2.572.096 3.62.572.952.38 2 .571 2.285.19.762-.762-3.524-6.38-5.524-7.238-3.333-1.428-18.571-1.238-22.19.19zM310.772 1093.55c-1.333.571-3.714.667-5.238.38-4-.856-9.333 1.144-12.285 4.668-3.143 3.714-3.143 4.095-.19 7.523 2.094 2.381 3.428 2.858 9.523 3.429 8.095.667 11.143 2.571 11.143 7.048 0 1.81-1.143 3.81-3.238 5.81-2.953 2.856-3.715 3.047-7.715 2.57-13.142-1.714-15.142-1.714-20.095.096-4.857 1.714-7.143 4.19-2.666 2.952 10.19-2.857 11.428-2.952 17.523-.762 8.857 3.238 11.334 2.953 16.667-2.095 3.714-3.524 4.571-5.048 4.571-7.81 0-5.714-6.666-10.952-13.904-10.952-5.143 0-9.143-1.714-9.143-4 0-2.762 4.762-6 8.857-5.905 4.19 0 5.429.572 7.048 3.715 1.619 3.047 3.333 2.857 2.476-.286-.667-2.762-.19-2.952 2.762-1.429 3.714 2 4.285-.476.857-3.428-3.524-2.857-3.524-2.857-6.953-1.524zM63.44 1098.121c-.858.762.095 2.286 1.333 2.286.571 0 .952-.667.952-1.428 0-1.524-1.143-2-2.286-.858zM475.63 1100.217c-1.239 1.619-1.239 1.619.38.38 1.048-.857 2.857-1.142 4.953-.761 2.285.476 2.857.285 1.81-.381-2.382-1.524-5.62-1.143-7.144.762z"/>
	<path d="M205.725 1101.455c-.857.571-1.048.952-.286.952.572 0 1.81.286 2.572.572.762.38 1.714-.096 2.095-.953.667-1.81-2-2.095-4.381-.571zM316.868 1101.36c.476 1.333 1.81 1.523 1.904.38.096-.38-.476-.952-1.142-1.142-.572-.19-.953.19-.762.761zM551.915 1103.93c0 1.715.286 2.191.476 1.239.286-.952.286-2.286 0-2.952-.285-.667-.476.095-.476 1.714zM200.773 1103.455c0 .476.666.666 1.428.38.857-.38 1.524-.761 1.524-.952 0-.285-.667-.476-1.524-.476-.762 0-1.428.476-1.428 1.048zM534.296 1108.407c-1.048 1.62 1.143 2.095 2.476.572.953-1.239.953-1.524-.38-1.524-.858 0-1.81.38-2.096.952zM132.582 1109.169c.667.286 1.524.19 1.905-.095.286-.381-.286-.572-1.333-.572-1.143.096-1.429.286-.572.667zM486.772 1111.836c0 .19.667.666 1.524 1.047.857.286 1.238.096.952-.476-.571-.952-2.476-1.333-2.476-.571zM154.773 1117.36c0 .57.38 1.238.952 1.618.571.286.762-.095.38-.952-.666-1.714-1.332-2.095-1.332-.667zM583.248 1125.455c-.38.666-1.333.857-2.095.571-1.048-.38-1.428.381-1.428 2.952 0 1.905.476 3.43 1.047 3.43.476 0 .953-.668.953-1.62 0-1.333.666-1.048 3.047 1.143 1.62 1.619 2.953 2.476 2.953 1.905 0-.572-1.143-2.096-2.477-3.334-1.904-1.81-2.285-2.666-1.333-3.714.571-.762.857-1.619.571-1.905-.285-.285-.857-.095-1.238.572zM570.391 1126.978c-1.047 2.572-.762 6.477.381 6.477.476 0 .953-.667.953-1.524 0-2.19 1.619-1.81 3.428.667.857 1.238 1.81 1.904 2.19 1.523.382-.38 0-1.428-.857-2.38-.857-.953-1.714-2.667-1.904-3.81-.477-2.476-3.429-3.143-4.19-.953zM540.2 1132.883c-1.142.857-1.428 1.524-.856 1.524.666 0 1.714-.667 2.38-1.429 1.62-1.904.953-1.904-1.523-.095zM156.773 1135.93c0 .858.38 1.525.952 1.525.476 0 .667-.667.38-1.524-.38-.762-.761-1.524-.951-1.524-.286 0-.381.762-.381 1.524zM118.773 1136.502c0 .572.38.762.952.476.571-.38 1.048-.857 1.048-1.047 0-.286-.477-.476-1.048-.476-.571 0-.952.476-.952 1.047zM140.201 1138.407c-.286.571-.095 1.048.476 1.048.572 0 1.048-.477 1.048-1.048 0-.476-.19-.952-.476-.952-.19 0-.667.476-1.048.952z"/>
</svg>
