<?xml version="1.0" encoding="utf-8"?>
<svg xmlns="http://www.w3.org/2000/svg" height="102.877496" preserveAspectRatio="xMidYMid meet" version="1.0" viewBox="0 0 119.723610 102.877496" width="119.723610">
	<title>A drawing of a shark tooth.</title>
	<g fill="#000000" stroke="none" transform="translate(-14.276390,113.020098) rotate(-360.00) scale(0.095238,-0.095238)">
		<path d="M1229 1127 c-66 -32 -146 -76 -178 -98 -175 -118 -371 -210 -448 -210 -31 0 -40 -6 -64 -45 -99 -153 -238 -304 -313 -337 -56 -25 -94 -59 -67 -59 8 0 48 19 89 42 82 45 215 176 289 285 41 60 71 82 115 83 58 0 450 184 566 265 27 19 53 24 52 10 0 -4 -50 -60 -111 -123 -78 -82 -134 -154 -191 -244 -49 -78 -87 -127 -96 -126 -12 2 -19 -20 -29 -87 -21 -146 -19 -250 5 -305 28 -63 56 -75 176 -71 77 3 95 6 97 20 3 14 -10 19 -68 25 -75 7 -138 23 -155 38 -5 5 -11 61 -12 125 l-3 115 44 87 c60 119 176 282 246 348 32 29 77 80 101 111 69 94 133 189 133 200 0 24 -66 6 -178 -49z"/>
	</g>
</svg>
