<?xml version="1.0" encoding="utf-8"?>
<svg xmlns="http://www.w3.org/2000/svg" version="1" viewBox="0 0 231.587 149.731">
	<title>
    A drawing of a carp tail and round egg.
  </title>
	<path d="M22.19 1.886c-3.428.952-7.047 2.476-8 3.428-1.047.858-2.285 1.62-2.857 1.62-2.095 0-6.38 5.618-5.81 7.618.477 1.334.382 1.524-.285.572C3.905 13.219 0 15.695 0 18.267c0 1.524.286 1.619 1.333.762 1.143-.858 1.524.095 2 5.619.857 10.476 5.62 21.904 10.19 24.952 3.525 2.286 4.382.857 1.239-2-8.19-7.619-10.381-27.048-3.81-34.571.953-1.143 2.19-2.096 2.762-2.096.572 0 2.19-.952 3.715-2.095 2.857-2.286 11.333-4.857 15.809-4.857 1.714 0 3.143.667 3.905 2.095.571 1.238 2 3.143 3.143 4.286 4.952 5.238 7.333 14.857 8.285 34.095.477 11.048 1.143 14.476 4 23.143C54.761 74.267 56 79.79 56 83.314c0 2.953.286 6.19.571 7.048 1.238 3.238 2.477 1.428 2.477-3.714 0-3.62.285-4.762.952-3.715.476.857.667 4.096.286 7.238-.381 4-.19 5.715.571 5.715.667 0 1.143-1.143 1.238-2.667 0-1.524.476-3.714.953-4.762.666-1.524.952-.476 1.047 4 .381 15.143.476 17.048 1.143 18.095.381.572.286 3.715-.19 6.953-1.429 8.762-.858 31.619.666 32.19.857.286 1.334-.571 1.334-2.476 0-1.62.38-3.333.952-3.905 1.238-1.238 3.238-10.762 3.143-15.143-.095-1.81.285-4.285.857-5.523l.857-2.19.19 2.475c.096 1.334.762-2.476 1.524-8.476 2-17.238 4.572-27.714 7.62-31.333C86.475 77.98 90.57 70.17 96 56.457c13.524-33.905 13.905-34.666 19.905-42.19 5.333-6.667 12.571-11.524 16.571-11.143l3.048.286-.096 6.476c-.095 5.619-.857 8.19-5.428 18.285-2.953 6.477-5.048 12-4.762 12.381 1.429 1.429 8.667-6.095 10.667-10.952 4-10.095 5.333-17.429 3.904-21.524-2-6-3.523-7.143-9.333-7.143-5.048 0-5.524.19-12.19 6.477-7.81 7.238-12.762 15.619-18.096 30.476-8.666 24.285-17.333 42-20.38 42-1.048 0-2.382 1.428-3.239 3.428-1.619 4-3.238 5.143-4.857 3.81-.762-.572-3.619-5.714-6.476-11.429-4.952-9.905-6-13.333-10.286-34.285C50.095 17.79 47.714 11.6 40 3.22 37.524.456 36.38-.02 32.762-.02 30.38.076 25.714.838 22.19 1.886zM56 60.648c.667 3.238 1.714 7.142 2.476 8.762 1.905 4.571 2.762 9.238 1.714 9.904-1.523.953-7.142-16.19-7.142-22.095-.096-4.38 1.81-2.19 2.952 3.429zm18.857 31.047c-.476 2.095-2.19 2-2.667-.19-.19-.953.381-1.62 1.334-1.62 1.047 0 1.524.667 1.333 1.81zm-3.905 4.19c0 1.334-.095 1.334-.952 0-.572-.761-.952-2.38-.952-3.428l.095-2 .857 2c.476 1.048.857 2.667.952 3.429zM172 8.267c-8.381 6.666-21.048 20.285-26.286 28.38-7.047 10.572-10.286 19.048-16.476 42.286-2.19 8.477-2.762 12.667-2.762 21.524 0 10.572.19 11.238 3.524 17.905 3.333 6.571 16.095 21.524 18.38 21.524.572 0-.285-1.334-1.904-2.953-1.524-1.619-2.38-2.952-1.714-3.047.571 0 5.524 2.095 10.952 4.476 6.667 3.143 9.714 4.952 9.524 6-.286 1.238 1.333 1.524 9.428 1.524 5.429 0 11.429-.477 13.334-1.048 5.333-1.619 14-6 14-7.143 0-.571.666-.666 1.619-.38 2.095.856 12.38-4 14.38-6.667 4.477-6.286 5.334-10.667 5.525-27.715.19-16.952.857-21.047 4.857-30.857 3.047-7.238 3.904-15.714 2.666-25.143-1.904-14.095-4.38-18.38-13.333-23.047-2.286-1.238-6.19-4.381-8.667-7.143-2.476-2.762-6.285-6-8.476-7.333-3.714-2.096-16.762-5.524-21.238-5.429-1.047 0-4.286 1.905-7.333 4.286zm23.143 1.714c4.952 2.476 9.619 5.905 8.19 5.905-1.333 0-10.38-3.238-17.81-6.381l-6-2.476 5.62.38c3.143.191 7.619 1.43 10 2.572zm-9.334 1.81c4.19 2.095 10.953 5.047 14.857 6.571 6.858 2.571 9.429 4.952 7.905 7.429-.286.571 1.238 4.571 3.429 8.952 2.19 4.38 4 8.762 4 9.714 0 1.048.762 2.667 1.714 3.714 1.524 1.715 1.81 3.905 1.714 15.143-.19 23.905-2.285 35.429-8.666 48.19-1.334 2.667-3.238 7.334-4.286 10.382-2.19 6.762-8.381 13.143-16.095 16.571-4.572 2-7.238 2.476-14.381 2.476-8.667 0-8.953-.095-21.143-5.904-6.762-3.143-13.524-6.953-15.048-8.286-3.523-3.429-7.142-9.429-8.571-14.381-2.952-10.095-.571-27.714 5.238-38.476 2-3.524 8.095-15.524 13.524-26.667 6.19-12.476 11.81-22.38 14.762-26 2.571-3.143 6-7.428 7.524-9.524 1.523-2.095 3.523-3.81 4.285-3.81.857 0 4.953 1.81 9.238 3.906zm-28.285 14.761c-3.905 5.905-8.572 14.572-14.572 26.667-3.428 6.952-6.476 12.476-6.666 12.286-.858-.762 3.142-12.381 6.476-19.048 3.238-6.38 14.571-22.571 15.904-22.571.286 0-.19 1.238-1.142 2.666zm65.142 4.572c5.429 5.714 7.239 26.762 3.239 38.857a297.104 297.104 0 0 0-2.381 7.714c-.096.762-.572 1.238-1.048 1.143-.571 0-.762-.667-.571-1.238 1.238-3.524 1.142-20.762-.19-26.667-1.525-6.571-5.715-20.952-7.239-24.38-.762-1.905-.762-1.905 2.38 0 1.81 1.047 4.382 3.047 5.81 4.57zm-2.095 75.238c.572 3.81.19 5.143-2.19 9.143-3.81 6.095-8.096 11.047-8.857 10.285-.286-.285.38-3.047 1.523-6 1.238-2.952 2.762-6.952 3.429-8.857.762-1.904 1.81-4.762 2.38-6.285 1.62-4 2.953-3.334 3.715 1.714zm-2.952 18.952c-3.143 6.381-5.238 8.381-9.62 9.238l-3.428.762 2.476-3.047c1.334-1.715 2.762-2.858 3.143-2.667.381.19 1.524-.857 2.381-2.381 5.334-8.571 6.953-10.571 7.238-8.857.19.952-.762 4.095-2.19 6.952z"/>
	<path d="M150.952 141.695c.095.762 7.238 3.238 9.238 3.238 2.096-.095 2.096-.19-.666-1.714-2.572-1.333-8.572-2.381-8.572-1.524z"/>
</svg>
