<?xml version="1.0" encoding="utf-8"?>
<svg xmlns="http://www.w3.org/2000/svg" version="1" viewBox="0 0 162 137">
	<title>
    A drawing of a carp mouth.
  </title>
	<path d="M5.26 1.159C3.26 7.921-.17 35.064.307 40.016c.476 4.095.286 19.714-.19 27.81-.667 8.762 2.666 51.619 4.571 59.714 2 8.667 7.429 11.714 15.715 8.667 6.857-2.477 24.476-22.286 30.476-34.19 3.333-6.668 13.904-20.763 17.428-23.239 3.238-2.381 9.429-4.19 13.905-4.19 5.333-.096 11.524 8 14.762 19.047.857 3.048 2.571 6.381 3.714 7.524 1.143 1.048 2.762 3.048 3.524 4.571.762 1.429 3.905 5.048 7.143 8.096 19.333 18.38 21.714 19.238 28.666 9.714 2.381-3.333 4.762-7.429 5.143-9.238.381-1.81 2.572-8 4.953-13.905 2.38-5.81 4.666-12.286 4.952-14.476.381-2.095 1.238-5.429 1.81-7.429 1.81-5.524 1.81-5.904 3.238-16.952 2.666-21.333 3.523-47.333 1.523-49.333-.38-.477-1.047 6.095-1.428 14.476-1.143 28.19-3.429 46.095-7.238 57.714-1.334 4.095-2.381 7.905-2.381 8.476 0 .667-.762 2.476-1.62 4.19-3.713 6.763-6.38 12.572-6.38 13.81 0 1.905-7.714 12.476-9.905 13.62-2 1.047-8.095-.382-8.095-1.906 0-.38-.857-1.142-1.905-1.619-2.286-1.047-13.619-13.523-19.238-21.142-2.286-3.143-3.905-6.286-3.905-8 0-1.524-1.524-5.334-3.333-8.381-1.905-3.143-3.714-6.477-4-7.524-.476-1.429-2.286-2.381-6.381-3.238-10.19-2.286-18.286.571-24.952 8.571-6.19 7.524-11.143 15.143-12.19 18.857-1.048 3.81-3.144 6.953-10.763 16.667-11.523 14.476-22.571 20.667-27.904 15.714-2.19-2.095-3.334-5.238-4-10.952-2-17.238-2.572-26.857-2.572-45.524.095-12.095.572-25.333 1.143-29.524C6.498 33.54 6.879 26.207 5.641 26.97c-.572.38-1.048 2.38-1.143 4.38-.095 2-.476 4.858-.953 6.19-1.428 4.096-.095-17.809 1.429-23.713.762-2.857 1.143-5.429.857-5.715-.286-.285 0-1.904.667-3.714.666-1.905.762-3.619.19-4.19C6.117-.27 5.545.11 5.26 1.159z"/>
	<path d="M121.164 26.111c-.857 2.381-.666 8.953.286 11.62.571 1.238 2 3.333 3.238 4.666 1.81 2 2.857 2.286 6.19 1.81 5.715-.762 8.858-4.096 8.477-9.048-.286-3.714-2.762-6.571-2.762-3.238 0 .952-.762 1.619-1.62 1.619-.856 0-3.142 1.333-5.047 2.952-1.905 1.715-3.81 3.048-4.285 3.048-2.667 0-4-5.81-2.667-11.714.762-3.334-.667-4.667-1.81-1.715z"/>
</svg>
