<?xml version="1.0" encoding="utf-8"?>
<svg xmlns="http://www.w3.org/2000/svg" version="1" viewBox="0 0 192 157">
	<title>
    A drawing of a simplified carp tail.
  </title>
	<path d="M28.048.849c-.858.476-4.381 1.143-7.81 1.524-5.143.571-7.048 1.428-10.952 4.476C2.333 12.373.048 15.992.048 21.039c0 3.429.571 4.953 3.047 7.429 1.714 1.714 3.62 4.952 4.381 7.048 1.62 4.857 3.143 5.333 4 1.428.667-3.143-.286-5.238-3.619-7.714C7 28.563 5.667 26.658 5 24.944c-1.048-2.571-.952-3.428.667-5.905 2.476-3.81 9.047-9.428 10.19-8.666.572.285 3.524-.096 6.572-.953 5.809-1.524 7.333-1.143 14.57 3.048 1.334.857 4.382 2.38 6.763 3.524 2.286 1.143 6.095 3.81 8.476 5.81 2.381 2.094 5.81 4.57 7.81 5.618 1.904.953 8 6.476 13.619 12.286 9.714 10.19 10.19 10.762 11.81 17.619 2.475 9.905 3.428 51.143 1.428 60.571-.572 2.477-1.334 7.905-1.905 12-.476 4.096-2.095 11.238-3.62 15.905-1.904 6.095-2.38 8.857-1.713 10 2.095 3.238 3.81 1.714 4.571-3.905.857-6.666 4.286-17.619 5.048-16.38.285.57-.096 3.809-.858 7.428-1.81 8.38-1.714 10.571.096 11.333 2.476.953 3.619-3.714 4.095-15.714.38-10.095 1.333-14.667 3.238-14.667.381 0 .476-1.81.286-4.095-.286-2.857.19-4.571 1.428-6 1.81-2 1.905-2.952 1.334-13.428-.096-1.62.19-6.381.571-10.477.857-8.857.857-11.714.286-27.238l-.572-11.714 3.715-.667c6.666-1.238 10.095-4 14.476-11.619 4.762-8.38 6.286-9.333 15.81-10 8.761-.666 13.809-2 13.809-3.714 0-1.143-7.905-.571-15.429 1.048-2.19.38-4.19.571-4.38.38-.667-.57 3.428-6.761 6.095-9.333C136.143 14.468 149 9.23 157 7.42c3.619-.762 5.619-1.714 5.81-2.857.476-2.476-8-1.143-21.62 3.238-10.857 3.62-11.428 3.905-14.762 8.572-4.38 6.285-9.238 11.523-10.476 11.523-.476 0-.952.762-.952 1.62 0 .857-1.62 3.428-3.524 5.619-1.905 2.285-3.429 4.952-3.429 5.904 0 1.905-3.619 4.857-5.904 4.857-.857 0-1.143-.571-.667-1.714 2.952-6.857.095-8.952-2.857-2.19-2.095 4.666-3.333 5.333-8.19 4.476-2.572-.476-4.096-1.524-5.239-3.62-1.047-1.809-2.476-2.952-3.904-2.952-1.429 0-5.143-3.238-11.429-10C57.857 16.944 45.952 6.944 39 3.992 35.952 2.754 32.714 1.23 31.762.754c-2.095-1.048-1.905-1.048-3.714.095zM33 6.468c0 .286-.667.38-1.524.38-.762 0-1.428-.38-1.428-.952 0-.476.666-.666 1.428-.38.857.38 1.524.761 1.524.952zm8.571 2.476c4.858 2.476 17.143 12 17.905 13.81.667 1.81-4.095-1.238-7.143-4.477-1.143-1.238-5.81-4.095-10.19-6.285-4.476-2.286-8.095-4.381-8.095-4.572 0-1.143 3.81-.38 7.523 1.524zm50.762 46.667c-.38 2.666-.762 4.952-.952 5.238-.857.952-2.19-1.714-2.762-5.714-.571-4-.476-4.286 1.81-4.286 2.476 0 2.476.19 1.904 4.762zm2.857 28.38c-.762 2-1.142 1.334-2.095-4.666-.857-5.048-.857-7.81-.19-9.81.666-1.523 1.143-4 1.143-5.619 0-1.523.285-3.619.666-4.666 1.143-2.667 1.524 21.81.476 24.762zm-1.81 10.572c.763 5.62-.094 13.333-1.428 13.333-.476 0-.762-3.714-.762-8.285 0-4.477-.095-8.667-.19-9.238-.095-.572-.19-1.62-.095-2.477.285-2.857 1.81 1.143 2.476 6.667zM169.571 1.801c-.762 1.238 3.334 3.048 6.667 3.048 2.952 0 11.81 9.333 11.81 12.476 0 6.476-4.286 9.524-13.334 9.524-3.81.095-4.952 1.333-2.095 2.476.857.286 3.524.571 6 .571 4.476 0 4.571 0 3.905 2.953-.858 4 1.142 4 4.952.095 3.81-4 5.714-13.143 3.714-18.095-1.428-3.524-7.238-9.81-10.762-11.714-3.142-1.62-10.19-2.477-10.857-1.334zM146.047 136.754c0 .57.667 1.238 1.62 1.523 1.333.572 1.428.381.38-.857-1.428-1.714-2-1.905-2-.666z"/>
</svg>
