<?xml version="1.0" encoding="utf-8"?>
<svg xmlns="http://www.w3.org/2000/svg" version="1" viewBox="0 0 183.94 142.524">
	<title>
    A drawing of a family group.
  </title>
	<path d="M82.81 4.425c-2 4.19-2 4.571-.477 7.905.953 1.905 1.714 4.38 1.714 5.524 0 1.142.381 2.285.953 2.666.571.286 1.047 1.238 1.047 1.905 0 2.476-5.238 3.333-15.523 2.476-24.953-1.905-26.572-2.19-27.81-3.905-.666-.952-2.19-2-3.428-2.38-1.905-.667-2.286-.286-2.858 2.095-.285 1.524-.857 3.428-1.142 4.285-.286.858-.667 2.19-.762 2.953-.381 2.857-3.715 12-4.572 12.571-.476.286-1.238-1.047-1.81-2.952-.57-1.905-2.285-5.429-4-7.81-1.618-2.285-3.523-6.19-4.19-8.476-.666-2.38-2-4.857-2.857-5.619-2.38-2.19-7.238-2.857-10-1.428-3.619 1.904-3.714 3.619-.286 4.857 4.096 1.428 6.477 5.238 5.715 8.952-1.238 5.429-6.572 2.857-8-3.81-.762-3.523-2.19-4.952-3.62-3.523-1.618 1.524 1.239 8.666 4.763 12 3.142 3.047 3.523 3.81 3.81 10 .19 3.714.856 9.714 1.428 13.238.571 3.619 1.047 10.571 1.047 15.619 0 6.952.477 9.905 2 12.857 2 3.905 2 3.905-.095 14.476-1.143 5.81-2.857 11.905-3.905 13.62-1.143 1.809-1.523 3.523-1.047 4.475.476.857 1.047 3.715 1.333 6.286.571 5.429-.571 6.667-4.19 4.762-2.858-1.524-6-.381-6 2.095-.096 3.143 1.619 5.524 4.761 6.762 2.477 1.048 3.429.952 6.762-1.048C15.476 133.568 23 126.33 23 124.806c0-1.905 2.667-.572 4.19 2.19 1.524 2.667 1.524 3.334.286 5.715-2.095 4-1.905 4.285 3.048 4.285 6 0 6.476-1.619 2.19-7.714-6.857-9.81-6.952-10.19-7.333-29.048-.286-15.238-.095-17.619 1.619-21.428 1.048-2.381 2-5.81 2-7.62 0-1.809.667-4.856 1.524-6.856.952-2.381 1.143-4.096.476-5.238-1.714-3.238.095-13.238 3.714-20.667l3.429-7.143 8.476-1.143c4.667-.666 8.857-.952 9.333-.666.476.285 7.429.571 15.429.666 10 .096 14.571.476 14.571 1.238 0 .572-.666 3.334-1.524 6.096-2 6.38-1.904 22.666.096 32.095 1.619 7.905 1.904 15.238.476 17.428-.667 1.048-1.048.381-1.62-2.762-.38-2.38-1.142-4.19-1.713-4-.667.286-.953 4.286-.762 11.334.19 6 .38 18 .571 26.762l.381 15.81-2.476.856c-1.81.762-2.381 1.715-2.381 4 0 4.381 2.19 4.667 7.619.857 3.143-2.285 4.857-2.952 5.143-2.095.19.667 1.047 1.238 1.81 1.238 1.142 0 1.428-2.095 1.618-9.714.096-5.429.19-12.667.286-16.286.095-3.619.286-14.285.381-23.81.19-11.523.762-18.952 1.714-22 3.715-12.094 5.238-31.332 2.857-36.951-1.81-4.477-3.333-4.096-2.952.761.19 3.715.095 3.905-2.095 3.334-2.095-.476-2.381-.19-2.476 2.285 0 1.62-.858 6-1.905 9.905-1.714 6.381-1.905 6.572-1.905 2.953-.095-9.048 5.62-25.524 8.857-25.524.476 0 1.429.952 2.19 2.19 1.239 1.715 3.048 2.286 11.144 3.048 8.19.857 10.761.762 15.619-.572 6.571-1.904 10.666-2.095 11.619-.571.38.571 1.047 3.62 1.428 6.762.476 3.143 2.667 9.524 4.953 14.476l4.19 8.762-3.048 5.333c-5.047 8.857-6.19 15.524-6 34.572 0 2 .858 6.666 1.905 10.571 1.048 3.81 2.095 9.238 2.19 11.905.382 4.762.286 4.952-2.761 5.714-7.048 1.905-7.048 6.857 0 6.857 8.19 0 9.047-4.666 4-24.095-2.953-11.81-1.524-14.857 6.476-12.952 5.048 1.238 8.476.476 10.38-2.381 1.239-1.81.858-22.19-.475-25.238-1.048-2.572-1.238-1.62-1.715 8.19-.285 6-.857 11.524-1.333 12.19-.571.858-2.952 1.143-7.524.858l-6.666-.381.19-5.524c.095-4.19 1.238-7.81 4.381-14.571 2.286-5.048 4.571-9.143 5.048-9.143.571 0 2.19.952 3.81 2.19 3.713 2.762 6.285 2.095 7.428-1.905.666-2.285 1.428-3.142 2.38-2.761.763.285 2.286.476 3.334.476 1.143 0 2.095.952 2.476 2.571.381 1.429 1.62 3.048 2.667 3.62 1.81.952 2 .856 1.333-.763-.38-1.047-.952-3.428-1.143-5.428l-.476-3.429 2.095 4.476c2.667 5.715 2.572 5.62 4.953 3.524 2-1.81 2-1.81-.476-6.286-1.429-2.476-2.477-4.666-2.477-4.857 0-.19 1.334-.095 3.048.286 2.762.571 3.048.381 2.762-1.714-.286-2-1.048-2.381-4.19-2.572-2.096-.19-5.524-1.238-7.524-2.476-5.524-3.333-11.429-3.047-18.572 1.048l-5.905 3.333-2.19-2.571c-2.571-2.953-4.476-12.857-2.571-13.524 1.619-.476 1.333-2.286-.572-4.381-1.905-2.095-2-2 3.048-3.905 8.666-3.143 3.619-6.095-6-3.428-3.715 1.047-12 1.81-22.381 2.19-15.905.572-16.572.476-18.381-1.524-1.714-1.904-1.81-2.285-.286-6C101.571 8.044 96.523.044 88.238.044c-2.857 0-3.524.476-5.429 4.381zm10 .762c1.428 1.524 1.523 6.286.19 8.857-1.524 2.762-2.857 2.476-2.286-.476.381-1.714-.095-2.857-1.619-3.714-3.524-2.286-2.667-4.762 2-5.715.286-.095 1.048.381 1.714 1.048zm-78.762 13.81c0 .57-.286.952-.477.952-.285 0-.762-.381-1.047-.953-.381-.571-.19-1.047.38-1.047.572 0 1.144.476 1.144 1.047zm5.428 23.428c3.905 2.19 5.524 4.857 4.857 8.38-.476 2.668-.285 3.144 1.048 2.572 2.095-.762 2.095.857 0 11.238-1.62 8-4.857 15.62-6.857 15.81-.572 0-1.334-4.952-1.81-11.905-.38-6.571-1.428-14.19-2.38-16.857-1.048-3.333-1.43-6.762-1.048-10.762.666-7.905 1.81-9.333 3.143-3.905.57 2.381 1.904 4.762 3.047 5.429zm150.286 4.38c1.714 1.144.476 4.191-1.62 4.191-.856-.095-2.476-1.142-3.428-2.571-1.81-2.381-1.81-2.381.952-2.381 1.62 0 3.429.381 4.096.762zm-7.905 7.525c1.81 2.095-1.905 4.952-5.333 4.095l-2.667-.667 2.286-2.38c2.476-2.667 4.095-2.953 5.714-1.048zm-140 39.904c-1.048 7.905-.952 21.62.19 23.81.858 1.619.572 2.476-1.618 4.476-2.762 2.476-5.81 3.238-6.858 1.62-.285-.572.096-2.858.858-5.239.857-2.476 2-7.81 2.57-11.905 1.144-8.095 3.906-18 4.953-18 .381 0 .381 2.381-.095 5.238zm65.048 38.477c-1.429 2.666-2.858 3.047-2.381.571.19-.952.952-7.143 1.619-13.81l1.333-12 .286 11.524c.19 7.524-.095 12.286-.857 13.715z"/>
	<path d="M176.333 38.901c-6.095 1.905-7.333 2.857-5.333 4.095 3.714 2.381 12-.095 12-3.523 0-2.19-1.143-2.286-6.667-.572zM150.428 104.234c.286 1.239 1.238 6 2.096 10.572.762 4.571 1.904 9.143 2.476 10.19.571 1.048 1.047 3.429 1.047 5.238 0 1.905.572 4.19 1.239 5.238 1.142 1.43 1.714 1.62 3.523.572 2.667-1.429 2.762-4.286.286-7.81-1.048-1.523-2.952-6.761-4.095-11.714-1.238-4.952-2.667-10.286-3.238-11.81-1.238-3.333-4.286-3.809-3.334-.476z"/>
</svg>
