<?xml version="1.0" encoding="utf-8"?>
<svg xmlns="http://www.w3.org/2000/svg" version="1" viewBox="0 0 92.769 130.219">
	<title>
    A drawing of a twiddle e-shape.
  </title>
	<path d="M34.35 1.67c-7.81 2.953-11.62 5.62-17.715 12.477-7.047 7.905-10.761 16.667-13.428 32.19C.635 60.814-.603 81.576.35 91.766c1.428 15.333 11.428 32.476 21.333 36.667 6.857 2.857 20.095 2.19 31.905-1.62 9.905-3.142 13.619-5.238 12.19-6.666-.476-.476-9.905-.762-21.047-.762-14.857-.095-20.762-.38-21.81-1.333-.857-.667-2.286-1.048-3.047-.667-.858.286-1.81.095-2.19-.476-.382-.572-.287-1.143.285-1.143.476 0 .762-.857.476-1.905-.286-1.143-.952-1.81-1.429-1.428-.571.285-.857.19-.762-.286.191-.476-.38-4-1.142-7.81-1.62-7.428-2-40.095-.667-52.571.762-7.238 3.619-17.143 5.143-17.619.571-.19 1.905 1.238 2.952 3.238 2.476 4.572 7.81 9.238 13.429 11.714 3.619 1.62 5.143 1.715 8 .953 2-.572 6.38-1.048 9.619-1.143 5.143-.095 7.524-.952 16-5.238 14.476-7.429 18.857-10.857 21.428-16.953 1.429-3.142 2-6.095 1.62-7.523-1.048-4.381-7.62-10.381-16-14.572l-8-4.095L54.158.147C41.588-.233 38.921.052 34.35 1.671zm39.904 8.668c4.858 2.57 7.048 4.761 5.62 5.714-.953.571-.477 1.428 1.523 3.143 2.857 2.285 2.857 2.285 1.143 5.81-.952 2.094-3.333 4.475-5.428 5.713-4.381 2.477-5.715 2.667-4 .667 1.904-2.38.285-3.714-2.762-2.19-6.762 3.333-28.19 6.857-34.096 5.523-3.333-.761-11.142-7.333-11.142-9.333.19-3.428 13.047-13.047 19.047-14.19 1.62-.381 3.238-1.048 3.524-1.524.952-1.62 23.238-1.048 26.571.667z"/>
</svg>
