<?xml version="1.0" encoding="utf-8"?>
<svg xmlns="http://www.w3.org/2000/svg" height="162.990683" preserveAspectRatio="xMidYMid meet" version="1.0" viewBox="0 0 299.662439 162.990683" width="299.662439">
	<title>A drawing of a snake, drying pole and round egg.</title>
	<g fill="#000000" stroke="none" transform="translate(-20.337561,178.990683) rotate(-360.00) scale(0.095238,-0.095238)">
		<path d="M2806 1848 c-65 -38 -104 -88 -162 -210 -98 -208 -114 -256 -155 -483 -28 -152 -24 -135 -63 -245 -66 -187 -60 -389 15 -525 46 -83 109 -149 160 -165 19 -6 35 -16 35 -21 0 -28 139 19 221 75 33 22 64 41 68 41 18 0 152 123 205 189 45 55 128 200 152 264 10 25 24 60 32 78 21 48 46 245 46 362 0 191 -66 329 -244 515 -85 88 -188 157 -236 156 -10 0 -44 -14 -74 -31z m293 -167 c180 -183 219 -273 219 -505 0 -203 -33 -353 -104 -468 -17 -29 -48 -81 -69 -116 -42 -75 -155 -183 -228 -220 -27 -14 -79 -44 -115 -68 l-67 -42 -78 82 c-45 46 -92 107 -109 141 -28 56 -62 199 -62 261 1 37 37 188 76 307 18 57 37 126 42 153 17 93 44 175 88 264 25 49 58 120 74 158 21 49 41 77 74 104 25 20 48 45 51 55 4 14 15 19 45 19 38 0 49 -8 163 -125z m-621 -1065 c20 -103 67 -189 155 -281 63 -67 77 -86 65 -94 -24 -15 -56 -12 -107 10 -79 34 -126 134 -139 293 -7 83 -1 148 11 136 3 -3 9 -31 15 -64z"/>
		<path d="M782 1827 c-68 -16 -191 -95 -237 -153 -54 -68 -75 -120 -81 -195 -4 -63 -2 -76 24 -121 41 -71 87 -118 140 -141 24 -11 66 -36 93 -57 27 -20 55 -36 62 -36 45 0 141 -147 141 -215 0 -15 8 -46 17 -70 13 -31 15 -49 7 -61 -6 -10 -7 -29 -1 -48 14 -49 14 -259 0 -292 -52 -125 -245 -239 -377 -223 -56 7 -60 10 -154 107 -52 55 -109 120 -125 144 -27 41 -28 48 -23 127 10 141 -30 155 -49 17 -9 -70 -8 -79 15 -130 32 -70 234 -281 269 -280 12 0 25 -8 29 -16 3 -9 19 -16 35 -16 49 0 192 33 231 53 20 10 59 26 87 36 68 24 102 55 137 126 28 54 30 66 23 130 -4 38 -9 105 -11 149 -1 43 -6 90 -10 105 -3 14 -11 49 -16 78 -14 69 -41 151 -61 184 -23 37 -88 105 -101 105 -6 0 -65 35 -130 77 -148 97 -193 155 -193 255 0 81 97 224 181 267 22 11 43 30 47 41 7 24 9 24 126 22 129 -4 186 -39 199 -123 10 -69 27 -98 84 -145 27 -22 53 -51 59 -65 13 -35 47 -32 60 6 12 34 8 43 -20 43 -17 0 -41 28 -41 47 0 3 15 -2 32 -11 47 -24 51 -11 9 27 -48 42 -44 38 -104 111 -44 53 -68 71 -134 102 -85 38 -178 54 -239 39z"/>
		<path d="M1486 1828 c-4 -7 -3 -17 2 -25 4 -7 8 -117 9 -244 0 -127 5 -258 9 -291 l9 -60 -91 0 c-82 0 -91 -3 -89 -19 5 -31 -11 -44 -53 -44 -21 0 -48 -7 -59 -16 -19 -13 -19 -16 -5 -31 14 -14 25 -14 105 5 49 11 103 25 120 31 16 5 34 7 39 4 8 -5 4 -509 -6 -749 -4 -87 -5 -89 -33 -97 -17 -4 -41 -5 -54 -2 -19 5 -24 2 -24 -14 0 -25 19 -45 43 -45 10 0 20 -5 22 -11 2 -8 37 -6 108 4 119 18 259 33 271 30 4 -1 41 3 81 10 53 9 74 16 74 28 0 14 -21 15 -150 9 -82 -4 -172 -10 -199 -14 -47 -6 -48 -5 -54 24 -3 17 -6 185 -6 374 0 189 -3 353 -6 365 -11 33 21 80 58 88 93 18 230 4 378 -40 31 -9 85 -22 118 -29 l61 -12 -6 -48 c-4 -27 -10 -88 -15 -137 -12 -121 -46 -309 -79 -434 -29 -112 -32 -139 -16 -149 25 -16 54 10 85 77 29 62 34 85 42 212 9 139 18 221 41 400 l12 90 39 12 c61 18 97 51 93 84 -3 28 -3 28 -84 26 l-82 -2 6 39 c21 131 30 187 49 285 41 219 49 285 33 291 -26 10 -43 -18 -51 -84 -4 -36 -9 -75 -11 -86 -2 -12 -6 -43 -10 -68 -3 -26 -13 -67 -21 -90 -8 -23 -17 -64 -21 -91 -7 -58 -20 -71 -38 -41 -10 15 -17 18 -27 10 -10 -9 -9 -19 8 -52 21 -42 25 -94 10 -130 -8 -19 -10 -18 -21 13 -18 49 -45 46 -36 -4 7 -35 6 -38 -12 -30 -11 4 -44 12 -73 16 -29 5 -76 14 -105 20 -29 7 -109 14 -178 15 l-126 4 2 88 c1 48 5 133 9 188 5 80 3 113 -11 158 -10 31 -21 87 -25 125 -6 59 -10 69 -29 71 -13 2 -26 -1 -30 -7z m632 -1347 c-4 -8 -6 -6 -7 6 0 11 2 18 6 14 3 -3 4 -12 1 -20z m-604 -110 l-10 -40 -1 52 c-1 38 2 49 10 40 9 -8 9 -23 1 -52z"/>
	</g>
</svg>
