<?xml version="1.0" encoding="utf-8"?>
<svg xmlns="http://www.w3.org/2000/svg" viewBox="0 0 145 165">
	<title>A drawing of a snake.</title>
	<path d="M64.576.636c-3.62.572-4.953 2.19-1.81 2.19 3.238 0 5.81-.856 5.81-2.095a.751.751 0 0 0-.762-.761c-.381.095-1.905.38-3.238.666z"/>
	<path d="M69.242 2.922c-.952 1.619-2.19 2.762-2.762 2.38-.476-.285-1.142.191-1.523 1.049-.381.952-1.334 1.333-2.858.952-1.619-.381-2.952.286-5.142 2.476-3.143 3.333-4.667 4-3.715 1.62.953-2.572-.666-1.715-4.666 2.475-2.096 2.19-4.953 4.381-6.381 4.953-1.429.571-2.572 1.333-2.477 1.81.477 2.952-1.238 5.142-4.952 6.19-4.095 1.143-5.047-.381-1.428-2.381 2.285-1.238 2.38-1.524.761-1.524-3.142-.095-8.476 5.524-8.476 8.952 0 1.62.381 3.143.953 3.524 1.523.952.19 2.476-2.096 2.476-1.619 0-1.81-.285-.952-1.904 1.429-2.667-.286-3.524-2.38-1.239-1.906 2.19-4.763 9.334-8.191 20.667-2.572 8.476-2.572 16.19.19 21.429 1.333 2.762 8.667 9.047 10.381 9.047.571 0 1.62.953 2.286 2.095.666 1.143 3.428 3.143 6 4.477 3.714 1.904 6.19 2.38 12.285 2.38 4.19 0 9.62-.476 12.096-1.142 3.714-.857 4.762-.857 5.428.285.667 1.048 2.381 1.048 9.905-.476 5.524-1.143 10.571-1.619 13.048-1.238 3.047.476 4 .286 4-.762 0-2-9.048-2.857-16.477-1.619-6.571 1.048-7.333.953-4.952-1.047 1.143-.953 5.143-1.429 12.667-1.524 10.571-.19 11.523-.095 19.143 3.143 4.476 1.904 8.285 3.428 8.57 3.428.287-.095-.666-1.047-2.19-2.38l-2.761-2.191 3.523.38c3.905.477 8.477 4.953 6.381 6.286-.857.477-.38 1.81 1.524 4.19 2.095 2.763 2.667 4.477 2.381 7.334-.19 2-.762 3.905-1.428 4.096-1.334.476-3.334-4-3.334-7.334 0-3.333-5.143-8.38-8.38-8.38-1.334 0-4.667-.953-7.239-2-3.047-1.334-5.143-1.715-5.714-1.144-1.905 1.905.19 3.905 4.476 4.572 13.81 2 12.762 1.333 14.476 9.524 1.905 9.238-1.047 30.285-5.333 38.571-3.429 6.476-9.81 11.524-14.667 11.524-1.524 0-2.571.666-2.952 1.81-.572 2.19-5.238 3.142-12.095 2.38-3.334-.38-5.048-.095-5.62.762-.57.857-1.904 1.048-4.666.572-5.524-1.048-13.333-9.238-13.333-14 0-3.143 2.19-15.429 3.523-20.096.381-1.333-.095-3.047-1.333-4.571-1.81-2.095-2.857-2.381-9.143-2.476-3.905-.095-7.333.285-7.619.762-.38.476-2.095.571-4 .19-3.047-.571-3.428-.38-3.428 1.524 0 2.286.38 2.476 7.619 2.095 3.523-.095 5.523.286 6.666 1.429 2.096 2.095 4.762 10.857 4 13.428-.571 2.286.953 7.429 4.381 14.953 2.096 4.38 3.334 5.714 7.62 7.81 4.476 2.285 5.809 2.57 11.142 1.904 3.334-.381 8-.857 10.476-.952 2.381-.19 4.762-.953 5.143-1.715.667-1.047 1.143-1.047 2.095-.095 1.524 1.524 2.858 1.62 2.858.095 0-2.095 3.904-4.571 6.38-4.095 3.143.572 8-2 10.572-5.714 2.571-3.524 1.714-4-1.62-.857-2.856 2.666-3.142.952-.38-2.19 1.143-1.239 1.81-2.572 1.524-3.048-.286-.381.38-.572 1.333-.286 1.333.38 2.572-.667 4.476-3.62 2.762-4.094 3.524-7.047 1.715-7.047a.954.954 0 0 0-.953.953c0 .571-.762.761-1.524.38-.952-.38-1.523.096-1.523 1.143 0 .953-.667 2.381-1.524 3.143-.762.857-1.429 1.143-1.429.572 0-.477.667-2.857 1.429-5.143.857-2.381 1.524-5.81 1.524-7.714 0-2.381.476-3.334 1.619-3.334 1.047 0 1.428.572 1.047 1.524-.476 1.048-.095 1.429 1.143 1.238 1.333-.19 1.62.381 1.333 3.238-.285 3.334-.285 3.429 1.524 1.905 1.048-.952 2.381-1.429 3.048-1.238 1.524.571 1.714-.857.38-2.19-.475-.572-.57-4.953-.094-10.382.857-10.19.476-12.19-5.429-23.904-2.952-5.81-6-8.286-10.857-8.857-1.81-.19-4.381-.762-5.714-1.334-3.81-1.428-16.762-2.857-23.143-2.38-3.143.19-7.715 1.047-10.19 1.904-7.43 2.476-13.334 2.952-15.144 1.143-.857-.857-4.38-1.81-8.285-2.19-5.81-.667-7.334-1.239-11.334-4.667-3.619-3.048-5.142-5.238-6.666-9.905-1.905-5.524-2-6.38-.667-10.095.762-2.286 2-4.762 2.572-5.524 2.285-2.667-.381-2.762-2.667 0-1.333 1.524-2.857 2.667-3.333 2.667-.572 0-1.143.571-1.43 1.333-.285.667-.761.952-1.142.571-.38-.38.381-2.38 1.714-4.476 1.238-2.19 2.667-4.762 3.143-5.905.667-1.904.762-1.904 2.095 0 1.334 1.715 1.429 1.715 1.524.19 0-.951.572-2 1.429-2.285.762-.285 2.667-3.143 4.19-6.19 4.286-9.048 13.429-21.238 15.905-21.238.762 0 1.429-.381 1.429-.953 0-1.523 18.571-10.095 22.952-10.762 2.857-.38 5.333.477 12.571 4.286 10.381 5.429 13.238 7.81 18.572 15.62 3.047 4.475 5.143 6.285 10 8.761 3.428 1.714 7.047 3.048 8.095 3.048 2 0 2.381-1.905.762-3.62-.762-.761-.095-1.237 2.571-1.809 4.667-.857 8.381 0 14 3.143 4.857 2.667 8.762 2.571 6.477-.19-.667-.762-2-1.524-2.858-1.524-2.666 0-6.095-2.857-6.095-5.048 0-2.38-2.571-2.476-4-.19-.571.952-1.047 1.238-1.047.571 0-.571-1.334-1.429-2.953-1.81-1.619-.285-3.238-1.428-3.524-2.57-.38-1.049-1.047-1.906-1.619-1.906-.476 0-.857-1.047-.857-2.285 0-1.62-1.81-3.905-5.524-7.048-5.047-4.381-6-4.762-13.142-5.714-5.334-.667-8.381-1.524-9.81-2.953-4.095-3.81-17.524-6.857-17.524-3.904 0 .571-.762.38-1.619-.572-2.19-2.095-2.762-2-4.762 1.524zm24 5.048c4.953 2.761 8.286 3.904 11.238 3.904 5.715 0 9.81 2.286 10.572 5.905.38 1.62 1.524 3.714 2.571 4.667 1.81 1.619 1.905 1.904.286 3.619-.857.952-2.476 1.81-3.524 1.81-2.667 0-2.19 1.904.667 2.952 1.428.571 2.571 1.238 2.571 1.523 0 .667-3.238-.57-4.762-1.714-.857-.666-1.238-.666-1.238.095 0 2.572-2.286.667-8.762-7.238-6.095-7.428-7.81-8.857-16.762-13.619-8-4.285-9.523-5.428-8-6.095 3.143-1.143 7.429.095 15.143 4.19zm-70.19 35.619c-.857.857-2.762 3.81-4.19 6.666-2.858 5.524-4.191 4.953-2.286-1.143 1.523-4.571 4.762-8.285 6.571-7.523 1.143.38 1.143.761-.095 2zm-7.429 22.19c-1.524 3.714-3.047 3.143-3.047-1.333 0-4 .952-5.048 2.857-3.143 1.238 1.238 1.238 1.905.19 4.476zm6 3.048c0 .571-.285 1.047-.476 1.047-.286 0-.762-.476-1.048-1.047-.38-.477-.19-.953.381-.953.572 0 1.143.476 1.143.953zm0 7.238c0 2.476-.38 2.857-2.285 2.666-1.239-.19-2.858-1.523-3.715-3.047-1.333-2.476-1.333-2.857.476-4.857l1.905-2.096 1.81 2.19c.952 1.144 1.81 3.525 1.81 5.144zm5.715 3.428c-.381.286-1.239.381-1.905.096-.857-.381-.572-.572.571-.667 1.048 0 1.62.19 1.334.571zm2 5.143c.571 1.81-3.239 1.524-4.858-.38-1.142-1.334-.952-1.525 1.62-1.239 1.523.19 3.047.952 3.238 1.62zM42.86 87.59c2.667 0 5.334.476 5.905 1.142.667.572 2.476 1.143 4 1.143s2.857.381 2.857.857c0 1.334-15.333 2.19-19.238 1.143-1.81-.571-4.19-1.619-5.238-2.285-1.81-1.334-1.81-1.429 0-3.524 1.714-2 1.81-2 4.381-.286 1.62 1.143 4.286 1.81 7.333 1.81zm70.953 29.523c-.953.857-1.238.667-1.238-1.238s.285-2.095 1.238-1.238c.857.952.857 1.524 0 2.476zm4.762 5.81c0 3.047-1.429 4.666-2.572 2.857-.286-.571-1.428-1.333-2.476-1.714-1.333-.477-1.62-1.143-.952-2.19.857-1.334 1.142-1.334 2 0 .761 1.142.952.856.952-1.334 0-2.476.286-2.762 1.524-1.714.857.761 1.524 2.571 1.524 4.095zm-68.667 2.38c1.143 1.144 1.238 2.477.38 6.572-.951 4.953-2.666 5.238-2.666.476-.095-1.047-.762-3.238-1.524-4.857-.857-1.524-1.523-3.047-1.523-3.238 0-1.047 4-.19 5.333 1.048z"/>
	<path d="M105.337 16.446c-.666.666 8.858 9.428 10.286 9.428.476 0 .953-.476.953-1.047 0-.477-.667-.953-1.524-.953-1.524 0-1.62-.095-2-3.904-.095-1.239-.857-2.667-1.62-3.143-1.523-1.048-5.237-1.238-6.095-.381zM106.861 23.493c-.571 1.62 3.143 6.286 4.286 5.143.571-.571-2.19-6.762-3.143-6.762-.286 0-.762.667-1.143 1.62zM49.814 6.636c-2.286 1.524-3.143 4.857-.953 3.81.667-.286 2-.857 2.953-1.143 1.81-.667 2.38-2.952 1.047-3.714-.476-.286-1.81.19-3.047 1.047zM42.385 12.827c-.667 1.143-1.619 2-2 2-.38 0-2.095 1.428-3.81 3.047-1.904 1.81-2.476 2.953-1.618 2.953.761 0 1.619-.572 1.904-1.334.286-.762 2.667-2.38 5.143-3.619 4.381-2.095 5.429-3.904 2.762-4.762-.571-.19-1.714.572-2.38 1.715zM139.052 27.303c-1.905 1.428-1.905 1.524.666 1.524 3.524.095 6-.953 5.334-2.096-.857-1.333-3.905-1.047-6 .572zM.29 147.588c.952 2.762 2.38 4.286 4 4.286 1.048 0 .952-.666-.667-3.047-2.38-3.239-4.38-4-3.333-1.239z"/>
</svg>
