<?xml version="1.0" encoding="utf-8"?>
<svg xmlns="http://www.w3.org/2000/svg" version="1" viewBox="0 0 110 159">
	<title>
    A drawing of a broken spear.
  </title>
	<path d="M6.519 1.664c-.19 2.095-.572 4.571-.762 5.238-.095.285-.381 8.095-.572 17.238-.19 9.238-.571 17.524-.857 18.476-.285 1.048-.762 6.095-1.143 11.333-.285 5.238-1.047 14-1.619 19.429-.762 7.143-.762 12.857.096 20.476 1.333 11.905.857 36.38-.953 48.571-1.047 7.238-1.047 8.096.572 9.238 2.285 1.715 3.81 1.143 4.19-1.523.19-1.524 1.238-2.286 3.714-2.762 2.858-.572 3.429-1.143 3.524-3.048 0-1.333-1.143-3.524-2.571-4.762-2.381-2.285-2.476-2.666-1.81-10.285.286-4.286.762-19.048.857-32.858.286-29.904.096-28.19 2.572-29.523 2.476-1.334 2.476-4.572 0-5.905-2.667-1.429-2.762-1.333-3.429.952-.285 1.143-.952 2-1.619 2-1.905 0-1.143-1.714 2-4.38 1.62-1.334 2.953-3.43 2.953-4.477 0-3.333 1.142-5.143 3.142-5.143 1.429 0 1.81-.476 1.524-1.714-.285-.952-1.047-5.619-1.714-10.286-.667-4.666-1.81-9.428-2.476-10.666-.762-1.143-1.143-3.048-.762-4.286.476-1.81.19-2.095-2.095-1.62-2.096.382-2.572 0-2.572-1.428 0-1.523.476-1.81 2.667-1.428 1.524.285 2.38.095 1.81-.286-.572-.476-1.143-3.714-1.239-7.333-.19-3.524-.476-7.429-.762-8.667C8.52-.432 6.71-.813 6.52 1.664zm3.143 23.238c0 .571-.19 1.047-.477 1.047-.19 0-.666-.476-1.047-1.047-.286-.477-.095-.953.476-.953s1.048.476 1.048.953zm-.953 10.571c0 .762-.38 1.429-.857 1.429-.476 0-.857-.667-.857-1.429 0-.857.38-1.524.857-1.524.476 0 .857.667.857 1.524zm.953 10.19c-.762 1.43-.953.667-.572-3.238.572-6.38.857-6.857 1.333-2.285.191 2.095-.095 4.571-.761 5.524zm-.953 21.239c0 .571-.476 1.047-1.047 1.047-.572 0-.953-.476-.953-1.047 0-.477.381-.953.953-.953.571 0 1.047.476 1.047.953zm-1.333 48.19c-.381.857-.572.572-.667-.571 0-1.048.19-1.62.572-1.334.285.381.38 1.238.095 1.905zm-1.714 31.333c0 .19-.477.667-.953 1.048-.571.286-1.047.095-1.047-.476 0-.572.476-1.048 1.047-1.048.476 0 .953.19.953.476zM98.519 108.425c-.286.286-5.143 1.143-10.953 1.905-14.666 2.095-16.38 2.953-11.524 6.095 1.905 1.334 3.239 1.429 6.762.667 7.62-1.81 10.762-2.095 11.238-1.238.286.476-1.333 1.333-3.619 2.095-2.38.667-5.619 1.81-7.238 2.572-7.714 3.333-9.81 3.619-23.714 3.81-8.095.094-15.048.475-15.428.952-1.905 1.904 2.285 3.142 10.952 3.333 5.047.095 9.143.571 9.143 1.047-.096.381-3.524 1.239-7.81 1.81-5.047.762-8.666 1.905-10.666 3.333-1.62 1.143-3.429 2.096-4 2.096-.572.095-1.81.857-2.858 1.904-3.714 3.715-25.333 14.096-29.428 14.096-1.81 0-2.762.761-3.238 2.19-.953 2.952 1.714 4.952 5.333 3.905 4-1.143 17.524-7.429 29.714-13.81 20.953-10.952 22.857-11.428 19.048-4.857-2.571 4.19-2.476 5.62.095 5.62 1.524 0 7.429-5.906 12.762-12.858 2.762-3.714 5.143-5.524 8.476-6.762 2.476-.952 5.048-2.095 5.524-2.571.572-.476 1.62-.857 2.476-.857.953 0 .572 1.047-1.428 3.047-3.429 3.62-5.524 9.143-4.286 11.429 1.524 2.666 2.762 1.81 5.143-3.715 1.714-3.809 4.857-7.619 11.81-14l9.333-8.857-2.477-1.428c-2.38-1.334-8.19-1.905-9.142-.953zm.19 6c0 .19-.476.667-1.048 1.048-.57.286-.952.095-.952-.476 0-.572.381-1.048.952-1.048.572 0 1.048.19 1.048.476z"/>
</svg>
