<?xml version="1.0" encoding="utf-8"?>
<svg xmlns="http://www.w3.org/2000/svg" version="1" viewBox="0 0 184.411 142.264">
	<title>
    A drawing of a simplified carp mouth with feeler.
  </title>
	<path d="M93.719.56c-9.048 1.81-12.667 3.238-16.286 6.762-2.095 1.905-3.714 3.905-3.714 4.476 0 .571-1.81 4-4 7.524-2.19 3.619-4.095 7.714-4.286 9.047-.095 1.334-1.143 3.334-2.285 4.572-1.048 1.238-4 8.476-6.381 16.095-2.477 7.62-4.857 14.476-5.429 15.143-.571.762-3.238 1.238-6.762 1.238-3.143 0-6.095.476-6.38.952-.382.572-1.715 1.048-3.048 1.048-3.62 0-5.524 1.048-5.524 3.048.095 2.571 1.905 2.857 10.38 1.619 4.191-.572 7.906-.762 8.191-.477.381.381-.571 3.62-2.095 7.334-2.38 6.095-5.429 15.81-5.429 17.714 0 .381.381.762.858.762 1.238 0 4.19-6.762 5.142-12.095.477-2.572 2-6.953 3.334-9.715 1.524-3.142 2.095-5.428 1.428-6-.571-.571-.095-1.142 1.238-1.523 1.524-.381 2-.096 1.62.762-.667 1.904 23.428 5.428 41.428 6 7.905.285 20.857.857 28.667 1.238l14.095.666 1.524 4.096c.762 2.19 1.714 7.238 2.095 11.047.667 8.667 6.286 25.238 9.048 27.048 1.142.666 3.619 1.619 5.523 2 3.143.666 3.334.571 2.096-.857-.762-.953-2-1.715-2.762-1.62-4.286 0-8.857-11.523-9.905-25.142-.572-7.048-1.62-11.238-4.19-16.19-.667-1.239 11.238-.763 12.57.475 1.43 1.429 3.62-.38 4.668-3.904 1.333-4.667-5.239-6.19-17.905-4.096-2.667.477-5.81-4.476-8.476-13.333-1.238-4.095-2.858-8.952-3.62-10.857-1.809-4.667-3.809-12.19-7.047-26.19-1.429-6.477-3.333-12.286-4.095-12.953-2-1.619-2.572-.571-1.334 2.667 1.143 2.952.762 4.095-.952 3.047-.571-.38-1.048-1.81-1.048-3.142 0-2.096-1.047-2.953-6.285-5.429C100.29-.297 99.052-.488 93.719.56zm8.762 6.38c7.333 2.191 12.38 7.048 15.524 14.858 1.333 3.429 2.762 8 3.143 10.19 1.047 5.715 9.333 30.381 11.619 34.19 1.047 1.906 1.904 3.62 1.904 3.906 0 .285-5.81.38-12.952.19-7.143-.19-13.048-.667-13.048-1.143 0-.38-1.333-.762-2.952-.762s-3.238-.38-3.524-.952c-.38-.571-.952-.857-1.333-.571-1.714.952-19.238 1.428-22.286.571-1.905-.571-7.619-1.238-12.857-1.524-5.143-.286-9.81-.857-10.38-1.333-.477-.572.19-2.667 1.713-5.334 1.334-2.38 2.858-6.38 3.238-8.857.381-2.38 1.715-6.476 2.953-8.952 1.238-2.476 3.714-8.286 5.524-13.048 3.619-9.333 9.047-16.095 16.952-21.142 4.857-3.239 6.762-3.239 16.762-.286zM63.433 69.037c-.38.286-1.238.38-1.904.095-.858-.38-.572-.571.571-.666 1.048 0 1.62.19 1.333.571zM180.671 69.322c-.571 1.047-1.047 3.238-1.047 4.762 0 4.571-2.762 18.095-5.238 25.142-1.62 4.762-3.429 7.81-6.667 11.048-2.476 2.476-4.476 4.857-4.286 5.238.095.476-.476.572-1.238.286-1.905-.762-2 2-.19 3.524 2.857 2.285 6.571-1.524 5.047-5.238-.38-1.239 0-1.62 1.334-1.715 1.81 0 5.047-2.762 6.666-5.714 1.238-2.095 6.381-17.619 6.953-20.762.285-1.619 1.047-5.81 1.714-9.238 1.143-6.286.857-9.238-.952-9.238-.572 0-1.524.857-2.096 1.905zM.195 118.655c.953 3.048 2.476 4.667 2.476 2.571 0-2.476-1.047-4.857-2.19-4.857-.476 0-.667 1.048-.286 2.286zM31.814 126.94c-5.238 10-7.904 12.477-13.904 12.477-6.096 0-8.667-2.095-12.858-10.572-2.285-4.666-2.952-5.428-3.238-3.714-.38 3.143 5.143 12.381 8.667 14.572 1.714.952 5.048 2 7.429 2.38 3.714.477 4.761.191 6.952-1.809 3.238-3.143 8.19-10.476 10.19-15.238 1.81-4.381 1.905-4.667.858-4.571-.381 0-2.286 2.857-4.096 6.476z"/>
</svg>
