<?xml version="1.0" encoding="utf-8"?>
<svg xmlns="http://www.w3.org/2000/svg" viewBox="0 0 407 133">
	<title>Drawings of several noses, becoming simpler to the right.</title>
	<path d="M293.047 1.018c0 2.191 7.048 15.239 14.19 26C315.62 39.971 326 60.161 326 63.685c0 2.286-.286 2.381-7.715 2.381-10-.095-22.666-2.952-27.619-6.286-3.047-2.095-4.285-2.476-5.81-1.619-3.428 1.81-4.285 5.238-2.952 11.62 1.334 5.714 10.19 32.952 11.62 35.523 2.666 4.667 8.476 7.81 8.476 4.476 0-2-4.572-15.524-8.477-25.238-2-4.952-3.904-10.857-4.19-13.238-.571-4.19-.571-4.286 2.286-4.286 1.619 0 6.666 1.143 11.428 2.381 18.857 5.238 24.762 5.905 30.095 3.048 2.953-1.524 3.048-1.81 2.572-6.286-.667-5.333-5.62-17.333-10.095-24.095-1.62-2.476-6-8.095-9.715-12.476-3.619-4.381-8.571-11.143-10.952-15.048-6.857-11.238-11.905-17.047-11.905-13.524zM202.571 7.78c.381 1.524 2.381 5.238 4.476 8.286 2.19 3.048 7.143 11.143 11.048 18C222 40.923 227.428 49.686 230 53.59c8.857 13.047 10 16.857 5.238 17.905-1.524.285-7.905.19-14.19-.286-6.382-.476-12.477-.476-13.62-.095-4.38 1.619-4.476 6.38-.38 13.714 2.952 5.143 2.952 5.428 1.047 5.905-2.476.666-4.286 5.333-2.952 7.619.571.952.857 1.714.666 1.81-.19 0-1.428.285-2.762.475-5.238.953-6.476 5.81-2.476 9.334 2.19 1.905 2.476 2.762 2 5.428-.38 1.715-.952 6.477-1.238 10.381-.476 6.19-.286 7.238 1.048 7.238 2.095.096 3.238-2.38 4.095-8.952.667-5.048.762-7.143.19-13.905-.095-1.905.477-2.571 2.381-3.047 2.096-.572 2.477-1.238 2.762-5.238.19-2.572.953-5.239 1.715-5.81 2.095-1.714 1.904-2.952-1.524-10.095-1.62-3.429-2.667-6.667-2.381-7.143.38-.571 6.286-.667 14.762-.286 11.904.667 14.762.476 18-.857l3.904-1.619-.476-5.048c-.38-3.904-1.524-6.571-4.857-11.238-7.048-10.19-9.524-14-12.095-18.38-1.238-2.286-3.524-6.191-5.048-8.667-3.714-6.476-19.81-27.715-20.952-27.715-.476 0-.572 1.239-.286 2.762zM108 9.97c0 .477 1.905 3.239 4.286 6.096C127.428 34.542 132.952 42.447 136 49.971c.952 2.476 2.952 7.143 4.38 10.38l2.572 5.715-3.428 1.429c-1.905.762-5.62 1.714-8.19 2.095-7.334.952-18.858 3.333-21.715 4.476-3.429 1.238-4.381 5.238-2.19 9.714 1.809 3.81 1.428 5.238-1.524 5.238-2.477 0-4.286 4.381-2.953 7.048 1.715 3.143 1.143 6.571-1.333 8.762-1.333 1.143-2.762 3.428-3.048 5.048-.762 3.333-3.143 4.761-5.143 3.142-1.904-1.619-3.142-.476-3.238 2.953-.095 3.905.572 4.19 6.19 3.428 4.191-.571 4.667-.857 5.525-4.095.571-1.905 2-4.571 3.142-5.81 1.334-1.428 2.381-4.19 2.762-7.523.572-4.572 1.048-5.429 3.238-5.905 3.048-.762 3.429-2.857 1.62-9.714-1.62-6.095-.762-8.286 3.238-8.286 4.762 0 26.952-4 30.666-5.619 3.334-1.333 4.667-4.476 2.476-5.81-.476-.38-2.38-4.285-4.095-8.857-5.333-13.81-7.524-17.523-18.476-31.047-5.238-6.572-16.38-17.715-17.714-17.715-.381 0-.762.477-.762.953zM27.048 11.685c0 .953 1.238 3.81 2.857 6.286 2.762 4.286 4.666 8.095 10.285 20.857 1.238 2.857 2.572 5.238 2.953 5.238.285 0 3.238 5.81 6.38 12.952 4.763 10.953 5.62 13.62 5.048 16.572-.857 4.476-2.19 4.952-8.571 3.524-5.524-1.334-15.81-.572-18.476 1.333-1.048.762-1.81 3.333-2.19 7.143-.477 4.286-1.239 6.38-2.667 7.619-1.238.952-2.19 2.952-2.286 4.952-.19 3.334-4.667 16.286-6.286 18.381-.476.572-1.143 2.667-1.524 4.762-.762 4.381-2.285 4.762-5.523 1.238C4.476 119.971 0 119.114 0 121.4c0 .667 2.476 3.62 5.524 6.572 6.476 6.095 9.81 6.571 10.285 1.619.477-5.143 5.334-19.905 7.429-22.572 1.048-1.333 2.571-3.904 3.333-5.714.762-1.81 2-3.238 2.858-3.238 1.904 0 1.904 0 0-6.667-1.239-4.095-1.334-5.81-.477-6.762 1.81-2.19 9.905-2.761 16.476-1.142 7.143 1.714 9.524.952 12.477-3.715 2.857-4.666 2.666-7.904-.857-14.571-1.62-3.143-3.715-7.62-4.572-10.095-.857-2.477-2.476-6.096-3.619-8-1.238-2-5.048-9.143-8.571-16-9.429-18.096-13.238-23.715-13.238-19.429zM364 11.495c0 5.047 7.523 18.476 24.761 43.714 4.191 6.286 8.858 15.619 8.096 16.38-.286.287-5.238-1.332-10.953-3.428-5.714-2.19-12.19-4.285-14.38-4.666-2.191-.381-5.143-1.524-6.382-2.572-3.428-2.666-6.761-2.38-8.761.762-1.62 2.476-1.62 3.238.476 14.762 1.238 6.667 2.857 15.048 3.619 18.571a630.907 630.907 0 0 1 2.571 13.048c2.381 13.524 6.19 21.714 8.476 18 1.048-1.714-2-20.667-6.952-42.476-3.238-14.286-3.238-16-.286-15.143 1.238.38 4.667 1.333 7.715 2.19 3.047.762 7.047 2.19 9.047 3.143 9.334 4.381 23.429 10.286 24.667 10.286 2.667 0 1.143-9.333-2.953-18-2.476-5.143-25.142-38.38-30.857-45.333-1.428-1.715-3.81-4.953-5.238-7.048-1.714-2.476-2.666-3.238-2.666-2.19z"/>
</svg>
