<?xml version="1.0" encoding="utf-8"?>
<svg xmlns="http://www.w3.org/2000/svg" version="1" viewBox="0 0 162 53">
	<title>
    A drawing of a shut mouth.
  </title>
	<path d="M47.012 1.524c-4.381 1.905-20 18.19-20 20.762 0 1.047-.477 1.619-.953 1.238-.476-.286-2.762 1.714-5.143 4.476-4 4.857-8.38 8-11.047 8-.857 0-1.048-1.429-.572-4.952.477-3.905.19-5.429-1.238-7.143-2.952-3.62-5.524-1.238-6.952 6.38-1.333 7.43-1.524 12.667-.381 12.763.476 0 1.333 1.333 1.905 2.952 2 5.333 5.238 3.048 5.333-3.714 0-2.19.762-2.572 6.571-3.715 3.429-.761 11.429-8.095 17.62-16.19 2.19-2.952 4.285-5.429 4.666-5.429.381 0 2-1.238 3.62-2.761 8.285-7.62 10.475-8.667 17.618-8.667 8 .095 10.953 1.714 14 7.714 3.143 6.095 9.334 14.19 12.762 16.667 4.572 3.238 10.095 3.714 15.048 1.143 3.428-1.715 4.762-3.238 6.857-7.905 1.428-3.048 2.857-5.905 3.143-6.19.38-.191 2.571-2.858 4.952-5.715 4-4.857 4.667-5.238 8.762-5.238 3.81 0 4.571.381 5.429 2.571.57 1.43.761 2.953.476 3.334-.953 1.524 1.428 17.81 3.428 23.524 3.524 10.095 6.762 13.142 18.095 17.047 6.286 2.095 7.905 2 8.096-.762.095-1.619.19-1.81.571-.476.476 1.81 1.429 2.286 2.572 1.143.857-.857-1.239-6.095-2.953-7.524-1.238-1.047-1.714-.952-2.38.381-.858 1.429-1.715 1.238-7.715-1.238-3.714-1.619-7.524-3.81-8.381-4.952-2.667-3.334-4.857-12.19-4.857-19.715 0-7.523-1.143-12.571-3.238-14.666C129.869 1.81 124.916 0 119.773 0c-7.428 0-11.619 2.952-15.619 11.143C100.821 18 93.964 26 91.488 26c-4.381 0-9.238-4-12.476-10.19-4.096-7.715-6.477-10.477-11.429-12.953-5.238-2.762-16-3.428-20.571-1.333zm56.952 23.428c0 .572-.381 1.048-.952 1.048-.477 0-1.239-.476-1.524-1.048-.381-.476.095-.952.952-.952s1.524.476 1.524.952zm-5.048 3.334c0 .476-.38.571-.952.19-.571-.285-.952-1.333-.952-2.285 0-1.429.095-1.524.952-.19.571.856.952 1.904.952 2.285zm-11.904-1.334C88.25 27.81 88.25 28 86.726 28c-.857 0-1.905-.476-2.286-1.048-.762-1.238.572-1.238 2.572 0zm65.333 22.572c-.381.857-.857 1.333-1.143 1.047-.19-.19-.095-.952.19-1.523 1.048-1.62 1.62-1.238.953.476z"/>
</svg>
