<?xml version="1.0" encoding="utf-8"?>
<svg xmlns="http://www.w3.org/2000/svg" viewBox="0 0 139 135">
	<title>A drawing of a backward-facing snake.</title>
	<path d="M64.247.522c-3.81.762-13.714 4.286-15.81 5.62-1.237.761-5.333 2.19-9.237 3.047-16.572 4-20.476 6.095-20.476 11.143 0 2 .476 2.38 3.047 2.38 1.62 0 2.953.286 2.953.477 0 .285-1.429 2.571-3.143 5.047-3.238 4.953-3.905 5.048-10.096 1.905-3.904-2-6.571-1.714-9.523 1.238-2.477 2.476-2.477 2.762-.857 3.905 1.047.762 2.476 1.143 3.238.762.762-.286 2.952-.19 4.857.19 2.857.476 3.524 1.048 3.524 3.048 0 1.714.571 2.476 1.714 2.476 2 0 9.143-8.762 11.81-14.476.952-2 2.761-4.095 3.904-4.476 2.667-1.048 2.857-.762 1.429 2.285-.857 2-.857 2.953.095 4.096 1.048 1.238 2.476.476 9.905-5.143 4.762-3.524 9.333-6.762 10.19-7.048 2.381-.857 12.953-5.238 19.81-8.38 3.523-1.525 7.333-2.858 8.38-2.858 4.191 0 12.858 3.429 15.43 6.19 2.666 2.763 2.666 2.763.475 2.763-3.428 0-2.095 2.285 2.477 4.38 8.666 4.096 12.761 11.048 9.904 16.572-2.952 5.81-17.81 18.286-33.81 28.286-7.904 4.952-21.237 18.285-23.523 23.523-1.143 2.667-3.619 6.381-5.619 8.19-2.476 2.477-3.524 4.382-3.524 6.382 0 2.19.286 2.762 1.429 2.38.857-.38 1.428-.285 1.333.096-.095.38.19 1.524.667 2.476.476 1.238 0 2.857-1.715 5.048-1.333 1.714-2.761 4.095-3.142 5.238-.286 1.143-1.905 2.857-3.524 3.714-2.857 1.714-4.953 6.381-3.429 7.81 1.81 1.619 10.953 3.904 15.429 3.904 2.666 0 5.047.477 5.333.953.572.952 9.048 2.095 16.095 2.19 10.381.095 37.334-2.095 44-3.619 4.096-1.047 4.953-1.81 8.953-8.952 1.904-3.429 6-9.524 9.047-13.429 5.715-7.524 7.905-11.619 6.953-13.143-.762-1.238-3.048-1.238-5.238 0-.953.477-2.572 1.143-3.524 1.429-.953.286-3.238 3.81-5.048 7.905-4.38 9.524-11.143 19.428-14.571 21.143-3.905 2-12.762 3.047-15.429 1.81-1.143-.572-9.333-1.81-18.19-2.668-26.667-2.857-24.762-2.38-24.096-5.81.381-1.618 1.524-4.19 2.572-5.713 1.048-1.524 2.857-5.238 4.095-8.381 1.143-3.048 4-8.286 6.381-11.429C72.724 86.046 82.723 75.76 84.82 75.76c2.571 0 24.857-22.571 30.095-30.38 2.286-3.43 4.857-7.048 5.81-8.096 3.047-3.524 3.523-9.905 1.047-14.952-4.19-8.762-16.667-17.905-28.286-20.953C88.628.141 68.914-.526 64.247.522zm1.524 7.143c0 .857-13.238 5.905-16 6-.857.095-3.428.38-5.619.667-3.238.476-4.286.285-4.762-.953-.38-1.143 0-1.619 1.429-1.619 1.143 0 3.428-.762 5.143-1.619 2.857-1.428 3.142-1.428 4 .095.857 1.524 1.142 1.524 2.571.19 1.429-1.237 6.286-2.666 12.476-3.523.381-.095.762.286.762.762zm39.714 3.143c5.715 3.81 7.238 5.619 5.62 7.238-.858.857-10.762-4.857-11.239-6.476-.19-.762-1.047-2.096-1.904-3.048-2.762-3.143.857-2.095 7.523 2.286zm-71.714 3.81c0 1.809-5.238 4.285-8.38 3.904l-3.144-.286 3.524-2.19c3.524-2.286 8-3.048 8-1.429zm82.857 4.761c2.857 3.62 1.429 5.238-1.524 1.714-1.238-1.523-2.285-3.142-2.38-3.619 0-1.523 1.904-.571 3.904 1.905zM41.2 18.713c-.286.57-1.048 1.047-1.524 1.047-.572 0-.952-.476-.952-1.047 0-.477.666-.953 1.523-.953.857 0 1.334.476.953.953zm74.476 12c-.095 2.285-.19 2.19-1.429-.953-1.81-4.667-1.81-5.905 0-3.524.857 1.048 1.429 3.048 1.429 4.476zm6.095-2.953c0 .572-.571.952-1.143.952-.571 0-.762-.38-.38-.952.285-.571.761-1.048 1.047-1.048.19 0 .476.477.476 1.048zm-8 11.81c0 .952-7.619 9.142-8.476 9.142-1.429 0-.286-1.809 3.524-5.714 4.285-4.38 4.952-4.857 4.952-3.428zM95.2 59.855c-.953 1.048-2.477 1.905-3.334 1.905-1.047 0-.666-.952 1.429-3.048 3.048-3.238 4.857-2.19 1.905 1.143zm-10.096 4.667c-4.952 6.476-15.238 14.286-19.428 14.667-.762.095-2.667 1.333-4.19 2.857-3.143 3.143-5.524 3.714-3.048.666 4.38-5.142 26.19-21.81 28.666-21.904.477 0-.38 1.619-2 3.714zm6.667.762c-1.333 1.333-2.571 2.286-2.857 2-.667-.667 2.857-4.572 4.095-4.572.572 0 0 1.143-1.238 2.572zm-21.047 18.38c0 .477-1.143 1.62-2.477 2.477-2.19 1.429-2.476 1.429-2.476.19 0-.761.762-1.904 1.714-2.476 2.19-1.333 3.239-1.333 3.239-.19zm-8.477 6c-.666 1.144-5.523 2-5.523 1.144 0-1.048 4.285-2.953 5.238-2.381.476.285.571.857.285 1.238zm-3.714 8.382c-.286.666-1.333 1.619-2.476 2.095-1.238.571-2.476 2.667-3.143 5.333-.667 2.477-1.81 4.286-2.571 4.286-2.381 0 1.142-9.333 4.285-11.333 3.143-2 4.381-2.096 3.905-.381zm-17.81 28.666c0 .572-.38 1.048-.952 1.048-.476 0-1.238-.476-1.524-1.048-.38-.476.096-.952.953-.952s1.524.476 1.524.952zm5.715 1.715c.286.762-.381.952-1.62.666-1.142-.285-2.094-.952-2.094-1.523 0-1.334 3.238-.572 3.714.857zm38.285 2.285c2.667.667.858.953-8 .858-11.428 0-23.333-1.429-22.57-2.667.57-.857 26.19.667 30.57 1.81z"/>
	<path d="M118.438 47.38c-.381.38-.667 1.142-.667 1.713 0 .667.381.572 1.143-.095.667-.666.952-1.428.667-1.714-.286-.286-.858-.19-1.143.095z"/>
</svg>
