<?xml version="1.0" encoding="utf-8"?>
<svg xmlns="http://www.w3.org/2000/svg" viewBox="0 0 159 143">
	<title>A drawing of a carp mouth with feeler.</title>
	<path d="M156.932 4.983c.286 3.239.667 6.762.857 7.81.762 3.619-1.524 44.095-2.952 52.476-4.857 28.762-6.381 34.286-13.62 50.095-4 8.667-4.856 10.19-9.809 16.953-3.619 5.047-4.571 5.714-6.762 5.333-2.095-.476-3.333-2.095-6.476-8.762-4.857-10.38-4.857-12.19-.38-14 4.094-1.714 4.856-2.857 4.761-6.762-.19-4.571-1.905-5.714-4.38-2.762-1.049 1.429-2.382 3.524-2.858 4.762-1.143 2.667-2.762 2.857-5.81.762-2.476-1.81-2.952-4.952-.666-5.81.762-.38 1.524-.952 1.524-1.428-.096-1.524-25.905-3.524-44.286-3.429-16.095.096-19.81-.476-16.762-2.38.571-.286 2.19-2.381 3.62-4.667 3.428-5.334 10.19-12.572 13.332-14.286 1.429-.667 4.572-1.619 7.048-2l4.476-.667 9.81 8.953c5.333 4.952 10.666 10.095 11.81 11.619 1.142 1.428 2.475 2.571 2.952 2.571 2.38.096.285-2.952-7.715-10.666-9.81-9.62-20-16.762-21.714-15.524-.571.476-3.238 1.714-5.81 2.666-5.047 1.81-11.238 8.286-16.19 16.667-1.429 2.572-3.524 5.429-4.667 6.381-1.047 1.048-1.904 2.19-1.904 2.572 0 .476-1.429 3.142-3.238 5.904-3.81 6.19-3.143 7.81.857 1.905 3.143-4.667 6.476-5.905 10.285-3.905 1.143.667 6.667 1.334 12.286 1.62 10.572.38 24.095 2.476 33.81 5.047 2.952.857 6.666 1.81 8.19 2.095 3.143.572 4.19 2.19 5.048 7.238.285 2 1.428 6 2.571 9.048 1.714 4.38 2.952 6 6.381 8.095 6.19 3.81 7.714 4.19 8.476 2.095.381-.952 1.905-3.143 3.429-4.952 1.619-1.81 3.524-4.857 4.286-6.667.761-1.904 3.238-6.19 5.523-9.714 2.19-3.429 4.096-6.952 4.096-7.81 0-.857.761-2.952 1.81-4.57 2.57-4.191 4-8.763 5.713-18.572 2.857-16.096 4.381-31.524 4.953-49.238.285-9.81.666-18.19.952-18.667.857-1.333-1.143-19.048-2.286-20.19-.762-.762-.952.571-.571 4.761zm-82.571 97.429c0 1.428-3.048 2-9.905 2-7.333 0-14.095-.952-14.095-1.905 0-.38 2.762-.762 6.19-.952 3.429-.19 6.286-.381 6.381-.476.571-.572 11.429.666 11.429 1.333zm27.142 2.095c2.667.667 3.81 1.62 4.286 3.524.286 1.429.476 2.762.286 2.952-.286.286-2.667-.19-5.333-.952-2.762-.857-9.239-2.286-14.572-3.238-7.428-1.333-9.524-2.095-9.143-3.143.476-1.143 2.476-1.333 10.667-.762 5.619.381 11.714 1.143 13.81 1.62z"/>
	<path d="M17.884 6.126c-1.523 6.476-6 19.905-7.142 21.238-1.143 1.334-3.143 12.381-2.667 14.286.095.381-.286 1.905-.857 3.524-.572 1.524-1.714 8.095-2.476 14.762-.667 6.571-2 16.285-2.953 21.428C.932 86.602.456 91.745.742 92.793c.19.952.095 2.857-.381 4.095-.572 1.524-.381 3.143.571 5.048.952 1.904 1.143 3.143.381 3.81-2.571 2.666 0 26.666 3.429 32 2.571 3.904 6.952 6 10.857 5.142 5.047-1.143 14.285-10.667 16.762-17.333 1.143-3.143 3.047-6.667 4.285-8 1.905-2.095 1.905-2.286.381-2-1.81.38-3.81 3.524-6.952 10.857-3.048 7.143-11.905 14.952-16.857 14.952-2.572 0-7.714-6.476-8.476-10.666-.286-2.096-1.048-4.953-1.524-6.381-.572-1.429-.762-6.762-.476-12.286.38-6.286.285-9.62-.381-9.62a1.057 1.057 0 0 1-1.048-1.047c0-.571.476-.762 1.143-.38.762.476.952.095.571-1.43-.285-1.142-.095-2.38.477-2.761.571-.286.857-3.143.761-6.286-.19-3.047.096-6.857.572-8.476.476-1.81.38-3.62-.381-4.762-.857-1.429-.857-1.905.095-1.905.857 0 1.333-2.285 1.429-7.81.095-4.38.571-8.761 1.143-9.904.571-1.048 1.333-4.571 1.619-7.81.285-3.238 1.428-8.38 2.571-11.428 1.048-3.048 1.905-7.62 2-10.19 0-2.572.381-4.953.857-5.239.476-.285 1.62-3.333 2.572-6.761.952-3.524 2.19-7.334 2.762-8.572.857-1.619.857-2.571.095-3.333s-1.238-.19-1.715 1.81zM122.646 36.126c.857 5.905 2.762 8.857 6.19 9.524 4.286.857 6.477-.286 8-4 1.715-4 1.81-5.238.572-5.238-.476 0-1.428 1.333-2.095 2.952-.667 1.62-1.81 3.143-2.571 3.429-2.477.952-6.381-1.143-6.858-3.81-.38-1.428-.762-3.714-1.047-5.047-.286-1.429-1.048-2.572-1.715-2.572-.761 0-.857 1.524-.476 4.762z"/>
	<path d="M33.79 101.364c-2.763.476-6.477.572-8.382.286-2.476-.381-3.238-.19-2.666.667.952 1.619 19.81 1.333 19.238-.286-.476-1.429-2-1.524-8.19-.667z"/>
</svg>
