<?xml version="1.0" encoding="utf-8"?>
<svg xmlns="http://www.w3.org/2000/svg" version="1" viewBox="0 0 110.413 135.377">
	<title>
    A drawing of a simpler beaver.
  </title>
	<path d="M50.456 4.905c-11.333 7.524-25.905 26.762-29.81 39.428-.476 1.715-1.904 5.62-2.952 8.667-2.952 8-2.762 12.952.762 16.952l2.762 3.239 6.19-1.715c5.715-1.619 6.381-1.619 8.667-.095 4.667 3.048 7.905 11.62 6.476 16.952-1.619 5.715-2.571 6-13.619 3.715-5.428-1.048-10.952-1.715-12.38-1.334-2.953.667-6.953 4.096-6.953 6 0 1.715 1.429 1.62 2.952-.19 1.905-2.286 11.143-2 16.572.476 3.524 1.62 4.476 2.571 4.476 4.476 0 4.762-.857 5.524-6.571 5.524-3.048 0-5.524-.476-5.524-1.048-.096-.476-.19-1.523-.286-2.095-.19-2-2.571-2.095-3.333-.19-.381 1.047-1.143 2.095-1.62 2.476-.761.476-.666 1.524.096 3.048.667 1.238 1.333 3.619 1.428 5.238.477 4.476 2.477 4.19 3.143-.381l.667-4.096h4.952c4.953 0 4.953.096 4 2.667-1.143 2.952-.762 3.905 1.334 3.143 1.81-.762 5.047-11.143 4.19-13.714-.476-1.524 0-2.286 1.714-2.953 7.715-2.952 11.143-14.571 6.953-22.857-4.095-8-10-11.143-16.095-8.666-6.762 2.761-10.477-1.43-8.286-9.334 2.095-7.333 6-17.81 8.095-21.238 1.143-1.905 3.048-5.428 4.381-7.81C36.17 23 45.885 11.096 47.694 11.096c.857-.095 2.953-1.142 4.762-2.476 4.19-3.143 12.095-5.047 17.333-4.19 9.238 1.428 18.096 9.238 19.143 16.952.381 2.572 1.334 6.095 2.286 7.81 2.095 4.095 1.429 12-1.333 15.619-1.715 2.285-2.667 2.666-6 2.38-5.715-.38-8.572 2.191-8.667 7.905-.095 4.381-.095 4.381 3.905 5.238 11.81 2.572 21.238 9.62 23.619 17.715 2.666 9.143.666 22.666-4.476 30.571-8.572 13.238-12.572 16.19-27.62 20.095-7.714 1.905-10.952 2.286-17.047 1.81-4.095-.286-11.524-.857-16.476-1.048-4.953-.285-10.19-.952-11.524-1.428-1.333-.477-4.571-1.429-7.143-2.096-7.81-2-10.857-4.38-10.857-8.476 0-1.905-.19-3.524-.476-3.524-1.524 0-5.334 2.477-6.476 4.286-1.143 1.905-.953 2.381 2.095 4.953 1.81 1.523 6.762 4.38 10.857 6.38 4.095 1.905 8.286 3.905 9.238 4.477 1.238.666 2.476.666 3.81-.096 1.523-.761 3.619-.761 7.714.096 9.333 2 27.333 1.714 39.143-.477 5.904-1.142 10.571-2.571 10.857-3.238.19-.762 1.238-1.333 2.19-1.333 2.19 0 10.096-6.667 10.096-8.571 0-.762.761-1.81 1.809-2.381 2.667-1.429 6.571-8.381 9.714-17.429 2.286-6.571 2.572-8.762 2-13.905-1.428-13.142-3.619-17.047-13.428-23.523C89.98 58.714 86.266 57 83.218 57c-2.476 0-5.333-2.572-4.19-3.715.38-.381 2.19-.572 4.095-.476 4.38.38 9.904-2.858 11.238-6.572 3.333-8.952 3.524-11.81 1.238-18.952-4.762-14.381-8.572-19.524-18.19-24.381C72.741.524 70.36-.047 64.741-.047c-6.572 0-7.238.285-14.286 4.952z"/>
	<path d="M77.218 28.62c-1.238 1.333-.571 3.333 1.238 3.333 2.476 0 3.333-1.048 2-2.572-1.238-1.524-2.19-1.714-3.238-.762z"/>
</svg>
