<?xml version="1.0" encoding="utf-8"?>
<svg xmlns="http://www.w3.org/2000/svg" version="1" viewBox="0 0 212 174">
	<title>
    A drawing of a snake, drying pole and spear.
  </title>
	<path d="M49.359.36C44.597.836 36.788 6.265 33.93 10.932c-4.285 7.238-5.428 13.047-4.285 23.142 1.143 10.19 2 12.381 10.38 25.239 1.524 2.285 2.763 4.666 2.763 5.142 0 .572 1.142 2.381 2.476 4 1.428 1.62 3.904 6 5.619 9.715 2.952 6.095 3.143 7.428 3.143 17.047-.096 17.81-1.905 30.381-5.334 36.667-.476.952-.857 2.476-.857 3.333 0 3.905-8.952 17.905-18.952 29.524-2.572 3.048-4 3.905-6.476 3.905-1.81 0-3.715.476-4.286 1.047-1.62 1.62-8.381-1.904-10.952-5.81-1.143-1.713-2.477-5.333-2.858-8-1.047-6.38-.762-20 .477-24.285 1.238-4.286 1.333-8 .095-7.905-.476 0-1.905 4-3.143 9.048-1.714 6.952-2 10.38-1.524 15.238 1.238 10.571 3.62 17.714 7.524 21.714 3.048 3.238 4.38 3.81 9.714 4.381 3.429.476 7.238.476 8.476.096 3.62-1.048 15.429-14.19 20.381-22.667 5.429-9.143 10.857-23.81 12.953-35.048.857-4.571 2-9.904 2.571-12 .857-3.047.572-6.19-1.524-15.714-3.047-14.762-5.143-19.429-15.047-34.667-9.143-14-11.143-18.095-12-25.142-.667-4.572-.381-6 2.095-10.858 3.714-7.333 6.286-9.142 11.048-7.619 4.857 1.429 6.666.572 6-2.857-.381-2.285-.096-2.952 1.428-3.524 3.62-1.047 10.19.667 13.048 3.524 2.666 2.667 3.333 5.238 4.19 16.953.286 4.38 2.476 5.81 6.286 4 4.095-2 5.143-5.715 3.524-12.19-1.905-7.334-3.429-10-7.81-13.334C69.645.455 68.502.17 61.263-.021c-4.38 0-9.714.095-11.904.381zm18.857 1.905c1.62.571 2.19 2.38.762 2.38-.476 0-1.714-.666-2.762-1.428-2-1.523-.857-2.095 2-.952zM101.359 1.408c-1.143 1.143-.572 15.905.952 24.762 1.81 11.333 2 25.143.19 25.714-.856.286-1.237 2.857-1.237 8.095v7.714l-3.429 1.048c-5.333 1.714-12 5.81-12 7.429 0 2.476 1.81 2.571 8.476 0 3.715-1.429 6.857-2.572 6.953-2.572.571.095-.477 12.095-1.334 16-.571 2.476-1.619 7.429-2.476 11.048-.762 3.619-2.19 11.714-3.143 18-.857 6.285-2.476 15.905-3.619 21.333-2.38 12.19-2.38 12.286 0 12.952 1.429.381 1.81 1.048 1.429 2.572-.857 3.047 3.428 2.952 4.571-.095.953-2.667 3.334-34.477 2.667-35.62-.476-.857.667-6.761 4.952-24.666 1.429-6 2.857-14.095 3.238-17.905.858-7.905.19-7.428 13.715-10 3.904-.666 10.38-2.19 14.571-3.333 4.095-1.143 9.62-2.286 12.19-2.571 4.191-.572 4.762-.381 4.762 1.238 0 5.142-6.285 36.095-10.285 51.047-2 7.524-11.524 32.953-13.429 35.905-.857 1.333-1.238 3.333-.857 4.762 1.333 5.333 3.81 1.905 8.952-12.667 6.381-17.81 11.62-34 11.62-35.81 0-1.047.285-2.095.666-2.476.381-.38.857-1.333.952-2.19.096-.762.858-4.19 1.715-7.714.857-3.429 2.095-9.143 2.762-12.762.571-3.62 1.238-7.429 1.523-8.572.19-1.142 1.429-2.571 2.858-3.238 3.047-1.333 3.333-3.81.571-4.666-1.143-.381-2-1.048-2-1.62 0-1.142.667-1.142 3.048.096 1.047.666 2.38.857 2.952.476 1.333-.857-1.905-6.19-4.19-6.762-2-.571-1.905-.952.761-17.714 1.905-11.714 3.715-20.476 5.81-28.952 1.429-5.715 1.429-6.572.095-7.905-1.81-1.81-1.524-2.572-5.524 14.19-3.047 12.667-6 30-6.38 36.667-.096 3.524-.096 3.524-6.096 4.38-3.333.477-13.714 2.382-23.238 4.191-9.428 1.905-17.428 3.429-17.81 3.429-.38 0-.38-.762 0-1.714 1.144-3.143.572-24-1.047-37.429-.952-7.524-1.333-15.524-.952-18.476.571-4.572.38-5.143-1.334-5.62-1.143-.285-2.285-.285-2.571 0zM197.073 7.98c-4.286 4.666-7.238 9.523-7.238 12 0 3.047 2.857 2.38 5.81-1.334 3.523-4.381 3.809-5.238 1.619-4.381-2.19.857-1.81-2.381.476-3.62 3.047-1.618 6.571.382 9.524 5.43 2.666 4.476 4.571 5.809 4.571 3.238 0-2.477-7.524-15.143-9.143-15.429-.857-.19-3.428 1.714-5.619 4.095z"/>
	<path d="M200.311 20.55c-.38 3.334-.38 7.81 0 10 .476 2.858.286 4.096-.762 4.763-1.524.857-11.714 16.095-11.714 17.333 0 .38.571 1.238 1.333 1.905 1.143.952 2.381.095 6.096-4.096 3.714-4.095 4.571-4.762 4.095-2.857-.381 1.429-1.143 8.857-1.62 16.572-2.285 35.428-4.761 50.571-4.38 27.238.095-8.667-.095-15.81-.572-15.81-.857 0-2 8.667-2 16.19 0 3.144-.38 9.048-.952 13.048-.476 4-1.143 10-1.429 13.334-.285 3.238-1.238 9.142-2 12.952-1.904 8.286-3.523 22.476-2.857 24.286.286.666 1.143 1.238 1.905 1.238 1.143 0 1.238.857.762 3.619-.667 3.524-.571 3.619 1.714 3.047 1.238-.38 2.667-.666 3.048-.666 1.238 0 2.667-6.476 2.762-12.476.19-10.381 3.047-37.715 5.619-53.048.762-4.952 1.619-12.381 1.905-16.476.285-4.095.761-12.381 1.142-18.286.381-5.905 1.048-10.762 1.62-10.762.476 0 2.095 1.429 3.619 3.048 6.285 7.143 6.952 1.238.857-8l-4.19-6.476-.477-12.477c-.571-13.809-2.381-17.428-3.524-7.142zm-3.524 92.096a.954.954 0 0 1-.952.952c-.571 0-1.048-.38-1.048-.952s.477-1.048 1.048-1.048c.476 0 .952.476.952 1.048zm-7.047 29.238c0 .667-.381 1.905-.953 2.762-.857 1.333-1.142 1.333-1.904 0-.667-.953-.572-1.905.095-2.762 1.333-1.62 2.857-1.62 2.762 0zM72.026 49.884c-1.429 1.333-1.715 4.762-.381 4.762.38 0 1.81-1.333 2.952-3.048 2.095-2.762 2.095-2.952.381-2.952-.952 0-2.286.571-2.952 1.238zM73.645 55.217c-1.143 1.429-1.048 1.62.571 1.334 1.048-.286 2.095-.953 2.286-1.62.666-1.809-1.238-1.618-2.857.286z"/>
</svg>
