<?xml version="1.0" encoding="utf-8"?>
<svg xmlns="http://www.w3.org/2000/svg" version="1" viewBox="0 0 186 177">
	<title>
    A drawing of a river.
  </title>
	<path d="M17.885 1.778C8.075 3.873 1.313 7.588.36 11.397c-1.048 4.095.19 4 5.429-.381 5.714-4.762 8-5.714 16.666-7.143 5.714-.952 7.143-.762 10.762.762 4.476 2 9.238 6.857 13.905 14.19 3.524 5.524 3.619 10.286.476 19.715-3.143 9.143-4.38 11.333-11.619 20.857-3.333 4.38-7.905 11.619-10.19 16-3.334 6.666-3.905 8.666-3.524 12.095.476 3.429-.096 5.429-3.334 12-4.666 9.238-4.952 12-1.333 17.62 3.143 5.047 5.048 6.666 8 6.761 2.857 0 3.62 1.238 6.762 10.667 3.048 9.238 7.905 16.38 12.476 18.285 2.953 1.238 15.333 1.143 16.572-.095.857-.857.952-10.952.095-14.857-.381-1.905-1.334-5.714-2.095-8.476-2.19-7.429-1.905-11.81.952-14.476 1.333-1.238 3.238-3.905 4.095-5.81 1.429-2.952 1.524-4.095.476-7.238-2.666-8.095 3.048-15.238 13.048-16.476 4.857-.572 5.714-.476 7.429 1.428 1.047 1.238 5.047 3.715 8.857 5.715 5.904 2.857 7.428 3.238 9.619 2.38 1.428-.57 4.952-1.523 7.904-2 6.477-1.237 7.715-.476 8.572 4.763 1.047 5.714-.667 8.761-6.286 11.619-5.238 2.666-8.095 5.81-8.095 8.857 0 .952 1.048 4 2.476 6.666 1.333 2.762 2.476 6.096 2.476 7.429 0 3.524 5.62 19.714 7.143 20.762 2.381 1.619 9.81.286 12.476-2.286 2.286-2.19 3.429-2.38 12.667-2.38 15.143 0 18.762-2.572 20.952-14.477 1.048-5.429.953-6.571-.762-9.81-4.095-7.904-10.19-16-25.714-34-5.238-6.095-5.714-7.142-5.714-11.523-.095-5.238 0-5.238 12.476-9.81 3.905-1.428 4-1.619 3.81-6.095-.096-3.143-1.143-6.476-3.143-10-1.62-2.857-3.238-6.571-3.62-8.286-.38-1.619-1.428-3.714-2.285-4.666-2.19-2.381-1.238-10.19 1.619-13.143 1.143-1.238 2.095-3.143 2.095-4.095 0-1.334.572-1.62 2.19-1.239 3.048.762 13.048-1.714 16.477-4.19 1.905-1.429 5.619-2.381 11.238-3.143 4.762-.571 9.524-1.714 11.048-2.762l2.571-1.714-2.476-.381c-1.429-.19-4.762.095-7.524.667-2.762.571-7.238 1.333-10 1.714-2.762.38-6.857 1.619-9.048 2.857-2.19 1.238-7.523 3.524-11.81 5.048l-7.904 2.857-2.952 6.285c-2.762 6-2.857 6.477-1.334 9.334.858 1.619 2 3.238 2.572 3.619 1.143.762 5.905 10.667 7.81 16.38 2.476 7.525 1.523 8.858-8 11.715-5.334 1.62-6.858 3.714-6.858 9.524 0 3.619 1.524 6.095 10 16.38 14.476 17.62 18.19 23.525 20.095 32.191 1.143 4.857 1.048 5.81-.857 9.81-2.857 5.81-7.333 7.905-16.19 7.619-3.62-.095-7.81-.286-9.238-.381-1.714 0-4 1.143-6.381 3.143-4.667 4.095-6.667 3.714-7.81-1.429-1.238-5.428-5.143-17.143-7.523-22.476-2.477-5.524-1.524-7.81 4.571-11.048 5.714-3.142 8.38-7.333 8.38-13.333 0-3.714-.57-5.238-2.57-7.238-2.477-2.476-2.953-2.571-9.81-1.905-14.476 1.334-14.762 1.334-21.524-3.238-6.857-4.571-11.143-5.81-17.238-4.952-6.571.857-10.952 3.81-13.714 9.143-2.381 4.476-2.476 5.238-1.524 10.952l1.048 6.095-3.81 4.286c-3.333 3.619-3.905 4.857-3.905 8.762 0 2.571 1.048 7.047 2.381 10.285 4.667 11.048 4.667 17.524 0 18.477-6.19 1.143-13.523-3.429-14.952-9.334-.381-1.333-1.429-4.666-2.381-7.428-1.048-2.762-2.095-6.953-2.571-9.334-.762-4.761-2.286-5.904-5.334-4.285-2.38 1.333-4.952-.667-7.619-5.81-1.428-2.857-1.428-3.428.857-8.857 1.334-3.143 2.953-8.19 3.62-11.238 3.047-13.429 3.904-15.143 19.428-38.19 6.476-9.524 9.714-18.381 9.81-27.048.19-6.19-.096-7.048-3.715-12.286C46.266 10.254 37.79 2.16 34.17.73c-3.238-1.238-6.38-.952-16.285 1.048z"/>
	<path d="M19.218 11.492c-.762.286-1.238 1.143-1.238 1.905 0 .952 1.524 1.428 4.667 1.714l4.762.286-.19 14.286c-.191 10.38-.668 15.047-1.81 17.142-.762 1.62-1.429 3.429-1.429 4.096 0 .666-.667 2.571-1.524 4.285-.762 1.715-2.095 4.953-3.047 7.143-.858 2.19-3.143 6.286-5.048 9.048-4.381 6.38-5.143 10.857-3.048 17.047.858 2.667 1.62 5.143 1.62 5.524 0 .476-2.667 4-6 8-8 9.62-7.905 13.048.761 21.81 2.857 2.857 5.238 6.38 6 8.857 1.048 3.619.953 4.667-.857 8.762-1.714 3.81-2 5.81-1.428 9.905.38 2.761.762 8.476.952 12.57.19 4.096.38 8.287.476 9.334.095 2.476 6.476 4.953 10.381 4.095 1.714-.38 4.857-1.809 6.857-3.142 3.048-2 4.476-2.381 7.048-1.81 1.81.381 6.095.952 9.428 1.238 6 .476 6.286.381 8.477-2.666 1.238-1.62 2.762-3.048 3.428-3.048 2.095 0 9.333-5.905 10.762-8.762.762-1.524 2.19-6 3.143-9.905 2.952-12 3.905-14.19 8.38-17.428 3.525-2.572 4-3.334 3.144-4.953-.476-1.047-1.429-2.095-2-2.476-.572-.38-2.286-3.238-3.905-6.38-2.476-4.953-2.762-6.096-1.714-8.191 1.523-3.143 6.095-3.62 11.523-1.238 4.953 2.19 5.429 3.333 5.715 14.285.095 4.762.666 9.905 1.143 11.62.666 1.904.666 3.714.095 4.761-1.81 3.334-4.762 13.238-4.762 16.381-.095 4 3.714 8.572 8.857 10.572 4.952 2 31.81 1.333 39.905-.953 2.952-.857 7.047-1.333 9.047-1.047 4.953.666 11.715-1.048 17.334-4.477 4.19-2.571 4.857-3.523 6.666-9.619 4-13.428 4.381-15.904 4.286-27.047 0-10-.286-11.714-2.286-15.048-2.571-4.095-17.904-18.571-21.619-20.38-1.714-.763-2.285-1.81-2-3.62.19-1.905 1.715-3.333 6.286-5.81 6.762-3.809 11.429-8.38 11.429-11.237 0-1.143-1.334-4.953-2.953-8.572-1.619-3.619-2.952-7.143-2.952-7.81 0-.761-2.572-3.904-5.62-7.047-3.428-3.524-5.428-6.286-5.047-7.143.953-2.571 6.762-5.333 18.572-9.047 10.762-3.334 15.238-5.62 13.904-6.953-2-1.904-29.523 7.62-34.571 12-4.476 3.905-4.095 5.143 2.476 10 2.667 2 4.762 4.572 5.905 7.524.952 2.476 2.476 5.81 3.428 7.524 2.381 4.19 3.143 8.667 1.62 10.476-.667.857-3.715 3.048-6.667 4.857-8.095 4.857-10 6.953-10 10.667 0 2.666.667 3.714 4.095 6.095 4.667 3.143 6.667 4.857 15.143 12.857 3.143 3.048 5.714 6.286 5.81 7.238 0 .953.38 5.143.857 9.238.857 8.572-.096 16.667-3.048 26-3.048 9.429-2.952 9.238-9.905 12.667-5.524 2.667-6.857 2.952-10.476 2.19-3.428-.761-5.238-.476-9.619 1.239-3.81 1.428-9.143 2.285-18.38 2.952-21.906 1.429-26.477-.095-26.477-8.476 0-2.667 1.048-6.857 2.476-10.286 1.905-4.19 2.476-6.667 2-9.238-.286-1.905-.762-7.62-.952-12.571-.19-4.953-.572-9.905-.953-10.953-.762-2.286-9.523-7.428-14.571-8.571-5.62-1.334-10.571.476-12.476 4.476-3.048 6.476-1.334 12.38 4.952 17.143 4.095 3.143 4.286 4.19 1.143 5.428-1.238.477-2.762 1.429-3.333 2.19-.953 1.144-3.81 11.906-5.81 21.43-.857 3.714-8.38 11.333-12.571 12.57-2.19.667-3.905 1.81-3.905 2.477 0 1.714-6.381 1.81-12.476.19-4.19-1.142-4.667-1.047-8.476 1.62-2.572 1.809-5.524 2.857-7.81 2.952l-3.81.095-.57-6c-.382-3.238-1.334-8.095-2.191-10.667-1.715-5.142-1.238-8.476 2.38-16.476l1.905-4.19-2.666-5.81c-1.429-3.238-4.381-7.714-6.476-10.095-3.048-3.333-3.81-4.952-3.81-8 0-3.238.762-4.762 5.429-9.81 5.238-5.523 5.523-6.19 5.047-9.904-1.905-14.762-1.905-14 1.238-18.667 3.238-4.762 10.286-19.333 10.286-21.428 0-.762.762-2.762 1.81-4.667 1.523-2.571 2.095-6.286 2.571-17.524l.762-14.286-3.238-2.952c-3.048-2.857-7.143-3.81-10.667-2.38z"/>
</svg>
