<?xml version="1.0" encoding="utf-8"?>
<svg xmlns="http://www.w3.org/2000/svg" version="1" viewBox="0 0 200 155">
	<title>
    A drawing of a snake and a round egg.
  </title>
	<path d="M67.203.2C56.536 1.247 48.346 5.533 45.679 11.533c-1.62 3.714-3.81 19.333-3.62 25.333.191 5.81 5.334 19.524 9.048 24.19 1.715 2.191 3.143 4.382 3.143 5.048 0 1.81 3.048 7.429 4.857 8.762.858.667 2.381 1.238 3.334 1.238 1.238 0 1.81.858 1.81 2.953 0 1.524.666 3.428 1.523 4.095 1.048.952 1.333 2.19.857 4.286-.476 2.19-.095 3.428 1.715 5.333 2.285 2.476 2.38 3.143 2.38 17.238 0 14.476-.095 14.667-3.238 20.667-6.38 12.095-12.476 15.714-29.523 17.047-5.238.381-6.19.096-10-2.571-3.905-2.857-8.762-9.714-8.762-12.476 0-.667-.667-1.905-1.62-2.572-1.904-1.619-1.047-9.523 1.334-12.095 2.381-2.762 1.238-5.333-2.476-5.714-2.667-.19-3.238.095-3.238 1.81 0 1.142-.381 2-.857 2-1.143 0-11.905 15.142-12.286 17.428-.476 2.571 2.857 4.667 4.19 2.571.477-.762.953-2.38.953-3.523 0-2 2.762-5.429 4.285-5.429.381 0 .762 1.429.762 3.238 0 8.952 15.62 21.524 27.238 21.905 8 .286 13.048-.953 22-5.524 11.62-5.81 17.81-12.667 20.19-22.38 2.382-9.906 2.382-16.477-.094-33.715-.381-2.19-1.429-4.953-2.381-6-.953-1.143-2.953-4.381-4.477-7.238-1.904-3.62-4.19-6.095-6.952-7.714-5.714-3.334-7.047-5.143-9.619-12.572-2.19-6.476-2.38-8.952-1.619-16.476.19-2.19-.095-6.667-.667-9.905-1.047-6.857.667-18.952 3.238-22C59.488 6.01 63.68 4.105 67.68 4.105c5.143 0 14.38 4.666 16.38 8.19.953 1.524 2.477 3.143 3.43 3.429.952.285 2.666 2.285 3.714 4.38 2.095 4.096 10.38 12 12.666 12 .762 0 1.334-.857 1.334-2.095 0-1.619.38-1.904 1.714-1.333.952.476 4.286.762 7.238.857 4.762.095 5.62-.19 5.905-1.905.19-1.047.857-2.285 1.524-2.666 2.761-1.715-.953-2-5.143-.381-7.238 2.762-7.62 2.762-9.715 1.143-1.714-1.334-1.81-1.715-.476-2.572.762-.476 3.143-.952 5.143-.952 4-.095 5.905-1.715 3.714-3.143-.762-.476-2.857-.857-4.666-.857-4.19-.095-9.143-2.19-11.62-4.857-.952-1.143-3.142-2.381-4.761-2.762-2.19-.476-2.762-1.048-2.381-2.381.38-1.334-.667-2.286-4.667-4.381C80.06.39 75.107-.467 67.202.199zm19.904 9.047c1.334 1.048 2.19 2.096 2 2.381-.761.667-6.857-2.38-6.857-3.428 0-1.62 2.19-1.143 4.857 1.047zm-34.285.572c-.381.952-.953 4.286-1.334 7.524-.285 3.238-1.047 6.19-1.619 6.476-1.523.952-3.81-2.857-3.142-5.143.38-1.143.761-3.333.952-4.857.19-1.524 1.143-3.429 2.19-4.19 2.477-1.905 3.715-1.81 2.953.19zm51.904 11.524c-2.19 1.523-6.38.762-8-1.429-2.952-4.286-1.81-4.857 3.81-2 3.048 1.62 4.857 3.048 4.19 3.429zm-4.476 4.476c0 1.428-.285 1.428-2-.19-1.143-.953-2-2.191-2-2.667 0-.477.857-.381 2 .19 1.048.572 2 1.81 2 2.667zm-54.38 7.047c-.191.953-.477.477-.477-1.238 0-1.619.19-2.38.476-1.714.286.667.286 2 0 2.952zm5.333 3.143c0 1.143-.286 1.143-1.524.096-.762-.667-1.429-2.191-1.429-3.334 0-2.095 0-2.095 1.524-.19.762 1.047 1.429 2.571 1.429 3.428zM48.822 46.39c-.19.667-.476.095-.476-1.238s.285-1.905.476-1.238c.285.667.285 1.81 0 2.476zm27.524 79.238c-.19 1.905-.762 3.524-1.239 3.524-1.047 0-1.238-5.333-.285-6.38 1.428-1.334 2-.477 1.524 2.856zM153.298 5.724c-9.429 3.523-12.476 5.619-13.62 9.238-.57 1.714-2.475 4.666-4.094 6.476-1.715 1.714-5.143 6.38-7.81 10.19-2.571 3.905-6 8.857-7.619 11.048-1.714 2.19-4.19 5.81-5.619 8-1.429 2.19-3.62 5.524-4.857 7.428-2.857 4.286-5.905 16.762-7.62 30.858-.952 7.904-.952 12.476-.094 19.523.666 5.048 1.428 11.905 1.714 15.143 1.047 11.238 5.238 20.667 11.143 25.143 3.047 2.286 4.952 2.857 11.714 3.333 4.476.381 9.429 1.334 11.048 2.19 3.714 2 10.095.858 16.571-2.856 7.238-4.286 22.952-17.62 22.476-19.048-.19-.762 0-1.047.572-.762 1.523.953 4.857-1.81 8.666-7.143 4.476-6.19 5.905-8.857 4.476-7.904-1.428.857-1.428-.667 0-3.905.667-1.333 1.81-2.572 2.667-2.572.857 0 1.143-.571.857-1.428-.38-.857-.19-1.524.286-1.524.952 0 1.714-3.143 2.476-11.048.286-2.38 1.143-6.38 2-8.857 1.81-5.047 2-9.428.667-17.143-.572-3.047-1.238-9.142-1.524-13.714-.762-10.286-3.905-19.333-8.952-25.714-.953-1.143-4.477-6.286-8-11.524-9.905-14.857-16-17.81-27.524-13.428zm14.19 2.095c1.81.857 3.524 2.095 3.905 2.666 1.143 1.81-.19 2.762-2.286 1.62-1.047-.572-4.762-1.239-8.19-1.62-6-.476-8.19.096-16.952 4.477-.381.19-.762-.096-.762-.572 0-1.714 14.38-8 18.761-8.095 1.334-.095 3.81.571 5.524 1.524zm-2 6c2.857.952 5.62 2.095 6.19 2.571.572.381 2.191 1.62 3.62 2.667 5.81 4.476 7.714 8.762 9.047 21.619.762 6.571 1.334 16.667 1.429 22.476.095 5.81.38 13.429.762 16.952 1.619 15.239 1.619 20.667.095 27.81-.952 4-2 7.524-2.571 7.81-.476.285-.857 1.238-.857 2.095 0 2.285-15.715 19.81-19.905 22.19-4.572 2.572-21.238 7.143-26 7.143-1.905 0-4.19-.667-5.048-1.429-.857-.761-4-2.38-7.047-3.619-7.334-3.047-10.286-5.238-12-8.571-.762-1.62-2-3.62-2.667-4.476-2-2.381-5.143-15.62-5.524-22.953-.476-11.333 1.238-24.761 4.286-34.38 3.428-10.381 7.143-16.572 24.952-42.286 5.905-8.572 7.048-9.62 14-13.238 8.476-4.476 10-4.762 17.238-2.381zm25.524 27.047c3.62 8.572 4.286 12.572 4.857 27.81.381 10.095.095 16.476-.666 19.428-.667 2.477-1.429 6.19-1.715 8.286-.285 2.095-.952 4.095-1.524 4.381-.571.381-.857.286-.476-.19.286-.572.19-4.572-.38-8.953-.477-4.38-1.334-17.238-1.905-28.476-.572-11.238-1.239-22-1.62-23.714-.952-4.857 1.048-4 3.43 1.428zm-80 93.334c2.19 3.904 10.857 9.904 14.286 9.904 1.81.096 6.571 4.762 5.619 5.62-.381.38-3.143.38-6.19 0-7.048-.858-11.524-4.572-15.048-12.191-1.334-3.048-2.476-5.905-2.476-6.381 0-2.095 1.619-.857 3.81 3.048zm45.238 12c0 1.523-12.762 7.142-15.333 6.762-2.572-.381-3.524-2.762-1.048-2.858 1.048 0 4.953-1.047 8.857-2.38 3.81-1.334 7.048-2.477 7.238-2.477.096-.095.286.381.286.953z"/>
</svg>
