<?xml version="1.0" encoding="utf-8"?>
<svg xmlns="http://www.w3.org/2000/svg" version="1" viewBox="0 0 108 132">
	<title>
    A drawing of a simplified beaver.
  </title>
	<path d="M77.048.833c-.858.476-5.143 1.047-9.524 1.428-12 .857-17.238 3.905-25.81 15.238-12.19 16-22.095 39.048-24.19 55.905-.286 2.762-1.334 8.286-2.19 12.286-1.525 7.238-1.239 10.952.666 9.714.571-.286.952-1.714 1.048-3.143 0-6.666 7.619-31.428 14.38-46.857C39.334 27.69 48.859 13.976 56.477 9.5 62 6.261 70.476 3.88 76.571 3.88c5.715 0 16.857 4.477 18.857 7.62 2.953 4.476 4.953 14.38 4.19 20.666-1.332 10.381-6.19 14.381-23.809 20.19-13.523 4.381-14.761 5.143-14.761 8.286 0 4.762 1.904 6.286 8.952 7.334 12.857 1.904 21.333 5.523 27.143 11.619C102.19 84.928 104 89.785 104 98.356c0 8.381-2.476 13.334-7.524 15.048-1.619.572-6.571 3.048-10.952 5.62-12 6.761-12.572 6.856-25.334 6.951-6.38 0-17.047.381-23.714.953-6.571.476-16.667 1.143-22.476 1.524-12.286.666-14 1.047-14 3.143 0 1.238 4.476 1.333 35.714.857l35.81-.667 8.095-3.429c15.619-6.38 26.19-15.142 28.476-23.619 1.714-6.666.667-16.857-2.38-22.095-3.334-5.619-9.62-11.333-15.525-13.905-5.619-2.476-17.619-5.81-20.952-5.81-1.714 0-2.286-.475-2.095-1.713.285-1.238 1.714-2 4.857-2.381 10.476-1.62 22.38-7.143 26.857-12.572 7.429-8.952 6.286-29.047-2.19-38.095-1.62-1.714-4.667-3.714-6.572-4.38-2-.668-4.476-1.715-5.524-2.477-2.285-1.524-5.333-1.714-7.523-.476z"/>
</svg>
