<?xml version="1.0" encoding="utf-8"?>
<svg xmlns="http://www.w3.org/2000/svg" version="1" viewBox="0 0 117 168">
	<title>
    A drawing of a beaver.
  </title>
	<path d="M53.048 1.05c-3.048.762-8.477 2.762-12 4.38-10.096 4.572-19.81 16.763-25.81 32.191-3.81 9.714-4.571 16.762-4 36.286.476 16.286.857 19.047 3.238 26.19 1.429 4.381 3.238 8.667 4 9.524.762.857 2.286 3.62 3.429 6.19 2.19 5.143 5.047 7.239 8.38 6.286 3.524-1.143 5.43-3.333 6.191-7.143.857-4.38 3.714-7.333 7.238-7.333 3.81.095 10.572 3.238 15.81 7.62 7.524 6.094 5.714 7.713-8.762 7.523-6.572-.095-11.62.571-19.143 2.38-5.524 1.43-12.095 3.048-14.476 3.715-5.524 1.333-14.667 7.333-16.095 10.476C.476 140.67 0 144.097 0 147.05c0 6 2.19 10.095 8 14.666 4.095 3.334 14.286 6.19 18.38 5.334 1.62-.381 7.715-.096 13.525.571 10 1.143 10.952 1.143 16.762-.857 12.38-4.19 18.666-8.572 30.38-20.953 6-6.476 12.381-14 14.191-16.857 1.81-2.762 5.81-8.952 8.952-13.714 8.667-12.857 9.524-18.857 4.953-35.047-1.715-6.096-3.334-9.334-7.143-14-7.81-9.81-8.381-10.286-25.524-19.524-4.952-2.762-6.762-5.62-4.476-7.048.762-.476 3.81-.571 6.952-.286l5.62.477 2.856-5.238c3.81-6.953 3.81-13.048 0-19.524C90.762 10.574 87.048 7.62 78 2.954 72.19-.093 60.762-.95 53.048 1.05zm18.476 5.047C82.667 9.431 92 18.097 92 25.24c0 5.714-1.333 7.238-5.81 6.667-4.38-.572-11.81 2.571-12.952 5.524-1.238 3.238-.667 8.095 1.238 10.19 1.048 1.143 6.286 4.381 11.81 7.238 8.666 4.667 10.571 6.095 15.428 12.286 4 5.143 6.476 9.619 8.857 16.286 3.62 9.904 3.715 13.81.667 21.047-2.19 5.334-9.048 16.667-11.238 18.667-1.143.952-2 2.286-2 2.952 0 .572-2.095 3.143-4.572 5.524-2.571 2.476-6.19 6.857-8.095 9.714-3.619 5.429-8.476 9.81-14 12.572l-3.143 1.619-.38-3.048c-.382-2.38 0-3.333 1.809-4.571 3.143-2 3.048-3.62-.095-3.048-2.953.572-3.81-.286-5.334-5.81-1.619-5.523-1.523-8.476.286-8.38 2.762 0 4.476-3.048 4.572-7.81 0-4.286-.477-4.952-5.239-9.524-7.142-6.666-11.619-8.762-19.333-9.047-5.428-.096-6.667.19-8.762 2.19-1.428 1.238-3.047 4.286-3.714 6.667-1.905 6.952-4 6-8.857-3.81-7.334-14.952-7.714-16.857-7.334-38.19.286-21.905 1.239-26.762 7.429-39.429 4.381-8.666 13.81-20.095 18.667-22.476 1.428-.762 5.333-1.81 8.571-2.476 3.333-.571 6.952-1.238 8-1.524 4.19-.857 8.381-.571 13.048.857zM55.143 131.526c.285.286.857 1.81 1.238 3.333.571 2.572.286 2.953-3.714 4.667-7.715 3.333-8.953 3.143-9.905-1.429-.476-2.19-1.238-4.38-1.81-4.952-.476-.476-.952-1.524-.952-2.19 0-1.048 1.619-1.239 7.238-.667 4 .285 7.524.857 7.905 1.238zm-17.81 2.19c.381 1.715.667 4.857.667 6.953 0 3.047-.381 3.81-2.286 4.285-3.905 1.048-4.38.762-6.095-3.714-.952-2.476-2.476-4.762-3.333-5.048-1.334-.571-1.524.096-1.048 4.858.667 6.19 1.524 5.428-8.19 7.238-6.762 1.238-4.572 2.857 3.238 2.476l6.762-.381v3.048c0 3.047-.19 3.047-5.239 3.428-2.952.095-5.333.762-5.523 1.524-.381.857 1.333 1.238 6.095 1.238 5.428 0 6.667.286 6.667 1.62 0 3.428-15.429-.572-20.667-5.43-5.143-4.666-5.048-11.809.286-15.904 3.142-2.381 22.476-9.143 26.476-9.238 1.047 0 1.81 1.047 2.19 3.047zm21.905 10.857c.19 2-.476 2.572-5.524 4.286-6.095 2.095-8.666 1.81-8.666-.762 0-1.714 11.904-7.714 13.142-6.571.381.38.858 1.714 1.048 3.047zm-19.619 5.62c.857 2.095-.476 3.238-4.381 4-2.476.57-3.333.285-3.905-1.048-.38-1.238 0-2.286 1.238-3.143 2.477-1.81 6.381-1.714 7.048.19zm23.333 3.333c.572 1.047 1.048 2.476 1.048 3.047 0 1.334-8.952 5.524-13.714 6.572l-3.238.666v-9.047l6.19-1.524c8.286-1.905 8.571-1.905 9.714.286zm-20.38 6.19c.857 1.715 1.333 3.334 1.047 3.62-.286.285-3.048.19-6.095-.191-4.381-.572-5.524-1.048-5.524-2.476 0-1.143 1.143-2.096 3.238-2.762 5.048-1.62 5.62-1.524 7.333 1.81z"/>
	<path d="M66 12.574c-1.333 2.571.38 7.333 2.667 6.857 2.952-.572 3.904-3.334 2-6.19-2-3.144-3.239-3.334-4.667-.667z"/>
</svg>
