<?xml version="1.0" encoding="utf-8"?>
<svg xmlns="http://www.w3.org/2000/svg" height="151.718380" preserveAspectRatio="xMidYMid meet" version="1.0" viewBox="0 0 123.695645 151.718380" width="123.695645">
	<title>A drawing of a yet simpler beaver.</title>
	<g fill="#000000" stroke="none" transform="translate(-16.080225,167.814702) rotate(-360.00) scale(0.095238,-0.095238)">
		<path d="M835 1754 c-51 -9 -145 -39 -194 -62 -42 -20 -107 -110 -165 -229 -62 -127 -102 -371 -61 -371 16 0 17 5 37 126 15 97 35 162 78 257 45 99 88 165 101 157 6 -4 31 7 55 24 59 42 114 56 219 56 80 0 93 -3 137 -32 27 -17 84 -67 127 -111 82 -84 112 -146 112 -228 0 -56 -28 -118 -61 -134 -16 -8 -77 -17 -137 -20 -97 -6 -111 -9 -129 -31 -28 -35 -25 -79 8 -105 15 -12 37 -22 47 -22 26 0 166 -69 201 -98 15 -13 48 -40 74 -62 66 -54 107 -139 99 -205 -26 -217 -37 -242 -130 -285 -105 -49 -204 -65 -370 -59 -135 5 -141 5 -185 -22 -86 -50 -246 -73 -337 -47 -24 6 -59 25 -77 42 -27 26 -32 38 -32 82 0 67 29 111 105 162 57 39 85 73 46 57 -11 -5 -39 -13 -62 -18 -48 -12 -115 -55 -144 -94 -12 -17 -22 -52 -26 -91 -5 -57 -2 -70 23 -113 23 -40 41 -55 97 -81 64 -30 73 -31 153 -25 114 9 203 31 239 58 33 24 110 28 234 13 59 -8 231 7 309 27 41 10 153 90 177 126 16 26 51 161 63 252 9 64 -31 153 -109 242 -33 38 -216 155 -274 176 -30 11 -54 23 -54 28 0 5 32 9 71 9 81 1 122 14 168 53 88 75 99 173 35 309 -48 103 -101 163 -202 231 -95 64 -157 77 -266 58z m-173 -90 c-8 -8 -19 -15 -25 -15 -7 0 -3 7 8 16 26 19 33 19 17 -1z"/>
		<path d="M989 1495 c2 -11 12 -21 23 -23 14 -3 18 1 15 15 -2 11 -12 21 -23 23 -14 3 -18 -1 -15 -15z"/>
		<path d="M432 1057 c-8 -10 -9 -24 -2 -45 5 -17 12 -73 16 -125 8 -122 11 -137 22 -131 5 3 10 62 10 131 0 164 -13 210 -46 170z"/>
	</g>
</svg>
