<?xml version="1.0" encoding="utf-8"?>
<svg xmlns="http://www.w3.org/2000/svg" version="1" viewBox="0 0 104 160">
	<title>
    A drawing of a thin egg open at top.
  </title>
	<path d="M91.697 1.382c-1.524 1.048-3.429 2.762-4.19 3.81-1.429 1.81-1.62 1.81-2.572.095-.571-.952-2-1.714-3.143-1.714-1.81 0-2 .38-1.333 3.524 1.048 6 6.476 16.952 7.714 15.714.762-.762.572-2.571-.666-6.19-.953-2.858-1.524-5.429-1.239-5.62.19-.285 1.429.381 2.667 1.334 1.524 1.238 2.286 2.952 2.381 5.428 0 2.762.572 3.905 2.381 4.762 1.714.762 2.286 1.81 2.286 4.572 0 2.095-.572 3.714-1.334 4.095-1.142.38-1.142 1.143.096 4.667 4 11.714 5.619 35.904 2.952 44.761-.762 2.477-1.429 4.762-1.429 5.239-.476 3.523-2.095 8.666-5.428 16.952-2.095 5.333-4.762 12.476-5.905 16-5.238 15.714-12.762 24.476-25.714 30.19-9.714 4.19-17.238 5.334-22.857 3.524-7.62-2.476-23.62-15.333-26.762-21.524-2.19-4.38-4-19.81-2.762-23.81 2.38-7.809 3.143-16.19 1.81-20.666-1.334-4.571-1.048-6.571 1.714-14.952 2.952-8.857 6.666-21.62 6.666-23.048 0-2.19 5.429-16.476 7.81-20.476 1.238-2 2.19-4.476 2.19-5.524 0-2.19 1.905-2.571 3.905-.666 1.048.952 1.238.666.762-1.905-.476-2.572-.19-3.238 1.81-4.19 3.047-1.43 3.142-2.763.19-5.334-2.095-1.905-2.095-2-.19-1.524 1.047.19 2.762.762 3.714 1.143 3.143 1.333 3.333-2.286.19-5.524-2.38-2.571-3.333-2.857-6.38-2.38-4.858.952-5.524 1.809-5.715 7.714-.19 8.762-1.333 12.857-6.476 23.238-4.286 8.666-6.095 13.714-11.048 30.476C4.46 75.287 3.221 83.383 3.03 95.287c-.095 7.429-.571 13.238-1.238 14-.571.762-1.333 4.476-1.619 8.286-.476 6.762-.38 6.952 3.143 11.143 2 2.285 3.62 5.142 3.62 6.38.094 1.239 3.047 5.334 7.523 10.191 7.905 8.571 10.571 9.905 22.571 12.095 2.953.572 6.762 1.524 8.286 2.096 1.524.57 6.476 1.142 11.048 1.142 7.428 0 8.666-.285 13.143-3.142 2.761-1.715 6-4 7.238-5.143 2.571-2.477 3.047-5.334.666-4.381-.857.285.477-2 2.857-5.143 8.572-11.333 11.048-17.143 16.572-38.952 1.714-6.477 3.714-13.62 4.476-16 .857-2.286 2-10.19 2.667-17.62 1.238-14.476.762-19.523-3.048-33.333-1.143-4-2.095-10.19-2.095-13.905-.095-5.619-.476-6.761-2-7.142-2.572-.667-2.381-1.715 1.048-4.953 3.142-3.047 4.666-7.047 3.333-9.047-1.524-2.286-6.572-2.477-9.524-.477zm2.286 8.19c0 .572-.667.953-1.524.953-.762 0-1.429-.38-1.429-.952s.667-1.048 1.429-1.048c.857 0 1.524.476 1.524 1.048zM5.03 121.764c0 3.238-.285 3.81-1.333 2.953-.762-.667-1.143-2.477-.952-4.572.571-4.762 2.285-3.524 2.285 1.62zm15.239 24c2.19 2.095 4.38 3.81 4.857 3.81.476 0 .857.476.857 1.047 0 1.81-7.81-2.952-10.286-6.285-5.428-7.334-4.762-7.143 4.572 1.428zm45.619 8.762c-4.19 2.286-15.048 4-13.334 2.19.572-.666 4-1.618 7.524-2.19 3.429-.571 6.571-1.238 6.762-1.524.286-.19.952-.38 1.524-.38.666 0-.476.857-2.476 1.904z"/>
</svg>
