<?xml version="1.0" encoding="utf-8"?>
<svg xmlns="http://www.w3.org/2000/svg" version="1" viewBox="0 0 212.08 153.354">
	<title>
    A drawing of a broken spear, carp mouth, snake.
  </title>
	<path d="M187.43 1.567c-17.143 6.381-26.572 13.524-31.048 23.81-2.571 5.81-2.476 8.571.762 16.19 3.143 7.524 7.81 12.857 18.19 21.048 13.048 10.19 17.239 14.38 20.096 20 3.238 6.571 3.714 9.619 2.571 18.285-1.428 11.143-4.285 16.667-10.571 20-5.714 3.143-16.286 5.81-22.952 5.81-5.048 0-5.715 1.143-2 3.619 5.714 3.714 23.523-.762 32.285-8.095 5.905-4.953 9.524-14.572 9.524-25.524 0-6.476-.381-8.286-3.048-13.238-4.476-8.286-5.714-9.62-18.857-20.571-16.38-13.524-18.857-16-21.238-21.239-3.428-7.619-3.428-8.285 0-15.047 2.762-5.143 4.476-7.048 9.81-10.667 7.428-5.047 16-9.238 18.666-9.238 1.048.095 3.143 1.143 4.667 2.381 2.19 1.81 2.762 2.857 2.19 4.476-.666 2.286.953 11.62 2.381 14.095.858 1.239 1.143 1.239 2.667 0 .952-.761 3.143-1.904 4.857-2.476 3.81-1.238 3.524-2.666-.666-4.095-1.81-.571-3.429-1.81-3.62-2.762-.38-2.286.572-2 4.667 1.048 3.334 2.476 3.524 2.571 4.762.857 1.905-2.572-1.428-8.667-6.762-12.572-2.286-1.619-4.666-4-5.238-5.238-1.428-2.952-5.619-3.238-12.095-.857zm-18.095 13.62c-.286.761-1.143 1.142-2 .856-1.715-.666-1.81-2-.096-2.571 1.81-.667 2.667.095 2.096 1.714zM14.478 13.948c-.286 1.81-.953 6-1.524 9.238-.667 3.334-1.524 11.62-2 18.476-1.62 21.905-2.095 27.334-3.048 34.858-.476 4-.952 9.81-.952 12.761 0 3.048-.667 8.762-1.524 12.858-.857 4-1.905 10.38-2.476 14.19-.476 3.81-1.429 9.905-2 13.714-.667 3.715-.857 8-.476 9.524l.666 2.667 1.048-2.286c.571-1.238 1.905-2.286 2.857-2.286 2 0 2.381-1.143 3.429-10.476.38-3.238 1.047-8.476 1.428-11.524 5.524-38.476 8.572-62.952 9.524-77.428.286-4.381 1.048-11.048 1.62-14.762l1.237-6.762-2.857-3.048c-3.619-3.714-4.286-3.714-4.952.286zm4.285 8.857c-1.714 1.048-2.857.19-2.19-1.619.476-1.238.952-1.238 2-.38 1.143.952 1.238 1.428.19 2zM109.716 29.758c-2.096 1.143-5.143 3.904-6.857 6.19-2.667 3.714-10.667 19.333-11.429 22.286-.095.476-.571 2.38-.952 4.19-.667 2.667-1.334 3.334-4.19 3.905-1.906.381-5.62.381-8.191 0-8.667-1.143-15.905 4-11.715 8.286 1.334 1.238 3.524 1.524 11.524 1.428l9.905-.19-1.048 3.143c-.476 1.81-.952 5.904-.857 9.238.095 8.286-2.476 20.952-4.952 24.476-2.381 3.429-6.381 4-7.905 1.238-1.238-2.476-2.952-15.524-2.952-23.143 0-6.762-.381-7.714-2.19-6.571-1.525.952-.572 24.762 1.142 29.143 1.524 4 4.857 7.333 7.429 7.333 2.38 0 6.19-3.143 8.761-7.048 2.477-3.904 5.715-19.047 5.715-26.952 0-7.429 1.143-11.238 3.238-10.571.667.285 6.095.666 12 1.047 6.095.381 13.619 1.524 17.524 2.667 3.714 1.143 7.714 2.095 8.952 2.19 1.62.096 2.286.762 2.286 2.286 0 4.762 3.428 11.81 7.81 16 4.761 4.571 6.856 5.333 7.809 2.857.38-.952-1.238-3.238-4.476-6.286-5.905-5.523-6.858-9.142-2.381-9.238 1.523 0 3.333-.38 4-.762 1.428-.952 3.238-6.476 3.238-10.095 0-2.285-.19-2.285-4.762-1.714-3.238.38-5.334.19-6.476-.667-.858-.666-2.858-5.523-4.286-10.762-4-14.571-9.524-29.619-11.62-31.81-1.523-1.713-7.809-4.285-9.809-4.094-.285 0-2.285.952-4.285 2zm8.952 5.238c1.143 1.238 2.762 3.619 3.62 5.428 2.856 5.429 10.761 28.762 10.19 30-.286.762-1.429.857-3.715.286-1.81-.476-9.047-1.333-16.19-1.905-13.334-1.143-17.62-1.904-17.62-2.952 0-.381 1.334-3.905 3.048-7.905 5.429-13.047 13.81-25.238 17.143-25.238.857 0 2.381 1.048 3.524 2.286zM54.001 130.71c0 .571 2.667 3.714 6 7.048 3.429 3.428 6 6.285 5.81 6.476-.19.19-2.857-.381-5.905-1.143-6.095-1.714-30.857-2-36.857-.476-2 .476-4.286.857-5.048.857-1.523.095-8.857.952-14.761 1.81-3.429.57-4.286 2.38-1.905 4.38 1.143.857 3.238.667 9.238-.952 10.857-2.857 37.524-4.571 46.095-2.857 6.667 1.333 6.667 2.857.095 2.857-4.38 0-5.904 1.714-3.238 3.714 2 1.429 3.715 1.334 15.715-.952 10-1.81 9.809-6.667-.477-12.572-2.952-1.714-6.857-4.38-8.762-6.095-3.523-3.143-6-4-6-2.095z"/>
</svg>
