<?xml version="1.0" encoding="utf-8"?>
<svg xmlns="http://www.w3.org/2000/svg" version="1" viewBox="0 0 187 146">
	<title>
    A drawing of a carp tail.
  </title>
	<path d="M20.132.391C13.75 1.153 9.56 3.344 9.56 5.63c0 2 1.334 1.905 5.238-.19 4.381-2.286 21.334-2.095 28.857.38 6.096 1.906 20.762 9.43 25.524 12.953 1.81 1.334 3.62 2.381 4.19 2.381.477 0 2.477 1.429 4.286 3.143 5.334 5.048 10.381 6.857 17.905 6.286 6.953-.476 10.476-1.81 11.429-4.19 1.047-2.667-1.143-3.81-4.572-2.477-4.38 1.62-3.333-.476 1.905-4.095 17.333-11.714 37.333-17.905 47.619-14.762 1.714.571 4.952 1.429 7.143 2 5.81 1.524 11.81 6.19 16 12.571 2.667 4 3.524 6.096 3.047 7.905-.38 1.334-5.714 7.524-11.904 13.81-7.81 7.81-12.286 13.238-14.572 17.523-1.81 3.429-3.714 6.286-4.285 6.286-.667 0-.762-.762-.381-1.714 2.38-5.81 2.476-7.524.476-8-1.048-.286-2-1.333-2.095-2.381-.096-1.048-.19-2.476-.286-3.143 0-.667 1.238-1.428 2.857-1.714 4.762-.857 4.19-2.857-.952-3.62-2.477-.38-4.857-.38-5.238 0-.381.382-.572 4.667-.477 9.525.286 8.285.096 9.238-3.428 16.666-2 4.286-4.667 9.048-5.905 10.381-1.238 1.334-3.714 6.762-5.524 12-3.047 8.953-3.238 10.476-3.714 28.19-.476 19.81-.095 21.81 3.905 21.81 1.619 0 1.81-.476 1.143-2.762-.381-1.524-.667-6.571-.667-11.238.095-6.667.667-9.905 2.667-15.047 1.428-3.524 3.428-9.143 4.285-12.477 2.096-7.143 7.429-19.428 8.476-19.428 1.334 0 2 4.476 1.334 9.047-.286 2.477-1.81 7.62-3.334 11.524-1.619 3.905-3.333 9.905-4 13.429-.666 3.524-1.619 7.047-2.285 7.714-.762.952-.667 1.62.19 2.571 1.81 1.715 3.81-1.428 5.143-8.19 1.429-6.857 2.095-8.952 5.429-16.667 2.476-5.81 2.571-6.476 1.904-19.619l-.666-13.619 2.666-.571c1.429-.381 3.62-2.19 4.858-4 4-5.905 9.047-11.62 19.428-22.19 8.19-8.286 10.095-10.762 9.62-12.477-.477-2-.382-2.095 1.523-.857 2.952 1.81 3.524.667 1.81-3.428-2.762-6.667-13.524-16.477-19.715-18a217.719 217.719 0 0 1-9.81-3.143c-13.809-4.857-24.38-2.953-46.856 8.285-1.905.858-6 3.81-9.143 6.381-8.476 6.953-12.286 7.238-22.667 1.715-4.38-2.286-8.38-4.572-8.952-5.048-.572-.476-5.143-2.952-10-5.429C44.132 1.915 31.465-1.132 20.132.391zm116.57 84.857c-2.19 4.572-4.856 11.524-6.094 15.429-2.572 8.476-4.096 11.143-4.096 7.429 0-5.905 4.762-18.762 10.762-28.953 4-6.952 3.715-3.333-.571 6.095zM.036 20.582v12.38l6.477 7.048c3.619 3.81 10.095 11.143 14.476 16.096 4.38 5.047 10.666 11.904 13.905 15.333 8.285 8.857 10.57 12.857 12.19 21.524 2.19 11.143 2.857 29.523 1.429 37.143-.667 3.619-1.429 7.809-1.715 9.333-.38 1.905-.095 2.762.953 2.762.952 0 2.095-2.953 3.619-9.81 1.143-5.333 2.19-10.952 2.19-12.476-.095-4.19 1.714-3.333 2.953 1.524.571 2.286 2.19 7.428 3.523 11.238 1.334 3.905 2.477 7.81 2.477 8.571 0 .857.666 2.381 1.428 3.429 1.143 1.524 1.714 1.714 2.667.762.857-.857.952-1.62.19-2.476-.571-.762-1.333-3.048-1.714-5.238-.381-2.19-1.333-5.239-2.19-6.762-.762-1.524-1.43-3.715-1.43-5.048 0-1.238-.666-3.524-1.428-5.143-.857-1.524-1.523-4.952-1.523-7.524 0-2.476-.572-6.38-1.143-8.571-.572-2.19-1.143-5.333-1.238-6.952-.096-1.715-.953-3.334-2.096-4-2.952-1.524-3.523-2.667-3.523-6.572-.096-4.857-4.096-12.38-6.762-12.857-1.238-.095-4.381-3.143-7.429-6.952-2.952-3.715-6.762-8.286-8.667-10.19-6-6.287-12.38-16.287-17.523-27.43-4.572-10.095-4.857-11.142-3.715-14 2.477-6 2.477-6.57.19-6.57-1.237 0-2.094.666-2.094 1.523 0 2.19-1.715 1.81-2.286-.571C.894 5.058-.06 9.248.037 20.582zM7.18 31.725c3.238 5.904 2.667 7.428-1.143 2.952-3.428-4-4.666-8.095-2.285-7.333.666.285 2.285 2.19 3.428 4.38zm47.715 76.857c.285.857.095 1.81-.381 2.095-.572.286-.953-.286-.953-1.429 0-2.476.476-2.666 1.334-.666z"/>
	<path d="M97.18 66.963c-.953 1.047-2.858 5.81-4.191 10.571-3.62 12.476-5.238 15.429-6.857 12.762-.858-1.333-3.62-15.429-3.62-18.38 0-1.715-.57-2.763-1.428-2.763-3.048 0-2.952 1.334 2.19 21.238 1.429 5.334 1.81 8.857 1.239 11.143-.858 4.095-.381 11.62.857 12.952 1.333 1.239 2.857-2.095 2.952-6.38.095-2 1.524-7.524 3.143-12.286 1.714-4.762 4.19-12.857 5.524-17.905 1.333-5.143 2.666-10.095 3.047-11.048.857-2.285-.762-2.19-2.857.096zM65.56 69.82c0 .286 1.905 3.81 4.19 7.714 2.382 3.905 5.62 9.714 7.239 12.857 2.666 5.143 4.571 7.143 4.571 4.953 0-1.143-7.333-15.238-11.047-20.953-2.858-4.571-4.953-6.571-4.953-4.571zM110.608 74.867c-.857 1.81-4.762 14.477-7.143 23.62-.952 3.523-.952 5.047-.095 5.904.571.667 1.333.857 1.714.572.286-.286 1.81-5.238 3.428-10.953 1.62-5.714 3.62-12.095 4.381-14.285 1.429-3.905 1.239-6.572-.476-6.572-.476 0-1.238.762-1.81 1.714z"/>
</svg>
