<?xml version="1.0" encoding="utf-8"?>
<svg xmlns="http://www.w3.org/2000/svg" version="1" viewBox="0 0 133 148">
	<title>
    A drawing of a simplified family group.
  </title>
	<path d="M67.286 1.513c-3.62 2.19-5.238 4.858-5.238 8.381 0 2.19-.572 2.477-5.81 3.143-3.143.381-16.38.667-29.524.476-25.81-.19-26.762-.095-26.666 5.238 0 3.334 2.285 4.667 4.952 3.048 1.333-.857 2.857-.857 5.619-.095 4.476 1.238 15.048 1.333 32.952.38 13.429-.761 19.715.096 20.762 2.858.476 1.333-1.905 34.667-2.857 38.38-.286 1.144-.952 9.715-1.524 18.953-.476 9.238-1.238 20.19-1.524 24.286-.285 4.095-.666 10.667-.761 14.476-.19 3.905-.667 11.714-1.143 17.333-.762 9.81-.762 10.381 1.047 10 2.096-.38 3.143-3.428 3.334-9.81 0-2.475.762-6.57 1.523-9.047.858-2.38 2.477-10.762 3.62-18.38 1.142-7.715 2.571-14.763 3.047-15.715s1.429-5.238 2-9.524c1.333-10.571 3.81-22.666 5.714-29.333 1.62-5.238 2-22.952.762-28.571C76.333 23.037 101 19.418 113 22.847c9.524 2.666 14.571 2.952 18 1.238 2.571-1.334 2.952-1.905 1.905-3.048-.572-.857-2.572-1.524-4.381-1.524-1.81 0-5.048-.571-7.143-1.333-2.095-.762-7.238-1.619-11.238-2.095-4.096-.381-10.19-1.524-13.524-2.572-3.333-1.047-6.857-1.904-7.714-1.904-.953 0-1.905-1.143-2.19-2.762-.382-1.905-2-3.715-4.953-5.429-6.095-3.81-10.476-4.38-14.476-1.905zm4.857 8.096c-2.762 2.285-4.095 2.476-4.095.666 0-2 .952-2.762 3.904-2.666h2.572l-2.381 2zM27.286 20.18c-.667.286-2 .286-3.048.095-.952-.285-.38-.476 1.238-.476 1.714-.095 2.476.19 1.81.381z"/>
</svg>
