<?xml version="1.0" encoding="utf-8"?>
<svg xmlns="http://www.w3.org/2000/svg" viewBox="0 0 123 151">
	<title>A drawing of a yet simpler beaver.</title>
	<path d="M63.444.767c-4.858.857-13.81 3.715-18.477 5.905-4 1.905-10.19 10.476-15.714 21.81-5.905 12.095-9.714 35.333-5.81 35.333 1.524 0 1.62-.476 3.524-12 1.429-9.238 3.334-15.429 7.429-24.476 4.286-9.429 8.38-15.715 9.619-14.953.571.381 2.952-.666 5.238-2.285 5.62-4 10.857-5.334 20.857-5.334 7.62 0 8.857.286 13.048 3.048 2.571 1.619 8 6.38 12.095 10.571 7.81 8 10.667 13.905 10.667 21.715 0 5.333-2.667 11.238-5.81 12.761-1.524.762-7.333 1.62-13.047 1.905-9.239.572-10.572.857-12.286 2.953-2.667 3.333-2.381 7.523.762 10 1.428 1.142 3.524 2.095 4.476 2.095 2.476 0 15.81 6.571 19.143 9.333 1.428 1.238 4.571 3.81 7.047 5.905 6.286 5.143 10.19 13.238 9.429 19.524-2.476 20.666-3.524 23.047-12.381 27.143-10 4.666-19.429 6.19-35.238 5.619-12.857-.477-13.429-.477-17.62 2.095-8.19 4.762-23.428 6.952-32.094 4.476-2.286-.571-5.62-2.381-7.334-4-2.571-2.476-3.047-3.62-3.047-7.81 0-6.38 2.762-10.571 10-15.428 5.428-3.714 8.095-6.952 4.38-5.429-1.047.477-3.714 1.238-5.904 1.715-4.571 1.142-10.952 5.238-13.714 8.952-1.143 1.619-2.096 4.952-2.477 8.667-.476 5.428-.19 6.666 2.19 10.762 2.191 3.81 3.906 5.238 9.239 7.714 6.095 2.857 6.952 2.952 14.571 2.38 10.858-.856 19.334-2.952 22.762-5.523 3.143-2.286 10.477-2.667 22.286-1.238 5.62.762 22-.667 29.429-2.572 3.904-.952 14.571-8.571 16.857-12 1.523-2.476 4.857-15.333 6-24 .857-6.095-2.953-14.57-10.381-23.047-3.143-3.62-20.572-14.762-26.095-16.762-2.858-1.048-5.143-2.19-5.143-2.667 0-.476 3.047-.857 6.762-.857 7.714-.095 11.619-1.333 16-5.047 8.38-7.143 9.428-16.477 3.333-29.429-4.572-9.81-9.62-15.524-19.238-22C79.729.196 73.824-1.042 63.444.767zM46.967 9.34c-.762.762-1.81 1.428-2.38 1.428-.667 0-.286-.666.761-1.524 2.476-1.81 3.143-1.81 1.62.096z"/>
	<path d="M78.11 25.434c.19 1.048 1.143 2 2.19 2.19 1.334.286 1.715-.095 1.43-1.428-.191-1.048-1.144-2-2.191-2.19-1.334-.286-1.715.095-1.429 1.428zM25.063 67.148c-.762.953-.858 2.286-.19 4.286.475 1.619 1.142 6.952 1.523 11.905.762 11.619 1.048 13.047 2.095 12.476.476-.286.953-5.905.953-12.476 0-15.62-1.239-20-4.381-16.19z"/>
</svg>
