<?xml version="1.0" encoding="utf-8"?>
<svg xmlns="http://www.w3.org/2000/svg" viewBox="0 0 199 151">
	<title>A drawing of a simplified river.</title>
	<path d="M29.934 1.385C19.362 2.528 6.886 5.957 5.077 8.243c-.572.666-.667 1.81-.19 2.571.761 1.143 2 1.048 7.713-.857 12.572-4.095 34.953-4.952 43.048-1.62 4.571 2 5.619 4.477 4.38 11.048-1.904 10.096-6.666 16-24.951 30.667-10.19 8.19-16.572 14.286-20.762 20-5.524 7.524-12 21.62-13.238 28.857-1.81 10.762-1.524 12.953 2.666 19.524 4.762 7.333 6.762 10.952 8.476 15.429 2.667 6.761 21.62 15.523 35.715 16.476 6.38.476 16.571-1.143 19.714-3.048 5.619-3.524 3.333-12.667-5.81-23.047-10.952-12.381-11.904-13.81-11.904-18.572 0-2.476-.572-4.095-1.715-4.762-1.047-.571-1.238-1.047-.571-1.047.762 0 2.667-2.286 4.38-5.048 3.144-5.143 7.43-8.095 13.525-9.333 4.571-1.048 8.476-5.62 9.143-10.762.666-5.81 2.476-9.143 8.095-15.143 5.81-6.19 8.666-7.714 15.524-8 6.095-.286 9.619 1.905 9.619 5.905 0 1.238.476 2.571 1.047 2.857 2.095 1.333.857 5.428-2.571 8.666-5.62 5.334-6.857 10-6.095 22.858l.666 10.952-3.428 4.762c-3.81 5.524-6.762 11.333-5.715 11.333.381-.095 1.715 3.334 2.953 7.524 2 6.38 3.238 8.571 8.762 14.762 8.19 9.047 11.333 10.762 17.428 9.524 2.476-.477 7.905-1.334 12.19-1.905 4.286-.572 9.715-1.62 12-2.476 2.382-.762 6.572-1.429 9.334-1.429 4.381 0 5.333-.38 7.048-2.762 2.476-3.524 4.952-14.285 4.571-20.762-.286-6.476 1.62-13.333 3.905-14.571 1.047-.571 1.905-1.714 1.905-2.476 0-1.81-3.62-9.334-7.143-14.953-4.572-7.333-11.715-22.952-12.857-28-1.62-6.857-2-23.142-.667-27.904 1.905-6.857 9.619-12.667 18.571-14 2.477-.381 5.143-1.238 5.905-1.81 1.048-.952 7.333-1.238 14.19-.666.858.095 3.43.095 5.715 0 3.905-.096 4.286-.381 4.286-2.667 0-3.714-3.429-4.572-16.762-4-14.953.571-20.381 1.905-27.238 6.571-7.715 5.238-10.667 8.19-12.477 12.476-1.714 4.286-2 13.048-.476 17.048.572 1.524 1.524 6.095 2.095 10.19 1.524 11.048 4.19 18.667 10.096 28.762 4.666 7.905 6.666 13.048 8.476 21.238.286 1.239-.476 4.572-1.714 7.429-1.905 4.476-2.096 6.19-1.524 12.952l.666 7.715-4.19 3.047c-2.857 2.096-5.429 3.143-7.81 3.143-2 0-6.571.667-10.095 1.429-9.428 2.19-10.762 2.38-19.333 3.143l-7.81.666-4.476-4.666c-5.333-5.62-9.81-14.953-8.952-18.572.38-1.428 2.286-4.19 4.19-6.19l3.62-3.715-.763-12.857c-.666-12.666-.666-12.857 1.905-16.285 1.334-1.905 4-6.477 5.905-10 3.143-6 3.333-6.762 2.095-9.048-.762-1.333-1.333-3.238-1.428-4.286 0-2.571-3.429-8.857-6.19-11.238-2.096-2-6.763-3.524-14.287-4.857-2.38-.476-4.666.381-10.476 3.81-4.19 2.476-8.952 5.619-10.666 6.952-4 3.333-9.429 13.524-10.19 19.524-.668 4.19-1.048 4.666-3.715 5.143-7.81 1.333-14.286 8-17.524 18-2.286 7.333-2.476 11.81-.571 16.285 1.619 4 17.238 25.905 19.238 27.048.762.38 1.428 1.428 1.428 2.19 0 1.048-1.428 1.524-5.333 1.715-8.19.285-14.952-.19-18.19-1.334-9.905-3.619-14.286-5.524-16.19-6.857-1.144-.857-4.953-6.952-8.382-13.524-5.619-11.047-6.095-12.476-5.714-17.047.286-3.429 1.81-7.905 4.667-13.524 5.904-11.429 9.428-15.62 29.428-34.762 8.19-7.905 17.81-19.524 22.571-27.238 2.477-4.19 2.858-12.952.667-18.19-2-4.762-9.714-10.19-16.38-11.62-2.858-.666-5.81-1.047-6.477-.952-.667 0-5.905.667-11.714 1.333zM66.98 78.91c0 .572-.476.953-1.047.953-.572 0-.953-.667-.953-1.524s.381-1.334.953-.953c.571.286 1.047 1.048 1.047 1.524zm-21.047 33.905c-2 1.333-3.238 1.333-2.476 0 .285-.476 1.333-.952 2.285-.952 1.429 0 1.524.19.19.952zm4.762 5.905c.571 1.714-1.429 1.333-2.19-.476-.382-.953-.096-1.43.57-1.143.667.19 1.43.952 1.62 1.619zm13.238 22.095c0 .476-.477 1.238-.953 1.524-.571.38-1.047-.096-1.047-.953s.476-1.523 1.047-1.523c.476 0 .953.38.953.952zm3.428-.095c.286.571-.095 1.238-.952 1.523-.857.286-1.429 0-1.429-.952 0-1.619 1.524-1.905 2.381-.571z"/>
</svg>
