<?xml version="1.0" encoding="utf-8"?>
<svg xmlns="http://www.w3.org/2000/svg" xmlns:svg="http://www.w3.org/2000/svg" version="1.1" viewBox="0 0 1400 590">
	<title>The titlepage for the Standard Ebooks edition of Just So Stories, by Rudyard Kipling</title>
	<g>
		<path d="m 291.92397,52.807016 -17.59064,0 0,50.900584 c 0,7.76608 -3.83626,10.8538 -8.88889,10.8538 -4.49123,0 -10.0117,-5.23976 -10.0117,-5.23976 l -5.61403,14.69006 c 0,0 7.01754,7.39181 18.05848,7.39181 15.43859,0 24.04678,-8.04678 24.04678,-23.20468 l 0,-55.391814 z"/>
		<path d="m 366.51461,52.807016 -17.59064,0 0,44.63158 c 0,12.912284 -3.92982,16.654974 -12.53801,16.654974 -8.60819,0 -12.53801,-3.74269 -12.53801,-16.654974 l 0,-44.63158 -17.59065,0 0,49.777774 c 0,19.08772 10.47954,28.81872 30.12866,28.81872 19.64912,0 30.12865,-9.731 30.12865,-28.81872 l 0,-49.777774 z"/>
		<path d="m 408.61988,51.403507 c -12.44444,0 -25.16959,9.169591 -25.16959,23.578948 0,8.046784 5.4269,15.251462 14.69006,19.836258 9.16959,4.584795 17.40351,7.111107 17.40351,12.725147 0,7.20468 -7.29825,7.57895 -11.13451,7.57895 -8.60818,0 -18.90058,-8.70176 -18.90058,-8.70176 l -8.79532,14.78363 c 0,0 10.94737,10.19883 29.00585,10.19883 15.06432,0 29.09941,-6.45614 29.09941,-24.88889 0,-10.105264 -9.45029,-17.40351 -18.05848,-21.052632 -8.79532,-3.742691 -16.09357,-6.83041 -16.09357,-11.134504 0,-4.210526 3.18129,-6.923976 9.1696,-6.923976 7.95321,0 15.62573,5.333333 15.62573,5.333333 l 7.11111,-14.035088 c 0,0 -9.91813,-7.298246 -23.95322,-7.298246 z"/>
		<path d="m 438.60671,68.245613 18.33919,0 0,61.754387 17.59064,0 0,-61.754387 18.33918,0 0,-15.438597 -54.26901,0 0,15.438597 z"/>
		<path d="m 561.41229,51.403507 c -12.44444,0 -25.16959,9.169591 -25.16959,23.578948 0,8.046784 5.4269,15.251462 14.69006,19.836258 9.16959,4.584795 17.40351,7.111107 17.40351,12.725147 0,7.20468 -7.29825,7.57895 -11.1345,7.57895 -8.60819,0 -18.90059,-8.70176 -18.90059,-8.70176 l -8.79532,14.78363 c 0,0 10.94737,10.19883 29.00585,10.19883 15.06433,0 29.09941,-6.45614 29.09941,-24.88889 0,-10.105264 -9.45029,-17.40351 -18.05848,-21.052632 -8.79532,-3.742691 -16.09356,-6.83041 -16.09356,-11.134504 0,-4.210526 3.18128,-6.923976 9.16959,-6.923976 7.95321,0 15.62573,5.333333 15.62573,5.333333 l 7.11111,-14.035088 c 0,0 -9.91813,-7.298246 -23.95322,-7.298246 z"/>
		<path d="m 597.37134,91.356724 c 0,22.549706 16.09357,40.046786 38.92398,40.046786 22.17543,0 38.83041,-17.49708 38.83041,-40.046786 0,-22.549708 -17.40351,-39.953217 -38.83041,-39.953217 -21.23977,0 -38.92398,17.403509 -38.92398,39.953217 z m 18.99415,0 c 0,-11.508772 6.36257,-23.017544 19.92983,-23.017544 13.66081,0 19.83625,11.508772 19.83625,23.017544 0,11.508776 -5.80117,23.017546 -19.83625,23.017546 -14.40936,0 -19.92983,-11.50877 -19.92983,-23.017546 z"/>
		<path d="m 745.08917,51.403507 c -12.44444,0 -25.16959,9.169591 -25.16959,23.578948 0,8.046784 5.4269,15.251462 14.69006,19.836258 9.16959,4.584795 17.40351,7.111107 17.40351,12.725147 0,7.20468 -7.29825,7.57895 -11.1345,7.57895 -8.60819,0 -18.90059,-8.70176 -18.90059,-8.70176 l -8.79532,14.78363 c 0,0 10.94737,10.19883 29.00585,10.19883 15.06433,0 29.09941,-6.45614 29.09941,-24.88889 0,-10.105264 -9.45029,-17.40351 -18.05848,-21.052632 -8.79532,-3.742691 -16.09356,-6.83041 -16.09356,-11.134504 0,-4.210526 3.18128,-6.923976 9.16959,-6.923976 7.95321,0 15.62573,5.333333 15.62573,5.333333 l 7.11111,-14.035088 c 0,0 -9.91813,-7.298246 -23.95322,-7.298246 z"/>
		<path d="m 775.07604,68.245613 18.33919,0 0,61.754387 17.59064,0 0,-61.754387 18.33918,0 0,-15.438597 -54.26901,0 0,15.438597 z"/>
		<path d="m 834.29388,91.356724 c 0,22.549706 16.09357,40.046786 38.92398,40.046786 22.17544,0 38.83041,-17.49708 38.83041,-40.046786 0,-22.549708 -17.40351,-39.953217 -38.83041,-39.953217 -21.23976,0 -38.92398,17.403509 -38.92398,39.953217 z m 18.99416,0 c 0,-11.508772 6.36257,-23.017544 19.92982,-23.017544 13.66082,0 19.83626,11.508772 19.83626,23.017544 0,11.508776 -5.80117,23.017546 -19.83626,23.017546 -14.40936,0 -19.92982,-11.50877 -19.92982,-23.017546 z"/>
		<path d="m 924.80995,52.807016 0,77.192984 17.59064,0 0,-30.502925 L 965.97954,130 l 22.36257,0 -26.5731,-31.906433 c 9.4503,-2.994152 15.81287,-10.760234 15.81287,-22.362574 0,-15.157895 -10.8538,-22.923977 -25.16959,-22.923977 l -27.60234,0 z m 17.59064,34.245615 0,-20.210527 2.05848,0 c 6.64328,0 14.59649,0.467836 14.59649,10.105263 0,9.637428 -7.95321,10.105264 -14.59649,10.105264 l -2.05848,0 z"/>
		<path d="m 1014.4693,52.807016 -17.59062,0 0,77.192984 17.59062,0 0,-77.192984 z"/>
		<path d="m 1074.9167,52.807016 -44.1638,0 0,77.192984 44.1638,0 0,-15.4386 -26.5731,0 0,-15.532161 25.4503,0 0,-15.438597 -25.4503,0 0,-15.345029 26.5731,0 0,-15.438597 z"/>
		<path d="m 1118.4737,51.403507 c -12.4445,0 -25.1696,9.169591 -25.1696,23.578948 0,8.046784 5.4269,15.251462 14.6901,19.836258 9.1696,4.584795 17.4035,7.111107 17.4035,12.725147 0,7.20468 -7.2983,7.57895 -11.1345,7.57895 -8.6082,0 -18.9006,-8.70176 -18.9006,-8.70176 l -8.7953,14.78363 c 0,0 10.9473,10.19883 29.0058,10.19883 15.0643,0 29.0994,-6.45614 29.0994,-24.88889 0,-10.105264 -9.4503,-17.40351 -18.0585,-21.052632 -8.7953,-3.742691 -16.0935,-6.83041 -16.0935,-11.134504 0,-4.210526 3.1813,-6.923976 9.1696,-6.923976 7.9532,0 15.6257,5.333333 15.6257,5.333333 l 7.1111,-14.035088 c 0,0 -9.9181,-7.298246 -23.9532,-7.298246 z"/>
	</g>
	<g>
		<path d="m 333.75274,232.10526 0,57.89474 13.19299,0 0,-22.87719 17.68421,22.87719 16.77193,0 -19.92983,-23.92982 c 7.08772,-2.24562 11.85965,-8.07018 11.85965,-16.77193 0,-11.36842 -8.14035,-17.19299 -18.87719,-17.19299 l -20.70176,0 z m 13.19299,25.68421 0,-15.15789 1.54386,0 c 4.98245,0 10.94736,0.35088 10.94736,7.57895 0,7.22807 -5.96491,7.57894 -10.94736,7.57894 l -1.54386,0 z"/>
		<path d="m 433.5455,232.10526 -13.19298,0 0,33.47369 c 0,9.68421 -2.94737,12.49123 -9.40351,12.49123 -6.45614,0 -9.4035,-2.80702 -9.4035,-12.49123 l 0,-33.47369 -13.19299,0 0,37.33334 c 0,14.31579 7.85965,21.61403 22.59649,21.61403 14.73685,0 22.59649,-7.29824 22.59649,-21.61403 l 0,-37.33334 z"/>
		<path d="m 446.41173,232.10526 0,57.89474 16.77193,0 c 15.92983,0 29.19299,-12.07018 29.19299,-28.98246 0,-16.8421 -13.33334,-28.91228 -29.19299,-28.91228 l -16.77193,0 z m 13.19299,46.10527 0,-34.31579 2.03508,0 c 9.82456,0 16.49123,7.50877 16.49123,17.19298 -0.0702,9.68421 -6.73684,17.12281 -16.49123,17.12281 l -2.03508,0 z"/>
		<path d="m 490.60033,232.10526 21.33333,31.92983 0,25.96491 13.19299,0 0,-25.96491 21.33333,-31.92983 -15.85965,0 -12.07017,18.52632 -12.07018,-18.52632 -15.85965,0 z"/>
		<path d="m 576.68695,232.10526 -12.21052,0 L 541.10801,290 l 14.17543,0 4.28071,-11.57895 22.03508,0 4.28071,11.57895 14.17543,0 -23.36842,-57.89474 z m 0.42106,34.73685 -13.05264,0 6.45615,-16.84211 0.14035,0 6.45614,16.84211 z"/>
		<path d="m 607.24505,232.10526 0,57.89474 13.19299,0 0,-22.87719 17.68421,22.87719 16.77193,0 -19.92983,-23.92982 C 642.05207,263.82456 646.824,258 646.824,249.29825 c 0,-11.36842 -8.14035,-17.19299 -18.87719,-17.19299 l -20.70176,0 z m 13.19299,25.68421 0,-15.15789 1.54386,0 c 4.98245,0 10.94736,0.35088 10.94736,7.57895 0,7.22807 -5.96491,7.57894 -10.94736,7.57894 l -1.54386,0 z"/>
		<path d="m 662.5466,232.10526 0,57.89474 16.77193,0 c 15.92982,0 29.19298,-12.07018 29.19298,-28.98246 0,-16.8421 -13.33333,-28.91228 -29.19298,-28.91228 l -16.77193,0 z m 13.19298,46.10527 0,-34.31579 2.03509,0 c 9.82456,0 16.49123,7.50877 16.49123,17.19298 -0.0702,9.68421 -6.73685,17.12281 -16.49123,17.12281 l -2.03509,0 z"/>
		<path d="m 796.24615,290 -26.94736,-30.45614 23.29824,-27.4386 -16,0 -19.85965,23.64913 0,-23.64913 -13.19298,0 0,57.89474 13.19298,0 0,-24.5614 21.33334,24.5614 18.17543,0 z"/>
		<path d="m 816.97313,232.10526 -13.19298,0 0,57.89474 13.19298,0 0,-57.89474 z"/>
		<path d="m 830.43585,232.10526 0,57.89474 13.19298,0 0,-21.47368 7.92983,0 c 11.29824,0 19.78947,-6.66667 19.78947,-18.5965 0,-11.99999 -8.49123,-17.82456 -19.78947,-17.82456 l -21.12281,0 z M 843.62883,258 l 0,-15.36842 3.7193,0 c 5.19298,0 10.10526,1.75439 10.10526,7.7193 0,5.89473 -4.91228,7.64912 -10.10526,7.64912 l -3.7193,0 z"/>
		<path d="m 895.36675,232.10526 -13.19299,0 0,57.89474 33.12281,0 0,-11.57895 -19.92982,0 0,-46.31579 z"/>
		<path d="m 939.97753,232.10526 -13.19299,0 0,57.89474 13.19299,0 0,-57.89474 z"/>
		<path d="m 966.63323,254.07018 0.14035,0 23.01754,35.92982 13.19298,0 0,-57.89474 -13.19298,0 0,35.92983 -0.14035,0 -23.01754,-35.92983 -13.19299,0 0,57.89474 13.19299,0 0,-35.92982 z"/>
		<path d="m 1068.7681,257.57895 -26.7368,0 0,10.17544 13.3333,0 c 0,7.08772 -6.2456,11.15789 -12.5614,11.15789 -8.1404,0 -14.7368,-8 -14.7368,-17.82456 0,-10.03509 6.5964,-18.10526 14.7368,-18.10526 5.1228,0 9.5439,2.03508 12.9123,7.43859 l 8.6316,-9.47368 c -5.0527,-6.10526 -12.1404,-9.89474 -22.3158,-9.89474 -16.2807,0 -28.2106,13.40351 -28.2106,30.03509 0,16.5614 12.6316,29.96491 28.2106,29.96491 11.3684,0 23.5789,-6.24561 26.7368,-20.91228 l 0,-12.5614 z"/>
	</g>
	<g>
		<path d="m 594.20663,453.16684 c 0,0.42508 0.34007,0.5101 0.59511,0.5101 0.34007,0 1.02019,0.0425 1.91286,0.0425 0.76515,0 1.02019,0.17003 1.02019,0.89267 0,2.42295 -1.91286,9.05419 -1.91286,12.2848 0,1.82784 0.29756,3.52816 1.5728,3.52816 1.57279,0 3.91073,-2.50797 3.91073,-2.50797 0.46759,-0.5101 1.23273,-1.95537 1.23273,-2.46546 0,-0.29756 -0.17003,-0.46759 -0.42508,-0.46759 -0.59511,0 -1.19022,2.21041 -2.63549,2.21041 -0.42508,0 -0.85016,-0.5526 -0.85016,-1.14771 0,-0.5101 0,-0.42508 1.27524,-8.45909 0.34006,-2.1679 1.14771,-3.82571 1.14771,-4.93092 0,-0.29756 -0.29755,-0.46759 -0.59511,-0.46759 -2.42295,0 -3.14559,0.38257 -4.84591,0.38257 l -0.42507,0 c -0.46759,0 -0.97769,0.0425 -0.97769,0.59511 z m 4.50585,-8.37407 c 0,0.42508 1.14771,2.25293 1.91286,2.25293 0.38257,0 1.87035,-1.40277 1.87035,-2.25293 0,-0.76514 -0.80766,-2.25292 -1.65781,-2.25292 -0.76515,0 -2.1254,1.87035 -2.1254,2.25292 z"/>
		<path d="m 605.93883,466.34431 c 0,3.99575 1.23273,3.99575 2.08289,3.99575 0.80765,0 2.59299,-0.85016 3.6982,-2.12539 1.02019,-1.19023 2.12539,-2.6355 2.12539,-3.06058 0,-0.42508 -0.21254,-0.68013 -0.51009,-0.68013 -1.10521,0 -1.53029,3.01807 -3.86823,3.01807 -0.5526,0 -0.68012,-0.21254 -0.68012,-1.65781 0,-1.44527 0.51009,-4.12327 1.23273,-9.13921 1.36025,-9.13922 0.63762,-7.56642 2.21041,-15.81297 0.12752,-0.80765 0.42508,-1.36025 0.42508,-1.95537 0,-0.42507 -0.21254,-0.68012 -0.89267,-0.68012 -1.1052,0 -2.04038,0.42508 -5.14346,0.63762 -0.5526,0.0425 -0.63762,0.38257 -0.63762,0.59511 0,0.46759 0.38257,0.59511 1.23273,0.59511 0.5101,0 0.59511,-0.0425 1.23273,-0.0425 0.63762,0 1.0627,0.34007 1.0627,0.85016 0,0.5101 -0.63762,4.33581 -1.36025,8.92667 -0.42508,2.72051 -0.63762,5.73858 -1.0202,8.41658 -0.085,0.68013 -1.19022,5.69607 -1.19022,8.11902 z"/>
		<path d="m 617.06396,466.34431 c 0,3.99575 1.23274,3.99575 2.08289,3.99575 0.80766,0 2.59299,-0.85016 3.6982,-2.12539 1.02019,-1.19023 2.1254,-2.6355 2.1254,-3.06058 0,-0.42508 -0.21254,-0.68013 -0.5101,-0.68013 -1.10521,0 -1.53029,3.01807 -3.86822,3.01807 -0.55261,0 -0.68013,-0.21254 -0.68013,-1.65781 0,-1.44527 0.51009,-4.12327 1.23273,-9.13921 1.36025,-9.13922 0.63762,-7.56642 2.21041,-15.81297 0.12753,-0.80765 0.42508,-1.36025 0.42508,-1.95537 0,-0.42507 -0.21254,-0.68012 -0.89266,-0.68012 -1.10521,0 -2.04039,0.42508 -5.14347,0.63762 -0.5526,0.0425 -0.63762,0.38257 -0.63762,0.59511 0,0.46759 0.38257,0.59511 1.23273,0.59511 0.5101,0 0.59511,-0.0425 1.23273,-0.0425 0.63762,0 1.0627,0.34007 1.0627,0.85016 0,0.5101 -0.63762,4.33581 -1.36025,8.92667 -0.42508,2.72051 -0.63762,5.73858 -1.02019,8.41658 -0.085,0.68013 -1.19023,5.69607 -1.19023,8.11902 z"/>
		<path d="m 626.83482,457.50266 c 0,0.29755 0.17003,0.5526 0.42508,0.5526 0.21254,0 0.46759,-0.17003 0.63762,-0.59511 0.59511,-1.36026 1.53029,-2.46546 1.91286,-2.46546 0.5526,0 0.85016,0.42508 0.85016,0.89266 0,2.59299 -1.91286,7.26887 -1.91286,11.85973 0,1.23273 0.29756,2.72051 1.44527,2.72051 3.10308,0 6.24867,-3.86823 8.16153,-6.58874 1.27524,-1.78533 1.48778,-2.72051 1.74283,-2.72051 0.12752,0 0.21254,0.17003 0.21254,0.46759 0,0.38257 -0.76515,3.7407 -0.76515,6.46121 0,1.31775 0.34007,2.29543 1.27524,2.29543 3.99575,0 6.63125,-4.33581 6.63125,-5.356 0,-0.38257 -0.0425,-0.89267 -0.59512,-0.89267 -0.89266,0 -1.06269,3.14559 -3.65568,3.14559 -0.38257,0 -0.93518,-0.085 -0.93518,-1.02019 0,-2.16791 2.59299,-12.45484 2.59299,-13.60255 0,-0.63762 -0.72264,-0.93518 -1.40276,-0.93518 -0.42508,0 -1.10521,0.12753 -1.23273,0.68013 -0.97769,3.7407 -2.16791,7.65144 -4.93093,11.00956 -1.99787,2.38045 -3.48565,4.37833 -4.84591,4.37833 -0.29755,0 -0.76514,-0.42508 -0.76514,-1.14772 0,-3.23061 1.57279,-7.9915 1.57279,-11.7322 0,-0.51009 -0.085,-3.10308 -1.6153,-3.10308 -2.84803,0 -4.8034,3.91073 -4.8034,5.69607 z"/>
		<path d="m 648.95557,467.70457 c 0,2.25292 3.06057,2.80553 4.71838,2.80553 5.44102,0 6.63125,-4.03826 6.63125,-5.56855 0,-2.84803 -1.61531,-4.03826 -2.93305,-5.52603 -1.0202,-1.10521 -3.35813,-2.84804 -3.35813,-4.46334 0,-1.27524 0.63762,-2.25292 2.25292,-2.25292 1.65781,0 1.82784,2.38044 3.35813,2.38044 0.21254,0 1.6153,-0.12752 1.6153,-1.44527 0,-1.65781 -1.65781,-2.21041 -3.95324,-2.21041 -3.31562,0 -5.78108,1.95536 -5.78108,4.8034 0,2.55048 1.6153,3.65568 3.31562,5.39851 1.53028,1.53029 2.93305,2.76302 2.93305,4.76089 0,0.5101 -0.29756,2.72051 -3.40064,2.72051 -2.59299,0 -1.87035,-2.93305 -4.03826,-2.93305 -0.51009,0 -1.36025,0.21254 -1.36025,1.53029 z"/>
		<path d="m 663.74767,453.42189 c 0,1.19023 2.50797,0.25505 2.50797,1.14772 0,1.14771 -1.78533,8.034 -1.78533,11.94474 0,3.31562 1.57279,3.99575 2.72051,3.99575 2.63549,0 6.24867,-2.89055 6.24867,-3.99575 0,-0.59512 -0.34006,-0.59512 -0.46759,-0.59512 -0.68012,0 -1.65781,1.87036 -3.99575,1.87036 -0.17003,0 -1.74282,-0.085 -1.74282,-2.33794 0,-0.68013 0.97768,-6.20617 1.36025,-8.84166 0.25505,-1.74283 0.12753,-2.50797 1.36026,-2.50797 0.93517,0 2.76302,0.21254 3.44314,0.21254 0.76515,0 1.02019,-0.25505 1.02019,-1.23273 0,-0.5101 -0.21254,-0.80765 -1.1052,-0.80765 -0.46759,0 -0.80765,0.0425 -2.46547,0.0425 -1.40276,0 -1.48777,-0.0425 -1.48777,-0.29755 0,-0.63762 0.76514,-2.63549 0.76514,-3.1881 0,-0.38257 -0.21254,-0.51009 -0.42508,-0.51009 -0.68013,0 -0.76514,0.5526 -2.46546,2.33793 -1.87035,1.95537 -3.48566,1.91286 -3.48566,2.76302 z"/>
		<path d="m 675.85515,457.41764 c 0,0.59511 0.34006,0.72264 0.51009,0.72264 0.21254,0 0.34006,-0.12753 0.46759,-0.25505 0.25505,-0.29756 0.59511,-2.84804 2.33794,-2.84804 0.76514,0 1.44527,0.76515 1.44527,2.89055 0,3.18809 -1.82784,9.43677 -1.82784,11.13708 0,1.0202 0.85015,1.10521 1.27523,1.10521 l 0.21254,0 c 1.53029,0 1.44528,0 2.38045,-7.22635 l 0.21254,-1.40277 c 0.21254,-1.78533 1.27524,-7.35387 3.1881,-7.35387 1.53028,0 1.36025,1.78533 2.29543,1.78533 0.76514,0 0.85016,-1.31775 0.93517,-1.6153 0.12753,-0.46759 0.46759,-1.02019 0.46759,-1.5728 0,-0.59511 -0.46759,-1.31774 -1.57279,-1.31774 -3.14559,0 -5.27099,4.37832 -5.56855,4.37832 -0.085,0 -0.12752,-0.0425 -1.19022,-2.80553 -0.25505,-0.68013 -0.68013,-1.48778 -1.5728,-1.48778 -0.38257,0 -3.99574,1.02019 -3.99574,5.8661 z"/>
		<path d="m 689.4464,465.15409 c 0,2.76302 0.5101,5.48353 4.54836,5.48353 4.03825,0 7.56641,-5.10096 7.77895,-5.10096 0.29756,0 -0.085,4.7609 2.6355,4.7609 1.14771,0 3.06057,-1.95537 4.12327,-3.48566 0.5526,-0.76514 0.76514,-1.40276 0.76514,-1.82784 0,-0.17003 -0.0425,-0.46759 -0.38257,-0.46759 -0.80765,0 -1.70032,2.76302 -3.10308,2.76302 -0.80765,0 -1.44527,-1.40276 -1.44527,-2.50797 0,-1.6153 0.42508,-3.57067 0.76514,-5.44102 0.34007,-1.91286 0.59511,-3.86823 0.97769,-5.44102 0.29755,-1.23273 0.85016,-2.25292 0.85016,-2.93305 0,-0.46759 -0.21254,-0.63762 -0.46759,-0.63762 -0.85016,0 -1.36026,2.08289 -2.21042,2.08289 -1.40276,0 -2.29543,-0.46759 -3.61317,-0.46759 -1.10521,0 -1.95537,0.21254 -3.10309,0.76515 -2.25292,1.0627 -4.20828,3.10308 -5.73857,5.52603 -1.31775,2.1254 -2.38045,4.54836 -2.38045,6.9288 z m 2.97556,-0.25505 c 0,-0.76514 0.085,-1.53028 0.21254,-2.29543 0.38257,-2.21041 1.40276,-4.12327 2.63549,-6.16365 1.27524,-2.16791 3.52817,-3.44315 5.27099,-3.44315 0.89267,0 2.80553,0.29756 2.80553,1.48778 0,0.12753 -1.14772,7.94899 -2.16791,9.98937 -0.38257,0.76515 -2.38044,3.82572 -5.44102,3.82572 -1.78533,0 -3.31562,-1.27524 -3.31562,-3.40064 z"/>
		<path d="m 711.32007,453.42189 c 0,1.19023 2.50797,0.25505 2.50797,1.14772 0,1.14771 -1.78534,8.034 -1.78534,11.94474 0,3.31562 1.5728,3.99575 2.72051,3.99575 2.6355,0 6.24868,-2.89055 6.24868,-3.99575 0,-0.59512 -0.34007,-0.59512 -0.46759,-0.59512 -0.68013,0 -1.65781,1.87036 -3.99575,1.87036 -0.17003,0 -1.74283,-0.085 -1.74283,-2.33794 0,-0.68013 0.97769,-6.20617 1.36026,-8.84166 0.25505,-1.74283 0.12752,-2.50797 1.36025,-2.50797 0.93518,0 2.76302,0.21254 3.44315,0.21254 0.76514,0 1.02019,-0.25505 1.02019,-1.23273 0,-0.5101 -0.21254,-0.80765 -1.10521,-0.80765 -0.46759,0 -0.80765,0.0425 -2.46546,0.0425 -1.40276,0 -1.48778,-0.0425 -1.48778,-0.29755 0,-0.63762 0.76514,-2.63549 0.76514,-3.1881 0,-0.38257 -0.21254,-0.51009 -0.42508,-0.51009 -0.68012,0 -0.76514,0.5526 -2.46546,2.33793 -1.87035,1.95537 -3.48565,1.91286 -3.48565,2.76302 z"/>
		<path d="m 723.56901,463.75133 c 0,3.78321 1.31774,6.75877 6.71626,6.75877 3.69819,0 7.39638,-2.97556 7.39638,-3.95325 0,-0.25504 -0.17003,-0.42508 -0.51009,-0.42508 -0.46759,0 -2.16791,1.82785 -4.59086,1.82785 -4.20829,0 -6.12115,-2.1254 -6.12115,-5.3135 0,-1.10521 0.12752,-1.74283 0.72263,-1.74283 3.99575,-0.0425 6.29118,-0.97768 6.67376,-1.14771 0.80765,-0.34006 4.12327,-2.08289 4.12327,-5.14346 0,-1.87036 -1.70032,-3.14559 -3.69819,-3.14559 -2.38045,0 -4.33582,0.76514 -5.90861,2.25292 -2.93305,2.72051 -4.8034,6.37619 -4.8034,10.03188 z m 3.48565,-4.42083 c 0,-0.5526 0.97768,-3.27311 2.25292,-4.59086 1.10521,-1.14772 2.42296,-1.99788 3.48566,-1.99788 0.72263,0 2.25292,0.38258 2.25292,1.99788 0,2.678 -3.48565,5.44102 -7.60893,5.44102 -0.29755,0 -0.38257,-0.5526 -0.38257,-0.85016 z"/>
		<path d="m 740.0342,464.6865 c 0,3.1881 1.48778,5.65356 5.10096,5.65356 4.20829,0 6.37619,-4.76089 6.75876,-4.76089 0.59512,0 -0.38257,4.76089 2.59299,4.76089 2.76302,0 5.44102,-4.2933 5.44102,-5.18597 0,-0.17003 -0.12752,-0.38257 -0.46759,-0.38257 -0.68012,0 -1.65781,2.63549 -3.52816,2.63549 -0.97768,0 -1.10521,-0.89266 -1.10521,-1.82784 0,-1.27524 0.42508,-3.95324 0.89267,-7.18385 2.38045,-17.38575 2.80553,-18.74601 2.80553,-19.85122 0,-0.38257 -0.29756,-0.72263 -0.68013,-0.72263 -1.14771,0 -0.89267,0.085 -3.27311,0.68013 -1.19023,0.29755 -2.67801,0.12752 -2.67801,0.85015 0,0.29756 0.25505,0.46759 0.68013,0.46759 0.0425,0 1.02019,-0.0425 1.48778,-0.0425 0.63762,0 1.23273,0.42508 1.23273,1.0627 0,0.29756 -1.40276,11.47715 -1.53028,11.47715 -1.19023,0 -2.04039,-0.5526 -3.14559,-0.5526 -5.05845,0 -10.58449,6.33369 -10.58449,12.92242 z m 2.97556,-1.19022 c 0,-4.46334 3.48565,-10.83953 7.39639,-10.83953 1.14771,0 2.84803,0.5526 2.84803,1.70032 0,1.70032 -0.63762,9.18172 -2.33794,11.30712 -1.10521,1.40276 -2.76302,2.21041 -4.2933,2.21041 -2.59299,0 -3.61318,-1.91286 -3.61318,-4.37832 z"/>
		<path d="m 771.23638,466.98193 c 0,2.46547 2.678,3.57067 5.18597,3.57067 6.58873,0 11.60467,-7.60892 11.60467,-13.39001 0,-2.76301 -1.48778,-5.39851 -4.67587,-5.39851 -4.88842,0 -6.88629,3.95324 -7.48141,3.95324 -0.085,0 -0.21254,-0.34006 -0.21254,-0.63762 0,-3.06057 2.72051,-15.72795 2.72051,-16.49309 0,-0.46759 -0.34006,-0.76514 -0.80765,-0.76514 -0.25505,0 -1.02019,0.25505 -2.678,0.46759 -1.95537,0.25504 -3.14559,0.21254 -3.14559,1.06269 0,0.59512 0.34006,0.59512 0.80765,0.59512 0.63762,0 1.10521,-0.085 1.74283,-0.085 0.85016,0 1.0627,0.29756 1.0627,0.5101 0,1.02019 -0.25505,2.50797 -0.63762,4.33581 -0.63762,3.14559 -1.14772,7.26886 -1.91286,11.68969 -0.59511,3.44315 -1.57279,7.86397 -1.57279,10.58448 z m 2.80552,-0.51009 c 0,-0.42508 0.46759,-4.97343 1.70032,-8.33156 1.36025,-3.6982 4.12327,-4.12328 5.14346,-4.12328 2.33794,0 4.16579,1.95537 4.16579,4.33582 0,4.88841 -3.91074,11.00956 -7.73646,11.00956 -2.63549,0 -3.27311,-1.44527 -3.27311,-2.89054 z"/>
		<path d="m 789.67222,475.3135 c 0,1.95536 1.70032,2.50797 3.52816,2.50797 3.99575,0 6.71626,-4.84591 8.71413,-9.90436 2.50797,-6.33369 3.52816,-12.19979 3.52816,-14.11265 0,-1.31774 -0.72263,-2.25292 -1.65781,-2.25292 -1.02019,0 -1.44527,0.80765 -1.44527,1.5728 0,1.14771 1.0627,1.99787 1.0627,3.2306 0,2.84804 -0.93517,7.39639 -1.53029,7.39639 -0.46758,0 -4.50584,-12.07226 -8.62911,-12.07226 -2.59299,0 -3.44315,3.69819 -3.44315,5.48352 0,0.72264 0.17003,0.93518 0.42508,0.93518 1.27524,0 0.38257,-3.1881 2.84803,-3.1881 2.25293,0 6.9288,10.96706 6.9288,13.3475 0,1.61531 -2.80552,7.05633 -5.27098,7.05633 -1.95537,0 -1.99788,-1.40277 -3.6982,-1.40277 -0.72263,0 -1.36025,0.68013 -1.36025,1.40277 z"/>
	</g>
	<g>
		<path d="m 444.16849,501.40351 0,38.59649 8.79532,0 0,-15.25146 11.78948,15.25146 11.18128,0 -13.28655,-15.95322 c 4.72515,-1.49707 7.90644,-5.38011 7.90644,-11.18128 0,-7.57895 -5.42691,-11.46199 -12.5848,-11.46199 l -13.80117,0 z m 8.79532,17.12281 0,-10.10527 1.02924,0 c 3.32164,0 7.29825,0.23392 7.29825,5.05263 0,4.81872 -3.97661,5.05264 -7.29825,5.05264 l -1.02924,0 z"/>
		<path d="m 512.36367,501.40351 -8.79532,0 0,22.31579 c 0,6.45614 -1.96492,8.32748 -6.26901,8.32748 -4.30409,0 -6.26901,-1.87134 -6.26901,-8.32748 l 0,-22.31579 -8.79532,0 0,24.88889 c 0,9.54386 5.23977,14.40935 15.06433,14.40935 9.82456,0 15.06433,-4.86549 15.06433,-14.40935 l 0,-24.88889 z"/>
		<path d="m 522.60782,501.40351 0,38.59649 11.18129,0 c 10.61988,0 19.46199,-8.04678 19.46199,-19.32164 0,-11.22807 -8.88889,-19.27485 -19.46199,-19.27485 l -11.18129,0 z m 8.79532,30.73684 0,-22.87719 1.35673,0 c 6.54971,0 10.99415,5.00585 10.99415,11.46199 -0.0468,6.45614 -4.49123,11.4152 -10.99415,11.4152 l -1.35673,0 z"/>
		<path d="m 553.73355,501.40351 14.22223,21.28655 0,17.30994 8.79532,0 0,-17.30994 14.22222,-21.28655 -10.5731,0 -8.04678,12.35088 -8.04679,-12.35088 -10.5731,0 z"/>
		<path d="m 612.79131,501.40351 -8.14035,0 L 589.07201,540 l 9.45029,0 2.8538,-7.7193 14.69006,0 2.8538,7.7193 9.45029,0 -15.57894,-38.59649 z m 0.2807,23.15789 -8.70176,0 4.3041,-11.22807 0.0936,0 4.30409,11.22807 z"/>
		<path d="m 634.83005,501.40351 0,38.59649 8.79532,0 0,-15.25146 11.78948,15.25146 11.18128,0 -13.28655,-15.95322 c 4.72515,-1.49707 7.90644,-5.38011 7.90644,-11.18128 0,-7.57895 -5.4269,-11.46199 -12.5848,-11.46199 l -13.80117,0 z m 8.79532,17.12281 0,-10.10527 1.02924,0 c 3.32164,0 7.29825,0.23392 7.29825,5.05263 0,4.81872 -3.97661,5.05264 -7.29825,5.05264 l -1.02924,0 z"/>
		<path d="m 673.36441,501.40351 0,38.59649 11.18129,0 c 10.61988,0 19.46199,-8.04678 19.46199,-19.32164 0,-11.22807 -8.88889,-19.27485 -19.46199,-19.27485 l -11.18129,0 z m 8.79532,30.73684 0,-22.87719 1.35673,0 c 6.54971,0 10.99415,5.00585 10.99415,11.46199 -0.0468,6.45614 -4.49123,11.4152 -10.99415,11.4152 l -1.35673,0 z"/>
		<path d="m 765.8308,540 -17.96492,-20.30409 15.53217,-18.2924 -10.66667,0 -13.23977,15.76608 0,-15.76608 -8.79532,0 0,38.59649 8.79532,0 0,-16.37427 14.22223,16.37427 12.11696,0 z"/>
		<path d="m 781.31544,501.40351 -8.79533,0 0,38.59649 8.79533,0 0,-38.59649 z"/>
		<path d="m 791.95725,501.40351 0,38.59649 8.79532,0 0,-14.31579 5.28655,0 c 7.53216,0 13.19298,-4.44444 13.19298,-12.39766 0,-8 -5.66082,-11.88304 -13.19298,-11.88304 l -14.08187,0 z m 8.79532,17.26316 0,-10.24562 2.47953,0 c 3.46199,0 6.73684,1.16959 6.73684,5.1462 0,3.92983 -3.27485,5.09942 -6.73684,5.09942 l -2.47953,0 z"/>
		<path d="m 836.9112,501.40351 -8.79532,0 0,38.59649 22.08187,0 0,-7.7193 -13.28655,0 0,-30.87719 z"/>
		<path d="m 868.31837,501.40351 -8.79533,0 0,38.59649 8.79533,0 0,-38.59649 z"/>
		<path d="m 887.7555,516.04678 0.0936,0 L 903.1941,540 l 8.79532,0 0,-38.59649 -8.79532,0 0,23.95321 -0.0936,0 -15.34503,-23.95321 -8.79532,0 0,38.59649 8.79532,0 0,-23.95322 z"/>
		<path d="m 957.51207,518.38596 -17.82456,0 0,6.78363 8.88889,0 c 0,4.72515 -4.16375,7.4386 -8.37427,7.4386 -5.4269,0 -9.82456,-5.33334 -9.82456,-11.88304 0,-6.69006 4.39766,-12.07018 9.82456,-12.07018 3.4152,0 6.36257,1.35673 8.60818,4.95906 l 5.75439,-6.31578 c -3.36842,-4.07018 -8.09357,-6.5965 -14.87719,-6.5965 -10.8538,0 -18.80702,8.93568 -18.80702,20.0234 0,11.04093 8.42105,19.9766 18.80702,19.9766 7.57894,0 15.7193,-4.16374 17.82456,-13.94152 l 0,-8.37427 z"/>
	</g>
</svg>
