<?xml version="1.0" encoding="utf-8"?>
<svg xmlns="http://www.w3.org/2000/svg" version="1">
	<path d="M14.986 1.152c-1.523.571-2.761 1.714-2.761 2.476s-.858 2.286-2 3.429c-1.143 1.238-2 2.762-2 3.524 0 .761-.858 2.38-2 3.523-2.762 2.953-2.667 10.286.285 16.477 1.238 2.666 2.667 5.142 3.238 5.523 1.239.857.667 25.143-.571 25.62-.571.19-.952 3.142-.952 6.57 0 3.334-.381 6.572-.858 7.144-.476.476-1.428 4.285-2.095 8.38-.666 4.191-1.619 9.334-2.095 11.524-.476 2.19-1.143 7.429-1.429 11.524-.38 4.095-.857 10.381-1.238 14-.857 10.762-.571 34.095.572 40.952 3.524 21.429 4.571 25.81 7.333 32 1.143 2.477 2.476 5.715 3.048 7.048 2.285 5.429 4.285 9.524 5.047 9.81.381.19.762 1.142.762 2.095 0 .857.857 2.286 2 3.047 1.048.858 2 2.286 2 3.143-.095 3.81 1.143 4.857 5.143 4.857 2.19 0 4.857.572 6 1.143 1.429.762 2.286.762 3.143 0 .571-.571 3.428-1.143 6.286-1.143 7.238 0 8.095-.476 9.523-6 1.62-6.38 6.858-12 11.238-12 1.43 0 2.762-.38 3.143-.952.286-.571 1.905-1.048 3.524-1.048 1.524 0 3.048-.38 3.429-.857.285-.476 2-1.047 3.81-1.333 1.714-.286 5.904-1.333 9.237-2.286 11.334-3.238 12.953-3.619 16.19-4.19 1.81-.286 3.334-.953 3.334-1.429 0-.476 1.048-.857 2.476-.857 1.334 0 2.476-.476 2.476-1.048 0-.476.858-.952 1.81-.952.952 0 2.667-.667 3.714-1.429 1.143-.857 2.762-1.523 3.715-1.523.952 0 1.81-.477 1.81-1.048 0-.571.951-1.048 2.19-1.048 1.333 0 2.952-.857 3.81-2 .761-1.047 2-2 2.761-2 .667 0 2.476-1.047 4-2.476 1.429-1.333 3.143-2.476 3.714-2.476.572 0 1.715-.857 2.476-2 .762-1.143 1.81-2 2.286-2s5.048-2 10.19-4.476c5.048-2.476 10-4.572 10.858-4.572.857 0 1.81-.38 2.095-.857.286-.476 2-1.143 3.81-1.428 1.81-.286 4.761-.857 6.476-1.238 3.238-.667 3.333-.572 3.333 3.238 0 6.952 2.952 8.285 16.286 6.952 4.285-.38 5.143-.857 6.38-3.524 1.715-3.428 3.334-4.095 3.334-1.333 0 1.048 1.238 2.571 2.952 3.524 2.762 1.714 3.048 1.714 4.953 0 2.19-1.905 2.666-3.334 1.047-3.334-1.142 0-6-4.38-6-5.428 0-.286.858-.572 2-.572 1.143 0 2 .477 2 1.048 0 .572.858.952 2 .952 2 0 2.477 2 2.096 7.524-.286 2.953-2.19 7.524-3.238 7.524-.477 0-.858.667-.858 1.429s-.476 1.523-1.047 1.714c-.572.286-1.334 2.286-1.62 4.667-.475 3.523-.19 4.666 1.525 6.19 1.142 1.143 3.142 2 4.476 2 1.333 0 4.095 1.524 6.285 3.524 4.477 4.095 6.096 4.095 8.381 0 1.62-2.953 6-4.762 6-2.572 0 .572.572 1.048 1.334 1.048 2 0 5.619 4.667 5.714 7.238 0 2.857 2.095 9.048 3.714 10.953.667.761 1.524 4.095 1.81 7.333.38 3.333 1.143 6.857 1.714 8 .667 1.047 1.429 4 1.81 6.476 1.619 10.095 2.095 12.571 2.952 14.476.476 1.143 1.048 4.095 1.238 6.476.286 2.477 1.333 7.905 2.571 12 1.143 4.19 2.096 9.334 2.096 11.62 0 2.19.571 4.57 1.238 5.237.666.667 1.333 2.953 1.428 4.953.381 5.905 1.524 11.238 2.477 11.238.476 0 .952 3.143.952 6.952 0 4.381.38 7.048 1.143 7.238 1.714.572 1.81 109.905.19 111.905-.666.762-1.428 4.762-1.714 8.857-.476 7.143-1.333 13.143-3.524 26-2.286 13.238-3.238 18.476-3.905 19.429-1.142 2-2.476 10.095-2.857 18.571-.285 4.762-.857 9.429-1.333 10.572-1.238 2.476-1.905 11.428-2.571 31.428-.286 8.572-1.048 18.667-1.715 22.571-2.571 15.143-1.047 71.62 2.286 86.286.476 2.286.952 5.333.952 6.667 0 1.333.477 2.666 1.048 3.047.476.286.952 2 .952 3.715 0 2.952.762 6.095 3.524 13.714.667 2 1.714 5.333 2.381 7.524.667 2.19 1.62 4.952 2 6 .476 1.143 1.333 3.238 2 4.857.572 1.524 1.143 3.619 1.143 4.667 0 1.142.286 2 .762 2 1.047 0 4.19 6.476 4.19 8.571 0 .762.477 1.429 1.048 1.429.476 0 .952 1.142.952 2.476 0 1.428.381 2.476.762 2.476.476 0 1.81 2.19 3.143 4.762 1.333 2.666 2.762 5.428 3.238 6.286.476.857 1.143 2.19 1.524 2.952 1.714 3.714 8.38 8 12.476 8.095 1.81 0 5.143.667 7.333 1.524 5.143 1.81 10.953 1.81 17.143-.095 2.667-.762 5.81-1.429 7.048-1.429 1.238 0 2.286-.38 2.476-.857.19-.381 2.381-1.81 4.857-2.952 6.667-3.238 10.19-5.429 12.953-8.286 1.428-1.333 3.81-3.048 5.238-3.714 1.524-.667 3.047-2.286 3.428-3.715.286-1.428.953-2.476 1.334-2.571 1.428 0 7.142-6.381 7.714-8.667.286-1.238.952-2.285 1.428-2.285.477 0 .953-.953.953-2.19-.095-1.144 1.428-3.906 3.238-6.191 1.81-2.286 3.714-5.238 4.38-6.667 3.715-8.19 4.572-10.571 5.43-15.238 1.523-7.81 2.19-23.714 1.142-28.19-1.143-5.62-4.762-6.096-9.523-1.239-8 8.286-15.524 8.762-21.905 1.524-4.381-4.857-6.857-9.238-6.762-12 0-.952-.476-2.571-.952-3.619-1.048-2-3.334-8.19-4.953-13.238-.667-2-1.143-5.524-1.143-7.81 0-2.38-.476-5.047-.952-6.095-1.524-2.762-1.714-63.81-.19-65.238.666-.762 1.142-4.19 1.142-8.476 0-4.571.381-7.333 1.048-7.333s1.048-1.62.857-3.715c-.095-2.095.571-6.38 1.524-9.523 1.333-4.477 1.428-6.096.476-7.905-1.143-2.095-.476-5.714 2.19-12.667.477-1.238.858-3.333.858-4.571 0-1.238.571-2.667 1.143-3.334.57-.57 1.142-4.476 1.238-8.57.095-4.096.476-7.334.857-7.144.857.572 1.714-3.714 2.857-14.19.476-4.857 1.238-10.953 1.714-13.429.476-2.666.476-5.333-.19-6.762-.667-1.619-.572-2.952.19-4.285.667-1.048 1.238-4.286 1.238-7.239 0-2.857.381-5.714.953-6.19.476-.571 1.142-4.095 1.333-8 .286-3.81 1.048-9.238 1.714-12 1.905-8.476 2.286-12.476 1.143-12.476-1.524 0-1.524-11.524 0-14.286 1.524-2.666 1.524-33.238 0-35.047-.476-.667-1.238-7.429-1.524-15.143-.857-20.572-1.714-29.905-2.762-30.953-.476-.571-.857-3.714-.857-7.047 0-3.334-.476-7.62-1.047-9.524-.572-1.905-1.429-7.524-2-12.476-.572-4.953-1.429-11.238-2-14-.572-2.762-1.334-6.476-1.62-8.286-.285-1.81-.952-3.524-1.428-3.81-.476-.285-.857-3.333-.857-6.761 0-3.429-.572-6.762-1.238-7.429-1.524-1.619-1.524-39.905 0-41.524.666-.571 1.238-2.285 1.238-3.714 0-3.048 2.667-9.048 4-9.048.476 0 1.238-1.047 1.524-2.476.38-1.333.952-2.476 1.428-2.476.381 0 2.095-1.333 3.81-3.048 1.714-1.619 4.095-2.952 5.143-2.952 1.142 0 2.095-.476 2.095-1.048 0-.476 1.238-.952 2.857-.952 3.62 0 12.857-1.81 15.619-3.048 2.095-.952 16.952-2.761 29.524-3.619 4.095-.285 7.905-.857 8.38-1.428.572-.476 4.191-.953 8-.953 3.906 0 8.858-.666 11.048-1.428 2.19-.762 6.381-1.429 9.238-1.524 4.572 0 14.572-2.476 20.762-5.048 1.905-.761 5.334-1.333 15.81-2.57 2.571-.287 4.762-.953 4.762-1.525 0-.476 1.524-.857 3.428-.857 2.096 0 5.238-1.047 7.524-2.476 2.19-1.429 4.381-2.571 4.857-2.571s1.62-.858 2.667-2c.952-1.048 2.571-2 3.524-2 .952 0 3.333-1.048 5.333-2.477 2.095-1.333 4.095-2.476 4.667-2.476.476 0 .952-.38.952-.857 0-.476 1.238-1.429 2.762-2.19 1.524-.762 5.143-3.81 8-6.667 2.952-2.953 5.714-5.333 6.286-5.333a.954.954 0 0 0 .952-.953c0-.571 1.333-2.286 3.048-3.81 1.619-1.618 2.952-3.618 2.952-4.38 0-.857.667-2.096 1.524-2.857.762-.667 1.524-1.81 1.524-2.572s.38-1.428.952-1.428c.571 0 1.048-.858 1.048-2 0-1.048.38-2 .952-2 .571 0 1.048-.858 1.048-1.905 0-1.048 1.047-3.048 2.476-4.476 1.333-1.334 2.476-3.429 2.476-4.572 0-1.047.476-2 1.048-2 1.047 0 1.238-2.952.285-5.428-.476-1.429-2.666-1.62-16.666-1.524-9.238.095-16.667.571-17.429 1.143-.666.571-1.238 2.38-1.238 4 0 1.619-.667 3.143-1.524 3.428-2 .762-6.476-1.143-9.714-4.19-1.524-1.334-3.143-2.476-3.81-2.476-.57 0-5.333-4.19-10.476-9.334-7.047-7.047-9.428-10.095-9.428-12 0-1.428-.381-2.666-.857-2.666-.953 0-3.143-5.905-3.143-8.667 0-1.143-1.143-2.762-2.476-3.714-2.667-1.62-9.524-2.19-9.62-.667 0 .476-4 1.143-8.952 1.524-8.952.762-9.428.952-9.047 4.762.38 3.81-1.81 5.81-6.19 5.81-2.382 0-6.953.475-10.287 1.047-3.238.571-12.095 1.524-19.428 2.095-7.429.476-18 1.429-23.524 1.905-19.333 1.905-24.762 2.19-25.81 1.047-.666-.571-3.428-1.142-6.38-1.142-2.858 0-5.524-.381-5.81-.953-.38-.571-2-1.047-3.619-1.047-1.619 0-4.571-.667-6.571-1.429-2-.857-4.19-1.524-5.048-1.524-.762 0-3.238-.857-5.524-2s-5.143-2-6.38-2c-1.239 0-2.572-.476-2.858-1.047-.38-.477-1.524-.953-2.571-.953-1.143 0-2.762-.38-3.715-.952-.952-.476-4.571-1.714-8-2.762-3.428-.952-6.19-2.095-6.19-2.571 0-.381-1.714-.762-3.81-.762-2.095 0-4.285-.381-4.761-.858-3.143-2.952-27.81-3.047-34.953-.095-5.143 2-14.095 6.572-14.38 7.238-.191.381-1.144.762-2.191.762-1.048 0-1.905.381-1.905.857 0 .477-.857 1.238-1.81 1.524-.952.381-2.666 1.238-3.714 1.905-6.762 4.286-11.047 7.048-11.524 7.619-.285.286-1.81 1.238-3.333 2.095-3.429 1.714-16.857 1.905-17.429.095-.19-.571-1.714-1.142-3.333-1.142-1.619 0-2.857-.381-2.857-.953 0-.571-1.619-1.047-3.524-1.047s-3.524-.381-3.524-.953c0-.571-.952-1.047-2.095-1.047-1.143 0-3.524-.572-5.238-1.334-5.333-2.285-16.286-5.619-18.476-5.619-1.143 0-2.381-.476-2.667-1.047-.38-.477-2-.953-3.714-.953-1.62 0-4.19-.857-5.714-1.905-1.524-1.047-3.905-2.285-5.429-2.666-1.428-.381-2.952-1.048-3.238-1.524-.286-.476-2.762-.952-5.429-.952-2.666 0-5.142-.381-5.523-.953-.286-.571-2.381-1.047-4.477-1.047-2.095 0-4.19-.381-4.476-.953-.38-.571-1.81-1.047-3.143-1.047-1.428 0-3.428-.477-4.571-1.048-1.143-.667-4.857-1.524-8.19-2-3.334-.381-8.572-1.333-11.62-1.905-3.047-.666-7.428-1.428-9.714-1.714-2.38-.286-4.285-.857-4.285-1.429 0-.476-1.62-.857-3.524-.857-1.905 0-3.429-.476-3.429-1.047 0-.477-1.143-.953-2.476-.953s-5.048-.666-8.19-1.524c-3.239-.761-7.239-1.523-9.048-1.523-1.81 0-3.333-.381-3.333-.858 0-.476-3.905-1.142-8.762-1.523C29.273 2.295 24.7 1.723 23.748.77c-1.238-1.143-5.238-.952-8.762.381zM90.13 40.771c.381.476 2.667 1.143 5.143 1.429 19.429 2.476 21.524 2.857 23.524 4.761 1.619 1.524 3.524 1.905 9.619 1.905 7.048 0 7.81.19 10.857 2.953 1.714 1.714 3.81 3.047 4.476 3.047.762 0 3.048 1.143 5.048 2.476 2.095 1.429 4.762 2.477 6.095 2.477 2.381 0 3.143-1.334 1.333-2.477-1.904-1.142-.952-2.476 1.81-2.476 1.619 0 3.714.857 4.667 1.905.952 1.048 2.285 1.714 3.047 1.429 1.524-.572 6.476 4.095 6.476 6.19 0 .857-1.333 1.429-3.714 1.619-3.143.286-3.81.762-3.905 2.667-.095 2 .286 2.285 2.286 1.714 2-.476 2.476-.286 2.19 1.143-.19 1.047-.857 1.81-1.523 1.81-.667 0-1.429.285-1.715.57-.285.287-2.761.477-5.523.287-3.429-.096-5.334.285-6.286 1.333-2.571 3.143 3.048 4.667 20.667 5.714 2.285.095 3.238-.476 4.285-2.667 1.143-2.285 1.715-2.571 2.857-1.619.762.667 1.143 2 .858 3.048-.762 2.381.38 2.381 2.095.095 1.81-2.38 5.047-.476 4.571 2.762-.19 1.238.476 2.762 1.524 3.524 2.381 1.714 3.62.857 2.381-1.524-1.524-2.762-1.333-3.047 1.714-3.047 1.715 0 3.238-.762 4-2 1.524-2.381 6.286-2.667 6.19-.381 0 1.142-.57 1.523-1.904 1.142-2.19-.571-2.762.477-2.667 4.762.096 3.048.096 3.048 6.857 3.334 5.143.19 6.762.666 6.762 1.714 0 .857-.857 1.429-2 1.429-2.095 0-2.666 1.523-.952 2.571 1.905 1.143.952 2.476-2 2.476-5.714 0-6.095.476-6 9.333 0 7.143.19 8.381 2 9.429 1.048.667 2 1.905 2 2.667 0 .762.476 1.619 1.238 1.81.667.285-.476 1.237-2.667 2.094-3.238 1.429-4 1.429-5.238.19-.762-.761-1.333-2.094-1.333-3.047-.095-.857-.476-1.333-1.048-.952-.666.38-.666 1.238 0 2.571.858 1.429.762 2.096-.38 2.477-1.715.666-5.62-2.381-5.62-4.381 0-2.19-13.904-.572-16.285 1.904-1.048 1.048-1.62 2.286-1.334 2.667.19.381-1.428.857-3.714 1.048-2.286.095-4.667.952-5.238 1.714-.667.857-1.905 1.429-2.762 1.429-2.571 0-4.095 3.809-2.667 6.57 1.048 1.906 1.62 2.191 3.905 1.43 1.429-.477 6.19-1.334 10.476-1.81 5.143-.667 8.477-1.62 9.524-2.667 1.524-1.523 1.429-1.619-.571-1.047-2.857.857-7.334-2-7.334-4.572 0-1.619.762-1.904 5.429-1.904 5.048 0 5.619.285 7.238 3.047 1.62 2.857 2.095 3.048 8.286 3.048 7.81.095 5.524 1.81-2.476 1.904-3.524 0-8.096 1.334-15.048 4.096-7.905 3.333-10.667 4-13.714 3.524-2.572-.381-3.62-.286-3.238.38.38.572 1.142.762 1.714.381.667-.38.857-.19.38.477-.38.666-1.618 1.142-2.666 1.142-1.047 0-4.571.858-7.714 1.905-3.143 1.048-7.048 2.19-8.571 2.572-2.572.571-2.762.476-1.715-.762.667-.762 2.762-1.715 4.572-2.095 3.333-.667 5.523-2.953 5.523-5.715-.095-.952-.476-.762-1.428.381-.667 1.048-2 1.524-2.857 1.238-1.429-.571-4.095 1.334-5.048 3.715-.38 1.047-.762.952-1.524-.19-.857-1.239-1.143-1.239-1.714.285-.476 1.143-1.333 1.619-2.571 1.143-1.048-.286-1.81-.096-1.81.476 0 .571-1.238 1.714-2.762 2.571l-2.762 1.62 3.524-.477 3.429-.571-3.429 1.904c-4.095 2.286-8.19 2.762-6.286.858 1.715-1.715 1.524-2.858-.571-2.858-.952 0-2.19-.38-2.762-.952-.571-.571-2.286-.476-4.571.286-4.953 1.714-7.048 3.619-6.286 5.81.476 1.523 0 1.904-2.095 1.904-1.429 0-2.286-.476-2-1.048 1.047-1.619-2.857-1.047-6.286 1.048-1.81 1.143-3.81 2-4.476 2-.667.095-3.048.952-5.238 2-2.19 1.048-4.572 1.905-5.238 2-1.429 0-1.715 2.952-.286 2.952.571 0 2.571-.857 4.571-2 3.143-1.714 3.62-1.81 3.334-.38-.381 1.714-6.762 4.38-10.572 4.38-1.238 0-2.285.477-2.285 1.048 0 .572-1.048.952-2.381.952-1.334 0-2.572.572-2.858 1.143-.19.572-1.428.953-2.761.667l-2.477-.381 2.762-1.333c2.095-1.048 2.476-1.62 1.62-2.667-1.62-2-2.382-1.714-6.382 1.714-1.904 1.715-3.523 2.667-3.523 2.096 0-1.239-4.667-2.762-10.762-3.62-3.715-.476-4.19-.38-4.19 1.334 0 2.095 1.809 3.047 5.523 3.047 1.905 0 2.476.572 2.476 2.667 0 2.476-.19 2.572-5.81 2-10.666-.952-13.618-1.524-14.476-3.047-.476-.858-1.619-1.62-2.666-1.62-.953 0-2.476-.761-3.429-1.714-5.619-6-6.666-7.238-6.666-8.095 0-.571-.858-2.476-1.905-4.381-1.524-2.667-2-6.38-2.572-19.238-.38-8.857-.666-17.333-.666-19.048.38-9.047 1.428-18.095 2.19-18.952.572-.476.953-2.19.953-3.62 0-1.523.38-3.047.857-3.332 2.095-1.334 3.047-17.334 1.619-28.286-.476-3.62-.286-5.333.38-5.333.667 0 1.144-.572 1.144-1.334 0-.666 1.142-2.571 2.476-4.19 1.428-1.62 2.476-3.524 2.476-4.19 0-.667.476-1.239 1.048-1.239.571 0 1.047-.666 1.047-1.524 0-.762.476-1.523 1.048-1.523.571 0 2.286-.858 3.81-1.905 1.618-1.143 4.856-2.095 7.618-2.19 9.81-.667 39.81.095 40.381 1.047zm204.095 7.048c2.953 2.952 2.762 13.238-.571 24.095-1.333 4.666-2.667 9.333-2.952 10.286-1.143 5.238-4.572 9.904-6.096 8.38-.476-.476 2.19-11.428 4.762-19.238 2.381-7.142 2.572-15.904.381-21.047-1.905-4.572-1.905-4.476.476-4.476 1.143 0 2.857.952 4 2zm8 .761c1.81 2.286 2 3.524 1.429 7.715-.286 2.762-1.429 7.524-2.381 10.571-1.048 3.048-2.571 8.857-3.524 12.953-.952 4.19-2.38 10.095-3.143 13.238-.857 3.238-1.238 7.333-.857 9.142.476 2.667.286 3.524-1.047 4-2.286.953-3.239.096-2.858-2.57 1.143-8.477 2.572-15.81 3.81-19.239 2.952-8.381 5.048-21.143 4.952-29.81-.095-4.761.286-8.761.667-8.761.476 0 1.81 1.238 2.952 2.761zm-27.333 2.477c1.905 1.714 2.286 3.143 2.286 7.714 0 10-3.238 11.048-4.381 1.333-.381-3.143-.857-6.952-1.238-8.476-.572-3.333.285-3.524 3.333-.571zm12.571 2.095c.096 2.286 0 6-.38 8.19-1.048 5.81-4.477 20.096-5.143 21.238-.381.572-.667 2.762-.762 4.858-.286 5.523-.857 7.428-2.381 7.428-.762 0-1.62-.762-2-1.619-.667-1.714.952-16.38 2.476-22.38 1.714-7.144 2.19-13.906 1.048-17.048-1.334-4.096-.762-4.953 3.428-4.953 3.238 0 3.333.19 3.714 4.286zm24.381-.762c1.62 2.381 1.62 2.857 0 6.095-.857 1.905-1.619 4.667-1.619 6.19 0 1.525-.571 3.334-1.143 4-.666.667-1.333 1.715-1.523 2.477-.381 1.81-3.334 12.762-4.381 16.19-.477 1.715-1.334 6.096-2 9.81-1.143 6.571-2.953 8.762-4.381 5.047-.572-1.428 3.238-19.714 5.428-26.38 2.19-6.572 3.905-14 4.572-18.953.952-8 2.095-8.952 5.047-4.476zm-43.714 2.857c1.714 4.286 2.381 11.62 1.238 11.62-.666 0-1.143-.667-1.143-1.43 0-.761-.571-2-1.333-2.761-1.524-1.524-2.667-6.572-2-8.476.857-2 2.286-1.62 3.238 1.047zm50.857.857c.19 1.429-1.428 6.286-3.905 11.334-2.285 5.047-4.285 10.762-4.476 13.238-.19 2.38-.571 4.666-.857 5.047-.19.476-.952 3.905-1.524 7.715-1.143 6.857-2.476 9.904-4.095 8.857-.476-.286-.38-1.62.095-2.953.476-1.333 1.429-6.19 2-10.762.953-7.81 4.286-18.38 7.334-23.142.666-1.143 1.428-4.096 1.523-6.477.096-2.476.477-4.857.762-5.333 1.048-1.619 2.857-.19 3.143 2.476zm-57.714 3.905c0 2.857.667 4.952 2.476 7.048 2.286 2.762 3.143 4.762 2 4.762-.286 0-2.571-2.096-5.047-4.667-5.62-6-6.286-11.333-1.334-11.333 1.524 0 1.905.857 1.905 4.19zm65.81 2.762c.19 2.476-.191 3.238-2 4-1.334.476-2.667.667-3.143.38-.858-.475-.953-8.666 0-9.618 1.333-1.429 4.761 2.095 5.142 5.238zm-72.953.38c.476 1.239 2.476 4.191 4.381 6.668 2 2.476 3.333 4.761 3.048 5.238-2.096 3.523-12.572-8.477-10.953-12.667.857-2.19 2.572-1.905 3.524.762zm82.286 9.144c-.667 4.19-1.62 8.38-2.095 9.333-1.905 3.62-4.096 9.143-8 20.762-3.239 9.619-4.096 13.524-4.096 19.143 0 7.238-1.524 10.38-4.095 8.762-1.333-.762-.667-11.905 1.81-29.905.952-6.476 8.476-29.81 10.476-32 .476-.476.857-2.19.857-3.62 0-3.428 1.905-4.19 4.38-1.809 1.81 1.715 1.906 2.381.763 9.334zm79.81-5.334c0 1.239-7.525 1.62-8.191.477-1.429-2-.857-3.429 1.428-3.81 2.096-.286 6.667 2 6.762 3.333zm-55.239-2.476c2.953.762 2.857 2.286-.571 6.953-1.524 2.19-4.572 6.857-6.667 10.38-2.19 3.62-5.143 7.905-6.571 9.62-2.857 3.428-6.381 12.857-5.524 15.047.286.762-.19 2-.953 2.762-.857.857-1.523 2.476-1.523 3.81 0 1.238-.667 3.428-1.429 4.762-1.619 2.952-2.095 13.523-.476 12.57 1.143-.761 3.238 4.287 2.571 6.096-.285.667-1.333 1.048-2.38.762-1.43-.38-1.81-1.238-1.524-3.238l.285-2.667-1.047 2.476c-1.048 2.477-1.143 2.477-2.477.572-.857-1.048-1.428-1.524-1.428-1.048s-.572.476-1.143-.19c-1.143-1.143.286-7.81 2.667-12.476.762-1.429 1.428-3.524 1.428-4.667 0-1.143.667-3.524 1.429-5.333.857-1.81 1.714-4.953 2-6.857.38-2 2.19-6.19 4.095-9.429 1.905-3.143 3.905-7.333 4.476-9.333 1.715-6.19 9.905-21.143 11.524-21.143.571 0 2 .286 3.238.571zm92.381 2.953c1.524 3.238 1.524 3.428 0 3.047-.857-.285-2.952-.762-4.476-1.047-1.524-.286-3.429-.953-4.286-1.62-1.048-.952-1.333-.857-1.333.477 0 1.047 1.714 2.476 4.571 3.714 3.81 1.714 5.048 1.81 7.429.857 2.285-.952 3.524-.857 7.524.953 6 2.571 4.952 3.81-3.62 4.19-5.904.286-6.857 0-10.285-2.571-3.429-2.667-3.905-2.762-5.334-1.334-1.428 1.429-2 1.238-6-2.571-2.38-2.286-4.285-4.476-4.285-4.953 0-.38 2.38-.761 5.428-.761 2.953 0 5.715-.381 6-.953.381-.571 2.096-1.047 3.905-1.047 2.667 0 3.429.571 4.762 3.619zm-267.81-1.048c.382.857 0 1.429-.856 1.429-.858 0-1.429.476-1.429.952 0 .857-7.905-.667-9.238-1.81-.476-.38 1.048-.476 3.238-.285 2.476.285 4 0 4-.667 0-1.714 3.62-1.333 4.286.381zm62.477 1.81c.19 1.428.762 2.666 1.238 2.666s2.857 2.095 5.429 4.762c3.428 3.62 4.38 5.333 4 6.952-.381 1.715-.096 2.286 1.333 2.286 3.905 0 10.19 10 10.19 16.19 0 2.858-2.285 1.715-3.523-1.809-1.048-2.952-2.381-5.143-8.667-13.333-2.857-3.714-3.429-5.048-2.476-6.095.952-.953.666-1.048-1.429-.572-1.81.381-3.047.095-4.19-1.143-2.477-2.857-4.667-8-4.667-10.762 0-3.428 2.38-2.762 2.762.858zm70.286 2c-1.81 1.809-2.477-.191-1.048-3.048l1.333-2.762.381 2.38c.19 1.239-.095 2.763-.666 3.43zm31.142-3.62c.19.953-.762 4-2.095 6.762-1.238 2.667-2.476 5.715-2.667 6.572-.19.952-.761 2.571-1.333 3.619-.571.952-1.81 3.619-2.667 5.81-.952 2.19-2.095 4.666-2.571 5.523-2.762 4.667-3.905 7.905-7.524 21.238-3.143 11.905-4.19 14.762-5.619 14.762-2.476 0-2.286-3.714.857-14 1.429-4.667 2.953-10.571 3.429-13.143.38-2.571 1.81-6.571 3.048-8.952 2.476-4.952 6.285-15.048 8.476-22.381a443.468 443.468 0 0 0 1.904-6.286c.667-2 6.286-1.524 6.762.476zm-153.428 2.858c.667 1.333 1.238 2.952 1.238 3.428 0 1.334-3.714 1.238-4.571 0-.286-.571-1.429-1.047-2.572-1.047-2.095 0-2.571-1.905-.666-3.715 2-2.095 5.333-1.428 6.57 1.334zm204.666-1.62c.858 1.334-1.523 1.334-3.428 0-1.238-.761-1.143-.952.666-.952 1.143 0 2.477.476 2.762.953zm28.286-.285c1.524.38 2.572 1.619 2.857 3.238.286 1.429 1.715 3.429 3.238 4.38 1.429.858 3.334 2.096 4.19 2.668.763.476 2.667 1.238 4.191 1.523 1.524.286 4.572 2.096 6.667 4.096 2.095 1.904 4.571 3.428 5.428 3.428 2.477 0 2 2.095-1.238 5.524-1.523 1.714-3.142 4.095-3.523 5.333-.381 1.143-1.524 2.572-2.572 3.143-3.143 1.62-16.19 4.19-20.762 4.095-4.38-.19-4.095-.285-10.952 7.143-.857.953-3.524 2-6 2.381-3.524.476-4.667.286-5.62-1.047-.856-1.239-2.285-1.62-4.666-1.429-3.333.38-5.619 2.857-2.571 2.857.857 0 1.619.572 1.619 1.238 0 1.524-8.476 4.953-10.476 4.19-.667-.285-1.62.286-2 1.239-.572 1.428-.857 1.524-1.524.38-.953-1.523-7.524-.666-8.667 1.144-.476.762.476.857 3.238.38 5.048-.952 3.334 1.143-2.285 2.572-7.81 2.095-11.334 2.19-13.429.286-2.762-2.476-2.38-4.19 1.143-4.953 1.619-.38 2.952-1.143 2.952-1.714 0-.667.572-.286 1.334.667 1.047 1.428 1.714 1.619 3.238.666 1.047-.571 3.238-1.523 4.762-2.095 1.523-.571 2.476-1.428 2.19-2-.38-.571 0-.762.952-.38.858.38 1.715-.096 2.096-1.048.38-.858 1.047-1.334 1.619-.953 1.619 1.048 3.714-2.952 3.714-7.143 0-2.19-.381-5.81-.952-8-.477-2.19-1.238-6.476-1.524-9.523-.953-7.715-2.476-9.143-9.905-8.858-10.38.381-16.476-.095-16.476-1.047 0-.572 1.81-1.334 4.095-1.714 4-.572 4.095-.667 1.81-1.715-2.381-.952-2.286-1.047 1.333-1.428 3.81-.286 5.333-2.19 1.714-2.19-1.143 0-2-.382-2-.858s4.19-1.238 9.238-1.619c11.715-.952 15.143-.857 20.762.19 3.905.667 4.476 1.143 4.19 3.048-.19 1.238.191 2.19.763 2.19.571 0 1.047-.476 1.047-1.047 0-.667 1.334-.857 4-.381 2.667.38 4 .286 4-.476 0-.572-.857-1.048-2-1.048-3.905 0-1.905-1.905 2.762-2.571 2.572-.381 6.286-1.334 8.286-2 3.905-1.429 6.476-1.715 9.714-.762zm40.857 4.286c3.62 2 3.714 2.095.857 1.523-1.619-.38-3.81-.857-4.762-1.047-3.238-.572-8.666-2.857-8.666-3.429 0-2.38 5.143-1.143 12.571 2.953zm-293.714-1.62c.667.762 2.953 1.715 5.143 2.096 5.714.857 4.857 2.571-1.333 2.285-2.857-.095-6 .19-6.953.667-1.428.667-1.714.381-1.714-1.333 0-2 1.714-4.953 3.048-5.048.38 0 1.143.572 1.81 1.334zm48.572.953c.285 1.238.666 3.524.857 5.238.285 1.619.952 4.286 1.524 5.81.666 1.523 1.142 3.619 1.142 4.666 0 1.048 1.334 4.19 3.048 6.953 1.619 2.857 2.952 5.523 2.952 5.904 0 .476.858 1.62 2 2.572 5.62 5.143 13.524 20.666 16 31.523.762 3.048 1.81 6.286 2.381 7.239 1.238 2.095.762 2.666-2.476 3.047-2.095.19-2.38-.095-2.095-2.571.19-1.62-.381-4.667-1.238-6.857-.857-2.096-1.62-5.048-1.62-6.572s-.856-4.19-2-6c-1.047-1.81-1.904-3.714-1.904-4.285 0-1.715-11.048-19.239-14.667-23.239-1.904-2-3.333-4.19-3.333-4.857 0-.571-1.524-2.952-3.238-5.238-1.714-2.285-3.333-4.285-3.524-4.571-.19-.19-.857.095-1.524.762-.952.952-.952 1.714 0 3.238 1.238 1.905.953 1.905-5.524 1.81-5.904-.096-6.38-.191-4-1.144 1.524-.571 2.762-1.714 2.762-2.476s.858-1.619 2-1.904c1.048-.286 2.19-1.43 2.572-2.572.476-1.619.857-1.714 1.524-.667.571.953.857 0 .857-2.761.095-4.286.762-5.143 4.762-5.239 1.523-.095 2.38.572 2.762 2.19zm48.857 2c-1.524 1.143-4.286 3.619-6 5.428-3.81 3.905-4.286 4-4.286.953 0-2.476 5.143-7.238 9.905-9.238 3.524-1.524 3.81.19.38 2.857zm-29.62 1.238c.763 2.286 3.81 6.476 7.334 10 3.238 3.333 6 6.571 6 7.238 0 .571.571 1.524 1.333 1.905 4.857 2.952 9.143 15.333 10 28.857.286 4.38.762 9.333 1.143 11.048.476 2.19.19 3.523-1.047 4.761-3.239 3.239-4.19 2.096-4.286-5.428-.095-3.81-.857-8.476-1.62-10.19-.761-1.81-2.475-6.382-3.618-10.191-1.238-3.905-2.572-7.429-3.048-8-.476-.476-.857-1.524-.857-2.286 0-1.428-7.81-13.143-11.524-17.238-1.238-1.333-3.428-4.38-4.857-6.666-2.286-3.715-2.38-4.286-1.048-6.286 2.19-3.048 4.477-2.19 6.096 2.476zm-10.19-.095c.857 1.905 1.524 4.285 1.524 5.333s1.81 3.62 4 5.81c7.619 7.333 13.333 17.047 17.333 29.428 4.476 14.095 5.524 21.048 3.238 22.857-1.333 1.143-1.714.762-3.047-2.38-.857-2.096-1.524-4.477-1.524-5.334 0-2.095-3.333-11.429-4.286-12.19-.38-.286-1.619-2.762-2.857-5.524-1.143-2.667-3.428-6.286-4.952-7.905-3.048-3.333-5.62-7.429-9.334-15.048-7.523-15.428-8.19-18.476-4.095-18.476 2 0 2.953.762 4 3.429zm86.857.857c-1.428 2.571-4.762 5.714-6.095 5.714-2.095 0-1.524-2.952.952-5.047 2.572-2.19 6.286-2.667 5.143-.667zm-128.857.667c1.81.857 1.715.952-.762.952-1.428.095-2.952-.381-3.238-.952-.762-1.143 1.238-1.143 4 0zm83.524 2.476c0 2.285-7.143 7.904-8.381 6.666-.762-.762-.095-2.095 2.286-4.571 3.619-3.62 6.095-4.571 6.095-2.095zm206.857.952c3.524 3.81 18.476 10.476 25.333 11.333 2.286.286 3.81 1.048 3.81 1.81 0 .857-1.62 1.619-3.81 2-2.095.286-4.762.762-6 1.048-1.714.38-2.095.095-1.524-1.239.381-.952-.095-2.095-1.238-2.952-2.19-1.619-10.952-1.905-10-.38.381.57 2 .952 3.62.952 2.19 0 2.952.476 2.952 2 0 1.714-.476 1.904-3.238 1.333-4.381-.857-11.715-6-12.857-8.857-.477-1.334-1.334-2.476-1.905-2.476-1.143 0-1.429-5.239-.381-6.286 1.238-1.238 2.952-.667 5.238 1.714zm-161.333 6c-1.81 4.381-4.953 5.143-3.905.857.38-1.524 1.619-4 2.762-5.619 1.905-2.571 2.095-2.666 2.38-.857.191 1.143-.38 3.62-1.237 5.62zm145.333-5.428c1.143.666 1.048 1.047-.476 1.81-1.81.951-2.762.856-6.381-.477-1.238-.381-1.143-.667.476-1.333 2.667-1.048 4.667-1.143 6.38 0zm7.524 3.523c.762 3.905 4.952 8.953 8.285 10 1.239.381 2.286 1.048 2.286 1.62 0 1.904-5.333 2.857-15.047 2.857-9.62 0-9.905 0-10.477-2.381-.857-3.143 3.429-9.81 8.286-13.048 5.048-3.238 5.905-3.143 6.667.952zm-15.905-.476c.286.572-.381.953-1.524.953s-1.81-.381-1.524-.953c.381-.571 1.048-1.047 1.524-1.047s1.143.476 1.524 1.047zm-182.476 2.476c0 2-3.81 5.81-5.048 5.048-1.428-.952-1.238-1.905 1.048-4.381 2.38-2.476 4-2.762 4-.667zm105.81 1.81c.19 1.047-.382 2.667-1.334 3.619-1.524 1.714-1.238 5.048.476 5.048.476 0 1.048.761 1.429 1.619.286.857.095 1.238-.381.952-.572-.381-1.524 1.429-2.095 3.81-.858 3.428-1.81 4.761-3.81 5.428-3.048 1.143-12.762 3.143-18.952 3.905-4.667.666-5.905 1.714-4.19 3.81.57.761.666 1.618.19 1.904-.476.286-1.81-1.524-2.953-4l-2.095-4.571 2.381.571c1.905.476 2.286.286 1.81-.857-.286-.857-1.334-1.524-2.286-1.524-1.524 0-1.62-.571-.572-5.428 1.239-6.19 4.19-10.19 8.286-11.143 1.524-.381 3.238-1.143 3.905-1.62.667-.57 1.238-.476 1.524.286.285.858 1.428.858 4.38 0 2.191-.571 5.43-1.047 7.239-1.047 2.666 0 3.238-.381 2.762-1.62-.381-1.142 0-1.523 1.714-1.237 1.143.19 2.38 1.142 2.571 2.095zm-67.81 3.047c-1.333 3.62-3.524 3.524-2.572-.095.667-2.762 2.762-4.857 3.334-3.333.095.38-.19 2-.762 3.428zm-92 .667c0 1.143.381 2 .952 2 .572 0 1.048.476 1.048.953 0 .571-1.238 1.047-2.762 1.047-2.38 0-2.762-.38-2.857-3.047-.095-2.286.286-2.953 1.714-2.953 1.238 0 1.905.762 1.905 2zm53.238 3.714c.476 2.477.286 3.239-.762 3.239-1.905 0-2.952-3.715-1.428-5.524 1.428-1.81 1.428-1.81 2.19 2.285zm107.714-1.714a.954.954 0 0 1-.952.953c-.572 0-1.048-.381-1.048-.953 0-.571.476-1.047 1.048-1.047.476 0 .952.476.952 1.047zm-94 2.095c0 .477-1.238 1.62-2.762 2.667-5.428 3.429-11.81 8.476-13.428 10.571-1.62 2.096-1.714 2.096-2.381.191-.667-1.524.38-3.048 5.048-7.238 3.238-2.857 6.38-5.333 7.047-5.333.667 0 1.81-.572 2.381-1.429 1.238-1.429 4.095-1.048 4.095.571zm28 .858c0 2.761-3.904 5.333-5.81 3.81-1.142-.953-.952-1.525 1.239-3.43 3.238-2.857 4.571-2.952 4.571-.38zm192.476.952c1.048 1.714-8.19 6.19-18 8.667-5.238 1.333-10.571 3.047-11.81 3.904-2.19 1.429-6.666 1.048-6.666-.476 0-1.905 1.238-3.905 2.19-3.428.477.38 2.096-.572 3.524-2 2.477-2.477 5.048-3.524 3.81-1.62-.857 1.334-.19 1.334 2.952-.095 2.667-1.238 3.429-2.857 1.334-2.857-.953 0-.953-.286-.096-1.143.953-.857 1.524-.857 2.667 0 1.524 1.334 11.714.857 15.714-.762 3.143-1.238 3.715-1.238 4.381-.19zm-50.857 2c-.762 1.143-4.571 2.095-4.571 1.048 0-.477.952-1.048 2.19-1.239 1.238-.285 2.381-.476 2.572-.571.19-.095.095.286-.19.762zm-239.047 2.38c-1.62 1.239-4.667 3.715-6.762 5.62-4.095 3.619-5.429 3.619-4.476-.095 1.238-5.048 4.571-7.048 12.19-7.524 1.62-.095 1.524.19-.952 2zm12.952 5.239c-.857 4.762-4.571 13.524-8 18.952a4026.403 4026.403 0 0 1-4.857 7.81c-1.81 2.857-4.667 3.714-4.667 1.333 0-.667.953-2.095 2-3.143 2.762-2.476 8-12.285 8-14.952 0-1.143.381-2.571.858-3.048.38-.571 1.333-3.428 2.095-6.476 1.714-7.143 2.095-7.714 3.81-5.428.856 1.238 1.142 3.047.761 4.952zm151.905-3.905c.857 2.19-.286 3.238-1.429 1.334-1.238-1.81-1.238-2.953-.095-2.953.476 0 1.143.762 1.524 1.62zm89.524.095c-4.191 5.62-5.334 6.286-9.715 6.286-2.38 0-5.238.476-6.38 1.048-1.144.666-2.286.857-2.667.476-.953-.952 1.238-3.905 3.619-5.048 1.238-.476 2-1.523 1.714-2.19-.571-1.524 1.524-2 8.857-2.19 5.429-.096 5.81 0 4.572 1.618zm-248 .762c.952 1.143.762 2.381-.953 6.19-2.285 5.144-3.619 6.477-6 5.906-.857-.19-2.666-.667-4.19-.953-2.381-.571-2.572-.857-1.62-3.428.572-1.524 3.144-4.19 5.715-5.905 5.429-3.714 5.524-3.714 7.048-1.81zm60.095.286c-1.429.952-4.857 3.905-7.62 6.476-4.761 4.476-7.428 5.905-7.428 4 0-1.047 8.953-9.714 11.524-11.047 1.048-.667 2.857-1.143 4-1.143 1.81.095 1.714.19-.476 1.714zm29.714 1.524c-.38.857-2.476 1.619-5.047 1.905-4.381.571-8.572 2.095-19.429 7.428-2.857 1.429-7.81 5.238-10.952 8.476-3.238 3.238-6.19 5.905-6.572 5.905-.38 0-.762-1.047-.762-2.38 0-2.858 5.715-8.096 9.81-9.144 1.428-.285 3.238-1.523 4-2.571.667-1.048 1.905-1.905 2.571-1.905.762 0 2.572-.952 4-2.095 1.429-1.143 6-3.143 10.19-4.476 4.096-1.238 8.286-2.762 9.239-3.334 2-1.142 3.714.096 2.952 2.19zm139.62.286c-1.62 1.619-2.382 3.238-2.096 4.476.38 1.333-.095 2.38-1.429 3.047-2.095 1.048-4.285.381-3.333-1.142.38-.572.095-.953-.476-.953-.572 0-1.048.857-1.048 1.905 0 1.524-1.81 3.048-3.619 3.048-1.333 0 .095-2.953 3.143-6.477 2.762-3.047 3.429-3.428 2.952-1.714-.857 3.238.572 2.762 3.81-1.238 1.524-1.905 3.238-3.524 3.714-3.524s-.286 1.143-1.619 2.572zm-9.239 1.714c-1.048.952-1.143.857-.571-.572.38-.952.952-1.523 1.238-1.238.285.286 0 1.143-.667 1.81zm-157.905.286c1.334 1.333-.666 4.19-3.81 5.333-1.809.667-4.761 2.571-6.38 4.19-1.714 1.715-3.62 2.858-4.19 2.667-1.334-.38 10.952-12.762 12.666-12.762.667 0 1.429.286 1.714.572zm-51.714 7.619c-4 11.81-7.143 18.095-10.476 21.142-2.857 2.381-3.619 2.762-3.81 1.429-.38-1.81 4.858-12.762 8.191-17.238 1.238-1.714 2.857-4.857 3.524-7.048 1.714-5.333 2.095-5.81 3.333-4.666.667.762.381 2.762-.762 6.38zm148.476-6.381c0 .476-1.714 1.333-3.714 2l-3.81 1.143 2.381-2c2.381-2 5.143-2.572 5.143-1.143zm55.62 1.047c-.858.953-1.62 2.381-1.62 3.143 0 .667-.762 1.905-1.714 2.572-2.19 1.714-8.286 1.81-8.286.285 0-.666-.666-.571-1.81.476-1.047.953-2.666 1.334-4 1.048-2.476-.667-2.952-2.857-.666-3.714.762-.381 1.524-.19 1.524.38 0 1.715 2 1.048 4.38-1.523 2.763-3.048 6-4.381 10.477-4.476 3.238 0 3.333 0 1.714 1.81zm-125.62 2c0 2-1.81 3.143-5.047 3.143-2.667 0-2.477-2.857.285-4 3.524-1.428 4.762-1.143 4.762.857zm110-1.428c0 .285-.476.762-.952 1.047-.572.381-1.048.19-1.048-.38 0-.572.476-1.143 1.048-1.143.476 0 .952.285.952.476zm-77.428 3.81c.952 1.809 3.428 5.142 5.714 7.428 4.286 4.476 4.476 7.333.476 7.333-3.428 0-7.428-4.762-8.762-10.19-1.143-4.286-.857-7.81.476-7.81.286 0 1.239 1.429 2.096 3.238zm25.904-1.144c-.761 1.143-3.428 1.143-3.428 0 0-1.142 2.095-2 3.238-1.428.38.286.476.857.19 1.428zm-67.428 4.953c-.286 2.476-.476 6.285-.476 8.476-.096 3.905-1.143 5.81-2.857 4.857-.381-.286-.477-1.428-.19-2.571.38-1.048.666-5.048.666-8.953 0-5.904.19-6.952 1.619-6.666 1.333.285 1.524 1.238 1.238 4.857zm62-4.095c0 .57-1.333 1.047-2.953 1.047-1.523 0-4.38.286-6.19.667-2.38.38-3.143.286-2.38-.476 1.809-1.81 11.523-2.858 11.523-1.238zm-68 3.428c0 2.286-3.333 4.572-6.571 4.572-2.762 0-1.524-3.715 1.809-5.334 4.286-2.095 4.762-2 4.762.762zm118.952-1.905c0 .19-.476.667-.952 1.048-.572.286-1.048.095-1.048-.476 0-.572.476-1.048 1.048-1.048.476 0 .952.19.952.476zm69.238 2.286c-.285 1.524-.762 2.19-.952 1.429-.476-1.238.286-4.19 1.047-4.19.19 0 .19 1.237-.095 2.761zm-246.38.381c2.285 3.714 2 5.333-2.286 13.905-3.524 7.047-4.667 8.476-6.667 8.476-3.143 0-3.714-3.524-1.047-7.238 1.047-1.524 3.142-6.095 4.666-10 1.524-4 3.048-7.333 3.429-7.333.285 0 1.143.952 1.905 2.19zm73.142-.667c0 1.81-4.666 4.19-5.714 3.143-.762-.857 3.238-4.666 4.857-4.666.476 0 .857.761.857 1.523zm96.476-.476c.381.572-.095.953-.952.953-.952 0-1.333-.381-1.048-.953.381-.571.858-1.047 1.048-1.047.19 0 .667.476.952 1.047zm86.572.857c0 .476-.762 1.429-1.524 2.096-1.62 1.428-1.81 1.047-.952-1.334.666-1.714 2.476-2.19 2.476-.762zm-283.429 3.429c-.19.667-.476.095-.476-1.333 0-1.334.286-1.905.476-1.239.286.762.286 1.81 0 2.572zm144.572-.667c2.095 1.905 2.38 3.334.666 3.334-1.428 0-4.857-2.953-4.857-4.096 0-1.428 2.19-.952 4.19.762zm4.857-.666c0 .57-.476 1.047-1.048 1.047-.571 0-.952-.476-.952-1.047 0-.477.38-.953.952-.953s1.048.476 1.048.953zm-74.095 1.904c.571 1.238.571 3.905-.19 8-1.239 6.19-2.191 7.62-3.144 4.381-.666-2.095-.571-12.38 0-13.524.858-1.238 2.286-.761 3.334 1.143zm53.047.476c0 .667 1.143 2.953 2.572 5.048 2 2.952 2.38 4.095 1.428 4.952-.857.858-1.904.286-4.095-2.285-1.619-1.905-2.667-4.095-2.38-4.857.285-.762.475-2.286.475-3.334 0-1.047.476-1.714 1.048-1.333.476.286.952 1.143.952 1.81zm-122-.38c0 .57-.19 1.047-.476 1.047-.19 0-.666-.476-1.047-1.047-.286-.477-.096-.953.476-.953.571 0 1.047.476 1.047.953zm79.048 1.523c0 .857-.476 1.524-1.048 1.524-.571 0-.952-.667-.952-1.524 0-.762.38-1.523.952-1.523s1.048.761 1.048 1.523zm14.762 1.238c-.381 1.81-5.429 3.62-6.286 2.286-.667-1.047 3.333-4 5.238-4 .762 0 1.238.762 1.048 1.714zm-96.476 1.239c-1.048 3.809-6.762 7.619-9.81 6.38-2.666-.952-1.619-2.095 1.905-2 4.286.096 5.524-.952 3.143-2.666-2.476-1.81-1.429-3.334 2.286-3.334 2.095 0 2.761.381 2.476 1.62zm66.095 2.38c-.381.953-1.143 1.62-1.81 1.62-.666 0-2.857 1.428-4.952 3.142-2.095 1.715-4 2.953-4.286 2.667-.19-.286 1.715-3.048 4.286-6.19 3.905-4.762 4.857-5.429 6-4.286.762.762 1.143 2.095.762 3.047zm11.524-2.476c1.238 2.381-.572 9.429-2.286 8.857-1.81-.666-1.048-10.761.762-10.761.286 0 .952.857 1.524 1.904zm-50.476 14.19c-2 2.096-3.81 2.953-6.096 2.953h-3.238l4.381-6.667c2.476-3.619 4.476-7.333 4.572-8.19 0-.952.762.762 1.619 3.619l1.523 5.333-2.761 2.953zm54.285-7.333c-.476 1.715-.476 1.715-1.238 0-.38-.952-.38-2.476 0-3.428.762-1.714.762-1.714 1.238 0 .19.952.19 2.476 0 3.428zm-130.38-1.238c.666 1.715.476 1.81-1.81.953-1.905-.762-2.095-2.476-.19-2.476.761 0 1.618.761 2 1.523zm146.856-.857c-.666.286-2 .286-2.952.095-.952-.285-.476-.476 1.238-.476 1.62-.095 2.381.19 1.714.381zm-31.619 4.953c.762 1.904.667 2-3.904 2.761-4.096.572-4.953-.666-2-2.952 2.38-1.81 5.238-1.714 5.904.19zm34.667-.096c9.619 2.286 10.476 4.476 3.429 8.19-2.667 1.334-3.143 1.334-4.572-.094-1.238-1.239-1.333-1.81-.38-2.762.666-.667 1.237-1.81 1.237-2.477 0-2.38-3.524-1.428-6.476 1.62-2.667 2.857-6.286 3.904-7.81 2.38-.38-.38-.19-1.238.477-2 1.714-2.095.285-2.666-2.857-1.142-1.524.761-3.429 2.571-4.096 4.095-1.428 2.857-4.38 3.524-7.238 1.714-1.143-.667-1.238-1.238-.285-2.095.571-.667.952-1.714.666-2.381-.285-.762 2.19-1.81 7.334-2.952 4.285-1.048 9.142-2.19 10.761-2.667 4-.953 3.239-1.048 9.81.571zm25.714 5.524a.954.954 0 0 1-.952.952c-.572 0-1.048-.38-1.048-.952 0-.571.476-1.048 1.048-1.048.476 0 .952.477.952 1.048zm-60.666 4c-2 3.333-3.81 4.286-6.477 3.429-2.761-.857-2.285-3.429.667-3.429 1.429 0 2.476-.571 2.476-1.428 0-1.429 2.762-2.572 4.286-1.81.381.19 0 1.714-.952 3.238zm50.19-1.619c1.62 2.476 1.048 5.62-.952 5.62-1.715 0-4-4.477-3.238-6.477.857-2.19 2.38-1.905 4.19.857zm-59.524-.38a.954.954 0 0 1-.952.951c-.571 0-1.048.667-1.048 1.334 0 2.19-7.714 9.047-9.428 8.38-2.476-.952-1.81-2.666 1.428-3.809 1.905-.666 3.048-1.714 3.048-2.952 0-1.048-.381-1.905-.762-1.905-1.524 0-9.238 4.476-9.238 5.333 0 .477-.952 2.19-2.095 3.81-2.476 3.429-6.381 3.81-8 .762-1.048-1.905-.762-2.476 1.714-4.572 3.238-2.666 9.905-6.476 10.476-5.904.19.19 2.572-.19 5.334-.953 6.095-1.619 9.523-1.81 9.523-.476zm-26.19 3.237c-.19 1.238-1.143 2.381-2.095 2.572-2 .38-2.286-1.81-.477-3.62 1.81-1.809 2.953-1.428 2.572 1.048zm67.428-.286c.953 1.048 2.381 3.334 3.238 5.048 2 3.905 4.762 4 4.477.286-.286-4.476 0-5.334 1.619-5.334s3.428 3.905 3.428 7.524c0 3.905-4.857 4.667-10.762 1.62-2.952-1.43-5.523-1.81-11.428-1.62-7.048.286-7.714.096-8.19-1.81-.953-3.523-.763-4.57 1.333-5.618 2-1.048 8.285.857 9.523 2.952 1.334 2.19 3.524.952 3.524-2 0-3.524.857-3.81 3.238-1.048zm-22.38 4.762c1.714 1.524 3.142 2.953 3.142 3.238 0 .286-1.81.667-4.095.858-3.238.19-4.667-.286-6.571-2.19-2.286-2.287-2.286-2.477-.667-3.525 2.952-1.714 4.952-1.238 8.19 1.62zm-16.286 1.905c2.762 1.429 5.333 2.857 5.714 3.333 1.048.953-4.571 3.048-8.095 3.048-4.095 0-6.667-5.048-4-7.81 1.524-1.428.666-1.618 6.38 1.43zm-9.524 8.381c0 .381-1.143 1.143-2.476 1.81-2 .857-2.857.762-4.953-.858-1.333-1.047-2.952-2-3.523-2-2.19 0-1.143-3.809 1.142-4.19 2.19-.286 9.81 3.714 9.81 5.238zm-62.667-4.095c1.62.667 1.715.762.19 2-.856.762-2.856 1.428-4.38 1.524-2.381.095-2.667.38-2.476 3.238.19 2.762 0 3.047-2.381 3.047-3.429 0-5.81-2.476-6-6.38-.19-2.572.19-3.334 2-3.62 3.619-.762 11.047-.666 13.047.19zm110.667 1.047c0 .477.857 1.048 2 1.334 1.048.286 2 1.047 2 1.619 0 .762-.952.857-2.762.38-3.905-1.142-23.048-.761-27.524.477-4.952 1.333-5.81-.286-1.047-1.905 5.81-1.905 6.285-2 15.142-2.476 4.667-.19 8.667-.571 8.858-.762.666-.667 3.333.476 3.333 1.333zm-210-.095c0 .476-.857 1.143-1.81 1.524-.952.381-2.285.857-2.952 1.238-.762.286-1.238.095-1.238-.38 0-.477.953-1.43 2.19-2 2.858-1.43 3.81-1.43 3.81-.382zm146.38 5.238c1.525 1.715 2.572 3.238 2.382 3.334-.19.19-2.381 0-4.762-.286-4-.571-4.571-.952-4.857-3.429-.19-2.285.095-2.762 2.095-2.762 1.429 0 3.524 1.334 5.143 3.143zm29.144.477c-1.143.761-3.715 1.714-5.715 2.095-2.095.285-6.095 2.095-8.952 4-4 2.666-5.428 3.143-6.095 2.095-.381-.667-.667-1.62-.476-2.095.38-1.238 8.952-4.572 15.714-6.095 7.333-1.715 7.81-1.715 5.524 0zm34.285-.477c1.715.572 3.143 1.524 3.143 2 0 1.048-1.714 1.048-4.476 0-1.143-.476-4.38-.19-7.524.667-3.428.857-8.095 1.238-12.19.952-6.572-.476-7.143-.285-17.524 4.858-5.905 2.952-11.333 5.428-12 5.428-2.952 0-.952-2.667 3.524-4.667 14.762-6.857 16.095-7.333 26.19-8.19 5.62-.571 10.476-1.238 10.762-1.62.953-.856 6.762-.57 10.095.572zm0 7.429c.572.571-2 6.476-2.857 6.476-.38 0-1.333-.667-2-1.524-.666-.762-2-1.524-2.857-1.524-2.762 0-4.476-1.619-3.81-3.523.572-1.429 1.524-1.62 5.905-.953 2.858.381 5.429.857 5.62 1.048zm-22.857.286c0 .476-2.666 2.762-5.904 5.142-3.239 2.286-8.19 6.858-11.143 10.096-2.857 3.333-5.524 5.904-6 5.904-1.715 0-1.905-3.714-.381-6.857 2.285-4.476 10.38-12.095 14.476-13.619 4.095-1.428 8.952-1.81 8.952-.666zm-38.857 2.857c-1.238 2-1.524 1.428-.476-1.143.286-.857.762-1.429 1.048-1.143.285.286 0 1.333-.572 2.286zm55.905 6.762c4.571 4.666 6.476 9.523 3.905 9.523-1.429 0-19.143-14.095-18.476-14.761.285-.286 1.523-1.048 2.761-1.62 2.858-1.523 5.048-.19 11.81 6.858zm-38.286-2.19c-.19.666-1.524 1.428-2.857 1.523-2.286.286-2.38.286-.476-1.238 2.38-1.81 3.905-2 3.333-.286zm20.286 3.713c0 2.477-.667 4.477-1.714 5.239-5.143 4.19-15.334 14.38-15.905 15.904-.572 1.905-3.429 2.667-3.429 1.048 0-.476-.285-2.286-.666-4-.477-2.762 0-3.62 4.285-7.905 2.667-2.667 6.762-6.952 9.048-9.524 5.429-6.095 8.38-6.38 8.38-.762zm16.38 9.334c6.858 6.666 7.525 7.619 8.096 12.19l.667 5.048-4.381-4.762c-2.381-2.571-5.905-5.524-7.81-6.571-1.904-.953-3.904-2.762-4.476-3.905-.476-1.238-2-2.667-3.333-3.238l-2.476-1.143 2.285-2.476c1.334-1.334 2.667-2.477 3.143-2.477.381 0 4.095 3.334 8.286 7.334zm-16.666 1.524c-.095.857.381 1.714 1.238 1.81.857 0 1.905.19 2.286.19.476.095-.857 1.904-2.952 3.904-2.19 2.096-6.667 6.762-10.096 10.477-5.714 6.19-6.285 6.57-7.238 4.761-1.428-2.571 3.048-10.666 10.19-18.476 4.763-5.238 7.144-6.19 6.572-2.666zm14.19 9.142c5.905 4.953 14.096 16.858 14.096 20.572 0 2.762-.095 2.762-2 .952-1.143-.952-2-2.285-2-2.952 0-2.095-8.381-9.524-15.048-13.429-7.047-4-8.38-6.19-4.762-7.81 3.62-1.809 4.667-1.523 9.715 2.667zm-13.142 4.858c.19 1.428-1.429 4-5.143 8.095-3.048 3.238-6.286 7.428-7.238 9.238-1.62 3.047-1.714 3.143-3.048 1.333-1.81-2.476-1.81-2.666 1.62-7.047 11.237-14.858 13.142-16.477 13.809-11.62zm14 8.476c2.286 1.714 4.38 4 4.762 5.047.285.953 2.571 4 5.047 6.762 3.048 3.524 4.381 5.81 4.381 7.905v2.952l-5.143-4.952c-2.761-2.762-5.523-5.048-5.904-5.048-.477 0-3.429-2.38-6.572-5.428-3.047-2.953-6.571-5.524-7.714-5.714-3.238-.477-2.667-3.239.857-3.905 5.333-1.143 6.19-.953 10.286 2.38zm-15.143 1.333c-.381.381.095 1.238 1.048 1.905 1.523 1.143 1.428 1.428-.572 4-1.143 1.524-2.095 3.143-2.095 3.714 0 1.333-9.143 12.762-10.19 12.762-1.905 0-.762-7.238 1.619-10.38 1.428-1.81 2.57-3.715 2.57-4.191 0-1.429 6-8.477 7.239-8.477.571 0 .762.381.381.667zm13.143 11.905c2.476 2.476 4.857 4.476 5.333 4.476s2.286 1.62 4.095 3.714c1.81 2 4.096 4.476 5.048 5.524 1.905 2 3.714 6 3.714 8.381 0 .762-2.762-1.524-6.095-5.048-3.81-4.095-6.952-6.571-8.19-6.571-1.239 0-3.048-.857-4.19-2-4-4-8.382-7.048-9.906-7.048-.857 0-1.619-.38-1.619-.857 0-1.047 5.048-5.047 6.381-5.047.476 0 2.857 2 5.429 4.476zm-8.476 5.905c.285.761-.286 2.19-1.334 3.047-1.047.953-2.19 2.953-2.476 4.381-.667 2.953-7.333 12.286-9.238 12.857-.952.381-1.238-1.143-1.238-5.238 0-6.19.571-7.81 5.714-14.666 3.334-4.477 3.62-4.572 5.81-3.143 1.238.762 2.476 2.095 2.762 2.762zm16.952 12.666c4.381 3.524 9.143 10.381 8.286 11.81-.953 1.524-5.715-.286-9.334-3.62-1.904-1.809-6.19-4.095-10.38-5.428-4-1.333-7.334-2.857-7.524-3.428-.286-.667.952-2.572 2.571-4.286l2.952-3.143 4.762 2.571c2.667 1.334 6.572 3.905 8.667 5.524zm-17.238 4.286c0 1.524-8.857 17.333-10.19 18.19-.477.286-.858-2.095-.858-5.238 0-5.333.286-6.19 3.905-10.095 3.81-4.19 7.143-5.524 7.143-2.857zm11.81 6.095c2.476 2 5.047 3.524 5.809 3.524.762 0 1.333.476 1.333.952 0 .572.762 1.048 1.62 1.048 2.666 0 8.38 6.476 8.38 9.619v2.762l-3.238-3.048c-3.905-3.714-10.762-7.333-14-7.333-1.333 0-3.238-.667-4.286-1.429-1.142-.857-3.523-1.523-5.428-1.523h-3.524l3.238 2.762c1.81 1.428 3.238 3.047 3.238 3.619 0 1.523-11.238 17.523-12 17.047-1.523-.952-1.81-7.619-.571-10.286.762-1.428 2.38-5.428 3.619-8.666 2.38-6.286 7.238-12.572 9.905-12.476.857 0 3.523 1.523 5.904 3.428zm17.618 3.524c.381.571.191.952-.38.952-.572 0-1.048-.38-1.048-.952 0-.571.19-1.048.38-1.048.287 0 .763.477 1.048 1.048zm-14.285 10.38c1.81.858 4.19 2.382 5.238 3.525 1.047 1.143 2.476 2.095 3.143 2.095 2.19 0 8.095 7.619 8.857 11.429.38 2.095.476 4 .095 4.38-.286.286-2.667-1.428-5.333-3.904-8.857-8.476-15.524-12.953-19.143-12.953-1.143 0-2-.38-2-.952 0-.571.38-1.048.952-1.048s1.048-.571 1.048-1.333c0-1.333 1.238-2.286 3.048-2.571.38 0 2.19.571 4.095 1.333zm-5.81 7.62c.476.476-.19 2.19-1.714 4-1.524 1.714-2.952 4.286-3.333 5.714-.857 3.429-4.667 10.476-5.715 10.667-1.142.19-1.81-2.762-1.619-7.714.096-4.477 1.334-7.905 4.19-11.905 1.715-2.381 2.572-2.762 4.667-2.286 1.429.381 3.048 1.048 3.524 1.524zm12.19 9.714c2 3.048 5.239 6.095 9.715 8.953 3.143 2 3.714 2.952 3.714 5.81 0 2-.19 3.523-.38 3.523-.191 0-2.953-2.476-6.096-5.429-3.333-3.142-7.048-5.714-8.857-6.095-1.714-.38-3.62-1.047-4.19-1.524-.572-.38-2.096-.952-3.334-1.143-1.333-.19-2.952-1.142-3.524-2.095-.952-1.524-.571-2.38 2.19-4.762 3.239-2.952 3.334-2.952 6.287-1.238 1.619.953 3.619 2.762 4.476 4zm-30.57 1.238c0 .572-.858 1.048-2 1.048-1.144 0-2-.476-2-1.048 0-.476.856-.952 2-.952 1.142 0 2 .476 2 .952zm17.428 4.667c.857.286 1.619 1.143 1.619 1.905 0 1.905-8 15.428-9.143 15.428-1.619 0-.952-4.38 1.524-9.428 1.333-2.762 2.667-5.81 2.952-6.762.572-2 .762-2 3.048-1.143zm16.286 9.143c2.666 2.571 6 5.619 7.619 6.762 1.904 1.333 2.952 3.143 3.333 5.714.762 4.571-.476 4.762-3.143.476-2.38-3.714-10.571-8.952-17.048-10.857-4.952-1.428-5.238-1.905-2.761-4.857 2.952-3.429 6.666-2.571 12 2.762zm-12.572 5.143l2.381 1.904-3.238 4.381c-1.81 2.381-4 5.81-4.857 7.524-2.476 4.857-6.381 3.81-4.381-1.238.476-1.047.857-3.238.857-4.762.095-1.524.476-2.762.952-2.762.381 0 1.524-1.523 2.477-3.428 1.904-4.095 2.571-4.19 5.81-1.62zm15.143 7.333c3.143 2.19 5.238 5.62 4.095 6.762-.476.38-5.714.952-11.619 1.238l-10.666.571 1.333-2.666c2.762-5.238 9.238-9.524 12.571-8.381.857.286 2.762 1.428 4.286 2.476zm13.333 12.19c-.095 1.905-.476 3.81-.857 4.191-.38.286-5.047.571-10.476.476-8.286-.19-10.857.19-16.667 2.286-6 2.19-7.333 2.38-9.523 1.333-3.048-1.428-3.429-4.571-.858-6.476 1.143-.857 7.048-1.619 16-2.19 8.762-.477 15.62-1.334 17.81-2.286 4.38-1.905 4.857-1.524 4.571 2.666zm-3.047 9.524c-.572.857-3.81 1.524-12.096 2.476-1.619.191-6.38 2-10.476 3.905-10.095 4.953-12.952 4.762-11.619-.857.572-2.19 3.905-4.19 6.095-3.619.477.19 1.81-.19 2.953-.762 3.238-1.619 5.428-1.81 15.905-2 5.904-.095 9.523.286 9.238.857zm3.238 8.19l-.286 3.334-10 .286c-11.048.286-21.428 2.857-25.905 6.286l-2.571 2.095v-2.381c0-1.62.857-2.857 2.667-3.714 1.523-.667 3.619-1.715 4.571-2.191 1.81-.952 9.81-3.81 15.714-5.619 1.905-.571 5.715-1.333 8.476-1.714 2.762-.381 5.143-.857 5.429-1.143 1.143-1.048 2.19 1.619 1.905 4.762zm-.381 8.763c.19.38-.095 2.38-.762 4.38-1.048 3.524-1.429 3.715-5.143 3.715-6.667 0-14.952 1.143-16.38 2.286-.763.571-4.477 1.238-8.191 1.333-5.334.286-6.953 0-6.953-1.048 0-.762-.285-2-.571-2.857-.572-1.524 6.476-6.952 8.762-6.666.666.19 2 0 2.857-.381 3.333-1.334 25.619-2 26.38-.762zm-39.429 13.047c0 .572-.666 1.048-1.523 1.048-.858 0-1.334-.476-.953-1.048.286-.476 1.048-.952 1.524-.952.571 0 .952.476.952.952zm37.429 1.143c.476.476.38 1.429-.381 2.286-.667.857-.952 2-.572 2.571 1.715 2.762-12.38 5.715-24.761 5.238-3.524-.19-4.667.096-4.667 1.143 0 .762 1.238 1.714 2.857 2 1.62.286 6.286 3.81 11.048 8.095 4.476 4.19 8.571 7.524 9.047 7.524 1.715 0 4 3.238 4 5.62 0 3.714-1.904 2.952-8-3.144-3.047-2.952-5.904-5.428-6.38-5.428-.477 0-1.715-1.143-2.763-2.476-1.142-1.429-2.761-2.572-3.619-2.572-.857 0-2.952-.952-4.666-2.285-1.715-1.239-3.905-2.572-4.857-2.953-2.19-.857-2.286-2.762-.096-2.762 1.238 0 1.429-.571.857-3.238-.38-1.714-1.047-3.619-1.619-4.19-3.047-3.238.381-4.667 12-5.048 4.572-.19 8.858-.762 9.429-1.333 1.238-1.238 11.619-.476 13.143.952zm-2.381 12.952c0 2.858-4.857 8.953-7.048 8.953-2.666 0-4.095-2.19-2.666-4 1.714-2.286 7.714-7.048 8.762-7.048.476 0 .952.953.952 2.095zm-36.571.953c.38.571.19.952-.381.952-.572 0-1.048-.38-1.048-.952s.19-1.048.38-1.048c.287 0 .763.476 1.049 1.048zm26.57-.19c0 1.714-3.809 4.19-5.428 3.618-1.619-.666-2.19-2.571-.952-3.81.952-.951 6.38-.761 6.38.191zm10.287 10.476c.762 2.857-.477 3.523-3.334 1.714-1.238-.762-1.143-1.143.476-2.953 2.096-2.38 2-2.38 2.858 1.239zm-26-.667c2.571.857 4.666 2.095 4.666 2.762 0 .571-2.285 3.524-5.047 6.571-6.286 6.857-7.429 6.095-6.476-3.905.38-3.904 1.047-7.047 1.428-7.047s2.857.762 5.429 1.619zm9.714 7.333c0 .476-.476 1.238-1.048 1.524-.571.381-2.571 3.048-4.476 6-1.81 2.952-4.571 6.19-6.095 7.143-1.429 1.048-3.714 2.857-4.952 4.095-2.762 2.857-3.43 2.857-2.762.286.285-1.143.857-2 1.333-2s1.429-1.048 2.19-2.476c2.477-4.762 12.19-15.524 13.905-15.524 1.048 0 1.905.38 1.905.952zm8.667 6.857c2.095 2.572 1.428 5.62-1.81 9.238-1.714 1.905-3.81 4.477-4.667 5.715-.762 1.238-2.095 2.19-2.857 2.19-2 0-8.476-6-8.19-7.619.19-.666 2.762-4.19 5.81-7.81 5.428-6.285 5.523-6.38 8-4.856 1.333.857 3.047 2.285 3.714 3.142zm-25.715 3.238a.954.954 0 0 1-.952.953c-.571 0-1.048-.667-1.048-1.524s.477-1.333 1.048-.952c.476.285.952 1.047.952 1.523zm29.524 8.667c-.38 2.286-1.905 5.048-3.81 6.952-2.666 2.667-3.523 3.048-4.857 2-1.428-1.047-1.238-1.809 2.477-6.857 4.952-6.857 7.238-7.523 6.19-2.095zm-16.38 7.81c3.809 3.523 7.428 6.476 8.094 6.476 2 .095 5.81 3.619 5.81 5.428 0 4.286-8.381-1.047-16.952-10.857-4.762-5.524-6-7.619-4.477-7.619.381 0 3.715 2.953 7.524 6.572zm-7.144.952c3.048 3.143 3.238 3.714 2.096 5.81-.667 1.238-2.096 2.857-3.143 3.523-1.62 1.048-2.477.857-4.953-.952-3.81-2.857-4.19-7.905-.762-10.286 2.953-2.095 2.858-2.095 6.762 1.905zm21.143 2.857c-1.333 1.238-2.667.286-1.714-1.238.38-.667 1.143-.857 1.714-.476.667.38.667.952 0 1.714zm-14.857 5.238c2 2.095-5.429 10.667-14.952 17.048-4 2.762-4.286 2.857-4.286 1.047 0-.761 2.476-3.81 5.524-6.761 3.047-2.953 6.095-6 6.762-6.762.666-.667 2-2.19 2.952-3.238 1.81-2 2.952-2.381 4-1.334zm-14.762 6.19c-.38.382-1.047 0-1.524-.761-.571-.953-.476-1.714.286-2.19 1.333-.763 2.381 1.809 1.238 2.952zm25.238 2.191c1.62 1.905 1.62 6.953-.095 7.62-1.714.666-11.62-3.62-11.62-4.953 0-.572 1.43-2.476 3.144-4.286 3.047-3.143 3.238-3.238 5.238-1.619 1.143.952 2.667 2.381 3.333 3.238zm14.286 7.048c0 1.143-.476 2-.952 2-1.334 0-2.286-1.81-1.62-3.048 1.048-1.619 2.572-1.047 2.572 1.048zm-23.714 1.905c6.666 3.333 9.714 5.81 9.714 7.904 0 1.238-.286 1.334-1.238.381-.667-.666-2.381-1.238-3.905-1.238-2.476 0-11.905-6.19-11.905-7.81 0-.666 1.048-2.19 1.429-2.095 0 0 2.667 1.239 5.905 2.858zm-2.477 7.81l7.905 6.761-3.619 1.333c-3.524 1.334-17.905 1.048-20.19-.38-.572-.286-.953-2.382-.953-4.667 0-3.429.572-4.572 3.238-6.857 1.81-1.62 3.81-2.858 4.477-2.858.761 0 4.857 2.953 9.142 6.667zm-10.285 12.285c2.762 1.714 3.904 1.905 7.619 1.047 6.666-1.523 13.81-1.333 14.476.477.286.857 0 2.19-.762 3.047-1.048 1.334-2.667 1.524-9.333.953-4.476-.381-10.953-.762-14.572-.953-10.095-.38-10-.38-10-2.952 0-1.238.286-2.572.667-2.953 1.429-1.428 8.762-.571 11.905 1.334zm10.476 9.428c12.476.477 12 .286 12 3.429 0 1.619-.572 3.333-1.333 3.905-.667.571-5.715 1.143-11.239 1.333-21.333.571-23.333.095-21.142-5.429 1.428-3.523 4.38-4.571 11.143-3.904 2.19.19 6.952.476 10.57.666zm10.762 14.953c.476 3.81-1.334 5.619-5.143 5.143-1.714-.286-5.714.19-8.857 1.047-3.048.762-9.429 1.429-14.095 1.429-9.62 0-10.572-.762-8.19-6.476l1.523-3.429 12.667-.286c22.285-.476 21.714-.571 22.095 2.572zm-2.19 12.095c.285 1.429.285 3.714-.096 5.143l-.667 2.571-16.19-.476c-8.857-.286-16.286-.571-16.381-.667-.19 0-.286-1.143-.286-2.476 0-3.619 3.143-4.857 12.667-5.047 4.571 0 8.571-.381 8.952-.858.381-.38 3.143-.666 6-.666 4.857 0 5.429.19 6 2.476zm-22.096 10.571c4.381.667 9.048 1.524 10.286 2.096 1.238.476 3.81.857 5.619.857 3.143 0 4.571 1.333 4.571 4.095 0 .476-6.476.857-14.762.857-9.333 0-15.238.476-15.904 1.143-.572.571-2.381.952-4 .762-2.572-.286-2.857-.667-2.572-4.095.286-6 1.81-8.096 5.62-7.429 1.714.286 6.761 1.048 11.142 1.714zm30 7.048c.381.571.286 1.524-.286 2.095-.666.572-1.142.19-1.523-1.143-.572-2.19.666-2.857 1.81-.952zm-38.476 6.476c0 .286-.952.381-2.095.381-1.143 0-1.81-.38-1.524-.952.571-.857 3.619-.381 3.619.571zm11.429-.571c.38.571-.286.952-1.43.952-1.237 0-1.904-.38-1.523-.952.286-.572.953-1.048 1.524-1.048.476 0 1.143.476 1.429 1.048zm13.428.571c.286.286.19.667-.19 1.048-.953.952-5.715-.476-5.715-1.715 0-1.047 4.762-.476 5.905.667zm-30.667.095c-.666.286-1.81.286-2.476 0-.666-.285-.095-.476 1.238-.476 1.334 0 1.905.19 1.238.476zm8.477 4.477c-.381.857-.572.571-.667-.572 0-1.047.19-1.619.571-1.333.286.38.381 1.238.096 1.905zm4.285-.667c0 .857-.476 1.524-.952 1.524-.571 0-1.048-.667-1.048-1.524 0-.762.477-1.524 1.048-1.524.476 0 .952.762.952 1.524zm8.286-.857c.952.952-.38 3.333-1.905 3.333-1.524 0-1.619-.19-.762-2.38.572-1.62 1.62-2 2.667-.953zm-15.238 1.333c0 .572-.476 1.048-1.048 1.048-.571 0-.952-.476-.952-1.048 0-.476.38-.952.952-.952s1.048.476 1.048.952zm10.38 0c.382.476.191 1.238-.38 1.524-.571.38-1.048-.095-1.048-.952 0-1.715.572-2 1.429-.572zm-13.428 2.857c0 1.334-1.143 2.19-2.19 1.62-.953-.667-.095-2.477 1.238-2.477.571 0 .952.381.952.857zm4.953 1.143c.857-1.238 1.047-1.238 1.047.19 0 1.715-2.38 3.143-3.428 2.096-.286-.286-.572-1.238-.572-2.19 0-1.334.19-1.334 1.048-.096.857 1.333 1.048 1.333 1.905 0zm5.047 1.143c0 .476-.476.857-.952.857-.571 0-1.048-.667-1.048-1.524s.477-1.238 1.048-.952c.476.38.952 1.048.952 1.619zm8.381-.571c.381 1.047-.095 1.428-1.524 1.428-1.714 0-1.904-.19-.857-1.428.667-.858 1.334-1.524 1.524-1.524.095 0 .476.666.857 1.524zm11.334 2.19c-.286.952-.477.476-.477-1.238-.095-1.62.19-2.381.381-1.714.286.666.286 2 .096 2.952zm-15.715-.571c0 1.714-.285 1.904-1.523.857-.762-.667-1.43-1.62-1.43-2.096s.668-.952 1.43-.952c.857 0 1.523.952 1.523 2.19zm-14 2.857c0 1.143-.38 2-.952 2-1.333 0-2.286-1.81-1.524-3.048 1.048-1.619 2.476-1.048 2.476 1.048zm8.667.857c1.619-1.524 9.81-.667 9.81 1.047 0 1.524-5.239 2.286-6.096.858-.285-.477-1.047-.477-1.714-.096-1.714 1.048-8 .286-8.857-1.047-1.048-1.62 3.428-2.667 4.762-1.048.762.953 1.428 1.048 2.095.286zm18.38 1.143c0 2.38-.666 2.476-2.57.571-2-1.905-1.81-2.571.57-2.571 1.334 0 2 .666 2 2zm-22.19 3.904c1.239.667 2.953.953 3.715.667.857-.286 1.81.19 2.095.953.952 2.476-.19 2.761-3.62 1.047-1.904-1.047-3.047-1.238-3.047-.571 0 .666-1.428.952-3.238.857-2.476-.286-3.333-.857-3.524-2.476-.285-1.81.096-2.096 2.477-2 1.523.095 3.81.762 5.142 1.523zm12.762 2.858c-1.143 1.047-1.904-.667-1.047-2.477.666-1.714.762-1.714 1.143 0 .285 1.048.19 2.096-.096 2.477zm8.096-2.286c2.285 0 1.333 2-.953 2-1.428 0-2.38-.667-2.571-1.81-.286-1.428 0-1.714.952-1.047.762.476 1.905.857 2.572.857zm-11.715 1.714c0 1.62-.285 1.905-1.143 1.143-.571-.667-.761-1.619-.38-2.286 1.047-1.619 1.523-1.238 1.523 1.143zm-14.38 6.381c-.477 1.333-.953 1.429-1.81.667-.572-.572-.762-1.905-.381-2.857.476-1.238.952-1.429 1.714-.572.667.572.857 1.81.476 2.762zm18.38-.19c-.095 2.095-.095 2.095-1.524.095-1.333-1.62-1.714-1.714-2.476-.476-1.047 1.714-2.476.666-1.714-1.334.857-2.285 5.714-.857 5.714 1.715zm5.62.095c-.286.857-1.048 1.524-1.62 1.524-1.143 0-1.428-3.238-.285-4.381 1.047-1.048 2.571 1.143 1.904 2.857zm4.38-1.524c0 1.143-.38 2-.952 2-1.333 0-2.286-1.81-1.524-2.952 1.048-1.715 2.476-1.143 2.476.952zm-19.238-.095c.667.095 1.238.762 1.238 1.428 0 1.334-7.238 1.81-8.571.477-1.238-1.239.667-2.667 3.333-2.286 1.524.19 3.334.38 4 .38zm19.62 4.762c.856 2.19.761 2.38-.858 2.38-1.714 0-2.857-1.618-2-3.047.857-1.429 2.19-1.143 2.857.667zm-9.334 2.476c0 2.095-1.524 2.571-2.572.857-.952-1.429.286-4.19 1.524-3.429.572.286 1.048 1.43 1.048 2.572zm-20-.095c0 1.143-.476 2-1.048 2-.571 0-.952-.857-.952-2s.38-2 .952-2 1.048.857 1.048 2zm4.476.285c0 2.667-2 2.477-2.38-.19-.191-1.62.094-2.19 1.047-1.905.666.286 1.333 1.238 1.333 2.095zm7.524-.762c0 .762-.476 1.43-1.048 1.43-.571 0-.952-.668-.952-1.43 0-.857.38-1.523.952-1.523s1.048.666 1.048 1.523zm4 .477c0 2.095-1.524 2.666-2.571.952-.667-1.143.285-2.952 1.619-2.952.476 0 .952.857.952 2zm-7.524.857c0 1.905-1.81 1.81-2.095-.19-.19-.953.286-1.62.857-1.43.667.286 1.238.953 1.238 1.62zm20.952 3.238c0 .762-1.142 1.524-2.761 1.714-2.762.286-2.762.286-1.048-1.714 1.905-2.286 3.81-2.286 3.81 0zm-9.238 2.476c-.38 4.19 1.143 6.19 3.143 4.476 1.429-1.143 1.62-.857 1.62 2.286 0 3.905-1.43 4.952-2.286 1.619-.286-1.143-1.334-2-2.667-2-1.714 0-2-.571-2-3.429 0-2.476-.476-3.523-1.524-3.523-2.095 0-1.905-1.715.19-2.286 3.048-.762 3.81-.095 3.524 2.857zm-19.238-.667c0 2.286-1.619 3.62-2.476 2.096-.857-1.429.095-4 1.429-4 .571 0 1.047.857 1.047 1.904zm4 .096c0 1.143-.38 2-.952 2-1.333 0-2.286-1.81-1.524-3.048 1.048-1.619 2.476-1.048 2.476 1.048zm7.62-.286c-.953.952-4.667 1.048-5.239.095-.285-.476.953-.857 2.762-.857 1.714 0 2.857.381 2.476.762zm-7.62 6.286c0 1.619-.38 2.952-.857 2.952-.476 0-1.143-1.333-1.333-2.952-.286-2 0-3.048.857-3.048s1.333 1.238 1.333 3.048zm8-2a.954.954 0 0 1-.952.952c-.571 0-1.048-.38-1.048-.952s.477-1.048 1.048-1.048c.476 0 .952.476.952 1.048zm4 .952c0 1.048-.476 2.19-.952 2.571-.571.286-1.048-.476-1.048-2 0-1.333.477-2.57 1.048-2.57.476 0 .952.951.952 2zm-16.476 1.048c0 .762-.571 1.523-1.238 1.714-.762.286-1.238-.381-1.238-1.714 0-1.334.476-2 1.238-1.715.667.19 1.238.953 1.238 1.715zm9.143.762c.857 3.619 2.095 4.285 6.952 3.714 3.524-.476 4.19-.19 4.667 1.524.571 2.095-1.619 2.857-2.762.952-.38-.571-1.143-.667-1.81-.286-2.19 1.334-5.809 1.238-6.38-.19-.286-.857-.953-1.238-1.429-.953-.476.381-.857.191-.857-.38 0-.477-.286-2.286-.667-4-.762-4 1.334-4.286 2.286-.381zm21.714 1.714c.286.762.095 1.714-.38 2.095-.572.286-.953-.38-.953-1.524 0-2.38.476-2.666 1.333-.571zm-30.38 3.524c0 1.143-.667 2-1.524 2-1.524 0-2-2.096-.858-3.334 1.334-1.238 2.381-.666 2.381 1.334zm5.047.571c0 1.429-2.19 2-3.333.762-.953-.857 1.333-3.429 2.38-2.762.477.286.953 1.238.953 2zm23.81 2.19c-.477 2.096-2.191 2-2.667-.19-.19-.952.38-1.619 1.333-1.619 1.048 0 1.524.667 1.333 1.81zm-3.81 2.191c0 2.667-1.714 3.429-2.286 1.048-.571-1.905-.095-3.048 1.429-3.048.476 0 .857.952.857 2zm-20 1.238c0 1.714-.476 1.905-3.333 1.238-6-1.238-6.19-2.952-.286-3.143 2.952-.095 3.619.286 3.619 1.905zm4-.19c0 1.143-.476 2-1.048 2-.571 0-.952-.857-.952-2s.38-2 .952-2 1.048.857 1.048 2zm3.905 3.714c0 1.81-.381 3.238-.953 3.238-.571 0-.952-2.095-.952-4.667 0-3.428.286-4.38.952-3.333.572.857.953 3.048.953 4.762zm8.095-3.714c0 1.143-.476 2-1.048 2-.571 0-.952-.477-.952-1.143 0-.667-1.143-.857-2.762-.572-2.571.477-2.667.477-.857-.857 2.857-2.095 5.619-1.81 5.619.572zm-21.048 4.476c0 1.524-1.81 3.047-2.666 2.19-.857-.857.476-3.714 1.619-3.714.571 0 1.047.667 1.047 1.524zm5.048 1.047c0 .762-.762 1.429-1.524 1.429-.857 0-1.524-.667-1.524-1.429 0-.857.667-1.523 1.524-1.523.762 0 1.524.666 1.524 1.523zm12 .477c0 1.143-.476 2-1.048 2-.571 0-.952-.857-.952-2s.38-2 .952-2 1.048.857 1.048 2zm4-.477c0 .762-.476 1.429-1.048 1.429-.571 0-.952-.667-.952-1.429 0-.857.38-1.523.952-1.523s1.048.666 1.048 1.523zm4.952 4.19c0 2-.285 2.382-1.143 1.525-.571-.572-.857-1.81-.476-2.667.857-2.38 1.62-1.905 1.62 1.143zm-26.095.668c1.143 1.428.476 2.571-1.524 2.571-.762 0-1.333-.857-1.333-2 0-2.286 1.238-2.571 2.857-.571zm5.62 1.142c0 2.762-2.953 2.477-3.334-.38-.286-1.81.095-2.286 1.524-2 .952.19 1.81 1.238 1.81 2.38zm8.475.572c0 2.095-1.428 2.571-2.571.857-.857-1.429.38-4.19 1.524-3.429.571.286 1.047 1.429 1.047 2.572zm3.334-1.143c.285 1.143.095 2-.381 2-.572 0-.953-.857-.953-2 0-1.048.19-2 .381-2 .19 0 .667.952.953 2zm4.666-.476c0 .762-.38 1.619-.857 2-1.047.571-2.286-2-1.428-2.857 1.047-1.048 2.285-.667 2.285.857zm-12.666 1.047c.38.762.19 1.429-.381 1.429-.476 0-.953-.667-.953-1.429 0-.857.19-1.523.381-1.523.19 0 .667.666.953 1.523zm-8.572 8.762c.286 4.762-.571 5.81-2.666 3.334-.762-.953-.858-1.62-.19-2.096.57-.285.761-2 .38-3.714-.476-2.38-.286-2.952.857-2.571.857.285 1.429 2.19 1.62 5.047zm14-4.095c.953.952 1.238.952 1.238 0 0-.667.476-1.238 1.048-1.238.571 0 .952.857.762 1.714-.476 2.476-6.19 2.476-6.572.096-.476-2 1.81-2.381 3.524-.572zm7.238.762c0 1.143-.38 2-.952 2-1.333 0-2.286-1.81-1.524-2.952 1.048-1.715 2.476-1.143 2.476.952zm4-1.524c0 .286-.476.762-.952 1.048-.572.38-1.048.19-1.048-.381 0-.572.476-1.143 1.048-1.143.476 0 .952.286.952.476zm-16 2.095c0 .762-.476 1.429-.952 1.429-.571 0-1.048-.667-1.048-1.429 0-.857.477-1.523 1.048-1.523.476 0 .952.666.952 1.523zm-4.952.477a.954.954 0 0 1-.952.952c-.572 0-1.239-.38-1.62-.952-.285-.572.096-1.048.953-1.048s1.619.476 1.619 1.048zm29.333 4.666c.667 4.857-.476 7.62-2 5.143-1.333-2-1.143-9.81.19-9.81.667 0 1.43 2.096 1.81 4.667zm-5.238 0c-.571 1.048-1.143 1.238-1.143.572 0-.667-.38-1.238-.952-1.238-.476 0-1.143 1.904-1.333 4.285-.381 4.096-.381 4-.572-1.047-.095-4.19.095-5.048 1.333-4.572.858.286 1.524 0 1.524-.762 0-.952.286-1.047 1.143-.19.762.762.762 1.619 0 2.952zm-23.619.286c0 .762-.571 1.524-1.238 1.81-.762.19-1.238-.477-1.238-1.81 0-1.238.476-1.905 1.238-1.714.667.285 1.238 1.047 1.238 1.714zm12.476.571c0 1.334-.476 2.477-.952 2.477-1.143 0-1.429-3.334-.381-4.286 1.143-1.143 1.333-.857 1.333 1.81zm4.572-1.428c.857 1.333-1.048 3.333-2.476 2.476-1.143-.667-.381-3.619.952-3.619.476 0 1.143.571 1.524 1.143zm-11.81 1.714c.286.857-.19 1.238-1.333 1.048-.952-.19-2-.953-2.19-1.715-.286-.857.19-1.238 1.333-.952.952.19 2 .952 2.19 1.62zm4.286-.857c0 1.143-2 2.476-2.667 1.714-.762-.762.476-2.666 1.715-2.666.476 0 .952.38.952.952zm-14 5.524c0 .857-.762 1.524-1.524 1.524a1.504 1.504 0 0 1-1.524-1.524c0-.762.667-1.524 1.524-1.524.762 0 1.524.762 1.524 1.524zm8.952 0c0 .857-.476 1.524-.952 1.524-.571 0-1.048-.667-1.048-1.524 0-.762.477-1.524 1.048-1.524.476 0 .952.762.952 1.524zm13.048.476c0 1.143-.667 2-1.524 2-1.524 0-2.095-2.095-.857-3.238 1.238-1.333 2.38-.667 2.38 1.238zm6.952-.952a.954.954 0 0 1-.952.952c-.572 0-1.048-.38-1.048-.952s.476-1.048 1.048-1.048c.476 0 .952.476.952 1.048zm-24.571.952c.38.476.19 1.238-.381 1.524-.571.38-1.048-.095-1.048-.953 0-1.714.572-2 1.429-.571zm9.048 0c.285.476.095 1.238-.477 1.524-.571.38-.952-.095-.952-.953 0-1.714.571-2 1.429-.571zm3.523.571c0 .858-.476 1.334-.952.953-.572-.286-1.048-1.048-1.048-1.524 0-.571.476-.952 1.048-.952.476 0 .952.666.952 1.523zm17.048 5.81c-1.333 1.333-2.476-1.714-1.524-4.095.572-1.524.762-1.429 1.62.666.57 1.524.57 2.762-.096 3.429zm-33.62-2.381c.763 1.143-.38 4-1.523 4-.476 0-.857-1.048-.857-2.476 0-2.476 1.333-3.334 2.38-1.524zm4.572 2c0 1.048-.476 2.19-1.047 2.571-1.238.762-2.381-2-1.524-4.095.762-2 2.571-.857 2.571 1.524zm5.048 0c0 2.476-1.905 3.619-2.667 1.62-.762-2.096.286-4.858 1.62-4.096.57.38 1.047 1.524 1.047 2.476zm12 .095c0 2.095-1.524 2.572-2.572.857-.952-1.428.286-4.19 1.524-3.428.572.38 1.048 1.524 1.048 2.571zm8-1.047c0 1.142-.476 2-.952 2-1.334 0-2.286-1.81-1.62-3.048 1.048-1.619 2.572-1.048 2.572 1.048zm-16 .952c0 1.143-.476 2-1.048 2-.571 0-.952-.857-.952-2 0-1.048.38-2 .952-2s1.048.952 1.048 2zm-11.333 4.762c2.571.571 3.238 4.286.762 4.286-.762 0-1.43-.477-1.43-1.143 0-.762-.475-.762-1.428.095-1.142.857-1.714.667-2.952-1.048-1.81-2.571-1.238-4.38 1.143-3.333.952.381 2.667.952 3.905 1.143zm32.285-.286c1.429 1.81.476 3.714-1.524 2.953-1.523-.667-2.095-4.381-.57-4.381.475 0 1.428.666 2.094 1.428zm-24.952 5.048c.286 5.333.095 6.476-.952 6.476-1.239 0-2.572-8.381-1.715-10.571 1.048-2.572 2.381-.381 2.667 4.095zm12.952-4c0 .857-.666 1.524-1.524 1.524-.761 0-1.428-.667-1.428-1.524 0-.762.667-1.524 1.428-1.524.858 0 1.524.762 1.524 1.524zm-8.952 1.524c0 1.142-.476 2-1.048 2-.571 0-.952-.858-.952-2 0-1.143.38-2 .952-2s1.048.857 1.048 2zm16 0c0 2.095-.857 2.38-3.429 1.428-2.952-1.143-1.714-2.666 2.667-3.333.381 0 .762.762.762 1.905zm-2.762 4.476c.952-.381 2 .19 2.667 1.428.952 1.81.762 2.286-1.429 3.048-3.143 1.238-3.238 2.762-.38 3.238 2.856.381 3.713 2.762.952 2.762-3.239 0-3.334 1.81 0 3.429 2.476 1.238 3.428 1.333 5.047.285 1.524-.952 2.095-.857 2.857.286 1.429 2.38-.762 3.905-6.285 4.286-3.143.19-5.239.762-5.524 1.619-.286 1.047.952 1.238 5.714.952 4.381-.19 6.095 0 6.095.952 0 .667-1.143 1.239-2.571 1.239-3.524 0-2.572 2.19 1.428 3.238 2.096.571 3.143 1.428 3.143 2.762 0 2.571-1.524 3.333-3.047 1.523-.762-1.047-3.048-1.523-7.143-1.523-5.429 0-6.19.285-9.905 3.714-3.048 2.952-4.19 4.762-4.571 8-.572 3.81-.286 4.38 3.333 8 3.524 3.428 4.476 3.81 8 3.524 2.286-.286 4.38.095 4.762.666 1.238 1.905 2.571 1.143 2.571-1.523 0-1.905.476-2.477 1.715-2.191 1.333.286 1.714 1.238 1.523 3.62l-.285 3.332 9.523-.666c6.096-.381 9.524-.19 9.524.38 0 .572-1.714 1.334-3.714 1.715-2.095.38-5.81 1.333-8.286 2.095-2.857.953-6.095 1.238-8.666.857-2.381-.38-6.19-.095-8.572.572-2.286.666-6.19 1.143-8.571 1.047-4.857-.19-11.143-2.476-11.143-4.095 0-.571-.857-1.047-1.905-1.047-1.524 0-2.095-.953-2.476-4.286a127.917 127.917 0 0 0-1.238-7.62l-.667-3.333 3.62.667c2.285.381 3.618.286 3.618-.38 0-.572-1.333-1.334-2.952-1.715-3.524-.667-3.524-.667-1.429-3.905 1.143-1.714 2.572-2.476 4.572-2.476 1.905 0 2.857-.381 2.571-1.238-.285-.667-1.619-1.048-2.952-.953-1.62.286-2.762-.19-3.143-1.333-.857-2.095 0-3.524 1.905-2.762.762.286 2.571.286 4-.095 2.19-.571 2.38-.857 1.333-2.19-1.048-1.334-1.048-1.715.381-2.572 1.143-.571 1.524-1.619 1.143-3.238s-.095-2.476 1.143-2.952c1.619-.667 1.619-.762-.095-2-2.477-1.81-1.239-4.667 2-4.667 2.57 0 3.333-1.333 1.523-2.476-.571-.286-.952-2.381-.952-4.572 0-2.476.38-3.81.952-3.428.572.38 1.048 1.81 1.048 3.143 0 1.619.38 2.38 1.238 2.095.667-.19 1.048-1.238.857-2.286-.38-2.38 2.762-4.762 4.381-3.428.667.571 1.905.762 2.762.476zm-22.286 1.619c0 2.38-.762 2.38-3.143.286-1.714-1.62-1.81-1.62-1.81 0 0 .857-.761 1.619-1.523 1.619-1.714 0-1.81-.19-.952-2.286.38-.952 1.905-1.524 4-1.524 2.666 0 3.428.381 3.428 1.905zm31.429-.476c.667 1.904-.095 3.333-1.905 3.333-1.333 0-2.762-3.429-1.714-4.381 1.047-1.143 2.952-.571 3.619 1.048zm-22.857 2.095c-.953 1.048-1.81-.476-.953-1.81.572-1.047.858-1.047 1.143 0 .286.667.19 1.524-.19 1.81zm-12.762 3.524c.952.857 1.238.857 1.238 0 0-.667.857-1.238 2-1.238 1.048 0 2 .666 2 1.523 0 1.048-1.238 1.429-4.571 1.429-3.334 0-4.477-.381-4.477-1.429 0-1.81 2.096-2 3.81-.285zm36 2.571c.286 1.81-.095 2.286-1.524 2-.952-.19-1.905-1.333-2.095-2.667-.286-1.81.095-2.285 1.524-2 .952.19 1.904 1.429 2.095 2.667zm-30.953 4c.286 2.381-.476 2.667-2.761 1.238-1.62-1.047-.667-4.38 1.142-3.81.667.191 1.429 1.43 1.62 2.572zm4.19.667c0 .857-.475 1.524-.951 1.524-1.334 0-2.19-1.524-1.429-2.381 1.143-1.143 2.38-.667 2.38.857zm-7.332 3.333c1.142-.952 1.619-.857 2.38.286 1.048 1.714 1.143 2.857.191 2.952-.476.095-2 .286-3.429.476-1.714.19-2.952-.19-3.238-1.238-.857-2.095.286-3.714 1.715-2.38.666.761 1.428.666 2.38-.096zm2.762 7.143c0 1.905-4.477 2.667-5.524.952-1.238-2-.096-3.047 2.857-2.666 1.619.095 2.667.857 2.667 1.714zm37.428 4.095c1.905 3.62 2.762 7.905 1.714 7.905-2.571 0-3.619-1.62-3.619-5.333 0-2.286-.571-4.762-1.238-5.429-.762-.762-.762-1.238-.095-1.238s2.095 1.905 3.238 4.095zm-15.905 5.81c0 .476-.857 1.619-2 2.666-2.476 2.19-2.571 5.238-.38 7.62 1.618 1.714 1.523 1.809-.382 1.809-2.476 0-5.238-3.429-5.238-6.667 0-2.857 3.334-6.285 6-6.285 1.143 0 2 .38 2 .857zm21.524 5.238c.286.476-1.048 1.143-2.952 1.428-3.334.667-3.524.953-3.524 4.667 0 3.238-.381 3.905-1.81 3.62-2.095-.382-2.762-4.382-1.333-8.096.857-2.19 1.524-2.572 5.048-2.572 2.285.096 4.285.477 4.571.953zm-13.714 2.571c-.476 3.905-2.762 4.286-2.572.381.19-1.714.858-3.047 1.62-3.047.761 0 1.142.952.952 2.666zm12.762 1.429c.857 1.428-.19 2.286-2.096 1.524-.857-.286-1.333-1.048-.952-1.62.762-1.333 2.19-1.238 3.048.096zm15.428 1.905c0 .571-.952.952-2.095.952-1.143 0-1.714-.381-1.429-.952.381-.572 1.334-1.048 2.096-1.048s1.428.476 1.428 1.048zm5.048.952c0 .571-.476 1.048-1.048 1.048-.571 0-.952-.477-.952-1.048 0-.476.38-.952.952-.952s1.048.476 1.048.952zm-12 1.048c0 .571-.952.952-2 .952s-2.19-.381-2.572-.952c-.285-.572.477-1.048 2-1.048 1.334 0 2.572.476 2.572 1.048zm8.952.571c0 2.095-2.19 4.19-4 3.714-2.476-.666-2.666-2.952-.285-3.619 2.761-.666 4.285-.762 4.285-.095zm-15.524 4.476c-.38.572-1.333.953-2.19.953-1.238 0-1.333-.286-.286-1.524 1.238-1.524 3.429-1.048 2.476.571zm-7.333.476c0 .477-.476 1.048-1.047 1.238-.572.286-1.048-.38-1.048-1.238 0-.952.476-1.523 1.048-1.333.57.19 1.047.762 1.047 1.333zm20.857 9.429c.762.476 1.143 1.238.857 1.524-.762.762-3.81-.476-3.81-1.62 0-1.142 1.049-1.047 2.953.096zm-22.952 5.048c-1.429 1.047-6.095 3.142-10.476 4.571-7.143 2.286-8.381 2.476-11.81 1.333-4.666-1.524-4.857-2.952-.38-2.952 2 0 4-.667 5.047-1.905 1.333-1.524 3.428-2 8.476-2.286 3.62-.19 7.714-.476 9.143-.571l2.476-.19-2.476 2zm12.952 1.428c0 .286-.476.762-.952 1.048-.572.38-1.048.19-1.048-.381 0-.572.476-1.143 1.048-1.143.476 0 .952.286.952.476zm-12 19.714c0 .572-.666 1.715-1.524 2.477-1.333 1.333-1.428 1.238-1.428-.858 0-1.333.286-2.761.571-3.047.857-.857 2.381.095 2.381 1.428zm-10-.19c0 .571-.762 1.048-1.714 1.048-1.524 0-1.524-.191-.286-1.048 1.905-1.143 2-1.143 2 0z"/>
	<path d="M123.748 57.819c-2.762.38-4.095 1.047-4.38 2.285-.286 1.905-.953 1.81 14.952 2.096 3.238.095 6.285.761 7.333 1.619 1.81 1.523 4.571.571 5.333-1.715 1.048-3.238-12.19-5.619-23.238-4.285zM167.272 62.866c0 .572.381.953.857.953.572 0 1.238-.381 1.62-.953.285-.571-.096-1.047-.953-1.047s-1.524.476-1.524 1.047z"/>
	<path d="M134.51 63.723c-1.238.096-2.286.953-2.286 1.715 0 1.904 2.858 3.047 4.19 1.714 1.62-1.714.477-3.81-1.904-3.429zM151.367 68.39c.477 3.429 2.762 4.952 6.19 4.095 3.334-.857 2.667-2.762-1.618-4.571a87.752 87.752 0 0 1-4-1.81c-.476-.285-.762.762-.572 2.286zM178.796 101.438c-1.429 1.047-1.62 1.714-.857 2.571 1.333 1.333 16.19 1.905 16.952.571.286-.476-.286-1.714-1.238-2.761-2.19-2.477-11.905-2.667-14.857-.381zM176.224 110.77c-1.333 2.477.096 3.43 3.334 2.191 1.333-.571 3.428-.762 4.571-.38 2.953.761 5.143-.382 4.476-2.191-.762-1.81-2.762-2-5.333-.286-1.619.953-2.286.953-3.238 0-1.714-1.714-2.571-1.524-3.81.667zM195.272 110.866c-1.333.762-1.333 1.143.19 2.667 2 2 4.477.571 3.43-2.095-.668-1.81-1.525-1.905-3.62-.572zM134.605 117.914c-5.619 1.714-6.285 4.095-1.619 6.666 2.858 1.62 2.953 1.62 3.524-.761.286-1.143 1.334-2 2.667-2 2.571 0 3.905-2.762 1.905-4-1.62-1.048-2.381-1.048-6.477.095zM150.7 123.533c-2.761.857-6.666 1.81-8.761 2-4.095.571-4.953 1.333-3.905 3.143 1.048 1.619 17.429 2.095 17.905.476.285-.762-.286-1.333-1.143-1.333s-1.524-.381-1.524-.953c0-.762.572-.762 1.905 0 1.238.667 2.762.667 4.476 0 3.048-1.143 3.143-1.81.857-3.619-2.19-1.619-3.524-1.619-9.81.286zM128.224 134.866c-3.523 3.524-2.19 5.238 2.286 2.762 4-2.286 4.953-4.762 1.714-4.762-1.142 0-2.857.857-4 2zM115.272 139.818c-2 .381-4.571 1.239-5.714 1.905-1.238.572-2.953 1.143-3.905 1.143-2.19 0-4.38 2.857-4.38 5.714 0 1.715-.668 2.286-2.477 2.286-2.095 0-6.381 4.476-5.333 5.62.762.761 14.19-4.477 14.571-5.715.286-.857-.286-.953-2.19-.476-2.477.571-2.667.476-1.62-1.429.572-1.048 2-2 3.048-2 1.143 0 3.143-.667 4.476-1.619 1.334-.857 2.762-1.333 3.334-.952 1.333.857 7.142-2.381 7.142-4 0-1.524-1.428-1.62-6.952-.477zM155.082 141.533c.666.285 1.523.285 1.904-.095.286-.286-.285-.572-1.333-.477-1.143 0-1.429.286-.571.572zM86.986 148.58c-1.523.19-2.761.858-2.761 1.334 0 .571-2.19.952-4.762.952-4.762 0-7.238 1.238-7.238 3.62 0 1.809 2.857 2.475 5.142 1.332 1.143-.666 3.715-1.238 5.715-1.428 6.285-.476 12.285-2.667 11.904-4.476-.285-1.62-3.238-2.096-8-1.334zM43.748 166.77c-.762 1.239 1.143 2.382 2.477 1.62 1.142-.762.38-2.572-.953-2.572-.571 0-1.143.477-1.524.953zM397.653 77.914c-1.334 2.19 1.143 2.762 7.524 1.81 8-1.144 8.857-1.715 2.285-1.715-2.762 0-6-.286-7.047-.571-1.143-.381-2.381-.19-2.762.476zM405.272 81.723c-4.572.667-6.476 2.572-3.334 3.524.953.286 4.286.095 7.334-.476 2.952-.572 6.286-1.048 7.238-1.048.952 0 1.714-.666 1.714-1.428 0-1.524-4.286-1.715-12.952-.572zM416.415 85.723c-1.238.953-2 2-1.524 2.476.952.953 4.762.858 7.905-.38 2.19-.858 2.476-1.239 1.428-2.477-1.619-2-4.952-1.81-7.81.381zM404.605 100.009c-2.38 1.143-4.38 4.857-4.38 7.905 0 1.619.666 1.905 4 1.905 2.856 0 4-.381 4-1.429 0-.762-.477-1.714-.953-2-.667-.381-.381-1.524.571-3.048.857-1.333 1.238-2.857.953-3.428-.858-1.238-1.429-1.238-4.19.095zM483.272 86.009c0 .952 4.38 2.19 5.905 1.714.57-.19-.477-.857-2.477-1.428-1.904-.667-3.428-.762-3.428-.286zM465.272 86.485c-2.19 2.762-2.762 6.381-1.048 6.381.572 0 1.524-1.238 2-2.762.572-1.524 1.429-3.524 2-4.476 1.62-2.762-.571-2.095-2.952.857zM469.462 88.39c-1.428 1.619-1.619 4.476-.38 4.476.57 0 1.428-1.333 2-3.047 1.142-3.143.475-3.81-1.62-1.429zM374.89 96.676c-.38 2-1.047 4.19-1.428 4.857-.857 1.333-8.38 2.952-8.19 1.714.476-2.286-.286-2.19-3.048.286-1.619 1.428-2.762 2.952-2.476 3.333.762 1.238 10.667-.19 12.571-1.905.953-.857 2.477-2.19 3.334-2.857 1.619-1.428 2.19-7.714.666-8.666-.476-.286-1.142 1.142-1.428 3.238zM478.89 104.58c-.38.286-.666 1.048-.666 1.62 0 .666.476.57 1.143-.096.667-.666.952-1.428.667-1.714-.286-.286-.762-.19-1.143.19zM462.224 104.866c0 .572.476.953 1.048.953a.954.954 0 0 0 .952-.953c0-.571-.476-1.047-.952-1.047-.572 0-1.048.476-1.048 1.047zM429.653 113.914c-1.143 1.905.571 2.38 2.285.666 1.62-1.619 1.62-1.714.096-1.714-.953 0-2 .476-2.381 1.048z"/>
</svg>
