<?xml version="1.0" encoding="utf-8"?>
<svg xmlns="http://www.w3.org/2000/svg" version="1">
	<path d="M7.963 3.525C6.44 6.192 5.868 8.954 5.773 14.287c-.095 4-.572 11.524-1.048 16.667-.571 5.238-1.428 26.857-1.81 48-.475 21.238-1.333 54.761-1.809 74.57-.571 22.096-.666 36.953-.095 38.382.667 1.619.571 4.286-.286 7.524C-.799 206 .345 498.572 1.963 509.144c1.334 8.571.667 238.856-.952 321.333-.857 44-.857 59.904.095 69.523 1.62 16.572 1.524 70.286-.095 124-1.143 34.857-1.143 46.572-.19 58.953.761 8.571 1.238 17.619 1.238 20 .095 2.476.095 17.142.095 32.57v50c.095 12.096-.286 24.096-.762 26.572-.476 3.143-.381 4.857.38 5.334.572.38 1.144 1.81 1.144 3.047v2.476l73.238.286c58.38.19 135.714-.38 149.428-1.238 2.667-.095 7.238-.095 10.762 0 5.81.19 12.19.286 14.571.095 1.334-.095 3.905.095 5.715.476 2.095.381 4.666.096 7.238-.952 2.857-1.143 7.238-1.619 14.38-1.619 8.572 0 10.477-.286 11.048-1.619.286-.857.572-10.095.572-20.571 0-10.381.476-19.715.952-20.762.572-1.048 1.048-169.714 1.143-457.619.095-294.952.476-459.619 1.143-466.476.571-5.714 1.143-34 1.428-62.857.381-44.666.19-52.762-1.047-55.428-1.429-3.238-1.143-8.667.571-9.715.762-.57 2-24.761 1.715-34.666-.381-14.095.095-61.238.571-67.238.38-4.19.38-10.286.095-13.62l-.666-6.094-9.239-.667c-5.047-.381-9.333-1.143-9.523-1.714C276.82.382 230.82 0 143.39 0H10.06L7.963 3.525zm42.572 20.952c0 .762-.381 1.238-.857.953-.477-.286-.762-.953-.762-1.524 0-.476.285-.952.762-.952.476 0 .857.666.857 1.523zm72.19 16.096c.572.571-3.619 6.762-5.905 8.762-1.619 1.333-2 2.476-1.523 4.285.476 1.905 0 3.524-1.905 5.905-2.953 3.905-2.953 3.905-.953 5.905 1.334 1.333 1.429 2.095.477 4.476-1.238 3.048-7.905 8.286-12 9.619-1.429.38-4.477 1.81-6.858 3.143-5.238 2.857-7.333 2.952-9.047.286-1.143-1.905-.762-3.334 2.38-11.334 2.096-4.952 4.287-9.81 5.048-10.666.762-.858 1.429-1.905 1.429-2.19 0-1.81 8.571-12.668 12.286-15.62 3.047-2.476 9.143-4.095 12.762-3.524 1.904.286 3.619.762 3.81.953zm68.571 1.333c.477 1.333 1.239 1.714 2.762 1.333 2.858-.762 12.096 4.381 14.096 7.905.857 1.62 1.523 2.857 1.333 2.857-.095 0-1.81-1.143-3.62-2.476-1.904-1.429-5.142-3.048-7.237-3.62-2.095-.57-3.714-1.428-3.714-1.904 0-.571-.572-1.047-1.143-1.047-.667 0-.857.857-.477 1.81.477 1.428.286 1.428-.952-.191-.762-1.048-1.428-2.286-1.428-2.762 0-.381-1.143-1.048-2.572-1.429-3.143-.762-3.238-2.38 0-2.38 1.429 0 2.572.761 2.952 1.904zm-56.952 3.333c4 2.572 4.381 4.667 1.333 7.334-2.095 1.904-2.095 1.904-1.523-.667.857-3.333-1.524-6.952-3.429-5.143-.952.952-1.428.762-2.476-.571-.762-.953-1.333-2-1.333-2.477-.096-1.523 4.095-.666 7.428 1.524zm44.572-1.333c0 1.905-16.096 15.81-21.905 18.952-3.334 1.81-6.095 3.905-6.095 4.572 0 .762-.762 1.619-1.524 1.904-.857.381-1.524 1.334-1.524 2.286 0 .857-1.143 2.953-2.476 4.572-2.381 2.762-2.953 5.619-2.857 13.238.095 4-7.048 7.428-8.286 4.095-1.62-4.19-13.81.095-12.667 4.38.286 1.239-.285 2.287-1.619 3.049-1.238.666-2.095 2.095-2.095 3.523 0 1.334-.381 2.667-.952 2.953-.477.38-1.143 1.904-1.524 3.524-.476 2.285-1.334 2.952-4.095 3.523-3.048.572-4.19.19-9.239-3.047-.19-.19 1.334-3.81 3.334-8.096 2.286-5.142 3.81-10 4.19-14 .381-4.38.953-6 1.81-5.714 1.238.476 5.524-3.238 5.524-4.762 0-.38 2.762-2.476 6.19-4.666 3.429-2.19 7.62-5.429 9.238-7.143 10.381-11.143 11.429-11.81 19.143-12.572 6.476-.571 7.714-1.047 11.619-4.38 2.286-2 5.429-4.382 6.762-5.334 2.667-1.714 9.048-2.38 9.048-.857zm12.095 7.333c.571 2.381 1.238 7.048 1.428 10.476.286 6.19.286 6.381-3.904 10.572-2.286 2.38-5.143 5.714-6.286 7.333-1.143 1.524-2.476 2.572-2.953 2.095-1.333-1.238 2.762-7.81 6.286-10.095 2.857-1.81 3.334-2.666 3.048-5.524-.381-4.571-2.572-5.238-2.953-.952-.285 3.429-3.81 5.62-3.81 2.476 0-2.19-.951-2-3.618.476-1.905 1.81-2.095 2.572-1.238 4.19.952 1.81.857 1.906-1.524 1.334-2.286-.571-2.571-.38-2.571 1.714 0 1.62-.762 2.572-2.19 2.953-1.81.476-2 .857-.953 2.095 1.047 1.238.571 1.714-2.381 3.143-1.905.952-3.524 1.905-3.524 2.19 0 1.429 2.476 8.953 3.238 10 .571.667.476 2-.19 3.239-.667 1.142-.858 2.476-.572 2.952.286.571.095 1.238-.476 1.619-.571.286-1.048 1.619-1.048 2.762 0 1.238-.857 4.667-2 7.714-1.143 2.952-1.904 6.572-1.619 8 .286 1.333 1.048 4.572 1.62 6.952 2.952 12.477 3.237 17.048 1.618 22.19-.857 2.668-2.285 5.715-3.142 6.668-.858.952-2.286 2.666-3.239 3.81-2.666 3.428-5.619 3.809-7.523.952-1.524-2.191-1.429-2.572.38-4.953 1.143-1.333 2.667-4.286 3.43-6.476 1.142-3.333 1.142-4.19 0-5.905-1.43-2-1.43-6.19 0-13.333.57-2.953.285-4.095-1.81-6.572-2-2.38-2.762-4.761-3.715-13.047-.952-7.62-.952-10.857-.095-13.333 1.429-4.096 1.429-9.143.095-12.19-.857-1.81-.666-3.525.953-7.81 2.095-5.524 3.428-6.762 12-11.334 4.38-2.285 15.143-10.571 15.143-11.714 0-.381 1.714-2.571 3.904-4.857 5.429-5.62 8.572-5.524 10.19.19zm13.714 4.096c.952 1.142.762 1.523-.762 1.904-2.095.572-4.571-1.428-3.428-2.571 1.047-1.048 3.047-.762 4.19.667zm4.381 5.333c-.762 1.238-2.762 2.476-4.381 2.857-3.714.857-4.952-.19-1.714-1.429 2.952-1.047 5.238-3.619 4.476-4.952-.381-.571-.095-1.143.667-1.429 1.904-.666 2.571 2.572.952 4.953zm-76.286.095c-.19 3.905-7.047 5.62-7.81 1.905-.285-1.429.096-1.714 1.715-1.238 1.048.38 2.286.19 2.572-.381.761-1.238 3.619-1.429 3.523-.286zm-12.952 2.667c0 1.428-2.857 3.047-3.81 2.095-.571-.571 1.81-3.524 2.953-3.524.476 0 .857.667.857 1.429zm3.524 4.952c-.857 1.238-3.905 3.62-6.762 5.143-4.19 2.286-4.952 2.476-3.714.952 2.38-3.143 5.333-5.428 7.714-6.095 1.238-.286 2.286-.952 2.286-1.524 0-.476.38-.857.952-.857.571 0 .38 1.048-.476 2.381zm-17.524 12.095c0 .19-.476 1.62-1.143 2.953-1.143 2.571-2.857 3.524-2.857 1.524 0-.477-.762-.953-1.714-.953-1.238 0-.953-.571 1.238-1.905 2.952-2 4.476-2.476 4.476-1.619zm72.476 10.477c0 5.047-.286 6.285-2.19 7.619-1.238.857-2.286 2.38-2.286 3.523 0 1.048-.476 1.905-.952 1.905-.572 0-2.096 1.238-3.524 2.762-1.334 1.524-2.476 2.095-2.476 1.429 0-.762 1.333-2.477 2.952-3.81 2.762-2.38 3.428-5.238 1.714-7.048-.38-.38-.19-1.238.381-1.904.667-.857.667-1.429 0-1.905-1.905-1.143-1.143-2.762.953-2.19 1.523.38 2.285-.286 3.428-2.953.762-1.81 1.524-3.333 1.714-3.333.19 0 .286 2.666.286 5.905zm-84.476-4.19c0 1.237-6 4.19-8.38 4.19-1.239 0-2.763.571-3.525 1.333-1.047.952-1.238.857-.952-.762.476-2.667 12.857-7.333 12.857-4.762zm52.476 3.999c-.095 2.571-.762 6.095-1.333 7.714-.667 1.715-1.429 3.524-1.62 4.19-.285.858-1.523.667-4.38-.761-5.143-2.476-6.476-4.476-1.714-2.476 3.619 1.524 3.714 1.524 3.142-.667-.285-1.238-.285-1.714 0-1.048 1.62 3.429 4.477-1.619 4.477-7.714 0-2.19.285-4 .761-4 .477 0 .762 2.095.667 4.762zm-44.666.476c1.809 1.81 1.428 4.286-1.334 9.715-1.333 2.761-2.476 5.523-2.476 6.285 0 .762-.952 2.095-2.095 3.048-1.524 1.333-1.905 2.762-1.715 5.524.286 3.047.762 3.714 2.858 4 1.333.19 2.857.762 3.428 1.238.476.571 1.905.952 3.238.952 2.667 0 2.096 2.572-.762 3.524-1.047.38-1.904 1.143-1.904 1.905 0 .666-.953 2.095-2 3.047-1.143 1.048-2 2.572-2 3.524s-1.715 4.762-3.81 8.572c-3.333 6.095-4.19 6.952-6.952 7.238-3.62.38-4.667-1.048-5.715-7.334-.476-2.571-1.904-5.428-4.095-7.81-2.857-3.047-4-3.714-7.428-3.714-4.667 0-9.238 2.096-13.334 5.81-1.81 1.81-2.666 2.19-2.666 1.143 0-1.429 6.571-12.953 7.904-13.905.381-.286 1.143-1.238 1.62-2.095.857-1.524 3.904-5.429 9.523-12.286 1.429-1.714 3.62-4.952 4.762-7.238 2.476-4.857 5.905-7.524 12.19-9.333 2.382-.667 5.143-1.62 6-2.095 2.191-1.239 5.43-1.143 6.763.285zm30.666 5.715c.286.476-.286.666-1.333.38-1.143-.285-2.762.381-4 1.715-1.143 1.333-2.381 2-2.667 1.714-.38-.286.381-1.524 1.62-2.667 2.38-2.19 5.428-2.762 6.38-1.142zm-4.476 6.57c-.667.763-1.714 1.43-2.381 1.43-.571 0-.286-.667.857-1.524 2.476-1.81 3.143-1.81 1.524.095zm-7.905 5.715c-1.143 1.81-2.095 2.572-2.095 1.715 0-1.81 2.952-6.286 3.714-5.524.286.285-.38 2-1.619 3.81zm14.953-1.714c0 2.667-3.334 9.905-5.048 10.952-1.905 1.143-1.048 2.476 1.524 2.476 2 0 2.476.477 2.095 1.81-.38 1.143.381 2.857 2 4.571l2.571 2.858-2.19 1.523c-1.524 1.048-2.095 2.286-1.714 3.905.285 1.81 0 2.381-1.334 2.381-2.095 0-2.952 2.572-1.81 5.81 1.239 3.333-3.428 8.857-8.666 10.285-3.524 1.048-4.476.857-8.476-1.238-2.762-1.428-5.143-3.619-6.19-5.714-.858-1.81-2.381-4.095-3.239-5.048-2-2.19-2-3.523-.095-5.143.857-.666 1.524-2 1.524-3.047 0-1.048.476-1.905.952-1.905 1.238 0 9.048-7.428 9.048-8.571 0-1.524 3.333-4.477 5.048-4.477 1.619 0 3.523-3.714 5.523-10.761.381-1.334 3.905-3.048 6.667-3.143 1.238 0 1.81.762 1.81 2.476zm46-1.714c0 1.619-3.81 4.19-5.239 3.619-1.142-.381-1.714.476-2.19 3.619-.571 3.524-.381 4.38 1.619 5.904 2.19 1.81 2.286 1.81 4 0 .952-1.047 1.81-2.761 1.81-3.904 0-1.143.476-2.095 1.238-2.095.857 0 1.142 2.19.857 8.19-.286 7.333-1.429 9.429-2.286 4.38-.571-3.237-3.429-2.951-4.857.382-1.524 3.81-1.238 4.667 1.428 4.286 1.715-.286 1.81-.096.858.952-2.286 2.286-1.524 4.19 1.238 3.429 3.047-.762 3.524 2 .476 2.952-1.143.286-2 1.524-2 2.571 0 1.143-.476 2.953-1.048 4-.666 1.334-.666 2.477.096 3.905.857 1.714.571 2.476-1.905 4.476-1.524 1.334-3.143 3.81-3.524 5.429-.286 1.714-1.524 4-2.667 5.143-2 2-2.857 7.333-3.333 22.666-.095 1.429-.762 2.286-1.81 2.286-.857 0-2.095 1.238-2.571 2.857-1.238 3.334-7.048 8.095-9.905 8.095-4 0-6.095-4.476-6.666-14.476-.286-4.571-2.858-11.428-5.905-15.714-1.048-1.524-1.048-2 .286-2.762 2.952-2 6.38-.667 8.19 3.238.952 2 2.667 4.19 3.81 4.762 2.571 1.429 7.238.476 9.238-1.81 1.714-2.095 8.952-15.238 8.285-15.238-.285 0 .19-2.095.953-4.666 1.904-6.19 1.81-13.524-.095-19.81-1.334-4.285-1.905-11.428-1.524-17.714.19-2.762 7.714-9.81 10.571-9.81 1.429 0 2.572.381 2.572.858zM138.344 108c.381.572.19.953-.38.953-.572 0-1.048-.381-1.048-.953 0-.571.19-1.047.38-1.047.286 0 .762.476 1.048 1.047zm-40.476 4a.954.954 0 0 1-.952.953c-.572 0-1.048-.381-1.048-.953 0-.571.476-1.047 1.048-1.047.476 0 .952.476.952 1.047zm79.143 3.238c-.667.667-1.143.762-1.143.095 0-1.333 1.143-2.476 1.81-1.81.285.287 0 1.049-.667 1.715zm-64.19 3.334c-1.524 1.81-2.953 1.81-2.953 0s3.333-3.905 3.81-2.477c.19.572-.191 1.62-.858 2.477zm-7.43-1.143c1.144.857 1.525 1.523.953 1.523-.571 0-1.81-.666-2.952-1.523-1.048-.762-1.429-1.429-.953-1.429.572 0 1.905.667 2.953 1.429zm4.572 6.285c-.857 1.429-1.047 1.524-1.047.19-.096-1.713 1.047-3.142 1.714-2.475.19.19-.095 1.238-.667 2.285zm-8.952 11.905c-1.143 2.19-2.095 3.62-2.095 3.238-.096-1.333 3.047-8.095 3.619-7.524.285.286-.477 2.19-1.524 4.286zm-28 4c1.143 1.048 1.905 3.048 1.905 5.048 0 4.857 2.285 9.905 5.619 12 2.095 1.428 4.38 1.81 9.904 1.524 6-.19 7.334.095 8.953 1.81.952 1.047 1.524 2 1.143 2s-.19 1.142.38 2.666c.763 2 .667 3.143-.476 4.952-1.904 2.857-2 4.381-.19 4.381 1.143 0 1.143.571.19 3.524-.666 1.905-1.523 3.714-1.904 4.095-1.238 1.333-.667 2.381 1.238 2.381 1.619 0 1.81.571 1.428 4.286-.762 6.476-1.047 7.143-2.857 5.714-.762-.667-2.476-1.048-3.81-.762-2 .381-2.285.095-1.904-1.905.476-2.571 2.286-4.285 2.286-2.19 0 .952.19.952 1.142.095.858-.857.858-1.524-.19-2.667-1.238-1.619-.667-9.428.952-12.57 1.334-2.572-.571-6-3.428-6-1.714 0-2.953-.763-3.62-2.287-1.714-3.714-10.856-6.38-10.856-3.238 0 1.048.952 1.524 2.857 1.524 1.619 0 3.143.667 3.428 1.524.477 1.143-.38 1.428-4.38 1.428-4.191 0-4.953-.285-4.953-1.81 0-2.475-2.571-7.428-4.952-9.618-1.143-1.048-2.096-2.286-2.096-2.952 0-.572-.952-1.62-2.19-2.191-8.952-4.571-10.762-5.714-10.762-6.857 0-4.381 13.333-7.333 17.143-3.905zm114.857 2.667c0 2.666-1.905 7.905-2 5.428 0-.38-1.143 0-2.476.858-2.19 1.428-2.476 1.428-2.476.19 0-.857-.286-2.952-.667-4.667-.476-2.38-.286-3.143.857-3.143.857 0 1.81.762 2.19 1.62.762 2 2.572.857 2.572-1.62 0-1.047.476-2 1.048-2 .476 0 .952 1.524.952 3.334zm-136.19 2.762c-.286 1.619.476 2.38 3.428 3.428 4.762 1.62 8.667 4.19 9.429 6.096.857 2.285-.476 2.952-2.381 1.238-2.381-2.096-7.81-4.858-9.715-4.858-2 0-5.047 5.905-3.714 7.239.667.666 1.334.285 2.095-1.048 1.334-2.476 4.286-2.762 6-.667 1.524 1.81.572 3.524-2 3.524-1.714 0-1.81.286-.761 2.476 1.238 2.762-.381 8.19-2.096 7.048-1.333-.762-2.476 1.428-1.428 2.571.571.572 2.952 1.238 5.333 1.715 5.62.952 6.19 2.761 1.333 4.095-5.238 1.428-9.904 1.333-11.142-.19-1.524-1.81-1.715-10.191-.381-16.191 2.857-13.333 4.476-18.572 5.714-18.572.38 0 .476.953.286 2.096zM152.154 150c-1.334 4.286-2.572 6.952-3.334 6.952-.476 0-.952 1.048-1.143 2.286-.19 1.714-1.047 2.381-3.523 2.572-4.096.38-4.286-1.334-.381-3.62 3.428-1.904 6.095-6 6.095-9.428 0-1.333.286-2.762.762-3.143.857-.952 2.095 2.476 1.524 4.381zm-54.953.952l1.429 2.858-5.143.38c-6.19.572-7.81-.476-3.714-2.19 1.714-.667 3.524-1.81 4.19-2.571 1.524-1.905 1.524-1.905 3.238 1.523zm6.19 2.286l1.62 3.238-2.095-2.38c-1.143-1.239-2-2.763-2-3.239 0-1.714.952-.762 2.476 2.381zm79.525 3.81c1.333.666 2 2.095 2 4.19 0 3.238-5.524 15.429-9.715 21.714-1.238 1.905-2.285 4.096-2.285 4.762 0 .572-.572 2.381-1.143 4-.667 1.524-1.238 3.81-1.334 5.048-.095 1.238-.952 2.857-2 3.619-1.047.762-2.095 2.571-2.285 4.095-.477 3.334-6.667 8.572-15.334 13.048-2.762 1.428-3.238 1.428-5.81-.095-3.237-1.905-5.428-8.572-4.475-13.429l.571-3.143 3.333 3.238c2.953 2.762 3.715 3.048 7.048 2.476 2.095-.38 5.048-1.333 6.476-2.095 4-2.095 9.524-9.333 11.048-14.38.762-2.382 1.905-4.572 2.571-4.858.762-.19 1.334-.857 1.334-1.428 0-.572-.762-.762-1.524-.477-1.81.667-1.81-.857-.572-12.476.857-8.19 3.238-12.762 7.334-14 1.238-.38 2.38-.666 2.571-.762.095-.095 1.143.381 2.19.953zm-75.524.952c.286.572 1.428.952 2.571.952 2.476 0 2.476 2.667 0 4-1.619.858-2.19.572-3.524-2.095-.857-1.714-1.523-3.333-1.523-3.524 0-.761 1.904-.285 2.476.667zm56.476 1.524c0 .857-.476 1.333-1.048.952-.571-.285-.762-1.047-.38-1.524.857-1.428 1.428-1.142 1.428.572zm-92.952 3.524c0 1.143-.477 1.81-1.048 1.428-.571-.285-.952-1.238-.952-2 0-.857.38-1.524.952-1.524.571 0 1.048.953 1.048 2.096zm51.81.476c2.19 1.81 4.094 2.476 7.523 2.476 2.571 0 4.667-.476 4.667-1.048 0-.476.666-.952 1.619-.952 1.333 0 1.333.286.285 1.524-.666.857-.952 2.667-.571 4.476l.571 3.048-3.047-1.62c-1.81-.952-4.096-1.333-5.524-.952-2 .476-3.238-.19-6.476-3.428-4-4.096-4.953-4.286-9.524-1.334-1.429.953-2.381 1.048-2.857.381-.667-1.047 5.81-4.762 8.666-4.952.858-.095 2.953.952 4.667 2.38zm-16.287 1.524c.858 1.428-1.619 4.285-2.761 3.143-.953-.953 0-4.19 1.238-4.19.476 0 1.142.475 1.523 1.047zm11.905 3.143c2.953 1.333 3.143 3.428 1.048 10.38-1.905 6.096-1.905 9.143-.19 12.477.761 1.428 1.714 3.904 2.095 5.428.38 1.62 1.619 4 2.666 5.334 2.667 3.428 1.714 3.81-2.762.857-2.095-1.334-5.619-3.048-7.714-3.715l-3.905-1.142.572-4.953c.762-5.905-.667-10.19-3.905-12.38-3.81-2.477-2.762-5.43 3.619-9.715 3.048-2 5.619-3.714 5.714-3.714.096 0 1.334.476 2.762 1.143zm16.381 11.619c.857 1.142 1.143 3.523.857 7.523-.38 4.477-.19 5.905.857 6.381 1.81.667.953 7.238-1.142 8.857-1.048.858-1.048 2.096.095 6.762.952 4.286 1.047 5.715.19 5.429-.666-.286-1.428-1.333-1.619-2.381-.19-1.048-1.143-2.952-2.19-4.286-1.048-1.238-2.381-4.19-2.953-6.476-.666-2.286-1.714-4.762-2.476-5.619-3.524-4.095-3.714-13.619-.286-17.714 1.524-1.81 6.762-.953 8.667 1.524zm5.143 4.19a.954.954 0 0 1-.952.952c-.572 0-1.048-.38-1.048-.952 0-.571.476-1.048 1.048-1.048.476 0 .952.477.952 1.048zm81.047 4.952c0 .572-.761 1.048-1.619 1.048-.857 0-1.238-.476-.952-1.048.381-.476 1.048-.952 1.62-.952.475 0 .951.476.951.952zm-115.618 9.62c2.857 1.142 1.81 3.142-1.429 2.666-2.952-.476-3.619-1.238-2.286-2.571.762-.857 1.715-.857 3.715-.096zm3.238 4.952c2.095.19 4.38.38 5.143.38.666.096 1.714 1.239 2.38 2.667.762 1.62 1.715 2.286 2.667 1.905.762-.285 2.476.476 3.81 1.62 1.904 1.904 2.19 2.856 1.714 6.285-.286 2.286-1.238 6-2.095 8.286-.857 2.285-1.143 5.143-.762 6.285.38 1.238.095 3.429-.476 5.048-.953 2.286-.953 3.333.38 5.905 1.334 2.571 1.43 3.81.477 6.952-.857 3.048-1.524 3.81-3.048 3.429-2.286-.667-2.19-.476-.286-5.048 1.239-2.952 1.239-4.19.381-6.476-.666-1.524-1.619-2.762-2-2.762-1.714 0-5.904 10.667-5.904 14.857 0 4.762.38 4.952 3.523 2 2.381-2.095 4.477-1.81 4.477.762 0 1.905-5.048 9.333-6.381 9.333-.477 0-.381-.762.38-1.714 2.667-3.238 4-6.286 3.334-7.428-.381-.572-1.429.285-2.571 2.095-1.143 1.714-2.381 3.047-2.858 3.047-1.81 0-9.047 8.857-11.523 14-1.429 3.048-2.953 5.81-3.334 6-1.047.857-7.714 14.953-9.714 20.572-.952 2.762-2.095 5.238-2.381 5.428-.38.286-2.762 4.857-5.333 10.19-2.572 5.334-5.238 9.906-5.905 10.191-.952.286-.952.857 0 2.572.857 1.333 1.048 2.762.476 3.428-.952 1.238-3.238 8.667-3.238 10.572 0 .571.476 1.047 1.048 1.047.476 0 .952-.857.952-2 0-1.047.476-2 1.048-2 1.714 0 1.047 5.715-1.048 7.524-2.286 2.095-2.476 4-.857 13.333 1.048 5.81.952 7.238-.381 10-1.333 2.667-1.429 4.381-.667 9.334.572 3.238 1.81 7.619 2.953 9.619 1.047 2.095 1.904 4.095 2 4.571 0 2.095 13.333 15.238 19.238 18.857 5.047 3.238 5.619 4.19 3.143 5.62-1.334.761-1.429 1.237-.477 3.142 1.143 2 1.334 2.095 2.953.667 1.524-1.429 1.905-1.238 4.38 1.905 2.286 2.857 2.953 5.047 3.81 12.19 1.048 8.952 1.238 20 .286 21.429-.286.476-1.905.857-3.524.857-3.047 0-3.143-.095-2.571-3.62.38-2.19.095-4.952-.762-6.952-.762-1.81-1.143-3.523-.857-3.81 1.428-1.428-4.953-13.618-7.143-13.618-.572 0-1.143-2.286-1.238-5.048-.096-3.143-1.143-7.047-2.953-10.571-2.476-5.048-3.333-5.81-7.333-7.143-7.524-2.381-11.429-7.143-15.143-18.19-2.857-8.477-3.238-10.953-3.524-22.572-.571-26.952-.762-27.714-4.666-34.19l-3.524-5.81 1.333-6.476c2.19-10.286 3.715-14 12.19-30 4.953-9.238 7.62-13.62 10-16.286 1.144-1.238 2.858-3.714 3.81-5.619 1.524-2.952 6.19-9.238 12.857-17.143 1.238-1.428 3.524-5.523 5.143-9.047 1.714-3.524 4.667-8.572 6.667-11.334 2-2.666 3.905-6 4.19-7.428 1.334-6.857-2.476-17.238-7.333-20-3.333-1.81-4-3.62-1.048-2.667 1.048.286 3.62.762 5.715 1.048zm22.095 10.571c-.19.762-.667.381-1.048-1.047-.38-1.62-.285-2 .476-1.238.572.571.858 1.619.572 2.285zm-32-.285c.19.666-.286 1.428-1.238 1.81-2.095.761-2.762.094-1.905-2 .667-1.81 2.476-1.715 3.143.19zm66.857 11.81c-.857 11.237-1.238 12.76-3.905 13.904-1.238.571-3.143 2.666-4.19 4.762-1.429 2.666-2.857 4-4.857 4.38-1.81.382-2.667 1.144-2.477 2.191.286 2.19-3.142 7.333-4.38 6.476-.572-.285-.762-2.38-.381-4.857.666-4.38-.953-16.571-2.667-19.81-.476-1.047-1.143-2.952-1.429-4.38-.19-1.429-1.047-3.524-1.904-4.667-2.19-3.143-1.81-5.714.38-2.952 2.858 3.333 7.905 5.523 11.239 4.857 1.619-.381 4.571-2.381 6.666-4.572 2.286-2.38 4.762-3.904 6.19-3.904l2.382-.096-.667 8.667zm-30.762-3.906c.572 1.524 1.333 4.762 1.714 7.238.381 2.477 1.048 5.143 1.524 6 2.667 4.858 2.667 14.381-.19 30.286-.953 5.429-1.62 6.762-3.048 6.762-2.476 0-4.19 6-2.19 7.619 1.238.952 1.238 1.333-.096 2.667-.857.857-1.904 1.714-2.285 1.904-1.238.477-6.762 8-8.667 11.524-.857 1.715-2.476 3.429-3.524 3.715-1.81.666-7.047 7.619-7.047 9.428 0 .571.857.762 2 .476 3.619-1.047 2 3.048-5.81 14.19-3.714 5.239-3.81 5.43-1.714 5.43 1.905 0 1.905 1.904-.095 2.666-1.143.476-1.334 1.429-.858 3.524.667 3.238-1.047 4-2.095.762-1.428-4.477-3.524-.762-6.476 11.619-.667 2.762-1.429 6.571-1.619 8.476-.286 1.905-.952 3.905-1.429 4.476-1.619 1.524-1.047 3.143 1.524 4.476 2 1.143 2.286 1.62 1.334 2.762-1.334 1.62-2.096 10.381-1.048 11.238.476.286 1.619 1.81 2.571 3.334.953 1.523 2.19 2.476 2.667 2.19 1.524-.952 1.143-4.286-.571-5.238-1.239-.762-1.429-1.81-.667-5.81.667-4 1.143-4.952 3.048-5.238 2.476-.38 3.619 1.524 2.857 4.953l-.381 2.38-.762-2.285c-.857-2.476-2.476-3.048-2.476-.762 0 .857.666 3.333 1.523 5.524 1.62 4 1.62 4.095-.952 6.476-2.857 2.571-3.429 4.476-1.333 4.571.666 0 2.762 2.286 4.571 4.953 1.905 2.762 3.81 4.952 4.286 4.952.476 0 .857.762.857 1.524 0 .857.476 1.524 1.143 1.524.571 0 2.571 1.619 4.38 3.619 1.81 1.905 4.096 3.619 5.048 3.81 1.429.19 1.81 1.333 1.905 5.809.095 3.714.667 6.095 1.81 7.238 2.571 2.476 2.095 5.429-.857 6.571-2.286.858-2.572 1.334-1.81 3.715.952 3.428.952 6.285-.095 12.762-.476 2.761-.857 5.904-.953 6.952-.19 3.333-2.761 9.905-4.761 12.38-.953 1.334-1.81 3.525-1.81 4.763 0 2.286.286 2.38 4.286 1.81 4.38-.667 6.38-1.715 10.762-5.239 4.761-4 5.619-5.238 7.047-9.333 1.81-5.62 9.429-13.238 19.905-20 4.667-3.048 9.048-6.19 9.714-6.952.572-.762 3.62-6.381 6.667-12.381 4.952-9.715 6.286-11.62 11.524-15.524 8.762-6.762 11.047-10.476 11.238-18.19.095-7.715 1.428-10.286 7.143-14.858 2.952-2.19 5.81-5.905 8.19-10.476 6.095-11.428 11.524-16.19 19.524-17.048 1.905-.285 6.476-.952 10.095-1.523 3.714-.667 7.81-.857 9.143-.572 3.333.857 4.38 3.715 2.095 5.429-1.524 1.047-2 1.047-2.952-.19-1.429-2-3.143-2-7.714-.096-2.381 1.048-3.62 2.19-3.62 3.429-.095 1.047-.952 3.904-2.095 6.476-1.428 3.238-2.38 8.286-2.952 16-.667 8.571-1.429 12.571-3.429 17.047-1.619 3.62-2.762 8.286-2.952 12.19-.286 4.096-1.143 7.43-2.476 9.715-1.238 1.905-2.19 4.476-2.19 5.81 0 1.238-1.81 5.143-4 8.666-2.191 3.429-4 6.477-4 6.857.095 1.715-4.382 6.381-5.81 6.096-1.143-.19-1.715.571-1.905 2.38-.381 2.953-2.667 5.048-19.524 17.81-5.619 4.19-11.714 9.143-13.524 10.857-1.904 1.715-4.095 3.143-5.047 3.143-.857.095-3.143 1.62-5.143 3.429-1.905 1.904-5.714 4.571-8.286 6-2.666 1.428-6.38 3.904-8.285 5.619-1.905 1.619-4.096 2.952-4.762 2.952-.667.095-3.715 1.62-6.667 3.524-3.048 2-6 3.333-6.762 3.048-.667-.286-1.238 0-1.238.476 0 .571-.476.952-1.048.952-.571 0 .572-1.905 2.572-4.38 2.666-3.239 4.571-4.572 7.238-5.048 4.19-.762 6.667-2.572 10.095-7.429 2.952-4.095 2.286-7.429-1.905-9.143-1.619-.667-3.81-2.19-4.762-3.428-2-2.572-4-2.19-5.142.952-1.048 2.571-7.334 4.952-15.905 6.095-3.429.476-6.19 1.524-7.524 2.762-1.143 1.143-2.952 2.095-4.095 2.095-2.476.096-3.62 4.572-1.048 4.572.857 0 1.524.666 1.524 1.524 0 .952-.952 1.428-2.952 1.428-1.715 0-3.048.476-3.048 1.048 0 1.143.571 1.428 6.667 2.952 2.38.572 5.523 2.19 7.143 3.62 1.619 1.332 4.19 2.38 5.714 2.38 3.428 0 2.857 1.905-1.334 4.381-3.81 2.19-6.19 1.62-6.19-1.619 0-2.19-.381-2.38-5.714-2.476-4-.095-6.096-.667-6.953-1.714-.571-.953-2.762-1.905-4.762-2.19-2.19-.382-3.523-1.144-3.523-2.096 0-1.143-.953-1.333-3.81-.953-6.19.953-15.714 3.334-18.762 4.858-4.095 1.904-9.524 11.523-9.905 17.428-.476 6.19-2.19 7.81-3.047 2.762-.762-4.667.857-13.429 3.047-16.762 2.762-4.19 7.81-7.333 12.953-8.095 2.762-.381 6.571-1.048 8.476-1.524 1.905-.476 5.143-1.047 7.238-1.333 4.476-.572 8.572-3.334 12.762-8.667 1.905-2.38 4-4 5.333-4 1.238 0 2.857-.38 3.715-.952 1.142-.857 1.238-1.143.095-1.905-1.048-.667-.762-2.095 1.619-7.238 1.619-3.524 3.238-7.714 3.714-9.333.953-4.19.667-29.048-.38-31.715-.477-1.238-1.62-4.476-2.572-7.047-1.429-4-2.095-4.762-4.286-4.762-4.952 0-14.762-5.81-19.905-11.62-4.095-4.666-5.143-6.761-6.666-13.237-2-8.19-2.381-28.286-.667-35.143 1.62-6.572 4.762-16.762 6.286-20.095.857-1.905 2.095-5.238 2.857-7.429.762-2.19 2.286-5.619 3.619-7.714 1.238-2 2.286-4 2.286-4.286 0-1.238 6.762-14.38 9.523-18.476 1.715-2.476 3.81-5.81 4.667-7.524 1.333-2.667 11.333-21.714 15.143-28.952.857-1.714 2.19-4.572 2.952-6.572.762-1.904 1.905-4.762 2.667-6.476 2.286-5.524 3.81-16.286 2.952-20.286-1.143-4.666-1.143-5.238-.095-5.238.476 0 1.333 1.238 2 2.762zm-6.857 4.762c0 .857-.476 1.524-.952 1.524-.572 0-1.048-.667-1.048-1.524 0-.762.476-1.524 1.048-1.524.476 0 .952.762.952 1.524zm-.381 10.095c-.571 1.62-2.571 2-2.571.477 0-.477.476-2.19 1.142-3.715 1.143-2.762 1.143-2.762 1.524-.476.286 1.238.19 2.953-.095 3.714zm16.381 17.905c0 .19-.476.667-.952 1.048-.572.286-1.048.095-1.048-.476 0-.572.476-1.048 1.048-1.048.476 0 .952.19.952.476zm4 9.048c-.857 1.047-1.62 1.238-2.286.571-.666-.666-.571-1.524.286-2.571.857-1.048 1.619-1.238 2.286-.572.666.667.571 1.524-.286 2.572zm-5.333 1.238c-.19.952-.477.38-.477-1.238 0-1.715.19-2.476.477-1.81.285.667.285 2 0 3.048zm-38.667 13.143c0 .952-2.762 4.095-3.524 4.095-.286 0 .095-1.143.667-2.476 1.143-2.476 2.857-3.429 2.857-1.62zm24.952 14.666c-1.81 2.19-2.19 1.048-.762-2.095 1.048-2.19 1.429-2.476 1.62-1.143.19.953-.191 2.381-.858 3.238zm9.048-.095c-.476 1.905-.571 3.524-.381 3.524.286 0 .19.476-.19 1.048-.381.666-1.143.38-1.905-.762-1.143-1.524-1.143-2 .095-3.334.762-.857 1.429-2.38 1.429-3.333 0-.952.38-1.524.857-1.143.476.286.571 2.095.095 4zm-4 10.857c0 4.953-.476 7.143-2.286 9.81-3.619 5.333-9.524 19.905-10.19 25.047-.572 4-.381 4.762 1.333 5.238 2.572.858 3.524 5.715 1.429 7.334-.953.666-2.19 1.238-2.857 1.238-1.715 0-2.477 4-1.429 7.524.476 1.619 1.143 4.19 1.524 5.714.286 1.619 1.428 3.619 2.476 4.476 1.143.953 2 2.476 2 3.429 0 .952.38 2 .952 2.285.477.286.572 1.524.286 2.667-.38 1.714-.19 1.905 2.095 1.333 5.524-1.333 11.62 4.477 8.476 8.286-1.904 2.286.191 3.333 3.81 1.81 4.476-1.905 6.381-1.048 6.381 2.666 0 2.667-.19 2.857-1.524 1.81-1.143-1.048-2.095-1.048-4.095-.19-3.333 1.618-5.905 1.523-7.333-.191-.667-.762-3.334-2-6-2.572-14-3.428-21.62-20.761-17.715-40.666.953-4.762 2.19-9.333 2.857-10.095.572-.762 1.239-2.572 1.429-4.096.095-1.428.667-4.285 1.143-6.285 1.143-4.381 15.428-32.953 16.476-32.953.381 0 .762 2.953.762 6.381zm-11.81-.095c-2 4.476-3.142 4.762-3.142.952 0-2 .666-3.238 2.19-3.904 1.238-.572 2.381-.953 2.476-.857.095.095-.571 1.809-1.524 3.809zm16.858-.762c0 .19-.477.667-1.048 1.048-.571.285-.952.095-.952-.476 0-.572.38-1.048.952-1.048.571 0 1.048.19 1.048.476zM87.01 309.62c-1.143 2.19-2.095 3.524-2.095 3.143-.096-1.143 3.238-7.81 3.714-7.334.19.191-.572 2.096-1.62 4.191zm49.905 2.19c0 .477-.762 1.715-1.524 2.762-1.429 1.81-1.429 1.715-.381-.857 1.143-2.762 1.905-3.428 1.905-1.905zm-54 9.143c-.667 1.143-1.62 1.81-2.19 1.524-.572-.476-.382-1.333.57-2.38.858-.953 1.62-2.382 1.715-3.144.095-.952.286-.857.571.286.19.857-.095 2.571-.666 3.714zm48.571 5.334c-1.333 5.238-2.095 11.333-2.095 16.952 0 4.857-.286 8.762-.667 8.762-1.048 0-2.19-10.476-1.524-14.19 1.81-10.477 4.572-19.81 6-19.81.19 0-.571 3.714-1.714 8.286zm-52.952 4.857c-1.143 2.095-2.477 3.81-2.953 3.81-1.428.095-.666-3.43 1.334-6.858 3.047-4.952 4.571-2.095 1.619 3.048zm65.714-4.667c.286.952 0 1.238-.952.857-1.524-.571-2-2.38-.572-2.38.572 0 1.143.666 1.524 1.523zm-34 2c-.381.857-.762 1.524-.952 1.524-.286 0-.381-.667-.381-1.524 0-.762.38-1.524.952-1.524.476 0 .667.762.38 1.524zm25.619-.571c0 .476 1.905 2.857 4.286 5.238 2.285 2.285 4.666 5.81 5.238 7.81 1.238 4.095 4.285 5.428 5.143 2.095 1.142-4.096 3.428-1.43 3.238 3.809v2.667l-1.143-2.572c-1.143-2.285-1.238-2.19-1.524 2.286-.19 2.571.19 5.619.762 6.762.571 1.143.857 2.952.476 4-.38 1.333-.095 2.19.953 2.571.857.381 1.619 1.524 1.619 2.572 0 1.047.666 3.047 1.523 4.38.953 1.334 1.429 3.43 1.143 4.477-.571 2.19 1.238 8 2.476 8 .477 0 .858.857.858 1.905 0 1.142.857 2.666 2.095 3.428 2.095 1.524 1.81 3.62-.572 3.62-1.333 0-3.142 4.856-2.19 5.714.286.285-.19 2.38-1.048 4.666-2.476 6.572-3.047 9.429-6.857 31.81-.476 2.476-2.095 4.952-5.047 7.904-5.334 5.334-7.143 4.477-4.477-2.095 2.953-7.143 5.048-14.666 5.62-19.714.19-2.667.857-6.095 1.333-7.714 2.285-7.81 3.619-19.143 3.619-31.238 0-12-.19-13.334-2-14.667-1.143-.857-2.762-1.524-3.62-1.62-.856 0-2.952-.666-4.57-1.428-8.096-4.095-12.096-13.714-10.858-26.476.381-4.095.857-7.81 1.143-8.286.667-1.142 2.381-1.047 2.381.096zm-26.19 12.952c-.667 3.048-1.43 4.762-1.81 4.095-.667-1.047 1.81-10.476 2.476-9.714.19.095-.095 2.667-.666 5.619zm-52.953 2.381c1.524 4.762 1.143 16.857-.666 18.952-1.239 1.524-1.239 2 .095 4.096.857 1.238 1.714 4.761 2 7.81.857 9.237 3.333 18.761 6.666 25.428 4.096 8.38 7.334 12.19 11.143 12.952 2.19.571 4.286 2.381 7.524 6.762 4.476 6.095 5.143 7.714 3.333 7.714-2.857 0-8.38-3.333-13.619-8.286-5.904-5.619-6.952-7.142-11.81-18.19-1.523-3.238-3.332-7.333-4.094-8.952-4.381-9.62-6.762-35.048-4.381-46.476 1.333-5.81 2.38-6.381 3.81-1.81zm46.19-.286c0 1.143-.666 2-1.523 2-1.524 0-2.095-2.095-.857-3.333 1.238-1.238 2.38-.571 2.38 1.333zm.858 4c.952.572 1.143 1.524.571 2.667-1.905 4.476-2.19 6.952-1.047 10.095.38 1.429.285 2.286-.381 2.286a1.057 1.057 0 0 1-1.048-1.048c0-2-2.095-.857-3.048 1.62-.762 2.095-1.238 2.38-2.38 1.523-1.239-1.048-1.239-1.714 0-4.667.761-1.81 1.428-4.476 1.428-5.81 0-3.523 1.714-7.618 3.238-7.618.667 0 1.905.38 2.667.952zm25.714 12c.762 0 1.429.667 1.429 1.429 0 1.333 6.761 7.905 10.19 9.714 1.238.667 1.81 1.714 1.429 3.048-.286 1.143.19 2.285 1.333 2.857 1.048.571 1.714 1.619 1.619 2.476-.286 2.19-1.619 3.143-1.619 1.143 0-1.238-.571-1.524-2.381-1.048-2 .476-2.762.096-4-2.38-.857-1.62-3.143-4-5.048-5.144-2.666-1.714-3.619-3.047-4.095-5.904-.286-2-.952-5.048-1.524-6.667-1.238-4.095-1.047-5.81.19-2.19.572 1.523 1.62 2.666 2.477 2.666zm-28.952 5.238c-.286.762-.572.572-.572-.571-.095-1.048.19-1.714.476-1.333.381.285.381 1.142.096 1.904zm48.095 3.143c2.286 1.429.286 2.572-2.953 1.62-4.857-1.43-6-3.144-1.809-2.667 2 .19 4.095.666 4.762 1.047zm20.952 10.286c.286.857-.095 3.714-.952 6.19l-1.524 4.667.095-6.19c.19-6.096 1.048-8 2.381-4.667zm-60.095 6.952c1.143 2.381 1.333 3.905.667 4.572-1.238 1.238-5.62-5.81-4.857-7.81.761-2 2.19-.857 4.19 3.238zm38.381-.38c0 .666-.667.57-1.524-.191-.762-.667-1.428-1.429-1.428-1.62 0-.19.666-.094 1.428.287.857.285 1.524 1.047 1.524 1.523zm25.428 2.38c.858 2.286.762 2.667-.57 2.19-1.334-.38-2.096-3.809-.858-3.809.38 0 1.048.762 1.428 1.62zm7.143 6.572c1.334 2.571 1.429 3.238.286 4-3.429 2.095-5.143.476-4.19-4 .761-4 1.81-4 3.904 0zm-64-1.048c.286.572 1.715 1.429 3.048 1.905 1.333.571 2.381 1.428 2.381 2 0 1.524-2.571 1.238-4-.476-.667-.857-1.62-1.238-2.19-.953-.572.381-.191 1.429.761 2.572 1.62 1.81 1.62 1.81-.761 1.81-3.048 0-5.334-2.286-4.191-4.191 2.286-3.62 3.81-4.476 4.952-2.667zm6.477-.095c0 .571-.286.952-.477.952-.285 0-.761-.38-1.047-.952-.381-.572-.19-1.048.38-1.048.572 0 1.144.476 1.144 1.048zm5.428 2c.381.571 0 .952-.857.952s-1.81-.38-2.095-.952c-.381-.572 0-1.048.857-1.048s1.81.476 2.095 1.048zm5.333 1.905c.286.762-.095 1.142-.857.952-.762-.286-1.523-1.048-1.81-1.81-.19-.761.191-1.142.953-.857.667.19 1.524 1.048 1.714 1.715zm7.715 3.523c.762.762 2 1.62 2.666 1.81.953.286.762 1.143-.476 3.143-1.047 1.524-1.524 3.524-1.238 4.666.857 2.477 2.572 2.572 2.572 0 0-1.047.38-2.19.952-2.571 1.333-.762 1.238-.19-.571 6.19-.858 2.953-1.334 6.096-1.048 6.762.286.762-.19 1.715-1.048 2-1.047.381-1.333 1.334-.857 3.62.476 2.095.19 3.809-.952 5.523-.857 1.334-1.81 4.572-2.19 7.143-.286 2.667-1.525 5.81-2.572 6.952-1.048 1.239-1.62 2.667-1.238 3.334.38.571-.095 2.571-.953 4.38-.857 1.81-2.095 5.048-2.762 7.144-.952 2.857-2.57 4.571-6.095 6.761-2.666 1.62-5.047 2.667-5.428 2.381-.286-.38 1.047-3.619 2.952-7.428 3.143-6 6.381-15.62 8.857-26.286 3.334-14.666 3.905-18.38 3.905-25.619 0-4.476.286-8.857.571-9.714.762-2 3.143-2.095 4.953-.19zm21.714 2c-.667 3.524-1.238 3.238-1.238-.476 0-1.714.38-2.857.857-2.571.476.286.667 1.714.381 3.047zm16.762.096c0 1.428-.667 2.762-1.524 3.142-2.38.858-3.238-.666-1.238-2.095.952-.762 1.81-1.81 1.81-2.476 0-.571.19-1.143.476-1.143.285 0 .476 1.143.476 2.572zm-56.952-.096c0 .286-.477.762-1.048 1.048-.571.381-.952.19-.952-.38 0-.572.38-1.144.952-1.144.571 0 1.048.286 1.048.476zm46.952 3.048c0 3.143 1.524 3.333 2.476.286.667-2.19.667-2.19 1.524.666.762 2.286.38 3.905-1.62 8-4.856 9.62-7.904 14.477-10.666 16.572-2.476 2-2.666 2-2.666.286 0-.953 1.428-5.62 3.047-10.286 1.714-4.667 3.524-10.095 4-12 1.62-5.62 1.81-6 2.857-6 .572 0 1.048 1.143 1.048 2.476zm62.095 8.762c0 4 .476 9.524 1.048 12.286.476 2.762 1.238 7.523 1.524 10.762.285 3.142.952 6 1.428 6.285.476.286.952 1.429.952 2.572s.667 3.428 1.62 5.238c2.666 5.238 3.047 6.095 3.809 9.428.381 1.715 1.143 3.143 1.62 3.143.475 0 .951.762.951 1.62 0 2.19 4.858 8.38 6.572 8.38.762 0 1.714.762 2 1.524.38.857 1.428 1.524 2.38 1.524.953 0 2 .666 2.382 1.524.38 1.047 2.19 1.428 6.571 1.428 3.334 0 6.095-.286 6.095-.762 0-.666 8.667-4.19 10.381-4.19 1.238 0 .572 20-.857 24.19-.762 2.381-1.619 6.857-1.81 10-.285 3.143-.856 6.286-1.428 7.048-1.524 1.905-3.333 11.238-3.333 16.762 0 2.952-.572 5.428-1.524 6.38-.762.763-1.429 2.858-1.429 4.477 0 1.714-.476 3.333-1.047 3.619-.572.38-.953 1.619-.953 2.857 0 1.238-.666 3.143-1.523 4.19-.762 1.143-1.429 3.43-1.524 5.239 0 1.81-.381 3.238-.953 3.238-.761 0-1.81 3.143-3.904 12.952-.476 2-1.238 4.476-1.81 5.524-.571 1.143-1.81 3.428-2.666 5.143-.953 1.81-1.62 4.095-1.62 5.238 0 1.238-.476 2.095-1.047 2.095-.572 0-.953 1.143-.953 2.571 0 1.334-1.142 4.858-2.571 7.715-1.333 2.762-2.476 5.904-2.476 6.857 0 .952-.667 2.476-1.524 3.238-.762.857-1.524 2.095-1.524 2.857s-1.047 3.524-2.476 6.286c-1.333 2.762-2.38 6-2.476 7.238 0 1.238-.381 2.286-.953 2.286-.476 0-1.142 1.333-1.523 2.952-.381 1.714-1.143 3.048-1.62 3.048-.476 0-.857.952-.857 2 0 1.142-.761 2.285-1.523 2.666-.857.286-1.524 1.62-1.524 2.857 0 1.238-.381 2.477-.857 2.667-1.143.381-8.667 12.667-9.62 15.62-.38 1.237-1.047 2.19-1.618 2.19-.477 0-.858.666-.858 1.428 0 .857-1.142 3.62-2.57 6.19-1.334 2.572-2.477 6.096-2.477 7.905 0 1.81-1.143 4.857-2.476 6.857-1.429 2.096-2.476 4.096-2.476 4.572 0 .38-.762 1.333-1.524 2-.857.762-1.524 2.095-1.524 3.143 0 1.047-.476 1.905-.952 1.905-.572 0-1.334 1.142-1.62 2.476-.38 1.428-1.047 2.476-1.523 2.476-.477 0-.857.952-.857 2 0 2-3.048 8.286-4.286 8.857-.381.19-.762 1.143-.762 2-.095.952-.762 2.571-1.524 3.62-.857 1.047-1.428 2.951-1.428 4.285 0 1.238-.477 2.286-.953 2.286s-1.238 1.333-1.619 2.952c-.38 1.714-1.048 3.238-1.524 3.619-.571.286-.952 1.81-.952 3.333 0 1.62-.667 3.143-1.524 3.429-.762.38-1.524 1.333-1.428 2.19 0 .857-1.143 3.238-2.572 5.238-1.333 2-2.476 4.858-2.476 6.19-.095 1.43-.762 3.43-1.524 4.477-.857 1.048-1.428 2.762-1.428 3.81 0 .952-.477 1.714-1.048 1.714-.572 0-1.048 1.238-1.048 2.762 0 2.952-3.047 13.714-4.285 14.952-.381.381-.667 1.62-.667 2.857 0 1.238-.667 2.762-1.524 3.524-.762.667-1.428 2-1.428 2.952 0 .953-.762 3.048-1.524 4.667-.857 1.524-1.524 4-1.524 5.524s-.476 2.952-.952 3.333c-.572.286-1.048 2.476-1.048 4.762 0 2.381-.476 5.81-1.048 7.714-.571 1.905-1.523 10.858-2.095 19.715-.857 13.333-.857 16.571.19 17.904 1.239 1.429 1.43 1.429 2.096-.285.762-1.715.762-1.715.571.19-.285 3.048 3.048 9.143 5.238 9.81 1.143.285 2 .952 2.096 1.524 0 .666-1.143.666-3.143.095-1.62-.476-3.715-.572-4.476-.286-1.62.571-2 4.286-.381 4.286.476 0 .952 1.047.952 2.285.095 3.81 5.143 10.096 9.048 11.143 1.904.572 3.904 1.524 4.476 2.096 1.619 1.81 4.476 7.619 4.476 9.142 0 .762.667 1.715 1.524 2 .762.381 1.524 1.334 1.524 2.286s.285 2.095.666 2.476c1.048 1.048 3.238 7.62 4.286 12.572 1.524 8.095 3.143 13.523 4.095 14.476.476.571.953 2.857.953 5.143 0 2.38.38 4.38 1.047 4.571.572.19 1.429 2.857 1.905 5.905 1.428 8.762 3.048 14.952 4.095 14.952.476 0 .953 1.524.953 3.429 0 1.905.38 3.714.857 4 .476.286 1.238 2.857 1.619 5.619.38 2.667 1.047 4.952 1.524 4.952.57 0 .952 2.572.952 5.715 0 3.238.476 7.333 1.143 9.333.666 1.905 1.524 7.238 1.905 11.905.761 8 2.19 18.285 2.952 20.571.19.571 0 1.714-.381 2.571-.381.858-.19 5.524.38 10.477.668 4.952 1.049 10.38 1.049 12.19 0 1.81-.096 4.952-.191 6.952 0 2.096.286 6.286.667 9.429.476 3.62.285 6.286-.476 7.81-.762 1.428-1.334 9.714-1.524 24.19-.19 12.095-.572 22.286-.857 22.571-.667.667-7.715-3.619-7.62-4.666 0-.762-4.095-5.048-8.095-8.667-4.095-3.524-7.904-8.476-8.571-10.952-.286-1.334-1.143-2.476-1.714-2.476-.667 0-2.286-1.62-3.62-3.62-1.428-1.904-3.333-4.38-4.285-5.428-.953-1.048-1.714-2.286-1.714-2.667 0-.38-1.143-2.476-2.572-4.476-1.333-2-2.476-4.38-2.476-5.238 0-.857-.381-1.524-.952-1.524-.477 0-1.239-.952-1.62-2.19-.38-1.143-2.19-3.715-4.095-5.62-1.81-2-3.619-4.57-4-5.904-.285-1.238-.952-2.286-1.428-2.286s-.857-.666-.857-1.428c0-.762-2.477-4-5.524-7.048-3.048-3.048-5.524-5.905-5.524-6.286 0-.38-1.81-2.476-4-4.666-2.19-2.19-4-4.286-4-4.858 0-1.238-2.667-3.714-3.905-3.714-.571 0-1.047-.952-1.047-2.095 0-1.143-.572-2.667-1.334-3.333-3.333-3.524-5.619-6.572-6.19-8.477-.381-1.142-1.048-2.095-1.429-2.095-.476 0-1.143-.762-1.524-1.714-.285-.952-1.904-4-3.523-6.762a255.37 255.37 0 0 1-4.667-8.38c-.952-1.81-2.286-3.525-3.048-3.81-.762-.286-1.333-1.62-1.333-2.953 0-1.333-.381-2.38-.857-2.38s-1.714-1.715-2.762-3.715c-1.048-2.095-2.476-4.381-3.143-5.048-.667-.762-1.238-2-1.238-2.762 0-.857-.381-1.523-.857-1.428-.476 0-1.143-1.81-1.524-4-.38-2.286-1.048-4.095-1.524-4.095s-1.143-1.048-1.524-2.477c-.285-1.333-1.047-2.476-1.619-2.476-.476 0-.952-1.143-.952-2.476 0-1.428-.38-2.571-.857-2.571-.572 0-1.238-1.048-1.524-2.477-.38-1.333-1.143-2.476-1.619-2.476-.571 0-.952-.666-1.048-1.524 0-.857-.38-2.285-.857-3.238-2.19-4-4.095-8.666-4.095-9.904 0-.762-.476-1.334-.952-1.334-.572 0-1.334-1.81-1.62-4-.38-2.19-1.047-4-1.523-4s-.857-1.143-.857-2.476c0-1.428-.477-2.571-1.048-2.571-.571 0-.952-.381-1.048-1.048 0-1.619-3.81-9.714-4.952-10.38-.571-.382-.952-1.906-.952-3.43 0-1.618-.667-3.142-1.524-3.428-.857-.381-1.524-1.524-1.524-2.571 0-1.048-.38-2.096-.762-2.286-1.047-.476-4.19-7.524-4.19-9.333 0-.858-.477-1.524-.953-1.524s-1.143-1.048-1.524-2.476c-.285-1.334-1.047-2.477-1.619-2.477-.476 0-.952-1.143-.952-2.476 0-1.428-.38-2.476-.952-2.476-.477 0-1.238-1.429-1.62-3.238-.38-1.714-1.714-5.143-3.047-7.62-1.333-2.475-2.381-4.856-2.381-5.332 0-.477-1.81-3.715-4-7.239-2.19-3.523-4-6.857-4-7.523 0-.572-.476-1.143-.952-1.143-.572 0-1.048-.572-1.048-1.334 0-1.428-2.952-7.714-4.095-8.571-.381-.286-.953-1.524-1.334-2.762-.38-1.238-1.142-2.286-1.619-2.286-.571 0-.952-.666-.952-1.523 0-.762-.476-1.524-.952-1.524-.572 0-1.048-.762-1.048-1.81 0-.952-1.333-2.762-2.952-4-2-1.428-3.048-3.047-3.048-4.666 0-1.334-.38-2.477-.762-2.477-.38 0-1.524-1.428-2.476-3.047-1.62-2.762-1.62-3.429-.286-6.667.857-1.905 1.524-5.714 1.524-8.38 0-2.667.476-4.953 1.048-4.953.476 0 .952-1.048.952-2.476 0-1.334.476-2.477 1.048-2.477.476 0 .952-.476.952-1.142 0-.572.667-2.477 1.429-4.19.762-1.715 1.714-4.858 2-6.953.38-2 1.047-3.715 1.619-3.715.476 0 .952-1.333.952-2.857 0-1.619.667-3.428 1.524-4.19.762-.667 1.524-2 1.524-3.048 0-.952.38-2 .857-2.285.476-.286 1.047-2 1.333-3.81.667-3.81 5.333-14.38 6.762-15.333.571-.286 1.048-1.429 1.048-2.572 0-1.047.38-1.905.857-1.905.476 0 1.143-1.238 1.524-2.761.38-1.524 1.047-2.953 1.428-3.238.953-.762 2.857-3.905 5.143-8.762 1.143-2.286 2.476-4.286 3.048-4.286a.954.954 0 0 0 .952-.952c0-.572.571-1.715 1.238-2.572 3.143-3.81 4.381-5.619 8.476-13.714.762-1.524 1.81-2.762 2.381-2.762.476 0 .953-.476.953-1.143s1.81-3.333 4-6c2.285-2.667 4.571-5.81 5.238-7.048 2.095-3.81 7.143-11.238 8-11.619.38-.19.762-.952.762-1.714s.666-1.428 1.428-1.428c.857 0 1.524-.858 1.524-2.096s1.143-3.238 2.476-4.476c1.429-1.333 2.476-2.857 2.476-3.524 0-.666 1.143-2.666 2.572-4.476 1.333-1.81 2.476-3.81 2.476-4.38 0-.572.667-1.334 1.524-1.715.762-.286 1.524-1.62 1.524-2.952 0-1.334.38-2.381.952-2.381.571 0 1.048-.953 1.048-2 0-1.143.666-2.286 1.428-2.667.857-.286 1.524-1.429 1.524-2.476 0-1.048.667-2.19 1.524-2.476.762-.381 1.524-1.239 1.524-2 0-.762.38-1.429.857-1.429.476 0 1.143-1.714 1.524-4 .285-2.19 1.047-4 1.619-4 .476 0 .952-1.238.952-2.857 0-1.62.476-3.238 1.048-3.62.476-.285.952-1.809.952-3.333 0-1.523.667-3.619 1.429-4.666.857-1.143 1.523-3.429 1.523-5.143 0-1.81.477-3.429.953-3.81.476-.285 1.238-2.476 1.524-4.761.38-2.381 1.047-5.143 1.523-6.286.477-1.048 1.334-11.62 1.905-23.524 1.048-23.048.762-25.524-3.619-27.428-1.238-.572-2.19-1.334-2.19-1.715 0-.476-.762-.857-1.524-.857-.857 0-1.524-.571-1.524-1.238 0-1.429-6.571-7.333-10.19-9.333-2.286-1.143-1.715-1.715 2.38-2.762 1.429-.286 3.905-2 5.429-3.62 1.81-1.904 3.905-3.047 5.524-3.047 1.714 0 3.905-1.143 5.81-3.048 2.476-2.476 3.428-2.857 4.476-2 .952.858 1.619.858 2 .191 1.047-1.714 12.571-1.238 18.095.762 5.905 2 13.524 6.19 13.524 7.333 0 .476.666.762 1.428.762.857 0 1.524.476 1.524 1.048 0 2.285 3.81 5.238 5.905 4.571 3.143-1.047 2.857-6.286-.381-7.714-1.429-.667-2.476-1.524-2.476-2s-.477-.857-1.143-.857c-.572 0-2-1.143-3.334-2.476-1.238-1.429-3.238-2.572-4.285-2.572-1.143 0-2.572-.667-3.334-1.428-.666-.858-2.476-1.524-4-1.524-1.523 0-4-.667-5.619-1.524-1.524-.762-4.19-1.429-5.81-1.429-2.856 0-2.856-.095-.952-1.81 1.048-.952 4.096-2.856 6.762-4.285 6.953-3.524 8.667-4.571 9.905-5.81.667-.666 2.19-1.142 3.429-1.142 1.333 0 2.38-.476 2.38-1.048 0-.476.572-.952 1.239-.952.762 0 2-1.143 2.762-2.476.666-1.429 1.904-2.572 2.666-2.572.667 0 1.334-.286 1.334-.667 0-.476 1.619-1.904 3.714-3.238 2.095-1.428 4-2.762 4.286-3.142.19-.286 1.238-.858 2.285-1.239 1.048-.38 2.095-1.619 2.381-2.666.286-1.143.953-2 1.429-2 .571 0 4-2.857 7.524-6.286 10.19-9.619 10.285-9.714 10.761-9.714.858 0 6.572-6.19 6.572-7.143 0-1.429 3.143-5.905 4.095-5.905 2.19 0 .572 10-3.143 19.524-.952 2.286-1.619 5.714-3.143 16-.571 3.905-1.428 7.905-2 9.048-1.904 4.095.667 36.38 3.048 38.761 1.524 1.524 1.429 9.524-.19 11.143-1.81 1.81-3.143 6.857-6.667 24.572-1.238 6.285-3.429 13.81-4.286 14.571-.38.476-.762 2.381-.762 4.381 0 1.905-.666 4.381-1.524 5.524-.761 1.047-1.428 2.762-1.428 3.714 0 .953-.476 1.81-1.143 1.81s-.857-1.715-.38-5.238c1.332-10.667.19-25.239-2.096-27.524-.762-.762-1.333-2.857-1.333-4.572 0-2-.953-4.19-2.381-5.714-1.334-1.428-2.572-3.619-2.953-4.952-1.81-7.715-2.666-10.381-3.619-11.334-.571-.571-1.047-2.285-1.047-3.904 0-1.81-.572-2.762-1.524-2.762-1.238 0-1.524 1.524-1.524 7.428 0 4.096.476 7.715 1.048 8.096.476.285.952 1.714.952 3.047 0 1.333.38 2.381.952 2.381 1.334 0 5.048 6.476 5.048 8.857 0 1.143.476 2.19 1.143 2.381 4.285 1.429 4.19 37.905-.19 42.19-.477.572-.953 2-.953 3.239 0 1.238-.476 2.571-.952 2.857-.572.38-1.048 1.619-1.048 2.857 0 1.143-.667 3.333-1.429 4.857-.762 1.429-1.714 4.095-2.095 5.714-.286 1.715-1.048 3.048-1.524 3.048-.571 0-.952 1.524-.952 3.429 0 1.904-.667 4.666-1.524 6.285-1.619 3.048-1.81 6.667-.857 12.572.667 3.619 2.38 5.333 2.38 2.285 0-.857.668-1.523 1.525-1.523.762 0 1.524-.667 1.524-1.524 0-.762.38-1.524.857-1.524.476 0 1.428-3.62 2.19-8 .762-4.762 2-8.952 3.143-10.19.952-1.143 1.81-3.334 1.81-4.953 0-1.524.38-2.857.952-2.857.571 0 1.048-1.333 1.048-2.952 0-1.81.571-3.334 1.428-3.62.857-.38 1.524-1.714 1.524-2.952 0-1.333.38-2.476.952-2.476.476 0 1.238-1.429 1.62-3.238.38-1.714 1.047-3.62 1.428-4.19.38-.572 1.048-2.381 1.333-4 1.238-6.286 3.143-12.572 3.905-12.572.38 0 .762-1.238.762-2.762s.571-3.619 1.333-4.762c.762-1.047 1.62-3.524 2-5.428.953-5.905 3.048-13.048 3.905-13.048.38 0 .762-2.095.762-4.667.095-2.666.762-5.619 1.524-6.761.857-1.048 1.524-2.953 1.524-4.191 0-1.333.38-2.38.952-2.38 1.238 0 1.333-9.62.095-10.382-.476-.286-1.143-2.38-1.524-4.762-.38-2.285-1.143-4.762-1.714-5.428-2.095-2.572.667-41.334 3.62-50.096.38-1.142 1.332-2.38 2.094-2.666 1.048-.381 1.429-2.476 1.429-7.429 0-3.714.476-7.238 1.047-7.81 1.143-1.142 2.762-8.57 4-18.856 1.048-8.858 3.143-17.524 4.191-17.524.38 0 .762 3.238.857 7.238zm-146.095-.286c0 .572-.667.762-1.524.381-.762-.286-1.428-.762-1.428-.952 0-.19.666-.381 1.428-.381.857 0 1.524.476 1.524.952zm44.38 8.857c.477.857-1.618 9.429-3.332 13.143l-1.143 2.572.571-2.477c.19-1.333 0-3.047-.667-3.714-.761-.952-.761-1.333.096-1.333.571 0 1.143-1.62 1.143-3.81 0-2.095.285-4.19.666-4.571.857-.857 2.095-.762 2.667.19zm6.668 52.096c0 .57-.381 1.238-.858 1.523-.476.286-.857-.19-.857-.952 0-.857.381-1.524.857-1.524.477 0 .858.476.858.953zm-18 4c0 1.523-2.381 2.57-5.048 2.19-4-.476-4.762-1.524-1.524-2.19 4.572-1.048 6.572-.953 6.572 0zm6.952 13.619c-.762 1.333-1.905 2.476-2.667 2.476-1.904 0-1.619-1.048.857-3.715 2.667-2.761 3.62-2.19 1.81 1.239zm-54 7.904c0 .19-.667.667-1.524.953-.952.38-1.333.19-.952-.381.571-.953 2.476-1.429 2.476-.572zm66 1.524c0 .572-.476 1.048-.952 1.048a1.057 1.057 0 0 1-1.048-1.048c0-.476.476-.952 1.048-.952.476 0 .952.476.952.952zm-68.286 3.524c0 .762-.476 1.238-.857.952-.476-.285-.666-.952-.286-1.524.762-1.238 1.143-1.142 1.143.572zm43.81 1.524c.286.476-.857 2-2.572 3.428-2.666 2.19-4 2.572-10.095 2.572-8.286 0-12.857 1.81-17.619 6.857-3.714 3.905-5.238 3.619-2.762-.572 3.714-6.38 17.334-12.285 22.762-9.904 1.143.571 2.381 0 4-1.62 2.095-2.19 5.143-2.57 6.286-.761zm-45.048 2.952c.381.572.19 1.048-.38 1.048a1.057 1.057 0 0 1-1.048-1.048c0-.476.19-.952.38-.952.286 0 .763.476 1.048.952zm15.524 3.143c0 .476-.857.857-2 .857-2.19 0-2.762-1.524-.762-2.19 1.524-.572 2.762 0 2.762 1.333zm-16.476 15.619c1.238 1.714 1.428 1.714 3.238 0 1.714-1.524 5.238-2.381 5.238-1.238 0 1.714-2.571 5.524-3.714 5.524-2.19 0-10.286-3.905-10.286-5.048 0-1.619 4.19-1.048 5.524.762zm127.143 67.428c-.286.858-.572.572-.572-.57-.095-1.049.19-1.62.476-1.334.381.38.381 1.238.096 1.904zm-3.143 10.572c-.381 1.524-1.62 4.095-2.667 5.81l-2 2.952.571-3.429c.572-3.333 3.048-8.095 4.191-8.095.38 0 .286 1.238-.095 2.762zM166.344 830c.381.572-.095.953-.952.953s-1.524-.381-1.524-.953c0-.571.38-1.047.952-1.047.477 0 1.238.476 1.524 1.047zm3.524 12.381c0 .19-.857.667-2 .953-1.143.285-2 .095-2-.381 0-.572.857-.953 2-.953s2 .19 2 .381zM10.916 1059.524c0 .762-.476 1.429-1.048 1.429-.571 0-.952-.667-.952-1.429 0-.857.38-1.524.952-1.524s1.048.667 1.048 1.524zm216.952 13.429c0 .571-1.62 1.047-3.524 1.047-2 0-3.333-.38-3.143-.762.762-1.238 6.667-1.428 6.667-.285zm31.047 138.095c0 1.142-.476 1.81-1.047 1.428-.572-.286-.953-1.238-.953-2 0-.857.381-1.524.953-1.524.571 0 1.047.953 1.047 2.096z"/>
	<path d="M110.916 86.954c0 .571.38 1.047.952 1.047.571 0 1.048-.476 1.048-1.047 0-.477-.477-.953-1.048-.953a.954.954 0 0 0-.952.953zM152.44 86.954c-.763 1.142 1.142 2.38 2.476 1.523 1.047-.666.38-2.476-1.048-2.476-.476 0-1.143.381-1.429.953zM123.582 129.81c-2.19 2.382-.762 4.477 2.762 4 3.524-.38 5.714-3.428 3.524-4.857-2.286-1.428-4.476-1.142-6.286.858zM180.63 159.62c-.476.381-.762 1.429-.762 2.286 0 1.047.286 1.238 1.143.38.571-.57.952-1.618.666-2.285-.19-.571-.666-.762-1.047-.38zM176.535 166.001c-2 2.857-2.286 8.381-.477 7.714 1.238-.38 3.143-7.238 2.477-9.047-.096-.572-1.048 0-2 1.333zM103.868 245.906c0 2 3.238 3.714 4.952 2.571 1.62-.952 1.238-3.143-.571-3.905-2.857-1.047-4.381-.571-4.381 1.334zM100.916 430.953c0 .572.666 1.048 1.428 1.048.857 0 1.524-.476 1.524-1.048 0-.476-.667-.952-1.524-.952-.762 0-1.428.476-1.428.952zM160.82 222.096c-.571 1.048-.857 2.572-.666 3.238.19.667 1.143-.285 2.095-2.095.952-1.81 1.238-3.238.667-3.238-.572 0-1.429.952-2.096 2.095zM158.82 232.287c-1.428 3.143-.571 4.762 1.429 2.666.857-.952 1.143-2.19.667-3.428-.762-1.905-.858-1.81-2.096.762zM106.916 313.334c0 .762-1.334 3.143-2.858 5.238-3.238 4.572-5.523 9.429-4.761 10.19.285.287-.286 1.144-1.239 1.81-1.238.953-1.428 1.62-.571 2.477 1.81 1.714 3.429.285 3.429-3.143 0-1.81.476-2.953 1.333-2.953.762 0 1.619-1.333 2-3.047.38-1.905 1.333-3.334 2.476-3.62 1.143-.285 2.19-1.714 2.572-3.523.857-4.286.761-4.762-.953-4.762-.762 0-1.428.571-1.428 1.333zM221.296 349.144c-2 1.81-4.761 5.714-6.095 8.762-2.285 5.047-2.571 6.857-2.571 18.19 0 6.952.286 13.524.666 14.667 1.143 3.714 3.81 3.619 7.334-.19 3.619-4 4.095-5.62 1.524-5.62-1.524 0-1.429-.285.571-2.19 1.81-1.905 2.381-2 3.143-.762 1.714 2.667 2.286.095 2.476-10.286.19-10.286 1.81-18.762 3.524-18.762s1.047-3.524-.857-5.333c-2.667-2.476-5.62-2-9.715 1.524zm4-.19c.381.475.19 1.237-.38 1.523-.572.381-1.048-.095-1.048-.952 0-1.715.571-2 1.428-.572z"/>
	<path d="M202.249 372.953c-3.429 1.429-4.953 6.476-3.524 11.715 1.333 4.952.857 7.809-2 14.095-1.619 3.333-1.81 4.857-1.048 7.428.572 1.81 1.524 6.381 2 10.19 1.239 8.382 2.096 9.334 6.19 7.62 5.049-2.095 8-4.953 8-7.62 0-1.714.668-2.761 2.096-3.142 1.238-.286 1.81-1.048 1.429-2-.286-.857.285-1.62 1.619-2 1.81-.476 2-1.048 1.619-4.286-.381-2.666-.095-4.19 1.143-5.428 1.523-1.524 1.333-1.524-2.667-.953-2.952.476-4.19.286-4.19-.476 0-.667-1.143-2.19-2.572-3.524-2.762-2.571-2.952-3.714-1.333-11.524 2-9.619-.095-12.761-6.762-10.095zM182.82 407.81c-7.904 8.286-10.571 12.667-10.762 17.715-.19 3.714.286 5.333 2 7.142 1.143 1.239 2.667 2.286 3.334 2.286 1.619 0 3.81 3.62 5.333 8.762.667 2.381 1.81 4.286 2.476 4.286 3.524 0 11.715-9.524 11.715-13.714 0-1.43-.858-2.667-2.286-3.334-2.19-.952-2.286-1.619-2.286-12.38 0-15.43-2.476-18.191-9.524-10.763zM178.916 426c0 .572-.953.953-2 .953-1.143 0-2-.38-2-.952s.857-1.048 2-1.048c1.047 0 2 .476 2 1.048zM163.297 436.096c-3.905 1.143-7.905 5.333-6.858 7.048 1.81 2.857 1.334 3.81-1.047 2.285-2.667-1.81-7.524-.952-7.524 1.238 0 .762-1.048 2.381-2.381 3.62-1.238 1.238-2.571 3.428-2.952 4.952-.477 1.714-1.143 2.476-2 2.19-.762-.285-1.905.19-2.572.953-1.905 2.285-.095 6.857 2.953 7.333 1.333.19 4 1.905 6 3.81 2.476 2.476 4.476 3.428 6.666 3.428 2.953 0 3.143-.095 4.19-6.095 1.144-6.572 3.144-10.19 3.144-5.714 0 5.523 4.285 6.285 9.904 1.81 3.715-3.048 3.715-3.144 4.381-12 .762-10-.095-13.43-3.524-14.191-1.238-.286-2.952-.762-3.81-1.048-.856-.286-2.856-.095-4.57.381zm.57 4.857c-2 1.238-3.332.19-1.904-1.619.857-1.047 1.524-1.143 2.286-.38.762.856.667 1.428-.381 2zm-9.523 11.048c.381.571.381.952.19.952-.285 0-1.237.286-2.095.667-1.142.476-1.428.19-.952-1.048.667-1.81 2-2.095 2.857-.571zM130.916 367.906c0 .952 2.285 2.095 4.19 2.095.667 0 .286-.667-.762-1.429-2.286-1.714-3.428-2-3.428-.666zM82.82 699.715c0 .952-.666 3.428-1.333 5.524-.762 2.095-1.048 3.714-.762 3.714 1.62 0 6.19-7.429 6.19-10 0-1.81-4-1.048-4.095.762zM93.868 727.715c-.857.286-2.952 1.905-4.762 3.619-4.19 3.905-4.19 7.714-.286 14 3.238 5.047 6.953 6.762 4.858 2.19-.572-1.428-1.524-2.571-2-2.571-.477 0-.762-.953-.762-2.19 0-2.096.095-2 2.19.761 1.238 1.524 3.429 4 4.857 5.429 1.429 1.428 2.857 3.238 3.143 4.095.286.857 2.381 2.381 4.667 3.524 5.714 2.667 5.524 4.762-.381 3.905-4.286-.667-4.476-.572-4.476 1.81 0 2.666 3.904 7.237 7.047 8.285 1.905.571 5.334-1.81 13.429-9.62 4.19-4.094 6.476-3.904 6.476.382 0 7.524-4.286 12.666-10.571 12.666-2.667 0-3.048.953-1.239 2.762 3.048 3.143 9.239-.857 12.953-8.38 2.095-4.191 2.19-4.762.762-8.667-.762-2.286-2.096-4.286-3.048-4.476-1.428-.286-14.762 9.904-15.714 12-.572 1.333-2.381.857-3.714-.953-2.096-2.666-1.715-3.143 2.285-3.428 3.334-.286 3.81-.762 4.096-3.143.19-1.524-.191-2.762-.762-2.762-1.334 0-12-11.143-12-12.572-.096-1.619-6.953-8.38-8.572-8.38-.857 0-1.428-.381-1.428-.953 0-1.428 3.714-2.286 6.952-1.524 3.524.762 3.81-.285.952-3.904-2.19-2.762-2.476-2.858-4.952-1.905zM59.678 745.239c-.667 1.238-1.143 2.857-.953 3.523.095.667-.38.953-1.333.572-1.048-.381-1.905.38-2.572 2.476-.761 2.19-1.523 2.857-2.666 2.476-1.238-.476-1.524-.095-1.048 1.524.476 1.714.095 2.19-1.333 2.19-2.286 0-2.19-.19-.762 3.905.857 2.572.762 3.62-.572 5.62-.857 1.333-1.523 2.856-1.523 3.428 0 .571-1.143 2.857-2.572 5.047-2.666 4.19-3.047 6-1.524 6 1.715 0 6.096-5.428 6.096-7.619 0-1.142 1.333-4.761 2.952-8 1.62-3.238 2.952-6.476 2.952-7.238.096-1.714 3.81-8.095 6.19-10.476 2-1.81 2.572-5.714.858-5.714-.476 0-1.524 1.047-2.19 2.286zM94.916 764.477c0 2.19-.381 6.38-.667 9.238-.571 4.476-.381 5.238.952 5.238 1.429 0 1.62-1.048 1.524-6.667-.095-8-1.619-14.476-1.81-7.81zM104.916 772.858c0 1.142 3.428 4.095 4.762 4.095 1.523 0 1.523-2.19 0-3.714-1.334-1.429-4.762-1.62-4.762-.381zM99.297 783.048c-.667 1.143 5.238 7.905 6.857 7.905.571 0 2.476 1.428 4.38 3.047 3.524 3.143 5.62 3.143 5.144.19-.286-1.237.38-1.618 2.38-1.523 2.286.19 2.762-.19 3.048-2.952.381-3.905 2.19-4.572 4.19-1.429 1.81 2.667 2.286 4.667 3.239 12.095.476 3.524.285 5.048-.762 5.715-1.143.666-1.143 1.238-.19 2.762 1.237 2 .57 17.142-.763 17.142-.952 0-7.904-7.238-7.904-8.19 0-.476-.953-.857-2-.857-1.62 0-2 .666-2 3.047 0 1.81.571 3.334 1.428 3.62.857.38 1.524 1.142 1.524 1.904 0 .667 1.333 2.476 3.048 3.81 2.38 2 3.523 2.38 5.333 1.714 2-.762 2.762-.286 6.19 4 4 5.143 5.429 6 5.429 3.429 0-.762-.667-1.524-1.524-1.524s-1.905-1.048-2.476-2.381c-.476-1.334-1.81-3.334-3.048-4.381-2.095-2-2.095-2.095-.476-8.667 1.048-4.095 1.62-10.666 1.62-17.905 0-10.095-.191-11.619-2.287-14.857-2.952-4.571-6.57-5.714-8.952-2.857-.952 1.143-2.095 2.095-2.667 2.095-.476 0-1.523.667-2.19 1.524-2 2.381-3.62 1.81-8.667-3.047-4.762-4.572-6.666-5.334-7.904-3.429zm24.952 42.476c2.571 1.905 1.428 4.953-1.238 3.524-2.19-1.143-3.524-5.048-1.81-5.048.667.096 2 .667 3.048 1.524zM40.059 786.19c-.667.668-1.143 1.906-1.143 2.668 0 1.142.38 1.047 2-.381 2-1.81 2.571-3.524 1.143-3.524-.477 0-1.334.571-2 1.238zM35.868 794c0 .572.667.953 1.524.953.762 0 1.524.857 1.524 1.81.095 1.428.19 1.428.857-.286.476-1.048.666-2.286.38-2.762-.57-1.048-4.285-.857-4.285.285z"/>
	<path d="M122.535 800.667C121.2 802 121.963 804 123.868 804c1.333 0 2-.666 2-2 0-1.904-2-2.666-3.333-1.333zM39.868 803.239c0 .857.667 2.857 1.524 4.38.762 1.62 1.524 3.81 1.524 4.858 0 2 0 2 1.523.095 2.096-2.857 1.81-4.857-1.523-8.095-2.19-2.096-3.048-2.381-3.048-1.238zM120.916 808c0 1.143.666 2 1.428 2 .857 0 1.524-.857 1.524-2 0-1.142-.667-2-1.524-2-.762 0-1.428.858-1.428 2zM104.916 837.715c.095 2 3.904 5.143 7.904 6.38 5.048 1.62 6.572 3.905 2.667 3.905-2.857 0-4.38 1.715-2.857 3.143 1.048 1.048 8.476-2.095 9.714-4.19 1.048-1.62 7.429-3.905 9.143-3.238.762.285 1.238 1.238.952 2-.285.762-.571 1.714-.571 2.095-.095.38-.667 1.524-1.524 2.571-1.143 1.62-1.714 1.715-2.952.667-.857-.762-1.81-1.048-2.19-.762-.667.667 5.618 9.714 6.856 9.714 1.334 0 .953-2.762-.476-3.238-.952-.38-.952-1.143.19-3.81.763-1.904 1.43-5.523 1.525-8 .095-3.809-.19-4.475-2.096-4.761-1.238-.19-4.285.857-6.857 2.286l-4.666 2.571-3.524-2.571c-1.905-1.524-3.715-3.334-4-4.096-.476-1.428-7.334-2-7.238-.666zM88.535 849.048L83.773 852l.285 5.715.286 5.81h4.476c2.381 0 4.953-.572 5.62-1.239.761-.762 1.904-1.048 2.761-.762 1.143.476 1.429-.095 1.238-2.571-.38-4.762-2.857-5.62-6.952-2.476-1.81 1.333-3.524 2.285-3.905 1.904-.762-.762 1.334-5.428 3.238-7.428 2.762-2.667 4.286-4.953 3.334-4.953-.476 0-3.048 1.334-5.62 3.048z"/>
	<path d="M127.963 847.62c0 1.142.286 1.333.572.57.285-.761.285-1.618-.096-1.904-.285-.38-.571.286-.476 1.333zM100.82 857.62c3.905 4.857 11.048 9.904 11.048 7.714 0-1.048-6.286-6.381-9.524-8.096-2.857-1.523-2.952-1.523-1.524.381z"/>
	<path d="M117.868 858c0 .572.667.953 1.524.953 2.762 0 1.714 3.714-1.238 4.38-1.62.286-3.238 1.525-3.81 2.858-.857 2-1.714 2.286-6.095 2.286-5.143 0-7.429.857-6 2.19 1.048 1.143 22.667 1.333 22.667.286 0-1.429 2.571-1.143 3.81.38 1.428 1.715-.572 6.953-3.81 10.382-3.048 3.333-2.572 4.762 3.238 8.952 2.857 2.095 6.952 5.524 9.143 7.619 4.19 3.905 5.619 4.571 5.619 2.381 0-1.619-8.572-9.81-12.762-12.286-1.81-.952-3.238-2.19-3.238-2.762 0-1.619 4.285-9.619 5.142-9.619 2 0 .572-4.762-2.095-6.762-2.571-1.904-2.952-2-4.476-.476-2.38 2.381-3.143.762-2.857-5.81.19-5.714.095-6-2.286-6-1.333 0-2.476.477-2.476 1.048zm1.429 7.62c1.904.761 2.095 4.38.19 4.38-1.333 0-2.571-2-2.571-4.095 0-1.047.285-1.143 2.38-.286zM104.44 905.334c-1.43 2.095-1.334 3.143 1.047 11.714 1.429 5.238 3.048 10.38 3.62 11.428 1.237 2.286 2.761 7.81 3.237 12 .762 5.715 3.143 14.667 4.095 15.334.477.38.953 1.143.953 1.714 0 .572.571 2.762 1.238 4.952.762 2.19 1.81 5.715 2.476 7.715.572 2.095 1.905 4.571 2.952 5.428.953.953 1.81 2.667 1.81 4 0 1.238.667 2.953 1.524 3.715.762.857 1.524 1.904 1.524 2.476 0 .476.857 1.714 2 2.666 1.047 1.048 2 2.858 2 4 0 1.239.857 3.334 2.095 4.667 1.143 1.238 3.143 4.381 4.476 6.857 2.952 5.334 9.048 13.81 14.38 20 2.191 2.476 5.906 6.667 8.191 9.334 2.381 2.666 6 7.142 8 10 2.096 2.857 4.953 6.285 6.286 7.714 1.62 1.619 2.572 3.619 2.572 5.714 0 1.81.38 3.238.857 3.238 1.333 0 7.143 9.048 7.143 11.143 0 2.667 1.619 3.143 5.047 1.333 2.953-1.619 3.048-1.714 2.381-6.762-1.048-8.761-3.428-16-4.762-14.857-.857.667-2 .572-3.714-.38-1.333-.763-1.905-1.43-1.238-1.43.666 0 1.238-.761 1.238-1.618 0-1.048-.572-1.334-1.905-.953-1.524.477-2-.095-2.571-3.047-.381-2-.476-3.81-.19-4.095.952-.953 2.666.761 2.666 2.571 0 1.048.952 2.095 2.095 2.38 1.905.572 2.095.287 1.524-2.57-.381-1.715-1.524-4.762-2.571-6.667-1.048-2-2.953-5.81-4.286-8.572-2.476-4.952-5.714-8.761-5.714-6.571 0 .571-.953 1.048-2 1.048-1.143 0-2-.667-2-1.429 0-.857.666-1.524 1.428-1.524 2.667 0 1.62-2.857-2.476-7.047-2.19-2.19-4.381-4-4.857-4s-1.143-.858-1.429-2.096c-.38-1.238-1.047-1.81-1.714-1.333-.667.381-1.62.095-2.095-.667-.476-.762-.381-1.619.285-2 1.62-.952-2.857-6.857-5.238-6.857-1.047 0-2.857-.857-4-2-1.619-1.714-2.285-1.81-3.904-.762-1.334.762-1.81 1.905-1.429 2.953.571 2.095-.571 2.285-2.952.571-1.524-1.143-1.62-1.428-.096-3.524.858-1.238 2.381-2.285 3.429-2.285 2.286 0 4.286-3.143 3.333-5.429-.476-1.333-.762-1.429-1.524-.38-.666.951-.761.57-.38-1.239.38-2-.286-3.524-2.858-6.571-3.714-4.286-9.142-15.429-9.904-20-.286-1.524-.572-3.048-.667-3.334-.095-.285-.19-1.333-.095-2.285.095-.953-.19-1.715-.762-1.715-.476 0-1.143-.952-1.429-2.095-.38-1.333-1.047-1.81-1.81-1.333-.761.476-.952.285-.57-.286.38-.571 0-2.571-.763-4.476-.952-2-1.523-2.572-1.523-1.429-.096 2.857-2.477 1.238-2.858-2-.19-1.524-.952-3.524-1.619-4.38-.761-.858-1.619-2.953-2-4.667-.38-1.715-1.81-4.572-3.142-6.381-1.334-1.81-2.381-3.905-2.381-4.667 0-1.714-3.81-9.238-5.81-11.524-2-2.285-2.857-2.19-4.667.572zm6.476 6.762c0 1.142-.477 1.714-1.048 1.428-.571-.38-.952-1.333-.952-2.095 0-.762.38-1.429.952-1.429.571 0 1.048.953 1.048 2.096zm9.333 22.476c2 .762 2.095 3.81.286 5.333-1.81 1.429-2.667.381-2.667-3.048 0-3.047.095-3.142 2.38-2.285zm9.048 22.19c-1.143 3.143-3.239 3.524-4.858.953-.857-1.524-.666-2.19 1.334-3.81 3.143-2.571 4.952-1.143 3.524 2.857zm10.952 20.667c-.667 1.81-4.952 3.905-6.286 3.143-.571-.381-1.047-2-1.047-3.62 0-4.095 3.619-5.714 6.19-2.857.857 1.143 1.429 2.572 1.143 3.334zm-.381 19.81c0 .38-.381.761-.857.761-.953 0-3.143-5.333-3.143-7.428.095-1.143 3.905 5.333 4 6.666zm18 9.047c-.095 1.81-3.62 5.714-5.333 5.714-1.715 0-1.81-5.047-.19-6.19 1.713-1.238 5.523-.953 5.523.476zm8.571 4c.762.762-.762 3.714-1.81 3.714-.57 0-1.618.762-2.38 1.715-1.238 1.714-1.333 1.714-1.333 0 0-.953.38-1.715.952-1.715.571 0 1.048-.666 1.048-1.524 0-.761-.477-1.523-1.048-1.523-.571 0-.952.38-.952.857 0 1.047-3.715.857-4.762-.19-1.334-1.334 2.19-2.667 6-2.286 2.19.285 4.095.666 4.285.952zm2.477 3.714c0 .572-.477.953-1.048.953-.571 0-.952-.381-.952-.953 0-.571.38-1.047.952-1.047.571 0 1.048.476 1.048 1.047zm-14.286 4.953c.667 1.142.857 2 .286 2-.572 0-1.429-.858-2-2-.667-1.048-.762-2-.286-2 .38 0 1.333.952 2 2zm13.81 1.428c.761.762 1.904 1.62 2.476 1.81.571.19 1.238 2.19 1.333 4.476.286 3.333 0 4.286-1.524 4.667-1.143.285-2.476-.286-3.333-1.62-1.143-1.714-1.81-1.904-2.762-.952-.572.667-1.62 1.238-2.19 1.238-.572-.095-.096-.952 1.142-1.905l2.286-1.904-2.571-1.62c-1.334-.952-2.191-2.095-1.905-2.666.571-.857 3.714-2.476 5.333-2.857.095 0 .952.571 1.714 1.333zm-9.048 3.62c.285.57.19.952-.381.952-.572 0-1.334-.381-1.62-.953-.38-.571-.19-1.047.382-1.047.571 0 1.238.476 1.619 1.047zm21.238 6.761c.19.667-.286 1.238-1.143 1.238-1.714 0-2 .857-1.62 4.762.096 1.81-.38 2.19-2.285 2.19-1.428 0-2.762-.666-3.143-1.523-.666-1.81.953-5.429 2.477-5.429.476 0 .952-.666.952-1.524 0-1.904 4.095-1.619 4.762.286zM96.058 913.334c-1.238 1.238-2.19 2.857-2.19 3.619s-.762 1.904-1.714 2.666c-1.62 1.238-1.62 1.334-.096 1.334 2.191.095 7.905-7.143 6.953-8.762-.572-.857-1.429-.572-2.953 1.143z"/>
	<path d="M149.868 988.572c0 .857.476 1.238 1.048.952.476-.38.952-1.048.952-1.619 0-.476-.476-.952-.952-.952-.572 0-1.048.762-1.048 1.619zM202.63 1103.143c-2.857 1.048-3.81 3.81-1.334 3.81.762 0 1.62.952 1.905 2.095.286 1.428 1.143 2 2.381 1.81 1.334-.286 1.905-1.43 2.095-4.572.286-4.667-.19-4.953-5.047-3.143z"/>
</svg>
